<svg id="Capa_1" enable-background="new 0 0 512 512" height="512" viewBox="0 0 512 512" width="512" xmlns="http://www.w3.org/2000/svg"><g><path d="m479.212 442.498-33.938-14.702c-1.693-.733-3.102-1.995-4.017-3.596l-37.599-65.798-180.109-42.909-71.016 25.84-12.346 30.864c-.838 2.094-2.47 3.772-4.541 4.665l-73.526 31.737c-1.513.653-2.804 1.73-3.718 3.101l-49.177 73.766c-7.561 11.342.569 26.534 14.2 26.534h465.156c12.687 0 20.939-13.352 15.265-24.699l-20.394-40.789c-.898-1.795-2.399-3.216-4.24-4.014z" fill="#785353"/><path d="m503.846 487.301-20.394-40.789c-.898-1.795-2.399-3.216-4.24-4.014l-33.938-14.702c-1.693-.733-3.102-1.995-4.017-3.596l-37.599-65.798-27.428-6.534 41.333 72.332c.915 1.601 2.325 2.863 4.017 3.596l33.938 14.702c1.841.798 3.343 2.219 4.24 4.014l20.394 40.789c5.674 11.348-2.578 24.699-15.265 24.699h23.694c12.687 0 20.939-13.352 15.265-24.699z" fill="#6e4848"/><path d="m227.371 337.41 18.049 36.099c.641 1.283 1.607 2.376 2.8 3.172l18.157 12.105c3.269 2.179 7.621 1.748 10.399-1.03l23.528-23.528c3.219-3.219 8.437-3.219 11.655 0l39.246 39.246c3.333 3.333 8.777 3.197 11.939-.298l40.511-44.776-26.8-46.9c-1.519-2.659-4.347-4.3-7.409-4.3h-30.252c-3.457 0-6.547-2.158-7.738-5.404l-14.74-40.2c-1.232-3.361-4.432-5.596-8.012-5.596h-116.26c-3.489 0-6.627 2.124-7.923 5.364l-31.988 79.969 19.028 38.056c2.878 5.757 10.949 6.14 14.36.682l27.09-43.344c3.411-5.457 11.482-5.073 14.36.683z" fill="#ff8086"/><path d="m420.487 68.402c-3.737-.296-7.378-.101-10.873.519-3.426.608-6.885-.995-8.576-4.036-10.196-18.34-29.766-30.752-52.238-30.752-7.106 0-13.92 1.246-20.24 3.525-3.56 1.284-7.484-.093-9.576-3.247-13.752-20.738-37.304-34.411-64.051-34.411s-50.299 13.673-64.051 34.411c-2.091 3.154-6.016 4.531-9.576 3.247-6.32-2.279-13.134-3.525-20.24-3.525-22.472 0-42.042 12.411-52.238 30.752-1.691 3.041-5.15 4.644-8.577 4.036-3.492-.62-7.131-.815-10.865-.52-21.005 1.659-37.867 18.786-39.169 39.816-1.535 24.795 18.119 45.383 42.583 45.383 9.923 0 19.05-3.393 26.295-9.077 2.754-2.16 6.577-2.423 9.513-.517 9.345 6.066 20.488 9.595 32.459 9.595 14.752 0 28.246-5.355 38.665-14.22 2.865-2.438 7.053-2.654 10.095-.441 12.665 9.215 28.245 14.661 45.106 14.661s32.442-5.446 45.107-14.661c3.042-2.213 7.23-1.997 10.095.441 10.419 8.864 23.913 14.22 38.665 14.22 11.971 0 23.114-3.529 32.459-9.595 2.936-1.906 6.759-1.643 9.513.517 7.245 5.684 16.372 9.077 26.295 9.077 24.459 0 44.112-20.582 42.583-45.371-1.298-21.031-18.157-38.164-39.163-39.827z" fill="#dad8db"/><path d="m459.649 108.229c-1.297-21.031-18.157-38.164-39.162-39.827-3.737-.296-7.378-.101-10.873.519-3.426.608-6.885-.995-8.576-4.036-10.196-18.34-29.766-30.752-52.238-30.752-4.048 0-7.997.417-11.818 1.187 17.371 3.506 32.012 14.544 40.362 29.565 1.691 3.041 5.15 4.644 8.576 4.036 3.495-.62 7.136-.815 10.873-.519 21.006 1.663 37.866 18.795 39.162 39.827 1.272 20.622-12.121 38.321-30.739 43.692 3.763 1.088 7.736 1.679 11.85 1.679 24.46 0 44.112-20.582 42.583-45.371z" fill="#c8c5c9"/><g><g><path d="m123.639 148.119c-18.376 0-33.326-14.95-33.326-33.326 0-4.268 3.459-7.726 7.726-7.726s7.726 3.459 7.726 7.726c0 9.855 8.018 17.873 17.874 17.873 9.855 0 17.873-8.018 17.873-17.873 0-4.268 3.459-7.726 7.726-7.726s7.726 3.459 7.726 7.726c.001 18.376-14.949 33.326-33.325 33.326z" fill="#c8c5c9"/></g><g><path d="m254.933 161.326c-28.123 0-54.323-13.93-70.086-37.262-2.389-3.535-1.459-8.338 2.077-10.727 3.537-2.387 8.339-1.458 10.728 2.077 12.885 19.072 34.298 30.459 57.281 30.459 23.101 0 44.576-11.478 57.446-30.703 2.374-3.547 7.171-4.495 10.719-2.123 3.546 2.373 4.496 7.173 2.122 10.718-15.744 23.52-42.02 37.561-70.287 37.561z" fill="#c8c5c9"/></g><g><path d="m386.227 148.119c-18.376 0-33.327-14.95-33.327-33.326 0-4.268 3.459-7.726 7.726-7.726s7.726 3.459 7.726 7.726c0 9.855 8.018 17.873 17.874 17.873s17.874-8.018 17.874-17.873c0-4.268 3.459-7.726 7.726-7.726s7.726 3.459 7.726 7.726c.001 18.376-14.949 33.326-33.325 33.326z" fill="#c8c5c9"/></g></g><g><g><path d="m203.733 229.593c-4.267 0-7.726-3.459-7.726-7.726v-35.555c0-4.268 3.459-7.726 7.726-7.726s7.726 3.459 7.726 7.726v35.555c0 4.267-3.459 7.726-7.726 7.726z" fill="#b6b1b7"/></g></g><g><g><path d="m306.133 229.593c-4.267 0-7.726-3.459-7.726-7.726v-35.555c0-4.268 3.459-7.726 7.726-7.726s7.726 3.459 7.726 7.726v35.555c0 4.267-3.459 7.726-7.726 7.726z" fill="#b6b1b7"/></g></g><g><g><path d="m254.933 229.593c-4.267 0-7.726-3.459-7.726-7.726v-101.08c0-4.268 3.459-7.726 7.726-7.726s7.726 3.459 7.726 7.726v101.079c0 4.268-3.459 7.727-7.726 7.727z" fill="#b6b1b7"/></g></g><circle cx="135.466" cy="204.8" fill="#dad8db" r="17.067"/><circle cx="374.4" cy="204.8" fill="#dad8db" r="17.067"/><path d="m359.467 355.74-17.798-48.54h-2.474c-3.457 0-6.547-2.158-7.738-5.404l-14.74-40.2c-1.232-3.361-4.432-5.596-8.012-5.596h-23.694c3.58 0 6.779 2.234 8.012 5.596l14.74 40.2c1.19 3.246 4.28 5.404 7.738 5.404h9.804c.076.361.169.721.3 1.078l19.353 52.783c1.147 3.129 4.105 5.068 7.254 5.068.883 0 1.782-.153 2.66-.474 4.007-1.47 6.064-5.909 4.595-9.915z" fill="#e5646e"/><path d="m237.866 470.14h-67.179l-10.92-29.12c-1.131-3.015-4.014-5.013-7.234-5.013h-51.2c-2.927 0-5.602 1.654-6.91 4.271l-17.067 34.132c-1.909 3.817-.362 8.458 3.455 10.366 3.816 1.908 8.458.361 10.366-3.455l14.932-29.862h41.07l22.702 60.541h16.504l-9.903-26.407h61.384c4.267 0 7.726-3.459 7.726-7.726.001-4.268-3.459-7.727-7.726-7.727z" fill="#6e4848"/><path d="m403.657 358.4-26.8-46.9c-1.519-2.659-4.347-4.3-7.409-4.3h-23.694c3.062 0 5.89 1.641 7.409 4.3l35.972 62.951z" fill="#e5646e"/></g></svg>