<svg id="Capa_1" enable-background="new 0 0 512 512" height="512" viewBox="0 0 512 512" width="512" xmlns="http://www.w3.org/2000/svg"><g><path d="m504.5 248.5h-18.56l15.196-21.274c2.408-3.371 1.627-8.055-1.743-10.462-3.369-2.407-8.056-1.628-10.462 1.744l-21.424 29.992h-31.266l32.945-46.124c2.408-3.371 1.627-8.055-1.743-10.462-3.371-2.408-8.056-1.627-10.463 1.744l-39.172 54.842h-35.744l13.649-45.23c1.032-3.418-.488-7.089-3.635-8.776l-41.633-22.331 36.988-36.988 66.478 11.08c.418.07.833.103 1.242.103 3.601 0 6.777-2.6 7.389-6.268.682-4.085-2.079-7.95-6.164-8.631l-55.911-9.318 36.552-36.552c2.929-2.929 2.929-7.678 0-10.606-2.93-2.929-7.678-2.929-10.607 0l-36.552 36.552-9.32-55.91c-.682-4.086-4.533-6.844-8.631-6.165-4.085.681-6.846 4.545-6.164 8.631l11.079 66.48-36.988 36.988-22.331-41.633c-1.688-3.146-5.359-4.666-8.776-3.635l-45.23 13.649v-35.747l54.843-39.174c3.37-2.408 4.151-7.092 1.743-10.462-2.408-3.371-7.093-4.151-10.462-1.744l-46.123 32.946v-31.266l29.993-21.423c3.37-2.408 4.151-7.092 1.744-10.462s-7.091-4.153-10.463-1.744l-21.274 15.195v-18.559c0-4.142-3.357-7.5-7.5-7.5s-7.5 3.358-7.5 7.5v18.559l-21.274-15.196c-3.371-2.408-8.055-1.627-10.463 1.744-2.407 3.371-1.626 8.055 1.744 10.462l29.993 21.424v31.266l-46.124-32.946c-3.368-2.406-8.056-1.628-10.462 1.744-2.408 3.371-1.627 8.055 1.743 10.462l54.843 39.174v35.743l-45.23-13.649c-3.419-1.031-7.089.489-8.776 3.635l-22.331 41.633-36.988-36.988 11.079-66.48c.682-4.085-2.079-7.95-6.164-8.631-4.096-.685-7.95 2.08-8.631 6.165l-9.319 55.91-36.552-36.55c-2.93-2.929-7.678-2.929-10.607 0s-2.929 7.678 0 10.606l36.552 36.552-55.911 9.318c-4.085.681-6.846 4.545-6.164 8.631.611 3.668 3.788 6.268 7.389 6.268.409 0 .824-.034 1.242-.103l66.478-11.08 36.988 36.988-41.634 22.331c-3.146 1.688-4.667 5.358-3.635 8.776l13.649 45.23h-35.743l-39.172-54.843c-2.406-3.37-7.091-4.153-10.463-1.744-3.37 2.408-4.151 7.092-1.743 10.462l32.945 46.127h-31.266l-21.424-29.993c-2.408-3.371-7.092-4.151-10.462-1.744s-4.151 7.092-1.743 10.462l15.196 21.275h-18.56c-4.143 0-7.5 3.358-7.5 7.5s3.357 7.5 7.5 7.5h18.56l-15.195 21.274c-2.408 3.371-1.627 8.055 1.743 10.462 1.321.944 2.844 1.397 4.353 1.397 2.34 0 4.646-1.092 6.108-3.141l21.424-29.992h31.266l-32.945 46.124c-2.408 3.371-1.627 8.055 1.743 10.462 1.321.944 2.844 1.397 4.353 1.397 2.341 0 4.646-1.092 6.11-3.141l39.172-54.842h35.744l-13.649 45.23c-1.032 3.418.488 7.089 3.635 8.776l41.634 22.331-36.988 36.988-66.478-11.08c-4.1-.686-7.95 2.079-8.631 6.165-.682 4.086 2.079 7.95 6.164 8.631l55.911 9.318-36.554 36.554c-2.929 2.929-2.929 7.678 0 10.606 1.465 1.464 3.385 2.197 5.304 2.197s3.839-.732 5.304-2.197l36.552-36.552 9.319 55.91c.611 3.668 3.788 6.268 7.389 6.268.409 0 .824-.034 1.242-.103 4.085-.681 6.846-4.545 6.164-8.631l-11.079-66.48 36.988-36.988 22.331 41.633c1.688 3.147 5.361 4.668 8.776 3.635l45.23-13.649v35.743l-54.843 39.174c-3.37 2.408-4.151 7.092-1.743 10.462 2.408 3.371 7.091 4.15 10.462 1.744l46.124-32.946v31.266l-29.993 21.423c-3.37 2.408-4.151 7.092-1.744 10.462 2.407 3.369 7.09 4.152 10.463 1.744l21.274-15.196v18.562c0 4.142 3.357 7.5 7.5 7.5s7.5-3.358 7.5-7.5v-18.559l21.274 15.196c1.321.944 2.844 1.397 4.353 1.397 2.341 0 4.646-1.092 6.11-3.141 2.407-3.371 1.626-8.055-1.744-10.462l-29.993-21.424v-31.266l46.124 32.946c1.321.944 2.844 1.398 4.354 1.398 2.34 0 4.645-1.092 6.108-3.141 2.408-3.371 1.627-8.055-1.743-10.462l-54.843-39.175v-35.743l45.23 13.649c.719.217 1.447.321 2.167.321 2.706-.001 5.276-1.471 6.609-3.956l22.331-41.633 36.988 36.988-11.079 66.48c-.682 4.085 2.079 7.95 6.164 8.631.418.07.833.103 1.242.103 3.601 0 6.777-2.6 7.389-6.268l9.32-55.91 36.552 36.552c1.465 1.464 3.385 2.197 5.304 2.197s3.839-.732 5.304-2.197c2.929-2.929 2.929-7.678 0-10.606l-36.552-36.552 55.911-9.318c4.085-.681 6.846-4.545 6.164-8.631-.681-4.086-4.535-6.845-8.631-6.165l-66.478 11.08-36.988-36.988 41.633-22.331c3.147-1.688 4.667-5.358 3.635-8.776l-13.649-45.23h35.744l39.172 54.843c1.464 2.049 3.77 3.141 6.11 3.141 1.508 0 3.031-.454 4.353-1.397 3.37-2.408 4.151-7.092 1.743-10.462l-32.947-46.129h31.266l21.424 29.993c1.464 2.049 3.768 3.141 6.108 3.141 1.509 0 3.032-.454 4.354-1.397 3.37-2.408 4.151-7.092 1.743-10.462l-15.196-21.275h18.56c4.143 0 7.5-3.358 7.5-7.5s-3.357-7.5-7.5-7.5zm-124.92-43.689-13.183 43.689h-27.82l7.437-24.644c1.031-3.417-.489-7.088-3.636-8.776l-22.684-12.167 19.672-19.672zm-49.7 81.791-21.265 11.406-34.508-34.508h48.801zm-147.76-61.204 21.265-11.406 34.508 34.508h-48.801zm140.788 23.102h-48.801l34.508-34.508 21.265 11.406zm-59.408-10.607v-48.801l23.103-6.972 11.406 21.265zm-15 0-34.508-34.508 11.406-21.265 23.102 6.972zm-59.408 25.607h48.801l-34.508 34.508-21.265-11.406zm59.408 10.607v48.801l-23.102 6.972-11.406-21.265zm15 0 34.508 34.508-11.406 21.265-23.103-6.972v-48.801zm43.689-141.687 21.57 40.215-19.671 19.671-12.167-22.684c-1.688-3.146-5.359-4.667-8.776-3.635l-24.644 7.437v-27.82zm-102.378 0 43.689 13.184v27.82l-24.644-7.437c-3.421-1.031-7.089.49-8.776 3.635l-12.167 22.684-19.671-19.671zm-72.391 72.391 40.215-21.57 19.672 19.672-22.684 12.167c-3.146 1.688-4.667 5.358-3.636 8.776l7.437 24.644h-27.82zm0 102.378 13.184-43.689h27.82l-7.437 24.644c-1.031 3.417.489 7.088 3.636 8.776l22.684 12.167-19.672 19.671zm72.391 72.391-21.57-40.215 19.671-19.671 12.167 22.684c1.688 3.146 5.359 4.668 8.776 3.635l24.644-7.437v27.82zm102.378 0-43.689-13.184v-27.82l24.644 7.437c.719.217 1.447.321 2.167.321 2.706 0 5.276-1.471 6.609-3.956l12.167-22.684 19.671 19.671zm72.391-72.391-40.215 21.57-19.672-19.671 22.684-12.167c3.147-1.688 4.667-5.358 3.636-8.776l-7.437-24.644h27.82z" fill="#cbe2ff"/></g></svg>