<svg id="Capa_1" enable-background="new 0 0 512 512" height="512" viewBox="0 0 512 512" width="512" xmlns="http://www.w3.org/2000/svg"><g><g><path d="m320.717 482.598-23.639-64.948 31.143-14.047 29.621 81.383z" fill="#d19a6e"/><path d="m333.94 483.449 23.902 1.537-29.621-81.383-20.051 9.043z" fill="#c38c66"/><path d="m330.441 322.532-65.095-61.632c-4.451-4.215-11.804-1.539-12.505 4.551l-10.249 89.055c-.632 5.494 4.738 9.732 9.934 7.841 4.655-1.694 9.634 1.549 9.967 6.491l3.965 58.927c.333 4.942 5.312 8.185 9.966 6.491l79.361-28.885c4.655-1.694 6.384-7.379 3.462-11.379l-34.84-47.689c-2.922-4-1.192-9.685 3.463-11.379 5.197-1.891 6.586-8.59 2.571-12.392z" fill="#b3e59f"/><path d="m359.248 393.992-34.84-47.689c-2.922-4-1.192-9.684 3.463-11.379 5.196-1.891 6.586-8.59 2.57-12.392l-65.095-61.632c-4.451-4.215-11.804-1.539-12.505 4.551l-.593 5.148 54.85 51.933c4.016 3.802 2.626 10.501-2.57 12.392-4.655 1.694-6.385 7.379-3.462 11.379l34.84 47.689c2.922 4 1.192 9.685-3.463 11.379l-65.714 23.918c1.136 4.053 5.54 6.479 9.695 4.967l79.361-28.885c4.655-1.695 6.385-7.379 3.463-11.379z" fill="#95d6a4"/></g><g><path d="m455.221 482.598-23.639-64.948 31.142-14.047 29.621 81.383z" fill="#d19a6e"/><path d="m468.444 483.449 23.901 1.537-29.621-81.383-20.05 9.043z" fill="#c38c66"/><path d="m464.944 322.532-65.095-61.632c-4.451-4.215-11.804-1.539-12.505 4.551l-10.249 89.055c-.632 5.494 4.738 9.732 9.934 7.841 4.655-1.694 9.634 1.549 9.966 6.491l3.965 58.927c.333 4.942 5.312 8.185 9.967 6.491l79.361-28.885c4.655-1.694 6.384-7.379 3.462-11.379l-34.84-47.689c-2.922-4-1.192-9.685 3.462-11.379 5.198-1.891 6.588-8.59 2.572-12.392z" fill="#b3e59f"/><path d="m493.752 393.992-34.84-47.689c-2.922-4-1.192-9.684 3.462-11.379 5.197-1.891 6.586-8.59 2.57-12.392l-65.095-61.632c-4.451-4.215-11.804-1.539-12.505 4.551l-.593 5.148 54.85 51.933c4.016 3.802 2.626 10.501-2.57 12.392-4.655 1.694-6.385 7.379-3.463 11.379l34.84 47.689c2.922 4 1.192 9.685-3.463 11.379l-65.714 23.918c1.136 4.053 5.54 6.479 9.695 4.967l79.361-28.885c4.657-1.695 6.387-7.379 3.465-11.379z" fill="#95d6a4"/></g><g><path d="m175.741 423.335h-46.235c-4.204 0-7.611-3.407-7.611-7.611s3.408-7.612 7.611-7.612h46.235c4.204 0 7.612 3.407 7.612 7.612-.001 4.204-3.409 7.611-7.612 7.611z" fill="#ecf4ff"/></g><g><g><path d="m411.173 187.953h-227.423c-4.204 0-7.612-3.407-7.612-7.611s3.408-7.612 7.612-7.612h227.423c14.344 0 26.014-11.67 26.014-26.015 0-14.344-11.67-26.014-26.014-26.014s-26.014 11.67-26.014 26.014c0 4.204-3.408 7.611-7.612 7.611s-7.612-3.407-7.612-7.611c0-22.738 18.499-41.237 41.237-41.237s41.237 18.499 41.237 41.237c.001 22.739-18.498 41.238-41.236 41.238z" fill="#ecf4ff"/></g></g><g><path d="m91.676 423.335h-84.065c-4.204 0-7.611-3.407-7.611-7.611s3.408-7.612 7.611-7.612h84.065c4.204 0 7.612 3.407 7.612 7.612 0 4.204-3.408 7.611-7.612 7.611z" fill="#ecf4ff"/></g><g><path d="m226.18 305.644h-71.455c-4.204 0-7.612-3.407-7.612-7.611s3.408-7.612 7.612-7.612h71.455c4.204 0 7.612 3.407 7.612 7.612-.001 4.204-3.409 7.611-7.612 7.611z" fill="#ddeafb"/></g><g><path d="m242.993 423.335h-33.626c-4.204 0-7.611-3.407-7.611-7.611s3.408-7.612 7.611-7.612h33.626c4.204 0 7.612 3.407 7.612 7.612-.001 4.204-3.409 7.611-7.612 7.611z" fill="#ecf4ff"/></g><g><path d="m343.87 305.644h-67.25c-4.204 0-7.611-3.407-7.611-7.611s3.408-7.612 7.611-7.612h67.25c4.204 0 7.612 3.407 7.612 7.612 0 4.204-3.408 7.611-7.612 7.611z" fill="#ddeafb"/></g><path d="m128.858 474.568c16.25 0 29.92-12.898 30.069-29.148.118-12.869-8.03-23.844-19.454-27.958-.411-.148-.69-.531-.69-.968v-.007c0-.522.392-.952.91-1.02 14.415-1.9 25.54-14.234 25.54-29.168 0-12.202-7.431-22.661-18.011-27.118-.447-.188-.743-.617-.743-1.101 0-.664.538-1.203 1.203-1.203h14.828c16.28 0 29.943-12.957 30.043-29.237.094-15.31-11.507-27.923-26.393-29.446-.584-.06-1.034-.537-1.034-1.124v-.172c0-.462.285-.87.712-1.045 10.738-4.385 18.308-14.929 18.308-27.244 0-12.316-7.569-22.859-18.308-27.245-.428-.175-.712-.583-.712-1.045 0-.626.507-1.133 1.133-1.133h13.068c15.936 0 29.449-12.417 30.02-28.342.459-12.821-7.29-23.89-18.403-28.374-.42-.169-.699-.569-.699-1.021v-.002c0-.611.495-1.106 1.106-1.106h21.569c16.167 0 29.804-12.766 30.069-28.931.213-13.036-8.056-24.164-19.648-28.245-.345-.121-.578-.441-.578-.806v-.001c0-.476.386-.863.863-.863h23.57c16.524 0 29.867-13.622 29.411-30.25-.44-16.026-13.991-28.596-30.023-28.596h-22.958c-.477 0-.863-.386-.863-.863v-.001c0-.365.233-.685.578-.806 11.592-4.081 19.861-15.21 19.648-28.246-.265-16.165-13.902-28.93-30.069-28.93h-175.274c-16.032 0-29.584 12.569-30.023 28.595-.456 16.627 12.887 30.25 29.411 30.25h24.115c.699 0 1.266.567 1.266 1.265 0 .553-.363 1.032-.889 1.202-11.776 3.797-20.288 13.896-20.288 26.955s8.512 23.159 20.288 26.955c.526.17.889.649.889 1.202 0 .699-.567 1.266-1.266 1.266h-23.503c-16.032 0-29.584 12.57-30.023 28.596-.456 16.627 12.887 30.25 29.411 30.25h5.807c.569 0 1.031.461 1.031 1.031 0 .426-.266.801-.663.955-11.256 4.367-19.159 15.458-18.771 28.345.482 15.996 14.032 28.515 30.035 28.515h6.001c.488 0 .883.395.883.883v.006c0 .373-.237.699-.588.824-11.544 4.121-19.763 15.243-19.527 28.258.294 16.142 13.919 28.875 30.064 28.875h18.963c.924 0 1.673.749 1.673 1.673 0 .638-.369 1.208-.938 1.496-9.575 4.853-16.142 14.784-16.142 26.253 0 12.186 7.412 22.635 17.972 27.102.448.189.744.619.744 1.105v.008c0 .667-.541 1.208-1.208 1.208h-21.098c-16.032 0-29.584 12.57-30.023 28.596-.456 16.627 12.887 30.25 29.411 30.25h21.711c.667 0 1.208.541 1.208 1.208v.005c0 .488-.297.919-.746 1.109-10.432 4.414-17.792 14.667-17.966 26.666-.238 16.42 13.653 29.858 30.075 29.858v4.956h23.819z" fill="#dad8db"/><g fill="#c8c5c9"><path d="m223.341 123.166c-.345-.121-.578-.441-.578-.806v-.001c0-.476.386-.863.863-.863h-23.344c-.476 0-.863.386-.863.863v.001c0 .365.233.685.578.806 11.591 4.081 19.861 15.209 19.648 28.245-.264 16.165-13.901 28.931-30.069 28.931h-21.569c-.611 0-1.106.495-1.106 1.106v.003c0 .453.279.852.699 1.021 11.113 4.483 18.863 15.552 18.403 28.374-.57 15.926-14.084 28.342-30.02 28.342h-13.068c-.626 0-1.133.507-1.133 1.133 0 .462.285.87.712 1.045 10.738 4.385 18.308 14.929 18.308 27.245s-7.57 22.859-18.308 27.244c-.428.175-.712.583-.712 1.045v.172c0 .587.45 1.064 1.034 1.124 14.886 1.523 26.487 14.136 26.393 29.446-.101 16.28-13.763 29.237-30.043 29.237h-14.828c-.664 0-1.203.538-1.203 1.203 0 .485.296.913.743 1.101 10.58 4.457 18.011 14.917 18.011 27.119 0 14.934-11.126 27.268-25.54 29.168-.518.068-.91.498-.91 1.02v.007c0 .437.278.82.69.968 11.424 4.114 19.572 15.089 19.454 27.957-.149 16.249-13.819 29.148-30.069 29.148l-.097 4.956h23.344l.097-4.956c16.25 0 29.92-12.898 30.069-29.148.118-12.868-8.03-23.843-19.454-27.957-.411-.148-.69-.531-.69-.968v-.007c0-.522.392-.952.91-1.02 14.415-1.9 25.54-14.234 25.54-29.168 0-12.202-7.431-22.661-18.011-27.119-.447-.188-.743-.617-.743-1.101 0-.664.538-1.203 1.203-1.203h14.828c16.28 0 29.943-12.957 30.043-29.237.094-15.31-11.507-27.922-26.393-29.446-.584-.06-1.034-.537-1.034-1.124v-.172c0-.462.285-.87.712-1.045 10.738-4.385 18.308-14.929 18.308-27.244 0-12.316-7.569-22.859-18.308-27.245-.428-.175-.712-.583-.712-1.045 0-.626.507-1.133 1.133-1.133h13.067c15.936 0 29.449-12.417 30.02-28.342.459-12.821-7.29-23.89-18.403-28.374-.42-.169-.699-.568-.699-1.021v-.003c0-.611.495-1.106 1.106-1.106h21.569c16.167 0 29.804-12.766 30.069-28.931.214-13.036-8.056-24.164-19.647-28.245z"/><path d="m276.607 91.247c-.44-16.026-13.991-28.596-30.023-28.596h-22.958c-.476 0-.863-.386-.863-.863v-.001c0-.365.233-.685.578-.806 11.592-4.081 19.861-15.21 19.648-28.246-.265-16.165-13.902-28.93-30.069-28.93h-23.344c16.167 0 29.804 12.765 30.069 28.93.213 13.036-8.056 24.165-19.648 28.246-.345.121-.578.441-.578.806v.001c0 .477.386.863.863.863h22.958c16.032 0 29.584 12.57 30.023 28.596.456 16.627-12.887 30.25-29.411 30.25h23.344c16.525-.001 29.867-13.623 29.411-30.25z"/></g><g fill="#c8c5c9"><path d="m166.54 62.651c0-4.204-3.408-7.611-7.612-7.611h-141.631c5.22 4.727 12.14 7.611 19.737 7.611h24.115c.699 0 1.266.567 1.266 1.265 0 .553-.363 1.032-.889 1.202-3.591 1.158-6.873 2.909-9.709 5.144h107.112c4.203.001 7.611-3.407 7.611-7.611z"/><path d="m184.942 62.651c0 4.204 3.408 7.612 7.612 7.612h74.138c-5.367-4.74-12.453-7.612-20.108-7.612h-22.958c-.476 0-.863-.386-.863-.863v-.001c0-.365.233-.685.578-.806 3.719-1.309 7.089-3.351 9.954-5.942h-40.741c-4.204.001-7.612 3.408-7.612 7.612z"/><path d="m99.288 121.496c0-4.204-3.408-7.611-7.612-7.611h-39.86c2.835 2.235 6.117 3.986 9.708 5.144.526.17.889.649.889 1.202 0 .699-.567 1.265-1.266 1.265h-23.501c-7.656 0-14.742 2.871-20.109 7.612h74.139c4.204 0 7.612-3.407 7.612-7.612z"/><path d="m222.763 122.36c0-.477.386-.863.863-.863h23.57c7.597 0 14.517-2.884 19.737-7.611h-141.631c-4.204 0-7.611 3.407-7.611 7.611s3.408 7.612 7.611 7.612h107.993c-2.865-2.591-6.235-4.633-9.954-5.942-.345-.122-.578-.442-.578-.807z"/><path d="m132.914 180.342c0-4.204-3.408-7.612-7.611-7.612h-108.006c5.22 4.727 12.14 7.611 19.737 7.611h5.807c.569 0 1.031.461 1.031 1.031 0 .426-.266.801-.663.955-3.379 1.311-6.446 3.237-9.087 5.626h91.18c4.204 0 7.612-3.407 7.612-7.611z"/><path d="m151.317 180.342c0 4.204 3.408 7.611 7.611 7.611h40.732c-2.545-2.301-5.482-4.177-8.716-5.482-.42-.169-.699-.568-.699-1.021v-.003c0-.611.495-1.106 1.106-1.106h21.569c7.664 0 14.756-2.872 20.128-7.611h-74.12c-4.204 0-7.611 3.408-7.611 7.612z"/><path d="m116.101 239.187c0-4.204-3.408-7.611-7.612-7.611h-74.133c5.371 4.741 12.461 7.611 20.118 7.611h6.001c.488 0 .883.395.883.883v.006c0 .373-.237.699-.588.824-3.672 1.311-7.003 3.336-9.838 5.899h57.558c4.203 0 7.611-3.408 7.611-7.612z"/><path d="m134.503 239.187c0 4.204 3.408 7.611 7.612 7.611h32.33c-2.515-2.274-5.416-4.131-8.605-5.434-.428-.175-.712-.583-.712-1.045 0-.626.507-1.133 1.133-1.133h13.067c7.654 0 14.744-2.87 20.114-7.611h-57.327c-4.204.001-7.612 3.408-7.612 7.612z"/><path d="m124.507 298.033c0-4.204-3.408-7.612-7.611-7.612h-65.715c5.372 4.739 12.463 7.611 20.126 7.611h18.963c.924 0 1.673.749 1.673 1.673 0 .638-.369 1.208-.938 1.496-2.35 1.191-4.516 2.692-6.451 4.442h32.342c4.203.001 7.611-3.406 7.611-7.61z"/><path d="m121.894 415.724c0 4.204 3.408 7.611 7.611 7.611h19.728c-2.814-2.546-6.118-4.56-9.761-5.872-.411-.148-.69-.531-.69-.968v-.007c0-.522.392-.952.91-1.02 6.062-.799 11.538-3.449 15.854-7.356h-26.041c-4.203 0-7.611 3.407-7.611 7.612z"/></g><path d="m494.712 37.432h-8.783c-3.993 0-7.434-2.811-8.228-6.724-3.115-15.349-16.685-26.902-32.953-26.902-16.63 0-30.44 12.072-33.146 27.931-.528 3.096-2.749 5.552-5.733 6.532-6.956 2.286-11.909 8.987-11.542 16.789.426 9.043 8.216 16 17.269 16h83.59c9.555 0 17.248-7.971 16.794-17.626-.425-9.043-8.215-16-17.268-16z" fill="#ecf4ff"/><path d="m16.018 474.568c-4.643 0-8.407 3.764-8.407 8.406v8.406c0 9.286 7.527 16.813 16.813 16.813h470.763c9.286 0 16.813-7.527 16.813-16.813v-8.406c0-4.643-3.764-8.406-8.407-8.406z" fill="#966a5b"/><path d="m503.593 474.568h-23.342c4.643 0 8.406 3.764 8.406 8.406v8.407c0 9.286-7.527 16.813-16.813 16.813h23.342c9.286 0 16.813-7.527 16.813-16.813v-8.407c.001-4.642-3.763-8.406-8.406-8.406z" fill="#785353"/><path d="m494.712 37.432h-8.783c-3.993 0-7.434-2.811-8.228-6.724-3.115-15.349-16.685-26.902-32.953-26.902-4.103 0-8.034.738-11.67 2.083 10.777 3.99 18.952 13.342 21.281 24.818.794 3.913 4.235 6.724 8.228 6.724h8.783c9.053 0 16.843 6.957 17.269 16 .455 9.655-7.239 17.626-16.794 17.626h23.342c9.555 0 17.248-7.971 16.794-17.626-.426-9.042-8.216-15.999-17.269-15.999z" fill="#ddeafb"/></g></svg>