<svg id="Capa_1" enable-background="new 0 0 512 512" height="512" viewBox="0 0 512 512" width="512" xmlns="http://www.w3.org/2000/svg"><g><g><circle cx="259.75" cy="256" fill="#e8e03c" r="132.533"/><circle cx="259.75" cy="256" fill="#5c545f" r="132.533"/><path d="m259.75 123.467c-3.875 0-7.709.176-11.5.502 67.81 5.83 121.033 62.71 121.033 132.031s-53.223 126.201-121.033 132.031c3.791.326 7.625.502 11.5.502 73.196 0 132.533-59.337 132.533-132.533s-59.337-132.533-132.533-132.533z" fill="#4b3f4e"/><g><path d="m259.75 97.834c-4.142 0-7.5-3.358-7.5-7.5v-82.834c0-4.142 3.358-7.5 7.5-7.5 4.143 0 7.5 3.358 7.5 7.5v82.834c0 4.142-3.357 7.5-7.5 7.5z" fill="#ffe07d"/></g><g><path d="m142.606 146.356c-1.92 0-3.839-.732-5.303-2.197l-58.572-58.572c-2.929-2.929-2.929-7.678 0-10.606 2.929-2.929 7.678-2.929 10.606 0l58.572 58.572c2.929 2.929 2.929 7.678 0 10.606-1.464 1.465-3.384 2.197-5.303 2.197z" fill="#ffe07d"/></g><g><path d="m94.083 263.5h-82.833c-4.142 0-7.5-3.358-7.5-7.5s3.358-7.5 7.5-7.5h82.833c4.142 0 7.5 3.358 7.5 7.5s-3.357 7.5-7.5 7.5z" fill="#ffe07d"/></g><g><path d="m84.034 439.216c-1.92 0-3.839-.732-5.303-2.197-2.929-2.929-2.929-7.678 0-10.606l58.572-58.572c2.929-2.929 7.678-2.929 10.607 0s2.929 7.678 0 10.607l-58.572 58.572c-1.465 1.463-3.384 2.196-5.304 2.196z" fill="#ffe07d"/></g><g><path d="m259.75 512c-4.142 0-7.5-3.358-7.5-7.5v-82.833c0-4.142 3.358-7.5 7.5-7.5 4.143 0 7.5 3.358 7.5 7.5v82.833c0 4.142-3.357 7.5-7.5 7.5z" fill="#ffe07d"/></g><g><path d="m435.466 439.216c-1.919 0-3.839-.732-5.304-2.197l-36.85-36.832c-2.929-2.929-2.929-7.678 0-10.606 2.93-2.929 7.678-2.929 10.607 0l36.85 36.832c2.929 2.929 2.929 7.678 0 10.606-1.464 1.464-3.384 2.197-5.303 2.197z" fill="#ffe07d"/></g><g><path d="m395.28 127.947c-1.919 0-3.839-.732-5.304-2.197-2.929-2.929-2.929-7.678 0-10.606l40.186-40.163c2.93-2.929 7.678-2.929 10.607 0s2.929 7.678 0 10.606l-40.186 40.163c-1.465 1.464-3.384 2.197-5.303 2.197z" fill="#ffe07d"/></g><g><path d="m196.355 110.446c-2.943 0-5.735-1.744-6.932-4.632l-15.85-38.264c-1.585-3.827.232-8.214 4.059-9.799 3.826-1.584 8.213.232 9.799 4.059l15.85 38.264c1.585 3.827-.232 8.214-4.059 9.799-.938.389-1.911.573-2.867.573z" fill="#fff0af"/></g><g><path d="m106.691 200.104c-.956 0-1.929-.184-2.867-.573l-38.264-15.85c-3.827-1.585-5.644-5.973-4.059-9.799 1.585-3.827 5.974-5.644 9.799-4.059l38.264 15.85c3.827 1.585 5.644 5.973 4.059 9.799-1.196 2.888-3.989 4.632-6.932 4.632z" fill="#fff0af"/></g><g><path d="m68.433 342.75c-2.943 0-5.736-1.744-6.932-4.632-1.585-3.827.232-8.214 4.059-9.799l38.264-15.85c3.827-1.584 8.214.233 9.799 4.059 1.585 3.827-.232 8.214-4.059 9.799l-38.264 15.85c-.938.388-1.91.573-2.867.573z" fill="#fff0af"/></g><g><path d="m180.499 454.822c-.956 0-1.929-.184-2.867-.573-3.827-1.585-5.644-5.973-4.059-9.799l15.85-38.264c1.585-3.827 5.972-5.645 9.799-4.059 3.827 1.585 5.644 5.973 4.059 9.799l-15.85 38.264c-1.196 2.888-3.989 4.632-6.932 4.632z" fill="#fff0af"/></g><g><path d="m339 454.822c-2.943 0-5.735-1.744-6.932-4.632l-15.85-38.264c-1.586-3.827.231-8.214 4.059-9.799 3.827-1.587 8.214.232 9.799 4.059l15.85 38.264c1.586 3.827-.232 8.214-4.059 9.799-.938.389-1.911.573-2.867.573z" fill="#fff0af"/></g><g><path d="m323.145 110.446c-.957 0-1.929-.184-2.867-.573-3.827-1.585-5.645-5.973-4.059-9.799l15.85-38.264c1.586-3.827 5.976-5.643 9.799-4.059 3.827 1.585 5.645 5.973 4.059 9.799l-15.85 38.264c-1.197 2.888-3.989 4.632-6.932 4.632z" fill="#fff0af"/></g></g><g><path d="m459.578 152.642c-4.306 2.781-9.527 4.267-15.113 3.904-12.15-.79-22.071-10.516-23.099-22.648-.227-2.673-.025-5.265.539-7.718.666-2.892-.81-5.871-3.533-7.051-17.818-7.721-37.439-12.066-58.058-12.224-82.38-.631-150.098 66.406-150.264 148.789-.127 62.952 38.766 116.829 93.841 138.82 2.743 1.096 5.927.184 7.516-2.306 2.332-3.655 6.52-6.007 11.241-5.721 5.58.338 10.323 4.515 11.413 9.998.101.508.169 1.011.205 1.507.221 2.992 2.406 5.448 5.381 5.838 6.383.836 12.891 1.271 19.502 1.271 82.346 0 149.1-66.754 149.1-149.1 0-39.691-15.516-75.753-40.805-102.47-2.049-2.166-5.361-2.507-7.866-.889z" fill="#ffe07d"/><ellipse cx="359.159" cy="222.866" fill="#ffd064" rx="16.567" ry="16.567" transform="matrix(.16 -.987 .987 .16 81.635 541.684)"/><circle cx="309.45" cy="173.167" fill="#ffa95f" r="24.85"/><g fill="#ffd064"><circle cx="276.317" cy="256" r="33.133"/><g><path d="m395.372 119.129c2.723 1.18 4.199 4.159 3.533 7.051-.564 2.453-.766 5.045-.539 7.718 1.028 12.132 10.949 21.857 23.099 22.648 4.78.311 9.287-.741 13.188-2.791-7.322-3.848-12.556-11.235-13.287-19.857-.227-2.673-.025-5.265.539-7.718.666-2.892-.81-5.871-3.533-7.051-17.818-7.721-37.439-12.066-58.058-12.224-4.251-.033-8.46.125-12.625.446 16.83 1.288 32.88 5.363 47.683 11.778z"/><path d="m467.445 153.531c-2.05-2.166-5.362-2.506-7.867-.889-3.588 2.317-7.814 3.717-12.353 3.915 23.639 26.384 38.025 61.229 38.025 99.442 0 78.434-60.564 142.721-137.477 148.652 3.757.285 7.547.448 11.377.448 82.346 0 149.1-66.755 149.1-149.1 0-39.69-15.516-75.752-40.805-102.468z"/></g></g></g></g></svg>