<svg id="Capa_1" enable-background="new 0 0 512 512" height="512" viewBox="0 0 512 512" width="512" xmlns="http://www.w3.org/2000/svg"><g><path d="m389.904 118.189c-5.742 3.708-12.702 5.69-20.151 5.205-16.199-1.054-29.428-14.021-30.798-30.197-.302-3.564-.034-7.02.719-10.291.888-3.856-1.08-7.828-4.711-9.402-23.758-10.294-49.919-16.088-77.411-16.299-109.84-.84-200.13 88.543-200.352 198.386-.169 83.937 51.688 155.771 125.122 185.093 3.658 1.461 7.903.246 10.022-3.074 3.11-4.873 8.694-8.009 14.988-7.628 7.44.451 13.764 6.02 15.217 13.331.135.678.225 1.348.274 2.01.295 3.989 3.208 7.264 7.174 7.783 8.51 1.115 17.189 1.695 26.003 1.695 109.794 0 198.8-89.006 198.8-198.8 0-52.922-20.688-101.004-54.406-136.626-2.734-2.889-7.149-3.343-10.49-1.186z" fill="#ffe07d"/><path d="m400.394 119.374c-2.733-2.888-7.149-3.341-10.489-1.185-2.942 1.899-6.205 3.342-9.688 4.236 32.045 35.294 51.583 82.149 51.583 133.575 0 105.901-82.809 192.449-187.205 198.455 3.776.215 7.575.345 11.405.345 109.794 0 198.8-89.006 198.8-198.8 0-52.922-20.688-101.004-54.406-136.626z" fill="#ffd064"/><g fill="#fff0af"><path d="m156.6 16.567h-9.067v-9.067c0-4.142-3.358-7.5-7.5-7.5s-7.5 3.358-7.5 7.5v9.067h-9.066c-4.142 0-7.5 3.358-7.5 7.5s3.358 7.5 7.5 7.5h9.066v9.066c0 4.142 3.358 7.5 7.5 7.5s7.5-3.358 7.5-7.5v-9.066h9.067c4.142 0 7.5-3.358 7.5-7.5s-3.358-7.5-7.5-7.5z"/><path d="m388.533 480.433h-9.066v-9.066c0-4.142-3.358-7.5-7.5-7.5s-7.5 3.358-7.5 7.5v9.066h-9.067c-4.142 0-7.5 3.358-7.5 7.5s3.358 7.5 7.5 7.5h9.067v9.067c0 4.142 3.358 7.5 7.5 7.5s7.5-3.358 7.5-7.5v-9.067h9.066c4.142 0 7.5-3.358 7.5-7.5s-3.358-7.5-7.5-7.5z"/></g><circle cx="206.3" cy="231.15" fill="#ffd064" r="16.567"/><circle cx="173.167" cy="156.6" fill="#ffa95f" r="33.133"/><circle cx="127.608" cy="251.858" fill="#ffd064" r="37.275"/><path d="m311.963 73.505c3.631 1.573 5.598 5.545 4.711 9.401-.753 3.271-1.021 6.727-.719 10.291 1.37 16.175 14.599 29.143 30.798 30.197 4.851.316 9.493-.421 13.728-1.993-11.733-4.373-20.43-15.257-21.527-28.204-.302-3.564-.034-7.02.719-10.291.888-3.856-1.08-7.828-4.711-9.401-23.758-10.295-49.919-16.088-77.411-16.299-4.328-.033-8.621.09-12.884.333 23.798 1.378 46.471 6.942 67.296 15.966z" fill="#ffd064"/><g><g><path d="m463.083 412.6c-4.142 0-7.5-3.358-7.5-7.5v-16.567c0-4.142 3.358-7.5 7.5-7.5s7.5 3.358 7.5 7.5v16.567c0 4.142-3.357 7.5-7.5 7.5z" fill="#ffe07d"/></g><g><path d="m463.083 478.867c-4.142 0-7.5-3.358-7.5-7.5v-16.567c0-4.142 3.358-7.5 7.5-7.5s7.5 3.358 7.5 7.5v16.567c0 4.142-3.357 7.5-7.5 7.5z" fill="#ffe07d"/></g><g><path d="m504.5 437.45h-16.567c-4.142 0-7.5-3.358-7.5-7.5s3.358-7.5 7.5-7.5h16.567c4.142 0 7.5 3.358 7.5 7.5s-3.358 7.5-7.5 7.5z" fill="#ffe07d"/></g><g><path d="m438.233 437.45h-16.567c-4.142 0-7.5-3.358-7.5-7.5s3.358-7.5 7.5-7.5h16.567c4.142 0 7.5 3.358 7.5 7.5s-3.358 7.5-7.5 7.5z" fill="#ffe07d"/></g></g><g><g><path d="m48.917 64.7c-4.142 0-7.5-3.358-7.5-7.5v-16.567c0-4.142 3.358-7.5 7.5-7.5s7.5 3.358 7.5 7.5v16.567c0 4.142-3.358 7.5-7.5 7.5z" fill="#ffe07d"/></g><g><path d="m48.917 130.967c-4.142 0-7.5-3.358-7.5-7.5v-16.567c0-4.142 3.358-7.5 7.5-7.5s7.5 3.358 7.5 7.5v16.567c0 4.142-3.358 7.5-7.5 7.5z" fill="#ffe07d"/></g><g><path d="m90.334 89.55h-16.567c-4.142 0-7.5-3.358-7.5-7.5s3.358-7.5 7.5-7.5h16.567c4.142 0 7.5 3.358 7.5 7.5s-3.358 7.5-7.5 7.5z" fill="#ffe07d"/></g><g><path d="m24.067 89.55h-16.567c-4.142 0-7.5-3.358-7.5-7.5s3.358-7.5 7.5-7.5h16.567c4.142 0 7.5 3.358 7.5 7.5s-3.358 7.5-7.5 7.5z" fill="#ffe07d"/></g></g></g></svg>