<svg id="Capa_1" enable-background="new 0 0 512 512" height="512" viewBox="0 0 512 512" width="512" xmlns="http://www.w3.org/2000/svg"><g><g><ellipse cx="403.511" cy="108.489" fill="#ffe07d" rx="50.439" ry="50.439" transform="matrix(.29 -.957 .957 .29 182.746 463.248)"/><g><path d="m403.511 32.036c-4.204 0-7.611-3.407-7.611-7.612v-16.813c0-4.204 3.408-7.611 7.611-7.611s7.612 3.407 7.612 7.611v16.813c-.001 4.204-3.408 7.612-7.612 7.612z" fill="#ffe07d"/></g><g><path d="m344.068 56.658c-1.948 0-3.896-.743-5.382-2.23l-11.888-11.889c-2.973-2.972-2.973-7.792 0-10.764 2.972-2.971 7.792-2.972 10.764.001l11.889 11.889c2.973 2.972 2.973 7.792 0 10.764-1.487 1.486-3.436 2.229-5.383 2.229z" fill="#ffd064"/></g><g><path d="m319.446 116.101h-16.813c-4.204 0-7.612-3.407-7.612-7.611s3.408-7.612 7.612-7.612h16.813c4.204 0 7.611 3.407 7.611 7.612s-3.407 7.611-7.611 7.611z" fill="#ffe07d"/></g><g><path d="m332.179 187.432c-1.948 0-3.896-.743-5.382-2.229-2.973-2.972-2.973-7.792 0-10.764l11.888-11.889c2.972-2.973 7.792-2.972 10.764-.001 2.973 2.972 2.973 7.792 0 10.764l-11.889 11.889c-1.485 1.487-3.433 2.23-5.381 2.23z" fill="#ffd064"/></g><g><path d="m403.511 216.978c-4.204 0-7.611-3.407-7.611-7.611v-16.813c0-4.204 3.408-7.611 7.611-7.611s7.612 3.407 7.612 7.611v16.813c-.001 4.204-3.408 7.611-7.612 7.611z" fill="#ffe07d"/></g><g><path d="m474.842 187.432c-1.948 0-3.896-.743-5.382-2.23l-11.888-11.889c-2.973-2.972-2.973-7.792 0-10.764 2.973-2.971 7.792-2.972 10.764.001l11.888 11.889c2.973 2.972 2.973 7.792 0 10.764-1.486 1.486-3.435 2.229-5.382 2.229z" fill="#ffd064"/></g><g><path d="m504.388 116.101h-16.813c-4.204 0-7.611-3.407-7.611-7.611s3.408-7.612 7.611-7.612h16.813c4.204 0 7.612 3.407 7.612 7.612s-3.408 7.611-7.612 7.611z" fill="#ffe07d"/></g><g><path d="m462.953 56.658c-1.948 0-3.896-.743-5.382-2.229-2.973-2.972-2.973-7.792 0-10.764l11.888-11.889c2.972-2.973 7.792-2.972 10.764-.001 2.973 2.972 2.973 7.792 0 10.764l-11.888 11.889c-1.486 1.487-3.434 2.23-5.382 2.23z" fill="#ffd064"/></g><path d="m403.511 58.05c-4.019 0-7.923.484-11.671 1.372 22.227 5.268 38.768 25.229 38.768 49.066 0 23.838-16.541 43.799-38.768 49.067 3.748.888 7.652 1.372 11.671 1.372 27.857 0 50.439-22.582 50.439-50.439 0-27.855-22.583-50.438-50.439-50.438z" fill="#ffd064"/></g><g><path d="m487.576 512c9.285 0 16.813-7.527 16.813-16.813v-92.471c0-4.643-3.764-8.406-8.406-8.406h-192.82v117.69z" fill="#d19a6e"/><path d="m386.698 512-98.382-147.573c-1.559-2.339-4.184-3.743-6.995-3.743h-272.915c-4.643 0-8.406 3.764-8.406 8.406v126.097c0 9.286 7.527 16.813 16.813 16.813z" fill="#f7e3c1"/><path d="m288.316 364.427c-1.559-2.339-4.184-3.744-6.995-3.744h-23.342c2.811 0 5.436 1.405 6.995 3.744l98.382 147.573h23.342z" fill="#f1d0a4"/><path d="m134.504 427.935h-33.626v-361.885c0-4.418 3.582-8 8-8h17.626c4.418 0 8 3.582 8 8z" fill="#966a5b"/><path d="m495.982 394.309h-23.342c4.643 0 8.406 3.764 8.406 8.407v92.471c0 9.285-7.527 16.813-16.813 16.813h23.342c9.285 0 16.813-7.527 16.813-16.813v-92.471c0-4.643-3.763-8.407-8.406-8.407z" fill="#c38c66"/><path d="m184.943 485.985c4.204 0 7.611-3.407 7.611-7.612 0-4.204-3.408-7.612-7.611-7.612h-184.943v15.223h184.943z" fill="#f1d0a4"/><path d="m211.761 448.153c1.333 2.667 4.021 4.209 6.814 4.209 1.144 0 2.305-.26 3.398-.806 3.76-1.88 5.284-6.452 3.404-10.212l-13.409-26.818 21.136-10.568 21.408 28.545c1.49 1.987 3.774 3.046 6.095 3.046 1.454 0 2.922-.416 4.217-1.28l25.22-16.814c3.498-2.332 4.443-7.057 2.111-10.555-2.332-3.497-7.058-4.442-10.555-2.111l-19.228 12.82-19.357-25.81.243-31.056c0-.02-.003-.04-.003-.06h-15.221l-.226 28.903-29.455 14.728c-1.806.903-3.179 2.486-3.817 4.4-.638 1.916-.49 4.006.413 5.812z" fill="#f1d0a4"/><path d="m429.525 394.835v29.028l-17.608 11.738-20.997-13.998c-3.498-2.331-8.224-1.387-10.555 2.111-2.332 3.497-1.386 8.223 2.111 10.555l25.219 16.813c1.279.852 2.75 1.279 4.222 1.279s2.944-.426 4.222-1.279l21.544-14.362 22.867 11.434-13.409 26.817c-1.88 3.76-.356 8.332 3.404 10.212 1.093.546 2.254.806 3.398.806 2.792 0 5.48-1.542 6.814-4.209l16.813-33.625c.903-1.806 1.051-3.896.413-5.812-.638-1.915-2.011-3.497-3.817-4.4l-29.418-14.71v-28.396c0-.177-.015-.351-.026-.525h-15.17c-.012.172-.027.345-.027.523z" fill="#c38c66"/><path d="m223.95 113.872c2.973-2.973 2.973-7.792 0-10.765-2.972-2.971-7.792-2.971-10.764 0l-9.346 9.346-12.09-24.181c-1.879-3.759-6.451-5.284-10.212-3.403-3.76 1.88-5.284 6.452-3.404 10.212l14.359 28.719-57.99 57.99v-115.621c0-4.484-3.635-8.119-8.119-8.119h-17.388c-1.052 0-2.054.207-2.977.571 3.009 1.188 5.142 4.116 5.142 7.548v193.156l-68.274-68.274 14.359-28.719c1.88-3.76.356-8.332-3.404-10.212-3.758-1.882-8.331-.356-10.212 3.403l-12.091 24.181-9.346-9.345c-2.972-2.971-7.792-2.971-10.764 0-2.973 2.973-2.973 7.792 0 10.765l99.73 99.73v147.081h23.342v-90.113l55.821-55.821c2.973-2.973 2.973-7.792 0-10.765-2.972-2.971-7.792-2.971-10.764 0l-45.057 45.057v-112.974z" fill="#785353"/><g><path d="m168.129 435.547h-100.877c-4.204 0-7.611-3.407-7.611-7.611s3.408-7.612 7.611-7.612h100.878c4.204 0 7.611 3.407 7.611 7.612 0 4.204-3.408 7.611-7.612 7.611z" fill="#f1d0a4"/></g></g><g><g><path d="m371.343 38.437c-2.987 0-5.821-1.769-7.035-4.701l-3.217-7.767c-1.609-3.884.236-8.336 4.119-9.944 3.884-1.608 8.336.235 9.945 4.119l3.217 7.767c1.609 3.884-.236 8.336-4.119 9.944-.952.395-1.939.582-2.91.582z" fill="#fff0af"/></g><g><path d="m325.842 83.933c-.971 0-1.957-.186-2.91-.582l-7.767-3.217c-3.883-1.608-5.728-6.06-4.119-9.944 1.608-3.884 6.062-5.732 9.945-4.119l7.767 3.217c3.884 1.608 5.728 6.061 4.119 9.945-1.214 2.929-4.049 4.7-7.035 4.7z" fill="#fff0af"/></g><g><path d="m318.081 151.49c-2.987 0-5.821-1.769-7.035-4.701-1.609-3.884.236-8.336 4.119-9.944l7.767-3.217c3.883-1.607 8.336.235 9.945 4.119 1.608 3.884-.236 8.336-4.119 9.944l-7.767 3.217c-.952.394-1.939.582-2.91.582z" fill="#fff0af"/></g><g><path d="m368.12 201.535c-.971 0-1.957-.186-2.91-.582-3.884-1.609-5.728-6.06-4.119-9.945l3.217-7.767c1.609-3.884 6.06-5.731 9.945-4.119 3.884 1.609 5.728 6.06 4.119 9.945l-3.217 7.767c-1.214 2.931-4.048 4.701-7.035 4.701z" fill="#fff0af"/></g><g><path d="m438.901 201.535c-2.987 0-5.821-1.769-7.035-4.701l-3.217-7.767c-1.609-3.884.236-8.336 4.119-9.945 3.884-1.607 8.337.235 9.945 4.119l3.217 7.767c1.609 3.884-.236 8.336-4.119 9.945-.953.395-1.939.582-2.91.582z" fill="#fff0af"/></g><g><path d="m488.94 151.49c-.971 0-1.957-.186-2.91-.582l-7.767-3.217c-3.884-1.608-5.728-6.061-4.119-9.944 1.608-3.883 6.061-5.731 9.945-4.119l7.767 3.217c3.883 1.608 5.728 6.061 4.119 9.944-1.214 2.93-4.048 4.701-7.035 4.701z" fill="#fff0af"/></g><g><path d="m481.179 83.933c-2.987 0-5.821-1.769-7.035-4.701-1.608-3.884.236-8.336 4.119-9.945l7.767-3.217c3.884-1.609 8.337.235 9.945 4.119 1.609 3.884-.236 8.336-4.119 9.944l-7.767 3.217c-.952.395-1.939.583-2.91.583z" fill="#fff0af"/></g><g><path d="m435.678 38.437c-.971 0-1.957-.186-2.91-.582-3.884-1.609-5.728-6.061-4.119-9.944l3.217-7.767c1.609-3.883 6.061-5.73 9.945-4.119 3.884 1.609 5.728 6.06 4.119 9.944l-3.217 7.767c-1.214 2.931-4.049 4.701-7.035 4.701z" fill="#fff0af"/></g></g></g></svg>