<svg id="Capa_1" enable-background="new 0 0 512 512" height="512" viewBox="0 0 512 512" width="512" xmlns="http://www.w3.org/2000/svg"><g><g><g><path d="m461.91 77.676c6.566-6.566 6.566-17.211 0-23.777s-17.211-6.566-23.777 0l-428.059 428.059c-3.283 3.283-3.283 8.606 0 11.889l11.889 11.888c3.283 3.283 8.606 3.283 11.889 0z" fill="#dad8db"/><path d="m461.91 53.899c-6.496-6.496-16.979-6.555-23.56-.197.071.068.148.127.218.197 6.566 6.566 6.566 17.211 0 23.777l-422.332 422.332 5.727 5.727c3.283 3.283 8.606 3.283 11.888 0l428.059-428.059c6.566-6.566 6.566-17.211 0-23.777z" fill="#c8c5c9"/><g><path d="m319.263 315.464c.959.958 2.325 1.366 3.66 1.132 29.053-5.083 60.738 3.823 85.519 28.603 24.983 24.983 32.392 55.545 26.991 84.745-.164.888.109 1.8.748 2.438 1.076 1.075 2.831 1.074 3.895-.012 96.542-98.636 95.895-256.859-1.942-354.696l-.005-.005c-97.837-97.837-256.06-98.484-354.696-1.942-1.087 1.064-1.087 2.819-.012 3.895.638.639 1.55.913 2.438.748 29.201-5.401 59.762 2.008 84.745 26.991 24.781 24.781 33.687 56.466 28.603 85.519-.234 1.335.174 2.701 1.132 3.66l138.497-19.573z" fill="#ff8086"/><path d="m200.361 196.56c.958.944 2.313 1.346 3.64 1.114 29.053-5.083 60.738 3.823 85.519 28.603l.005.005c24.781 24.781 33.687 56.466 28.603 85.519-.233 1.329.171 2.688 1.119 3.646 98.488-98.489 151.715-204.943 118.886-237.772-32.829-32.83-139.283 20.397-237.772 118.885z" fill="#ffe07d"/><path d="m438.133 77.674-.005-.005c-2.766-2.766-5.586-5.443-8.446-8.054 85.403 93.554 87.685 235.852 6.824 331.999 1.067 9.431.662 18.951-1.073 28.331-.164.888.109 1.8.748 2.438 1.076 1.075 2.831 1.074 3.895-.013 96.542-98.636 95.895-256.859-1.943-354.696z" fill="#e5646e"/><path d="m438.133 77.674c-2.801-2.801-6.15-4.96-9.972-6.534 15.857 38.518-29.325 126.305-109.629 211.526 1.414 9.77 1.264 19.594-.405 29.134-.233 1.329.171 2.688 1.119 3.646 98.49-98.488 151.717-204.942 118.887-237.772z" fill="#ffd064"/></g><path d="m22.524 469.508 23.777 23.777 10.766-10.765-23.777-23.777h-.001z" fill="#b6b1b7"/></g></g><g><g><path d="m259.804 398.115h-252.192c-4.204 0-7.612-3.407-7.612-7.612 0-4.204 3.407-7.612 7.612-7.612h252.192c14.344 0 26.014-11.67 26.014-26.014s-11.67-26.014-26.014-26.014-26.014 11.67-26.014 26.014c0 4.204-3.407 7.612-7.611 7.612s-7.612-3.407-7.612-7.612c0-22.739 18.499-41.237 41.237-41.237 22.739 0 41.237 18.499 41.237 41.237 0 22.739-18.498 41.238-41.237 41.238z" fill="#ddeafb"/></g><g><path d="m125.3 229.986h-100.879c-4.204 0-7.611-3.407-7.611-7.611s3.407-7.612 7.611-7.612h100.879c14.344 0 26.014-11.67 26.014-26.015 0-14.344-11.67-26.014-26.014-26.014-14.345 0-26.015 11.67-26.015 26.014 0 4.204-3.407 7.612-7.612 7.612s-7.612-3.407-7.612-7.612c0-22.739 18.5-41.237 41.238-41.237 22.739 0 41.237 18.499 41.237 41.237.002 22.738-18.497 41.238-41.236 41.238z" fill="#ecf4ff"/></g><g><path d="m327.056 498.993c-22.739 0-41.238-18.499-41.238-41.237 0-4.204 3.407-7.612 7.612-7.612s7.612 3.407 7.612 7.612c0 14.344 11.67 26.014 26.015 26.014 14.344 0 26.014-11.67 26.014-26.014s-11.67-26.014-26.014-26.014h-252.193c-4.204 0-7.612-3.407-7.612-7.612s3.407-7.611 7.612-7.611h252.192c22.738 0 41.237 18.499 41.237 41.237s-18.498 41.237-41.237 41.237z" fill="#ecf4ff"/></g></g><g><path d="m41.235 306.439c0-18.571 15.055-33.626 33.626-33.626h25.22c4.643 0 8.407 3.764 8.407 8.406v25.22c0 18.571-15.055 33.626-33.626 33.626h-33.627z" fill="#b3e59f"/><g><g><path d="m24.421 364.49c-1.948 0-3.896-.743-5.383-2.229-2.972-2.972-2.972-7.792 0-10.764l50.439-50.44c2.973-2.972 7.792-2.972 10.765 0 2.972 2.972 2.972 7.792 0 10.764l-50.438 50.439c-1.487 1.486-3.435 2.23-5.383 2.23z" fill="#f7e3c1"/></g></g><path d="m100.08 272.813h-23.342c4.643 0 8.407 3.764 8.407 8.406v25.22c0 18.571-15.055 33.626-33.626 33.626h23.342c18.571 0 33.626-15.055 33.626-33.626v-25.22c0-4.643-3.764-8.406-8.407-8.406z" fill="#95d6a4"/></g></g></svg>