<svg id="Capa_1" enable-background="new 0 0 512 512" height="512" viewBox="0 0 512 512" width="512" xmlns="http://www.w3.org/2000/svg"><g><path d="m402.781 329.937c63.895-24.668 109.219-86.676 109.219-159.27 0-45.432-17.76-86.711-46.707-117.291-2.347-2.479-6.137-2.869-9.005-1.017-4.929 3.183-10.905 4.885-17.299 4.468-13.907-.905-25.264-12.037-26.44-25.924-.259-3.06-.029-6.027.617-8.835.762-3.311-.927-6.72-4.044-8.071-20.396-8.837-42.855-13.811-66.456-13.992-94.296-.722-171.809 76.012-171.999 170.31-.049 24.471 5.052 47.744 14.281 68.796v90.825h217.833z" fill="#ffe07d"/><g fill="#ffd064"><path d="m385.428 13.997c3.117 1.351 4.806 4.76 4.044 8.071-.646 2.808-.877 5.775-.618 8.835 1.176 13.886 12.533 25.019 26.44 25.924 4.93.321 9.606-.628 13.75-2.533-9.058-4.185-15.617-13.018-16.496-23.39-.259-3.06-.029-6.027.617-8.835.762-3.311-.927-6.72-4.044-8.071-20.395-8.838-42.854-13.812-66.455-13.993-4.449-.034-8.86.105-13.228.41 19.778 1.352 38.633 6.061 55.99 13.582z"/><path d="m465.293 53.375c-2.347-2.479-6.137-2.869-9.005-1.017-3.455 2.231-7.43 3.712-11.696 4.269 27.171 30.225 43.714 70.197 43.714 114.039 0 72.594-45.324 134.603-109.219 159.27h23.694c63.895-24.667 109.219-86.675 109.219-159.269 0-45.433-17.76-86.711-46.707-117.292z"/></g><ellipse cx="332.8" cy="136.533" fill="#ffd064" rx="17.067" ry="17.067" transform="matrix(.924 -.383 .383 .924 -26.916 137.75)"/><circle cx="298.667" cy="76.8" fill="#ffa95f" r="25.6"/><circle cx="256" cy="153.6" fill="#ffd064" r="34.133"/><path d="m187.733 26.407h-9.34v-9.34c0-4.267-3.459-7.726-7.726-7.726s-7.726 3.459-7.726 7.726v9.34h-9.34c-4.267 0-7.726 3.459-7.726 7.726s3.459 7.726 7.726 7.726h9.34v9.341c0 4.267 3.459 7.726 7.726 7.726s7.726-3.459 7.726-7.726v-9.341h9.34c4.267 0 7.726-3.459 7.726-7.726s-3.459-7.726-7.726-7.726z" fill="#fff0af"/><g><path d="m443.733 375.467h-.023c-1.257 0-2.34-.846-2.692-2.053-8.268-28.396-34.486-49.147-65.552-49.147-11.616 0-22.547 2.91-32.12 8.03-3.752 2.007-8.409.958-10.794-2.565-9.203-13.595-24.765-22.532-42.419-22.532-4.129 0-8.142.491-11.986 1.415-4.165 1.002-8.466-1.236-9.811-5.304-12.364-37.394-47.597-64.378-89.136-64.378-51.841 0-93.867 42.025-93.867 93.867 0 1.177.03 2.347.079 3.512.049 1.153-.33 2.284-1.04 3.193l-.073.094c-.889 1.139-2.235 1.812-3.679 1.89-45.42 2.475-81.393 40.444-80.607 86.662.794 46.722 39.663 83.849 86.392 83.849h356.311c37.519 0 68.792-29.845 69.278-67.36.495-38.118-30.256-69.173-68.261-69.173z" fill="#ecf4ff"/><path d="m443.733 375.467h-.023c-1.257 0-2.34-.846-2.692-2.053-8.268-28.396-34.486-49.147-65.552-49.147-11.616 0-22.547 2.91-32.12 8.03-3.752 2.007-8.409.958-10.794-2.565-9.203-13.595-24.765-22.532-42.419-22.532-4.129 0-8.142.491-11.986 1.415-4.165 1.002-8.466-1.236-9.811-5.304-12.364-37.394-47.597-64.378-89.136-64.378-51.841 0-93.867 42.025-93.867 93.867 0 1.177.03 2.347.079 3.512.049 1.153-.33 2.284-1.04 3.193l-.073.094c-.889 1.139-2.235 1.812-3.679 1.89-45.42 2.475-81.393 40.444-80.607 86.662.794 46.722 39.663 83.849 86.392 83.849h356.311c37.519 0 68.792-29.845 69.278-67.36.495-38.118-30.256-69.173-68.261-69.173z" fill="#ecf4ff"/><path d="m443.733 375.467h-.023c-1.257 0-2.34-.846-2.692-2.053-8.268-28.396-34.486-49.147-65.552-49.147-4.039 0-7.993.36-11.839 1.034 25.73 4.507 46.504 23.414 53.696 48.113.352 1.207 1.434 2.053 2.692 2.053h.023c38.004 0 68.755 31.055 68.261 69.173-.487 37.516-31.76 67.36-69.279 67.36h23.694c37.519 0 68.792-29.845 69.278-67.36.497-38.118-30.254-69.173-68.259-69.173z" fill="#daeaff"/><path d="m162.94 426.667c0 4.268 3.459 7.726 7.726 7.726s7.726-3.459 7.726-7.726c0-52.837-40.991-96.279-92.842-100.197-.139 2.093-.217 4.202-.217 6.33 0 1.177.03 2.347.079 3.512.049 1.153-.33 2.283-1.04 3.193l-.073.094c-.889 1.139-2.235 1.812-3.679 1.89-.685.037-1.36.108-2.041.162 46.578.364 84.361 38.354 84.361 85.016z" fill="#ddeafb"/><g><path d="m277.296 308.773c-3.886.529-7.707-1.67-8.96-5.461-.776-2.346-1.642-4.651-2.594-6.911-28.536 10.08-49.044 37.31-49.044 69.254 0 4.268 3.459 7.726 7.726 7.726s7.726-3.459 7.726-7.726c0-27.559 19.333-50.913 45.144-56.839v-.043z" fill="#ddeafb"/></g><path d="m383.193 447.597c0-4.268-3.459-7.726-7.726-7.726s-7.726 3.459-7.726 7.726c0 26.412 12.897 49.858 32.715 64.403h42.26c.827 0 1.647-.032 2.468-.061-34.397-1.275-61.991-29.64-61.991-64.342z" fill="#ddeafb"/></g><g><g><path d="m85.334 135.726c-4.267 0-7.726-3.459-7.726-7.726v-17.066c0-4.268 3.459-7.726 7.726-7.726s7.726 3.459 7.726 7.726v17.066c0 4.268-3.459 7.726-7.726 7.726z" fill="#ffe07d"/></g><g><path d="m85.334 203.993c-4.267 0-7.726-3.459-7.726-7.726v-17.067c0-4.268 3.459-7.726 7.726-7.726s7.726 3.459 7.726 7.726v17.066c0 4.268-3.459 7.727-7.726 7.727z" fill="#ffe07d"/></g><g><path d="m128 161.326h-17.067c-4.267 0-7.726-3.459-7.726-7.726 0-4.268 3.459-7.726 7.726-7.726h17.067c4.267 0 7.726 3.459 7.726 7.726s-3.459 7.726-7.726 7.726z" fill="#ffe07d"/></g><g><path d="m59.733 161.326h-17.066c-4.267 0-7.726-3.459-7.726-7.726 0-4.268 3.459-7.726 7.726-7.726h17.067c4.267 0 7.726 3.459 7.726 7.726s-3.459 7.726-7.727 7.726z" fill="#ffe07d"/></g></g></g></svg>