<svg id="Capa_1" enable-background="new 0 0 512 512" height="512" viewBox="0 0 512 512" width="512" xmlns="http://www.w3.org/2000/svg"><g><g><path d="m106.9 412.6h-33.133c-4.143 0-7.5-3.357-7.5-7.5s3.357-7.5 7.5-7.5h33.133c4.143 0 7.5 3.357 7.5 7.5 0 4.142-3.357 7.5-7.5 7.5z" fill="#ecf4ff"/></g><g><path d="m454.8 412.6h-298.2c-4.143 0-7.5-3.357-7.5-7.5s3.357-7.5 7.5-7.5h298.2c4.143 0 7.5 3.357 7.5 7.5 0 4.142-3.358 7.5-7.5 7.5z" fill="#ecf4ff"/></g><g><path d="m454.8 478.866h-33.133c-4.143 0-7.5-3.357-7.5-7.5s3.357-7.5 7.5-7.5h33.133c4.143 0 7.5 3.357 7.5 7.5s-3.358 7.5-7.5 7.5z" fill="#ecf4ff"/></g><g><path d="m371.967 478.866h-298.2c-4.143 0-7.5-3.357-7.5-7.5s3.357-7.5 7.5-7.5h298.2c4.143 0 7.5 3.357 7.5 7.5s-3.358 7.5-7.5 7.5z" fill="#ecf4ff"/></g><g><path d="m39.253 445.733h-31.753c-4.143 0-7.5-3.357-7.5-7.5s3.357-7.5 7.5-7.5h31.753c4.143 0 7.5 3.357 7.5 7.5s-3.357 7.5-7.5 7.5z" fill="#ddeafb"/></g><g><path d="m504.5 445.733h-33.134c-4.143 0-7.5-3.357-7.5-7.5s3.357-7.5 7.5-7.5h33.134c4.143 0 7.5 3.357 7.5 7.5s-3.357 7.5-7.5 7.5z" fill="#ddeafb"/></g><g><path d="m421.667 445.733h-332.714c-4.143 0-7.5-3.357-7.5-7.5s3.357-7.5 7.5-7.5h332.714c4.143 0 7.5 3.357 7.5 7.5s-3.357 7.5-7.5 7.5z" fill="#ddeafb"/></g><g><path d="m39.253 512h-31.753c-4.143 0-7.5-3.357-7.5-7.5s3.357-7.5 7.5-7.5h31.753c4.143 0 7.5 3.357 7.5 7.5s-3.357 7.5-7.5 7.5z" fill="#ddeafb"/></g><g><path d="m504.5 512h-33.134c-4.143 0-7.5-3.357-7.5-7.5s3.357-7.5 7.5-7.5h33.134c4.143 0 7.5 3.357 7.5 7.5s-3.357 7.5-7.5 7.5z" fill="#ddeafb"/></g><g><path d="m421.667 512h-332.714c-4.143 0-7.5-3.357-7.5-7.5s3.357-7.5 7.5-7.5h332.714c4.143 0 7.5 3.357 7.5 7.5s-3.357 7.5-7.5 7.5z" fill="#ddeafb"/></g><g><g><path d="m322.267 81.267c-4.143 0-7.5-3.357-7.5-7.5v-66.267c0-4.143 3.357-7.5 7.5-7.5s7.5 3.357 7.5 7.5v66.267c0 4.142-3.358 7.5-7.5 7.5z" fill="#ffe07d"/></g><g><path d="m322.267 379.467c-4.143 0-7.5-3.357-7.5-7.5v-66.267c0-4.143 3.357-7.5 7.5-7.5s7.5 3.357 7.5 7.5v66.267c0 4.142-3.358 7.5-7.5 7.5z" fill="#ffe07d"/></g><g><path d="m504.5 197.233h-66.267c-4.143 0-7.5-3.357-7.5-7.5s3.357-7.5 7.5-7.5h66.267c4.143 0 7.5 3.357 7.5 7.5s-3.357 7.5-7.5 7.5z" fill="#ffe07d"/></g><g><g><path d="m206.3 197.233h-66.267c-4.143 0-7.5-3.357-7.5-7.5s3.357-7.5 7.5-7.5h66.267c4.143 0 7.5 3.357 7.5 7.5s-3.358 7.5-7.5 7.5z" fill="#ffe07d"/></g></g><g><path d="m404.268 115.232c-1.919 0-3.839-.732-5.304-2.196-2.929-2.93-2.929-7.678 0-10.607l46.857-46.857c2.93-2.928 7.678-2.928 10.607 0 2.929 2.93 2.929 7.678 0 10.607l-46.857 46.857c-1.465 1.464-3.385 2.196-5.303 2.196z" fill="#ffe07d"/></g><g><path d="m451.125 326.092c-1.919 0-3.839-.732-5.304-2.196l-46.857-46.857c-2.929-2.93-2.929-7.678 0-10.607 2.93-2.928 7.678-2.928 10.607 0l46.857 46.857c2.929 2.93 2.929 7.678 0 10.607-1.464 1.463-3.384 2.196-5.303 2.196z" fill="#ffe07d"/></g><g><g><path d="m240.266 115.232c-1.919 0-3.839-.732-5.304-2.196l-46.857-46.857c-2.929-2.93-2.929-7.678 0-10.607 2.93-2.928 7.678-2.928 10.607 0l46.857 46.857c2.929 2.93 2.929 7.678 0 10.607-1.464 1.464-3.384 2.196-5.303 2.196z" fill="#ffe07d"/></g></g></g><g><g><path d="m277.891 90.096c-2.943 0-5.735-1.743-6.932-4.632l-12.679-30.611c-1.586-3.827.231-8.214 4.059-9.799 3.827-1.585 8.214.231 9.799 4.059l12.679 30.611c1.586 3.827-.231 8.214-4.059 9.799-.939.388-1.911.573-2.867.573z" fill="#fff0af"/></g><g><path d="m215.124 152.856c-.957 0-1.929-.184-2.867-.573l-30.61-12.68c-3.827-1.585-5.645-5.972-4.059-9.799 1.586-3.828 5.976-5.646 9.799-4.059l30.61 12.68c3.827 1.585 5.645 5.972 4.059 9.799-1.197 2.889-3.989 4.632-6.932 4.632z" fill="#fff0af"/></g><g><path d="m265.206 334.985c-.957 0-1.929-.184-2.867-.573-3.827-1.585-5.645-5.972-4.059-9.799l12.679-30.61c1.586-3.826 5.975-5.646 9.799-4.059 3.827 1.585 5.645 5.972 4.059 9.799l-12.679 30.61c-1.197 2.888-3.989 4.632-6.932 4.632z" fill="#fff0af"/></g><g><path d="m379.328 334.985c-2.943 0-5.735-1.743-6.932-4.632l-12.68-30.61c-1.586-3.827.231-8.214 4.059-9.799 3.827-1.586 8.214.232 9.799 4.059l12.68 30.61c1.586 3.827-.231 8.214-4.059 9.799-.938.389-1.911.573-2.867.573z" fill="#fff0af"/></g><g><path d="m460.015 254.293c-.956 0-1.929-.184-2.867-.573l-30.611-12.679c-3.827-1.585-5.645-5.972-4.059-9.799 1.585-3.827 5.971-5.648 9.799-4.059l30.611 12.679c3.827 1.585 5.645 5.972 4.059 9.799-1.197 2.889-3.989 4.632-6.932 4.632z" fill="#fff0af"/></g><g><path d="m429.409 152.856c-2.943 0-5.735-1.743-6.932-4.632-1.586-3.827.232-8.214 4.059-9.799l30.611-12.68c3.827-1.585 8.213.231 9.799 4.059 1.586 3.827-.231 8.214-4.059 9.799l-30.611 12.68c-.938.389-1.911.573-2.867.573z" fill="#fff0af"/></g><g><path d="m366.643 90.096c-.957 0-1.929-.184-2.867-.573-3.827-1.585-5.645-5.972-4.059-9.799l12.68-30.611c1.586-3.826 5.976-5.646 9.799-4.059 3.827 1.585 5.645 5.972 4.059 9.799l-12.68 30.611c-1.197 2.888-3.989 4.632-6.932 4.632z" fill="#fff0af"/></g></g><g><ellipse cx="322.52" cy="189.733" fill="#ffe07d" rx="82.833" ry="82.833" transform="matrix(.707 -.707 .707 .707 -39.698 283.628)"/><path d="m322.52 106.9c-3.904 0-7.74.29-11.5.813 40.301 5.601 71.333 40.177 71.333 82.021s-31.032 76.42-71.333 82.021c3.76.523 7.596.813 11.5.813 45.747 0 82.833-37.086 82.833-82.833s-37.086-82.835-82.833-82.835z" fill="#ffd064"/></g><path d="m198.011 322.267c23.801 0 42.897-20.421 41.18-44.563-1.41-19.817-17.108-36.027-36.872-38.05-2.782-.285-5.513-.289-8.171-.041-3.628.339-6.974-1.953-8.161-5.398-8.925-25.883-33.482-44.481-62.397-44.481-21.694 0-40.935 10.471-52.965 26.631-3.067 4.12-7.852 6.537-12.988 6.504-.104-.001-.209-.001-.314-.001-27.731 0-50.158 22.712-49.693 50.549.455 27.251 23.256 48.851 50.511 48.851h139.87z" fill="#ecf4ff"/><path d="m239.191 277.704c-1.41-19.817-17.108-36.027-36.872-38.05-2.782-.285-5.513-.289-8.171-.041-3.628.339-6.974-1.953-8.161-5.398-8.925-25.883-33.482-44.481-62.397-44.481-3.93 0-7.779.348-11.519 1.007 23.798 4.177 43.2 21.098 50.916 43.474 1.188 3.445 4.533 5.737 8.161 5.398 2.658-.248 5.389-.243 8.171.041 19.764 2.023 35.462 18.233 36.872 38.05 1.717 24.142-17.379 44.563-41.18 44.563h23c23.8 0 42.897-20.421 41.18-44.563z" fill="#daeaff"/><path d="m99.394 272.566c0 4.142 3.358 7.5 7.5 7.5s7.5-3.358 7.5-7.5c0-27.195-16.689-50.558-40.359-60.407-1.191 1.354-2.33 2.755-3.409 4.205-3.067 4.12-7.852 6.537-12.988 6.504-.104-.001-.209-.001-.314-.001-.001 0-.002 0-.003 0 23.84 3.981 42.073 24.746 42.073 49.699z" fill="#ddeafb"/></g></svg>