<svg id="Capa_1" enable-background="new 0 0 512 512" height="512" viewBox="0 0 512 512" width="512" xmlns="http://www.w3.org/2000/svg"><g><path d="m443.686 208.846v144.067h-170.667v-144.067l85.334-67.223z" fill="#f5e1c1"/><path d="m419.992 190.181v162.732h23.694v-144.067z" fill="#f0cea5"/><path d="m392.486 352.913h-68.267v-88.906c0-4.418 3.582-8 8-8h52.267c4.418 0 8 3.582 8 8z" fill="#5c545f"/><g><path d="m460.956 232.754-97.643-69.745c-2.967-2.119-6.953-2.119-9.92 0l-97.643 69.745c-3.835 2.739-9.164 1.851-11.904-1.984l-9.92-13.887c-2.739-3.835-1.851-9.164 1.984-11.904l117.483-83.916c2.967-2.119 6.953-2.119 9.92 0l117.483 83.916c3.835 2.739 4.723 8.069 1.984 11.904l-9.92 13.887c-2.74 3.835-8.069 4.723-11.904 1.984z" fill="#ff8086"/></g><path d="m480.795 204.979-117.483-83.916c-2.967-2.119-6.953-2.119-9.92 0l-6.887 4.919 110.596 78.997c3.835 2.739 4.723 8.069 1.984 11.904l-6.875 9.624 8.745 6.247c3.835 2.739 9.164 1.851 11.904-1.984l9.92-13.887c2.739-3.835 1.851-9.165-1.984-11.904z" fill="#e5646e"/><path d="m384.244 256.007h-23.427c4.552 0 8.241 3.69 8.241 8.242v88.664h23.427v-88.664c.001-4.552-3.689-8.242-8.241-8.242z" fill="#4b3f4e"/><path d="m65.869 409.603c-41.126-49.329-65.869-112.798-65.869-182.047 0-41.001 10.842-79.468 29.815-112.692l103.907-63.664h83.786l-.102 31.15c-18.776 28.638-29.696 62.891-29.696 99.694 0 62.023 24.81 118.25 65.047 159.296v81.034h-186.343z" fill="#c3ddff"/><path d="m187.708 182.044c0-36.804 10.92-71.057 29.696-99.694l.102-31.15h-23.694l-.102 31.15c-18.776 28.638-29.696 62.891-29.696 99.694 0 62.023 24.81 118.25 65.047 159.296v81.034h23.694v-81.034c-40.236-41.046-65.047-97.273-65.047-159.296z" fill="#a7ccfb"/><path d="m511.932 349.867c0-4.713-3.82-8.533-8.532-8.533h-264.498c-21.772 0-41.676 12.303-51.413 31.779l-2.354 4.708c-9.737 19.477-29.641 31.779-51.413 31.779v12.774h378.278z" fill="#d19a6e"/><path d="m511.932 349.867c0-4.713-3.82-8.533-8.532-8.533h-23.762c4.712 0 8.532 3.82 8.532 8.533l.068 72.508h23.762z" fill="#c38c66"/><g><path d="m117.066 417.329c-2.213 0-4.41-.946-5.939-2.779-43.631-52.334-67.66-118.743-67.66-186.995 0-4.268 3.459-7.726 7.726-7.726s7.726 3.459 7.726 7.726c0 64.642 22.757 127.537 64.076 177.1 2.732 3.278 2.291 8.15-.987 10.882-1.443 1.204-3.198 1.792-4.942 1.792z" fill="#a7ccfb"/></g><ellipse cx="426.61" cy="51.2" fill="#ecf4ff" rx="17.064" ry="17.067"/><ellipse cx="17.064" cy="51.2" fill="#ecf4ff" rx="17.064" ry="17.067"/><path d="m248.756 409.6v102.4h246.112c9.424 0 17.064-7.641 17.064-17.067l.068-85.333z" fill="#c3ddff"/><path d="m488.238 409.6-.068 85.333c0 9.425-7.64 17.067-17.064 17.067h23.762c9.424 0 17.064-7.641 17.064-17.067l.068-85.333z" fill="#a7ccfb"/><path d="m307.156 495.259c.179-9.564-7.945-17.392-17.511-17.392h-16.165c-9.566 0-17.69-7.828-17.511-17.393.174-9.275 7.746-16.74 17.061-16.74h101.937c9.566 0 17.69-7.828 17.511-17.393-.174-9.275-7.746-16.741-17.061-16.741h-367.176c-4.551 0-8.241 3.69-8.241 8.241v77.092c0 9.426 7.641 17.067 17.067 17.067h273.028c9.316 0 16.888-7.466 17.061-16.741z" fill="#ecf4ff"/><g fill="#ddeafb"><path d="m290.095 477.867h-17.065c-9.424 0-17.064-7.641-17.064-17.067s7.64-17.067 17.064-17.067h-23.694c-9.424 0-17.064 7.641-17.064 17.067 0 9.425 7.64 17.067 17.064 17.067h17.065c9.424 0 17.064 7.641 17.064 17.067 0 9.425-7.64 17.067-17.064 17.067h23.694c9.424 0 17.064-7.641 17.064-17.067s-7.64-17.067-17.064-17.067z"/><path d="m375.417 409.6h-23.694c9.425 0 17.064 7.641 17.064 17.067s-7.64 17.067-17.064 17.067h23.694c9.424 0 17.064-7.641 17.064-17.067s-7.64-17.067-17.064-17.067z"/></g><path d="m0 227.556c0-1.385.028-2.764.052-4.143-.034 1.369-.052 2.742-.052 4.12z" fill="#ecf4ff"/><path d="m0 227.556c0-125.676 101.867-227.556 227.525-227.556 81.433 0 150.376 53.483 173.628 127.243 0 0 7.281 21.619 1.357 38.102-5.236 14.568-40.318 30.022-64.913-10.441-1.044-1.718-3.652-1.098-3.817.906-.549 6.65-2.79 15.791-10.508 20.352-15.109 8.928-32.794 2.232-42.581-20.604-4.165-9.719-6.54-16.661-14.046-28.316-22.618-35.438-62.284-58.937-107.437-58.937-87.928-.001-159.208 71.288-159.208 159.228z" fill="#ecf4ff"/><path d="m401.154 127.243c-23.253-73.761-92.196-127.243-173.629-127.243-4.177 0-8.326.121-12.448.343 76.483 4.663 140.208 56.561 162.382 126.9 0 0 7.28 21.619 1.357 38.102-1.861 5.179-7.497 10.467-15.09 13.318 18.248 6.673 35.264-3.522 38.784-13.318 5.924-16.484-1.356-38.102-1.356-38.102z" fill="#ddeafb"/><path d="m146.629 68.797c-3.664-.317-7.368-.494-11.114-.494-36.765 0-70.614 12.47-97.564 33.402-23.258 34.975-37.095 76.747-37.899 121.707 2.079-81.826 65.88-148.305 146.577-154.615z" fill="#ddeafb"/><path d="m0 227.556c0-1.385.028-2.764.052-4.143-.034 1.369-.052 2.742-.052 4.12z" fill="#ecf4ff"/></g></svg>