<svg id="Capa_1" enable-background="new 0 0 512 512" height="512" viewBox="0 0 512 512" width="512" xmlns="http://www.w3.org/2000/svg"><g><g><path d="m298.032 134.504c-24.154 0-43.535-20.724-41.792-45.225 1.431-20.112 17.362-36.563 37.42-38.616 2.823-.289 5.595-.294 8.292-.042 3.682.344 7.077-1.982 8.283-5.478 9.058-26.268 33.979-45.143 63.324-45.143 22.017 0 41.543 10.627 53.752 27.027 3.113 4.181 7.969 6.634 13.181 6.6.106-.001.212-.001.319-.001 28.143 0 50.903 23.049 50.432 51.301-.462 27.656-23.602 49.577-51.262 49.577z" fill="#daeaff"/><path d="m440.811 33.626c-.106 0-.212 0-.319.001-5.212.034-10.069-2.419-13.181-6.6-12.208-16.4-31.735-27.027-53.752-27.027-3.976 0-7.866.358-11.651 1.022 17.159 3.023 32.065 12.576 42.061 26.004 3.113 4.181 7.969 6.634 13.181 6.6.106-.001.212-.001.319-.001 28.143 0 50.903 23.049 50.432 51.301-.462 27.656-23.602 49.577-51.262 49.577h23.342c27.66 0 50.8-21.921 51.262-49.577.471-28.251-22.289-51.3-50.432-51.3z" fill="#bed8fb"/><path d="m448.549 34.216c-2.523-.388-5.107-.59-7.738-.59-.106 0-.212 0-.319.001-5.212.034-10.069-2.419-13.181-6.6-.917-1.232-1.88-2.427-2.878-3.591-24.28 9.443-41.541 33.051-41.541 60.629 0 4.204 3.408 7.612 7.612 7.612s7.612-3.408 7.612-7.612c0-27.469 22.348-49.817 49.817-49.817.208 0 .412-.015.616-.032z" fill="#cbe0fc"/><g><g><path d="m440.942 168.13h-.023c-1.239 0-2.305-.833-2.652-2.023-8.145-27.974-33.974-48.416-64.577-48.416-11.443 0-22.212 2.867-31.642 7.911-3.696 1.977-8.284.944-10.634-2.527-9.067-13.393-24.397-22.197-41.788-22.197-4.067 0-8.021.484-11.808 1.395-4.104.987-8.34-1.218-9.665-5.225-12.18-36.838-46.889-63.421-87.811-63.421-51.07 0-92.471 41.401-92.471 92.471 0 1.16.03 2.312.078 3.459.048 1.136-.325 2.25-1.024 3.146l-.072.093c-.876 1.122-2.202 1.785-3.624 1.862-44.745 2.438-80.184 39.842-79.41 85.373.782 46.028 39.073 82.602 85.108 82.602h351.013c36.961 0 67.769-29.401 68.249-66.359.487-37.551-29.807-68.144-67.247-68.144z" fill="#ecf4ff"/><path d="m440.942 168.13h-.023c-1.239 0-2.305-.833-2.652-2.023-8.145-27.974-33.974-48.416-64.577-48.416-11.443 0-22.212 2.867-31.642 7.911-3.696 1.977-8.284.944-10.634-2.527-9.067-13.393-24.397-22.197-41.788-22.197-4.067 0-8.021.484-11.808 1.395-4.104.987-8.34-1.218-9.665-5.225-12.18-36.838-46.889-63.421-87.811-63.421-51.07 0-92.471 41.401-92.471 92.471 0 1.16.03 2.312.078 3.459.048 1.136-.325 2.25-1.024 3.146l-.072.093c-.876 1.122-2.202 1.785-3.624 1.862-44.745 2.438-80.184 39.842-79.41 85.373.782 46.028 39.073 82.602 85.108 82.602h351.013c36.961 0 67.769-29.401 68.249-66.359.487-37.551-29.807-68.144-67.247-68.144z" fill="#ecf4ff"/><path d="m440.942 168.13h-.023c-1.239 0-2.305-.833-2.652-2.023-8.145-27.974-33.974-48.416-64.577-48.416-3.979 0-7.874.354-11.663 1.019 25.347 4.439 45.813 23.065 52.898 47.398.346 1.189 1.413 2.023 2.651 2.023h.023c37.439 0 67.733 30.593 67.246 68.145-.479 36.958-31.288 66.359-68.249 66.359h23.342c36.961 0 67.769-29.401 68.249-66.359.489-37.553-29.805-68.146-67.245-68.146z" fill="#daeaff"/><path d="m164.324 218.569c0 4.204 3.408 7.612 7.611 7.612 4.204 0 7.611-3.407 7.611-7.612 0-52.052-40.382-94.848-91.462-98.708-.137 2.062-.214 4.14-.214 6.236 0 1.16.03 2.312.078 3.459.048 1.136-.325 2.25-1.024 3.146l-.072.093c-.876 1.122-2.202 1.785-3.624 1.862-.675.037-1.34.107-2.011.159 45.885.36 83.107 37.785 83.107 83.753z" fill="#ddeafb"/><g><path d="m276.979 102.427c-3.828.521-7.592-1.645-8.827-5.38-.764-2.311-1.618-4.582-2.555-6.809-28.111 9.93-48.315 36.756-48.315 68.224 0 4.204 3.408 7.611 7.611 7.611 4.204 0 7.612-3.407 7.612-7.611 0-27.15 19.045-50.156 44.473-55.994v-.041z" fill="#ddeafb"/></g><path d="m381.302 239.187c0-4.204-3.408-7.611-7.612-7.611s-7.612 3.407-7.612 7.611c0 26.019 12.705 49.117 32.229 63.446h41.632c.815 0 1.623-.032 2.431-.06-33.884-1.257-61.068-29.199-61.068-63.386z" fill="#ddeafb"/></g></g></g><path d="m197.155 443.525v-29.59c0-2.858-1.525-5.499-4-6.928l-25.626-14.795c-2.475-1.429-5.525-1.429-8 0l-25.626 14.795c-2.475 1.429-4 4.07-4 6.928v29.59c0 2.858 1.525 5.499 4 6.928l25.626 14.795c2.475 1.429 5.525 1.429 8 0l25.626-14.795c2.475-1.428 4-4.069 4-6.928z" fill="#ddeafb"/><path d="m382.097 443.525v-29.59c0-2.858-1.525-5.499-4-6.928l-25.626-14.795c-2.475-1.429-5.525-1.429-8 0l-25.626 14.795c-2.475 1.429-4 4.07-4 6.928v29.59c0 2.858 1.525 5.499 4 6.928l25.626 14.795c2.475 1.429 5.525 1.429 8 0l25.626-14.795c2.475-1.428 4-4.069 4-6.928z" fill="#ddeafb"/><path d="m378.038 406.973-25.507-14.727c-2.512-1.45-5.607-1.45-8.119 0l-7.611 4.395 17.896 10.332c2.512 1.45 4.059 4.131 4.059 7.031v29.453c0 2.901-1.547 5.581-4.059 7.031l-17.897 10.332 7.611 4.394c2.512 1.45 5.607 1.45 8.119 0l25.507-14.726c2.512-1.45 4.059-4.131 4.059-7.031v-29.453c.001-2.901-1.546-5.581-4.058-7.031z" fill="#bed8fb"/><path d="m193.095 406.973-25.507-14.727c-2.512-1.45-5.607-1.45-8.119 0l-7.611 4.395 17.895 10.332c2.512 1.45 4.06 4.131 4.06 7.031v29.453c0 2.901-1.548 5.581-4.06 7.031l-17.895 10.332 7.611 4.394c2.512 1.45 5.607 1.45 8.119 0l25.507-14.726c2.512-1.45 4.059-4.131 4.059-7.031v-29.453c.001-2.901-1.547-5.581-4.059-7.031z" fill="#bed8fb"/><g><path d="m71.057 411.122c-4.204 0-7.611-3.407-7.611-7.611v-67.252c0-4.204 3.408-7.612 7.611-7.612 4.204 0 7.612 3.407 7.612 7.612v67.252c0 4.204-3.408 7.611-7.612 7.611z" fill="#bed8fb"/></g><g><path d="m71.057 512c-4.204 0-7.611-3.407-7.611-7.612v-50.439c0-4.204 3.408-7.611 7.611-7.611 4.204 0 7.612 3.407 7.612 7.611v50.439c0 4.205-3.408 7.612-7.612 7.612z" fill="#bed8fb"/></g><g><path d="m440.942 411.122c-4.204 0-7.611-3.407-7.611-7.611v-67.252c0-4.204 3.408-7.612 7.611-7.612s7.612 3.407 7.612 7.612v67.252c0 4.204-3.408 7.611-7.612 7.611z" fill="#bed8fb"/></g><g><path d="m440.942 512c-4.204 0-7.611-3.407-7.611-7.612v-50.439c0-4.204 3.408-7.611 7.611-7.611s7.612 3.407 7.612 7.611v50.439c0 4.205-3.408 7.612-7.612 7.612z" fill="#bed8fb"/></g><g><path d="m256 512c-4.204 0-7.612-3.407-7.612-7.612v-67.252c0-4.204 3.408-7.612 7.612-7.612s7.611 3.407 7.611 7.612v67.252c0 4.205-3.407 7.612-7.611 7.612z" fill="#bed8fb"/></g><g><path d="m256 394.309c-4.204 0-7.612-3.407-7.612-7.612v-50.439c0-4.204 3.408-7.612 7.612-7.612s7.611 3.407 7.611 7.612v50.439c0 4.205-3.407 7.612-7.611 7.612z" fill="#bed8fb"/></g></g></svg>