<svg id="Capa_1" enable-background="new 0 0 512 512" height="512" viewBox="0 0 512 512" width="512" xmlns="http://www.w3.org/2000/svg"><g><g><g fill="#ffe07d"><path d="m174.785 482.008c-39.984 39.99-104.812 39.99-144.796 0s-39.984-104.826 0-144.815l325.99-326.035c13.328-13.33 34.937-13.33 48.265 0s13.328 34.942 0 48.272l-169.128 169.151c-13.328 13.33-13.328 34.942 0 48.272s34.937 13.33 48.265 0l97.958-97.778c13.328-13.33 34.937-13.33 48.265 0s13.328 34.942 0 48.272z"/><ellipse cx="477.871" cy="130.803" rx="34.129" ry="34.133"/><path d="m174.785 482.008c-39.984 39.99-104.812 39.99-144.796 0s-39.984-104.826 0-144.815l325.99-326.035c13.328-13.33 34.937-13.33 48.265 0s13.328 34.942 0 48.272l-169.128 169.151c-13.328 13.33-13.328 34.942 0 48.272s34.937 13.33 48.265 0l97.958-97.778c13.328-13.33 34.937-13.33 48.265 0s13.328 34.942 0 48.272z"/></g><g fill="#ffd064"><path d="m380.55 11.158c13.328 13.33 13.328 34.942 0 48.272l-169.128 169.151c-13.328 13.33-13.328 34.942 0 48.272 9.729 9.73 23.868 12.349 35.98 7.874-4.481-1.656-8.686-4.274-12.286-7.874-13.328-13.33-13.328-34.942 0-48.272l169.128-169.151c13.328-13.33 13.328-34.942 0-48.272-9.729-9.73-23.868-12.349-35.98-7.874 4.481 1.656 8.687 4.275 12.286 7.874z"/><path d="m429.606 179.074c-9.729-9.73-23.868-12.349-35.98-7.874 4.481 1.655 8.686 4.274 12.286 7.874 13.328 13.33 13.328 34.942 0 48.272l-254.822 254.662c-16.974 16.976-38.425 26.741-60.551 29.304 29.996 3.475 61.234-6.29 84.245-29.304l254.821-254.662c13.329-13.33 13.329-34.942.001-48.272z"/></g><path d="m502.004 106.666c-9.738-9.739-23.894-12.353-36.014-7.861 4.468 1.656 8.662 4.27 12.252 7.861 13.328 13.33 13.328 34.942 0 48.272-3.59 3.59-7.784 6.205-12.252 7.861 12.12 4.493 26.276 1.878 36.014-7.861 13.328-13.329 13.328-34.942 0-48.272z" fill="#ffd064"/><g><path d="m220.382 334.164-9.218-9.219c-6.664-6.665-17.469-6.665-24.133 0l-6.238 6.239c-3.219 3.219-8.437 3.219-11.656 0l-15.456-15.458c-9.141-9.142-22.663-12.334-34.927-8.245l-8.544 2.849c-5.026 1.676-9.593 4.499-13.34 8.245l-42.928 42.934c-26.87 26.873-26.654 70.577.645 97.18 26.868 26.183 70.079 25.173 96.605-1.356l66.341-66.35c3.746-3.747 6.569-8.314 8.244-13.341l2.849-8.548c4.088-12.266.897-25.788-8.244-34.93z" fill="#966a5b"/><g><path d="m156.866 399.046c-.81 0-1.634-.128-2.444-.398-4.048-1.349-6.236-5.724-4.887-9.773l4.523-13.573-17.379-17.382-13.569 4.524c-4.049 1.348-8.424-.838-9.774-4.886-1.349-4.048.838-8.424 4.886-9.774l18.1-6.034c2.778-.926 5.838-.202 7.907 1.867l24.133 24.136c2.069 2.069 2.792 5.13 1.866 7.905l-6.033 18.102c-1.08 3.239-4.095 5.286-7.329 5.286z" fill="#785353"/></g><g><path d="m126.699 441.283c-1.977 0-3.954-.755-5.463-2.263-3.018-3.017-3.018-7.909-.001-10.927 3.642-3.642 3.642-9.568 0-13.21-1.764-1.764-4.109-2.735-6.603-2.735s-4.839.972-6.603 2.736c-3.018 3.016-7.909 3.016-10.928 0-3.017-3.018-3.017-7.91 0-10.928 4.683-4.682 10.909-7.262 17.53-7.262 6.623 0 12.848 2.579 17.53 7.263 9.665 9.666 9.665 25.395 0 35.061-1.508 1.51-3.485 2.265-5.462 2.265z" fill="#785353"/></g><g fill="#785353"><path d="m220.382 334.164-9.218-9.219c-6.593-6.594-17.234-6.653-23.914-.198.071.069.149.128.219.198l9.218 9.219c9.141 9.142 12.333 22.664 8.245 34.929l-2.849 8.548c-1.675 5.027-4.498 9.594-8.244 13.341l-66.341 66.35c-10.559 10.56-23.763 17.062-37.525 19.43 21.549 3.763 44.643-2.85 61.22-19.43l66.341-66.35c3.746-3.747 6.569-8.314 8.245-13.341l2.849-8.548c4.086-12.265.895-25.787-8.246-34.929z"/><path d="m39.022 435.626 44.876-44.88c3.017-3.017 3.017-7.909-.001-10.927-3.016-3.016-7.908-3.017-10.926.001l-38.472 38.474c.739 5.911 2.239 11.742 4.523 17.332z"/><path d="m220.382 334.164-2.606-2.606c-.06.056-.123.106-.182.164l-23.961 23.964c-3.017 3.017-3.017 7.91.001 10.927 1.508 1.508 3.486 2.263 5.463 2.263s3.955-.755 5.464-2.264l22.653-22.656c-1.658-3.583-3.947-6.907-6.832-9.792z"/></g></g></g><g fill="#ffe07d"><ellipse cx="460.739" cy="358.4" rx="17.064" ry="17.067"/><ellipse cx="102.386" cy="17.067" rx="17.064" ry="17.067" transform="matrix(1 -.006 .006 1 -.094 .575)"/><ellipse cx="409.546" cy="477.867" rx="17.064" ry="17.067" transform="matrix(1 -.006 .006 1 -2.708 2.334)"/><ellipse cx="34.129" cy="136.533" rx="17.067" ry="17.064" transform="matrix(.006 -1 1 .006 -102.59 169.912)"/></g><path d="m278.029 448.732c-6.664 6.665-6.664 17.471 0 24.136s17.469 6.665 24.133 0l72.398-72.408c6.664-6.665 6.664-17.471 0-24.136s-17.469-6.665-24.133 0z" fill="#fff0af"/><path d="m73.256 192.732c-6.664 6.665-6.664 17.471 0 24.136s17.469 6.665 24.133 0l153.58-153.6c6.664-6.665 6.664-17.471 0-24.136s-17.469-6.665-24.133 0z" fill="#fff0af"/><g fill="#ffe07d"><path d="m250.968 39.132c-6.599-6.6-17.252-6.654-23.93-.183.066.064.137.118.202.183 6.664 6.665 6.664 17.471 0 24.136l-153.58 153.6c-.065.065-.137.119-.202.183 6.678 6.471 17.331 6.417 23.93-.183l153.58-153.6c6.664-6.665 6.664-17.471 0-24.136z"/><path d="m374.559 376.324c-6.594-6.595-17.234-6.653-23.913-.198.071.069.149.128.219.198 6.664 6.665 6.664 17.471 0 24.136l-72.398 72.408c-.07.07-.148.129-.219.198 6.679 6.455 17.32 6.396 23.914-.198l72.398-72.408c6.664-6.665 6.664-17.471-.001-24.136z"/></g></g></svg>