<svg id="Capa_1" enable-background="new 0 0 512 512" height="512" viewBox="0 0 512 512" width="512" xmlns="http://www.w3.org/2000/svg"><g><path d="m502.382 512c7.952 0 12.456-9.115 7.626-15.431l-104.404-136.529h-280.952v151.96z" fill="#966a5b"/><path d="m510.008 496.568-104.404-136.528h-23.694l104.404 136.528c4.831 6.317.326 15.432-7.626 15.432h23.694c7.953 0 12.457-9.115 7.626-15.432z" fill="#785353"/><g><path d="m256.005 172.701c-2.45 0-4.859-1.163-6.359-3.329l-102.399-147.907c-2.43-3.509-1.554-8.322 1.954-10.751 3.508-2.431 8.322-1.554 10.751 1.954l102.398 147.908c2.43 3.509 1.554 8.322-1.954 10.751-1.342.929-2.874 1.374-4.391 1.374z" fill="#ddeafb"/></g><g><path d="m311.85 167.086c-2.45 0-4.859-1.163-6.359-3.329l-55.845-80.665c-2.43-3.509-1.554-8.322 1.954-10.751 3.509-2.43 8.321-1.553 10.751 1.954l55.845 80.665c2.43 3.509 1.554 8.322-1.954 10.751-1.343.929-2.875 1.375-4.392 1.375z" fill="#ddeafb"/></g><path d="m378.193 324.195c27.009-1.417 48.473-23.766 48.473-51.129 0-21.319-13.034-39.585-31.565-47.287-1.57-.653-2.569-2.183-2.568-3.883 0 0 0-.019 0-.029 0-37.703-30.564-68.267-68.267-68.267-12.999 0-25.148 3.635-35.489 9.942-3.051 1.86-7.022 1.512-9.649-.91-6.081-5.607-14.204-9.032-23.128-9.032-17.396 0-31.753 13.014-33.865 29.837l-12.653 12.653 145.364 145.364z" fill="#ecf4ff"/><path d="m395.101 225.779c-1.57-.653-2.569-2.183-2.568-3.883 0-.01 0-.02 0-.029 0-37.703-30.564-68.267-68.267-68.267-4.061 0-8.04.355-11.906 1.035 32.081 5.588 56.478 33.551 56.478 67.232v.029c-.001 1.701.998 3.231 2.568 3.883 18.531 7.702 31.565 25.968 31.565 47.287 0 27.362-21.464 49.711-48.473 51.129l-9.724 7.188 10.07 10.07 23.348-17.258c27.009-1.417 48.473-23.766 48.473-51.129.002-21.318-13.033-39.584-31.564-47.287z" fill="#ddeafb"/><path d="m213.333 512c18.851 0 34.133-15.282 34.133-34.133s-15.282-34.133-34.133-34.133h-42.667c-18.851 0-34.133-15.282-34.133-34.133s15.282-34.133 34.133-34.133l246.73-.005-112.331-146.897c-3.229-4.223-8.241-6.699-13.557-6.699h-42.766l-148.51-214.515c-3.188-4.604-8.432-7.352-14.032-7.352h-77.667c-4.713 0-8.533 3.821-8.533 8.533v486.4c0 9.426 7.641 17.067 17.067 17.067z" fill="#ecf4ff"/><g fill="#ddeafb"><path d="m281.285 228.566 112.332 146.896-246.731.005c-18.851 0-34.133 15.282-34.133 34.133s15.282 34.133 34.133 34.133h23.78c-18.851 0-34.133-15.282-34.133-34.133s15.282-34.133 34.133-34.133l246.73-.005-112.331-146.896c-3.229-4.223-8.241-6.699-13.557-6.699h-23.78c5.316 0 10.328 2.477 13.557 6.699z"/><path d="m213.333 443.733h-23.78c18.851 0 34.133 15.282 34.133 34.133s-15.282 34.133-34.133 34.133h23.78c18.851 0 34.133-15.282 34.133-34.133.001-18.851-15.281-34.133-34.133-34.133z"/><path d="m76.452 7.352 148.51 214.515h23.78l-148.51-214.515c-3.188-4.604-8.432-7.352-14.032-7.352h-23.78c5.6 0 10.844 2.748 14.032 7.352z"/></g><g><path d="m85.333 383.193c-4.268 0-7.726-3.459-7.726-7.726v-34.134c0-4.268 3.459-7.726 7.726-7.726s7.726 3.459 7.726 7.726v34.134c0 4.267-3.458 7.726-7.726 7.726z" fill="#d19a6e"/></g><g><path d="m102.4 383.193h-34.133c-4.268 0-7.726-3.459-7.726-7.726 0-4.268 3.459-7.726 7.726-7.726h34.133c4.268 0 7.726 3.459 7.726 7.726.001 4.267-3.458 7.726-7.726 7.726z" fill="#ddeafb"/></g><g><path d="m307.2 485.593c-4.268 0-7.726-3.459-7.726-7.726v-34.133c0-4.268 3.459-7.726 7.726-7.726s7.726 3.459 7.726 7.726v34.133c.001 4.267-3.458 7.726-7.726 7.726z" fill="#d19a6e"/></g><g><path d="m324.267 485.593h-34.133c-4.268 0-7.726-3.459-7.726-7.726s3.459-7.726 7.726-7.726h34.133c4.268 0 7.726 3.459 7.726 7.726s-3.459 7.726-7.726 7.726z" fill="#785353"/></g><g fill="#ecf4ff"><ellipse cx="443.733" cy="170.667" rx="17.067" ry="17.067" transform="matrix(.707 -.707 .707 .707 9.287 363.754)"/><circle cx="341.333" cy="102.4" r="17.067"/><path d="m494.451 34.133h-8.915c-4.053 0-7.546-2.853-8.352-6.826-3.162-15.58-16.937-27.307-33.451-27.307-16.881 0-30.899 12.254-33.646 28.352-.536 3.143-2.79 5.635-5.819 6.631-7.061 2.32-12.089 9.123-11.716 17.042.432 9.18 8.34 16.242 17.529 16.242h84.851c9.699 0 17.509-8.091 17.047-17.892-.431-9.179-8.338-16.242-17.528-16.242z"/></g><path d="m494.451 34.133h-8.915c-4.053 0-7.546-2.853-8.352-6.826-3.162-15.58-16.937-27.307-33.451-27.307-4.165 0-8.155.749-11.846 2.115 10.939 4.05 19.238 13.543 21.602 25.193.806 3.973 4.299 6.826 8.352 6.826h8.915c9.19 0 17.097 7.062 17.529 16.242.462 9.801-7.348 17.892-17.047 17.892h23.694c9.699 0 17.509-8.091 17.047-17.892-.431-9.181-8.338-16.243-17.528-16.243z" fill="#ddeafb"/><g><path d="m115.942 284.684-26.252-52.503c-1.795-3.59-6.919-3.59-8.714 0l-26.252 52.503c-1.619 3.239.736 7.05 4.357 7.05 3.243 0 5.581 3.111 4.679 6.226l-10.758 37.148c-.902 3.116 1.435 6.226 4.679 6.226h55.303c3.244 0 5.581-3.111 4.679-6.226l-10.758-37.148c-.902-3.116 1.435-6.226 4.679-6.226 3.622-.001 5.977-3.811 4.358-7.05z" fill="#b3e59f"/><path d="m117.664 335.107-10.758-37.148c-.902-3.115 1.435-6.226 4.679-6.226 3.621 0 5.976-3.811 4.357-7.05l-26.252-52.502c-1.795-3.59-6.919-3.59-8.714 0l-7.49 14.98 18.762 37.523c1.619 3.239-.736 7.05-4.357 7.05-3.244 0-5.581 3.111-4.679 6.226l10.758 37.148c.902 3.116-1.435 6.226-4.679 6.226h23.694c3.243-.001 5.581-3.111 4.679-6.227z" fill="#95d6a4"/></g><g><path d="m337.809 387.084-26.252-52.503c-1.795-3.59-6.919-3.59-8.714 0l-26.251 52.503c-1.62 3.239.736 7.05 4.357 7.05 3.244 0 5.581 3.111 4.679 6.226l-10.758 37.148c-.902 3.116 1.435 6.226 4.679 6.226h55.303c3.244 0 5.581-3.111 4.679-6.226l-10.758-37.148c-.902-3.116 1.435-6.226 4.679-6.226 3.621-.001 5.976-3.811 4.357-7.05z" fill="#b3e59f"/><path d="m339.53 437.507-10.758-37.147c-.902-3.116 1.435-6.226 4.679-6.226 3.621 0 5.976-3.811 4.357-7.05l-26.252-52.503c-1.795-3.59-6.919-3.59-8.714 0l-7.49 14.98 18.762 37.523c1.619 3.239-.736 7.05-4.357 7.05-3.244 0-5.581 3.111-4.679 6.226l10.758 37.147c.902 3.116-1.435 6.226-4.679 6.226h23.694c3.244 0 5.581-3.11 4.679-6.226z" fill="#95d6a4"/></g><path d="m210.401 229.725-29.842 74.606c-1.585 3.962.343 8.458 4.305 10.043.941.376 1.911.554 2.867.554 3.065 0 5.968-1.838 7.176-4.859l29.842-74.606c1.426-3.566 4.831-5.871 8.672-5.871h72.429l-.785-1.027c-3.229-4.223-8.241-6.699-13.557-6.699h-42.766l-5.349-7.727h-9.971c-10.198.001-19.233 6.119-23.021 15.586z" fill="#ddeafb"/></g></svg>