<svg id="Capa_1" enable-background="new 0 0 512 512" height="512" viewBox="0 0 512 512" width="512" xmlns="http://www.w3.org/2000/svg"><g><path d="m380.726 276.619c6.305-15.576 9.777-32.602 9.777-50.44 0-74.284-60.219-134.504-134.504-134.504s-134.503 60.221-134.503 134.505c0 17.838 3.472 34.865 9.778 50.442v7.541h249.047z" fill="#ffe07d"/><path d="m256 91.676c-3.933 0-7.824.179-11.671.51 68.818 5.917 122.833 63.643 122.833 133.994 0 17.837-3.472 34.863-9.777 50.439l-.405 7.543h23.342l.405-7.543c6.305-15.576 9.777-32.602 9.777-50.439 0-74.284-60.22-134.504-134.504-134.504z" fill="#ffd064"/><g><g><path d="m256 65.662c-4.204 0-7.611-3.408-7.611-7.612v-50.439c0-4.203 3.407-7.611 7.611-7.611s7.612 3.408 7.612 7.611v50.439c0 4.204-3.408 7.612-7.612 7.612z" fill="#ffe07d"/></g><g><path d="m137.115 114.906c-1.949 0-3.896-.743-5.383-2.229l-35.666-35.666c-2.972-2.972-2.972-7.792 0-10.764 2.973-2.972 7.792-2.972 10.765 0l35.666 35.665c2.972 2.972 2.972 7.792 0 10.764-1.486 1.486-3.435 2.23-5.382 2.23z" fill="#ffe07d"/></g><g><path d="m87.87 233.791h-50.438c-4.204 0-7.611-3.408-7.611-7.611 0-4.204 3.407-7.611 7.611-7.611h50.438c4.204 0 7.611 3.408 7.611 7.611.001 4.203-3.407 7.611-7.611 7.611z" fill="#ffe07d"/></g><g><path d="m474.568 233.791h-50.438c-4.204 0-7.611-3.408-7.611-7.611 0-4.204 3.407-7.611 7.611-7.611h50.438c4.204 0 7.612 3.408 7.612 7.611-.001 4.203-3.408 7.611-7.612 7.611z" fill="#ffe07d"/></g><g><path d="m374.885 114.906c-1.948 0-3.896-.743-5.383-2.229-2.972-2.972-2.972-7.792 0-10.764l35.666-35.665c2.973-2.973 7.792-2.972 10.765 0 2.972 2.972 2.972 7.792 0 10.764l-35.666 35.665c-1.486 1.485-3.435 2.229-5.382 2.229z" fill="#ffe07d"/></g></g><g><g><path d="m191.663 78.462c-2.987 0-5.821-1.77-7.035-4.701l-9.651-23.3c-1.609-3.883.235-8.336 4.119-9.945 3.883-1.61 8.336.236 9.945 4.119l9.651 23.3c1.609 3.883-.235 8.336-4.119 9.945-.953.395-1.94.582-2.91.582z" fill="#fff0af"/></g><g><path d="m100.666 169.453c-.971 0-1.957-.187-2.91-.581l-23.3-9.651c-3.884-1.609-5.728-6.061-4.119-9.945s6.062-5.727 9.945-4.119l23.3 9.651c3.884 1.609 5.728 6.061 4.119 9.945-1.214 2.93-4.048 4.7-7.035 4.7z" fill="#fff0af"/></g><g><path d="m411.334 169.453c-2.987 0-5.821-1.77-7.035-4.701-1.609-3.883.235-8.336 4.119-9.945l23.3-9.651c3.884-1.609 8.336.236 9.944 4.119 1.609 3.884-.235 8.337-4.119 9.945l-23.3 9.651c-.952.395-1.939.582-2.909.582z" fill="#fff0af"/></g><g><path d="m320.337 78.462c-.971 0-1.957-.187-2.91-.581-3.884-1.609-5.728-6.062-4.119-9.945l9.651-23.3c1.609-3.884 6.063-5.726 9.944-4.119 3.884 1.609 5.728 6.061 4.119 9.945l-9.651 23.3c-1.213 2.93-4.047 4.7-7.034 4.7z" fill="#fff0af"/></g></g><path d="m506.23 39.537-24.084-28.901c-3.361-4.033-9.555-4.033-12.916 0l-24.084 28.901c-4.563 5.475-.669 13.788 6.458 13.788h7.271v25.219c0 4.643 3.764 8.407 8.406 8.407h16.813c4.643 0 8.406-3.764 8.406-8.407v-25.218h7.271c7.128 0 11.022-8.313 6.459-13.789z" fill="#b3e59f"/><path d="m3.806 377.496v-92.903c0-3.618 2.315-6.831 5.748-7.975h95.129l151.317 20.298 151.316-20.297h95.13c3.433 1.144 5.748 4.357 5.748 7.975v76.09l-164.154 69.112h-191.81z" fill="#c3ddff"/><path d="m502.446 276.619h-23.342c3.433 1.144 5.748 4.357 5.748 7.975v85.917l23.342-9.827v-76.09c0-3.619-2.315-6.831-5.748-7.975z" fill="#a4ccff"/><path d="m491.381 512h-470.762c-9.285 0-16.813-7.527-16.813-16.813v-117.691h104.194c18.936 0 36.619 9.464 47.123 25.219 10.504 15.756 28.187 25.219 47.123 25.219h102.817c21.452 0 41.062-12.12 50.656-31.307l2.319-4.638c9.594-19.187 29.204-31.307 50.656-31.307h99.501v134.504c-.001 9.287-7.528 16.814-16.814 16.814z" fill="#f7e3c1"/><path d="m484.852 360.684v134.504c0 9.285-7.527 16.813-16.813 16.813h23.342c9.285 0 16.813-7.527 16.813-16.813v-134.504z" fill="#f1d0a4"/><path d="m407.317 276.619c9.286 0 16.813 7.527 16.813 16.813s-7.527 16.813-16.813 16.813h-100.878c-9.286 0-16.813 7.527-16.813 16.813s7.527 16.813 16.813 16.813h16.813c9.285 0 16.813 7.527 16.813 16.813s-7.527 16.813-16.813 16.813h-134.504c-9.285 0-16.813-7.527-16.813-16.813s7.528-16.813 16.813-16.813h16.813c9.286 0 16.813-7.527 16.813-16.813 0-9.285-7.527-16.813-16.813-16.813h-100.878c-9.285 0-16.813-7.527-16.813-16.813s7.527-16.813 16.813-16.813z" fill="#dbeaff"/><path d="m87.87 478.374c9.285 0 16.813-7.527 16.813-16.813 0-9.285-7.527-16.813-16.813-16.813h-33.625c-9.285 0-16.813 7.527-16.813 16.813s7.528 16.813 16.813 16.813z" fill="#ff8086"/><path d="m87.87 444.748h-23.341c9.286 0 16.813 7.527 16.813 16.813 0 9.285-7.527 16.813-16.813 16.813h23.341c9.286 0 16.813-7.528 16.813-16.813.001-9.285-7.527-16.813-16.813-16.813z" fill="#e5646e"/></g></svg>