<svg id="Capa_1" enable-background="new 0 0 527.453 527.453" height="512" viewBox="0 0 527.453 527.453" width="512" xmlns="http://www.w3.org/2000/svg"><g><g><g><path d="m224.923 335.453h-148.93c-4.268 0-7.726-3.459-7.726-7.726s3.459-7.726 7.726-7.726h148.93c4.268 0 7.726 3.459 7.726 7.726s-3.459 7.726-7.726 7.726z" fill="#cbe2ff"/></g></g><g><g><path d="m485.593 335.453h-151.466c-4.268 0-7.726-3.459-7.726-7.726s3.459-7.726 7.726-7.726h151.466c14.561-.001 26.407-11.847 26.407-26.408s-11.846-26.407-26.407-26.407c-14.56 0-26.406 11.846-26.406 26.407 0 4.267-3.459 7.726-7.726 7.726-4.268 0-7.726-3.459-7.726-7.726 0-23.081 18.778-41.86 41.859-41.86 23.082 0 41.86 18.778 41.86 41.86-.001 23.082-18.78 41.86-41.861 41.86z" fill="#cbe2ff"/></g></g><g><g><path d="m75.993 467.719c-23.081 0-41.859-18.778-41.859-41.86 0-23.081 18.778-41.86 41.859-41.86h153.6c4.268 0 7.726 3.459 7.726 7.726s-3.459 7.726-7.726 7.726h-153.6c-14.56 0-26.406 11.846-26.406 26.407s11.846 26.407 26.406 26.407c14.561 0 26.407-11.846 26.407-26.407 0-4.267 3.459-7.726 7.726-7.726s7.726 3.459 7.726 7.726c.001 23.083-18.777 41.861-41.859 41.861z" fill="#ddeafb"/></g></g><g><g><path d="m41.86 335.453h-34.134c-4.268 0-7.726-3.459-7.726-7.726 0-4.268 3.459-7.727 7.726-7.727h34.134c4.268 0 7.726 3.459 7.726 7.726.001 4.268-3.458 7.727-7.726 7.727z" fill="#cbe2ff"/></g></g><g><g><path d="m485.593 143.453h-100.267c-4.268 0-7.726-3.459-7.726-7.726s3.459-7.726 7.726-7.726h100.267c4.268 0 7.726 3.459 7.726 7.726s-3.459 7.726-7.726 7.726z" fill="#ddeafb"/></g></g><path d="m436.526 71.726c17.972 0 32.483-14.815 31.988-32.899-.478-17.43-15.217-31.101-32.653-31.101h-310.105c-17.684 0-32.55 14.048-32.695 31.732-.107 13.104 7.665 24.402 18.861 29.451.533.24.883.759.883 1.343 0 .814-.66 1.474-1.474 1.474h-19.739c-17.437 0-32.176 13.671-32.653 31.101-.496 18.084 14.016 32.899 31.988 32.899h20.404c.814 0 1.474.66 1.474 1.474 0 .584-.35 1.103-.883 1.343-11.197 5.048-18.969 16.346-18.861 29.451.145 17.684 15.011 31.732 32.695 31.732h36.351c.865 0 1.567.702 1.567 1.567 0 .613-.364 1.158-.919 1.418-10.923 5.093-18.495 16.169-18.495 29.015 0 13.395 8.233 24.862 19.912 29.631.465.19.775.634.775 1.137 0 .681-.552 1.232-1.232 1.232h-37.989c-17.437 0-32.176 13.671-32.653 31.101-.496 18.084 14.016 32.899 31.988 32.899h72.616c.7 0 1.267.567 1.267 1.267 0 .515-.316.97-.791 1.167-11.597 4.807-19.758 16.23-19.758 29.566s8.161 24.759 19.758 29.566c.476.197.791.652.791 1.167 0 .7-.567 1.267-1.267 1.267h-20.75c-17.436 0-32.175 13.671-32.653 31.101-.496 18.084 14.016 32.899 31.988 32.899h47.829c.613 0 1.109.497 1.109 1.109 0 .459-.287.863-.715 1.028-12.265 4.731-20.886 16.795-20.476 30.82.508 17.41 15.252 31.042 32.669 31.042h54.081c17.551 0 32.366-13.835 32.697-31.383.267-14.147-8.652-26.24-21.19-30.737-.386-.139-.647-.497-.647-.908 0-.537.435-.972.972-.972h13.763c17.589 0 32.424-13.893 32.703-31.48.225-14.184-8.782-26.289-21.402-30.716-.373-.131-.625-.476-.625-.872 0-.515.417-.932.932-.932h39.633c17.436 0 32.176-13.671 32.653-31.101.496-18.084-14.016-32.899-31.988-32.899h-23.299c-.508 0-.921-.412-.921-.921 0-.391.25-.733.619-.861 12.497-4.356 21.467-16.236 21.467-30.218s-8.97-25.862-21.467-30.218c-.369-.129-.619-.47-.619-.861 0-.509.412-.921.921-.921h56.766c17.437 0 32.176-13.671 32.653-31.101.496-18.084-14.016-32.899-31.988-32.899h-7.311c-.69 0-1.25-.56-1.25-1.25 0-.553.367-1.031.896-1.191 13.083-3.973 22.598-15.159 22.598-29.559 0-13.622-8.513-25.251-20.508-29.869-.427-.165-.714-.567-.714-1.025 0-.61.495-1.105 1.105-1.105h20.437c17.829 0 32.794-14.257 32.746-32.087-.038-14.378-9.541-25.507-22.597-29.472-.529-.161-.897-.639-.897-1.192 0-.69.56-1.25 1.25-1.25h8.379z" fill="#dad8db"/><g fill="#c8c5c9"><path d="m327.654 393.53c-.373-.131-.625-.476-.625-.872 0-.515.417-.932.932-.932h-23.694c-.515 0-.932.417-.932.932 0 .395.253.741.626.872 12.62 4.427 21.627 16.533 21.401 30.716-.279 17.587-15.114 31.48-32.703 31.48h-13.763c-.537 0-.972.435-.972.972 0 .41.26.769.647.908 12.538 4.498 21.457 16.591 21.19 30.738-.331 17.548-15.146 31.383-32.697 31.383h23.694c17.551 0 32.366-13.835 32.697-31.383.267-14.147-8.652-26.24-21.19-30.738-.386-.138-.647-.497-.647-.908 0-.537.435-.972.972-.972h13.763c17.589 0 32.424-13.893 32.703-31.48.225-14.183-8.783-26.288-21.402-30.716z"/><path d="m428.149 71.726h8.378c17.972 0 32.483-14.815 31.988-32.899-.478-17.43-15.217-31.101-32.653-31.101h-23.694c17.436 0 32.176 13.671 32.654 31.101.496 18.084-14.016 32.899-31.988 32.899h-8.378c-.69 0-1.25.56-1.25 1.25 0 .553.367 1.031.897 1.192 13.057 3.964 22.559 15.094 22.597 29.472.047 17.829-14.917 32.087-32.746 32.087h-20.437c-.61 0-1.105.495-1.105 1.105 0 .458.286.861.714 1.025 11.995 4.618 20.508 16.247 20.508 29.869 0 14.4-9.514 25.586-22.598 29.559-.529.161-.896.638-.896 1.191 0 .69.56 1.25 1.25 1.25h7.311c17.972 0 32.483 14.815 31.988 32.899-.478 17.43-15.217 31.101-32.654 31.101h23.694c17.437 0 32.176-13.671 32.653-31.101.496-18.084-14.016-32.899-31.988-32.899h-7.311c-.69 0-1.25-.56-1.25-1.25 0-.553.367-1.031.896-1.191 13.083-3.973 22.598-15.159 22.598-29.559 0-13.622-8.513-25.251-20.508-29.869-.427-.165-.714-.567-.714-1.025 0-.61.495-1.105 1.105-1.105h20.437c17.829 0 32.794-14.257 32.746-32.087-.038-14.378-9.541-25.508-22.597-29.472-.529-.161-.897-.639-.897-1.192 0-.69.559-1.25 1.25-1.25z"/><path d="m368.26 327.726h-23.299c-.508 0-.921-.412-.921-.921 0-.391.25-.733.619-.862 12.497-4.356 21.467-16.236 21.467-30.218s-8.97-25.862-21.467-30.218c-.369-.129-.619-.47-.619-.861 0-.508.412-.921.921-.921h-23.694c-.509 0-.921.412-.921.921 0 .391.25.733.619.861 12.497 4.356 21.467 16.236 21.467 30.218s-8.97 25.862-21.467 30.218c-.369.129-.619.471-.619.862 0 .508.412.921.921.921h23.299c17.972 0 32.483 14.815 31.988 32.899-.478 17.43-15.217 31.101-32.653 31.101h23.694c17.436 0 32.175-13.671 32.653-31.101.495-18.083-14.016-32.899-31.988-32.899z"/></g><g><path d="m417.326 434.393c0-18.851 15.282-34.133 34.133-34.133h25.6c4.713 0 8.533 3.821 8.533 8.533v25.6c0 18.851-15.282 34.133-34.133 34.133h-34.133z" fill="#b3e59f"/><g><path d="m400.26 493.32c-1.977 0-3.955-.755-5.464-2.263-3.017-3.017-3.017-7.909 0-10.927l51.2-51.2c3.018-3.017 7.909-3.017 10.928 0 3.017 3.017 3.017 7.909 0 10.927l-51.2 51.2c-1.51 1.508-3.487 2.263-5.464 2.263z" fill="#f7e3c1"/></g><path d="m477.06 400.26h-23.694c4.713 0 8.533 3.821 8.533 8.533v25.6c0 18.851-15.282 34.133-34.133 34.133h23.694c18.851 0 34.133-15.282 34.133-34.133v-25.6c0-4.713-3.82-8.533-8.533-8.533z" fill="#95d6a4"/></g><g fill="#c8c5c9"><g><path d="m322.653 71.726c0-4.267-3.459-7.726-7.726-7.726h-210.713c2.307 1.983 4.899 3.643 7.708 4.909.533.24.883.759.883 1.343 0 .814-.66 1.474-1.474 1.474h-19.739c-8.025 0-15.474 2.901-21.229 7.726h244.563c4.268.001 7.727-3.458 7.727-7.726z"/><path d="m426.899 72.976c0-.69.56-1.25 1.25-1.25h8.378c7.964 0 15.244-2.913 20.844-7.726h-74.177c-4.268 0-7.726 3.459-7.726 7.726s3.459 7.726 7.726 7.726h55.055c-3.079-2.312-6.605-4.117-10.452-5.285-.531-.16-.898-.638-.898-1.191z"/><path d="m169.052 135.726c0-4.267-3.459-7.726-7.726-7.726h-91.244c5.6 4.813 12.88 7.726 20.844 7.726h20.404c.814 0 1.474.66 1.474 1.474 0 .584-.35 1.103-.883 1.343-2.808 1.266-5.401 2.926-7.708 4.909h57.112c4.269.001 7.727-3.458 7.727-7.726z"/><path d="m322.653 199.726c0-4.267-3.459-7.726-7.726-7.726h-210.403c5.754 4.821 13.2 7.726 21.232 7.726h36.351c.866 0 1.567.702 1.567 1.567 0 .613-.364 1.159-.919 1.418-2.666 1.243-5.128 2.847-7.333 4.742h159.505c4.267 0 7.726-3.459 7.726-7.727z"/><path d="m358.4 199.726c0 4.267 3.459 7.726 7.726 7.726h57.11c-5.6-4.813-12.88-7.726-20.844-7.726h-7.311c-.69 0-1.25-.56-1.25-1.25 0-.553.367-1.031.896-1.191 3.845-1.168 7.369-2.973 10.446-5.285h-39.048c-4.266 0-7.725 3.459-7.725 7.726z"/><path d="m220.253 263.726c0-4.267-3.459-7.726-7.726-7.726h-57.081c2.588 2.22 5.52 4.048 8.726 5.358.465.19.775.634.775 1.137 0 .681-.552 1.232-1.232 1.232h-37.989c-8.025 0-15.474 2.901-21.229 7.726h108.03c4.267 0 7.726-3.459 7.726-7.727z"/><path d="m256 263.726c0 4.267 3.459 7.726 7.726 7.726h91.229c-3.002-2.577-6.482-4.615-10.296-5.944-.369-.129-.619-.47-.619-.861 0-.508.412-.921.921-.921h56.766c8.025 0 15.474-2.901 21.229-7.726h-159.23c-4.267 0-7.726 3.459-7.726 7.726z"/><path d="m307.2 327.726c0 4.267 3.459 7.726 7.726 7.726h74.177c-5.6-4.813-12.88-7.726-20.844-7.726h-23.299c-.508 0-.921-.412-.921-.921 0-.391.25-.733.619-.862 3.814-1.329 7.294-3.367 10.296-5.944h-40.029c-4.266.001-7.725 3.46-7.725 7.727z"/><path d="m271.453 327.726c0-4.267-3.459-7.726-7.726-7.726h-159.511c5.6 4.813 12.88 7.726 20.844 7.726h72.616c.7 0 1.267.567 1.267 1.267 0 .515-.316.97-.791 1.167-3.146 1.304-6.026 3.109-8.572 5.292h74.147c4.267.001 7.726-3.458 7.726-7.726z"/><path d="m271.453 455.726c0-4.267-3.459-7.726-7.726-7.726h-108.311c5.6 4.813 12.88 7.726 20.844 7.726h47.829c.613 0 1.109.496 1.109 1.109 0 .459-.287.863-.715 1.028-3.43 1.323-6.56 3.236-9.302 5.589h48.546c4.267.001 7.726-3.459 7.726-7.726z"/><path d="m271.453 391.726c0-4.267-3.459-7.726-7.726-7.726h-74.147c2.546 2.184 5.426 3.988 8.572 5.292.476.197.791.652.791 1.167 0 .7-.567 1.267-1.267 1.267h-20.75c-8.025 0-15.474 2.901-21.229 7.726h108.03c4.267.001 7.726-3.458 7.726-7.726z"/><path d="m290.134 391.726c0 4.267 3.459 7.726 7.726 7.726h40.02c-2.985-2.561-6.438-4.593-10.226-5.922-.373-.131-.625-.476-.625-.872 0-.515.417-.932.932-.932h39.633c8.025 0 15.474-2.901 21.229-7.726h-90.963c-4.267 0-7.726 3.459-7.726 7.726z"/></g><path d="m397.21 135.726h20.437c8.041 0 15.493-2.907 21.254-7.726h-209.308c-4.268 0-7.726 3.459-7.726 7.726s3.459 7.726 7.726 7.726h176.548c-2.747-2.357-5.885-4.272-9.322-5.596-.427-.165-.714-.567-.714-1.025 0-.61.495-1.105 1.105-1.105z"/></g></g></svg>