<svg id="Capa_1" enable-background="new 0 0 512 512" height="512" viewBox="0 0 512 512" width="512" xmlns="http://www.w3.org/2000/svg"><g><g><path d="m138.338 385.681h235.323v101.36h-235.323z" fill="#ecf4ff"/><path d="m171.956 385.681h33.618v101.36h-33.618z" fill="#d19a6e"/><path d="m350.325 385.681h23.336v101.36h-23.336z" fill="#ddeafb"/></g><g><g><path d="m54.295 494.532c-4.203 0-7.61-3.406-7.61-7.61v-67.506c0-4.203 3.407-7.61 7.61-7.61s7.61 3.406 7.61 7.61v67.506c-.001 4.203-3.408 7.61-7.61 7.61z" fill="#d19a6e"/></g><path d="m37.486 411.147c0 9.283 7.526 16.809 16.809 16.809s16.809-7.526 16.809-16.809v-33.617c0-9.283-7.526-16.809-16.809-16.809s-16.809 7.526-16.809 16.809z" fill="#b3e59f"/></g><g><g><path d="m457.706 494.532c-4.203 0-7.61-3.406-7.61-7.61v-67.506c0-4.203 3.407-7.61 7.61-7.61s7.61 3.406 7.61 7.61v67.506c-.001 4.203-3.408 7.61-7.61 7.61z" fill="#d19a6e"/></g><path d="m440.897 411.147c0 9.283 7.526 16.809 16.809 16.809s16.809-7.526 16.809-16.809v-33.617c0-9.283-7.526-16.809-16.809-16.809s-16.809 7.526-16.809 16.809z" fill="#b3e59f"/></g><path d="m272.809 444.765c0-9.283-7.526-16.809-16.809-16.809s-16.809 7.526-16.809 16.809v42.276h33.618z" fill="#cbe2ff"/><path d="m104.246 158.768h-8.78c-3.992 0-7.432-2.81-8.226-6.723-3.115-15.345-16.681-26.895-32.945-26.895-16.626 0-30.432 12.069-33.137 27.924-.528 3.095-2.748 5.55-5.731 6.531-6.954 2.285-11.906 8.985-11.539 16.785.426 9.041 8.214 15.996 17.264 15.996h83.569c9.553 0 17.244-7.969 16.79-17.621-.426-9.042-8.214-15.997-17.265-15.997z" fill="#ecf4ff"/><path d="m104.246 158.768h-8.78c-3.992 0-7.432-2.81-8.226-6.723-3.115-15.345-16.681-26.895-32.945-26.895-4.102 0-8.032.738-11.667 2.083 10.774 3.988 18.947 13.339 21.276 24.812.794 3.912 4.234 6.723 8.226 6.723h8.78c9.051 0 16.839 6.955 17.264 15.996.455 9.652-7.237 17.621-16.79 17.621h23.336c9.553 0 17.244-7.969 16.789-17.621-.424-9.041-8.212-15.996-17.263-15.996z" fill="#ddeafb"/><path d="m407.754 41.354h8.78c3.992 0 7.432-2.81 8.226-6.723 3.115-15.345 16.681-26.895 32.945-26.895 16.626 0 30.432 12.069 33.137 27.924.528 3.095 2.748 5.55 5.731 6.53 6.954 2.285 11.906 8.985 11.539 16.785-.426 9.041-8.214 15.996-17.264 15.996h-83.569c-9.553 0-17.244-7.969-16.79-17.621.426-9.04 8.214-15.996 17.265-15.996z" fill="#ecf4ff"/><path d="m496.574 42.19c-2.983-.98-5.203-3.435-5.731-6.531-2.705-15.855-16.512-27.923-33.137-27.923-4.103 0-8.034.737-11.669 2.083 11.095 4.107 19.433 13.898 21.471 25.841.528 3.095 2.748 5.55 5.731 6.531 6.954 2.285 11.906 8.985 11.539 16.785-.426 9.041-8.214 15.996-17.264 15.996h23.336c9.051 0 16.839-6.955 17.264-15.996.366-7.8-4.586-14.501-11.54-16.786z" fill="#ddeafb"/><g><path d="m171.956 218.196h168.088v63.157h-168.088z" fill="#ecf4ff"/><path d="m316.708 218.196h23.336v63.157h-23.336z" fill="#ddeafb"/><path d="m342.302 174.764 11.94 47.759c1.326 5.304-2.686 10.443-8.153 10.443h-180.178c-5.468 0-9.48-5.138-8.153-10.443l11.94-47.759c1.478-5.911 4.534-11.309 8.843-15.618 17.309-17.309 40.785-27.033 65.264-27.033h24.391c24.479 0 47.955 9.724 65.264 27.033 4.308 4.309 7.365 9.707 8.842 15.618z" fill="#ff8086"/><path d="m351.82 266.583h-191.64c-3.098 0-5.945 1.705-7.408 4.436l-48.05 89.702v6.697h302.558v-6.697l-48.05-89.702c-1.464-2.731-4.311-4.436-7.41-4.436z" fill="#ff8086"/><g fill="#e5646e"><path d="m354.242 222.523-11.94-47.759c-1.478-5.911-4.534-11.309-8.843-15.618-17.309-17.309-40.785-27.033-65.264-27.033h-23.336c24.479 0 47.955 9.724 65.264 27.033 4.308 4.308 7.365 9.707 8.843 15.618l11.94 47.759c1.326 5.304-2.686 10.443-8.154 10.443h23.336c5.468 0 9.48-5.139 8.154-10.443z"/><path d="m359.229 271.019c-1.463-2.731-4.31-4.436-7.409-4.436h-23.336c3.098 0 5.945 1.705 7.408 4.436l48.05 89.702v6.697h23.336v-6.697z"/></g></g><path d="m399.279 394.339h-286.558c-4.418 0-8-3.582-8-8v-25.618h302.558v25.618c0 4.418-3.582 8-8 8z" fill="#e5646e"/><path d="m383.943 360.721v25.501c0 4.483-3.634 8.117-8.117 8.117h23.336c4.483 0 8.117-3.634 8.117-8.117v-25.501z" fill="#dd5862"/><path d="m492.132 512h-472.264c-8.837 0-16-7.163-16-16v-9.618c0-4.418 3.582-8 8-8h488.264c4.418 0 8 3.582 8 8v9.618c0 8.837-7.164 16-16 16z" fill="#f5e1c1"/><path d="m500.015 478.383h-23.336c4.483 0 8.117 3.634 8.117 8.117v9.267c0 8.965-7.268 16.234-16.234 16.234h23.336c8.966 0 16.234-7.268 16.234-16.234v-9.267c0-4.484-3.634-8.117-8.117-8.117z" fill="#f0cea5"/><g><g><g><path d="m262.065 194.837c-1.947 0-3.895-.743-5.381-2.228-2.972-2.973-2.972-7.79 0-10.762l34.968-34.968c2.973-2.97 7.79-2.97 10.763 0 2.971 2.973 2.971 7.79 0 10.762l-34.968 34.968c-1.487 1.485-3.435 2.228-5.382 2.228z" fill="#966a5b"/></g><path d="m286.28 152.259 94.53-94.53c6.248-6.248 16.379-6.248 22.627 0l12.458 12.458-105.843 105.843z" fill="#6e4848"/><path d="m433.925 88.219-18.032-18.031c-2.97-2.971-7.789-2.971-10.762 0l-95.084 95.084c-2.971 2.973-2.971 7.79 0 10.762l18.031 18.033c3.067 3.066 7.093 4.598 11.121 4.598 4.026 0 8.055-1.534 11.12-4.598l83.607-83.607c6.131-6.132 6.131-16.109-.001-22.241zm-47.183 47.901-13.009-13.009 13.009-13.009 13.01 13.01zm-23.771 23.771-13.009-13.009 13.009-13.009 13.009 13.009zm-23.414 23.413c-.195.197-.519.198-.716.001l-12.651-12.652 13.009-13.009 13.009 13.009zm83.607-83.605-12.65 12.65-13.01-13.01 13.009-13.009 12.651 12.65c.198.199.198.522 0 .719z" fill="#785353"/></g><g><g><path d="m270.115 178.252c0 1.947-.743 3.895-2.228 5.381-2.972 2.972-7.79 2.972-10.762 0l-36.762-36.762c-2.97-2.973-2.97-7.79 0-10.762 2.973-2.971 7.79-2.971 10.763 0l36.762 36.762c1.483 1.486 2.227 3.434 2.227 5.381z" fill="#966a5b"/></g><path d="m225.743 152.243-94.53-94.53c-6.248-6.248-6.248-16.379 0-22.627l12.458-12.458 105.844 105.844z" fill="#6e4848"/><path d="m161.703 4.599-18.031 18.032c-2.971 2.97-2.971 7.789 0 10.761l95.084 95.085c2.973 2.971 7.79 2.971 10.761 0l18.033-18.031c3.066-3.067 4.598-7.093 4.598-11.121 0-4.026-1.534-8.055-4.598-11.12l-83.606-83.607c-6.132-6.131-16.109-6.131-22.241.001zm47.901 47.183-13.009 13.009-13.009-13.009 13.01-13.009zm23.771 23.771-13.009 13.009-13.009-13.009 13.009-13.01zm23.414 23.414c.197.195.198.519.001.716l-12.652 12.651-13.009-13.009 13.009-13.009zm-83.606-83.607 12.65 12.651-13.01 13.01-13.009-13.009 12.65-12.651c.199-.199.522-.199.719-.001z" fill="#785353"/></g><g><g><path d="m244.082 188.995c0-1.947.743-3.895 2.228-5.381 2.973-2.971 7.79-2.971 10.762 0l34.571 34.571c2.97 2.973 2.97 7.79 0 10.762-2.973 2.971-7.79 2.971-10.763 0l-34.571-34.571c-1.484-1.487-2.227-3.435-2.227-5.381z" fill="#966a5b"/></g><path d="m286.262 212.812 94.53 94.53c6.248 6.248 6.248 16.379 0 22.628l-12.458 12.458-105.843-105.844z" fill="#6e4848"/><path d="m350.303 360.457 18.031-18.032c2.971-2.97 2.971-7.789 0-10.762l-95.085-95.084c-2.973-2.971-7.79-2.971-10.761 0l-18.033 18.031c-3.066 3.067-4.598 7.093-4.598 11.121 0 4.026 1.534 8.055 4.598 11.12l83.607 83.607c6.132 6.131 16.108 6.131 22.241-.001zm-47.902-47.183 13.009-13.009 13.009 13.009-13.01 13.009zm-23.771-23.771 13.009-13.009 13.009 13.009-13.009 13.009zm-23.413-23.414c-.197-.195-.198-.519-.001-.716l12.652-12.651 13.009 13.009-13.009 13.009zm83.606 83.607-12.651-12.65 13.01-13.01 13.009 13.009-12.65 12.651c-.198.198-.521.198-.718 0z" fill="#785353"/></g><g><g><path d="m251.913 168.258c1.947 0 3.895.743 5.381 2.228 2.972 2.973 2.972 7.79 0 10.762l-36.946 36.946c-2.973 2.971-7.79 2.971-10.762 0-2.972-2.973-2.972-7.79 0-10.762l36.946-36.946c1.486-1.485 3.434-2.228 5.381-2.228z" fill="#966a5b"/></g><path d="m225.72 212.813-94.53 94.53c-6.248 6.248-16.379 6.248-22.627 0l-12.457-12.458 105.843-105.843z" fill="#6e4848"/><path d="m78.076 276.853 18.032 18.031c2.971 2.971 7.789 2.971 10.761 0l95.084-95.084c2.972-2.972 2.972-7.79 0-10.761l-18.031-18.033c-3.067-3.066-7.093-4.598-11.121-4.598-4.026 0-8.055 1.534-11.12 4.598l-83.607 83.607c-6.13 6.131-6.13 16.108.002 22.24zm47.183-47.901 13.009 13.009-13.008 13.009-13.009-13.01zm23.771-23.771 13.009 13.009-13.009 13.009-13.009-13.009zm23.414-23.413c.195-.197.519-.198.716-.001l12.651 12.652-13.009 13.009-13.009-13.009zm-83.607 83.606 12.65-12.65 13.01 13.01-13.009 13.009-12.651-12.65c-.198-.199-.198-.522 0-.719z" fill="#785353"/></g></g><circle cx="256" cy="182.539" fill="#ffe07d" r="16.809"/></g></svg>