<svg id="Capa_1" enable-background="new 0 0 512 512" height="512" viewBox="0 0 512 512" width="512" xmlns="http://www.w3.org/2000/svg"><g><path d="m273.07 17.067c0-9.426-7.64-17.067-17.066-17.067-9.425 0-17.067 7.641-17.067 17.067v426.667c0 37.643 30.624 68.267 68.267 68.267s68.267-30.624 68.267-68.267v-17.067c0-9.426-7.641-17.067-17.067-17.067s-17.067 7.641-17.067 17.067v17.067c0 18.821-15.312 34.133-34.133 34.133s-34.133-15.312-34.133-34.133v-426.667z" fill="#dad8db"/><g fill="#c8c5c9"><path d="m249.346 17.067v426.667c0 18.821 15.313 34.133 34.133 34.133 4.169 0 8.165-.754 11.862-2.129-12.99-4.831-22.271-17.353-22.271-32.004v-426.667c0-9.426-7.64-17.067-17.066-17.067-4.613 0-8.79 1.838-11.862 4.812 3.204 3.102 5.204 7.441 5.204 12.255z"/><path d="m358.404 409.6c-4.613 0-8.791 1.838-11.862 4.811 3.205 3.103 5.204 7.442 5.204 12.256v17.067c0 33.595-24.4 61.58-56.405 67.214 3.856.679 7.815 1.053 11.862 1.053 37.643 0 68.267-30.624 68.267-68.267v-17.067c.001-9.426-7.64-17.067-17.066-17.067z"/></g><path d="m341.36 290.134c1.376 0 2.649-.688 3.44-1.814 17.205-24.503 46.34-40.853 81.914-40.853 35.864 0 63.118 16.618 80.201 41.454.52.755 1.37 1.213 2.287 1.213 1.544 0 2.803-1.261 2.786-2.804-1.502-140.094-115.535-253.197-255.984-253.197h-.008c-140.449 0-254.482 113.103-255.985 253.197-.016 1.543 1.243 2.804 2.787 2.804.917 0 1.768-.457 2.287-1.213 17.083-24.836 44.337-41.454 80.201-41.454 35.574 0 64.709 16.35 81.914 40.853.791 1.126 2.064 1.814 3.44 1.814l85.36-113.458z" fill="#ff8086"/><path d="m238.937 384.807v15.453h34.133v-15.453z" fill="#b6b1b7"/><path d="m170.67 290.132c1.365-.01 2.627-.694 3.412-1.813 17.205-24.502 46.34-40.853 81.914-40.853h.007c35.574 0 64.709 16.35 81.914 40.853.787 1.121 2.052 1.806 3.42 1.813 0-141.384-38.205-255.999-85.333-255.999s-85.333 114.615-85.334 255.999z" fill="#ffe07d"/><path d="m256.004 34.133h-.008c-3.971 0-7.917.103-11.843.282 128.45 5.851 232.225 106.35 243.197 233.401 7.535 6.004 14.077 13.127 19.565 21.105.52.755 1.37 1.213 2.288 1.213 1.543-.001 2.803-1.261 2.786-2.804-1.503-140.094-115.536-253.197-255.985-253.197z" fill="#e5646e"/><path d="m256.004 34.133c-4.021 0-7.974.854-11.847 2.468 39.029 16.265 69.609 111.707 73.139 230.516 8.028 5.998 14.971 13.157 20.621 21.203.787 1.121 2.052 1.806 3.42 1.813 0-141.385-38.205-256-85.333-256z" fill="#ffd064"/></g></svg>