<svg id="Capa_1" enable-background="new 0 0 512 512" height="512" viewBox="0 0 512 512" width="512" xmlns="http://www.w3.org/2000/svg"><g><path d="m491.298 426.671c2.326-4.613 3.635-9.826 3.635-15.345 0-11.256-5.45-21.236-13.854-27.453-2.291-1.694-3.435-4.473-3.248-7.316.024-.36.036-.724.036-1.09 0-7.652-5.036-14.128-11.975-16.294-2.954-.922-5.058-3.491-5.578-6.541-2.741-16.104-16.763-28.365-33.648-28.365h-9.443v108.409h73.143z" fill="#ddeafb"/><path d="m481.079 383.872c-2.291-1.694-3.436-4.473-3.248-7.316.024-.36.036-.724.036-1.09 0-7.652-5.036-14.128-11.975-16.294-2.954-.922-5.058-3.491-5.577-6.541-2.741-16.104-16.763-28.365-33.648-28.365h-9.443v3.116c10.057 4.629 17.482 13.997 19.397 25.248.519 3.05 2.624 5.619 5.577 6.541 6.938 2.166 11.975 8.642 11.975 16.294 0 .366-.012.73-.036 1.09-.187 2.843.957 5.621 3.248 7.316 8.404 6.217 13.854 16.197 13.854 27.453 0 5.519-1.31 10.732-3.635 15.345l-.932 6.005h23.694l.932-6.005c2.326-4.613 3.635-9.826 3.635-15.345 0-11.254-5.45-21.235-13.854-27.452z" fill="#cbe2ff"/><g><path d="m153.6 113.817-68.267 68.267v-136.241h68.267z" fill="#f5e1c1"/><path d="m129.968 137.45 23.632-23.633v-67.974h-23.632z" fill="#f0cea5"/><path d="m162.667 51.2h-86.4c-4.418 0-8-3.582-8-8v-18.133c0-4.418 3.582-8 8-8h86.4c4.418 0 8 3.582 8 8v18.133c0 4.418-3.582 8-8 8z" fill="#ff8086"/><path d="m162.425 17.067h-23.694c4.552 0 8.242 3.69 8.242 8.241v17.65c0 4.552-3.69 8.242-8.242 8.242h23.694c4.552 0 8.242-3.69 8.242-8.242v-17.65c0-4.551-3.69-8.241-8.242-8.241z" fill="#e5646e"/></g><g><g><path d="m85.333 197.966 170.667-175.13 170.667 175.13v246.138h-341.334z" fill="#f5e1c1"/></g><path d="m315.733 444.104v-145.437c0-4.713-3.82-8.533-8.533-8.533h-102.4c-4.713 0-8.533 3.82-8.533 8.533v145.067z" fill="#d19a6e"/><path d="m402.973 173.652v270.452h23.694v-246.137z" fill="#f0cea5"/><path d="m307.2 290.133h-23.694c4.713 0 8.533 3.82 8.533 8.533v145.364l23.694.073v-145.437c0-4.712-3.82-8.533-8.533-8.533z" fill="#c38c66"/></g><path d="m322.153 204.657c-6.136 24.057-25.049 43.006-49.086 49.193l-34.125.002c-23.991-6.171-42.879-25.056-49.056-49.044l-.023-34.058c6.152-24.028 25.054-42.95 49.07-49.132l34.128-.002c24.041 6.185 42.957 25.137 49.093 49.197z" fill="#ecf4ff"/><path d="m256 119.467c-4.043 0-7.997.371-11.847 1.046 32.052 5.612 56.419 33.561 56.419 67.221s-24.367 61.609-56.419 67.221c3.85.674 7.804 1.046 11.847 1.046 37.703 0 68.267-30.564 68.267-68.267s-30.564-68.267-68.267-68.267z" fill="#ddeafb"/><path d="m273.067 121.617c-5.455-1.404-11.174-2.151-17.067-2.151s-11.612.747-17.067 2.151v49.049h-49.049c-1.404 5.455-2.151 11.174-2.151 17.067s.747 11.612 2.151 17.067h49.049v49.049c5.455 1.404 11.174 2.151 17.067 2.151s11.612-.747 17.067-2.151v-49.049h49.049c1.404-5.455 2.151-11.173 2.151-17.067 0-5.893-.747-11.612-2.151-17.067h-49.049z" fill="#5c545f"/><g fill="#ecf4ff"><ellipse cx="34.131" cy="273.066" rx="17.067" ry="17.067" transform="matrix(.707 -.707 .707 .707 -183.09 104.113)"/><ellipse cx="477.876" cy="273.103" rx="17.066" ry="17.066"/><ellipse cx="477.863" cy="136.535" rx="17.067" ry="17.067" transform="matrix(.707 -.707 .707 .707 43.418 377.89)"/><ellipse cx="34.128" cy="136.542" rx="17.066" ry="17.066"/><ellipse cx="477.863" cy="34.136" rx="17.067" ry="17.067" transform="matrix(.707 -.707 .707 .707 115.825 347.899)"/><ellipse cx="375.464" cy="34.135" rx="17.067" ry="17.067" transform="matrix(.707 -.707 .707 .707 85.834 275.491)"/></g><g><path d="m281.6 366.127h-8.533c-4.268 0-7.726-3.459-7.726-7.726s3.459-7.726 7.726-7.726h8.533c4.268 0 7.726 3.459 7.726 7.726s-3.459 7.726-7.726 7.726z" fill="#c38c66"/></g><g><path d="m442.698 231.436-180.664-180.664c-3.332-3.332-8.736-3.332-12.068 0l-180.664 180.664c-3.332 3.332-8.735 3.332-12.068 0l-12.067-12.068c-3.333-3.333-3.333-8.736 0-12.068l204.8-204.801c3.332-3.332 8.736-3.332 12.068 0l204.8 204.801c3.332 3.332 3.332 8.735 0 12.068l-12.068 12.068c-3.333 3.332-8.736 3.332-12.069 0z" fill="#ff8086"/></g><path d="m466.834 207.3-204.8-204.801c-3.332-3.332-8.736-3.332-12.068 0l-5.813 5.813 198.987 198.988c3.333 3.332 3.333 8.736 0 12.068l-6.254 6.255 5.813 5.813c3.332 3.332 8.736 3.332 12.068 0l12.068-12.068c3.331-3.332 3.331-8.736-.001-12.068z" fill="#e5646e"/><g fill="#4b3f4e"><path d="m244.153 120.512c10.705 1.874 20.545 6.251 28.914 12.489v-11.384c-5.455-1.404-11.173-2.151-17.067-2.151-4.043.001-7.997.372-11.847 1.046z"/><path d="m322.116 204.8c1.404-5.455 2.151-11.174 2.151-17.067s-.747-11.612-2.151-17.067h-23.711c1.406 5.456 2.168 11.171 2.168 17.067s-.762 11.61-2.168 17.067z"/><path d="m273.067 253.849v-11.384c-8.369 6.238-18.209 10.615-28.914 12.489 3.85.674 7.804 1.046 11.847 1.046 5.893 0 11.612-.747 17.067-2.151z"/></g><g><path d="m503.467 426.667c4.713 0 8.533 3.82 8.533 8.533v59.733c0 9.426-7.641 17.067-17.067 17.067h-477.866c-9.426 0-17.067-7.641-17.067-17.067v-59.733c0-4.713 3.82-8.533 8.533-8.533z" fill="#ecf4ff"/><path d="m503.467 426.666h-23.763c4.713 0 8.534 3.821 8.534 8.533v59.733c0 9.426-7.641 17.067-17.067 17.067h23.763c9.426 0 17.067-7.641 17.067-17.067v-59.732c-.001-4.713-3.821-8.534-8.534-8.534z" fill="#ddeafb"/></g><g><path d="m409.6 485.592c-4.268 0-7.726-3.459-7.726-7.726 0-9.855-8.018-17.873-17.873-17.873s-17.873 8.018-17.873 17.873c0 4.268-3.459 7.726-7.726 7.726-4.268 0-7.726-3.459-7.726-7.726 0-18.376 14.95-33.326 33.326-33.326s33.326 14.95 33.326 33.326c-.002 4.268-3.461 7.726-7.728 7.726z" fill="#ddeafb"/></g><g><path d="m469.333 485.592h-25.6c-4.268 0-7.726-3.459-7.726-7.726 0-5.15-4.19-9.34-9.34-9.34-5.151 0-9.341 4.19-9.341 9.34 0 4.268-3.459 7.726-7.726 7.726-4.268 0-7.726-3.459-7.726-7.726 0-13.671 11.123-24.793 24.794-24.793 10.974 0 20.306 7.167 23.56 17.066h19.106c4.268 0 7.726 3.459 7.726 7.726-.001 4.269-3.459 7.727-7.727 7.727z" fill="#ddeafb"/></g><path d="m210.341 401.429c-.926-.12-1.736-.645-2.233-1.435-6.039-9.606-16.724-15.994-28.908-15.994-1.195 0-2.375.064-3.537.186-1.225.128-2.377-.528-2.935-1.626-9.867-19.399-30.006-32.694-53.261-32.694-29.672 0-54.27 21.641-58.92 49.997-.166 1.012-.474 1.996-.952 2.904-.833 1.585-2.115 2.883-3.676 3.761-13 7.31-21.786 21.228-21.786 37.205h213.333c.001-21.685-16.179-39.586-37.125-42.304z" fill="#ecf4ff"/><g fill="#ddeafb"><path d="m59.595 402.767c-.813 1.546-2.057 2.812-3.566 3.689 4.743-1.964 9.935-3.054 15.379-3.054 22.239 0 40.332 18.093 40.332 40.332 0 4.268 3.459 7.726 7.726 7.726 4.268 0 7.726-3.459 7.726-7.726 0-30.76-25.025-55.785-55.785-55.785-2.65 0-5.253.198-7.806.557-1.371 3.633-2.412 7.427-3.056 11.357-.164 1.012-.473 1.996-.95 2.904z"/><path d="m210.341 401.43c-.926-.12-1.736-.645-2.233-1.436-6.039-9.606-16.724-15.994-28.908-15.994-1.195 0-2.375.064-3.537.186-1.225.128-2.377-.528-2.935-1.626-9.867-19.399-30.006-32.694-53.261-32.694-4.054 0-8.008.417-11.835 1.187 18.114 3.652 33.258 15.496 41.402 31.507.558 1.098 1.71 1.754 2.935 1.626 1.163-.122 2.342-.186 3.537-.186 12.184 0 22.869 6.388 28.908 15.994.497.79 1.307 1.315 2.233 1.436 20.946 2.717 37.125 20.618 37.125 42.304h23.694c.001-21.687-16.179-39.587-37.125-42.304z"/></g></g></svg>