<svg id="Capa_1" enable-background="new 0 0 512 512" height="512" viewBox="0 0 512 512" width="512" xmlns="http://www.w3.org/2000/svg"><g><g><g><path d="m43.2 512h-18.133c-4.418 0-8-3.582-8-8v-391.36h34.133v391.36c0 4.418-3.582 8-8 8z" fill="#dad8db"/><path d="m27.506 112.64v391.118c0 3.484-2.165 6.456-5.219 7.662.937.37 1.954.579 3.022.579h17.65c4.552 0 8.241-3.69 8.241-8.241v-391.118z" fill="#c8c5c9"/><path d="m60.267 128h-52.267c-4.418 0-8-3.582-8-8v-35.2c0-4.418 3.582-8 8-8h52.267c4.418 0 8 3.582 8 8v35.2c0 4.418-3.582 8-8 8z" fill="#5c545f"/><path d="m60.025 76.8h-23.694c4.552 0 8.241 3.69 8.241 8.241v34.717c0 4.551-3.69 8.241-8.241 8.241h23.694c4.552 0 8.242-3.69 8.242-8.241v-34.717c0-4.551-3.69-8.241-8.242-8.241z" fill="#4b3f4e"/></g><g><path d="m497.918 48.699-38.904-6.91v121.221l38.903-6.909c8.147-1.447 14.083-8.529 14.083-16.804v-73.795c0-8.274-5.935-15.356-14.082-16.803z" fill="#ff8086"/><g fill="#ff8086"><path d="m308.986 15.141-77.492-13.764v202.037l77.492-13.762z"/><path d="m356.614 23.601v157.593l54.772-9.726v-138.139z"/></g><path d="m497.918 48.699-22.324-3.965c7.433 1.957 12.712 8.695 12.712 16.497v82.245c0 8.274-5.936 15.357-14.082 16.804l23.694-4.178c8.147-1.447 14.083-8.529 14.083-16.804v-73.796c-.001-8.274-5.936-15.356-14.083-16.803z" fill="#e5646e"/><path d="m358.4 23.918v156.959l-51.2 9.093v-175.147z" fill="#f8fbff"/><path d="m460.8 42.106v120.586l-51.2 9.093v-138.773z" fill="#f8fbff"/><path d="m187.733 170.667c0 18.851 15.282 34.133 34.133 34.133s34.133-15.282 34.133-34.133v-136.534c.001-18.851-15.281-34.133-34.132-34.133s-34.133 15.282-34.133 34.133v136.534z" fill="#e5646e"/><g><path d="m204.92 198.696c-1.78 0-3.567-.611-5.025-1.86l-102.524-88.57c-3.24-2.777-3.615-7.654-.838-10.894s7.654-3.615 10.894-.838l102.524 88.57c3.24 2.777 3.615 7.654.838 10.894-1.527 1.783-3.692 2.698-5.869 2.698z" fill="#ddeafb"/></g><g><path d="m256 110.126h-153.6c-4.267 0-7.726-3.459-7.726-7.726s3.459-7.726 7.726-7.726h153.6c4.267 0 7.726 3.459 7.726 7.726s-3.459 7.726-7.726 7.726z" fill="#ecf4ff"/></g><g><path d="m102.4 110.126h-34.133c-4.267 0-7.726-3.459-7.726-7.726s3.459-7.726 7.726-7.726h31.275l100.49-86.786c3.239-2.778 8.117-2.401 10.894.838 2.777 3.24 2.402 8.117-.838 10.894l-102.66 88.646c-1.4 1.2-3.184 1.86-5.028 1.86z" fill="#ecf4ff"/></g></g></g><g><path d="m290.133 366.126h-170.666c-4.267 0-7.726-3.459-7.726-7.726s3.459-7.726 7.726-7.726h170.667c14.561 0 26.407-11.846 26.407-26.407s-11.846-26.407-26.407-26.407-26.407 11.846-26.407 26.407c0 4.267-3.459 7.726-7.726 7.726s-7.726-3.459-7.726-7.726c0-23.082 18.778-41.86 41.86-41.86 23.081 0 41.86 18.778 41.86 41.86s-18.78 41.859-41.862 41.859z" fill="#ecf4ff"/></g><g><path d="m460.8 280.793h-102.4c-4.267 0-7.726-3.459-7.726-7.726s3.459-7.726 7.726-7.726h102.4c14.561 0 26.407-11.846 26.407-26.407s-11.846-26.407-26.407-26.407-26.407 11.846-26.407 26.407c0 4.267-3.459 7.726-7.726 7.726s-7.726-3.459-7.726-7.726c0-23.082 18.778-41.86 41.86-41.86s41.86 18.778 41.86 41.86c-.002 23.081-18.78 41.859-41.861 41.859z" fill="#cbe2ff"/></g><g><path d="m358.4 468.526c-23.081 0-41.86-18.778-41.86-41.86 0-4.267 3.459-7.726 7.726-7.726s7.726 3.459 7.726 7.726c0 14.561 11.846 26.407 26.407 26.407s26.407-11.846 26.407-26.407-11.846-26.407-26.407-26.407h-170.666c-4.267 0-7.726-3.459-7.726-7.726s3.459-7.726 7.726-7.726h170.667c23.082 0 41.86 18.778 41.86 41.86 0 23.081-18.779 41.859-41.86 41.859z" fill="#cbe2ff"/></g><g><path d="m119.467 273.067c0-18.851 15.282-34.133 34.133-34.133h25.6c4.713 0 8.533 3.82 8.533 8.533v25.6c0 18.851-15.282 34.133-34.133 34.133h-34.133z" fill="#b3e59f"/><g><path d="m102.4 331.993c-1.977 0-3.955-.755-5.464-2.263-3.017-3.017-3.017-7.91 0-10.927l51.2-51.2c3.018-3.017 7.909-3.017 10.928 0 3.017 3.017 3.017 7.909 0 10.927l-51.2 51.2c-1.509 1.508-3.487 2.263-5.464 2.263z" fill="#f7e3c1"/></g><path d="m179.2 238.933h-23.694c4.713 0 8.533 3.82 8.533 8.533v25.6c0 18.851-15.282 34.133-34.133 34.133h23.694c18.851 0 34.133-15.282 34.133-34.133v-25.6c0-4.712-3.82-8.533-8.533-8.533z" fill="#95d6a4"/></g><g><path d="m443.733 358.4c0-18.851 15.282-34.133 34.133-34.133h25.6c4.713 0 8.533 3.82 8.533 8.533v25.6c0 18.851-15.282 34.133-34.133 34.133h-34.133z" fill="#b3e59f"/><g><g><path d="m426.666 417.326c-1.977 0-3.955-.754-5.464-2.263-3.017-3.017-3.017-7.909 0-10.926l51.2-51.2c3.018-3.017 7.909-3.017 10.928 0 3.017 3.017 3.017 7.909 0 10.926l-51.2 51.2c-1.509 1.509-3.487 2.263-5.464 2.263z" fill="#f7e3c1"/></g></g><path d="m503.466 324.267h-23.694c4.713 0 8.533 3.82 8.533 8.533v25.6c0 18.851-15.282 34.133-34.133 34.133h23.694c18.851 0 34.133-15.282 34.133-34.133v-25.6c.001-4.713-3.82-8.533-8.533-8.533z" fill="#95d6a4"/></g></g></svg>