<svg id="Capa_1" enable-background="new 0 0 512 512" height="512" viewBox="0 0 512 512" width="512" xmlns="http://www.w3.org/2000/svg"><g><circle cx="256" cy="256" fill="#ffe07d" r="132.533"/><circle cx="256" cy="256" fill="#ffe07d" r="132.533"/><path d="m256 123.467c-3.875 0-7.709.176-11.5.502 67.81 5.83 121.033 62.711 121.033 132.031s-53.223 126.201-121.033 132.031c3.791.326 7.625.502 11.5.502 73.196 0 132.533-59.337 132.533-132.533s-59.337-132.533-132.533-132.533z" fill="#ffd064"/><g><path d="m256 97.834c-4.142 0-7.5-3.358-7.5-7.5v-82.834c0-4.142 3.358-7.5 7.5-7.5s7.5 3.358 7.5 7.5v82.834c0 4.142-3.358 7.5-7.5 7.5z" fill="#ffe07d"/></g><g><path d="m138.856 146.356c-1.92 0-3.839-.732-5.303-2.197l-58.572-58.572c-2.929-2.929-2.929-7.678 0-10.606 2.929-2.929 7.678-2.929 10.606 0l58.572 58.572c2.929 2.929 2.929 7.678 0 10.606-1.464 1.465-3.384 2.197-5.303 2.197z" fill="#ffe07d"/></g><g><path d="m90.334 263.5h-82.834c-4.142 0-7.5-3.358-7.5-7.5s3.358-7.5 7.5-7.5h82.834c4.142 0 7.5 3.358 7.5 7.5s-3.358 7.5-7.5 7.5z" fill="#ffe07d"/></g><g><path d="m80.284 439.216c-1.92 0-3.839-.732-5.303-2.197-2.929-2.929-2.929-7.678 0-10.606l58.572-58.572c2.929-2.929 7.678-2.929 10.606 0 2.929 2.929 2.929 7.678 0 10.607l-58.572 58.572c-1.464 1.463-3.383 2.196-5.303 2.196z" fill="#ffe07d"/></g><g><path d="m256 512c-4.142 0-7.5-3.358-7.5-7.5v-82.833c0-4.142 3.358-7.5 7.5-7.5s7.5 3.358 7.5 7.5v82.833c0 4.142-3.358 7.5-7.5 7.5z" fill="#ffe07d"/></g><g><path d="m431.716 439.216c-1.919 0-3.839-.732-5.303-2.197l-58.572-58.572c-2.929-2.929-2.929-7.678 0-10.607s7.678-2.929 10.606 0l58.572 58.572c2.929 2.929 2.929 7.678 0 10.606-1.464 1.465-3.384 2.198-5.303 2.198z" fill="#ffe07d"/></g><g><path d="m504.5 263.5h-82.833c-4.142 0-7.5-3.358-7.5-7.5s3.358-7.5 7.5-7.5h82.833c4.142 0 7.5 3.358 7.5 7.5s-3.358 7.5-7.5 7.5z" fill="#ffe07d"/></g><g><path d="m373.144 146.356c-1.919 0-3.839-.732-5.303-2.197-2.929-2.929-2.929-7.678 0-10.606l58.572-58.572c2.929-2.929 7.678-2.929 10.606 0 2.929 2.929 2.929 7.678 0 10.606l-58.572 58.572c-1.464 1.465-3.383 2.197-5.303 2.197z" fill="#ffe07d"/></g><g><path d="m192.605 110.446c-2.943 0-5.735-1.744-6.932-4.632l-15.85-38.264c-1.585-3.827.232-8.214 4.059-9.799 3.826-1.585 8.213.232 9.799 4.059l15.85 38.264c1.585 3.827-.232 8.214-4.059 9.799-.938.389-1.911.573-2.867.573z" fill="#fff0af"/></g><g><path d="m102.941 200.104c-.957 0-1.929-.184-2.867-.573l-38.264-15.85c-3.827-1.585-5.644-5.973-4.059-9.799 1.585-3.827 5.973-5.643 9.799-4.059l38.264 15.85c3.827 1.585 5.644 5.973 4.059 9.799-1.196 2.888-3.989 4.632-6.932 4.632z" fill="#fff0af"/></g><g><path d="m64.683 342.75c-2.943 0-5.736-1.744-6.932-4.632-1.585-3.827.232-8.214 4.059-9.799l38.264-15.85c3.827-1.585 8.214.233 9.799 4.059 1.585 3.827-.232 8.214-4.059 9.799l-38.264 15.85c-.938.388-1.91.573-2.867.573z" fill="#fff0af"/></g><g><path d="m176.749 454.822c-.956 0-1.929-.184-2.867-.573-3.827-1.585-5.644-5.973-4.059-9.799l15.85-38.264c1.585-3.827 5.974-5.644 9.799-4.059 3.827 1.585 5.644 5.973 4.059 9.799l-15.85 38.264c-1.196 2.888-3.989 4.632-6.932 4.632z" fill="#fff0af"/></g><g><path d="m335.25 454.822c-2.943 0-5.735-1.744-6.932-4.632l-15.85-38.264c-1.585-3.827.233-8.214 4.059-9.799s8.214.232 9.799 4.059l15.85 38.264c1.585 3.827-.232 8.214-4.059 9.799-.938.389-1.91.573-2.867.573z" fill="#fff0af"/></g><g><path d="m447.317 342.75c-.956 0-1.929-.184-2.867-.573l-38.264-15.85c-3.827-1.585-5.644-5.973-4.059-9.799 1.585-3.827 5.974-5.645 9.799-4.059l38.264 15.85c3.827 1.585 5.644 5.973 4.059 9.799-1.196 2.888-3.989 4.632-6.932 4.632z" fill="#fff0af"/></g><g><path d="m409.059 200.104c-2.943 0-5.736-1.744-6.932-4.632-1.585-3.827.232-8.214 4.059-9.799l38.264-15.85c3.827-1.583 8.214.232 9.799 4.059s-.232 8.214-4.059 9.799l-38.264 15.85c-.938.389-1.91.573-2.867.573z" fill="#fff0af"/></g><g><path d="m319.395 110.446c-.956 0-1.929-.184-2.867-.573-3.827-1.585-5.644-5.973-4.059-9.799l15.85-38.264c1.585-3.827 5.972-5.645 9.799-4.059 3.827 1.585 5.644 5.973 4.059 9.799l-15.85 38.264c-1.196 2.888-3.989 4.632-6.932 4.632z" fill="#fff0af"/></g></g></svg>