<svg id="Capa_1" enable-background="new 0 0 512 512" height="512" viewBox="0 0 512 512" width="512" xmlns="http://www.w3.org/2000/svg"><g><g><path d="m512 307.2c0 18.851-15.282 34.133-34.133 34.133h-256c-18.851 0-34.133-15.282-34.133-34.133v-256c0-18.851 15.282-34.133 34.133-34.133h256c18.851 0 34.133 15.282 34.133 34.133z" fill="#5c545f"/><path d="m512 51.2c0-18.851-15.282-34.133-34.133-34.133h-23.694c18.851 0 34.133 15.282 34.133 34.133v256c0 18.851-15.282 34.133-34.133 34.133h23.694c18.851 0 34.133-15.282 34.133-34.133z" fill="#4b3f4e"/><path d="m477.867 290.133c0 9.426-7.641 17.067-17.067 17.067h-221.866c-9.426 0-17.067-7.641-17.067-17.067v-221.867c0-9.426 7.641-17.067 17.067-17.067h221.866c9.426 0 17.067 7.641 17.067 17.067z" fill="#9dc6fb"/><path d="m477.866 68.267c0-9.426-7.641-17.067-17.067-17.067h-23.694c9.426 0 17.067 7.641 17.067 17.067v221.867c0 9.426-7.641 17.067-17.067 17.067h23.695c9.426 0 17.067-7.641 17.067-17.067z" fill="#80b4fb"/><g><circle cx="273.067" cy="102.4" fill="#ecf4ff" r="17.067"/><g><g><path d="m384.599 280.793c-56.019 0-101.594-45.575-101.594-101.593s45.575-101.593 101.594-101.593c20.357 0 40 6.001 56.806 17.355 3.536 2.389 4.466 7.192 2.078 10.728-2.389 3.536-7.192 4.466-10.727 2.077-14.241-9.621-30.893-14.707-48.156-14.707-47.498 0-86.141 38.642-86.141 86.14s38.643 86.14 86.141 86.14c18.345 0 33.949-5.613 46.377-16.681 2.412-2.149 4.713-4.523 6.838-7.056 2.742-3.27 7.616-3.697 10.885-.954 3.269 2.742 3.696 7.616.954 10.885-2.604 3.105-5.43 6.02-8.399 8.665-15.129 13.473-34.721 20.594-56.656 20.594z" fill="#ecf4ff"/></g></g></g></g><g><path d="m136.533 354.271v-302.228c0-28.077-22.252-51.567-50.325-52.035-28.677-.48-52.075 22.624-52.075 51.192v303.07c0 2.559-1.161 4.967-3.133 6.598-19.164 15.842-31.294 39.893-30.995 66.768.508 45.693 37.587 83.264 83.271 84.339 48.069 1.131 87.391-37.497 87.391-85.309 0-26.486-12.069-50.151-31.005-65.802-1.971-1.628-3.129-4.036-3.129-6.593z" fill="#ecf4ff"/><path d="m102.4 372.704v-210.571c0-4.713-3.82-8.533-8.533-8.533h-17.067c-4.713 0-8.533 3.821-8.533 8.533v210.521c0 3.274-1.834 6.313-4.793 7.712-18.158 8.587-30.459 27.53-29.259 49.211 1.448 26.155 22.886 47.223 49.061 48.249 29.214 1.144 53.258-22.2 53.258-51.16 0-20.402-11.936-38.008-29.204-46.236-2.994-1.425-4.93-4.41-4.93-7.726z" fill="#ff8086"/><path d="m139.662 360.864c-1.97-1.629-3.128-4.036-3.128-6.593v-302.228c0-28.077-22.252-51.567-50.325-52.035-4.417-.074-8.707.416-12.808 1.395 22.708 5.46 39.404 26.324 39.404 50.641v302.229c0 2.556 1.158 4.964 3.128 6.593 18.936 15.652 31.005 39.316 31.005 65.802 0 43.083-31.933 78.694-73.418 84.493 3.202.449 6.454.739 9.756.816 48.069 1.131 87.391-37.497 87.391-85.309 0-26.487-12.069-50.152-31.005-65.804z" fill="#ddeafb"/><path d="m107.33 380.431c-2.993-1.426-4.93-4.411-4.93-7.727v-210.571c0-4.713-3.82-8.533-8.533-8.533h-17.067c-1.175 0-2.295.238-3.314.668 3.067 1.294 5.22 4.328 5.22 7.866v210.571c0 3.316 1.936 6.3 4.929 7.727 17.267 8.228 29.204 25.834 29.204 46.236 0 24.195-16.788 44.459-39.347 49.808 3.163.757 6.433 1.221 9.783 1.352 29.214 1.144 53.258-22.2 53.258-51.16 0-20.403-11.936-38.009-29.203-46.237z" fill="#e5646e"/></g></g></svg>