<svg id="Capa_1" enable-background="new 0 0 512 512" height="512" viewBox="0 0 512 512" width="512" xmlns="http://www.w3.org/2000/svg"><g><path d="m258.125 57.217c-.191-.002-.381-.01-.572-.012-109.841-.84-200.131 88.543-200.353 198.386-.169 83.937 51.688 155.771 125.122 185.093 3.658 1.46 7.903.246 10.022-3.074 3.11-4.873 8.694-8.009 14.988-7.628 7.44.451 13.764 6.02 15.217 13.331.135.678.225 1.348.274 2.01.295 3.989 3.208 7.264 7.174 7.783 8.51 1.115 17.189 1.695 26.003 1.695.71 0 1.416-.02 2.125-.027z" fill="#ffe07d"/><path d="m454.8 256c0-52.922-20.688-101.004-54.406-136.626-2.733-2.888-7.149-3.341-10.489-1.185-5.742 3.708-12.702 5.69-20.151 5.205-16.199-1.054-29.428-14.021-30.799-30.197-.302-3.564-.033-7.02.719-10.291.888-3.856-1.08-7.828-4.711-9.402-23.758-10.294-49.919-16.088-77.411-16.299-.519-.004-1.035.008-1.553.008v397.587c109.795 0 198.801-89.006 198.801-198.8z" fill="#c8c5c9"/><path d="m400.394 119.374c-2.733-2.888-7.149-3.341-10.489-1.185-2.942 1.899-6.205 3.342-9.688 4.236 32.045 35.294 51.583 82.149 51.583 133.575 0 105.901-82.809 192.449-187.205 198.455 3.776.215 7.575.345 11.405.345 109.794 0 198.8-89.006 198.8-198.8 0-52.922-20.688-101.004-54.406-136.626z" fill="#b6b1b7"/><g fill="#fff0af"><path d="m156.6 16.567h-9.067v-9.067c0-4.142-3.358-7.5-7.5-7.5s-7.5 3.358-7.5 7.5v9.067h-9.066c-4.142 0-7.5 3.358-7.5 7.5s3.358 7.5 7.5 7.5h9.066v9.066c0 4.142 3.358 7.5 7.5 7.5s7.5-3.358 7.5-7.5v-9.066h9.067c4.142 0 7.5-3.358 7.5-7.5s-3.358-7.5-7.5-7.5z"/><path d="m388.533 480.433h-9.066v-9.066c0-4.142-3.358-7.5-7.5-7.5s-7.5 3.358-7.5 7.5v9.066h-9.067c-4.142 0-7.5 3.358-7.5 7.5s3.358 7.5 7.5 7.5h9.067v9.067c0 4.142 3.358 7.5 7.5 7.5s7.5-3.358 7.5-7.5v-9.067h9.066c4.142 0 7.5-3.358 7.5-7.5s-3.358-7.5-7.5-7.5z"/></g><circle cx="206.3" cy="231.15" fill="#ffd064" r="16.567"/><circle cx="173.167" cy="156.6" fill="#ffa95f" r="33.133"/><circle cx="127.608" cy="251.858" fill="#ffd064" r="37.275"/><path d="m311.963 73.505c3.631 1.573 5.598 5.545 4.711 9.402-.753 3.271-1.021 6.727-.719 10.291 1.37 16.175 14.599 29.143 30.798 30.197 4.851.316 9.493-.421 13.728-1.993-11.733-4.373-20.43-15.257-21.527-28.204-.302-3.564-.034-7.02.719-10.291.888-3.856-1.08-7.828-4.711-9.402-23.758-10.295-49.919-16.088-77.411-16.299-4.328-.033-8.621.09-12.884.333 23.798 1.378 46.471 6.942 67.296 15.966z" fill="#b6b1b7"/><g fill="#b6b1b7"><path d="m338.89 77.128c-.846-1.571-2.194-2.872-3.927-3.623-10.056-4.357-20.547-7.898-31.383-10.561l-47.58 38.064v42.432z"/><path d="m400.394 119.374c-2.733-2.888-7.149-3.341-10.489-1.185-5.742 3.708-12.702 5.69-20.151 5.205-2.036-.132-4.025-.454-5.95-.946l-107.804 86.243v42.432l152.815-122.252c-2.709-3.253-5.513-6.425-8.421-9.497z"/><path d="m436.288 172.145-180.288 144.23v42.432l192.195-153.756c-3.016-11.402-7.013-22.404-11.907-32.906z"/><path d="m256 424.058v30.742c5.163 0 10.279-.197 15.343-.584l174.721-139.777c4.815-15.678 7.74-32.181 8.517-49.245z"/></g><g fill="#ffe07d"><path d="m463.083 381.033c-4.143 0-7.5 3.357-7.5 7.5v16.567c0 4.143 3.357 7.5 7.5 7.5s7.5-3.357 7.5-7.5v-16.566c0-4.143-3.357-7.501-7.5-7.501z"/><path d="m463.083 447.3c-4.143 0-7.5 3.357-7.5 7.5v16.566c0 4.143 3.357 7.5 7.5 7.5s7.5-3.357 7.5-7.5v-16.566c0-4.143-3.357-7.5-7.5-7.5z"/><path d="m504.5 422.45h-16.566c-4.143 0-7.5 3.357-7.5 7.5s3.357 7.5 7.5 7.5h16.566c4.143 0 7.5-3.357 7.5-7.5s-3.357-7.5-7.5-7.5z"/><path d="m438.233 422.45h-16.566c-4.143 0-7.5 3.357-7.5 7.5s3.357 7.5 7.5 7.5h16.566c4.143 0 7.5-3.357 7.5-7.5s-3.357-7.5-7.5-7.5z"/><path d="m48.916 33.134c-4.142 0-7.5 3.357-7.5 7.5v16.566c0 4.143 3.358 7.5 7.5 7.5s7.5-3.357 7.5-7.5v-16.566c0-4.143-3.357-7.5-7.5-7.5z"/><path d="m48.916 99.4c-4.142 0-7.5 3.357-7.5 7.5v16.566c0 4.143 3.358 7.5 7.5 7.5s7.5-3.357 7.5-7.5v-16.566c0-4.142-3.357-7.5-7.5-7.5z"/><path d="m90.333 74.55h-16.566c-4.142 0-7.5 3.357-7.5 7.5s3.358 7.5 7.5 7.5h16.567c4.142 0 7.5-3.357 7.5-7.5-.001-4.143-3.358-7.5-7.501-7.5z"/><path d="m24.067 74.55h-16.567c-4.142 0-7.5 3.357-7.5 7.5s3.358 7.5 7.5 7.5h16.567c4.142 0 7.5-3.357 7.5-7.5s-3.358-7.5-7.5-7.5z"/></g></g></svg>