<svg id="Capa_1" enable-background="new 0 0 512 512" height="512" viewBox="0 0 512 512" width="512" xmlns="http://www.w3.org/2000/svg"><g><g><g><path d="m407.316 360.684c-18.103 0-32.831-14.728-32.831-32.832 0-9.709-7.899-17.607-17.607-17.607-9.71 0-17.608 7.899-17.608 17.607 0 18.103-14.728 32.832-32.831 32.832s-32.832-14.728-32.832-32.832c0-9.709-7.899-17.607-17.607-17.607-9.709 0-17.608 7.899-17.608 17.607 0 18.103-14.728 32.832-32.831 32.832s-32.831-14.728-32.831-32.832c0-9.709-7.899-17.607-17.608-17.607s-17.608 7.899-17.608 17.607c0 18.103-14.728 32.832-32.831 32.832s-32.831-14.728-32.831-32.832c0-9.709-7.899-17.607-17.607-17.607-9.709 0-17.608 7.899-17.608 17.607 0 4.204-3.408 7.612-7.612 7.612s-7.611-3.407-7.611-7.612c0-18.103 14.728-32.831 32.831-32.831s32.83 14.728 32.83 32.831c0 9.71 7.899 17.609 17.608 17.609s17.608-7.899 17.608-17.609c0-18.103 14.728-32.831 32.831-32.831s32.831 14.728 32.831 32.831c0 9.71 7.899 17.609 17.608 17.609s17.608-7.899 17.608-17.609c0-18.103 14.728-32.831 32.831-32.831s32.83 14.728 32.83 32.831c0 9.71 7.899 17.609 17.609 17.609 9.709 0 17.608-7.899 17.608-17.609 0-18.103 14.728-32.831 32.832-32.831 18.103 0 32.831 14.728 32.831 32.831 0 9.71 7.899 17.609 17.608 17.609 9.71 0 17.608-7.899 17.608-17.609 0-18.103 14.727-32.831 32.831-32.831 18.103 0 32.831 14.728 32.831 32.831 0 4.204-3.407 7.612-7.611 7.612s-7.612-3.407-7.612-7.612c0-9.709-7.899-17.607-17.608-17.607s-17.608 7.899-17.608 17.607c-.001 18.103-14.73 32.832-32.833 32.832z" fill="#bed8fb"/></g><g><path d="m407.316 436.342c-18.103 0-32.831-14.728-32.831-32.831 0-9.709-7.899-17.608-17.607-17.608-9.71 0-17.608 7.899-17.608 17.608 0 18.103-14.728 32.831-32.831 32.831s-32.832-14.728-32.832-32.831c0-9.709-7.899-17.608-17.607-17.608-9.709 0-17.608 7.899-17.608 17.608 0 18.103-14.728 32.831-32.831 32.831s-32.831-14.728-32.831-32.831c0-9.709-7.899-17.608-17.608-17.608s-17.608 7.899-17.608 17.608c0 18.103-14.728 32.831-32.831 32.831s-32.831-14.728-32.831-32.831c0-9.709-7.899-17.608-17.607-17.608-9.709 0-17.608 7.899-17.608 17.608 0 4.204-3.408 7.611-7.612 7.611s-7.611-3.407-7.611-7.611c0-18.103 14.728-32.831 32.831-32.831s32.83 14.727 32.83 32.831c0 9.71 7.899 17.608 17.608 17.608s17.608-7.899 17.608-17.608c0-18.103 14.728-32.831 32.831-32.831s32.831 14.727 32.831 32.831c0 9.71 7.899 17.608 17.608 17.608s17.608-7.899 17.608-17.608c0-18.103 14.728-32.831 32.831-32.831s32.83 14.727 32.83 32.831c0 9.71 7.899 17.608 17.609 17.608 9.709 0 17.608-7.899 17.608-17.608 0-18.103 14.728-32.831 32.832-32.831 18.103 0 32.831 14.727 32.831 32.831 0 9.71 7.899 17.608 17.608 17.608 9.71 0 17.608-7.899 17.608-17.608 0-18.103 14.727-32.831 32.831-32.831 18.103 0 32.831 14.727 32.831 32.831 0 4.204-3.407 7.611-7.611 7.611s-7.612-3.407-7.612-7.611c0-9.709-7.899-17.608-17.608-17.608s-17.608 7.899-17.608 17.608c-.001 18.102-14.73 32.831-32.833 32.831z" fill="#a4ccff"/></g><g><path d="m407.316 512c-18.103 0-32.831-14.728-32.831-32.831 0-9.71-7.899-17.608-17.607-17.608-9.71 0-17.608 7.899-17.608 17.608 0 18.103-14.728 32.831-32.831 32.831s-32.832-14.728-32.832-32.831c0-9.71-7.899-17.608-17.607-17.608-9.709 0-17.608 7.899-17.608 17.608 0 18.103-14.728 32.831-32.831 32.831s-32.831-14.728-32.831-32.831c0-9.71-7.899-17.608-17.608-17.608s-17.608 7.899-17.608 17.608c0 18.103-14.728 32.831-32.831 32.831s-32.831-14.728-32.831-32.831c0-9.71-7.899-17.608-17.607-17.608-9.709 0-17.608 7.899-17.608 17.608 0 4.204-3.408 7.612-7.612 7.612s-7.611-3.407-7.611-7.612c0-18.103 14.728-32.831 32.831-32.831s32.83 14.728 32.83 32.831c0 9.709 7.899 17.608 17.608 17.608s17.608-7.899 17.608-17.608c0-18.103 14.728-32.831 32.831-32.831s32.831 14.728 32.831 32.831c0 9.709 7.899 17.608 17.608 17.608s17.608-7.899 17.608-17.608c0-18.103 14.728-32.831 32.831-32.831s32.83 14.728 32.83 32.831c0 9.709 7.899 17.608 17.609 17.608 9.709 0 17.608-7.899 17.608-17.608 0-18.103 14.728-32.831 32.832-32.831 18.103 0 32.831 14.728 32.831 32.831 0 9.709 7.899 17.608 17.608 17.608 9.71 0 17.608-7.899 17.608-17.608 0-18.103 14.727-32.831 32.831-32.831 18.103 0 32.831 14.728 32.831 32.831 0 4.204-3.407 7.612-7.611 7.612s-7.612-3.407-7.612-7.612c0-9.71-7.899-17.608-17.608-17.608s-17.608 7.899-17.608 17.608c-.001 18.103-14.73 32.831-32.833 32.831z" fill="#bed8fb"/></g></g><g><path d="m440.942 134.504h-.023c-1.239 0-2.305-.833-2.652-2.023-8.146-27.974-33.974-48.416-64.577-48.416-11.443 0-22.212 2.867-31.642 7.911-3.696 1.977-8.284.944-10.634-2.527-9.067-13.393-24.397-22.197-41.788-22.197-4.067 0-8.021.484-11.808 1.394-4.103.987-8.34-1.218-9.665-5.225-12.181-36.838-46.89-63.421-87.811-63.421-51.071 0-92.472 41.401-92.472 92.471 0 1.16.03 2.312.078 3.459.048 1.136-.325 2.25-1.024 3.146l-.072.093c-.876 1.123-2.202 1.785-3.624 1.862-44.745 2.438-80.184 39.842-79.41 85.373.782 46.028 39.073 82.603 85.108 82.603h351.014c36.961 0 67.769-29.401 68.249-66.359.487-37.551-29.807-68.144-67.247-68.144z" fill="#ecf4ff"/><path d="m440.942 134.504h-.023c-1.239 0-2.305-.833-2.652-2.023-8.146-27.974-33.974-48.416-64.577-48.416-11.443 0-22.212 2.867-31.642 7.911-3.696 1.977-8.284.944-10.634-2.527-9.067-13.393-24.397-22.197-41.788-22.197-4.067 0-8.021.484-11.808 1.394-4.103.987-8.34-1.218-9.665-5.225-12.181-36.838-46.89-63.421-87.811-63.421-51.071 0-92.472 41.401-92.472 92.471 0 1.16.03 2.312.078 3.459.048 1.136-.325 2.25-1.024 3.146l-.072.093c-.876 1.123-2.202 1.785-3.624 1.862-44.745 2.438-80.184 39.842-79.41 85.373.782 46.028 39.073 82.603 85.108 82.603h351.014c36.961 0 67.769-29.401 68.249-66.359.487-37.551-29.807-68.144-67.247-68.144z" fill="#ecf4ff"/><path d="m440.942 134.504h-.023c-1.239 0-2.305-.833-2.652-2.023-8.146-27.974-33.974-48.416-64.577-48.416-3.979 0-7.874.354-11.663 1.019 25.347 4.44 45.813 23.065 52.898 47.398.346 1.189 1.413 2.023 2.652 2.023h.023c37.439 0 67.733 30.593 67.246 68.145-.48 36.958-31.288 66.359-68.249 66.359h23.342c36.961 0 67.769-29.401 68.249-66.359.488-37.553-29.806-68.146-67.246-68.146z" fill="#daeaff"/><path d="m164.324 184.943c0 4.204 3.408 7.612 7.611 7.612 4.204 0 7.611-3.407 7.611-7.612 0-52.052-40.382-94.848-91.462-98.708-.137 2.062-.214 4.14-.214 6.236 0 1.16.03 2.312.078 3.459.048 1.136-.325 2.25-1.024 3.146l-.072.093c-.876 1.123-2.202 1.785-3.624 1.862-.675.037-1.34.107-2.011.159 45.885.36 83.107 37.785 83.107 83.753z" fill="#ddeafb"/><g><path d="m276.979 68.801c-3.828.521-7.592-1.645-8.827-5.38-.764-2.311-1.618-4.582-2.555-6.809-28.111 9.93-48.314 36.756-48.314 68.224 0 4.204 3.408 7.612 7.611 7.612 4.204 0 7.612-3.407 7.612-7.612 0-27.15 19.045-50.156 44.473-55.994z" fill="#ddeafb"/></g><path d="m381.302 205.561c0-4.204-3.408-7.611-7.612-7.611s-7.611 3.407-7.611 7.611c0 26.019 12.705 49.117 32.229 63.446h41.632c.815 0 1.623-.032 2.431-.06-33.885-1.256-61.069-29.199-61.069-63.386z" fill="#ddeafb"/></g></g></svg>