<svg id="Capa_1" enable-background="new 0 0 512 512" height="512" viewBox="0 0 512 512" width="512" xmlns="http://www.w3.org/2000/svg"><g><g><g><path d="m192.553 411.122h-184.941c-4.204 0-7.612-3.408-7.612-7.612s3.408-7.611 7.612-7.611h184.941c14.344 0 26.014-11.67 26.014-26.014s-11.67-26.014-26.014-26.014-26.014 11.67-26.014 26.014c0 4.204-3.408 7.611-7.612 7.611s-7.611-3.408-7.611-7.611c0-22.738 18.499-41.237 41.237-41.237s41.237 18.499 41.237 41.237c.001 22.738-18.498 41.237-41.237 41.237z" fill="#ecf4ff"/></g><g><path d="m158.927 512c-22.738 0-41.237-18.499-41.237-41.237 0-4.204 3.408-7.612 7.612-7.612s7.612 3.408 7.612 7.612c0 14.344 11.67 26.014 26.014 26.014s26.014-11.67 26.014-26.014-11.67-26.014-26.014-26.014h-117.691c-4.204 0-7.611-3.408-7.611-7.611 0-4.204 3.408-7.612 7.611-7.612h117.691c22.738 0 41.237 18.499 41.237 41.237s-18.499 41.237-41.238 41.237z" fill="#ddeafb"/></g></g><g><ellipse cx="310.244" cy="353.072" fill="#ecf4ff" rx="16.813" ry="16.813" transform="matrix(.707 -.707 .707 .707 -158.791 322.788)"/><ellipse cx="276.618" cy="420.324" fill="#ddeafb" rx="16.813" ry="16.813" transform="matrix(.707 -.707 .707 .707 -216.194 318.708)"/><ellipse cx="343.87" cy="420.324" fill="#ecf4ff" rx="16.813" ry="16.813" transform="matrix(.731 -.682 .682 .731 -194.278 347.417)"/><ellipse cx="411.122" cy="420.324" fill="#ddeafb" rx="16.813" ry="16.813" transform="matrix(.707 -.707 .707 .707 -176.799 413.817)"/><ellipse cx="377.496" cy="353.072" fill="#ddeafb" rx="16.813" ry="16.813" transform="matrix(.63 -.776 .776 .63 -134.545 423.62)"/><ellipse cx="444.747" cy="353.072" fill="#ecf4ff" rx="16.813" ry="16.813" transform="matrix(.707 -.707 .707 .707 -119.396 417.896)"/><ellipse cx="242.992" cy="487.576" fill="#ecf4ff" rx="16.813" ry="16.813" transform="matrix(.707 -.707 .707 .707 -273.597 314.629)"/><ellipse cx="310.244" cy="487.576" fill="#ddeafb" rx="16.813" ry="16.813" transform="matrix(.707 -.707 .707 .707 -253.9 362.183)"/><ellipse cx="377.496" cy="487.576" fill="#ecf4ff" rx="16.813" ry="16.813" transform="matrix(.63 -.776 .776 .63 -238.971 473.349)"/></g><path d="m301.837 134.504c-24.154 0-43.535-20.724-41.792-45.225 1.431-20.112 17.362-36.563 37.42-38.616 2.823-.289 5.595-.294 8.292-.042 3.682.344 7.077-1.982 8.283-5.478 9.058-26.268 33.979-45.143 63.324-45.143 22.017 0 41.543 10.627 53.752 27.027 3.113 4.181 7.969 6.634 13.181 6.6.106-.001.212-.001.319-.001 28.143 0 50.903 23.049 50.432 51.301-.462 27.656-23.602 49.577-51.262 49.577z" fill="#daeaff"/><path d="m444.616 33.626c-.106 0-.213 0-.319.001-5.212.034-10.069-2.419-13.181-6.6-12.208-16.4-31.735-27.027-53.752-27.027-3.976 0-7.866.358-11.651 1.022 17.159 3.023 32.065 12.576 42.061 26.004 3.113 4.181 7.969 6.634 13.181 6.6.106-.001.212-.001.318-.001 28.143 0 50.903 23.049 50.432 51.301-.462 27.656-23.602 49.577-51.262 49.577h23.342c27.66 0 50.8-21.921 51.262-49.577.472-28.251-22.288-51.3-50.431-51.3z" fill="#bed8fb"/><path d="m452.354 34.216c-2.523-.388-5.107-.59-7.738-.59-.106 0-.213 0-.319.001-5.212.034-10.069-2.419-13.181-6.6-.917-1.232-1.88-2.427-2.878-3.591-24.28 9.443-41.541 33.051-41.541 60.629 0 4.204 3.408 7.612 7.612 7.612s7.611-3.408 7.611-7.612c0-27.469 22.348-49.817 49.817-49.817.209 0 .413-.015.617-.032z" fill="#cbe0fc"/><g><g><path d="m444.747 168.13h-.023c-1.239 0-2.305-.833-2.652-2.023-8.146-27.974-33.974-48.416-64.577-48.416-11.443 0-22.212 2.867-31.642 7.911-3.696 1.977-8.284.944-10.634-2.527-9.067-13.393-24.397-22.197-41.788-22.197-4.067 0-8.021.484-11.808 1.395-4.103.987-8.34-1.218-9.665-5.225-12.18-36.838-46.889-63.421-87.811-63.421-51.07 0-92.471 41.401-92.471 92.471 0 1.16.03 2.312.078 3.459.048 1.136-.325 2.25-1.024 3.146l-.072.093c-.876 1.122-2.202 1.785-3.624 1.862-44.745 2.438-80.184 39.842-79.41 85.373.782 46.028 39.073 82.602 85.108 82.602h351.014c36.961 0 67.769-29.401 68.249-66.359.486-37.551-29.808-68.144-67.248-68.144z" fill="#ecf4ff"/><path d="m444.747 168.13h-.023c-1.239 0-2.305-.833-2.652-2.023-8.146-27.974-33.974-48.416-64.577-48.416-11.443 0-22.212 2.867-31.642 7.911-3.696 1.977-8.284.944-10.634-2.527-9.067-13.393-24.397-22.197-41.788-22.197-4.067 0-8.021.484-11.808 1.395-4.103.987-8.34-1.218-9.665-5.225-12.18-36.838-46.889-63.421-87.811-63.421-51.07 0-92.471 41.401-92.471 92.471 0 1.16.03 2.312.078 3.459.048 1.136-.325 2.25-1.024 3.146l-.072.093c-.876 1.122-2.202 1.785-3.624 1.862-44.745 2.438-80.184 39.842-79.41 85.373.782 46.028 39.073 82.602 85.108 82.602h351.014c36.961 0 67.769-29.401 68.249-66.359.486-37.551-29.808-68.144-67.248-68.144z" fill="#ecf4ff"/><path d="m444.747 168.13h-.023c-1.239 0-2.305-.833-2.652-2.023-8.146-27.974-33.974-48.416-64.577-48.416-3.979 0-7.874.354-11.663 1.019 25.347 4.439 45.813 23.065 52.898 47.398.346 1.189 1.413 2.023 2.651 2.023h.023c37.439 0 67.733 30.593 67.246 68.145-.479 36.958-31.288 66.359-68.248 66.359h23.342c36.961 0 67.769-29.401 68.249-66.359.488-37.553-29.806-68.146-67.246-68.146z" fill="#daeaff"/><path d="m168.129 218.569c0 4.204 3.408 7.612 7.612 7.612s7.611-3.407 7.611-7.612c0-52.052-40.382-94.848-91.462-98.708-.137 2.062-.214 4.14-.214 6.236 0 1.16.03 2.312.078 3.459.048 1.136-.325 2.25-1.024 3.146l-.072.093c-.876 1.122-2.202 1.785-3.624 1.862-.675.037-1.34.107-2.011.159 45.885.36 83.106 37.785 83.106 83.753z" fill="#ddeafb"/><g><path d="m280.784 102.427c-3.828.521-7.592-1.645-8.827-5.38-.764-2.311-1.618-4.582-2.555-6.809-28.111 9.93-48.314 36.756-48.314 68.224 0 4.204 3.408 7.611 7.611 7.611 4.204 0 7.611-3.407 7.611-7.611 0-27.15 19.045-50.156 44.473-55.994v-.041z" fill="#ddeafb"/></g><path d="m385.107 239.187c0-4.204-3.408-7.611-7.611-7.611-4.204 0-7.612 3.407-7.612 7.611 0 26.019 12.705 49.117 32.229 63.446h41.632c.815 0 1.623-.032 2.431-.06-33.885-1.257-61.069-29.199-61.069-63.386z" fill="#ddeafb"/></g></g></g></svg>