<svg id="Capa_1" enable-background="new 0 0 512 512" height="512" viewBox="0 0 512 512" width="512" xmlns="http://www.w3.org/2000/svg"><g><circle cx="256" cy="256" fill="#c8c5c9" r="256"/><circle cx="256" cy="256" fill="#ecf4ff" r="221.867"/><path d="m256 0c-3.972 0-7.919.104-11.847.283 135.884 6.191 244.153 118.304 244.153 255.717s-108.269 249.526-244.153 255.717c3.928.179 7.875.283 11.847.283 141.385 0 256-114.615 256-256s-114.615-256-256-256z" fill="#b6b1b7"/><path d="m256 34.133c-3.975 0-7.924.109-11.847.316 117.025 6.158 210.019 102.992 210.019 221.551s-92.995 215.393-210.02 221.551c3.923.206 7.872.316 11.847.316 122.534 0 221.867-99.333 221.867-221.867s-99.332-221.867-221.866-221.867z" fill="#ddeafb"/><g><g><path d="m226.09 161.326c-4.267 0-7.726-3.459-7.726-7.726v-85.206c0-3.381 2.199-6.37 5.427-7.376 3.228-1.004 6.736.203 8.657 2.986l45.718 66.203-.049-61.234c-.003-4.267 3.453-7.729 7.72-7.732h.006c4.265 0 7.723 3.455 7.726 7.72l.065 81.757c0 4.444-2.459 8.079-6.266 9.267-3.702 1.16-7.638-.325-10.026-3.775l-43.527-63.03v60.42c.002 4.267-3.457 7.726-7.725 7.726z" fill="#e5646e"/></g></g><g><g><path d="m85.333 238.933c-9.426 0-17.067 7.641-17.067 17.067s7.641 17.067 17.067 17.067h17.067c9.426 0 17.067-7.641 17.067-17.067s-7.641-17.067-17.067-17.067z" fill="#5c545f"/></g><g><path d="m273.067 409.6c0-9.426-7.641-17.067-17.067-17.067s-17.067 7.641-17.067 17.067v18.172c0 9.426 7.641 17.067 17.067 17.067s17.067-7.641 17.067-17.067z" fill="#5c545f"/></g><g><path d="m409.6 238.933c-9.426 0-17.067 7.641-17.067 17.067s7.641 17.067 17.067 17.067h17.067c9.426 0 17.067-7.641 17.067-17.067s-7.641-17.067-17.067-17.067z" fill="#5c545f"/></g><g><path d="m342.186 164.165-119.476 54.308c-1.878.854-3.384 2.359-4.237 4.237l-.21.463 70.566 70.566.463-.211c1.878-.854 3.384-2.359 4.237-4.237l54.307-119.476c1.631-3.59-2.061-7.282-5.65-5.65z" fill="#ff8086"/><path d="m342.186 164.165-19.507 8.866-52.845 116.26c-.854 1.878-2.359 3.384-4.237 4.237l-99.97 45.441-1.462 3.217c-1.631 3.589 2.061 7.281 5.65 5.65l119.476-54.308c1.878-.854 3.384-2.359 4.237-4.237l54.307-119.476c1.632-3.59-2.06-7.282-5.649-5.65z" fill="#e5646e"/><path d="m164.164 342.186c-1.631 3.589 2.061 7.281 5.65 5.65l119.476-54.308c.939-.427 1.785-1.017 2.503-1.734l-71.587-71.587c-.718.718-1.308 1.564-1.734 2.503z" fill="#c3ddff"/><path d="m275.914 275.914-6.08 13.376c-.854 1.878-2.359 3.384-4.237 4.237l-99.97 45.441-1.462 3.217c-1.631 3.589 2.061 7.281 5.65 5.65l119.476-54.308c.939-.427 1.785-1.017 2.503-1.734z" fill="#a4ccff"/></g></g></g></svg>