<svg id="Capa_1" enable-background="new 0 0 512 512" height="512" viewBox="0 0 512 512" width="512" xmlns="http://www.w3.org/2000/svg"><g><g><path d="m274.075 268.048 16.048-4.012c8.366-2.091 8.366-13.981 0-16.072l-16.048-4.012c-2.968-.742-5.285-3.059-6.027-6.027l-4.012-16.048c-2.091-8.366-13.981-8.366-16.072 0l-4.012 16.048c-.742 2.968-3.059 5.285-6.027 6.027l-16.048 4.012c-8.366 2.091-8.366 13.981 0 16.072l16.048 4.012c2.968.742 5.285 3.059 6.027 6.027l4.012 16.048c2.091 8.366 13.981 8.366 16.072 0l4.012-16.048c.742-2.968 3.059-5.285 6.027-6.027z" fill="#ffe07d"/><g><path d="m256 338.05c-45.242 0-82.05-36.808-82.05-82.05s36.808-82.05 82.05-82.05 82.05 36.808 82.05 82.05-36.808 82.05-82.05 82.05zm0-149.1c-36.971 0-67.05 30.078-67.05 67.05s30.079 67.05 67.05 67.05 67.05-30.078 67.05-67.05-30.079-67.05-67.05-67.05z" fill="#cbe2ff"/></g><g><g><g><path d="m124.498 246.966c-.309 0-.621-.02-.936-.059-4.11-.512-7.028-4.258-6.516-8.369 8.697-69.877 68.434-122.571 138.954-122.571 33.392 0 65.729 11.947 91.055 33.642 3.146 2.695 3.511 7.43.816 10.575-2.695 3.146-7.43 3.51-10.575.817-22.609-19.368-51.48-30.034-81.296-30.034-62.967 0-116.305 47.042-124.069 109.425-.473 3.794-3.704 6.574-7.433 6.574z" fill="#a4ccff"/></g></g></g><g><path d="m256 396.033c-70.523 0-130.261-52.696-138.955-122.577-.512-4.11 2.406-7.857 6.517-8.368 4.106-.512 7.857 2.406 8.368 6.517 7.762 62.385 61.101 109.429 124.07 109.429 68.943 0 125.033-56.09 125.033-125.033 0-20.412-5.025-40.663-14.533-58.562-1.943-3.658-.553-8.199 3.105-10.143 3.657-1.939 8.199-.552 10.142 3.105 10.654 20.06 16.286 42.743 16.286 65.6 0 77.214-62.819 140.032-140.033 140.032z" fill="#a4ccff"/></g><g><path d="m256 462.3c-113.754 0-206.3-92.546-206.3-206.3 0-36.268 9.545-71.939 27.605-103.157 2.075-3.585 6.664-4.809 10.247-2.736 3.586 2.074 4.811 6.662 2.737 10.248-16.74 28.937-25.589 62.011-25.589 95.645 0 105.483 85.817 191.3 191.3 191.3 5.319 0 10.685-.221 15.95-.655 4.113-.353 7.75 2.729 8.092 6.858.341 4.128-2.729 7.751-6.857 8.092-5.673.467-11.455.705-17.185.705z" fill="#cbe2ff"/></g><g><path d="m338.839 444.275c-2.841 0-5.559-1.622-6.821-4.373-1.728-3.765-.077-8.218 3.688-9.945 22.293-10.232 42.189-24.483 59.137-42.357 2.849-3.007 7.596-3.133 10.603-.282 3.006 2.85 3.132 7.597.282 10.602-18.27 19.27-39.724 34.636-63.765 45.67-1.013.465-2.077.685-3.124.685z" fill="#cbe2ff"/></g><g><path d="m420.989 374.433c-1.441 0-2.898-.415-4.184-1.281-3.435-2.314-4.344-6.975-2.03-10.41 21.278-31.586 32.525-68.496 32.525-106.742 0-105.483-85.817-191.3-191.3-191.3-21.882 0-43.336 3.662-63.769 10.884-3.909 1.378-8.19-.667-9.571-4.572-1.38-3.905.667-8.189 4.572-9.57 22.042-7.792 45.179-11.742 68.768-11.742 113.754 0 206.3 92.546 206.3 206.3 0 41.243-12.132 81.052-35.083 115.122-1.449 2.15-3.817 3.311-6.228 3.311z" fill="#cbe2ff"/></g><g><path d="m117.676 57.031c-2.416 0-4.787-1.165-6.234-3.32-2.309-3.439-1.392-8.099 2.047-10.407 42.2-28.33 91.48-43.304 142.511-43.304 4.142 0 7.5 3.357 7.5 7.5s-3.358 7.5-7.5 7.5c-48.042 0-94.431 14.094-134.15 40.757-1.283.861-2.737 1.274-4.174 1.274z" fill="#a4ccff"/></g><g><path d="m7.5 263.5c-4.142 0-7.5-3.357-7.5-7.5 0-67.879 26.294-131.831 74.04-180.073 2.913-2.944 7.661-2.968 10.606-.056 2.944 2.914 2.969 7.663.055 10.606-44.948 45.417-69.701 105.621-69.701 169.523 0 4.143-3.358 7.5-7.5 7.5z" fill="#a4ccff"/></g><g><path d="m256 512c-4.142 0-7.5-3.357-7.5-7.5s3.358-7.5 7.5-7.5c132.888 0 241-108.112 241-241 0-4.143 3.358-7.5 7.5-7.5s7.5 3.357 7.5 7.5c0 68.38-26.628 132.668-74.98 181.02-48.352 48.351-112.64 74.98-181.02 74.98z" fill="#a4ccff"/></g><circle cx="98.617" cy="65.483" fill="#ecf4ff" r="24.85"/><circle cx="359.452" cy="173.167" fill="#b3e59f" r="24.85"/><circle cx="411.144" cy="380.25" fill="#ffa95f" r="16.567"/><circle cx="123.467" cy="256" fill="#ff8086" r="16.567"/></g><path d="m156.6 480.433h-9.066v-9.066c0-4.142-3.358-7.5-7.5-7.5s-7.5 3.358-7.5 7.5v9.066h-9.067c-4.142 0-7.5 3.358-7.5 7.5s3.358 7.5 7.5 7.5h9.067v9.067c0 4.142 3.358 7.5 7.5 7.5s7.5-3.358 7.5-7.5v-9.067h9.066c4.142 0 7.5-3.358 7.5-7.5s-3.358-7.5-7.5-7.5z" fill="#fff0af"/><path d="m388.533 16.566h-9.066v-9.066c0-4.142-3.358-7.5-7.5-7.5s-7.5 3.358-7.5 7.5v9.066h-9.067c-4.142 0-7.5 3.358-7.5 7.5s3.358 7.5 7.5 7.5h9.067v9.067c0 4.142 3.358 7.5 7.5 7.5s7.5-3.358 7.5-7.5v-9.067h9.066c4.142 0 7.5-3.358 7.5-7.5s-3.358-7.5-7.5-7.5z" fill="#fff0af"/><g fill="#ffe07d"><path d="m48.917 381.033c-4.142 0-7.5 3.357-7.5 7.5v16.567c0 4.143 3.358 7.5 7.5 7.5s7.5-3.357 7.5-7.5v-16.566c0-4.143-3.358-7.501-7.5-7.501z"/><path d="m48.917 447.3c-4.142 0-7.5 3.357-7.5 7.5v16.566c0 4.143 3.358 7.5 7.5 7.5s7.5-3.357 7.5-7.5v-16.566c0-4.143-3.358-7.5-7.5-7.5z"/><path d="m90.334 422.45h-16.567c-4.142 0-7.5 3.357-7.5 7.5s3.358 7.5 7.5 7.5h16.567c4.142 0 7.5-3.357 7.5-7.5s-3.358-7.5-7.5-7.5z"/><path d="m24.067 422.45h-16.567c-4.142 0-7.5 3.357-7.5 7.5s3.358 7.5 7.5 7.5h16.567c4.142 0 7.5-3.357 7.5-7.5s-3.358-7.5-7.5-7.5z"/><path d="m463.083 33.134c-4.142 0-7.5 3.357-7.5 7.5v16.566c0 4.143 3.358 7.5 7.5 7.5s7.5-3.357 7.5-7.5v-16.566c0-4.143-3.357-7.5-7.5-7.5z"/><path d="m463.083 99.4c-4.142 0-7.5 3.357-7.5 7.5v16.566c0 4.143 3.358 7.5 7.5 7.5s7.5-3.357 7.5-7.5v-16.566c0-4.142-3.357-7.5-7.5-7.5z"/><path d="m504.5 74.55h-16.567c-4.142 0-7.5 3.357-7.5 7.5s3.358 7.5 7.5 7.5h16.567c4.142 0 7.5-3.357 7.5-7.5s-3.358-7.5-7.5-7.5z"/><path d="m438.233 74.55h-16.567c-4.142 0-7.5 3.357-7.5 7.5s3.358 7.5 7.5 7.5h16.567c4.142 0 7.5-3.357 7.5-7.5s-3.358-7.5-7.5-7.5z"/></g></g></svg>