<svg id="Capa_1" enable-background="new 0 0 512 512" height="512" viewBox="0 0 512 512" width="512" xmlns="http://www.w3.org/2000/svg"><g><path d="m443.733 89.373v144.066h-170.666v-144.066l85.333-67.224z" fill="#f5e1c1"/><path d="m420.039 70.707v162.732h23.694v-144.066z" fill="#f0cea5"/><path d="m392.533 233.439h-68.267v-88.906c0-4.418 3.582-8 8-8h52.267c4.418 0 8 3.582 8 8z" fill="#5c545f"/><g><path d="m461.003 113.281-97.643-69.746c-2.967-2.119-6.953-2.119-9.92 0l-97.643 69.745c-3.835 2.739-9.164 1.851-11.904-1.984l-9.92-13.887c-2.739-3.835-1.851-9.165 1.984-11.904l117.483-83.915c2.967-2.119 6.953-2.119 9.92 0l117.483 83.916c3.835 2.739 4.723 8.069 1.984 11.904l-9.92 13.887c-2.739 3.835-8.069 4.723-11.904 1.984z" fill="#ff8086"/></g><path d="m480.843 85.506-117.483-83.916c-2.967-2.119-6.953-2.119-9.92 0l-6.887 4.919 110.595 78.997c3.835 2.739 4.723 8.069 1.984 11.904l-6.875 9.624 8.746 6.247c3.835 2.739 9.164 1.851 11.904-1.984l9.92-13.887c2.739-3.836 1.851-9.165-1.984-11.904z" fill="#e5646e"/><path d="m384.292 136.533h-23.427c4.552 0 8.242 3.69 8.242 8.241v88.664h23.427v-88.664c-.001-4.551-3.69-8.241-8.242-8.241z" fill="#4b3f4e"/><g><path d="m51.2 176.161h34.133v57.278h-34.133z" fill="#f7e3c1"/><path d="m61.639 176.161h23.694v57.278h-23.694z" fill="#f1d0a4"/><path d="m98.875 131.084-26.251-52.503c-1.795-3.59-6.919-3.59-8.714 0l-26.252 52.503c-1.619 3.239.736 7.05 4.357 7.05 3.244 0 5.581 3.111 4.679 6.226l-10.758 37.148c-.902 3.116 1.435 6.226 4.679 6.226h55.303c3.244 0 5.581-3.111 4.679-6.226l-10.758-37.148c-.902-3.116 1.435-6.226 4.679-6.226 3.621-.001 5.977-3.811 4.357-7.05z" fill="#b3e59f"/><path d="m98.875 131.084-26.251-52.503c-1.795-3.59-6.919-3.59-8.714 0l-26.252 52.503c-1.619 3.239.736 7.05 4.357 7.05 3.244 0 5.581 3.111 4.679 6.226l-10.758 37.148c-.902 3.116 1.435 6.226 4.679 6.226h55.303c3.244 0 5.581-3.111 4.679-6.226l-10.758-37.148c-.902-3.116 1.435-6.226 4.679-6.226 3.621-.001 5.977-3.811 4.357-7.05z" fill="#b3e59f"/><path d="m100.597 181.507-10.758-37.147c-.902-3.116 1.435-6.226 4.679-6.226 3.621 0 5.976-3.811 4.357-7.05l-26.251-52.503c-1.795-3.59-6.919-3.59-8.714 0l-7.49 14.98 18.762 37.523c1.619 3.239-.736 7.05-4.357 7.05-3.244 0-5.581 3.111-4.679 6.226l10.758 37.148c.902 3.116-1.435 6.226-4.679 6.226h23.694c3.243-.001 5.58-3.111 4.678-6.227z" fill="#95d6a4"/></g><path d="m202.855 227.702-13.454 40.362c-1.022 3.066-.224 6.447 2.061 8.733l24.37 24.37c3.332 3.332 3.332 8.735 0 12.068l-70.806 70.806c-6.367 6.367-16.977-.19-14.129-8.733l20.238-60.714c1.396-4.187-.632-8.747-4.675-10.516l-29.672-12.981c-3.471-1.518-5.525-5.143-5.044-8.901 0 0 4.312-33.687 6.491-50.715.653-5.101-3.322-9.612-8.465-9.612h-101.237c-4.713 0-8.533 3.82-8.533 8.533v264.533c0 9.424 7.641 17.065 17.067 17.065h384l110.933-102.397v-179.203c0-4.713-3.82-8.533-8.533-8.533h-292.516c-3.673 0-6.934 2.35-8.096 5.835z" fill="#d19a6e"/><path d="m503.467 221.867h-23.694c4.713 0 8.533 3.82 8.533 8.533v264.534c0 9.426-7.641 17.067-17.067 17.067h23.694c9.426 0 17.067-7.641 17.067-17.067v-264.534c0-4.713-3.82-8.533-8.533-8.533z" fill="#c38c66"/><path d="m380.103 313.381-28.287 21.214 13.013 19.519c2.367 3.55 1.408 8.347-2.143 10.714-1.317.878-2.806 1.299-4.279 1.299-2.497 0-4.947-1.208-6.436-3.442l-17.067-25.601c-2.275-3.411-1.488-8.006 1.793-10.467l28.975-21.731-14.183-28.366c-1.908-3.817-.361-8.458 3.455-10.366l29.899-14.95.229-29.34h15.451c0 .02.003.04.003.06l-.246 31.525 19.65 26.199 19.518-13.013c3.55-2.367 8.347-1.408 10.714 2.143 2.367 3.55 1.408 8.347-2.143 10.714l-25.599 17.067c-1.314.876-2.805 1.299-4.28 1.299-2.356 0-4.674-1.075-6.187-3.092l-21.732-28.975-21.454 10.728 13.611 27.222c.287.608 1.128 2.591.578 5.095-.583 2.659-2.344 4.144-2.853 4.545z" fill="#c38c66"/><g fill="#966a5b"><path d="m238.933 409.6c-9.426 0-17.067 7.641-17.067 17.067s7.641 17.067 17.067 17.067h51.2c9.426 0 17.067-7.641 17.067-17.067s-7.641-17.067-17.067-17.067z"/><path d="m256 494.933c0-9.426-7.641-17.067-17.067-17.067h-95.667c-9.426 0-17.067-7.641-17.067-17.067s7.641-17.067 17.067-17.067h27.401c9.426 0 17.067-7.641 17.067-17.067s-7.641-17.067-17.067-17.067h-170.667v85.333c0 9.428 7.641 17.069 17.067 17.069h221.867c9.425 0 17.066-7.641 17.066-17.067z"/><path d="m512 494.933v-85.333h-153.6c-9.426 0-17.067 7.641-17.067 17.067s7.641 17.067 17.067 17.067h17.067c9.426 0 17.067 7.641 17.067 17.067s-7.641 17.067-17.067 17.067h-68.267c-9.426 0-17.067 7.641-17.067 17.067s7.641 17.067 17.067 17.067h187.733c9.426-.002 17.067-7.643 17.067-17.069z"/></g><path d="m488.29 409.6v85.333c0 9.426-7.641 17.067-17.067 17.067h23.71c9.426 0 17.067-7.641 17.067-17.067v-85.333z" fill="#785353"/><path d="m187.253 34.133h-8.915c-4.053 0-7.546-2.853-8.352-6.826-3.163-15.58-16.938-27.307-33.451-27.307-16.881 0-30.899 12.254-33.646 28.352-.536 3.143-2.79 5.636-5.819 6.631-7.061 2.32-12.088 9.123-11.716 17.042.432 9.179 8.34 16.242 17.529 16.242h84.851c9.699 0 17.509-8.091 17.047-17.892-.431-9.179-8.339-16.242-17.528-16.242z" fill="#ecf4ff"/><path d="m187.253 34.133h-8.915c-4.053 0-7.546-2.853-8.352-6.826-3.163-15.58-16.938-27.307-33.451-27.307-4.165 0-8.155.749-11.846 2.115 10.939 4.05 19.238 13.543 21.602 25.193.806 3.972 4.299 6.826 8.352 6.826h8.915c9.19 0 17.097 7.062 17.529 16.242.462 9.801-7.348 17.892-17.047 17.892h23.694c9.699 0 17.509-8.091 17.047-17.892-.431-9.18-8.339-16.243-17.528-16.243z" fill="#ddeafb"/></g></svg>