<svg id="Capa_1" enable-background="new 0 0 512 512" height="512" viewBox="0 0 512 512" width="512" xmlns="http://www.w3.org/2000/svg"><g><path d="m389.123 426.667 77.479-28.04c9.165-3.317 13.696-13.623 9.943-22.619l-64.29-154.118c-7.023-19.896-25.983-34.157-48.283-34.157h-215.944c-22.3 0-41.26 14.261-48.283 34.157l-64.29 154.118c-3.753 8.996.778 19.302 9.943 22.619l77.479 28.04z" fill="#ffa95f"/><g fill="#e69a5e"><path d="m476.545 376.008-64.29-154.118c-7.023-19.896-25.983-34.157-48.283-34.157h-23.694c22.3 0 41.26 14.261 48.283 34.157l64.29 154.118c3.753 8.996-.778 19.302-9.943 22.619l-77.479 28.04h23.694l77.479-28.04c9.165-3.317 13.696-13.623 9.943-22.619z"/><path d="m472.175 365.532-5.965-14.299-96.579 29.235c-4.085 1.236-6.392 5.549-5.157 9.634 1.011 3.338 4.077 5.49 7.392 5.49.741 0 1.495-.108 2.241-.333l97.333-29.463c.252-.076.497-.165.735-.264z"/><path d="m39.825 365.532c.238.099.483.187.735.264l96.508 29.213c.746.225 1.5.333 2.242.333 3.316 0 6.382-2.152 7.392-5.49 1.236-4.085-1.072-8.397-5.156-9.634l-95.756-28.985z"/></g><path d="m357.295 79.283-15.525-37.268c-10.599-25.442-35.456-42.015-63.018-42.015h-45.505c-27.561 0-52.418 16.572-63.017 42.014l-15.527 37.27 5.49 8.797h191.957z" fill="#ffa95f"/><path d="m341.77 42.015c-10.599-25.442-35.456-42.015-63.018-42.015h-23.694c27.561 0 52.419 16.573 63.017 42.015l15.525 37.268-5.144 8.797h23.694l5.144-8.797z" fill="#e69a5e"/><path d="m397.113 502.573-33.141-314.84-9.517-7.175c-8.262-6.229-13.121-15.976-13.121-26.323v-30.745l-.01.006c10.486-9.383 17.087-23.019 17.076-38.2-.007-9.409-7.658-17.03-17.067-17.03h-170.666c-9.409 0-17.06 7.621-17.067 17.029-.011 15.181 6.59 28.818 17.076 38.2l-.01-.006v30.744c0 10.348-4.859 20.095-13.121 26.324l-9.518 7.175-33.141 314.84c-.53 5.038 3.42 9.427 8.486 9.427h265.253c5.068.001 9.018-4.387 8.488-9.426z" fill="#ffe07d"/><g><path d="m356.778 451.466c-3.904 0-7.257-2.95-7.675-6.918l-5.39-51.205c-.447-4.243 2.632-8.046 6.875-8.493 4.251-.451 8.045 2.633 8.493 6.875l5.39 51.205c.447 4.243-2.632 8.046-6.875 8.493-.275.029-.549.043-.818.043z" fill="#e69a5e"/></g><g><path d="m155.223 451.461c-.271 0-.543-.014-.818-.043-4.244-.447-7.322-4.25-6.875-8.493l5.39-51.2c.447-4.244 4.251-7.318 8.493-6.875 4.244.447 7.322 4.25 6.875 8.493l-5.39 51.2c-.418 3.968-3.771 6.918-7.675 6.918z" fill="#e69a5e"/></g><g fill="#ffa95f"><ellipse cx="307.201" cy="273.067" rx="17.067" ry="17.067" transform="matrix(.13 -.992 .992 .13 -3.436 542.218)"/><ellipse cx="307.201" cy="341.333" rx="17.067" ry="17.067" transform="matrix(.967 -.256 .256 .967 -77.213 90.122)"/></g><g><path d="m187.734 229.593c-4.267 0-7.726-3.459-7.726-7.726v-51.199c0-4.268 3.459-7.726 7.726-7.726s7.726 3.459 7.726 7.726v51.199c0 4.267-3.459 7.726-7.726 7.726z" fill="#ecf4ff"/></g><g><path d="m324.27 229.593c-4.268 0-7.726-3.459-7.726-7.726v-51.199c0-4.268 3.459-7.726 7.726-7.726 4.268 0 7.726 3.459 7.726 7.726v51.199c.001 4.267-3.458 7.726-7.726 7.726z" fill="#ecf4ff"/></g><path d="m118.301 470.14-1.622 15.41c.266.028.536.043.809.043h277.024c.273 0 .543-.015.809-.043l-1.622-15.41z" fill="#ffd064"/><path d="m255.041 162.928c-4.267 0-7.726 3.459-7.726 7.726v341.346h15.452v-341.346c0-4.268-3.459-7.726-7.726-7.726z" fill="#e69a5e"/><path d="m204.801 68.267c-9.699 0-17.509 8.091-17.047 17.892.432 9.179 8.34 16.242 17.529 16.242 9.159 0 16.585 7.425 16.585 16.585v16.839c0 18.599 14.582 34.32 33.174 34.83 19.289.529 35.092-14.95 35.092-34.12v-17.549c0-9.16 7.425-16.585 16.585-16.585 9.19 0 17.097-7.062 17.529-16.242.462-9.801-7.348-17.892-17.047-17.892z" fill="#5c545f"/><path d="m307.201 68.267h-23.694c9.699 0 17.509 8.091 17.047 17.892-.432 9.179-8.34 16.241-17.529 16.241-9.159 0-16.585 7.425-16.585 16.585v17.549c0 14.662-9.249 27.155-22.227 31.988 3.382 1.276 7.019 2.028 10.828 2.132 19.289.529 35.093-14.95 35.093-34.12v-17.549c0-9.16 7.425-16.585 16.585-16.585 9.19 0 17.097-7.062 17.529-16.241.461-9.801-7.348-17.892-17.047-17.892z" fill="#4b3f4e"/><g fill="#e69a5e"><path d="m154.053 92.028c1.629 12.45 7.716 23.497 16.624 31.468l-.01-.006v10.497c4.518 2.767 9.358 5.102 14.488 6.915.852.301 1.721.444 2.575.444 3.183 0 6.164-1.982 7.285-5.153 1.422-4.023-.686-8.438-4.709-9.86-16.7-5.903-29.666-18.593-36.253-34.305z"/><path d="m321.695 126.334c-4.023 1.423-6.132 5.837-4.709 9.86 1.122 3.172 4.102 5.153 7.285 5.153.854 0 1.724-.143 2.576-.444 5.13-1.813 9.97-4.149 14.488-6.915v-10.498l-.01.006c8.908-7.971 14.995-19.017 16.624-31.467-6.589 15.711-19.554 28.402-36.254 34.305z"/></g></g></svg>