<svg id="Capa_1" enable-background="new 0 0 512 512" height="512" viewBox="0 0 512 512" width="512" xmlns="http://www.w3.org/2000/svg"><g><g><path d="m153.6 113.817-68.267 68.267v-136.241h68.267z" fill="#f5e1c1"/><path d="m129.968 137.45 23.632-23.633v-67.974h-23.632z" fill="#efcfa6"/><path d="m162.667 51.2h-86.4c-4.418 0-8-3.582-8-8v-18.133c0-4.418 3.582-8 8-8h86.4c4.418 0 8 3.582 8 8v18.133c0 4.418-3.582 8-8 8z" fill="#ff8086"/><path d="m162.425 17.067h-23.694c4.552 0 8.242 3.69 8.242 8.241v17.65c0 4.552-3.69 8.242-8.242 8.242h23.694c4.552 0 8.242-3.69 8.242-8.242v-17.65c0-4.551-3.69-8.241-8.242-8.241z" fill="#e5646e"/></g><g><g><path d="m85.333 197.966 170.667-175.13 170.667 175.13v246.138h-341.334z" fill="#f5e1c1"/></g><path d="m315.733 444.104v-145.437c0-4.713-3.82-8.533-8.533-8.533h-102.4c-4.713 0-8.533 3.82-8.533 8.533v145.067z" fill="#d19a6e"/><path d="m402.973 173.652v270.452h23.694v-246.137z" fill="#f0cea5"/><path d="m307.2 290.133h-23.694c4.713 0 8.533 3.82 8.533 8.533v145.364l23.694.073v-145.437c0-4.712-3.82-8.533-8.533-8.533z" fill="#c38c66"/></g><path d="m322.153 204.657c-6.136 24.057-25.049 43.006-49.086 49.193l-34.125.002c-23.991-6.171-42.879-25.056-49.056-49.044l-.023-34.058c6.152-24.028 25.054-42.95 49.07-49.132l34.128-.002c24.041 6.185 42.957 25.137 49.093 49.197z" fill="#ecf4ff"/><path d="m256 119.467c-4.043 0-7.997.371-11.847 1.046 32.052 5.612 56.419 33.561 56.419 67.221s-24.367 61.609-56.419 67.221c3.85.674 7.804 1.046 11.847 1.046 37.703 0 68.267-30.564 68.267-68.267s-30.564-68.267-68.267-68.267z" fill="#ddeafb"/><path d="m273.067 121.617c-5.455-1.404-11.174-2.151-17.067-2.151s-11.612.747-17.067 2.151v49.049h-49.049c-1.404 5.455-2.151 11.174-2.151 17.067s.747 11.612 2.151 17.067h49.049v49.049c5.455 1.404 11.174 2.151 17.067 2.151s11.612-.747 17.067-2.151v-49.049h49.049c1.404-5.455 2.151-11.173 2.151-17.067 0-5.893-.747-11.612-2.151-17.067h-49.049z" fill="#5c545f"/><g><path d="m442.698 231.436-180.664-180.664c-3.332-3.332-8.736-3.332-12.068 0l-180.664 180.664c-3.332 3.332-8.735 3.332-12.068 0l-12.067-12.068c-3.333-3.333-3.333-8.736 0-12.068l204.8-204.801c3.332-3.332 8.736-3.332 12.068 0l204.8 204.801c3.332 3.332 3.332 8.735 0 12.068l-12.068 12.068c-3.333 3.332-8.736 3.332-12.069 0z" fill="#ff8086"/></g><path d="m466.834 207.3-204.8-204.801c-3.332-3.332-8.736-3.332-12.068 0l-5.813 5.813 198.987 198.988c3.333 3.332 3.333 8.736 0 12.068l-6.254 6.255 5.813 5.813c3.332 3.332 8.736 3.332 12.068 0l12.068-12.068c3.331-3.332 3.331-8.736-.001-12.068z" fill="#e5646e"/><g fill="#4b3f4e"><path d="m244.153 120.512c10.705 1.874 20.545 6.251 28.914 12.489v-11.384c-5.455-1.404-11.173-2.151-17.067-2.151-4.043.001-7.997.372-11.847 1.046z"/><path d="m322.116 204.8c1.404-5.455 2.151-11.174 2.151-17.067s-.747-11.612-2.151-17.067h-23.711c1.406 5.456 2.168 11.171 2.168 17.067s-.762 11.61-2.168 17.067z"/><path d="m273.067 253.849v-11.384c-8.369 6.238-18.209 10.615-28.914 12.489 3.85.674 7.804 1.046 11.847 1.046 5.893 0 11.612-.747 17.067-2.151z"/></g><g><path d="m512 489.851v-103.006c0-18.803-18.245-33.345-37.996-26.889-11.526 3.768-18.883 14.785-18.892 26.912-.015 18.781-18.232 33.302-37.962 26.876-11.558-3.764-18.888-14.836-18.927-26.991-.059-18.748-18.255-33.225-37.962-26.808-11.558 3.764-18.888 14.836-18.927 26.992-.059 18.747-18.255 33.226-37.962 26.808-11.558-3.764-18.888-14.836-18.927-26.991-.059-18.748-18.255-33.225-37.962-26.808-11.558 3.764-18.888 14.836-18.927 26.992-.059 18.747-18.255 33.226-37.962 26.808-11.558-3.764-18.888-14.836-18.927-26.991-.059-18.748-18.255-33.225-37.962-26.808-11.558 3.764-18.888 14.836-18.927 26.992-.062 19.591-19.93 34.52-40.631 25.813-10.229-4.303-16.307-14.682-16.259-25.779.069-16.018-13.102-28.977-29.198-28.561-15.511.399-27.69 13.51-27.69 29.027v102.412z" fill="#ecf4ff"/><g fill="#ddeafb"><path d="m260.75 386.753c.038 12.155 7.369 23.227 18.927 26.991 7.613 2.479 14.995 1.83 21.199-.969-10.103-4.457-16.396-14.77-16.432-26.023-.059-18.748-18.255-33.225-37.962-26.808-.858.279-1.685.611-2.495.969 9.855 4.447 16.727 14.334 16.763 25.84z"/><path d="m374.528 386.753c.038 12.155 7.369 23.227 18.927 26.991 7.613 2.479 14.995 1.83 21.199-.969-10.103-4.457-16.396-14.77-16.432-26.023-.059-18.748-18.255-33.225-37.962-26.808-.858.279-1.685.611-2.495.969 9.854 4.447 16.726 14.334 16.763 25.84z"/><path d="m146.972 386.753c.038 12.155 7.369 23.227 18.927 26.991 7.613 2.479 14.996 1.83 21.199-.969-10.103-4.457-16.396-14.77-16.432-26.023-.059-18.748-18.255-33.225-37.962-26.808-.858.279-1.685.611-2.495.969 9.855 4.447 16.727 14.334 16.763 25.84z"/><path d="m474.004 359.956c-.847.277-1.663.604-2.464.956 9.882 4.458 16.766 14.387 16.766 25.932v103.007h23.694v-103.006c0-18.804-18.245-33.345-37.996-26.889z"/><path d="m33.194 386.97c-.048 11.097 6.03 21.476 16.259 25.779 8.525 3.586 16.906 3.156 23.823.05-.043-.018-.086-.032-.129-.05-10.229-4.303-16.307-14.682-16.259-25.779.069-16.018-13.102-28.977-29.198-28.561-3.939.102-7.661 1.026-11.025 2.599 9.794 4.525 16.579 14.454 16.529 25.962z"/></g><path d="m512 455.111c0-15.709-12.735-28.444-28.444-28.444-15.71 0-28.444 12.735-28.444 28.444s-12.735 28.444-28.444 28.444-28.444-12.735-28.444-28.444-12.735-28.444-28.444-28.444c-15.71 0-28.444 12.735-28.444 28.444s-12.735 28.444-28.444 28.444-28.444-12.735-28.444-28.444-12.739-28.444-28.448-28.444-28.444 12.735-28.444 28.444-12.735 28.444-28.445 28.444-28.444-12.735-28.444-28.444-12.735-28.444-28.445-28.444c-15.709 0-28.444 12.735-28.444 28.444s-12.735 28.444-28.445 28.444c-15.709 0-28.444-12.735-28.444-28.444s-12.735-28.444-28.444-28.444c-15.71 0-28.445 12.735-28.445 28.444v39.822c0 9.426 7.641 17.067 17.067 17.067h477.867c9.426 0 17.067-7.641 17.067-17.067v-39.822z" fill="#c3ddff"/><g fill="#a4ccff"><path d="m374.528 455.111c0 15.709 12.735 28.444 28.445 28.444 4.229 0 8.239-.93 11.847-2.586-9.793-4.494-16.598-14.379-16.598-25.859 0-15.71-12.735-28.445-28.444-28.445-4.229 0-8.239.93-11.847 2.586 9.792 4.495 16.597 14.38 16.597 25.86z"/><path d="m260.75 455.111c0 15.709 12.735 28.444 28.444 28.444 4.229 0 8.239-.93 11.847-2.586-9.792-4.494-16.597-14.379-16.597-25.859 0-15.71-12.735-28.445-28.444-28.445-4.229 0-8.239.93-11.847 2.586 9.792 4.495 16.597 14.38 16.597 25.86z"/><path d="m483.556 426.666c-4.229 0-8.239.93-11.847 2.586 9.793 4.494 16.597 14.378 16.597 25.859v39.822c0 9.426-7.641 17.067-17.067 17.067h23.694c9.426 0 17.067-7.641 17.067-17.067v-39.822c0-15.709-12.735-28.445-28.444-28.445z"/><path d="m146.973 455.111c0 15.709 12.735 28.444 28.444 28.444 4.229 0 8.239-.93 11.847-2.586-9.793-4.494-16.597-14.379-16.597-25.859 0-15.71-12.735-28.445-28.445-28.445-4.229 0-8.239.93-11.847 2.586 9.793 4.495 16.598 14.38 16.598 25.86z"/><path d="m33.195 455.111c0 15.709 12.735 28.444 28.444 28.444 4.229 0 8.239-.93 11.847-2.586-9.792-4.494-16.597-14.379-16.597-25.859 0-15.71-12.735-28.445-28.444-28.445-4.229 0-8.239.93-11.847 2.586 9.792 4.495 16.597 14.38 16.597 25.86z"/></g></g></g></svg>