<svg id="Capa_1" enable-background="new 0 0 512 512" height="512" viewBox="0 0 512 512" width="512" xmlns="http://www.w3.org/2000/svg"><g><path d="m222.003 76.803h62.498v52.942h-62.498z" fill="#b3e59f"/><path d="m222.917 146.003-74.703 20.017c-3.122.837-6.449-.163-8.593-2.581l-10.497-11.838c-4.665-5.261-13.335-2.938-14.745 3.951l-3.172 15.501c-.648 3.166-3.029 5.695-6.151 6.532l-35.529 9.52c-5.048 1.353-10.079-2.115-10.697-7.305-3.953-33.154 16.941-65.043 50.137-73.938l65.941-17.669c33.196-8.895 67.235 8.275 80.389 38.964 2.059 4.804-.564 10.322-5.612 11.675l-2.685.718z" fill="#95d6a4"/><path d="m289.083 146.003 74.703 20.017c3.122.837 6.449-.163 8.593-2.581l10.497-11.838c4.665-5.261 13.335-2.938 14.745 3.951l3.172 15.501c.648 3.166 3.029 5.695 6.151 6.532l35.529 9.52c5.048 1.353 10.079-2.115 10.697-7.305 3.953-33.154-16.941-65.043-50.137-73.938l-65.941-17.669c-33.196-8.895-67.235 8.275-80.389 38.964-2.059 4.804.564 10.322 5.612 11.675l2.685.718z" fill="#b3e59f"/><path d="m196.291 88.25-52.936-14.184c-3.122-.837-5.503-3.365-6.152-6.532l-3.172-15.5c-1.41-6.889-10.079-9.212-14.745-3.951l-10.496 11.837c-2.145 2.418-5.471 3.417-8.593 2.581l-35.529-9.52c-5.048-1.353-7.671-6.871-5.612-11.675 13.154-30.688 47.193-47.858 80.389-38.963l65.94 17.669c33.196 8.895 54.089 40.784 50.137 73.938-.204 1.71-.887 3.234-1.892 4.459z" fill="#b3e59f"/><path d="m0 465.951v-29.684c0-5.302 4.298-9.6 9.6-9.6h492.8c5.302 0 9.6 4.298 9.6 9.6v29.684z" fill="#bed8fb"/><path d="m502.4 426.667h-23.694c5.302 0 9.6 4.298 9.6 9.6v29.684h23.694v-29.684c0-5.302-4.298-9.6-9.6-9.6z" fill="#a4ccff"/><path d="m223.064 392.533h-52.398c-21.775 0-41.682 12.303-51.42 31.779l-2.354 4.708c-9.738 19.477-29.645 31.779-51.42 31.779h-65.472v34.133c0 9.427 7.641 17.068 17.067 17.068h477.867c9.426 0 17.067-7.641 17.067-17.067v-34.133h-65.473c-21.775 0-41.682-12.303-51.42-31.779l-2.354-4.708c-9.738-19.476-29.645-31.779-51.42-31.779h-52.398-65.872z" fill="#f7e3c1"/><path d="m187.733 477.867c9.426 0 17.067-7.641 17.067-17.067s-7.641-17.067-17.067-17.067h-17.067c-9.426 0-17.067 7.641-17.067 17.067s7.641 17.067 17.067 17.067z" fill="#ff8086"/><path d="m290.133 426.667h-68.266l9.934-283.135 24.199-39.484 24.166 39.576z" fill="#d19a6e"/><path d="m280.166 143.624-24.166-39.576-11.869 19.366 12.341 20.21 9.967 283.043h23.694z" fill="#c38c66"/><g><path d="m281.6 191.193h-51.2c-4.267 0-7.726-3.459-7.726-7.726 0-4.268 3.459-7.726 7.726-7.726h51.2c4.268 0 7.726 3.459 7.726 7.726s-3.459 7.726-7.726 7.726z" fill="#966a5b"/></g><g><path d="m284.445 272.26h-56.889c-4.267 0-7.726-3.459-7.726-7.726 0-4.268 3.459-7.726 7.726-7.726h56.889c4.268 0 7.726 3.459 7.726 7.726s-3.459 7.726-7.726 7.726z" fill="#966a5b"/></g><g><path d="m287.289 353.326h-62.577c-4.267 0-7.726-3.459-7.726-7.726s3.459-7.726 7.726-7.726h62.577c4.268 0 7.726 3.459 7.726 7.726s-3.459 7.726-7.726 7.726z" fill="#966a5b"/></g><g><path d="m307.2 434.393h-102.4c-4.267 0-7.726-3.459-7.726-7.726 0-4.268 3.459-7.726 7.726-7.726h102.4c4.268 0 7.726 3.459 7.726 7.726.001 4.268-3.458 7.726-7.726 7.726z" fill="#f1d0a4"/></g><path d="m477.385 256h-8.915c-4.053 0-7.546-2.853-8.352-6.826-3.162-15.58-16.937-27.307-33.451-27.307-16.881 0-30.899 12.254-33.646 28.352-.536 3.143-2.79 5.635-5.819 6.631-7.061 2.32-12.089 9.123-11.716 17.042.432 9.18 8.34 16.242 17.529 16.242h84.851c9.699 0 17.509-8.091 17.047-17.892-.431-9.18-8.339-16.242-17.528-16.242z" fill="#ecf4ff"/><path d="m477.385 256h-8.915c-4.054 0-7.546-2.853-8.352-6.826-3.162-15.581-16.937-27.308-33.451-27.308-4.165 0-8.155.749-11.846 2.115 10.939 4.05 19.238 13.543 21.602 25.193.806 3.972 4.299 6.826 8.352 6.826h8.915c9.19 0 17.097 7.062 17.529 16.242.462 9.801-7.348 17.892-17.047 17.892h23.694c9.699 0 17.509-8.091 17.047-17.892-.431-9.18-8.339-16.242-17.528-16.242z" fill="#ddeafb"/><path d="m34.615 256h8.915c4.054 0 7.546-2.853 8.352-6.826 3.162-15.58 16.937-27.307 33.451-27.307 16.881 0 30.899 12.254 33.646 28.352.536 3.143 2.79 5.635 5.819 6.631 7.061 2.32 12.089 9.123 11.716 17.042-.432 9.18-8.34 16.242-17.529 16.242h-84.852c-9.699 0-17.509-8.091-17.047-17.892.432-9.18 8.34-16.242 17.529-16.242z" fill="#ecf4ff"/><path d="m124.798 256.849c-3.029-.995-5.283-3.488-5.819-6.631-2.746-16.098-16.765-28.352-33.646-28.352-4.166 0-8.157.748-11.849 2.115 11.266 4.17 19.731 14.111 21.8 26.237.536 3.143 2.79 5.635 5.819 6.631 7.061 2.32 12.089 9.123 11.716 17.042-.432 9.18-8.34 16.242-17.529 16.242h23.694c9.19 0 17.097-7.062 17.529-16.242.374-7.919-4.654-14.722-11.715-17.042z" fill="#ddeafb"/><g fill="#f1d0a4"><path d="m369.059 424.313 2.354 4.708c9.738 19.476 29.645 31.779 51.42 31.779h23.694c-21.775 0-41.682-12.303-51.42-31.779l-2.354-4.708c-9.738-19.477-29.645-31.779-51.42-31.779h-23.694c21.775-.001 41.682 12.302 51.42 31.779z"/><path d="m488.306 460.8v34.133c0 9.426-7.641 17.067-17.067 17.067h23.694c9.425 0 17.067-7.641 17.067-17.067v-34.133z"/></g><path d="m187.733 443.733h-17.067c-1.134 0-2.241.116-3.314.327 7.839 1.543 13.753 8.448 13.753 16.739s-5.914 15.196-13.753 16.739c1.073.211 2.179.328 3.314.328h17.067c9.426 0 17.067-7.641 17.067-17.067 0-9.425-7.641-17.066-17.067-17.066z" fill="#e5646e"/><g fill="#95d6a4"><path d="m205.385 20.012-65.941-17.669c-9.964-2.67-20-2.976-29.528-1.288 1.945.345 3.891.768 5.834 1.288l65.941 17.669c33.195 8.895 54.089 40.784 50.137 73.938-.024.198-.075.384-.111.577l21.913 3.883c1.005-1.226 1.688-2.749 1.892-4.459 3.952-33.156-16.941-65.045-50.137-73.939z"/><path d="m403.035 105.861-65.941-17.669c-9.964-2.67-20-2.976-29.528-1.288 1.945.345 3.891.768 5.834 1.288l65.94 17.669c33.196 8.895 54.089 40.784 50.137 73.938-.154 1.288-.58 2.469-1.21 3.498l14.207 3.807c5.048 1.353 10.079-2.115 10.697-7.305 3.953-33.154-16.941-65.043-50.136-73.938z"/><path d="m293.941 94.082 74.703-20.017c3.122-.837 5.503-3.365 6.151-6.532l3.172-15.5c1.41-6.889 10.079-9.212 14.745-3.951l10.498 11.838c2.145 2.418 5.471 3.417 8.593 2.581l35.529-9.52c5.048-1.353 7.671-6.871 5.612-11.675-13.154-30.688-47.193-47.858-80.389-38.963l-65.94 17.669c-33.196 8.895-54.089 40.784-50.137 73.938.619 5.19 5.649 8.657 10.697 7.305l2.683-.719z"/></g><path d="m452.944 41.307c-12.384-28.892-43.28-45.794-74.555-40.252 22.216 3.934 41.655 18.775 50.861 40.252 2.059 4.804-.564 10.322-5.612 11.675l-21.478 5.755 1.05 1.184c2.144 2.418 5.471 3.417 8.593 2.581l35.529-9.52c5.048-1.353 7.671-6.871 5.612-11.675z" fill="#78c2a4"/><g><circle cx="221.867" cy="110.933" fill="#966a5b" r="34.133"/><circle cx="290.133" cy="128" fill="#966a5b" r="34.133"/><path d="m246.003 86.797c-9.576-9.576-23.425-12.272-35.408-8.09 4.698 1.639 9.11 4.336 12.864 8.09 13.33 13.33 13.33 34.942 0 48.272-3.754 3.754-8.166 6.451-12.864 8.09 11.983 4.182 25.832 1.485 35.408-8.09 13.329-13.33 13.329-34.942 0-48.272z" fill="#785353"/><path d="m314.269 103.864c-9.576-9.576-23.425-12.272-35.408-8.09 4.698 1.639 9.11 4.336 12.864 8.09 13.33 13.33 13.33 34.942 0 48.272-3.754 3.754-8.166 6.451-12.864 8.09 11.983 4.182 25.832 1.485 35.408-8.09 13.33-13.33 13.33-34.942 0-48.272z" fill="#785353"/><g fill="#6e4848"><path d="m319.104 146.043-11.439-11.439c-3.018-3.016-7.91-3.016-10.928 0-3.017 3.018-3.017 7.91 0 10.928l11.44 11.439c2.163-1.35 4.212-2.955 6.092-4.835 1.88-1.881 3.486-3.93 4.835-6.093z"/><path d="m204.335 117.538-11.439 11.44c1.35 2.163 2.955 4.212 4.834 6.091 1.88 1.88 3.929 3.485 6.092 4.835l11.439-11.44c3.018-3.017 3.018-7.91 0-10.927-3.016-3.016-7.908-3.017-10.926.001z"/></g></g></g></svg>