<svg id="Capa_1" enable-background="new 0 0 512 512" height="512" viewBox="0 0 512 512" width="512" xmlns="http://www.w3.org/2000/svg"><g><g><path d="m422.587 151.847c16.825-7.964 28.463-25.096 28.463-44.947 0-27.449-22.251-49.7-49.7-49.7s-49.7 22.251-49.7 49.7c0 6.309 1.176 12.344 3.32 17.897v27.05z" fill="#ffe07d"/><g><path d="m401.35 31.567c-4.142 0-7.5-3.358-7.5-7.5v-16.567c0-4.142 3.358-7.5 7.5-7.5s7.5 3.358 7.5 7.5v16.567c0 4.142-3.358 7.5-7.5 7.5z" fill="#ffe07d"/></g><g><path d="m342.778 55.828c-1.919 0-3.839-.732-5.303-2.197l-11.715-11.714c-2.929-2.929-2.929-7.678 0-10.606 2.929-2.929 7.678-2.929 10.606 0l11.714 11.714c2.929 2.929 2.929 7.678 0 10.606-1.463 1.465-3.383 2.197-5.302 2.197z" fill="#ffe07d"/></g><g><path d="m318.517 114.4h-16.567c-4.142 0-7.5-3.358-7.5-7.5s3.358-7.5 7.5-7.5h16.566c4.142 0 7.5 3.358 7.5 7.5.001 4.142-3.357 7.5-7.499 7.5z" fill="#ffe07d"/></g><g><path d="m471.636 184.687c-1.919 0-3.839-.732-5.303-2.197l-11.714-11.714c-2.929-2.929-2.929-7.678 0-10.606 2.929-2.929 7.678-2.929 10.606 0l11.714 11.714c2.929 2.929 2.929 7.678 0 10.606-1.464 1.464-3.383 2.197-5.303 2.197z" fill="#ffe07d"/></g><g><path d="m500.75 114.4h-16.567c-4.142 0-7.5-3.358-7.5-7.5s3.358-7.5 7.5-7.5h16.567c4.142 0 7.5 3.358 7.5 7.5s-3.358 7.5-7.5 7.5z" fill="#ffe07d"/></g><g><path d="m459.922 55.828c-1.919 0-3.839-.732-5.303-2.197-2.929-2.929-2.929-7.678 0-10.606l11.714-11.714c2.929-2.929 7.678-2.929 10.606 0 2.929 2.929 2.929 7.678 0 10.606l-11.714 11.714c-1.464 1.465-3.384 2.197-5.303 2.197z" fill="#ffe07d"/></g><path d="m422.587 151.847c16.825-7.964 28.463-25.096 28.463-44.947 0-27.449-22.251-49.7-49.7-49.7s-49.7 22.251-49.7 49.7c0 6.309 1.176 12.344 3.32 17.897v27.05z" fill="#ffe07d"/><path d="m401.35 57.2c-3.984 0-7.854.482-11.567 1.368 21.868 5.215 38.133 24.868 38.133 48.332 0 19.851-11.638 36.983-28.463 44.947h23.133c16.825-7.964 28.463-25.096 28.463-44.947.001-27.448-22.25-49.7-49.699-49.7z" fill="#ffd064"/></g><g><g><path d="m434.483 173.167h-.023c-1.221 0-2.272-.821-2.613-1.993-8.026-27.564-33.476-47.707-63.631-47.707-11.275 0-21.887 2.825-31.179 7.795-3.642 1.948-8.163.93-10.478-2.49-8.934-13.196-24.04-21.872-41.176-21.872-4.007 0-7.903.477-11.635 1.374-4.043.972-8.218-1.2-9.524-5.148-12.002-36.299-46.202-62.492-86.524-62.492-50.322 0-91.117 40.794-91.117 91.117 0 1.143.029 2.278.077 3.409.047 1.119-.32 2.217-1.009 3.1l-.071.091c-.863 1.106-2.17 1.758-3.571 1.835-44.09 2.401-79.009 39.257-78.247 84.122.771 45.353 38.501 81.392 83.861 81.392h345.872c36.419 0 66.776-28.971 67.249-65.387.48-37.001-29.37-67.146-66.261-67.146z" fill="#ecf4ff"/><path d="m434.483 173.167h-.023c-1.221 0-2.272-.821-2.613-1.993-8.026-27.564-33.476-47.707-63.631-47.707-11.275 0-21.887 2.825-31.179 7.795-3.642 1.948-8.163.93-10.478-2.49-8.934-13.196-24.04-21.872-41.176-21.872-4.007 0-7.903.477-11.635 1.374-4.043.972-8.218-1.2-9.524-5.148-12.002-36.299-46.202-62.492-86.524-62.492-50.322 0-91.117 40.794-91.117 91.117 0 1.143.029 2.278.077 3.409.047 1.119-.32 2.217-1.009 3.1l-.071.091c-.863 1.106-2.17 1.758-3.571 1.835-44.09 2.401-79.009 39.257-78.247 84.122.771 45.353 38.501 81.392 83.861 81.392h345.872c36.419 0 66.776-28.971 67.249-65.387.48-37.001-29.37-67.146-66.261-67.146z" fill="#ecf4ff"/><path d="m434.483 173.167h-.023c-1.221 0-2.272-.821-2.613-1.993-8.026-27.564-33.476-47.707-63.631-47.707-3.921 0-7.759.349-11.492 1.004 24.976 4.374 45.142 22.728 52.123 46.703.341 1.172 1.392 1.993 2.613 1.993h.023c36.891 0 66.741 30.145 66.261 67.146-.472 36.417-30.829 65.387-67.249 65.387h23c36.419 0 66.776-28.97 67.249-65.387.48-37.001-29.37-67.146-66.261-67.146z" fill="#daeaff"/><path d="m161.917 222.867c0 4.143 3.358 7.5 7.5 7.5s7.5-3.357 7.5-7.5c0-51.289-39.79-93.458-90.122-97.262-.135 2.031-.211 4.079-.211 6.145 0 1.143.029 2.278.077 3.409.047 1.119-.32 2.217-1.009 3.1l-.071.091c-.863 1.106-2.17 1.759-3.571 1.835-.665.036-1.321.105-1.981.157 45.212.353 81.888 37.23 81.888 82.525z" fill="#ddeafb"/><g><path d="m272.922 108.427c-3.772.513-7.481-1.621-8.697-5.301-.753-2.277-1.594-4.515-2.518-6.709-27.7 9.785-47.607 36.217-47.607 67.225 0 4.143 3.358 7.5 7.5 7.5s7.5-3.357 7.5-7.5c0-26.752 18.766-49.421 43.822-55.174z" fill="#ddeafb"/></g><path d="m375.717 243.183c0-4.143-3.358-7.5-7.5-7.5s-7.5 3.357-7.5 7.5c0 25.638 12.519 48.397 31.756 62.517h41.022c.803 0 1.599-.031 2.396-.059-33.389-1.238-60.174-28.771-60.174-62.458z" fill="#ddeafb"/></g></g><g><path d="m36.883 412.6c-4.142 0-7.5-3.358-7.5-7.5v-66.267c0-4.142 3.358-7.5 7.5-7.5s7.5 3.358 7.5 7.5v66.267c0 4.142-3.358 7.5-7.5 7.5z" fill="#bed8fb"/></g><g><path d="m144.567 412.6c-4.142 0-7.5-3.358-7.5-7.5v-66.267c0-4.142 3.358-7.5 7.5-7.5s7.5 3.358 7.5 7.5v66.267c0 4.142-3.358 7.5-7.5 7.5z" fill="#bed8fb"/></g><g><path d="m90.725 512c-4.142 0-7.5-3.358-7.5-7.5v-66.267c0-4.142 3.358-7.5 7.5-7.5s7.5 3.358 7.5 7.5v66.267c0 4.142-3.358 7.5-7.5 7.5z" fill="#bed8fb"/></g><g><path d="m198.408 512c-4.142 0-7.5-3.358-7.5-7.5v-66.267c0-4.142 3.358-7.5 7.5-7.5s7.5 3.358 7.5 7.5v66.267c0 4.142-3.358 7.5-7.5 7.5z" fill="#bed8fb"/></g><g><path d="m306.092 512c-4.142 0-7.5-3.358-7.5-7.5v-66.267c0-4.142 3.358-7.5 7.5-7.5s7.5 3.358 7.5 7.5v66.267c0 4.142-3.358 7.5-7.5 7.5z" fill="#bed8fb"/></g><g><path d="m413.775 512c-4.142 0-7.5-3.358-7.5-7.5v-66.267c0-4.142 3.358-7.5 7.5-7.5s7.5 3.358 7.5 7.5v66.267c0 4.142-3.358 7.5-7.5 7.5z" fill="#bed8fb"/></g><g><path d="m252.25 412.6c-4.142 0-7.5-3.358-7.5-7.5v-66.267c0-4.142 3.358-7.5 7.5-7.5s7.5 3.358 7.5 7.5v66.267c0 4.142-3.358 7.5-7.5 7.5z" fill="#bed8fb"/></g><g><path d="m359.933 412.6c-4.142 0-7.5-3.358-7.5-7.5v-66.267c0-4.142 3.358-7.5 7.5-7.5s7.5 3.358 7.5 7.5v66.267c0 4.142-3.358 7.5-7.5 7.5z" fill="#bed8fb"/></g><g><path d="m467.617 412.6c-4.142 0-7.5-3.358-7.5-7.5v-66.267c0-4.142 3.358-7.5 7.5-7.5s7.5 3.358 7.5 7.5v66.267c0 4.142-3.358 7.5-7.5 7.5z" fill="#bed8fb"/></g><g><path d="m369.654 37.874c-2.943 0-5.736-1.744-6.932-4.632l-3.17-7.653c-1.585-3.827.232-8.214 4.059-9.799 3.827-1.583 8.214.233 9.799 4.059l3.17 7.653c1.585 3.827-.232 8.214-4.059 9.799-.938.389-1.911.573-2.867.573z" fill="#fff0af"/></g><g><path d="m324.819 82.703c-.957 0-1.929-.184-2.867-.573l-7.653-3.17c-3.827-1.585-5.644-5.973-4.059-9.799 1.585-3.827 5.973-5.644 9.799-4.059l7.653 3.17c3.827 1.585 5.644 5.973 4.059 9.799-1.196 2.889-3.989 4.632-6.932 4.632z" fill="#fff0af"/></g><g><path d="m485.528 149.271c-.956 0-1.929-.184-2.867-.573l-7.653-3.17c-3.827-1.585-5.644-5.973-4.059-9.799 1.586-3.827 5.972-5.643 9.799-4.059l7.653 3.17c3.827 1.585 5.644 5.973 4.059 9.799-1.196 2.888-3.989 4.632-6.932 4.632z" fill="#fff0af"/></g><g><path d="m477.881 82.703c-2.943 0-5.736-1.744-6.932-4.632-1.585-3.827.233-8.214 4.059-9.799l7.653-3.17c3.826-1.584 8.214.232 9.799 4.059s-.233 8.214-4.059 9.799l-7.653 3.17c-.938.389-1.911.573-2.867.573z" fill="#fff0af"/></g><g><path d="m433.046 37.874c-.956 0-1.929-.184-2.867-.573-3.827-1.585-5.644-5.973-4.059-9.799l3.17-7.653c1.585-3.827 5.972-5.644 9.799-4.059 3.827 1.586 5.644 5.973 4.059 9.799l-3.17 7.653c-1.196 2.888-3.989 4.632-6.932 4.632z" fill="#fff0af"/></g></g></svg>