<svg id="Capa_1" enable-background="new 0 0 512 512" height="512" viewBox="0 0 512 512" width="512" xmlns="http://www.w3.org/2000/svg"><g><path d="m324.266 34.133c0-18.851-15.282-34.133-34.133-34.133h-238.933c-18.851 0-34.133 15.282-34.133 34.133v443.733c0 18.852 15.282 34.134 34.133 34.134h238.933c18.851 0 34.133-15.282 34.133-34.133z" fill="#c8c5c9"/><path d="m221.867 320.138v-233.962c0-28.077-22.252-51.567-50.325-52.035-28.678-.479-52.075 22.624-52.075 51.193v234.804c0 2.559-1.161 4.967-3.133 6.598-19.164 15.842-31.293 39.893-30.995 66.768.508 45.694 37.587 83.264 83.271 84.339 48.068 1.131 87.39-37.497 87.39-85.309 0-26.486-12.069-50.151-31.005-65.802-1.971-1.629-3.128-4.037-3.128-6.594z" fill="#ecf4ff"/><g><path d="m85.333 93.06h-34.133c-4.267 0-7.726-3.459-7.726-7.726s3.459-7.726 7.726-7.726h34.133c4.267 0 7.726 3.459 7.726 7.726 0 4.266-3.459 7.726-7.726 7.726z" fill="#ff8086"/></g><g><path d="m85.333 195.46h-34.133c-4.267 0-7.726-3.459-7.726-7.726s3.459-7.726 7.726-7.726h34.133c4.267 0 7.726 3.459 7.726 7.726s-3.459 7.726-7.726 7.726z" fill="#ff8086"/></g><g><path d="m68.266 127.193h-17.066c-4.267 0-7.726-3.459-7.726-7.726s3.459-7.726 7.726-7.726h17.066c4.267 0 7.726 3.459 7.726 7.726s-3.459 7.726-7.726 7.726z" fill="#5c545f"/></g><g><g><path d="m68.266 161.327h-17.066c-4.267 0-7.726-3.459-7.726-7.726s3.459-7.726 7.726-7.726h17.066c4.267 0 7.726 3.459 7.726 7.726 0 4.266-3.459 7.726-7.726 7.726z" fill="#5c545f"/></g></g><g><path d="m85.333 297.86h-34.133c-4.267 0-7.726-3.459-7.726-7.726s3.459-7.726 7.726-7.726h34.133c4.267 0 7.726 3.459 7.726 7.726s-3.459 7.726-7.726 7.726z" fill="#ff8086"/></g><g><path d="m68.266 229.593h-17.066c-4.267 0-7.726-3.459-7.726-7.726s3.459-7.726 7.726-7.726h17.066c4.267 0 7.726 3.459 7.726 7.726 0 4.266-3.459 7.726-7.726 7.726z" fill="#5c545f"/></g><g><g><path d="m68.266 263.726h-17.066c-4.267 0-7.726-3.459-7.726-7.726s3.459-7.726 7.726-7.726h17.066c4.267 0 7.726 3.459 7.726 7.726s-3.459 7.726-7.726 7.726z" fill="#5c545f"/></g></g><circle cx="273.067" cy="273.067" fill="#ecf4ff" r="17.067"/><path d="m324.267 34.133c-.001-18.851-15.283-34.133-34.134-34.133h-23.694c18.851 0 34.133 15.282 34.133 34.133v443.733c0 18.851-15.282 34.133-34.133 34.133h23.694c18.851 0 34.133-15.282 34.133-34.133z" fill="#b6b1b7"/><g><circle cx="392.533" cy="153.6" fill="#bed8fb" r="102.4"/><path d="m392.533 51.2c-4.008 0-7.959.238-11.847.686 50.972 5.873 90.553 49.168 90.553 101.714s-39.581 95.841-90.553 101.714c3.888.448 7.839.686 11.847.686 56.554 0 102.4-45.846 102.4-102.4s-45.846-102.4-102.4-102.4z" fill="#9dc6fb"/><path d="m460.8 145.874h-18.058l7.024-8.781c2.666-3.332 2.126-8.194-1.206-10.86-3.334-2.666-8.195-2.126-10.86 1.207l-14.747 18.434h-22.694v-22.693l18.435-14.748c3.332-2.665 3.872-7.528 1.206-10.86s-7.528-3.873-10.86-1.207l-8.781 7.025v-18.057c0-4.267-3.459-7.726-7.726-7.726-4.268 0-7.726 3.459-7.726 7.726v18.057l-8.78-7.024c-3.334-2.666-8.194-2.125-10.86 1.206-2.666 3.333-2.126 8.195 1.206 10.86l18.434 14.747v22.693h-22.694l-14.747-18.433c-2.665-3.332-7.527-3.873-10.86-1.207-3.332 2.665-3.872 7.528-1.206 10.86l7.024 8.78h-18.058c-4.268 0-7.726 3.459-7.726 7.726s3.459 7.726 7.726 7.726h18.057l-7.024 8.78c-2.666 3.332-2.126 8.194 1.206 10.86 1.425 1.14 3.13 1.694 4.822 1.694 2.267 0 4.512-.993 6.038-2.9l14.746-18.433h22.695v22.694l-18.434 14.747c-3.332 2.665-3.872 7.528-1.206 10.86 2.666 3.333 7.527 3.873 10.86 1.207l8.78-7.024v18.057c0 4.267 3.459 7.726 7.726 7.726 4.268 0 7.726-3.459 7.726-7.726v-18.057l8.78 7.024c1.425 1.14 3.129 1.694 4.822 1.694 2.267 0 4.512-.993 6.038-2.9 2.666-3.332 2.126-8.194-1.206-10.86l-18.434-14.747v-22.694h22.694l14.748 18.433c1.526 1.908 3.772 2.9 6.038 2.9 1.692-.001 3.397-.554 4.822-1.694 3.332-2.665 3.872-7.528 1.206-10.86l-7.024-8.781h18.058c4.268 0 7.726-3.459 7.726-7.726 0-4.266-3.459-7.725-7.726-7.725z" fill="#ecf4ff"/></g><path d="m224.995 326.731c-1.97-1.628-3.128-4.036-3.128-6.593v-233.962c0-28.077-22.252-51.567-50.325-52.035-4.417-.074-8.707.416-12.808 1.395 22.708 5.46 39.404 26.324 39.404 50.641v233.962c0 2.556 1.158 4.964 3.128 6.593 18.936 15.652 31.005 39.316 31.005 65.802 0 43.083-31.933 78.694-73.418 84.493 3.202.449 6.454.739 9.756.816 48.069 1.131 87.391-37.497 87.391-85.309 0-26.486-12.069-50.151-31.005-65.803z" fill="#ddeafb"/><g><path d="m187.733 338.572v-39.905c0-4.713-3.82-8.533-8.533-8.533h-17.067c-4.713 0-8.533 3.82-8.533 8.533v39.854c0 3.273-1.834 6.313-4.794 7.712-18.158 8.587-30.459 27.53-29.259 49.211 1.448 26.155 22.886 47.223 49.061 48.249 29.214 1.145 53.258-22.2 53.258-51.16 0-20.402-11.936-38.008-29.204-46.236-2.993-1.425-4.929-4.41-4.929-7.725z" fill="#bed8fb"/><path d="m192.663 346.298c-2.993-1.426-4.93-4.411-4.93-7.727v-39.905c0-4.713-3.821-8.533-8.533-8.533h-17.067c-1.175 0-2.295.238-3.314.668 3.067 1.294 5.22 4.328 5.22 7.866v39.905c0 3.316 1.936 6.3 4.93 7.727 17.267 8.228 29.204 25.834 29.204 46.236 0 24.195-16.788 44.459-39.347 49.808 3.163.757 6.434 1.221 9.783 1.352 29.214 1.145 53.258-22.2 53.258-51.16 0-20.403-11.937-38.009-29.204-46.237z" fill="#9dc6fb"/></g></g></svg>