<svg id="Capa_1" enable-background="new 0 0 512 512" height="512" viewBox="0 0 512 512" width="512" xmlns="http://www.w3.org/2000/svg"><g><g><g><path d="m272.813 142.116c0-9.286-7.527-16.813-16.813-16.813-9.285 0-16.813 7.527-16.813 16.813v361.478c0 4.643 3.764 8.406 8.407 8.406h16.813c4.643 0 8.407-3.764 8.407-8.406v-361.478z" fill="#dad8db"/><path d="m256 125.303c-4.537 0-8.646 1.805-11.671 4.726 3.165 3.057 5.142 7.338 5.142 12.087v361.478c0 3.485-2.121 6.474-5.142 7.749 1.004.423 2.107.658 3.264.658h16.813c4.643 0 8.407-3.764 8.407-8.406v-361.479c0-9.286-7.527-16.813-16.813-16.813z" fill="#c8c5c9"/><g><path d="m340.091 411.123c1.356 0 2.61-.678 3.389-1.788 16.949-24.138 45.651-40.245 80.696-40.245 35.331 0 62.18 16.371 79.009 40.838.512.744 1.35 1.195 2.253 1.195 1.521 0 2.761-1.242 2.745-2.763-1.481-138.011-113.818-249.432-252.179-249.432h-.008c-138.361 0-250.699 111.422-252.179 249.432-.016 1.521 1.224 2.762 2.745 2.763.903 0 1.741-.451 2.253-1.195 16.829-24.467 43.678-40.838 79.009-40.838 35.045 0 63.747 16.107 80.696 40.245.779 1.109 2.033 1.787 3.389 1.788l84.091-111.771z" fill="#ff8086"/><path d="m171.939 411.121c1.345-.01 2.588-.684 3.362-1.786 16.949-24.138 45.651-40.245 80.696-40.245h.007c35.045 0 63.747 16.107 80.696 40.245.775 1.104 2.022 1.779 3.37 1.786 0-139.283-37.637-252.193-84.065-252.193-46.429 0-84.066 112.911-84.066 252.193z" fill="#ffe07d"/><path d="m256.004 158.928h-.008c-3.912 0-7.799.102-11.667.278 126.541 5.764 228.773 104.769 239.582 229.931 7.423 5.914 13.868 12.932 19.274 20.791.512.744 1.35 1.195 2.253 1.195 1.521 0 2.761-1.242 2.745-2.763-1.481-138.01-113.818-249.432-252.179-249.432z" fill="#e5646e"/><path d="m256.004 158.928c-3.961 0-7.856.841-11.671 2.431 38.449 16.023 68.574 110.046 72.052 227.089 7.909 5.908 14.749 12.961 20.314 20.887.775 1.104 2.022 1.779 3.37 1.786-.001-139.282-37.638-252.193-84.065-252.193z" fill="#ffd064"/></g><path d="m239.187 470.763v15.223h33.626v-15.223z" fill="#b6b1b7"/></g></g><g fill="#c3ddff"><path d="m37.432 0c-4.204 0-7.611 3.408-7.611 7.611v67.252c0 4.204 3.408 7.612 7.611 7.612s7.611-3.408 7.611-7.612v-67.252c0-4.203-3.408-7.611-7.611-7.611z"/><path d="m146.716 0c-4.204 0-7.612 3.408-7.612 7.611v67.252c0 4.204 3.408 7.612 7.612 7.612s7.611-3.408 7.611-7.612v-67.252c.001-4.203-3.407-7.611-7.611-7.611z"/><path d="m92.074 100.878c-4.204 0-7.612 3.408-7.612 7.611v67.252c0 4.204 3.408 7.611 7.612 7.611s7.611-3.408 7.611-7.611v-67.252c0-4.204-3.407-7.611-7.611-7.611z"/><path d="m419.926 100.878c-4.204 0-7.612 3.408-7.612 7.611v67.252c0 4.204 3.408 7.611 7.612 7.611s7.611-3.408 7.611-7.611v-67.252c.001-4.204-3.407-7.611-7.611-7.611z"/><path d="m256 0c-4.204 0-7.611 3.408-7.611 7.611v67.252c0 4.204 3.408 7.612 7.611 7.612s7.612-3.408 7.612-7.612v-67.252c0-4.203-3.408-7.611-7.612-7.611z"/><path d="m365.284 0c-4.204 0-7.611 3.408-7.611 7.611v67.252c0 4.204 3.408 7.612 7.611 7.612 4.204 0 7.612-3.408 7.612-7.612v-67.252c0-4.203-3.408-7.611-7.612-7.611z"/><path d="m474.568 0c-4.204 0-7.611 3.408-7.611 7.611v67.252c0 4.204 3.408 7.612 7.611 7.612s7.612-3.408 7.612-7.612v-67.252c0-4.203-3.408-7.611-7.612-7.611z"/></g></g></svg>