<svg id="Capa_1" enable-background="new 0 0 512 512" height="512" viewBox="0 0 512 512" width="512" xmlns="http://www.w3.org/2000/svg"><g><g><path d="m79.934 362.336 333.201-333.201c6.665-6.665 6.665-17.471 0-24.136s-17.471-6.665-24.136 0l-333.161 333.16z" fill="#fff0af"/><path d="m413.135 4.999c-6.594-6.594-17.235-6.653-23.915-.2.072.069.15.129.221.2 6.665 6.665 6.665 17.471 0 24.136l-321.335 321.334 11.827 11.867 333.202-333.201c6.664-6.665 6.664-17.471 0-24.136z" fill="#ffe07d"/></g><g><path d="m140.325 395.81 366.676-366.675c6.665-6.665 6.665-17.471 0-24.136s-17.471-6.665-24.136 0l-366.635 366.635z" fill="#fff0af"/><path d="m507.001 4.999c-6.594-6.594-17.235-6.653-23.915-.2.072.069.15.129.221.2 6.665 6.665 6.665 17.471 0 24.136l-354.809 354.809 11.827 11.867 366.676-366.676c6.665-6.665 6.665-17.471 0-24.136z" fill="#ffe07d"/></g><g><path d="m173.8 459.008 333.201-333.201c6.665-6.665 6.665-17.471 0-24.136s-17.471-6.665-24.136 0l-333.16 333.16z" fill="#fff0af"/><path d="m507.001 101.671c-6.594-6.594-17.235-6.653-23.915-.2.072.069.15.129.221.2 6.665 6.665 6.665 17.471 0 24.136l-321.334 321.334 11.827 11.867 333.201-333.201c6.665-6.666 6.665-17.471 0-24.136z" fill="#ffe07d"/></g><g fill="#fff0af"><path d="m409.6 367.74h-9.34v-9.34c0-4.267-3.459-7.726-7.726-7.726s-7.726 3.459-7.726 7.726v9.34h-9.34c-4.267 0-7.726 3.459-7.726 7.726s3.459 7.726 7.726 7.726h9.34v9.34c0 4.267 3.459 7.726 7.726 7.726s7.726-3.459 7.726-7.726v-9.34h9.34c4.267 0 7.726-3.459 7.726-7.726s-3.459-7.726-7.726-7.726z"/><path d="m494.933 248.273h-9.34v-9.34c0-4.267-3.459-7.726-7.726-7.726s-7.726 3.459-7.726 7.726v9.34h-9.341c-4.267 0-7.726 3.459-7.726 7.726s3.459 7.726 7.726 7.726h9.341v9.341c0 4.267 3.459 7.726 7.726 7.726s7.726-3.459 7.726-7.726v-9.341h9.34c4.267 0 7.726-3.459 7.726-7.726.001-4.266-3.459-7.726-7.726-7.726z"/><path d="m170.667 128.807h-9.34v-9.34c0-4.267-3.459-7.726-7.726-7.726s-7.726 3.459-7.726 7.726v9.34h-9.34c-4.267 0-7.726 3.459-7.726 7.726s3.459 7.726 7.726 7.726h9.34v9.341c0 4.267 3.459 7.726 7.726 7.726s7.726-3.459 7.726-7.726v-9.341h9.34c4.267 0 7.726-3.459 7.726-7.726s-3.459-7.726-7.726-7.726z"/><path d="m256.267 26.407h-9.34v-9.34c0-4.267-3.459-7.726-7.726-7.726s-7.726 3.459-7.726 7.726v9.34h-9.34c-4.267 0-7.726 3.459-7.726 7.726s3.459 7.726 7.726 7.726h9.34v9.341c0 4.267 3.459 7.726 7.726 7.726s7.726-3.459 7.726-7.726v-9.341h9.34c4.267 0 7.726-3.459 7.726-7.726s-3.459-7.726-7.726-7.726z"/></g><path d="m55.539 331.918 41.479 27.697c2.256 1.506 5.108 1.806 7.628.802l46.331-18.468c6.57-2.619 13.291 3.433 11.373 10.241l-13.524 48.008c-.735 2.611-.139 5.417 1.595 7.503l31.881 38.357c4.521 5.439.842 13.701-6.225 13.981l-49.838 1.973c-2.71.107-5.194 1.542-6.643 3.835l-26.628 42.174c-3.776 5.98-12.77 5.035-15.22-1.6l-17.278-46.788c-.94-2.544-3.071-4.464-5.7-5.132l-48.335-12.293c-6.855-1.743-8.735-10.589-3.182-14.97l39.159-30.89c2.13-1.68 3.296-4.3 3.12-7.007l-3.247-49.771c-.46-7.057 7.372-11.579 13.254-7.652z" fill="#ffe07d"/><path d="m75.141 359.615c2.256 1.506 5.108 1.806 7.628.802l9.675-3.856-36.905-24.643c-5.352-3.574-12.297-.143-13.163 5.819z" fill="#ffd064"/><path d="m182.304 446.058-31.881-38.357c-1.734-2.086-2.33-4.892-1.595-7.503l13.524-48.008c1.918-6.808-4.803-12.859-11.373-10.241l-10.952 4.365c.804 1.729 1.042 3.765.448 5.875l-13.524 48.008c-.735 2.611-.139 5.417 1.595 7.503l32.678 39.269c4.285 5.155 1.199 12.833-5.15 13.861l20.006-.792c7.066-.279 10.745-8.541 6.224-13.98z" fill="#ffd064"/><g fill="#ffe07d"><path d="m68.267 171.474c-4.267 0-7.726 3.459-7.726 7.726v17.066c0 4.268 3.459 7.726 7.726 7.726s7.726-3.459 7.726-7.726v-17.066c0-4.267-3.459-7.726-7.726-7.726z"/><path d="m68.267 239.74c-4.267 0-7.726 3.459-7.726 7.726v17.066c0 4.268 3.459 7.726 7.726 7.726s7.726-3.459 7.726-7.726v-17.066c0-4.267-3.459-7.726-7.726-7.726z"/><path d="m110.933 214.14h-17.066c-4.267 0-7.726 3.459-7.726 7.726 0 4.268 3.459 7.726 7.726 7.726h17.066c4.267 0 7.726-3.459 7.726-7.726s-3.459-7.726-7.726-7.726z"/><path d="m42.666 214.14h-17.066c-4.267 0-7.726 3.459-7.726 7.726 0 4.268 3.459 7.726 7.726 7.726h17.066c4.267 0 7.726-3.459 7.726-7.726.001-4.267-3.458-7.726-7.726-7.726z"/><path d="m307.2 393.34c-4.267 0-7.726 3.459-7.726 7.726v17.067c0 4.268 3.459 7.726 7.726 7.726s7.726-3.459 7.726-7.726v-17.067c.001-4.267-3.459-7.726-7.726-7.726z"/><path d="m307.2 461.607c-4.267 0-7.726 3.459-7.726 7.726v17.067c0 4.268 3.459 7.726 7.726 7.726s7.726-3.459 7.726-7.726v-17.067c.001-4.268-3.459-7.726-7.726-7.726z"/><path d="m349.867 436.007h-17.067c-4.267 0-7.726 3.459-7.726 7.726 0 4.268 3.459 7.726 7.726 7.726h17.067c4.267 0 7.726-3.459 7.726-7.726s-3.459-7.726-7.726-7.726z"/><path d="m281.6 436.007h-17.067c-4.267 0-7.726 3.459-7.726 7.726 0 4.268 3.459 7.726 7.726 7.726h17.067c4.267 0 7.726-3.459 7.726-7.726s-3.459-7.726-7.726-7.726z"/></g></g></svg>