<svg id="Capa_1" enable-background="new 0 0 512 512" height="512" viewBox="0 0 512 512" width="512" xmlns="http://www.w3.org/2000/svg"><g><g><g><path d="m444.953 356.861-15.736 4.995h-401.742c-11.036 0-19.982-8.946-19.982-19.982v-284.065c0-11.036 8.946-19.982 19.982-19.982h401.742l15.736 4.995z" fill="#61a2f9"/></g><g><path d="m429.217 37.828h55.308c11.036 0 19.982 8.946 19.982 19.982v284.066c0 11.036-8.946 19.982-19.982 19.982h-55.308z" fill="#dae7ef"/></g><g><path d="m7.493 317.54v24.335c0 11.036 8.946 19.982 19.982 19.982h401.742l15.736-4.995v-39.322z" fill="#4a81f6"/></g><g><path d="m484.525 37.828h-24.335v259.731c0 11.036-8.946 19.982-19.982 19.982h-10.991v44.317h55.308c11.036 0 19.982-8.946 19.982-19.982v-284.067c0-11.035-8.946-19.981-19.982-19.981z" fill="#c1d5e4"/></g><g><path d="m466.862 231.502c-4.138 0-7.493-3.355-7.493-7.493v-48.332c0-4.138 3.355-7.493 7.493-7.493s7.493 3.355 7.493 7.493v48.332c0 4.138-3.355 7.493-7.493 7.493z" fill="#407093"/></g><g><path d="m484.525 369.35h-457.05c-15.15 0-27.475-12.325-27.475-27.475v-284.066c0-15.15 12.325-27.475 27.475-27.475h457.05c15.15.001 27.475 12.326 27.475 27.476v284.066c0 15.149-12.325 27.474-27.475 27.474zm-457.05-324.029c-6.886 0-12.489 5.602-12.489 12.489v284.066c0 6.886 5.602 12.489 12.489 12.489h457.05c6.886 0 12.489-5.602 12.489-12.489v-284.066c0-6.886-5.602-12.489-12.489-12.489z" fill="#98b9d3"/></g></g><g><g><path d="m195.435 232.796h-139.503c-4.138 0-7.493-3.355-7.493-7.493s3.355-7.493 7.493-7.493h139.503c4.138 0 7.493 3.355 7.493 7.493s-3.354 7.493-7.493 7.493z" fill="#f6f9f9"/></g><g><path d="m195.435 272.385h-139.503c-4.138 0-7.493-3.355-7.493-7.493s3.355-7.493 7.493-7.493h139.503c4.138 0 7.493 3.355 7.493 7.493s-3.354 7.493-7.493 7.493z" fill="#f6f9f9"/></g><g><path d="m195.435 311.974h-139.503c-4.138 0-7.493-3.355-7.493-7.493s3.355-7.493 7.493-7.493h139.503c4.138 0 7.493 3.355 7.493 7.493s-3.354 7.493-7.493 7.493z" fill="#f6f9f9"/></g></g><g><g><path d="m351.698 232.796h-97.575c-4.138 0-7.493-3.355-7.493-7.493s3.355-7.493 7.493-7.493h97.575c4.138 0 7.493 3.355 7.493 7.493s-3.354 7.493-7.493 7.493z" fill="#f6f9f9"/></g><g><path d="m351.698 272.385h-97.575c-4.138 0-7.493-3.355-7.493-7.493s3.355-7.493 7.493-7.493h97.575c4.138 0 7.493 3.355 7.493 7.493s-3.354 7.493-7.493 7.493z" fill="#f6f9f9"/></g><g><path d="m351.698 311.974h-97.575c-4.138 0-7.493-3.355-7.493-7.493s3.355-7.493 7.493-7.493h97.575c4.138 0 7.493 3.355 7.493 7.493s-3.354 7.493-7.493 7.493z" fill="#f6f9f9"/></g></g><g><g><path d="m471.778 418.618c-2.192 1.622-3.402 4.254-3.402 6.981v49.073c0 3.862-3.131 6.994-6.994 6.994h-98.915c-3.862 0-6.994-3.131-6.994-6.994v-28.449c0-3.898-2.709-7.272-6.514-8.115l-5.12-1.134c-14.321-3.172-23.924-16.018-24.088-30.685-.038-3.402-1.194-6.699-3.292-9.382l-38.222-48.875c-2.688-3.438-1.522-8.045 2.131-11.012 12.052-9.425 29.462-7.295 38.886 4.756l17.936 25.489c.287.408.755.651 1.254.651.846 0 1.532-.685 1.533-1.532l.133-141.709c0-7.571 6.138-13.709 13.709-13.709h7.508c7.843 0 14.2 6.358 14.2 14.2v76.598c0-7.781 6.308-14.089 14.089-14.089h7.24c6.257 0 11.561 4.078 13.399 9.721.219.673 1.161.673 1.38 0 1.838-5.643 7.142-9.721 13.398-9.721h7.24c7.781 0 14.088 6.307 14.089 14.088v4.967c0 .746 1.009.981 1.335.31 1.908-3.934 4.165-8.811 12.754-9.111h7.24c7.781 0 14.088 6.308 14.088 14.089l.001 86.777c.002 8.128-3.934 15.333-10.002 19.823z" fill="#eaac9d"/></g><g><g><g><path d="m361.328 210.966h-7.129c-.855 0-1.688.089-2.501.235 6.586 1.182 11.588 6.928 11.588 13.854v75.837c0 5.309 4.304 9.613 9.613 9.613h2.629v-85.339c0-7.843-6.358-14.2-14.2-14.2z" fill="#df9380"/></g></g></g><g><g><g><g><path d="m467.692 297.928h-7.24c-.996.035-1.898.137-2.733.286 6.42 1.314 11.25 6.994 11.25 13.802l.002 86.777c0 8.103-3.911 15.288-9.947 19.781-2.16 1.608-3.459 4.12-3.459 6.813v49.232c0 3.891-3.154 7.044-7.044 7.044h12.812c3.89 0 7.044-3.154 7.044-7.044v-49.232c0-2.693 1.299-5.205 3.459-6.813 6.036-4.493 9.947-11.678 9.947-19.781l-.002-86.777c0-7.78-6.308-14.088-14.089-14.088z" fill="#df9380"/></g></g></g></g><g><g><path d="m338.674 367.892c.305-.046.578-.18.796-.378l.21.378z" fill="#df9380"/></g><g><path d="m319.254 341.776 17.936 25.489c.25.355.638.574 1.063.628h-7.789c-3.827 0-7.441-1.762-9.798-4.776l-16.811-21.496c-3.669-4.691-8.546-7.868-13.843-9.472 10.473-2.907 22.131.533 29.242 9.627z" fill="#df9380"/></g></g></g><g fill="#f6f9f9"><path d="m53.703 97.529c-3.131.976-5.263 3.874-5.263 7.154v66.636c0 4.138 3.355 7.493 7.493 7.493s7.493-3.355 7.493-7.493v-42.599l31.399 45.467c2.235 3.229 5.95 4.607 9.466 3.509 3.594-1.123 5.917-4.509 5.916-8.7l-.624-64.511c-.04-4.113-3.387-7.42-7.491-7.42-.024 0-.049 0-.074 0-4.138.04-7.46 3.427-7.42 7.565l.421 43.465-32.92-47.67c-1.864-2.699-5.266-3.869-8.396-2.896z"/><path d="m184.397 112.661c4.138 0 7.493-3.355 7.493-7.493s-3.355-7.493-7.493-7.493h-27.874c-4.138 0-7.493 3.355-7.493 7.493v66.152c0 4.138 3.355 7.493 7.493 7.493h27.874c4.138 0 7.493-3.355 7.493-7.493s-3.355-7.493-7.493-7.493h-20.38v-18.089h18.325c4.138 0 7.493-3.355 7.493-7.493s-3.355-7.493-7.493-7.493h-18.325v-18.089h20.38z"/><path d="m366.289 164.131c-6.872 0-13.494-2.78-17.713-7.435-2.779-3.066-7.518-3.3-10.584-.52-3.067 2.779-3.299 7.518-.52 10.584 7.013 7.738 17.786 12.357 28.817 12.357 13.656 0 25.118-8.683 27.254-20.645 1.601-8.969-2.513-20.702-18.864-26.732-8.335-3.074-16.084-6.425-18.32-7.405-1.579-1.227-2.337-3.138-2.04-5.204.192-1.34 1.153-4.612 5.907-6.044 9.866-2.974 18.929 4.219 19.158 4.405 3.168 2.631 7.87 2.213 10.523-.943 2.663-3.168 2.253-7.894-.915-10.557-.616-.518-15.287-12.615-33.089-7.253-8.895 2.68-15.186 9.678-16.419 18.264-1.153 8.036 2.328 15.764 9.087 20.171.331.216.679.405 1.04.566.385.172 9.554 4.253 19.882 8.062 3.128 1.154 10.296 4.442 9.297 10.038-.728 4.074-5.603 8.291-12.501 8.291z"/><path d="m261.979 97.702c-2.71.834-4.603 3.066-5.135 5.66l-13.105 42.34-8.366-42.294c-.803-4.06-4.746-6.7-8.805-5.896-4.059.803-6.699 4.745-5.896 8.805l13.007 65.758c1.633 8.802 14.958 9.351 17.355.742l13.154-42.497 13.095 42.507c2.41 8.613 15.73 8.034 17.357-.763l13.059-65.617c.807-4.059-1.828-8.004-5.887-8.812-4.061-.806-8.003 1.827-8.812 5.887l-8.394 42.175-13.26-43.041c-1.219-3.954-5.412-6.171-9.367-4.954z"/></g></g></svg>