<svg id="Capa_1" enable-background="new 0 0 504 504" height="512" viewBox="0 0 504 504" width="512" xmlns="http://www.w3.org/2000/svg"><g><path d="m182.959 477.82c-38.029 38.029-103.553 34.175-146.342-8.614-3.175-3.175-6.131-6.474-8.868-9.883-34.25-42.467-34.95-101.242.261-136.453 16.042-16.042 36.98-24.635 59.029-25.986 12.537-.768 23.263-9.451 26.411-21.611 3.34-12.9 9.876-24.854 19.683-34.662 29.594-29.593 75.27-26.013 110.748 2.579 3.395 2.736 6.694 5.692 9.876 8.875 36.479 36.479 43.879 88.211 11.46 120.631-9.807 9.807-21.761 16.343-34.662 19.683-12.16 3.148-20.842 13.874-21.617 26.405-1.343 22.056-9.937 42.994-25.979 59.036z" fill="#a44f3e"/><path d="m164.202 459.063c-35.21 35.21-93.979 34.518-136.453.261-34.25-42.467-34.95-101.242.261-136.453 16.042-16.042 36.98-24.635 59.029-25.986 12.537-.768 23.263-9.451 26.411-21.611 3.34-12.9 9.876-24.854 19.683-34.662 29.594-29.593 75.27-26.013 110.748 2.579 28.592 35.478 32.172 81.154 2.579 110.748-9.807 9.807-21.755 16.35-34.662 19.683-12.16 3.148-20.835 13.881-21.611 26.411-1.35 22.05-9.943 42.988-25.985 59.03z" fill="#bb5d4c"/><path d="m207.169 335.296-37.069-37.069 217.84-209.609 28.153 28.153z" fill="#e19974"/><path d="m190.023 318.151-19.923-19.924 217.84-209.609 15.808 15.808z" fill="#e8ad8c"/><path d="m126.537 426.613-46.548-46.548c-2.503-2.503-2.503-6.562 0-9.065l9.095-9.095c2.503-2.503 6.562-2.503 9.065 0l46.548 46.548c2.503 2.503 2.503 6.562 0 9.065l-9.095 9.095c-2.503 2.503-6.562 2.503-9.065 0z" fill="#e5e1e5"/><path d="m198.295 351.956c-12.434 12.434-32.591 12.427-45.018 0-2.702-2.702-4.821-5.768-6.344-9.046-5.507-11.789-3.388-26.24 6.344-35.972s24.182-11.851 35.972-6.344c3.278 1.523 6.344 3.642 9.046 6.344 12.427 12.428 12.434 32.584 0 45.018z" fill="#465a61"/><ellipse cx="168.091" cy="321.753" fill="#596c76" rx="29.922" ry="20.95" transform="matrix(.707 -.707 .707 .707 -178.281 213.097)"/><path d="m472.501 66.02-33.81-33.81c-3.327-3.327-8.759-3.204-11.932.271l-18.56 20.326c-2.956 3.237-5.463 6.856-7.454 10.761l-12.784 25.07 28.111 28.111 25.07-12.784c3.905-1.991 7.525-4.498 10.761-7.454l20.326-18.56c3.476-3.172 3.599-8.603.272-11.931z" fill="#a44f3e"/><path d="m461.347 54.866-22.657-22.656c-3.327-3.327-8.759-3.204-11.932.271l-18.56 20.326c-2.956 3.237-5.463 6.856-7.454 10.761l-12.784 25.07 16.957 16.957 25.07-12.784c3.905-1.991 7.525-4.498 10.761-7.454l20.326-18.56c3.477-3.172 3.6-8.603.273-11.931z" fill="#bb5d4c"/><g><path d="m78.196 403.145c-1.919 0-3.839-.732-5.303-2.197-2.929-2.929-2.929-7.677 0-10.606l8.686-8.687c2.929-2.929 7.678-2.93 10.606 0 2.929 2.929 2.929 7.677 0 10.606l-8.686 8.687c-1.465 1.464-3.384 2.197-5.303 2.197z" fill="#596c76"/></g><g><path d="m94.289 419.238c-1.919 0-3.839-.732-5.303-2.197-2.929-2.929-2.929-7.678 0-10.606l8.687-8.686c2.929-2.929 7.678-2.93 10.606 0 2.929 2.929 2.929 7.678 0 10.606l-8.687 8.686c-1.464 1.464-3.384 2.197-5.303 2.197z" fill="#596c76"/></g><g><path d="m111.127 436.075c-1.919 0-3.839-.732-5.303-2.197-2.929-2.929-2.929-7.678 0-10.606l8.686-8.686c2.929-2.929 7.678-2.929 10.606 0 2.929 2.929 2.929 7.678 0 10.606l-8.686 8.686c-1.464 1.465-3.384 2.197-5.303 2.197z" fill="#596c76"/></g><g fill="#7a8c98"><circle cx="442.267" cy="134.72" r="8.925"/><circle cx="467.978" cy="116.385" r="8.925"/><circle cx="493.244" cy="93.622" r="8.925"/><circle cx="367.449" cy="59.901" r="8.925"/><circle cx="385.784" cy="34.191" r="8.925"/><circle cx="408.547" cy="8.925" r="8.925"/></g></g></svg>