<svg id="Capa_1" enable-background="new 0 0 500.308 500.308" height="512" viewBox="0 0 500.308 500.308" width="512" xmlns="http://www.w3.org/2000/svg"><g><path d="m279.481 352.023c-10.99 9.78-23.08 17.35-36.78 20.88-12.9 3.35-22.11 14.72-22.93 28.02-1.43 23.4-10.54 45.63-27.57 62.65-40.35 40.36-109.87 36.27-155.28-9.14-3.6-3.6-6.94-7.36-10.02-11.25-35.76-45-36.27-106.88.88-144.03 17.03-17.02 39.25-26.13 62.65-27.57 13.3-.82 24.67-10.03 28.02-22.93 0 0 9.87-40.98 41.81-64.94 6.19-4.64 11.38-7.87 15.75-10.02 18.23-9 22.27.7 24.68 5.53 2.79 5.6-20.17 45.58-.27 69.98l.03.04c.85.87.96 1.2 2 2.26l-24.78 23.94-45.34 43.79-15 12.49-11.57 9.64-17.18 14.3-11.57 9.63-21.57 17.96 33.32 33.3s.02.02.05.05l19.3 19.3s26.87 23.69 48.66 14.3c5.92-2.55 10.83-5.49 14.94-8.71 10.31-8.08 15.54-17.94 18.78-27.97 3.73-11.57 4.81-23.37 7.95-32.95 1.42-4.31 3.25-8.17 5.93-11.36 22.31-26.52 45.92-13.98 48.42-32.45.07-.51.06-.98-.03-1.43-.99-5.15-11.95-6.47-23.87-9.45-6.52-1.6-13.3-3.72-18.92-7.21l16-16.66c3.23 1.08 30.46 9.94 45.49 9.98h.11c15.97.001 35.29 15.67 7.91 40.03z" fill="#0078c8"/><path d="m271.461 311.994c-1.33 5.42-5.34 11.73-13.24 18.76-1.79 1.59-3.61 3.13-5.46 4.58-9.52 7.56-19.86 13.35-31.33 16.31-12.9 3.33-22.11 14.71-22.92 28.01-.02.31-.04.61-.07.92-.79 11.44-3.44 22.58-7.95 32.95-4.43 10.21-10.69 19.69-18.78 27.97-.25.27-.52.54-.78.8-37.16 37.16-99.02 36.63-144.03.89-35.76-45-36.27-106.88.88-144.03 17.03-17.02 39.25-26.13 62.65-27.57 13.3-.82 24.67-10.03 28.02-22.93 0 0 9.87-40.98 41.81-64.94 6.19-4.64 11.38-7.87 15.75-10.02-4.97 17.01-11.2 43.32 8.21 59.32l16.2 16.19.03.04c.85.87.96 1.2 2 2.26l-24.78 23.94-45.34 43.79 34.092 34.083c2.881 2.88 7.566 2.833 10.388-.106l33.16-34.537 16-16.66c3.23 1.079 30.46 9.94 45.49 9.98z" fill="#3c87d0"/><path d="m252.791 336.763c-2.5 18.47-26.11 5.93-48.42 32.45-2.68 3.19-4.51 7.05-5.93 11.36-3.14 9.58-4.22 21.38-7.95 32.95-3.24 10.03-8.47 19.89-18.78 27.97-4.11 3.22-9.02 6.16-14.94 8.71-21.79 9.39-48.66-14.3-48.66-14.3l-19.24-19.24c-.02-.03-.04-.05-.06-.06-.03-.03-.05-.05-.05-.05l-33.32-33.3 21.57-17.96 3.17 3.17.08.09 38.71 38.71c1.47 1.46 3.39 2.2 5.31 2.2 1.91 0 3.83-.74 5.3-2.2 2.93-2.93 2.93-7.68 0-10.61l-11.67-11.66-27.15-27.15-2.18-2.18 17.18-14.3.76.76.08.09 38.71 38.71c1.47 1.46 3.39 2.19 5.31 2.19 1.867 0 3.734-.69 5.178-2.07 3.051-2.917 2.874-7.978-.11-10.962l-38.357-38.357 15-12.49 34.092 34.083c2.881 2.88 7.566 2.833 10.388-.106l33.16-34.537c5.62 3.49 12.4 5.61 18.92 7.21 11.92 2.98 22.88 4.3 23.87 9.45.089.449.099.919.029 1.429z" fill="#fedba6"/><path d="m228.891 325.883c-8.37 6.35-26.51 3.34-43.87 23.97-15.86 18.86-2.04 61.35-47.6 81-20.94 9.03-46.59-12.52-48.55-14.19-.02-.03-.04-.05-.06-.06-.03-.03-.05-.05-.05-.05l-33.32-33.3 21.57-17.96 3.17 3.17.08.09 38.71 38.71c1.47 1.46 3.39 2.2 5.31 2.2 1.91 0 3.83-.74 5.3-2.2 2.93-2.93 2.93-7.68 0-10.61l-11.67-11.66-27.15-27.15-2.18-2.18 17.18-14.3.76.76.08.09 38.71 38.71c1.47 1.46 3.39 2.19 5.31 2.19 1.867 0 3.734-.69 5.178-2.07 3.051-2.917 2.874-7.978-.11-10.962l-38.357-38.357 15-12.49 34.092 34.083c2.881 2.88 7.566 2.833 10.388-.106l33.16-34.537c5.619 3.489 12.399 5.609 18.919 7.209z" fill="#ffefd2"/><path d="m417.371 102.673-191.4 199.34-16 16.66-33.16 34.537c-2.822 2.939-7.507 2.987-10.388.106l-34.092-34.083 45.34-43.79 24.78-23.94 185.05-178.71z" fill="#596c76"/><path d="m149.019 335.912-16.683-16.683 255.163-246.431 16.362 16.362-244.534 246.729c-2.837 2.862-7.459 2.872-10.308.023z" fill="#7a8c98"/><path d="m73.406 434.686-32.117-32.117c-1.426-1.426-1.426-3.738 0-5.164l14.153-14.153 31.954 31.954z" fill="#e5e1e5"/><path d="m88.788 450.069-15.545-15.545c-1.426-1.426-1.426-3.738 0-5.164l14.153-14.153 20.709 20.709-14.153 14.153c-1.426 1.426-3.738 1.426-5.164 0z" fill="#baafb9"/><path d="m432.303 101.781-14.926.89-29.875-29.875 13.519-28.667c1.271-2.686 3.481-4.816 6.207-6l65.624-28.27c.278-.119.564-.231.85-.326 1.804-.612 3.735-.747 5.627-.382l13.145 2.511c4.006.763 5.857 5.444 3.457 8.734l-56.19 77.314c-1.747 2.402-4.473 3.904-7.438 4.071z" fill="#0078c8"/><path d="m414.001 86.153-10.141 3.007-16.358-16.365 13.519-28.667c1.271-2.686 3.481-4.816 6.207-6l65.624-28.27c.278-.119.564-.231.85-.326l-51.405 70.734c-1.748 2.401-5.331 5.721-8.296 5.887z" fill="#3c87d0"/><g><path d="" style="fill:none;stroke:#000;stroke-width:15;stroke-linecap:round;stroke-linejoin:round;stroke-miterlimit:10"/></g><g><path d="m155.921 380.923c-1.46 1.46-3.38 2.19-5.3 2.19s-3.84-.73-5.31-2.19l-38.71-38.71-.08-.09-.76-.76 11.57-9.64 38.59 38.59c2.93 2.931 2.93 7.681 0 10.61z" fill="#7a8c98"/></g><g fill="#7a8c98"><path d="m117.911 384.994-27.15-27.15c.04.03.07.06.11.1z"/><path d="m129.581 407.263c-1.47 1.46-3.39 2.2-5.3 2.2-1.92 0-3.84-.74-5.31-2.2l-38.71-38.71-.08-.09-3.17-3.17 11.57-9.63 2.18 2.18 27.15 27.15 11.67 11.66c2.93 2.93 2.93 7.68 0 10.61z"/></g><circle cx="149.315" cy="256.16" fill="#e5e1e5" r="8.41"/><g><path d="m156.516 240.681c-.786 0-1.586-.125-2.373-.387-3.93-1.31-6.053-5.558-4.744-9.487l5.547-16.642c1.31-3.93 5.558-6.054 9.487-4.744 3.93 1.31 6.053 5.557 4.744 9.487l-5.547 16.642c-1.048 3.143-3.974 5.131-7.114 5.131z" fill="#fd4755"/></g><g><path d="m492.808 69.209c-1.919 0-3.839-.732-5.303-2.197l-24.286-24.286c-2.929-2.929-2.929-7.678 0-10.606 2.929-2.929 7.678-2.929 10.606 0l24.286 24.286c2.929 2.929 2.929 7.678 0 10.606-1.464 1.465-3.384 2.197-5.303 2.197z" fill="#baafb9"/></g><g><path d="m474.777 87.24c-1.919 0-3.839-.732-5.303-2.197l-24.286-24.286c-2.929-2.929-2.929-7.678 0-10.606 2.929-2.929 7.678-2.929 10.606 0l24.286 24.286c2.929 2.929 2.929 7.678 0 10.606-1.464 1.465-3.384 2.197-5.303 2.197z" fill="#baafb9"/></g><g><path d="m456.746 105.272c-1.919 0-3.839-.732-5.303-2.197l-24.286-24.286c-2.929-2.929-2.929-7.678 0-10.606 2.929-2.929 7.678-2.929 10.606 0l24.286 24.286c2.929 2.929 2.929 7.678 0 10.606-1.464 1.464-3.384 2.197-5.303 2.197z" fill="#baafb9"/></g></g></svg>