<svg id="Capa_1" enable-background="new 0 0 497.002 497.002" height="512" viewBox="0 0 497.002 497.002" width="512" xmlns="http://www.w3.org/2000/svg"><g><path d="m263.244 375.659c-14.82 16.18-30.31 28.98-37.73 51.22-16.77 50.31-32.7 55.9-51.89 62.66-72.76 25.61-140.14-22.91-140.14-22.91s-3.04-3.45-7.24-9.85c-13.01-19.85-37.07-68.14-15.68-130.3 6.63-19.24 12.5-34.69 62.67-51.88 47.17-16.18 50.53-46.5 65.36-61.33 11.44-11.44 25.7-14.46 38.11-7.47 3.67 2.05 7.17 4.98 10.4 8.82 4.51 5.36 9.23 14.22 13.55 23.81 9.26 20.47 16.78 44.25 16.78 44.25s11.45 28.97 24.93 46.49c.73.96 1.5 1.9 2.29 2.83 13.51 16.1 32.61 28.38 18.59 43.66z" fill="#e41f2d"/><path d="m248.764 361.169c-14.82 16.18-30.32 28.98-37.74 51.22-16.76 50.31-32.69 55.91-51.88 62.66-58.56 20.61-113.62-6.78-132.9-18.27-13.01-19.85-37.07-68.14-15.68-130.3 6.63-19.24 12.5-34.69 62.67-51.88 47.17-16.18 50.53-46.5 65.36-61.33 11.44-11.44 25.7-14.46 38.11-7.47 3.2 5.05 6.43 11.42 9.46 18.14 9.27 20.47 28.23 73.23 41.71 90.74.74.96 34.9 31.21 20.89 46.49z" fill="#fd4755"/><path d="m244.651 332.001c-14.19 25.29-34.76 58.14-58.43 84.44-14.72 16.36-32.23 23.52-49.15 25.75-24.3 3.19-47.38-3.81-59.14-8.35-5.32-2.05-9.52-6.24-11.58-11.56-.02-.05-.04-.1-.06-.15-7.72-20.03-22.35-72.36 17.44-108.18 40.76-36.67 97.23-65.88 116.92-75.52 1.06 2.34 2.1 4.73 3.1 7.12.75 1.68 1.69 3.98 2.72 6.61l-6.25 6.04-10.79 10.43-14.574 14.078c-2.492 2.408-2.527 6.391-.076 8.841l33.842 33.842c2.45 2.45 6.432 2.416 8.84-.075l13.528-13.996c.61 1.1 1.23 2.21 1.86 3.31 2.94 5.14 6.16 10.19 9.51 14.54.73.96 1.5 1.9 2.29 2.83z" fill="#ffefd2"/><path d="m244.654 331.999c-14.19 25.29-34.76 58.14-58.43 84.44-14.72 16.36-32.23 23.52-49.15 25.75 33.44-30.11 77.69-103.57 93.74-131.2.67 1.21 1.35 2.43 2.04 3.64 2.94 5.14 6.16 10.19 9.51 14.54.73.96 1.5 1.9 2.29 2.83z" fill="#fedba6"/><path d="m413.221 122.681-53.25 55.11-10.42 10.79-25.49 26.4-10.42 10.79-19.7 20.38-10.42 10.79-16.52 17.1-10.42 10.79-14.61 15.12-10.42 10.79-.56.58-13.528 13.996c-2.408 2.491-6.39 2.525-8.84.075l-33.842-33.842c-2.45-2.45-2.416-6.434.076-8.841l14.574-14.078 26.09 26.08 10.42-10.79-25.72-25.72 6.25-6.04 8.87-8.57 10.79-10.42 17.11-16.51 10.79-10.42 20.38-19.7 10.79-10.42 26.39-25.5 10.79-10.42 55.11-53.23 19.69 19.69z" fill="#596c76"/><g fill="#7a8c98"><path d="m343.943 161.761-21.56-21.56 55.112-53.231 19.686 19.686z"/><path d="m308.029 198.948-22.825-22.826 26.389-25.498 21.927 21.927z"/><path d="m277.913 230.124-23.886-23.886 20.386-19.693 23.193 23.193z"/><path d="m250.973 258.012-24.841-24.841 17.105-16.51 24.254 24.253z"/><path d="m225.941 283.921-25.718-25.718 15.118-14.609 25.209 25.209z"/><path d="m192.596 309.364-17.816-17.816c-2.45-2.45-2.416-6.434.077-8.842l14.577-14.081 26.085 26.085-14.081 14.577c-2.408 2.493-6.392 2.528-8.842.077z"/></g><path d="m484.004 31.619c-3.85 14.97-42.4 70.48-50.93 82.65-1.08 1.54-2.62 2.7-4.4 3.32l-15.23 5.32-16.26-16.25-19.46-19.46 1.06-19c.16-3 1.82-5.72 4.42-7.25l57.12-33.53s-2.89-19.26 13.41-26.07c4.13-1.72 8.4-1.71 12.39-.45 11.74 3.69 21.11 18.14 17.88 30.72z" fill="#e41f2d"/><path d="m463.094 37.079c-10.7 27.59-65.91 69.58-65.91 69.58l-19.46-19.46 1.06-19c.16-3 1.82-5.72 4.42-7.25l57.12-33.53s-2.89-19.26 13.41-26.07c4.13-1.72 8.4-1.71 12.39-.45 2.78 8.979 2.79 21.16-3.03 36.18z" fill="#fd4755"/><path d="m107.473 412.576-20.013-20.013c-9.387-9.387-9.387-24.605 0-33.992 1.014-1.014 2.659-1.014 3.673 0l50.332 50.332c1.014 1.014 1.014 2.659 0 3.673-9.387 9.387-24.606 9.387-33.992 0z" fill="#d7d0d6"/><path d="m164.702 348.152c-1.919 0-3.839-.732-5.303-2.197l-29.662-29.662c-2.929-2.929-2.929-7.678 0-10.606 2.929-2.929 7.678-2.929 10.606 0l29.662 29.662c2.929 2.929 2.929 7.678 0 10.606-1.464 1.465-3.383 2.197-5.303 2.197z" fill="#596c76"/><path d="m170.182 382.268c-1.919 0-3.839-.732-5.303-2.197l-29.662-29.662c-2.929-2.929-2.929-7.678 0-10.606 2.929-2.929 7.678-2.929 10.606 0l29.662 29.662c2.929 2.929 2.929 7.678 0 10.606-1.464 1.465-3.384 2.197-5.303 2.197z" fill="#596c76"/><circle cx="115.293" cy="469.322" fill="#e5e1e5" r="8.41"/><circle cx="149.872" cy="466.926" fill="#e5e1e5" r="8.41"/><path d="m408.168 89.26c-1.919 0-3.839-.732-5.304-2.197-2.929-2.929-2.929-7.678 0-10.606l24.83-24.83c2.93-2.929 7.678-2.929 10.607 0s2.929 7.678 0 10.606l-24.83 24.83c-1.464 1.465-3.384 2.197-5.303 2.197z" fill="#fedba6"/><path d="m462.943 111.159c-1.417 0-2.851-.401-4.122-1.24l-15.529-10.24c-3.458-2.28-4.413-6.932-2.133-10.39 2.282-3.458 6.934-4.413 10.391-2.133l15.529 10.24c3.458 2.28 4.413 6.932 2.133 10.39-1.443 2.187-3.833 3.373-6.269 3.373z" fill="#e5e1e5"/><path d="m475.578 91.991c-1.466 0-2.947-.429-4.246-1.323l-15.299-10.534c-3.412-2.349-4.273-7.019-1.925-10.431 2.35-3.411 7.019-4.274 10.431-1.924l15.299 10.534c3.412 2.349 4.273 7.019 1.925 10.431-1.455 2.113-3.8 3.247-6.185 3.247z" fill="#e5e1e5"/><path d="m487.452 72.77c-1.466 0-2.947-.429-4.247-1.323l-15.298-10.534c-3.411-2.349-4.272-7.019-1.923-10.431 2.348-3.411 7.017-4.273 10.431-1.924l15.298 10.534c3.411 2.349 4.272 7.019 1.923 10.431-1.455 2.112-3.8 3.247-6.184 3.247z" fill="#e5e1e5"/><path d="m449.084 130.235c-1.478 0-2.971-.436-4.275-1.343l-14.785-10.284c-3.4-2.365-4.24-7.04-1.875-10.44s7.039-4.24 10.439-1.875l14.785 10.284c3.4 2.365 4.24 7.04 1.875 10.44-1.458 2.096-3.791 3.218-6.164 3.218z" fill="#e5e1e5"/><path d="m333.52 172.551-21.927-21.927 10.79-10.423 21.56 21.56z" fill="#d7d0d6"/><path d="m349.55 188.581-16.03-16.03 10.423-10.79 16.03 16.03z" fill="#baafb9"/><path d="m297.606 209.738-23.193-23.193 10.791-10.423 22.825 22.826z" fill="#d7d0d6"/><path d="m313.636 225.768-16.03-16.03 10.423-10.79 16.03 16.03z" fill="#baafb9"/><path d="m267.491 240.914-24.254-24.253 10.79-10.423 23.886 23.886z" fill="#d7d0d6"/><path d="m283.521 256.944-16.03-16.03 10.422-10.79 16.03 16.03z" fill="#baafb9"/><path d="m240.55 268.803-25.209-25.209 10.791-10.423 24.841 24.841z" fill="#d7d0d6"/><path d="m256.58 284.833-16.03-16.03 10.423-10.791 16.03 16.03z" fill="#baafb9"/><path d="m225.941 283.921-10.42 10.79-26.09-26.08 10.79-10.43z" fill="#d7d0d6"/><path d="m231.548 310.741-16.03-16.03 10.423-10.79 16.03 16.03z" fill="#baafb9"/></g></svg>