<svg id="Capa_1" enable-background="new 0 0 512 512" height="512" viewBox="0 0 512 512" width="512" xmlns="http://www.w3.org/2000/svg"><g><path d="m112.971 279.623c-8.302-19.267-9.044-40.78-2.09-60.574l30.384-86.491-28.309-18.75-33.137 94.33c-9.702 27.617-8.665 57.631 2.917 84.513l41.885 97.215c2.683 6.227 8.751 9.952 15.126 9.952 2.174 0 4.383-.434 6.506-1.348 8.35-3.598 12.202-13.282 8.605-21.632z" fill="#dae7ef"/><path d="m112.971 279.623c-8.302-19.267-9.044-40.78-2.09-60.574l30.384-86.491-13.667-9.052c-.057.169-.108.339-.167.508l-33.385 95.036c-6.954 19.794-6.211 41.307 2.09 60.574l41.885 97.215c3.311 7.684.301 16.486-6.706 20.646 2.534 1.508 5.447 2.333 8.431 2.333 2.174 0 4.383-.434 6.506-1.348 8.35-3.598 12.202-13.282 8.605-21.632z" fill="#c1d5e4"/><g><path d="m134.549 93.961c-4.132 0-7.483-3.35-7.483-7.483v-78.995c0-4.132 3.35-7.483 7.483-7.483s7.483 3.35 7.483 7.483v78.995c0 4.132-3.35 7.483-7.483 7.483z" fill="#407093"/></g><g><g><path d="m394.003 363.953c-1.186 0-2.389-.129-3.595-.397-8.874-1.976-14.465-10.773-12.489-19.647l34.544-155.067c1.978-8.874 10.77-14.467 19.648-12.488 8.874 1.976 14.465 10.773 12.489 19.647l-34.544 155.067c-1.71 7.667-8.511 12.885-16.053 12.885z" fill="#dae7ef"/></g></g><g><path d="m432.11 176.353c-4.061-.905-8.095-.212-11.476 1.641 6.263 3.43 9.789 10.687 8.158 18.007l-34.544 155.067c-1.072 4.812-4.151 8.656-8.158 10.854 1.326.725 2.768 1.289 4.317 1.634 1.206.269 2.409.397 3.595.397 7.542 0 14.344-5.217 16.053-12.886l34.544-155.067c1.977-8.874-3.615-17.67-12.489-19.647z" fill="#c1d5e4"/></g><g><path d="m359.595 210.982h123.799c2.755 0 4.988-2.233 4.988-4.988v-16.372c0-14.877-12.06-26.937-26.937-26.937h-43.486c-2.606 0-5.195.408-7.675 1.21l-51.481 16.648c-10.103 3.267-14.745 14.916-9.659 24.236 2.086 3.824 6.095 6.203 10.451 6.203z" fill="#407093"/></g><g><path d="m463.718 162.786c.063.75.103 1.507.103 2.274v16.372c0 2.755-2.233 4.988-4.988 4.988h-108.318c-3.853 5.097-4.715 12.23-1.371 18.358 2.087 3.824 6.095 6.203 10.451 6.203h123.799c2.755 0 4.988-2.233 4.988-4.988v-16.372c0-14.11-10.852-25.679-24.664-26.835z" fill="#2b4d66"/></g><g><path d="m99.809 363.446 28.904 98.38c4.043 13.76 16.67 23.211 31.011 23.211h252.742c15.911 0 29.455-11.579 31.929-27.296l11.813-75.045c.746-4.741-.826-9.551-4.228-12.936l-17.564-17.474c-3.661-3.642-5.185-8.915-4.033-13.949l5.787-25.275c.892-3.895-1.661-7.743-5.596-8.437l-50.977-8.978c-3.723-.656-7.555-.24-11.051 1.197l-167.913 69.062c-7.06 2.904-15.158 1.525-20.859-3.552l-29.111-25.921c-2.137-1.903-5.219-2.31-7.777-1.026l-39.508 19.828c-3.018 1.515-4.52 4.971-3.569 8.211z" fill="#407093"/></g><g><g><path d="m451.98 369.76-17.564-17.474c-3.661-3.642-5.185-8.915-4.033-13.949l5.787-25.275c.892-3.895-1.661-7.743-5.596-8.436l-30.595-5.389-7.795 35.016c-1.243 5.431.401 11.119 4.351 15.048l18.947 18.851c3.67 3.651 5.366 8.841 4.561 13.955l-12.743 80.956c-1.412 8.972-6.17 16.692-12.878 21.975h18.044c15.911 0 29.455-11.579 31.929-27.296l11.813-75.045c.747-4.742-.826-9.553-4.228-12.937z" fill="#2b4d66"/></g></g><g><circle cx="350.71" cy="397.281" fill="#dd5790" r="50.389"/></g><g><path d="m374.251 352.728c3.721 7.027 5.837 15.035 5.837 23.54 0 27.829-22.56 50.389-50.389 50.389-8.505 0-16.513-2.116-23.54-5.837 8.454 15.966 25.229 26.849 44.553 26.849 27.829 0 50.389-22.56 50.389-50.389-.001-19.323-10.884-36.098-26.85-44.552z" fill="#da387d"/></g><g><path d="m257.332 432.721c-2.971 0-5.781-1.781-6.951-4.709-1.533-3.837.335-8.191 4.173-9.724l74.975-29.951c3.833-1.531 8.192.334 9.724 4.173 1.533 3.838-.335 8.191-4.173 9.725l-74.975 29.951c-.909.363-1.849.535-2.773.535z" fill="#dae7ef"/></g><g><circle cx="438.91" cy="475.986" fill="#dae7ef" r="28.532"/></g><g><circle cx="130.063" cy="475.986" fill="#dae7ef" r="28.532"/></g><g><path d="m449.346 449.432c1.272 3.233 1.978 6.751 1.978 10.435 0 15.758-12.774 28.532-28.532 28.532-3.685 0-7.202-.706-10.435-1.978 4.167 10.594 14.481 18.096 26.554 18.096 15.758 0 28.532-12.774 28.532-28.532-.001-12.072-7.504-22.386-18.097-26.553z" fill="#c1d5e4"/></g><g><path d="m438.911 512c-19.859 0-36.015-16.156-36.015-36.014 0-19.859 16.156-36.014 36.015-36.014 19.858 0 36.014 16.156 36.014 36.014s-16.156 36.014-36.014 36.014zm0-57.063c-11.607 0-21.05 9.442-21.05 21.049 0 11.606 9.443 21.049 21.05 21.049 11.606 0 21.049-9.442 21.049-21.049-.001-11.607-9.444-21.049-21.049-21.049z" fill="#dd5790"/></g><g><path d="m140.498 449.432c1.272 3.233 1.978 6.751 1.978 10.435 0 15.758-12.774 28.532-28.532 28.532-3.685 0-7.202-.706-10.435-1.978 4.167 10.594 14.481 18.096 26.554 18.096 15.758 0 28.532-12.774 28.532-28.532 0-12.072-7.503-22.386-18.097-26.553z" fill="#c1d5e4"/></g><g><path d="m130.063 512c-19.859 0-36.015-16.156-36.015-36.014 0-19.859 16.156-36.014 36.015-36.014 19.858 0 36.014 16.156 36.014 36.014s-16.155 36.014-36.014 36.014zm0-57.063c-11.607 0-21.049 9.442-21.049 21.049 0 11.606 9.442 21.049 21.049 21.049 11.606 0 21.049-9.442 21.049-21.049s-9.442-21.049-21.049-21.049z" fill="#dd5790"/></g><g><path d="m140.345 135.918-112.248-74.347c-4.604-3.05-5.865-9.255-2.815-13.859l9.981-15.069 69.884 32.416s65.971 37.872 58.777 52.802c-.66 1.37-1.421 2.711-2.284 4.014l-7.436 11.227c-3.05 4.605-9.255 5.865-13.859 2.816z" fill="#407093"/></g><g><path d="m152.225 75.244-92.592-61.328c-4.594-3.043-10.784-1.785-13.827 2.808l-10.543 15.919 128.662 85.218c7.217-14.906 2.489-33.219-11.7-42.617z" fill="#61a2f9"/></g><g><path d="m262.009 457.316-38.059-38.059c-3.905-3.905-3.905-10.237 0-14.142l8.697-8.697c3.905-3.905 10.237-3.905 14.142 0l38.059 38.059c3.905 3.905 3.905 10.237 0 14.142l-8.697 8.697c-3.905 3.905-10.237 3.905-14.142 0z" fill="#dae7ef"/></g><g><path d="m284.865 434.493-38.091-38.091c-3.896-3.896-10.213-3.896-14.109 0l-3.915 3.915 34.541 34.541c3.896 3.896 3.896 10.213 0 14.109l-4.815 4.815 3.55 3.55c3.896 3.896 10.213 3.896 14.109 0l8.73-8.73c3.896-3.896 3.896-10.213 0-14.109z" fill="#c1d5e4"/></g><path d="m137.653 86.168c-.923 2.978-2.273 5.878-4.081 8.609l-14.621 22.075c-.804 1.214-1.831 2.187-2.987 2.917l24.381 16.149c4.604 3.05 10.809 1.789 13.859-2.815l7.436-11.227c.863-1.303 1.624-2.645 2.284-4.014 3.565-7.399-10.835-20.429-26.271-31.694z" fill="#2b4d66"/><g><path d="m152.225 75.244-92.592-61.328c-4.594-3.043-10.784-1.785-13.827 2.808l-10.543 15.919 128.662 85.218c7.217-14.906 2.489-33.219-11.7-42.617z" fill="#61a2f9"/></g><g><path d="m152.225 75.244-14.865-9.846c3.23 9.51 2.187 20.357-3.788 29.379l-1.372 2.071 31.725 21.012c7.217-14.905 2.489-33.218-11.7-42.616z" fill="#4a81f6"/></g><g><path d="m128.128 149.36c-2.698 0-5.303-1.463-6.638-4.019-1.914-3.663-.495-8.184 3.167-10.097l28.365-14.818c7.766-4.056 12.59-12.019 12.59-20.781v-91.565c0-4.132 3.35-7.483 7.483-7.483s7.483 3.35 7.483 7.483v91.565c0 14.354-7.904 27.4-20.627 34.045l-28.365 14.817c-1.106.579-2.291.853-3.458.853z" fill="#407093"/></g><g><path d="m458.309 263.31h-39.043c-4.133 0-7.483-3.35-7.483-7.483 0-4.132 3.35-7.483 7.483-7.483h39.043c4.133 0 7.483 3.35 7.483 7.483s-3.35 7.483-7.483 7.483z" fill="#407093"/></g><g><circle cx="472.386" cy="255.828" fill="#407093" r="15.996"/></g><g><path d="m476.962 240.505c.433 1.45.673 2.984.673 4.575 0 8.834-7.161 15.996-15.996 15.996-1.591 0-3.125-.24-4.575-.673 1.969 6.603 8.08 11.42 15.323 11.42 8.834 0 15.996-7.161 15.996-15.996-.001-7.242-4.818-13.353-11.421-15.322z" fill="#2b4d66"/></g></g></svg>