<svg id="Capa_1" enable-background="new 0 0 511.999 511.999" height="512" viewBox="0 0 511.999 511.999" width="512" xmlns="http://www.w3.org/2000/svg"><g><path d="m208.053 384.795v31.521c0 12.054-5.776 23.247-15.263 29.575l-22.914 15.285h172.249l-22.914-15.285c-9.487-6.328-15.263-17.521-15.263-29.575v-31.521c-31.534 0-64.363 0-95.895 0z" fill="#b1dbfc"/><path d="m208.053 384.795v31.521c0 12.054-5.776 23.247-15.263 29.575l-22.915 15.285h55.596l.483-.322c9.487-6.328 15.263-17.521 15.263-29.575v-21.822c0-5.357 4.342-9.699 9.699-9.699h53.029v-14.963z" fill="#8bcaff"/><path d="m358.159 460.071h-204.319c-5.689 0-10.301 4.612-10.301 10.301v11.535c0 5.689 4.612 10.301 10.301 10.301h204.319c5.689 0 10.301-4.612 10.301-10.301v-11.535c0-5.689-4.612-10.301-10.301-10.301z" fill="#dfebfa"/><path d="m200.629 481.907v-11.535c0-5.689 4.612-10.301 10.301-10.301h-57.09c-5.689 0-10.301 4.612-10.301 10.301v11.535c0 5.689 4.612 10.301 10.301 10.301h57.091c-5.69 0-10.302-4.612-10.302-10.301z" fill="#b1dbfc"/><g><g><path d="m482.31 19.791h-452.621c-16.371 0-29.689 13.318-29.689 29.689v306.986c0 16.371 13.318 29.689 29.689 29.689h452.621c16.371 0 29.689-13.318 29.689-29.689v-306.986c0-16.371-13.318-29.689-29.689-29.689z" fill="#695d67"/></g></g><path d="m34.342 356.466v-306.986c0-16.371 13.318-29.689 29.689-29.689h-34.342c-16.371 0-29.689 13.318-29.689 29.689v306.986c0 16.371 13.318 29.689 29.689 29.689h34.341c-16.37 0-29.688-13.318-29.688-29.689z" fill="#554e56"/><g><path d="m32.137 88.075v2.06 259.61c0 2.36 1.912 4.272 4.272 4.272h439.181c2.359 0 4.272-1.912 4.272-4.272 0-6.921 0-186.243 0-261.671h-447.725z" fill="#8479c2"/></g><path d="m63.045 349.746v-259.61-2.06h-30.908v2.06 259.61c0 2.36 1.912 4.272 4.272 4.272h30.907c-2.359 0-4.271-1.912-4.271-4.272z" fill="#6e60b8"/><path d="m475.59 51.928h-398.089v38.207h402.361c0-17.883 0-30.339 0-33.936 0-2.359-1.913-4.271-4.272-4.271z" fill="#5cb3f8"/><path d="m78.531 51.928h-42.122c-2.359 0-4.272 1.912-4.272 4.272v33.936h46.394z" fill="#ff656f"/><path d="m67.315 51.928h-30.906c-2.359 0-4.272 1.912-4.272 4.272v33.936h30.906v-33.936c0-2.36 1.913-4.272 4.272-4.272z" fill="#ff4756"/><path d="m171.533 240.084c34.183 26.678 64.527 5.402 70.318.823-3.635-21.831-17.187-40.302-35.874-50.632-7.682-4.246-12.32-12.463-12.32-21.241v-44.896h-44.247v44.902c0 8.858-4.781 17.036-12.52 21.346-18.372 10.232-31.747 28.347-35.55 49.774 6.096-4.957 36.254-26.564 70.193-.076z" fill="#dfebfa"/><path d="m164.409 190.385c6.582-4.31 10.648-12.488 10.648-21.346v-44.902h-25.648v44.902c0 8.858-4.781 17.036-12.52 21.346-18.372 10.232-31.747 28.347-35.55 49.774 3.899-3.17 17.639-13.148 35.915-13.003 5.121-15.674 14.809-28.685 27.155-36.771z" fill="#b1dbfc"/><g><g><path d="m199.462 131.864h-55.858c-4.267 0-7.726-3.459-7.726-7.726s3.459-7.726 7.726-7.726h55.858c4.267 0 7.726 3.459 7.726 7.726s-3.459 7.726-7.726 7.726z" fill="#b1dbfc"/></g></g><g><path d="m421.627 151.735h-121.673c-4.267 0-7.726-3.459-7.726-7.726 0-4.268 3.459-7.726 7.726-7.726h121.673c4.267 0 7.726 3.459 7.726 7.726s-3.459 7.726-7.726 7.726z" fill="#6e60b8"/></g><g><path d="m421.627 182.228h-121.673c-4.267 0-7.726-3.459-7.726-7.726s3.459-7.726 7.726-7.726h121.673c4.267 0 7.726 3.459 7.726 7.726s-3.459 7.726-7.726 7.726z" fill="#6e60b8"/></g><g><path d="m421.627 212.721h-121.673c-4.267 0-7.726-3.459-7.726-7.726 0-4.268 3.459-7.726 7.726-7.726h121.673c4.267 0 7.726 3.459 7.726 7.726 0 4.268-3.459 7.726-7.726 7.726z" fill="#6e60b8"/></g><g><path d="m421.627 243.214h-121.673c-4.267 0-7.726-3.459-7.726-7.726s3.459-7.726 7.726-7.726h121.673c4.267 0 7.726 3.459 7.726 7.726s-3.459 7.726-7.726 7.726z" fill="#6e60b8"/></g><g><path d="m421.627 273.708h-121.673c-4.267 0-7.726-3.459-7.726-7.726 0-4.268 3.459-7.726 7.726-7.726h121.673c4.267 0 7.726 3.459 7.726 7.726s-3.459 7.726-7.726 7.726z" fill="#6e60b8"/></g><g><path d="m421.627 304.2h-121.673c-4.267 0-7.726-3.459-7.726-7.726 0-4.268 3.459-7.726 7.726-7.726h121.673c4.267 0 7.726 3.459 7.726 7.726 0 4.268-3.459 7.726-7.726 7.726z" fill="#6e60b8"/></g><path d="m241.499 238.976s-32.656 29.119-69.966 0-69.966 0-69.966 0c-1.018 5.219-1.476 10.638-1.288 16.198 1.251 36.876 31.016 67.037 67.874 68.739 40.913 1.889 74.676-30.721 74.676-71.218 0-4.695-.464-9.279-1.33-13.719z" fill="#43cb8e"/><path d="m133.273 255.173c-.298-10.326 1.277-20.177 4.349-29.129-21.161-.344-36.056 12.931-36.056 12.931-1.018 5.219-1.476 10.638-1.288 16.198 1.25 36.876 31.016 67.037 67.874 68.739 5.302.245 10.48-.101 15.483-.957-27.858-5.612-49.383-33.844-50.362-67.782z" fill="#00ba66"/></g></svg>