<svg id="Capa_1" enable-background="new 0 0 512 512" height="512" viewBox="0 0 512 512" width="512" xmlns="http://www.w3.org/2000/svg"><g><path d="m61.954 55.347v436.847c0 10.939 8.868 19.806 19.806 19.806h348.478c10.939 0 19.807-8.868 19.807-19.806v-436.847z" fill="#dfebfa"/><path d="m95.95 492.194v-436.847h-33.996v436.847c0 10.939 8.868 19.806 19.806 19.806h33.996c-10.938 0-19.806-8.868-19.806-19.806z" fill="#b1dbfc"/><path d="m430.239 0h-313.648v57.407h333.455v-37.601c0-10.939-8.869-19.806-19.807-19.806z" fill="#5cb3f8"/><path d="m118.651 0h-36.89c-10.939 0-19.807 8.867-19.807 19.806v37.601h56.696v-57.407z" fill="#ff656f"/><path d="m115.757 0h-33.996c-10.939 0-19.807 8.867-19.807 19.806v37.601h33.996v-37.601c0-10.939 8.868-19.806 19.807-19.806z" fill="#ff4756"/><g><g><path d="m411.669 36.43h-255.327c-4.267 0-7.726-3.459-7.726-7.726s3.459-7.726 7.726-7.726h255.327c4.267 0 7.726 3.459 7.726 7.726s-3.459 7.726-7.726 7.726z" fill="#8bcaff"/></g></g><path d="m252.231 134.025c-50.765 1.935-91.812 43.98-92.604 94.775-.606 38.838 21.774 72.493 54.411 88.303 4.243 2.055 6.882 6.415 6.882 11.13v21.693c.44-.063.885-.106 1.341-.106h67.477c.456 0 .902.044 1.342.106v-21.696c0-4.728 2.663-9.082 6.918-11.145 32.186-15.608 54.388-48.575 54.388-86.747-.001-54.483-45.206-98.407-100.155-96.313z" fill="#ffe181"/><g fill="#fec458"><path d="m250.865 328.233c0-4.714-2.08-9.075-5.423-11.13-25.717-15.81-43.352-49.465-42.875-88.303.588-47.82 29.29-87.88 66.027-94.023-5.33-.696-10.796-.964-16.363-.752-50.765 1.935-91.812 43.98-92.605 94.775-.606 38.838 21.775 72.493 54.412 88.303 4.243 2.055 6.882 6.415 6.882 11.13v21.693c.44-.063.885-.106 1.342-.106h28.604v-21.587z"/><path d="m289.738 349.82c.456 0 .902.044 1.342.106v-.106z"/></g><path d="m225.521 372.741v25.318c0 11.682 9.47 21.152 21.152 21.152h18.654c11.682 0 21.152-9.47 21.152-21.152v-25.318z" fill="#6e60b8"/><path d="m256 398.059v-25.318h-30.48v25.318c0 11.682 9.47 21.152 21.152 21.152h18.654c2.054 0 4.034-.308 5.912-.854-8.8-2.56-15.238-10.67-15.238-20.298z" fill="#6353b2"/><g><path d="m267.841 353.531c-4.267 0-7.726-3.459-7.726-7.726v-37.811c0-6.473 2.295-12.767 6.462-17.721l14.098-16.762c1.828-2.173 2.835-4.935 2.835-7.775v-32.842c0-4.267 3.459-7.726 7.726-7.726s7.726 3.459 7.726 7.726v32.842c0 6.474-2.295 12.768-6.461 17.722l-14.098 16.762c-1.828 2.174-2.835 4.935-2.835 7.775v37.811c-.001 4.266-3.46 7.725-7.727 7.725z" fill="#fec458"/></g><g><path d="m244.159 353.532c-4.267 0-7.726-3.459-7.726-7.726v-37.811c0-2.84-1.007-5.601-2.835-7.774l-14.098-16.762c-4.167-4.955-6.462-11.248-6.462-17.722v-32.842c0-4.267 3.459-7.726 7.726-7.726s7.726 3.459 7.726 7.726v32.842c0 2.84 1.007 5.602 2.835 7.775l14.097 16.762c4.167 4.954 6.462 11.247 6.462 17.721v37.811c.001 4.267-3.458 7.726-7.725 7.726z" fill="#f9ab49"/></g><g><path d="m299.267 248.121h-86.535c-4.267 0-7.726-3.459-7.726-7.726s3.459-7.726 7.726-7.726h86.535c4.267 0 7.726 3.459 7.726 7.726s-3.458 7.726-7.726 7.726z" fill="#f9ab49"/></g><g><path d="m375.911 203.484c-2.835 0-5.563-1.565-6.916-4.273-1.908-3.816-.362-8.458 3.455-10.366l23.314-11.657c3.817-1.91 8.458-.361 10.366 3.455s.362 8.458-3.455 10.366l-23.314 11.657c-1.11.555-2.29.818-3.45.818z" fill="#fec458"/></g><g><path d="m399.212 289.418c-1.161 0-2.34-.263-3.449-.817l-23.314-11.657c-3.817-1.908-5.364-6.549-3.455-10.366 1.908-3.816 6.549-5.364 10.366-3.455l23.314 11.657c3.817 1.908 5.364 6.549 3.455 10.366-1.354 2.707-4.083 4.272-6.917 4.272z" fill="#fec458"/></g><g><path d="m407.719 240.621h-23.213c-4.267 0-7.726-3.459-7.726-7.726s3.459-7.726 7.726-7.726h23.213c4.267 0 7.726 3.459 7.726 7.726s-3.459 7.726-7.726 7.726z" fill="#fec458"/></g><g><path d="m136.09 203.484c-1.161 0-2.34-.263-3.449-.817l-23.314-11.657c-3.817-1.908-5.364-6.549-3.455-10.366 1.908-3.816 6.549-5.365 10.366-3.455l23.314 11.657c3.817 1.908 5.364 6.549 3.455 10.366-1.355 2.706-4.083 4.272-6.917 4.272z" fill="#fec458"/></g><g><path d="m112.788 289.418c-2.834 0-5.563-1.565-6.916-4.273-1.908-3.816-.362-8.458 3.455-10.366l23.314-11.657c3.817-1.909 8.458-.361 10.366 3.455s.362 8.458-3.455 10.366l-23.315 11.657c-1.109.555-2.288.818-3.449.818z" fill="#fec458"/></g><g><path d="m127.494 240.621h-23.214c-4.267 0-7.726-3.459-7.726-7.726s3.459-7.726 7.726-7.726h23.214c4.267 0 7.726 3.459 7.726 7.726s-3.458 7.726-7.726 7.726z" fill="#fec458"/></g><path d="m289.738 346.729h-67.477c-5.241 0-9.529 4.288-9.529 9.529v9.014c0 5.241 4.288 9.529 9.529 9.529h67.477c5.241 0 9.529-4.288 9.529-9.529v-9.014c0-5.241-4.288-9.529-9.529-9.529z" fill="#8479c2"/><path d="m243.212 365.272v-9.014c0-5.241 4.288-9.529 9.529-9.529h-30.479c-5.241 0-9.529 4.288-9.529 9.529v9.014c0 5.241 4.288 9.529 9.529 9.529h30.479c-5.241 0-9.529-4.288-9.529-9.529z" fill="#6e60b8"/></g></svg>