<svg id="Capa_1" enable-background="new 0 0 497 497" height="512" viewBox="0 0 497 497" width="512" xmlns="http://www.w3.org/2000/svg"><g><path d="m185.714 461.94c-34.696 34.696-87.01 41.054-128.162 19.06-9.242-4.923-17.907-11.281-25.693-19.067-4.558-4.558-8.623-9.411-12.196-14.517-2.434-3.46-4.649-7.04-6.618-10.712-22.289-41.222-16.015-93.79 18.814-128.619 28.513-28.513 91.293-8.806 91.293-8.806s46.68 3.889 57.083 14.292c10.402 10.402 14.292 57.083 14.292 57.083s13.75 68.724-8.813 91.286z" fill="#883f2e"/><path d="m187.803 433.983c-41.469 41.469-104.002 49.072-153.193 22.781-5.141-2.736-10.135-5.845-14.946-9.347-2.434-3.46-4.649-7.04-6.618-10.712-22.289-41.222-16.015-93.79 18.814-128.619 28.513-28.513 91.293-8.806 91.293-8.806s46.68 3.889 57.083 14.292c10.402 10.402 14.292 57.083 14.292 57.083s10.858 45.744-6.725 63.328z" fill="#a44f3e"/><g><path d="m144.849 385.163c-1.919 0-3.839-.732-5.304-2.197l-28.183-28.182c-2.929-2.929-2.929-7.678 0-10.606 2.93-2.929 7.678-2.929 10.607 0l28.183 28.182c2.929 2.929 2.929 7.678 0 10.606-1.464 1.464-3.384 2.197-5.303 2.197z" fill="#883f2e"/></g><g><path d="m97.876 403.424c-1.919 0-3.839-.732-5.304-2.197-2.929-2.929-2.929-7.678 0-10.606l32.617-32.618c2.93-2.929 7.678-2.929 10.607 0s2.929 7.678 0 10.606l-32.617 32.618c-1.464 1.465-3.384 2.197-5.303 2.197z" fill="#883f2e"/></g><path d="m185.715 461.943 8.806-91.293-4.881-66.493-66.493-4.881-91.286 8.813c42.481-42.481 148.544-61.654 182.023-28.176 31.692 31.692 14.312 139.549-28.169 182.03z" fill="#596c76"/><path d="m194.527 370.655s-1.491-17.893-5.092-33.985c-2.215-9.91-5.233-19.131-9.2-23.098-10.402-10.402-57.083-14.292-57.083-14.292l39-36.355c21.867.668 46.526-.602 57.533 10.405 5.113 5.113 8.954 12.217 11.605 20.706 2.898 9.228-1.407 26.689-1.175 38.442z" fill="#d7d0d6"/><path d="m225.487 300.617-36.053 36.053c-2.215-9.91-5.233-19.131-9.2-23.098-10.402-10.402-57.083-14.292-57.083-14.292l39-36.355c21.867.668 49.199-6.848 60.207 4.159 5.114 5.113.478 25.043 3.129 33.533z" fill="#e5e1e5"/><path d="m230.114 332.476c-.247-12.127-1.831-23.327-4.914-32.746-2.631-8.089-6.378-14.878-11.321-19.82-11.003-11.003-29.861-16.313-51.732-16.985l31.325-29.204 10.981-10.232 12.085-11.278 10.981-10.232 10.543-9.836 10.981-10.232 31.198-29.09 10.981-10.232 10.38-9.673 10.974-10.239 6.809-6.343 10.974-10.239 37.717-35.157 54.787 54.787-35.157 37.717-10.239 10.974-6.343 6.809-10.238 10.975-9.673 10.38-10.232 10.981-29.09 31.198-10.232 10.981-9.836 10.543-10.232 10.981-11.271 12.092-10.239 10.974z" fill="#e19974"/><path d="m225.206 299.73c-2.637-8.095-6.386-14.883-11.324-19.82-11.007-11.007-29.863-16.317-51.73-16.986l205.93-191.989 37.692 37.692z" fill="#e8ad8c"/><path d="m225.2 299.73c-2.631-8.089-6.378-14.878-11.321-19.82-11.003-11.003-29.861-16.313-51.732-16.985l31.325-29.204 10.981-10.232 12.085-11.278 10.981-10.232 10.543-9.836 10.981-10.232 31.198-29.09 10.981-10.232 10.38-9.673 10.974-10.239 6.809-6.343 10.974-10.239 37.717-35.157 37.689 37.689-35.405 37.469-10.303 10.911-6.392 6.76-10.31 10.904-9.737 10.317-10.31 10.904-29.288 31-10.302 10.911-9.907 10.472-10.303 10.911-11.349 12.014-10.31 10.904z" fill="#e8ad8c"/><path d="m94.038 446.866-47.1-47.1c-2.435-2.435-2.435-6.384 0-8.819l18.357-18.357c2.435-2.435 6.384-2.435 8.819 0l47.1 47.1c2.435 2.435 2.435 6.384 0 8.819l-18.357 18.357c-2.436 2.435-6.384 2.435-8.819 0z" fill="#fac600"/><path d="m76.605 429.434-29.668-29.668c-2.435-2.435-2.435-6.384 0-8.819l18.357-18.357c2.435-2.435 6.384-2.435 8.819 0l29.668 29.668c3.705 3.705 3.705 9.711 0 13.416l-13.76 13.76c-3.705 3.704-9.711 3.704-13.416 0z" fill="#fed402"/><path d="m57.559 481h-.01c-9.24-4.92-17.9-11.28-25.69-19.07-4.56-4.55-8.62-9.41-12.2-14.51-2.43-3.46-4.64-7.03-6.61-10.71 12.44-9.12 30-8.06 41.24 3.18 11.21 11.2 12.3 28.69 3.27 41.11z" fill="#baafb9"/><path d="m63.109 467.88c-9.81-2.54-19.39-6.25-28.5-11.12-5.14-2.73-10.13-5.84-14.95-9.34-2.43-3.46-4.64-7.03-6.61-10.71 12.44-9.12 30-8.06 41.24 3.18 7.62 7.61 10.56 18.13 8.82 27.99z" fill="#d7d0d6"/><path d="m496.639 48.26s-12.37 28.17-19.59 36.76c-7.22 8.6-19.59 5.16-23.36 8.94-3.79 3.78-30.82 31.76-30.82 31.76l.53-33.34.07-4.55c.09-6.16-4.52-11.38-10.65-12.04l-44.73-4.84-.01-.01 16.52-16.52s92.4-30.14 96.9-29.5c7.64 1.1 17.52 5.83 15.14 23.34z" fill="#883f2e"/><path d="m481.289 32.91s-12.37 28.17-19.59 36.77c-7.21 8.59-19.58 5.15-23.36 8.93l-14.94 13.77.07-4.55c.09-6.16-4.52-11.38-10.65-12.04l-44.73-4.84-.01-.01 16.52-16.52s92.4-30.14 96.9-29.5c.25 2.32.21 4.96-.21 7.99z" fill="#a44f3e"/><path d="m423.469 87.83-.07 4.55-17.63 16.25-37.68-37.68 44.73 4.84c6.13.66 10.74 5.88 10.65 12.04z" fill="#e5e1e5"/><path d="m423.399 92.38-.53 33.34-17.1-17.09z" fill="#d7d0d6"/><path d="m422.869 125.72v.01l-17.1-17.1z" fill="#d7d0d6"/><circle cx="38.552" cy="344.752" fill="#e5e1e5" r="7.753"/><circle cx="148.056" cy="454.256" fill="#e5e1e5" r="7.753"/><g><path d="m260.081 300.331-18.229-18.229 10.31-10.904 18.158 18.159z" fill="#883f2e"/><path d="m241.852 282.102-59.906-59.906c-2.928-2.928-2.927-7.679 0-10.607 2.934-2.934 7.679-2.928 10.607 0l59.609 59.609z" fill="#a44f3e"/></g><g><path d="m281.591 277.265-18.08-18.081 10.302-10.91 18.01 18.01z" fill="#883f2e"/><path d="m263.511 259.184-57.983-57.983c-2.934-2.934-2.928-7.679 0-10.607 2.934-2.934 7.672-2.934 10.607 0l57.679 57.679z" fill="#a44f3e"/></g><g><path d="m301.659 255.741-17.939-17.94 10.302-10.91 17.869 17.868z" fill="#883f2e"/><path d="m283.72 237.801-57.99-57.99c-2.928-2.928-2.927-7.679 0-10.607 2.927-2.927 7.679-2.928 10.607 0l57.686 57.686z" fill="#a44f3e"/></g><g><path d="m340.981 213.562-17.67-17.671 10.309-10.903 17.593 17.592z" fill="#883f2e"/><path d="m323.311 195.891-56.243-56.243c-2.927-2.927-2.927-7.679 0-10.607 2.935-2.92 7.679-2.927 10.614.007l55.939 55.939z" fill="#a44f3e"/></g><g><path d="m360.886 192.2-17.529-17.529 10.31-10.904 17.458 17.459z" fill="#883f2e"/><path d="m343.357 174.671-55.656-55.656c-2.927-2.927-2.935-7.672 0-10.607 2.934-2.92 7.679-2.927 10.614.007l55.352 55.352z" fill="#a44f3e"/></g><g><path d="m377.468 174.416-17.409-17.409 10.303-10.91 17.345 17.345z" fill="#883f2e"/><path d="m360.059 157.007-55.168-55.168c-2.934-2.934-2.928-7.679 0-10.607 2.927-2.927 7.672-2.934 10.607 0l54.865 54.864z" fill="#a44f3e"/></g><g fill="#596c76"><circle cx="410.023" cy="19.274" r="7.753"/><circle cx="436.779" cy="10.955" r="7.753"/></g></g></svg>