<svg id="Capa_1" enable-background="new 0 0 512 512" height="512" viewBox="0 0 512 512" width="512" xmlns="http://www.w3.org/2000/svg"><g><g><path d="m255.935 83.918c0 15.311-12.412 27.722-27.722 27.722s-27.723-12.412-27.723-27.722 12.412-67.5 27.722-67.5 27.723 52.189 27.723 67.5z" fill="#f6e266"/></g><g><path d="m228.212 16.418c-3.225 0-6.321 2.322-9.199 6.12 7.156 16.59 11.837 39.891 11.837 49.292 0 14.593-11.278 26.544-25.593 27.633 4.986 7.348 13.406 12.177 22.955 12.177 15.311 0 27.722-12.412 27.722-27.722s-12.411-67.5-27.722-67.5z" fill="#ecc32e"/></g><g><path d="m228.212 150.046c-4.143 0-7.5-3.357-7.5-7.5v-58.659c0-4.143 3.357-7.5 7.5-7.5s7.5 3.357 7.5 7.5v58.658c0 4.143-3.358 7.501-7.5 7.501z" fill="#407093"/></g><g><path d="m411.805 211.017c0 15.311-12.412 27.722-27.722 27.722-15.311 0-27.722-12.412-27.722-27.722s12.412-67.5 27.722-67.5 27.722 52.19 27.722 67.5z" fill="#f6e266"/></g><g><path d="m384.083 143.517c-3.225 0-6.321 2.322-9.199 6.12 7.156 16.59 11.837 39.891 11.837 49.292 0 14.593-11.278 26.544-25.593 27.633 4.986 7.348 13.406 12.177 22.955 12.177 15.311 0 27.722-12.412 27.722-27.722s-12.412-67.5-27.722-67.5z" fill="#ecc32e"/></g><g><path d="m384.083 285.014c-4.143 0-7.5-3.357-7.5-7.5v-66.527c0-4.143 3.357-7.5 7.5-7.5s7.5 3.357 7.5 7.5v66.527c0 4.143-3.357 7.5-7.5 7.5z" fill="#407093"/></g><g><path d="m314.008 371.733h-171.592v-218.223c0-11.046 8.954-20 20-20h131.593c11.046 0 20 8.954 20 20v218.223z" fill="#f6e266"/></g><g><path d="m273.703 133.51v238.223h40.305v-218.223c0-11.046-8.954-20-20-20z" fill="#ecc32e"/></g><g><path d="m469.879 371.733h-171.593v-87.847c0-11.046 8.954-20 20-20h131.593c11.046 0 20 8.954 20 20z" fill="#dd5790"/></g><g><path d="m429.574 263.886v107.847h40.305v-87.847c0-11.046-8.954-20-20-20z" fill="#da387d"/></g><g><path d="m265.004 228.794h-5.497c-1.285 0-2.416-.868-2.728-2.114-4.725-18.915-15.734-32.182-28.567-32.182s-23.842 13.266-28.567 32.182c-.311 1.247-1.443 2.114-2.728 2.114h-5.497c-2.596 0-4.7 2.104-4.7 4.7v27.7c0 2.596 2.104 4.7 4.7 4.7h5.497c1.285 0 2.416.868 2.728 2.114 4.725 18.915 15.734 32.182 28.567 32.182s23.842-13.266 28.567-32.182c.311-1.247 1.443-2.114 2.728-2.114h5.497c2.596 0 4.7-2.104 4.7-4.7v-27.7c0-2.596-2.104-4.7-4.7-4.7z" fill="#dd5790"/></g><g><path d="m425.237 361.981c0-22.729-18.426-41.155-41.155-41.155s-41.155 18.426-41.155 41.155c0 3.361.412 6.624 1.172 9.752h79.964c.762-3.127 1.174-6.39 1.174-9.752z" fill="#dae7ef"/></g><g><g><path d="m500.602 356.507h-489.204c-9.031 0-14.463 10.015-9.537 17.585l5.832 8.963c32.325 49.678 87.575 79.644 146.843 79.644h202.929c59.268 0 114.518-29.966 146.843-79.644l5.832-8.963c4.925-7.569-.507-17.585-9.538-17.585z" fill="#d09080"/></g></g><g><path d="m500.603 356.507h-52.645c-33.047 39.359-82.043 62.531-134.153 62.531h-202.93c-36.348 0-71.175-11.287-100.139-31.463 32.68 46.969 86.351 75.123 143.799 75.123h202.93c59.268 0 114.518-29.966 146.843-79.644l5.832-8.963c4.925-7.568-.507-17.584-9.537-17.584z" fill="#c67d66"/></g><g><g><path d="m117.078 382.383c0 19.727-18.259 36.28-23.734 40.799-.893.737-2.174.737-3.067 0-5.475-4.519-23.734-21.072-23.734-40.799s18.259-36.28 23.734-40.799c.893-.737 2.174-.737 3.067 0 5.475 4.519 23.734 21.071 23.734 40.799z" fill="#dd5790"/></g></g><g><g><path d="m117.078 454.23c0 19.727-18.259 36.28-23.734 40.799-.893.737-2.174.737-3.067 0-5.475-4.519-23.734-21.072-23.734-40.799s18.259-36.28 23.734-40.799c.893-.737 2.174-.737 3.067 0 5.475 4.52 23.734 21.072 23.734 40.799z" fill="#dd5790"/></g></g><g><g><path d="m93.344 341.584c-.893-.737-2.174-.737-3.067 0-1.502 1.24-3.969 3.391-6.755 6.26 7.367 7.587 16.979 20.225 16.979 34.539s-9.612 26.953-16.979 34.539c2.786 2.869 5.253 5.02 6.755 6.26.893.737 2.174.737 3.067 0 5.475-4.519 23.734-21.072 23.734-40.799s-18.259-36.28-23.734-40.799z" fill="#da387d"/></g></g><g><g><path d="m93.344 413.431c-.893-.737-2.174-.737-3.067 0-1.502 1.24-3.969 3.391-6.755 6.26 7.367 7.587 16.979 20.225 16.979 34.539s-9.612 26.953-16.979 34.539c2.786 2.869 5.253 5.02 6.755 6.26.893.737 2.174.737 3.067 0 5.475-4.519 23.734-21.072 23.734-40.799s-18.259-36.279-23.734-40.799z" fill="#da387d"/></g></g><g><g><path d="m55.887 443.574c-19.727 0-36.28-18.259-40.799-23.734-.737-.893-.737-2.174 0-3.067 4.519-5.475 21.072-23.734 40.799-23.734s36.28 18.259 40.799 23.734c.737.893.737 2.174 0 3.067-4.519 5.475-21.071 23.734-40.799 23.734z" fill="#dd5790"/></g></g><g><g><path d="m96.686 416.773c-1.914-2.319-5.994-6.932-11.553-11.479-.092.279-.232.547-.429.785-4.52 5.475-21.072 23.734-40.799 23.734-11.371 0-21.682-6.067-29.247-12.255-.251.766-.111 1.627.429 2.281 4.519 5.475 21.072 23.734 40.799 23.734s36.28-18.259 40.799-23.734c.738-.892.738-2.173.001-3.066z" fill="#da387d"/></g></g><g><g><path d="m127.735 443.574c-19.727 0-36.28-18.259-40.799-23.734-.737-.893-.737-2.174 0-3.067 4.519-5.475 21.072-23.734 40.799-23.734s36.28 18.259 40.799 23.734c.737.893.737 2.174 0 3.067-4.519 5.475-21.072 23.734-40.799 23.734z" fill="#dd5790"/></g></g><g><g><path d="m168.534 416.773c-1.914-2.319-5.994-6.932-11.553-11.479-.092.279-.232.547-.429.785-4.52 5.475-21.072 23.734-40.799 23.734-11.371 0-21.682-6.067-29.246-12.255-.251.766-.111 1.627.429 2.281 4.519 5.475 21.072 23.734 40.799 23.734s36.28-18.259 40.799-23.734c.737-.892.737-2.173 0-3.066z" fill="#da387d"/></g></g><g><g><circle cx="91.811" cy="418.307" fill="#f6e266" r="15.04"/></g></g><g><g><path d="m97.829 404.528c.807 1.844 1.261 3.877 1.261 6.018 0 8.306-6.734 15.04-15.04 15.04-2.141 0-4.174-.454-6.018-1.261 2.322 5.309 7.614 9.022 13.779 9.022 8.306 0 15.04-6.733 15.04-15.04 0-6.165-3.714-11.457-9.022-13.779z" fill="#ecc32e"/></g></g></g></svg>