<svg id="Capa_1" enable-background="new 0 0 499.646 499.646" height="512" viewBox="0 0 499.646 499.646" width="512" xmlns="http://www.w3.org/2000/svg"><g><g fill="#883f2e"><path d="m356.286 110.75 57.467-52.701 27.817 27.818-52.7 57.466z"/><path d="m309.094 154.025 36.126-33.128 33.503 33.503-33.128 36.126z"/><path d="m271.327 201.677-6.795-6.795 33.496-30.71 37.42 37.42-30.71 33.496-33.404-33.404s0 0-.007-.007z"/><path d="m239.514 306.208-46.103-46.103 60.055-55.077 41.125 41.126z"/></g><path d="m374.225 128.689-17.939-17.939 57.467-52.701 14.453 14.454z" fill="#a44f3e"/><path d="m329.897 174.828-20.803-20.803 36.126-33.128 18.611 18.611z" fill="#a44f3e"/><path d="m271.327 201.677-6.795-6.795 33.496-30.71 21.475 21.475-31.466 32.739-16.702-16.702c-.001 0-.001 0-.008-.007z" fill="#a44f3e"/><path d="m221.229 287.923-27.818-27.818 60.055-55.077 24.176 24.176z" fill="#a44f3e"/><path d="m441.568 85.869-27.817-27.817 35.966-50.701c1.755-2.474 5.314-2.774 7.459-.63l35.722 35.722c2.145 2.145 1.845 5.704-.63 7.459z" fill="#465a61"/><path d="m428.205 72.507-14.454-14.454 35.966-50.701c1.755-2.474 5.314-2.774 7.459-.63l21.424 21.424c2.115 2.115 1.857 5.616-.546 7.398z" fill="#596c76"/><g><path d="m492.146 75.898c-1.919 0-3.839-.732-5.303-2.197l-10.084-10.083c-2.93-2.929-2.93-7.677-.001-10.606 2.93-2.929 7.679-2.93 10.606 0l10.084 10.083c2.93 2.929 2.93 7.677.001 10.606-1.465 1.464-3.385 2.197-5.303 2.197z" fill="#d7d0d6"/></g><g><path d="m473.124 89.242c-1.92 0-3.839-.732-5.304-2.197l-9.167-9.167c-2.929-2.929-2.929-7.678.001-10.606 2.928-2.929 7.677-2.929 10.606 0l9.167 9.167c2.929 2.929 2.929 7.678-.001 10.606-1.463 1.465-3.383 2.197-5.302 2.197z" fill="#d7d0d6"/></g><g><path d="m441.355 25.106c-1.919 0-3.839-.732-5.303-2.197l-10.084-10.083c-2.93-2.929-2.93-7.677-.001-10.606 2.93-2.929 7.679-2.93 10.606 0l10.084 10.083c2.93 2.929 2.93 7.677.001 10.606-1.465 1.465-3.385 2.197-5.303 2.197z" fill="#d7d0d6"/></g><g><path d="m427.093 43.211c-1.919 0-3.839-.732-5.304-2.197l-9.167-9.167c-2.929-2.929-2.929-7.678 0-10.606 2.93-2.929 7.678-2.929 10.607 0l9.167 9.167c2.929 2.929 2.929 7.678 0 10.606-1.464 1.465-3.384 2.197-5.303 2.197z" fill="#d7d0d6"/></g><path d="m294.591 246.154-16.949-16.95 10.394-10.818 16.702 16.702z" fill="#baafb9"/><path d="m277.642 229.204-24.176-24.176 11.066-10.147 6.795 6.795c.007.007.007.007.007.007l16.702 16.702z" fill="#d7d0d6"/><path d="m319.502 185.647-21.474-21.475 11.066-10.147 20.803 20.803z" fill="#d7d0d6"/><path d="m335.448 201.592-15.946-15.945 10.395-10.819 15.698 15.698z" fill="#baafb9"/><path d="m363.831 139.508-18.611-18.611 11.066-10.147 17.939 17.939z" fill="#d7d0d6"/><path d="m378.723 154.4-14.892-14.892 10.394-10.819 14.645 14.644z" fill="#baafb9"/><path d="m237.841 393.61c-.84 3.68 1.46 7.34 5.14 8.17l20.05 4.57c-6.34 19.67-17.32 38.17-32.94 53.79-15.64 15.63-34.16 26.63-53.86 32.96l-4.56-20.01c-.83-3.68-4.49-5.98-8.17-5.14l-21.51 4.9c-3.68.84-5.98 4.5-5.14 8.17l4.21 18.46c-36.56 1.68-73.67-11.43-101.58-39.34-3.44-3.44-6.65-7.01-9.64-10.71-42.78-52.93-39.56-130.7 9.64-179.9 15.55-15.55 33.95-26.5 53.52-32.85l4.46 19.59c.84 3.67 4.5 5.97 8.17 5.14l21.52-4.9c3.67-.84 5.98-4.5 5.14-8.18l-4.13-18.1c32.16-1.57 64.78 8.32 91.21 29.67 3.69 2.99 7.27 6.2 10.71 9.64 27.93 27.93 41.04 65.06 39.33 101.63l-18.5-4.21c-3.67-.84-7.33 1.46-8.17 5.14z" fill="#baafb9"/><path d="m249.081 350.84c-.55 11.89-2.68 23.74-6.38 35.18-6.34 19.67-17.33 38.17-32.95 53.79-15.63 15.63-34.15 26.62-53.85 32.96-11.44 3.69-23.28 5.82-35.18 6.37-32.06 1.49-64.55-8.42-90.88-29.71-42.78-52.93-39.56-130.7 9.64-179.9 15.55-15.55 33.95-26.5 53.52-32.85l4.46 19.59c.84 3.67 4.5 5.97 8.17 5.14l21.52-4.9c3.67-.84 5.98-4.5 5.14-8.18l-4.13-18.1c32.16-1.57 64.78 8.32 91.21 29.67 21.3 26.35 31.21 58.86 29.71 90.94z" fill="#d7d0d6"/><path d="m216.108 283.51c-2.886-2.884-5.957-5.648-9.135-8.222-21.923-17.711-49.561-26.717-77.84-25.328-10.21.495-20.306 2.347-29.998 5.502-17.329 5.623-32.699 15.058-45.686 28.043-20.208 20.209-32.122 47.046-33.546 75.568-1.414 28.317 7.579 56.004 25.329 77.968 2.574 3.178 5.339 6.249 8.217 9.127 21.578 21.578 50.991 33.69 81.406 33.69 1.755 0 3.52-.041 5.28-.122 10.214-.477 20.313-2.306 30.011-5.435 17.445-5.612 32.911-15.077 45.967-28.133 13.043-13.044 22.503-28.491 28.111-45.901 3.14-9.692 4.974-19.795 5.451-30.027 1.505-32.28-10.731-63.893-33.567-86.73zm18.584 86.034c-.415 8.897-2.008 17.68-4.74 26.113-4.876 15.135-13.101 28.561-24.445 39.906-11.354 11.355-24.797 19.585-39.959 24.462-8.439 2.723-17.224 4.314-26.106 4.729-28.063 1.302-55.537-9.344-75.384-29.19-2.51-2.51-4.922-5.189-7.163-7.956-32.188-39.832-29.109-97.222 7.162-133.495 11.295-11.294 24.654-19.497 39.716-24.384 8.432-2.745 17.209-4.355 26.09-4.785 1.645-.08 3.284-.12 4.923-.12 22.858 0 44.98 7.769 62.756 22.129 2.767 2.24 5.445 4.651 7.961 7.166 19.857 19.857 30.497 47.349 29.189 75.425z" fill="#7a8c98"/><path d="m67.084 431.312-28.209 28.209c-12.955-13.109-22.66-28.216-29.13-44.322-17.196-42.724-11.605-92.482 16.773-130.65l24.228 24.228c2.526 2.526 3.059 6.422 1.307 9.534-10.172 18.066-13.961 38.754-11.356 58.763 2.553 19.798 11.351 38.934 26.387 54.238z" fill="#fedba6"/><path d="m9.745 415.2c-17.196-42.725-11.605-92.483 16.773-130.651l24.228 24.228c2.526 2.526 3.059 6.422 1.307 9.534-10.172 18.066-13.961 38.754-11.356 58.763z" fill="#ffefd2"/><path d="m127.151 256.51-21.52 4.9c-3.67.83-7.33-1.47-8.17-5.14l-4.46-19.59c11.43-3.72 23.26-5.88 35.16-6.45l4.13 18.1c.84 3.68-1.47 7.34-5.14 8.18z" fill="#596c76"/><path d="m269.411 371.17c-.55 11.9-2.68 23.74-6.38 35.18l-20.05-4.57c-3.68-.83-5.98-4.49-5.14-8.17l4.9-21.51c.84-3.68 4.5-5.98 8.17-5.14z" fill="#596c76"/><path d="m176.231 493.1c-11.44 3.7-23.28 5.82-35.17 6.38l-4.21-18.46c-.84-3.67 1.46-7.33 5.14-8.17l21.51-4.9c3.68-.84 7.34 1.46 8.17 5.14z" fill="#596c76"/><path d="m107.87 439.538-48.706 36.088c-1.385 1.027-3.314.884-4.533-.335l-30.302-30.302c-1.219-1.219-1.362-3.148-.335-4.533l36.088-48.706c1.373-1.854 3.854-2.497 5.956-1.545l28.171 12.77c1.081.49 1.947 1.356 2.437 2.436l3.515 7.748 9.255 20.423c.951 2.103.308 4.583-1.546 5.956z" fill="#465a61"/><path d="m97.31 415.549-53.277 44.654c-1.383 1.159-3.421 1.069-4.697-.206l-15.007-15.007c-1.219-1.219-1.362-3.148-.335-4.533l36.088-48.706c1.373-1.854 3.854-2.497 5.956-1.545l28.171 12.77c1.081.49 1.947 1.356 2.437 2.436l1.979 4.361c.907 2.002.37 4.364-1.315 5.776z" fill="#596c76"/><g><path d="m145.773 407.45c-1.92 0-3.839-.732-5.304-2.197l-46.102-46.103c-2.929-2.929-2.929-7.678 0-10.606 2.931-2.93 7.679-2.929 10.607 0l46.102 46.103c2.929 2.929 2.929 7.678 0 10.606-1.465 1.464-3.385 2.197-5.303 2.197z" fill="#baafb9"/></g><circle cx="189.939" cy="308.106" fill="#e5e1e5" r="7.711"/></g></svg>