<svg id="Capa_1" enable-background="new 0 0 512 512" height="512" viewBox="0 0 512 512" width="512" xmlns="http://www.w3.org/2000/svg"><g><g><path d="m306.749 115.084h58.043v122.291h-58.043z" fill="#dae7ef" transform="matrix(.707 .707 -.707 .707 222.958 -185.809)"/></g><g><path d="m286.195 175.141h122.291v25.318h-122.291z" fill="#c1d5e4" transform="matrix(.707 -.707 .707 .707 -31.061 300.612)"/></g><g><circle cx="191.614" cy="320.386" fill="#dae7ef" r="184.223"/></g><g><path d="m321.879 190.121c-5.726-5.726-11.738-10.992-17.986-15.807 55.676 72.245 50.41 176.327-15.807 242.544s-170.299 71.483-242.544 15.807c4.815 6.248 10.081 12.26 15.807 17.986 71.943 71.943 188.587 71.943 260.53 0 71.944-71.944 71.944-188.587 0-260.53z" fill="#c1d5e4"/></g><g><g><path d="m191.614 512c-51.182 0-99.3-19.932-135.492-56.122-36.19-36.192-56.122-84.31-56.122-135.492 0-51.183 19.932-99.301 56.122-135.493 36.192-36.191 84.31-56.122 135.492-56.122 51.183 0 99.301 19.932 135.493 56.122 36.191 36.192 56.122 84.31 56.122 135.493 0 51.182-19.932 99.3-56.122 135.492-36.192 36.19-84.31 56.122-135.493 56.122zm0-368.446c-47.233 0-91.639 18.394-125.038 51.793-33.399 33.398-51.793 77.805-51.793 125.039 0 47.233 18.394 91.639 51.793 125.038 33.398 33.399 77.805 51.793 125.038 51.793 47.234 0 91.64-18.394 125.038-51.793 33.399-33.398 51.793-77.805 51.793-125.038 0-47.234-18.394-91.64-51.793-125.039-33.398-33.399-77.804-51.793-125.038-51.793z" fill="#407093"/></g></g><g><path d="m191.614 447.677c-34.001 0-65.966-13.241-90.008-37.283s-37.283-56.007-37.283-90.008 13.241-65.966 37.283-90.008c49.631-49.63 130.385-49.63 180.016 0 24.042 24.042 37.283 56.007 37.283 90.008s-13.241 65.966-37.283 90.008c-24.041 24.042-56.007 37.283-90.008 37.283zm0-239.4c-28.722 0-57.444 10.933-79.309 32.799-21.185 21.184-32.853 49.35-32.853 79.309s11.668 58.126 32.853 79.309c21.184 21.185 49.35 32.853 79.309 32.853s58.126-11.668 79.309-32.853c21.185-21.184 32.853-49.35 32.853-79.309s-11.668-58.126-32.853-79.309c-21.864-21.866-50.587-32.799-79.309-32.799z" fill="#98b9d3"/></g><g><path d="m406.309 322.008h-105.614c-12.264 0-23.972-5.118-32.302-14.119l-19.29-20.847c-4.2-4.539-10.103-7.119-16.287-7.119h-25.058c-5.57 0-10.086 4.516-10.086 10.086v97.286c0 5.57 4.516 10.086 10.086 10.086h24.728c6.375 0 12.443-2.742 16.655-7.527l17.279-19.628c8.355-9.491 20.388-14.93 33.033-14.93h106.854c3.258 0 6.515.112 9.765.337l81.786 5.653c7.579.524 14.016-5.483 14.016-13.081v-19.106c0-7.597-6.437-13.605-14.016-13.081l-81.786 5.653c-3.249.225-6.505.337-9.763.337z" fill="#ecc32e"/></g><g><g><path d="m497.86 316.018-8.902.615v8.654c0 7.598-6.437 13.605-14.016 13.081l-81.786-5.653c-3.25-.225-6.507-.337-9.765-.337h-106.854c-12.644 0-24.678 5.438-33.033 14.929l-17.279 19.628c-4.213 4.785-10.28 7.528-16.655 7.528h-11.897v12.832c0 5.57 4.516 10.086 10.086 10.086h24.728c6.375 0 12.443-2.742 16.655-7.528l17.279-19.628c8.355-9.491 20.388-14.929 33.033-14.929h106.854c3.258 0 6.515.112 9.765.337l81.786 5.653c7.579.524 14.016-5.483 14.016-13.081v-19.106c.001-7.598-6.436-13.605-14.015-13.081z" fill="#e49824"/></g></g><g><path d="m205.566 294.777h-64.676c-4.178 0-7.565-3.386-7.565-7.565 0-4.178 3.386-7.565 7.565-7.565h64.677c4.178 0 7.565 3.386 7.565 7.565-.001 4.179-3.387 7.565-7.566 7.565z" fill="#ecc32e"/></g><g><path d="m205.566 397.603h-64.676c-4.178 0-7.565-3.386-7.565-7.565s3.386-7.565 7.565-7.565h64.677c4.178 0 7.565 3.386 7.565 7.565s-3.387 7.565-7.566 7.565z" fill="#e49824"/></g><g><path d="m205.566 328.618h-64.676c-4.178 0-7.565-3.386-7.565-7.565 0-4.178 3.386-7.565 7.565-7.565h64.677c4.178 0 7.565 3.386 7.565 7.565-.001 4.179-3.387 7.565-7.566 7.565z" fill="#ecc32e"/></g><g><path d="m205.566 363.444h-64.676c-4.178 0-7.565-3.386-7.565-7.565s3.386-7.565 7.565-7.565h64.677c4.178 0 7.565 3.386 7.565 7.565s-3.387 7.565-7.566 7.565z" fill="#ecc32e"/></g><g><path d="m507.353 42.16-37.513-37.513c-6.196-6.196-16.242-6.196-22.438 0l-60.189 60.189c-6.795 6.795-12.208 14.843-15.938 23.699l-2.466 5.854c-3.731 8.856-9.143 16.904-15.938 23.699l-18.242 18.242 41.042 41.042 18.242-18.242c6.795-6.795 14.843-12.208 23.699-15.938l5.854-2.466c8.856-3.731 16.904-9.143 23.699-15.938l60.189-60.189c6.195-6.197 6.195-16.243-.001-22.439zm-62.367 24.854c-4.62-4.62-4.62-12.111 0-16.732s12.111-4.62 16.732 0c4.62 4.62 4.62 12.111 0 16.732-4.621 4.62-12.112 4.62-16.732 0z" fill="#407093"/></g><g><g><path d="m507.353 42.16-17.903-17.903c6.196 6.196 6.196 16.242 0 22.439l-60.189 60.189c-6.795 6.795-14.843 12.208-23.699 15.938l-5.854 2.466c-8.856 3.731-16.904 9.144-23.699 15.938l-18.242 18.242 17.902 17.903 18.242-18.242c6.795-6.795 14.843-12.208 23.699-15.938l5.854-2.466c8.856-3.731 16.904-9.143 23.699-15.938l60.189-60.189c6.197-6.197 6.197-16.243.001-22.439z" fill="#2b4d66"/></g></g></g></svg>