<svg id="Capa_1" enable-background="new 0 0 512 512" height="512" viewBox="0 0 512 512" width="512" xmlns="http://www.w3.org/2000/svg"><g><path d="m145.742 349.783 67.987-25.748c.001-.001.002-.001.003-.002 2.17-1.471 3.166-3.555 3.166-6.017 0-12.436 0-16.122 0-26.782-19.591-13-33.42-36.863-33.981-60.103-8.499 1.335-16.526-.753-22.755-5.034-.717 11.077-4.576 26.932-11.435 34.951-3.784 4.424-8.901 7.817-14.674 10.794-17.711 9.131-22.861 62.189 11.689 77.941z" fill="#ffe181"/><path d="m172.477 271.841c5.772-2.976 10.89-6.37 14.674-10.794.75-.876 1.457-1.861 2.135-2.909-3.869-8.634-6.149-17.868-6.37-27.008-8.499 1.335-16.526-.753-22.755-5.034-.717 11.077-4.576 26.932-11.435 34.951-3.784 4.424-8.901 7.817-14.674 10.794-17.71 9.131-22.86 62.19 11.689 77.941l25.259-9.565c-19.508-21.401-13.523-60.642 1.477-68.376z" fill="#fec458"/><g><g><g><path d="m377.883 271.371c-5.772-2.976-10.89-6.37-14.674-10.794-6.76-7.903-10.599-23.47-11.396-34.463-6.225 4.27-14.243 6.35-22.731 5.016-.804 23.906-15.394 47.225-34.045 59.958l.021 26.973c.009 3.072 1.902 5.814 4.752 6.916 2.838 1.099 37.718 13.809 65.762 24.67l.49-.272c34.696-15.681 29.554-68.861 11.821-78.004z" fill="#ffe181"/></g></g></g><path d="m337.412 324.976c-2.85-1.102-4.744-3.844-4.752-6.916l-.015-20.236c-.003-4.105 1.9-7.943 5.074-10.547 9.564-7.845 17.697-18.475 22.894-30.342-5.148-8.434-8.11-21.329-8.798-30.822-6.225 4.27-14.243 6.35-22.731 5.016-.804 23.906-15.394 47.225-34.045 59.958l.021 26.973c.009 3.072 1.902 5.814 4.752 6.916 2.838 1.099 37.718 13.809 65.762 24.67l.49-.272c5.066-2.29 9.277-5.383 12.729-9.017-20.727-7.794-39.341-14.591-41.381-15.381z" fill="#fec458"/><path d="m276.869 386.557c-.744-1.115-1.449-2.227-2.126-3.317-4.385-7.056-4.004-16.078.825-22.838l24.441-38.544c-1.781-1.378-2.884-3.52-2.89-5.858l-.008-29.042c-11.55 7.888-25.447 12.506-40.361 12.456-16.213-.054-30.405-4.665-41.913-12.301v28.842c0 2.9-1.324 4.665-2.904 5.822l24.499 38.625c4.829 6.76 5.21 15.782.825 22.838-.674 1.084-1.374 2.19-2.114 3.299h.699c11.356 10.179 28.969 10.185 40.332.019h.695z" fill="#ffb1a0"/><path d="m255.971 299.398c-15.887-.198-29.812-4.771-41.134-12.285v28.842c0 2.9-1.324 4.665-2.904 5.822l24.499 38.625c4.829 6.76 5.21 15.782.825 22.838-.674 1.084-1.374 2.19-2.114 3.299h.699c5.669 5.082 12.897 7.627 20.129 7.638z" fill="#ffa68e"/><path d="m445.997 497.294v-71.757c0-30.556-19.69-51.921-36.251-60.554-3.152-1.604-4.32-1.964-18.032-7.319v.046c-12.814-4.963-32.251-12.49-49.791-19.283l-78.178 123.062c-3.403 6.029-12.086 6.03-15.49.001l-78.3-123.226-63.737 24.893c-17.194 7.076-40.217 29.341-40.217 62.38v71.757c0 8.122 6.584 14.706 14.706 14.706h350.584c8.122 0 14.706-6.584 14.706-14.706z" fill="#6e60b8"/><path d="m103.914 409.364c0-23.768 12.445-42.728 22.277-54.006l-19.971 7.8c-17.194 7.076-40.217 29.341-40.217 62.38v71.757c0 8.122 6.584 14.706 14.706 14.706h23.205c0-36.014 0-80.989 0-102.637z" fill="#6353b2"/><path d="m273.91 386.555c-10.088 9.026-25.725 9.02-35.807-.017-5.735 7.714-15.281 15.622-30.831 17.817l40.984 72.587c3.404 6.029 12.087 6.028 15.49-.001l40.968-72.588c-15.531-2.195-25.07-10.09-30.804-17.798z" fill="#b1dbfc"/><path d="m301.871 322.916c-.681-.263-1.303-.625-1.862-1.058l-27.531 38.544c-4.829 6.76-6.24 16.812-1.855 23.868 5.356 8.619 16.314 17.57 34.092 20.084l37.209-65.928c-20.267-7.848-38.001-14.716-40.053-15.51z" fill="#dfebfa"/><path d="m211.933 321.777c-.089.065-.175.136-.265.197l-41.712 16.291 37.316 66.091c17.786-2.511 28.748-11.465 34.105-20.086 4.385-7.056 2.973-17.108-1.855-23.868z" fill="#dfebfa"/><g><g><path d="m255.993 448.903c-4.267 0-7.726-3.459-7.726-7.726v-26.012c0-4.267 3.459-7.726 7.726-7.726s7.726 3.459 7.726 7.726v26.012c.001 4.267-3.459 7.726-7.726 7.726z" fill="#8bcaff"/></g></g><g fill="#6353b2"><path d="m388.703 512v-75.631c0-4.267-3.459-7.726-7.726-7.726s-7.726 3.459-7.726 7.726v75.631z"/><path d="m138.75 512v-75.631c0-4.267-3.459-7.726-7.726-7.726s-7.726 3.459-7.726 7.726v75.631z"/></g><path d="m184.935 195.918c-5.192-2.219-12.324-4.666-17.262-7.328-3.132-1.689-5.67-2.103-7.48-5.031-1.795 1.053-3.468 2.218-4.993 3.457-.003.002-.006.005-.009.007-4.567 4.936-7.346 11.374-7.346 18.426 0 17.148 16.414 30.674 35.071 27.742-.014-.579 2.018-1.157 2.018-1.738v-35.535z" fill="#ffb1a0"/><path d="m169.957 205.449c0-5.084 1.451-9.846 3.969-13.96-2.247-.936-4.403-1.902-6.252-2.899-3.132-1.689-5.67-2.103-7.48-5.031-1.795 1.053-3.468 2.218-4.994 3.457-.003.002-.006.005-.009.007-4.567 4.936-7.346 11.374-7.346 18.426 0 17.148 16.414 30.674 35.071 27.742-.014-.579 2.018-1.157 2.018-1.738v-1.66c-8.925-4.87-14.977-13.936-14.977-24.344z" fill="#ffa68e"/><path d="m356.792 187.003c-1.449-1.313-3.088-2.528-4.88-3.611-1.816 3.002-4.393 3.477-7.585 5.198-4.938 2.663-12.07 5.109-17.262 7.328v34.826c0 .819 2.025 1.631 1.998 2.444 18.666 2.944 35.092-10.585 35.092-27.739 0-7.061-2.786-13.508-7.363-18.446z" fill="#ffb1a0"/><path d="m348.442 186.575c-1.223.659-2.598 1.197-4.115 2.015-4.938 2.663-12.07 5.109-17.262 7.328v34.826c0 .819 2.025 1.631 1.998 2.444 7.03 1.109 13.742-.121 19.378-2.999v-43.614z" fill="#ffa68e"/><path d="m256 209.806c-8.789 0-17.431-.624-25.894-1.804v24.008c0 29.796 18.207 57.567 47.694 68.387 29.623-9.134 51.326-37.162 51.326-69.653v-35.856c-22.453 9.595-47.163 14.918-73.126 14.918z" fill="#ffcebe"/><g><path d="m230.857 231.452v-23.344c-16.808-2.272-32.906-6.778-47.982-13.221v36.565c0 37.58 29.376 71.933 73.876 72.083 8.174.027 16.034-1.367 23.378-3.914-30.395-10.029-49.272-38.054-49.272-68.169z" fill="#ffb1a0"/></g><g><path d="m266.093 141.112c-6.352 3.183-13.834 3.183-20.186 0l-88.826-44.505v59.929c1.126.958 2.323 1.843 3.654 2.561 28.357 15.291 60.788 23.994 95.264 23.994s66.907-8.703 95.264-23.994c1.332-.718 2.529-1.603 3.654-2.561v-59.93z" fill="#6e60b8"/><path d="m195.552 115.882-38.47-19.275v59.929c1.126.958 2.323 1.843 3.654 2.561 11.027 5.946 22.676 10.881 34.816 14.71z" fill="#6353b2"/><path d="m351.264 157.037c-28.357 15.291-60.787 23.993-95.264 23.993s-66.907-8.702-95.264-23.994c-1.332-.718-2.529-1.603-3.655-2.561v18.12c0 7.492 3.997 14.499 10.592 18.055 26.293 14.177 56.36 22.246 88.327 22.246s62.034-8.069 88.327-22.246c6.595-3.556 10.592-10.563 10.592-18.055v-18.12c-1.126.959-2.323 1.844-3.655 2.562z" fill="#9790cc"/><path d="m195.552 171.747c-12.139-3.829-23.789-8.764-34.816-14.71-1.331-.718-2.529-1.603-3.654-2.561v18.12c0 7.492 3.997 14.499 10.592 18.055 8.883 4.79 18.206 8.863 27.879 12.183v-31.087z" fill="#8479c2"/><path d="m393.944 66.445-127.851-64.058c-6.352-3.183-13.834-3.183-20.186 0l-127.851 64.058c-7.335 3.675-7.335 14.144 0 17.819l127.851 64.058c6.352 3.183 13.834 3.183 20.186 0l127.851-64.058c7.335-3.675 7.335-14.143 0-17.819z" fill="#9790cc"/><path d="m291.444 126.963-132.66-66.467c-4.681-2.346-6.471-7.356-5.394-11.754l-35.334 17.704c-7.335 3.675-7.335 14.144 0 17.819l127.851 64.058c6.352 3.183 13.834 3.183 20.186 0l37.889-18.984c-4.265.378-8.61-.407-12.538-2.376z" fill="#8479c2"/><g><path d="m399.445 172.557c-4.267 0-7.726-3.459-7.726-7.726v-81.75h-122.491c-4.267 0-7.726-3.459-7.726-7.726s3.459-7.726 7.726-7.726h130.217c4.267 0 7.726 3.459 7.726 7.726v89.475c.001 4.267-3.459 7.727-7.726 7.727z" fill="#6353b2"/></g><g><g><path d="m421.968 217.311-9.856-39.663c-2.996 3.71-7.526 6.131-12.666 6.131s-9.67-2.421-12.666-6.13l-9.856 39.663c-1.996 7.612 3.747 15.053 11.615 15.053h21.814c7.868-.001 13.61-7.442 11.615-15.054z" fill="#fec458"/></g></g><g><path d="m395.501 218.342 8.78-35.332c-1.527.485-3.144.77-4.836.77-5.14 0-9.67-2.421-12.666-6.13l-9.856 39.663c-1.995 7.612 3.747 15.053 11.615 15.053h13.741c-5.183-2.288-8.332-8.096-6.778-14.024z" fill="#f9ab49"/></g><circle cx="256" cy="75.355" fill="#8479c2" r="16.841"/><circle cx="399.445" cy="169.493" fill="#ffe181" r="16.347"/><path d="m397.693 169.492c0-6.402 3.689-11.929 9.049-14.612-2.199-1.1-4.671-1.735-7.297-1.735-9.028 0-16.347 7.318-16.347 16.346s7.319 16.346 16.347 16.346c2.626 0 5.098-.634 7.297-1.734-5.36-2.681-9.049-8.209-9.049-14.611z" fill="#fec458"/></g></g></svg>