<svg id="Capa_1" enable-background="new 0 0 511.998 511.998" height="512" viewBox="0 0 511.998 511.998" width="512" xmlns="http://www.w3.org/2000/svg"><g><path d="m208.053 384.795v31.521c0 12.054-5.776 23.247-15.263 29.575l-22.914 15.285h172.248l-22.914-15.285c-9.487-6.328-15.263-17.521-15.263-29.575v-31.521c-31.533 0-64.362 0-95.894 0z" fill="#b1dbfc"/><path d="m208.053 384.795v31.521c0 12.054-5.776 23.247-15.263 29.575l-22.915 15.285h55.596l.483-.322c9.487-6.328 15.263-17.521 15.263-29.575v-21.822c0-5.357 4.342-9.699 9.699-9.699h53.029v-14.963z" fill="#8bcaff"/><path d="m358.159 460.07h-204.319c-5.689 0-10.301 4.612-10.301 10.301v11.535c0 5.689 4.612 10.301 10.301 10.301h204.319c5.689 0 10.301-4.612 10.301-10.301v-11.535c0-5.689-4.612-10.301-10.301-10.301z" fill="#dfebfa"/><path d="m200.629 481.906v-11.535c0-5.689 4.612-10.301 10.301-10.301h-57.09c-5.689 0-10.301 4.612-10.301 10.301v11.535c0 5.689 4.612 10.301 10.301 10.301h57.091c-5.69 0-10.302-4.612-10.302-10.301z" fill="#b1dbfc"/><g><g><path d="m482.309 19.791h-452.62c-16.371 0-29.689 13.318-29.689 29.689v306.985c0 16.371 13.318 29.689 29.689 29.689h452.62c16.371 0 29.689-13.318 29.689-29.689v-306.985c0-16.371-13.318-29.689-29.689-29.689z" fill="#695d67"/></g></g><path d="m34.342 356.466v-306.986c0-16.371 13.318-29.689 29.689-29.689h-34.342c-16.371 0-29.689 13.318-29.689 29.689v306.985c0 16.371 13.318 29.689 29.689 29.689h34.341c-16.37.001-29.688-13.318-29.688-29.688z" fill="#554e56"/><g><g><path d="m32.137 88.075v2.06 259.61c0 2.36 1.912 4.272 4.272 4.272h439.181c2.359 0 4.272-1.912 4.272-4.272 0-6.921 0-186.242 0-261.671h-447.725z" fill="#ffe181"/></g></g><path d="m63.045 349.746v-259.61-2.06h-30.908v2.06 259.61c0 2.36 1.912 4.272 4.272 4.272h30.907c-2.359-.001-4.271-1.913-4.271-4.272z" fill="#fec458"/><path d="m475.59 51.928h-398.089v38.207h402.361c0-17.883 0-30.339 0-33.936-.001-2.359-1.913-4.271-4.272-4.271z" fill="#5cb3f8"/><path d="m78.531 51.928h-42.122c-2.359 0-4.272 1.912-4.272 4.272v33.936h46.394z" fill="#ff656f"/><path d="m67.315 51.928h-30.906c-2.359 0-4.272 1.912-4.272 4.272v33.936h30.906v-33.936c0-2.36 1.913-4.272 4.272-4.272z" fill="#ff4756"/><path d="m383.638 147.329h-17.662v118.038c0 6.394-5.561 11.397-11.911 10.646-6.882-.813-15.29-3.928-30.822-12.373-25.286-13.748-48.226-.893-59.64 7.974-2.176 1.69-4.849 2.598-7.604 2.598s-5.428-.908-7.604-2.598c-11.413-8.867-34.354-21.721-59.64-7.974-15.532 8.445-23.939 11.56-30.822 12.373-6.35.75-11.911-4.252-11.911-10.646v-118.038h-17.662c-5.841 0-10.576 4.735-10.576 10.576v138.683c0 5.841 4.735 10.576 10.576 10.576h93.818c4.768 0 9.234 2.652 11.236 6.979 3.676 7.943 11.712 13.453 21.039 13.453s17.364-5.51 21.039-13.453c2.002-4.327 6.468-6.979 11.236-6.979h96.909c5.841 0 10.576-4.735 10.576-10.576v-138.683c.001-5.841-4.734-10.576-10.575-10.576z" fill="#ff656f"/><g><path d="m165.731 296.588v-22.338c-2.921.931-5.453 1.485-7.798 1.762-6.35.75-11.911-4.252-11.911-10.646v-118.037h-17.662c-5.841 0-10.576 4.735-10.576 10.576v138.683c0 5.841 4.735 10.576 10.576 10.576h47.947c-5.841.001-10.576-4.735-10.576-10.576z" fill="#ff4756"/></g><path d="m362.484 135.11c-1.856 1.031-4.037 1.52-6.328 1.251-6.882-.807-17.358-3.919-32.913-12.377-35.995-19.57-67.244 14.771-67.244 14.771l-5.076 6.415v126.453l5.076 7.737c2.755 0 5.428-.908 7.604-2.598 11.413-8.867 34.354-21.721 59.639-7.973 15.532 8.445 26 11.56 32.882 12.373 6.35.75 11.911-4.252 11.911-10.646v-132.091c.002-2.888-3.111-4.669-5.551-3.315z" fill="#dfebfa"/><path d="m281.142 121.789c-15.168 6.008-25.143 16.967-25.143 16.967l-5.076 6.415v126.453l5.076 7.737c2.755 0 5.428-.908 7.604-2.598 4.344-3.375 10.361-7.324 17.538-10.167v-144.807z" fill="#b1dbfc"/><g><g><path d="m340.854 169.862c-6.413-2.25-13.579-5.52-21.302-9.718-11.357-6.173-23.475-6.718-36.018-1.618-3.953 1.606-8.461-.293-10.068-4.246s.294-8.461 4.247-10.067c16.802-6.832 33.821-6.016 49.22 2.356 6.997 3.804 13.402 6.735 19.036 8.712 4.027 1.412 6.145 5.822 4.733 9.849s-5.823 6.144-9.848 4.732z" fill="#8bcaff"/></g></g><g><g><path d="m340.854 197.914c-6.413-2.25-13.579-5.52-21.302-9.718-11.357-6.174-23.475-6.718-36.018-1.618-3.953 1.605-8.461-.294-10.068-4.246-1.607-3.953.294-8.461 4.247-10.067 16.802-6.833 33.821-6.015 49.22 2.356 6.997 3.804 13.402 6.735 19.036 8.712 4.027 1.412 6.145 5.822 4.733 9.849s-5.823 6.144-9.848 4.732z" fill="#8bcaff"/></g></g><g><g><path d="m340.854 225.966c-6.413-2.25-13.579-5.52-21.302-9.718-11.357-6.174-23.475-6.719-36.018-1.618-3.953 1.604-8.461-.294-10.068-4.246-1.607-3.953.294-8.461 4.247-10.067 16.802-6.833 33.821-6.016 49.22 2.356 6.997 3.804 13.402 6.735 19.036 8.712 4.027 1.412 6.145 5.822 4.733 9.849s-5.823 6.144-9.848 4.732z" fill="#8bcaff"/></g></g><g><g><path d="m340.854 254.018c-6.413-2.25-13.579-5.52-21.302-9.718-11.357-6.174-23.475-6.719-36.018-1.618-3.953 1.606-8.461-.294-10.068-4.246-1.607-3.953.294-8.461 4.247-10.067 16.802-6.832 33.821-6.016 49.22 2.356 6.997 3.804 13.402 6.735 19.036 8.712 4.027 1.412 6.145 5.822 4.733 9.849s-5.823 6.144-9.848 4.732z" fill="#8bcaff"/></g></g><path d="m149.514 135.11c1.856 1.031 4.037 1.52 6.328 1.251 6.882-.807 17.358-3.919 32.913-12.377 35.995-19.57 67.244 14.771 67.244 14.771v140.606c-2.755 0-5.428-.908-7.604-2.598-11.413-8.867-34.354-21.721-59.64-7.973-15.532 8.445-26 11.56-32.882 12.373-6.35.75-11.911-4.252-11.911-10.646v-132.092c0-2.888 3.112-4.669 5.552-3.315z" fill="#dfebfa"/><g><path d="m169.458 270.038v-137.149c-5.613 2.033-10.09 3.058-13.616 3.472-2.29.269-4.472-.221-6.328-1.251-2.44-1.355-5.553.426-5.553 3.315v132.092c0 6.394 5.562 11.397 11.911 10.646 3.989-.471 9.194-1.726 15.881-4.334-1.431-1.878-2.295-4.225-2.295-6.791z" fill="#b1dbfc"/></g><g><g><path d="m161.296 165.13c-1.412-4.026.706-8.436 4.732-9.849 5.635-1.977 12.04-4.908 19.037-8.712 15.401-8.374 32.421-9.188 49.22-2.356 3.953 1.608 5.854 6.115 4.247 10.067-1.608 3.953-6.116 5.856-10.068 4.246-12.543-5.102-24.662-4.556-36.018 1.618-7.721 4.198-14.888 7.468-21.301 9.718-4.025 1.412-8.435-.704-9.849-4.732z" fill="#8bcaff"/></g></g><g><g><path d="m161.296 193.182c-1.412-4.026.706-8.436 4.732-9.849 5.635-1.977 12.04-4.908 19.037-8.712 15.401-8.373 32.421-9.188 49.22-2.356 3.953 1.608 5.854 6.115 4.247 10.067-1.608 3.953-6.116 5.856-10.068 4.246-12.543-5.101-24.662-4.557-36.018 1.618-7.721 4.198-14.888 7.468-21.301 9.718-4.025 1.412-8.435-.704-9.849-4.732z" fill="#8bcaff"/></g></g><g><g><path d="m161.296 221.234c-1.412-4.026.706-8.436 4.732-9.849 5.635-1.977 12.04-4.908 19.037-8.712 15.401-8.374 32.421-9.187 49.22-2.356 3.953 1.608 5.854 6.115 4.247 10.067-1.608 3.954-6.116 5.856-10.068 4.246-12.543-5.101-24.662-4.556-36.018 1.618-7.721 4.198-14.888 7.468-21.301 9.718-4.025 1.412-8.435-.704-9.849-4.732z" fill="#8bcaff"/></g></g><g><g><path d="m161.296 249.286c-1.412-4.026.706-8.436 4.732-9.849 5.635-1.977 12.04-4.908 19.037-8.712 15.401-8.373 32.421-9.188 49.22-2.356 3.953 1.608 5.854 6.115 4.247 10.067-1.608 3.954-6.116 5.856-10.068 4.246-12.543-5.101-24.662-4.556-36.018 1.618-7.721 4.198-14.888 7.468-21.301 9.718-4.025 1.412-8.435-.704-9.849-4.732z" fill="#8bcaff"/></g></g></g></svg>