<svg id="Capa_1" enable-background="new 0 0 512 512" height="512" viewBox="0 0 512 512" width="512" xmlns="http://www.w3.org/2000/svg"><g><path d="m0 48.658v291.139l9.166 25.009h341.951v-316.148c0-5.062-4.104-9.166-9.166-9.166h-82.64l-83.752 14.508-83.753-14.508h-82.64c-5.062 0-9.166 4.104-9.166 9.166zm63.515 192.04c0 2.531-2.052 4.583-4.583 4.583h-22.576c-2.531 0-4.583-2.052-4.583-4.583v-22.576c0-2.531 2.052-4.583 4.583-4.583h22.576c2.531 0 4.583 2.052 4.583 4.583zm0-68.626c0 2.531-2.052 4.583-4.583 4.583h-22.576c-2.531 0-4.583-2.052-4.583-4.583v-22.576c0-2.531 2.052-4.583 4.583-4.583h22.576c2.531 0 4.583 2.052 4.583 4.583zm0-69.633c0 2.531-2.052 4.583-4.583 4.583h-22.576c-2.531 0-4.583-2.052-4.583-4.583v-22.576c0-2.531 2.052-4.583 4.583-4.583h22.576c2.531 0 4.583 2.052 4.583 4.583zm255.83 138.259c0 2.531-2.052 4.583-4.583 4.583h-22.576c-2.531 0-4.583-2.052-4.583-4.583v-22.576c0-2.531 2.052-4.583 4.583-4.583h22.576c2.531 0 4.583 2.052 4.583 4.583zm0-68.626c0 2.531-2.052 4.583-4.583 4.583h-22.576c-2.531 0-4.583-2.052-4.583-4.583v-22.576c0-2.531 2.052-4.583 4.583-4.583h22.576c2.531 0 4.583 2.052 4.583 4.583zm0-69.633c0 2.531-2.052 4.583-4.583 4.583h-22.576c-2.531 0-4.583-2.052-4.583-4.583v-22.576c0-2.531 2.052-4.583 4.583-4.583h22.576c2.531 0 4.583 2.052 4.583 4.583z" fill="#407093"/><path d="m341.951 39.492h-34.709v35.788h7.52c2.531 0 4.583 2.052 4.583 4.583v22.576c0 2.531-2.052 4.583-4.583 4.583h-7.52v37.892h7.52c2.531 0 4.583 2.052 4.583 4.583v22.576c0 2.531-2.052 4.583-4.583 4.583h-7.52v36.883h7.52c2.531 0 4.583 2.052 4.583 4.583v22.576c0 2.531-2.052 4.583-4.583 4.583h-22.576c-2.531 0-4.583-2.052-4.583-4.583v-10.065h-224.088v10.065c0 2.531-2.052 4.583-4.583 4.583h-22.576c-2.531 0-4.583-2.052-4.583-4.583v-10.065h-31.773v109.165l9.166 25.009h341.951v-316.149c0-5.062-4.104-9.166-9.166-9.166z" fill="#2b4d66"/><path d="m91.806 39.492h167.505v325.315h-167.505z" fill="#c1d5e4"/><path d="m213.206 159.419-61.65-35.593c-5.333-3.079-12 .77-12 6.928v71.187c0 6.158 6.667 10.007 12 6.928l61.65-35.593c5.333-3.08 5.333-10.778 0-13.857z" fill="#dd5790"/><path d="m91.806 230.633h167.505v134.174h-167.505z" fill="#98b9d3"/><path d="m497.093 307.41-19.75-15.533c-16.014-12.594-35.796-19.441-56.169-19.441h-330.348c-20.373 0-40.155 6.847-56.169 19.441l-19.75 15.533c-9.412 7.402-14.907 18.714-14.907 30.688v68.75c0 11.974 5.495 23.285 14.907 30.687l19.75 15.533c16.014 12.594 35.796 19.441 56.169 19.441h330.348c20.373 0 40.155-6.847 56.169-19.441l19.75-15.533c9.412-7.402 14.907-18.713 14.907-30.687v-68.75c0-11.974-5.495-23.286-14.907-30.688z" fill="#dae7ef"/><path d="m497.093 307.41-19.75-15.533c-.39-.306-.792-.593-1.186-.893 1.65 4.362 2.539 9.03 2.539 13.809v68.75c0 11.974-5.495 23.285-14.907 30.687l-19.75 15.532c-16.014 12.594-35.796 19.441-56.169 19.441h-330.348c-19.877 0-39.182-6.534-54.983-18.548 2.485 6.566 6.712 12.431 12.367 16.878l19.75 15.533c16.014 12.594 35.796 19.441 56.169 19.441h330.348c20.373 0 40.155-6.847 56.169-19.441l19.75-15.533c9.412-7.402 14.907-18.713 14.907-30.687v-68.749c.001-11.973-5.494-23.285-14.906-30.687z" fill="#c1d5e4"/><circle cx="325.051" cy="372.472" fill="#407093" r="69.991"/><path d="m353.504 308.528c3.875 8.696 6.047 18.318 6.047 28.453 0 38.655-31.336 69.991-69.991 69.991-10.135 0-19.757-2.172-28.453-6.047 10.906 24.47 35.424 41.538 63.944 41.538 38.655 0 69.991-31.336 69.991-69.991 0-28.52-17.068-53.038-41.538-63.944z" fill="#2b4d66"/><circle cx="325.051" cy="372.472" fill="#61a2f9" r="37.736"/><path d="m344.147 339.929c3.295 5.603 5.192 12.126 5.192 19.096 0 20.841-16.895 37.736-37.736 37.736-6.97 0-13.493-1.897-19.096-5.192 6.557 11.15 18.672 18.639 32.543 18.639 20.841 0 37.736-16.895 37.736-37.736 0-13.871-7.489-25.986-18.639-32.543z" fill="#4a81f6"/><circle cx="325.051" cy="372.472" fill="#dae7ef" r="12.248"/><circle cx="432.125" cy="320.855" fill="#407093" r="11.493"/><circle cx="432.125" cy="364.807" fill="#dd5790" r="11.493"/><g><g><path d="m187.995 330.043h-103.419c-4.142 0-7.5-3.358-7.5-7.5s3.358-7.5 7.5-7.5h103.419c4.142 0 7.5 3.358 7.5 7.5s-3.358 7.5-7.5 7.5z" fill="#407093"/></g><g><path d="m187.995 363.33h-130.226c-4.142 0-7.5-3.358-7.5-7.5s3.358-7.5 7.5-7.5h130.226c4.142 0 7.5 3.358 7.5 7.5s-3.358 7.5-7.5 7.5z" fill="#407093"/></g><g><path d="m187.995 396.615h-130.226c-4.142 0-7.5-3.358-7.5-7.5s3.358-7.5 7.5-7.5h130.226c4.142 0 7.5 3.358 7.5 7.5s-3.358 7.5-7.5 7.5z" fill="#407093"/></g><g><path d="m187.995 429.901h-103.419c-4.142 0-7.5-3.358-7.5-7.5s3.358-7.5 7.5-7.5h103.419c4.142 0 7.5 3.358 7.5 7.5s-3.358 7.5-7.5 7.5z" fill="#407093"/></g></g></g></svg>