<svg id="Capa_1" enable-background="new 0 0 512 512" height="512" viewBox="0 0 512 512" width="512" xmlns="http://www.w3.org/2000/svg"><g><path d="m325.875 236.444c-14.016 4.297-29.656 17.388-29.656 32.763v86.041c0 15.376 15.64 28.466 29.656 32.763-.021-.303-.046-.605-.046-.913v-149.741c0-.308.026-.61.046-.913z" fill="#7b6c79"/><g><path d="m325.829 334.923c-14.004-4.312-29.61-17.389-29.61-32.748v53.073c0 15.376 15.64 28.466 29.656 32.763-.021-.303-.047-.605-.047-.913v-52.175z" fill="#695d67"/></g><path d="m186.125 236.444c14.016 4.297 29.656 17.388 29.656 32.763v86.041c0 15.376-15.64 28.466-29.656 32.763.021-.303.046-.605.046-.913v-149.741c0-.308-.026-.61-.046-.913z" fill="#7b6c79"/><g><path d="m186.171 334.923v52.175c0 .308-.026.61-.047.913 14.016-4.297 29.656-17.388 29.656-32.763v-53.073c.001 15.359-15.604 28.437-29.609 32.748z" fill="#695d67"/></g><path d="m130.964 237.357c0-.822.086-1.624.229-2.407h-19.897c-2.646 0-5.222.314-7.7.889l-24.155 21.006c-.012-.032-.022-.065-.033-.098-1.523 3.867-2.37 8.068-2.37 12.46v86.04c0 18.841 15.416 34.258 34.257 34.258h19.897c-.143-.783-.229-1.585-.229-2.407v-149.741z" fill="#ff4756"/><g><g><path d="m130.964 336.433h-19.668c-18.842 0-34.257-15.416-34.257-34.258v53.073c0 18.841 15.416 34.258 34.257 34.258h19.897c-.143-.783-.229-1.585-.229-2.407z" fill="#fc2d39"/></g></g><path d="m432.592 256.747c-.011.032-.022.065-.033.098l-24.155-21.006c-2.478-.575-5.053-.889-7.699-.889h-19.897c.142.783.228 1.585.228 2.407v149.741c0 .822-.086 1.624-.228 2.407h19.897c1.709 0 3.388-.131 5.031-.375l27.186-22.274c1.318-3.63 2.04-7.539 2.04-11.609v-86.04c0-4.391-.847-8.592-2.37-12.46z" fill="#ff4756"/><g><g><path d="m400.704 336.433h-19.669v50.665c0 .822-.086 1.624-.228 2.407h19.897c1.709 0 3.388-.131 5.031-.375l27.186-22.274c1.318-3.63 2.04-7.539 2.04-11.609v-53.073c.001 18.921-15.337 34.259-34.257 34.259z" fill="#fc2d39"/></g></g><path d="m368.548 223.839h-30.232c-7.435 0-13.518 6.083-13.518 13.518v149.741c0 7.435 6.083 13.518 13.518 13.518h30.232c7.435 0 13.518-6.083 13.518-13.518v-149.741c0-7.435-6.083-13.518-13.518-13.518z" fill="#ff656f"/><path d="m368.548 223.839h-30.232c-7.435 0-13.518 6.083-13.518 13.518v149.741c0 7.435 6.083 13.518 13.518 13.518h30.232c7.435 0 13.518-6.083 13.518-13.518v-149.741c0-7.435-6.083-13.518-13.518-13.518z" fill="#ff656f"/><path d="m368.548 347.543h-30.232c-7.435 0-13.517-6.083-13.517-13.518v53.073c0 7.435 6.083 13.518 13.517 13.518h30.232c7.435 0 13.518-6.083 13.518-13.518v-53.073c0 7.435-6.083 13.518-13.518 13.518z" fill="#ff4756"/><path d="m143.452 223.839h30.232c7.435 0 13.518 6.083 13.518 13.518v149.741c0 7.435-6.083 13.518-13.518 13.518h-30.232c-7.435 0-13.518-6.083-13.518-13.518v-149.741c0-7.435 6.083-13.518 13.518-13.518z" fill="#ff656f"/><path d="m173.684 347.543h-30.232c-7.435 0-13.518-6.083-13.518-13.518v53.073c0 7.435 6.083 13.518 13.518 13.518h30.232c7.435 0 13.518-6.083 13.518-13.518v-53.073c-.001 7.435-6.084 13.518-13.518 13.518z" fill="#ff4756"/><path d="m419.704 357.376c-7.714 0-13.968 6.254-13.968 13.968v69.837c-15.052 7.439-52.263 24.158-95.936 31.622 3.879 3.41 6.566 8.201 7.182 13.738.567 5.084-.698 9.947-3.255 13.945 61.907-10.373 110.595-37.379 112.81-38.621 4.406-2.472 7.134-7.13 7.134-12.182v-78.338c.001-7.715-6.253-13.969-13.967-13.969z" fill="#7b6c79"/><path d="m419.704 357.376c-7.714 0-13.968 6.254-13.968 13.968v69.837c-15.052 7.439-52.263 24.158-95.935 31.622 3.879 3.409 6.565 8.201 7.182 13.738.566 5.084-.697 9.947-3.255 13.945 6.208-1.04 12.279-2.25 18.188-3.582.226-1.693.264-3.438.066-5.212-.006-.055-.013-.111-.019-.166-.964-8.082 4.093-15.615 12.013-17.496 29.334-6.965 54.236-17.183 69.115-24.05 4.668-2.154 7.644-6.827 7.644-11.967v-61.124c0-6.448 4.255-12.112 10.201-13.824-2.544-3.445-6.621-5.689-11.232-5.689z" fill="#695d67"/><path d="m185.176 52.987c-3.111-2.211-5.229-5.816-5.229-10.118v-18.413c0-.507.039-1.007.099-1.502-65.549 29.193-111.365 94.949-111.365 171.213 0 21.478 3.62 42.566 10.761 62.678 2.711 7.637 11.099 11.632 18.736 8.918 7.636-2.711 11.629-11.1 8.918-18.736-6.019-16.952-9.07-34.736-9.07-52.86 0-61.658 35.511-115.17 87.15-141.18z" fill="#7b6c79"/><path d="m331.954 22.954c.06.495.099.995.099 1.502v18.413c0 4.302-2.118 7.907-5.229 10.118 51.639 26.011 87.15 79.523 87.15 141.18 0 18.124-3.052 35.908-9.07 52.86-2.711 7.636 1.282 16.025 8.918 18.736 1.623.576 3.28.849 4.908.849 6.037 0 11.693-3.754 13.828-9.767 7.14-20.113 10.761-41.201 10.761-62.678 0-76.264-45.816-142.02-111.365-171.213z" fill="#7b6c79"/><path d="m96.44 256.845c-7.14-20.113-10.761-41.201-10.761-62.678 0-69.441 37.989-130.165 94.269-162.513v-7.198c0-.507.039-1.007.099-1.502-65.55 29.193-111.366 94.949-111.366 171.213 0 21.478 3.62 42.566 10.761 62.678 2.711 7.637 11.098 11.632 18.736 8.918 1.312-.466 2.507-1.109 3.589-1.878-2.376-1.686-4.279-4.087-5.327-7.04z" fill="#695d67"/><path d="m421.903 247.027c6.018-16.952 9.07-34.736 9.07-52.86 0-56.155-29.456-105.554-73.725-133.573-5.71-3.614-8.706-10.073-8.229-16.813.021-.3.032-.604.032-.911v-11.217c-5.529-3.178-11.232-6.088-17.097-8.699.06.495.099.995.099 1.502v18.413c0 4.302-2.118 7.907-5.228 10.118 51.639 26.011 87.15 79.523 87.15 141.18 0 18.033-3.021 35.73-8.98 52.605-2.612 7.397.902 15.768 8.163 18.737 1.833.75 3.722 1.103 5.573 1.103 3.072 0 6.044-.977 8.505-2.724-5.216-3.704-7.579-10.535-5.333-16.861z" fill="#695d67"/><g><path d="m267.819 512c-11.868 0-21.489-9.621-21.489-21.489s9.621-21.489 21.489-21.489c8.187 0 17.772-.491 26.458-1.458 11.791-1.314 22.422 7.182 23.736 18.977s-7.182 22.422-18.977 23.736c-10.259 1.144-21.446 1.723-31.217 1.723z" fill="#dfebfa"/></g><path d="m278.135 489.341c0-9.243 5.138-17.284 12.713-21.425-7.726.734-15.906 1.106-23.029 1.106-11.868 0-21.489 9.621-21.489 21.489s9.621 21.489 21.489 21.489c7.368 0 15.539-.33 23.512-.982-7.838-4.061-13.196-12.24-13.196-21.677z" fill="#b1dbfc"/><path d="m325.199 12.848c-21.136-8.289-45.159-12.848-69.199-12.848s-48.063 4.559-69.199 12.848c-4.766 1.869-7.884 6.489-7.884 11.608v18.413c0 8.885 8.993 14.852 17.234 11.533 18.188-7.326 39.07-11.362 59.849-11.362s41.661 4.036 59.849 11.362c8.241 3.319 17.234-2.648 17.234-11.533v-18.413c0-5.119-3.118-9.739-7.884-11.608z" fill="#ff656f"/><g><path d="m226.642 32.567v-18.413c0-5.119 3.118-9.739 7.884-11.608 1.606-.63 3.234-1.231 4.872-1.817-18.369 1.585-36.337 5.743-52.596 12.119-4.766 1.869-7.884 6.489-7.884 11.608v18.413c0 8.885 8.993 14.852 17.234 11.533 12.102-4.874 25.399-8.282 39.063-10.024-4.848-1.607-8.573-6.097-8.573-11.811z" fill="#ff4756"/></g></g></svg>