<svg id="Capa_1" enable-background="new 0 0 504.5 504.5" height="512" viewBox="0 0 504.5 504.5" width="512" xmlns="http://www.w3.org/2000/svg"><g><g fill="#e5e1e5"><path d="m470.184 104.413-70.176-70.176c-2.929-2.929-7.678-2.929-10.606 0-2.929 2.929-2.929 7.678 0 10.607l70.176 70.176c1.464 1.465 3.384 2.197 5.303 2.197s3.839-.732 5.303-2.197c2.929-2.929 2.93-7.678 0-10.607z"/><path d="m485.178 89.419-70.176-70.176c-2.93-2.929-7.677-2.928-10.607 0-2.929 2.929-2.928 7.678 0 10.607l70.176 70.175c1.464 1.464 3.384 2.197 5.303 2.197s3.839-.732 5.303-2.197c2.931-2.928 2.931-7.677.001-10.606z"/><path d="m502.225 72.372-70.175-70.175c-2.929-2.929-7.678-2.929-10.607 0s-2.929 7.678 0 10.606l70.176 70.176c1.464 1.464 3.384 2.197 5.303 2.197s3.839-.732 5.303-2.197c2.93-2.929 2.93-7.678 0-10.607z"/></g><path d="m226.829 458.885c-58.517 58.517-140.744 59.647-190.763 9.628-2.864-2.864-5.562-5.836-8.088-8.894-41.614-50.465-37.454-126.698 17.716-181.869 34.202-34.202 78.464-50.76 119.329-48.637 15.701.82 30.554-6.462 40.131-18.932 1.583-2.058 3.31-4.03 5.195-5.915 20.58-20.58 52.364-23.135 75.737-7.664 4.03 2.677 7.815 5.886 11.247 9.635 20.854 22.782 20.89 58.208.094 81.047-1.907 2.094-3.915 4.015-6.03 5.771-11.96 9.974-17.803 25.445-16.342 40.937 4.002 42.385-12.47 89.137-48.226 124.893z" fill="#d8aa5e"/><path d="m209.84 441.895c-55.164 55.164-131.404 59.33-181.862 17.723-41.614-50.464-37.454-126.697 17.716-181.868 34.202-34.202 78.464-50.76 119.329-48.637 15.701.82 30.554-6.462 40.131-18.932 1.583-2.058 3.31-4.03 5.195-5.915 20.58-20.58 52.364-23.135 75.737-7.664 14.91 22.537 13.032 53.199-5.642 73.7-1.907 2.094-3.922 4.008-6.03 5.771-11.96 9.974-17.81 25.437-16.342 40.937 3.995 42.377-12.476 89.129-48.232 124.885z" fill="#e9b665"/><path d="m58.921 317.687-23.972 42.968c-2.093 3.751 1.363 8.141 5.511 7.027 8.166-2.195 19.381-7.387 26.749-19.666 8.018-13.364 4.044-24.329-.02-30.636-1.967-3.052-6.499-2.864-8.268.307z" fill="#ffefd2"/><path d="m188.327 447.093-42.968 23.972c-3.751 2.093-8.141-1.363-7.027-5.511 2.195-8.166 7.387-19.381 19.666-26.749 13.364-8.018 24.329-4.044 30.636.02 3.052 1.967 2.864 6.499-.307 8.268z" fill="#ffefd2"/><path d="m250.676 358.603c-28.589 13.708-84.206-21.501-84.206-21.501l130.864-130.864s-19.17 59.395-18.314 69.131c1.62 18.313.238 69.519-28.344 83.234z" fill="#fedba6"/><path d="m236.565 344.492c-18.148 8.707-47.183-2.31-65.972-11.513l100.44-100.44c-3.576 12.873-6.469 24.804-6.124 28.719 1.62 18.313.238 69.519-28.344 83.234z" fill="#ffefd2"/><path d="m279.024 275.371-49.82-49.82 174.074-155.365 30.391 30.391z" fill="#596c76"/><path d="m263.193 259.54-33.989-33.989 174.074-155.365 14.56 14.56z" fill="#7a8c98"/><path d="m460.767 91.844c-11.64 2.719-27.097 8.728-27.097 8.728l-30.387-30.387s5.759-15.707 8.485-27.34c3.861-15.493 18.583-26.205 33.32-25.327l23.936 1.242 1.22.064 8.942.464c2.776.136 4.995 2.355 5.145 5.145l1.763 34.091c1.135 15.636-11.718 30.373-25.327 33.32z" fill="#a44f3e"/><path d="m444.938 76.015c-11.647 2.712-27.097 8.728-27.097 8.728l-14.558-14.558s5.759-15.707 8.485-27.34c3.861-15.493 18.583-26.205 33.32-25.327l23.936 1.242 1.242 23.936c1.134 15.635-11.719 30.372-25.328 33.319z" fill="#bb5d4c"/><g><path d="m155.014 359.162-70.074 70.074c-1.464 1.464-3.387 2.199-5.303 2.192-1.916.007-3.84-.728-5.303-2.192-2.927-2.927-2.928-7.679 0-10.607l70.074-70.074c2.928-2.928 7.679-2.927 10.607 0 2.927 2.928 2.927 7.68-.001 10.607z" fill="#e5e1e5"/></g><g><path d="m167.194 295.061c-1.919 0-3.839-.732-5.303-2.197-2.929-2.929-2.929-7.678 0-10.606l62.01-62.01c2.929-2.929 7.678-2.929 10.606 0 2.929 2.929 2.929 7.678 0 10.606l-62.01 62.01c-1.465 1.464-3.384 2.197-5.303 2.197z" fill="#e5e1e5"/></g><g><path d="m60.258 406.315c-1.919 0-3.839-.732-5.303-2.197-2.929-2.929-2.929-7.678 0-10.606l68.459-68.46c2.929-2.929 7.678-2.929 10.606 0 2.929 2.929 2.929 7.678 0 10.606l-68.459 68.46c-1.465 1.464-3.384 2.197-5.303 2.197z" fill="#e5e1e5"/></g><g><path d="m105.831 451.799c-1.919 0-3.839-.732-5.303-2.197-2.929-2.929-2.929-7.678 0-10.606l68.46-68.459c2.929-2.929 7.678-2.929 10.606 0 2.929 2.929 2.929 7.678 0 10.606l-68.46 68.459c-1.464 1.465-3.383 2.197-5.303 2.197z" fill="#e5e1e5"/></g><g><path d="m191.88 370.014c-1.919 0-3.839-.732-5.303-2.197-2.929-2.929-2.929-7.678 0-10.606l87.144-87.144c2.929-2.929 7.678-2.929 10.606 0 2.929 2.929 2.929 7.678 0 10.606l-87.144 87.144c-1.464 1.465-3.383 2.197-5.303 2.197z" fill="#e5e1e5"/></g><path d="m229.285 405.976-9.447 9.447c-1.673 1.673-4.387 1.673-6.06 0l-124.627-124.628c-1.673-1.673-1.673-4.387 0-6.06l9.447-9.447c1.673-1.673 4.387-1.673 6.06 0l124.628 124.628c1.673 1.673 1.673 4.387-.001 6.06z" fill="#a44f3e"/><path d="m204.374 381.065-9.447 9.447c-1.673 1.673-4.387 1.673-6.06 0l-99.716-99.716c-1.673-1.673-1.673-4.387 0-6.06l9.447-9.447c1.673-1.673 4.387-1.673 6.06 0l99.716 99.716c1.674 1.673 1.674 4.386 0 6.06z" fill="#bb5d4c"/><path d="m101.489 447.586c-14.749 9.578-33.918 27.498-42.321 35.599-2.385 2.299-6.167 2.261-8.51-.082l-29.189-29.189c-2.343-2.343-2.382-6.125-.082-8.51 8.101-8.403 26.021-27.572 35.599-42.32 1.727-2.659 4.76-4.164 7.923-3.941l30.299 2.132c4.339.305 7.792 3.758 8.096 8.097l.598 8.518 1.528 21.775c.222 3.162-1.283 6.195-3.941 7.921z" fill="#aa9ea9"/><path d="m90.59 436.225c-5.447 4.613-38.584 31.792-38.584 31.792s-3.078 3.124-6.647 4.621c-2.232.936-4.816.352-6.527-1.36l-17.363-17.363c-2.343-2.343-2.382-6.125-.082-8.51 8.101-8.403 26.021-27.572 35.599-42.32 1.727-2.659 4.76-4.164 7.923-3.941l30.299 2.132c4.339.305 7.792 3.758 8.096 8.097l.598 8.518c0-.001-7.865 13.721-13.312 18.334z" fill="#baafb9"/></g></svg>