<svg id="Capa_1" enable-background="new 0 0 512 512" height="512" viewBox="0 0 512 512" width="512" xmlns="http://www.w3.org/2000/svg"><g><g><path d="m222.19 162.648c-10.377 2.687-20.305 8.181-28.674 16.762-7.315 7.5-12.375 12.68-13.156 13.462-9.364 9.364-18.206 24.749-24.659 42.699-1.442 4.011-5.153 6.779-9.408 7.029-49.019 2.882-99.434 23.667-122.578 46.81-40.072 40.072-28.152 116.961 26.625 171.738 54.776 54.776 131.665 66.697 171.737 26.625 21.314-21.314 40.627-65.757 45.801-110.938.489-4.267 3.51-7.828 7.625-9.056 21.896-6.537 41.081-16.779 52.033-27.732l.074-.074c3.321-3.321 2.054-8.961-2.367-10.547-37.592-13.493-71.824-51.753-87.103-102.959-5.83-19.537-8.314-39.009-7.827-57.394.114-4.319-3.939-7.508-8.123-6.425z" fill="#dd5790"/></g><g><g><path d="m325.243 329.426c-12.526-4.496-24.674-11.756-35.877-21.315-11.277 9.806-28.904 18.802-48.791 24.739-4.115 1.229-7.137 4.79-7.625 9.056-5.173 45.181-24.487 89.624-45.801 110.938-35.712 35.712-100.667 30.128-153.151-10.283 4.933 6.406 10.383 12.627 16.342 18.586 54.776 54.776 131.665 66.697 171.737 26.625 21.314-21.314 40.627-65.757 45.8-110.938.489-4.267 3.51-7.828 7.625-9.056 21.896-6.537 41.081-16.779 52.033-27.732l.074-.074c3.322-3.32 2.054-8.959-2.366-10.546z" fill="#da387d"/></g></g><g><path d="m444.871 110.971-260.907 260.908c-3.905 3.905-10.237 3.905-14.142 0l-30.213-30.213c-3.905-3.905-3.905-10.237 0-14.142l260.907-260.908z" fill="#407093"/></g><path d="m424.8 90.899-260.908 260.908c-3.905 3.905-10.237 3.905-14.142 0l20.072 20.072c3.905 3.905 10.237 3.905 14.142 0l260.907-260.907z" fill="#2b4d66"/><g><g><path d="m142.944 425.952c-1.967 0-3.934-.75-5.434-2.251l-49.724-49.724c-3.002-3.002-3.002-7.867 0-10.869 3.001-3 7.867-3 10.868 0l49.724 49.724c3.002 3.002 3.002 7.867 0 10.869-1.5 1.501-3.467 2.251-5.434 2.251z" fill="#c1d5e4"/></g><g><path d="m118.082 450.814c-1.967 0-3.934-.751-5.434-2.251l-49.723-49.723c-3.002-3.002-3.002-7.867 0-10.869 3.002-3 7.868-3 10.868 0l49.723 49.724c3.002 3.002 3.002 7.867 0 10.869-1.5 1.5-3.468 2.25-5.434 2.25z" fill="#c1d5e4"/></g></g><g><circle cx="206.483" cy="401.148" fill="#dae7ef" r="17.119"/></g><g><circle cx="172.245" cy="460.248" fill="#dae7ef" r="17.119"/></g><g><path d="m210.926 384.632c.381 1.419.603 2.904.603 4.443 0 9.455-7.665 17.119-17.119 17.119-1.539 0-3.024-.222-4.443-.603 1.959 7.297 8.601 12.676 16.516 12.676 9.455 0 17.119-7.664 17.119-17.119 0-7.915-5.379-14.557-12.676-16.516z" fill="#c1d5e4"/></g><g><path d="m176.688 443.732c.381 1.419.603 2.903.603 4.443 0 9.455-7.664 17.119-17.119 17.119-1.539 0-3.024-.222-4.443-.603 1.959 7.297 8.601 12.676 16.516 12.676 9.455 0 17.119-7.664 17.119-17.119 0-7.915-5.38-14.557-12.676-16.516z" fill="#c1d5e4"/></g><g><path d="m139.783 335.034c-1.967 0-3.934-.751-5.434-2.251-3.002-3.002-3.002-7.867 0-10.869l260.732-260.732c3.002-3 7.867-3 10.869 0 3.001 3.002 3.001 7.867 0 10.869l-260.733 260.733c-1.5 1.5-3.467 2.25-5.434 2.25z" fill="#c1d5e4"/></g><g><path d="m184.139 379.39c-1.967 0-3.934-.751-5.434-2.251-3.002-3.002-3.002-7.867 0-10.869l260.732-260.733c3.002-3 7.867-3 10.869 0 3.001 3.002 3.001 7.867 0 10.869l-260.733 260.733c-1.501 1.5-3.467 2.251-5.434 2.251z" fill="#c1d5e4"/></g><g><path d="m504.315 93.604c-1.966 0-3.934-.751-5.435-2.251l-27.052-27.052c-3.001-3.002-3.001-7.867 0-10.869 3.002-3 7.867-3 10.869 0l27.052 27.052c3.001 3.002 3.001 7.867 0 10.869-1.501 1.5-3.468 2.251-5.434 2.251z" fill="#407093"/></g><g><path d="m479.453 118.465c-1.966 0-3.934-.751-5.434-2.251l-27.052-27.051c-3.002-3.001-3.002-7.867-.001-10.868 3.002-3.002 7.868-3.001 10.868-.001l27.052 27.051c3.002 3.001 3.002 7.867.001 10.868-1.501 1.501-3.468 2.252-5.434 2.252z" fill="#407093"/></g><g><path d="m457.729 147.302c-1.966 0-3.934-.751-5.434-2.251l-27.052-27.051c-3.002-3.001-3.002-7.867-.001-10.868 3.002-3.002 7.868-3.001 10.868-.001l27.052 27.051c3.002 3.001 3.002 7.867.001 10.868-1.501 1.502-3.468 2.252-5.434 2.252z" fill="#407093"/></g><g><g><path d="m453.646 42.935c-1.966 0-3.934-.751-5.435-2.251l-27.052-27.052c-3.001-3.002-3.001-7.867 0-10.869 3.002-3 7.867-3 10.869 0l27.052 27.052c3.001 3.002 3.001 7.867 0 10.869-1.5 1.501-3.468 2.251-5.434 2.251z" fill="#407093"/></g><g><path d="m428.784 67.797c-1.967 0-3.934-.751-5.435-2.252l-27.051-27.052c-3.001-3.001-3.001-7.867.001-10.868 3-3.001 7.866-3 10.868.001l27.051 27.052c3.001 3.001 3.001 7.867-.001 10.868-1.499 1.501-3.467 2.251-5.433 2.251z" fill="#407093"/></g><g><path d="m399.946 89.521c-1.967 0-3.934-.751-5.435-2.252l-27.051-27.052c-3.001-3.001-3.001-7.867.001-10.868 3.001-3.001 7.867-3 10.868.001l27.051 27.052c3.001 3.001 3.001 7.867-.001 10.868-1.499 1.5-3.466 2.251-5.433 2.251z" fill="#407093"/></g></g><g><path d="m452.082 122.805c3.183-15.29 10.762-29.319 21.806-40.362 7.747-7.748 17-13.825 27.188-17.858 8.195-2.732 10.651-13.133 4.542-19.241l-36.897-36.898c-5.482-5.482-14.37-5.482-19.852 0-1.21 1.21-2.209 2.621-2.886 4.192-4.013 9.31-9.759 17.782-16.938 24.961-11.044 11.044-25.072 18.623-40.362 21.806-5.49 1.143-9.215 6.267-8.608 11.841l2.565 23.57c.947 8.701 4.837 16.818 11.025 23.007 6.189 6.189 14.306 10.079 23.007 11.025l23.57 2.565c5.573.607 10.697-3.118 11.84-8.608z" fill="#407093"/></g><g><path d="m505.618 45.343-23.404-23.404c6.109 6.109 3.653 16.51-4.542 19.242-10.187 4.033-19.44 10.111-27.188 17.858-11.044 11.044-18.623 25.072-21.806 40.362-1.143 5.49-6.267 9.215-11.841 8.608l-23.57-2.565c-2.97-.323-5.868-.997-8.648-1.98 1.897 5.366 4.969 10.282 9.045 14.359 6.189 6.189 14.306 10.079 23.007 11.025l23.57 2.565c5.574.607 10.699-3.118 11.841-8.608 3.183-15.29 10.762-29.319 21.806-40.363 7.748-7.748 17-13.825 27.188-17.858 8.195-2.731 10.65-13.133 4.542-19.241z" fill="#2b4d66"/></g><g><path d="m142.944 376.228c-1.967 0-3.934-.751-5.434-2.251-3.002-3.002-3.002-7.867 0-10.869l261.844-261.845c3.002-3 7.867-3 10.869 0 3.001 3.002 3.001 7.867 0 10.869l-261.845 261.846c-1.5 1.5-3.467 2.25-5.434 2.25z" fill="#c1d5e4"/></g></g></svg>