<svg id="Capa_1" enable-background="new 0 0 497.002 497.002" height="512" viewBox="0 0 497.002 497.002" width="512" xmlns="http://www.w3.org/2000/svg"><g><path d="m382.253 305.69-256.8 185.792c-12.155 8.506-28.666 7.043-39.153-3.444l-25.357-25.357c-2.036-2.036-4.342-3.776-6.866-5.169l-22.627-12.472c-5.678-3.118-10.133-7.927-12.848-13.626-1.386-2.885-2.312-6.003-2.737-9.256l-2.623-20.329c-.792-6.18 2.397-16.567 11.144-27.987l122.498-66.351 88.371-144.519 158.599-158.599c2.087-2.087 4.871-3.317 7.819-3.458 1.638-.078 3.664-.147 6.007-.172l54.009-.594 5.445-.057 7.729-.092c7.7-.092 11.865 8.994 6.781 14.772l-61.179 69.48c-6.159 7.007-15.266 10.684-24.558 9.921l-19.898-1.64c-3.769-.304-7.425 1.414-9.588 4.526l-64.891 93.204c-1.52 2.185-1.075 5.176 1.018 6.831l71.496 56.434 2.355 1.86.007.007 7.149 5.636c14.643 11.559 13.985 33.982-1.302 44.659z" fill="#01998d"/><path d="m364.794 288.232-256.793 185.799c-12.162 8.499-28.666 7.043-39.152-3.444l-7.905-7.905c-2.036-2.036-4.342-3.776-6.866-5.169l-22.628-12.473c-5.678-3.118-10.133-7.927-12.848-13.626-1.386-2.885-2.312-6.003-2.737-9.256l-2.623-20.329c-.792-6.18 2.397-16.567 11.144-27.987l122.498-66.351 87.562-143.709 159.408-159.409c2.087-2.087 4.871-3.317 7.819-3.458 1.638-.078 3.664-.147 6.007-.172l54.009-.594-58.683 66.645c-6.159 7.007-15.266 10.684-24.558 9.921l-19.891-1.633c-3.776-.311-7.432 1.407-9.595 4.518l-66.638 95.841c-1.52 2.185-1.075 5.176 1.011 6.824l19.212 14.828 67.624 53.378c3.257 2.571 5.462 6.257 6.138 10.35 1.667 10.092-2.222 20.917-11.515 27.411z" fill="#0ab69f"/><g fill="#e5e1e5"><path d="m225.073 167.668h49.263v92.411h-49.263z" transform="matrix(.707 -.707 .707 .707 -78.095 239.209)"/><path d="m189.984 202.607h49.561v92.411h-49.561z" transform="matrix(.707 -.707 .707 .707 -113.034 224.737)"/><path d="m154.939 237.652h49.561v92.411h-49.561z" transform="matrix(.707 -.707 .707 .707 -148.079 210.221)"/><path d="m119.895 272.697h49.561v92.411h-49.561z" transform="matrix(.707 -.707 .707 .707 -183.123 195.705)"/><path d="m84.85 307.741h49.561v92.411h-49.561z" transform="matrix(.707 -.707 .707 .707 -218.168 181.189)"/><path d="m49.805 342.786h49.561v92.411h-49.561z" transform="matrix(.707 -.707 .707 .707 -253.213 166.673)"/></g><path d="m247.526 221.874h49.263v28.904h-49.263z" fill="#d7d0d6" transform="matrix(.707 -.707 .707 .707 -87.395 261.663)"/><path d="m212.437 256.814h49.561v28.904h-49.561z" fill="#d7d0d6" transform="matrix(.707 -.707 .707 .707 -122.334 247.19)"/><path d="m177.393 291.859h49.561v28.904h-49.561z" fill="#d7d0d6" transform="matrix(.707 -.707 .707 .707 -157.379 232.674)"/><path d="m142.348 326.903h49.561v28.904h-49.561z" fill="#d7d0d6" transform="matrix(.707 -.707 .707 .707 -192.424 218.158)"/><path d="m107.303 361.948h49.561v28.904h-49.561z" fill="#d7d0d6" transform="matrix(.707 -.707 .707 .707 -227.469 203.642)"/><path d="m72.258 396.993h49.561v28.904h-49.561z" fill="#d7d0d6" transform="matrix(.707 -.707 .707 .707 -262.513 189.126)"/><path d="m341.724 302.319-62.96 62.95c-3.13 3.14-8.22 3.14-11.35 0l-10.09-10.09c-.02-.01-.04-.03-.06-.05l18.996-54.336 55.314-19.974 10.15 10.14c3.13 3.14 3.13 8.22 0 11.36z" fill="#e41f2d"/><path d="m331.574 292.169-62.96 62.96c-3.11 3.11-8.16 3.13-11.29.05-.02-.01-.04-.03-.06-.05l-11.99-11.99c-3.13-3.14-3.13-8.22 0-11.36l62.95-62.95c3.14-3.14 8.22-3.14 11.36 0l11.99 11.99c3.13 3.13 3.13 8.22 0 11.35z" fill="#fd4755"/><path d="m150.64 432.538-28.348 28.348c-2.998 2.998-7.856 3.005-10.854.007l-21.701-21.701 39.209-39.209 21.701 21.701c2.998 2.998 2.991 7.856-.007 10.854z" fill="#fac600"/><path d="m140.422 422.32-28.348 28.348c-2.998 2.998-7.863 2.998-10.861 0l-11.476-11.476 39.209-39.209 11.476 11.476c2.998 2.998 2.998 7.863 0 10.861z" fill="#fed402"/><g fill="#d7d0d6"><path d="m109.49 389.156c-2.987 2.827-7.766 2.541-10.675-.367l-44.688-44.689 10.607-10.607 44.908 44.908c2.977 2.978 2.934 7.834-.152 10.755z"/><path d="m144.534 354.112c-2.987 2.827-7.766 2.541-10.674-.368l-44.689-44.689 10.607-10.607 44.908 44.908c2.977 2.979 2.934 7.835-.152 10.756z"/><path d="m214.046 284.516c-3.014 2.336-7.354 1.87-10.05-.826l-44.73-44.73 10.607-10.607 44.908 44.908c3.155 3.156 2.91 8.43-.735 11.255z"/><path d="m179.003 319.56c-3.014 2.336-7.354 1.87-10.05-.826l-44.73-44.73 10.607-10.607 44.908 44.908c3.155 3.155 2.91 8.429-.735 11.255z"/><path d="m248.567 249.996c-3.014 2.336-7.354 1.87-10.05-.827l-44.729-44.729 10.607-10.607 44.908 44.908c3.154 3.155 2.909 8.429-.736 11.255z"/></g><path d="m272.642 256.279-15.79 15.79-37.115-37.115c-1.166-1.166-1.166-3.057 0-4.223l11.567-11.567c1.166-1.166 3.057-1.166 4.223 0z" fill="#7a8c98"/><path d="m237.81 291.112-15.79 15.79-37.115-37.115c-1.166-1.166-1.166-3.057 0-4.223l11.567-11.567c1.166-1.166 3.057-1.166 4.223 0z" fill="#7a8c98"/><path d="m167.72 361.201-15.79 15.79-37.115-37.115c-1.166-1.166-1.166-3.057 0-4.223l11.567-11.567c1.166-1.166 3.057-1.166 4.223 0z" fill="#7a8c98"/><path d="m132.675 396.246-15.79 15.79-37.115-37.115c-1.166-1.166-1.166-3.057 0-4.223l11.567-11.567c1.166-1.166 3.057-1.166 4.223 0z" fill="#7a8c98"/><g><path d="m393.089 64.879c-1.919 0-3.839-.732-5.304-2.197-2.929-2.929-2.929-7.678 0-10.606l29.351-29.351c2.93-2.929 7.678-2.929 10.607 0s2.929 7.678 0 10.606l-29.351 29.351c-1.465 1.465-3.385 2.197-5.303 2.197z" fill="#e5e1e5"/></g><circle cx="212.435" cy="364.621" fill="#e5e1e5" r="9.202"/><g><path d="m175.997 408.559c-1.919 0-3.839-.732-5.303-2.197-2.929-2.929-2.929-7.678 0-10.606l15.79-15.79c2.929-2.929 7.678-2.929 10.606 0 2.929 2.929 2.929 7.678 0 10.606l-15.79 15.79c-1.464 1.464-3.383 2.197-5.303 2.197z" fill="#01998d"/></g></g></svg>