<svg id="Capa_1" enable-background="new 0 0 512 512" height="512" viewBox="0 0 512 512" width="512" xmlns="http://www.w3.org/2000/svg"><g><g><path d="m266.927 283.486v-175.618c0-16.587 4.012-32.928 11.693-47.63l28.03-53.65c2.042-3.909 7.595-4.024 9.798-.203l23.81 41.309c14.176 24.594 17.557 53.953 9.343 81.126l-46.753 154.665h-35.921z" fill="#86f1a7"/></g><g><path d="m340.257 47.695-23.81-41.309c-2.202-3.821-7.756-3.706-9.798.203l-11.839 22.66 10.632 18.446c14.176 24.594 17.557 53.953 9.343 81.126l-46.753 154.665h34.814l46.754-154.666c8.214-27.172 4.833-56.531-9.343-81.125z" fill="#78d090"/></g><g><path d="m212.341 66.944 71.731 45.576c13.68 8.692 23.375 22.433 26.977 38.235l.172.753-.204 35.402 13.645 23.565 22.886 100.402-65.146 9.272-57.387-122.927c-6.997-14.988-11.444-31.039-13.158-47.492l-8.073-77.488c-.485-4.65 4.612-7.805 8.557-5.298z" fill="#86f1a7"/></g><g><path d="m206.553 88.114 50.134 31.854c13.68 8.692 23.375 22.433 26.977 38.235l33.351 146.313 30.534-4.346-36.499-160.122c-3.602-15.802-13.297-29.543-26.977-38.235l-71.731-45.576c-3.946-2.507-9.042.648-8.558 5.297z" fill="#78d090"/></g><g><path d="m438.062 107.718-10.831 57.757c-2.656 14.161-10.032 27.005-20.925 36.435l-64.748 56.051-56.508 4.769 54.696-98.532c12.042-21.692 31.157-38.6 54.158-47.902l36.569-14.79c4.095-1.658 8.403 1.869 7.589 6.212z" fill="#86f1a7"/></g><g><path d="m430.471 101.505-25.018 10.118-7.223 38.518c-2.656 14.161-10.032 27.005-20.925 36.435l-60.249 52.156c-2.924 2.531-6.575 4.07-10.428 4.395l-11.223.947-10.356 18.655 56.508-4.769 64.748-56.051c10.893-9.43 18.27-22.274 20.925-36.435l10.831-57.757c.815-4.342-3.493-7.869-7.59-6.212z" fill="#78d090"/></g><g><path d="m393.874 268.893-22.484-23.403c-2.748-2.86-6.542-4.476-10.508-4.476h-106.196c-3.966 0-7.76 1.616-10.508 4.476l-22.484 23.403c-10.864 11.308-16.932 26.382-16.932 42.063v127.514c0 15.681 6.067 30.755 16.932 42.063l22.484 23.403c2.748 2.86 6.542 4.476 10.508 4.476h106.196c3.966 0 7.76-1.616 10.508-4.476l22.484-23.403c10.864-11.308 16.932-26.382 16.932-42.063v-127.514c0-15.681-6.068-30.755-16.932-42.063z" fill="#dae7ef"/></g><g><path d="m393.874 268.893-22.484-23.403c-2.748-2.86-6.542-4.476-10.508-4.476h-.298c5.125 9.051 7.893 19.341 7.893 29.912v127.514c0 15.681-6.067 30.755-16.932 42.063l-22.484 23.403c-2.748 2.86-6.542 4.476-10.508 4.476h-105.898c2.478 4.376 5.498 8.466 9.039 12.151l22.484 23.403c2.748 2.86 6.542 4.476 10.508 4.476h106.196c3.966 0 7.76-1.616 10.508-4.476l22.484-23.403c10.864-11.308 16.932-26.382 16.932-42.063v-127.514c0-15.681-6.068-30.755-16.932-42.063z" fill="#c1d5e4"/></g><g><path d="m308.388 350.594-50.107-48.217c-7.422-7.142-7.649-18.948-.507-26.37 7.142-7.422 18.948-7.649 26.37-.507l16.565 15.94c4.331 4.168 9.469 7.406 15.097 9.517 6.978 2.616 13.179 6.958 18.025 12.62l14.952 17.471z" fill="#b46e59"/></g><g><path d="m253.675 358.396h-65.871c-9.033 0-16.356-7.323-16.356-16.356 0-9.033 7.323-16.356 16.356-16.356h65.871z" fill="#b46e59"/></g><g><path d="m253.675 423.821h-76.817c-9.033 0-16.356-7.323-16.356-16.356 0-9.033 7.323-16.356 16.356-16.356h76.817z" fill="#b46e59"/></g><g><path d="m253.675 456.533h-65.871c-9.033 0-16.356-7.323-16.356-16.356 0-9.033 7.323-16.356 16.356-16.356h65.871z" fill="#b46e59"/></g><g><path d="m253.675 391.108h-76.817c-9.033 0-16.356-7.323-16.356-16.356 0-9.033 7.323-16.356 16.356-16.356h76.817z" fill="#b46e59"/></g><g><g><path d="m82.225 485.823c-4.248 0-7.692-3.444-7.692-7.692v-202.764c0-4.248 3.443-7.692 7.692-7.692 4.248 0 7.692 3.444 7.692 7.692v202.764c0 4.248-3.443 7.692-7.692 7.692z" fill="#be694f"/></g><g><path d="m139.544 508.285h-114.636c-3.866 0-7-3.134-7-7v-22.741c0-3.866 3.134-7 7-7h114.636c3.866 0 7 3.134 7 7v22.741c0 3.866-3.134 7-7 7z" fill="#c67d66"/></g><path d="m139.543 471.544h-11.139v11.602c0 3.866-3.134 7-7 7h-103.496v11.139c0 3.866 3.134 7 7 7h114.636c3.866 0 7-3.134 7-7v-22.741c-.001-3.866-3.135-7-7.001-7z" fill="#be694f"/><g><path d="m29.188 380.219c-4.248 0-7.692-3.444-7.692-7.692v-115.966c0-4.248 3.443-7.692 7.692-7.692s7.692 3.444 7.692 7.692v115.966c-.001 4.248-3.444 7.692-7.692 7.692z" fill="#407093"/></g><g><circle cx="29.187" cy="380.439" fill="#407093" r="19.484"/></g><g><path d="m35.086 361.869c.591 1.861.914 3.842.914 5.899 0 10.761-8.723 19.484-19.484 19.484-2.057 0-4.037-.323-5.899-.914 2.5 7.876 9.866 13.585 18.57 13.585 10.761 0 19.484-8.723 19.484-19.484 0-8.704-5.709-16.07-13.585-18.57z" fill="#2b4d66"/></g><g><path d="m128.767 172.082h-93.083c-4.605 0-8.618 3.139-9.726 7.609l-25.758 103.882c-1.045 4.213 2.143 8.288 6.484 8.288h151.084c4.341 0 7.529-4.075 6.484-8.288l-25.758-103.882c-1.109-4.47-5.122-7.609-9.727-7.609z" fill="#f6e266"/></g><g><path d="m164.252 283.573-25.758-103.882c-1.108-4.47-5.121-7.609-9.726-7.609h-25.752l18.935 76.364c1.045 4.213-2.143 8.288-6.484 8.288h-108.613l-6.654 26.839c-1.045 4.213 2.143 8.288 6.484 8.288h151.084c4.34 0 7.528-4.075 6.484-8.288z" fill="#ecc32e"/></g></g><g><path d="m408.091 325.683h-160.485v130.85h70.086c13.133 0 24.658-6.888 31.159-17.248 2.007-3.198 5.46-5.199 9.236-5.199h50.005v-108.403z" fill="#b46e59"/></g><g><path d="m377.596 325.683v85.6c0 4.18-3.388 7.568-7.568 7.568h-26.55c-3.776 0-7.229 2.001-9.236 5.199-6.5 10.36-18.025 17.248-31.159 17.248h-55.478v15.235h70.086c13.133 0 24.658-6.888 31.159-17.248 2.007-3.198 5.46-5.199 9.236-5.199h50.005v-108.403z" fill="#a55e4d"/></g><g><path d="m506 441.639h-106.93c-3.314 0-6-2.686-6-6v-109.956h112.93c3.314 0 6 2.686 6 6v103.956c0 3.313-2.686 6-6 6z" fill="#407093"/></g><path d="m506 325.683h-26.846v77.109c0 3.314-2.686 6-6 6h-80.084v26.846c0 3.314 2.686 6 6 6h106.93c3.314 0 6-2.686 6-6v-103.955c0-3.314-2.686-6-6-6z" fill="#2b4d66"/><g><path d="m247.606 348.262c0-2.76-2.238-4.998-4.998-4.998h-54.991c-6.225 0-11.636-3.478-14.4-8.596-1.385 2.736-2.046 5.901-1.661 9.259.955 8.33 8.291 14.469 16.675 14.469h59.375z" fill="#a55e4d"/></g><g><path d="m247.606 380.974c0-2.76-2.238-4.998-4.998-4.998h-65.937c-6.225 0-11.636-3.478-14.4-8.596-1.385 2.736-2.046 5.901-1.661 9.259.955 8.33 8.291 14.469 16.676 14.469h70.321v-10.134z" fill="#a55e4d"/></g><g><path d="m247.606 413.687c0-2.76-2.238-4.998-4.998-4.998h-65.937c-6.225 0-11.636-3.478-14.4-8.596-1.123 2.217-1.769 4.716-1.769 7.371 0 9.033 7.323 16.356 16.356 16.356h70.748z" fill="#a55e4d"/></g><g><path d="m247.606 441.401h-59.989c-6.225 0-11.636-3.478-14.4-8.596-1.123 2.217-1.77 4.716-1.77 7.371 0 9.033 7.323 16.356 16.356 16.356h59.802v-15.131z" fill="#a55e4d"/></g></g></svg>