<svg id="Capa_1" enable-background="new 0 0 512 512" height="512" viewBox="0 0 512 512" width="512" xmlns="http://www.w3.org/2000/svg"><g><path d="m436.606 375.381c-5.71 4.196-8.639 14.353-15.499 16.602-6.619 2.17-14.871-4.238-22.207-4.238s-15.588 6.408-22.207 4.238c-6.86-2.249-9.789-12.407-15.499-16.603-2.404-1.766-5.622-2.744-8.862-3.706v108.371c0 5.697 6.369 9.019 10.97 5.722l31.577-22.628c2.409-1.726 5.635-1.726 8.043 0l31.577 22.628c4.601 3.297 10.97-.025 10.97-5.721v-108.37c-3.241.961-6.46 1.939-8.863 3.705z" fill="#ff656f"/><path d="m418.346 392.42c-6.068.113-13.099-4.675-19.446-4.675s-13.378 4.787-19.445 4.675v81.771l15.424-11.053c2.409-1.726 5.635-1.726 8.043 0l15.425 11.053v-81.771z" fill="#ff4756"/><path d="m479.508 24.927h-447.016c-17.871 0-32.492 14.621-32.492 32.492v280.126c0 17.87 14.621 32.492 32.492 32.492h447.017c17.87 0 32.492-14.621 32.492-32.492v-280.126c-.001-17.871-14.622-32.492-32.493-32.492z" fill="#dfebfa"/><path d="m479.508 24.927h-447.016c-17.871 0-32.492 14.621-32.492 32.492v280.126c0 17.87 14.621 32.492 32.492 32.492h447.017c17.87 0 32.492-14.621 32.492-32.492v-280.126c-.001-17.871-14.622-32.492-32.493-32.492z" fill="#dfebfa"/><path d="m86.535 337.544v-280.125c0-17.87 14.621-32.492 32.492-32.492h-86.535c-17.871 0-32.492 14.621-32.492 32.492v280.126c0 17.87 14.621 32.492 32.492 32.492h86.535c-17.871-.001-32.492-14.622-32.492-32.493z" fill="#b1dbfc"/><path d="m473.781 102.064c-.116.001-.232.002-.348.002-21.307.001-38.571-17.262-38.572-38.569 0-.117.001-.234.002-.351.036-4.039-3.259-7.314-7.298-7.314h-343.13c-4.039 0-7.334 3.275-7.298 7.314.001.116.002.231.002.347.001 21.307-17.262 38.572-38.569 38.572-.117 0-.234-.001-.351-.002-4.039-.036-7.314 3.259-7.314 7.298v176.239c0 4.039 3.275 7.334 7.313 7.298.119-.001.238-.002.357-.002 21.306.003 38.565 17.266 38.564 38.572 0 .116-.001.231-.002.347-.036 4.039 3.259 7.315 7.298 7.315h250.558l124.146-43.486c4.42-1.767 9.24-2.747 14.292-2.747.117 0 .233.001.35.002 4.039.036 7.314-3.259 7.314-7.298v-176.239c0-4.039-3.276-7.334-7.314-7.298z" fill="#b1dbfc"/><path d="m123.152 331.816c.001-.116.002-.231.002-.347.001-21.306-17.258-38.569-38.564-38.572-.119 0-.238.001-.357.002-4.038.036-7.313-3.259-7.313-7.298v-176.239c0-4.039 3.275-7.334 7.314-7.298.117.001.234.002.351.002 21.307 0 38.57-17.265 38.569-38.572 0-.116-.001-.232-.002-.347-.036-4.039 3.259-7.314 7.298-7.314h-46.015c-4.039 0-7.334 3.275-7.298 7.314.001.116.002.231.002.347.001 21.307-17.262 38.572-38.569 38.572-.117 0-.234-.001-.351-.002-4.039-.036-7.314 3.259-7.314 7.298v176.239c0 4.039 3.275 7.334 7.313 7.298.119-.001.238-.002.357-.002 21.306.003 38.565 17.266 38.564 38.572 0 .116-.001.231-.002.347-.036 4.039 3.259 7.315 7.298 7.315h46.015c-4.04-.001-7.334-3.276-7.298-7.315z" fill="#8bcaff"/><g><path d="m322.065 135.611h-132.13c-4.267 0-7.726-3.459-7.726-7.726s3.459-7.726 7.726-7.726h132.13c4.267 0 7.726 3.459 7.726 7.726 0 4.266-3.459 7.726-7.726 7.726z" fill="#ffe181"/></g><g><path d="m289.032 295.874h-66.065c-4.267 0-7.726-3.459-7.726-7.726s3.459-7.726 7.726-7.726h66.065c4.267 0 7.726 3.459 7.726 7.726s-3.459 7.726-7.726 7.726z" fill="#80c3fa"/></g><g><path d="m388.13 167.601h-264.261c-4.267 0-7.726-3.459-7.726-7.726s3.459-7.726 7.726-7.726h264.261c4.267 0 7.726 3.459 7.726 7.726s-3.459 7.726-7.726 7.726z" fill="#80c3fa"/></g><g><path d="m388.13 199.591h-264.261c-4.267 0-7.726-3.459-7.726-7.726s3.459-7.726 7.726-7.726h264.261c4.267 0 7.726 3.459 7.726 7.726 0 4.268-3.459 7.726-7.726 7.726z" fill="#80c3fa"/></g><g><path d="m388.13 231.582h-264.261c-4.267 0-7.726-3.459-7.726-7.726 0-4.268 3.459-7.726 7.726-7.726h264.261c4.267 0 7.726 3.459 7.726 7.726s-3.459 7.726-7.726 7.726z" fill="#80c3fa"/></g><g><path d="m380.098 263.573h-256.229c-4.267 0-7.726-3.459-7.726-7.726s3.459-7.726 7.726-7.726h256.229c4.267 0 7.726 3.459 7.726 7.726s-3.459 7.726-7.726 7.726z" fill="#80c3fa"/></g><path d="m470.746 324.55c0 7.336-8.67 13.211-10.819 19.83-2.227 6.86 1.256 16.695-2.9 22.405-4.197 5.767-14.655 5.473-20.422 9.67-5.71 4.155-8.639 14.215-15.499 16.443-6.619 2.149-14.871-4.198-22.207-4.198s-15.588 6.347-22.207 4.198c-6.86-2.227-9.789-12.287-15.499-16.443-5.767-4.197-16.225-3.903-20.422-9.67-4.155-5.71-.672-15.544-2.9-22.404-2.149-6.619-10.819-12.495-10.819-19.83 0-7.336 8.67-13.211 10.819-19.83 2.227-6.86-1.256-16.695 2.9-22.405 4.197-5.767 14.655-5.473 20.422-9.67 5.71-4.155 8.639-14.215 15.499-16.443 6.619-2.149 14.871 4.198 22.207 4.198s15.588-6.347 22.207-4.198c6.86 2.227 9.789 12.287 15.499 16.443 5.767 4.197 16.225 3.903 20.422 9.67 4.155 5.71.672 15.544 2.899 22.404 2.151 6.619 10.82 12.495 10.82 19.83z" fill="#ffe181"/><g><g><path d="m395.576 376.455c-5.767-4.197-16.225-3.903-20.422-9.67-4.156-5.71-.672-15.544-2.9-22.404-2.149-6.619-10.819-12.495-10.819-19.83 0-7.336 8.67-13.211 10.819-19.83 2.227-6.86-1.256-16.695 2.9-22.405 4.197-5.767 14.655-5.473 20.422-9.67 4.486-3.265 7.263-10.16 11.57-14.052-2.788.965-5.578 1.807-8.247 1.807-7.335 0-15.588-6.347-22.207-4.198-6.86 2.227-9.789 12.287-15.499 16.443-5.767 4.197-16.225 3.903-20.422 9.67-4.156 5.71-.672 15.545-2.9 22.405-2.149 6.619-10.819 12.495-10.819 19.83s8.67 13.211 10.819 19.83c2.227 6.86-1.256 16.694 2.9 22.404 4.197 5.767 14.655 5.473 20.422 9.67 5.71 4.156 8.639 14.215 15.499 16.443 6.619 2.149 14.872-4.198 22.207-4.198 2.669 0 5.458.842 8.247 1.807-4.307-3.892-7.083-10.787-11.57-14.052z" fill="#fec458"/></g></g><circle cx="398.9" cy="324.55" fill="#fec458" r="38.708"/><path d="m394.575 324.55c0-15.201 8.767-28.349 21.517-34.681-5.18-2.573-11.015-4.027-17.191-4.027-21.378 0-38.708 17.33-38.708 38.708s17.33 38.708 38.708 38.708c6.177 0 12.011-1.454 17.191-4.027-12.75-6.332-21.517-19.48-21.517-34.681z" fill="#f9ab49"/></g></svg>