<svg id="Capa_1" enable-background="new 0 0 497 497" height="512" viewBox="0 0 497 497" width="512" xmlns="http://www.w3.org/2000/svg"><g><path d="m136.37 422.169h-84.68c-2.76 0-5-2.24-5-5v-38.034l88.94 17.384 7.94 12.59c3.58 5.67-.5 13.06-7.2 13.06z" fill="#0078c8"/><path d="m110.95 422.169h-59.26c-2.76 0-5-2.24-5-5v-33.229l63.53 12.58 7.94 12.59c3.57 5.669-.5 13.059-7.21 13.059z" fill="#3c87d0"/><path d="m454.15 382.018v35.151c0 2.76-2.23 5-4.99 5h-84.68c-6.71 0-10.78-7.39-7.2-13.06l7.93-12.59z" fill="#0078c8"/><path d="m427.65 386.502v30.667c0 2.76-2.23 5-4.99 5h-58.18c-6.71 0-10.78-7.39-7.2-13.06l7.93-12.59z" fill="#3c87d0"/><path d="m33.64 164.213c-4.143 0-7.5-3.358-7.5-7.5v-49.701c0-12.666 10.305-22.97 22.971-22.97h18.723c4.143 0 7.5 3.358 7.5 7.5s-3.357 7.5-7.5 7.5h-18.724c-4.396 0-7.971 3.575-7.971 7.97v49.701c.001 4.142-3.357 7.5-7.499 7.5z" fill="#596c76"/><path d="m463.36 160.66c-4.143 0-7.5-3.358-7.5-7.5v-46.148c0-4.395-3.575-7.97-7.971-7.97h-25.389c-4.143 0-7.5-3.358-7.5-7.5s3.357-7.5 7.5-7.5h25.39c12.666 0 22.971 10.304 22.971 22.97v46.148c-.001 4.142-3.358 7.5-7.501 7.5z" fill="#596c76"/><path d="m18.73 145.879h82.86v250.64h-82.86c-10.34 0-18.73-8.39-18.73-18.74v-213.16c0-10.35 8.39-18.74 18.73-18.74z" fill="#baafb9"/><path d="m497 164.619v213.16c0 10.35-8.39 18.74-18.73 18.74h-84.21v-250.64h84.21c10.34 0 18.73 8.39 18.73 18.74z" fill="#baafb9"/><path d="m18.73 145.879h82.86l65.489 132.111-65.489 118.529h-82.86c-10.34 0-18.73-8.39-18.73-18.74v-213.16c0-10.35 8.39-18.74 18.73-18.74z" fill="#d7d0d6"/><path d="m471.14 164.619v213.16c0 10.35-8.39 18.74-18.73 18.74h-58.35l-54.277-136.783 54.277-113.857h58.35c10.34 0 18.73 8.39 18.73 18.74z" fill="#d7d0d6"/><path d="m394.06 145.879v250.64h-292.47v-250.64h77.081l67.385 11.93 72.274-11.93z" fill="#bb5d4c"/><path d="m363.038 145.88h31.023v250.639h-31.023z" fill="#a44f3e"/><circle cx="288.052" cy="355.903" fill="#d7d0d6" r="16.38"/><path d="m438.177 80.965v21.155c0 3.39-2.754 6.134-6.134 6.134h-367.086c-3.38 0-6.134-2.743-6.134-6.134v-21.155c0-3.39 2.754-6.134 6.134-6.134h367.086c3.38 0 6.134 2.743 6.134 6.134z" fill="#baafb9"/><path d="m401.593 82.712v17.661c0 4.352-3.528 7.881-7.881 7.881h-328.755c-3.38 0-6.134-2.743-6.134-6.134v-21.155c0-3.39 2.754-6.134 6.134-6.134h328.755c4.353 0 7.881 3.528 7.881 7.881z" fill="#d7d0d6"/><g fill="#596c76"><path d="m104.408 362.939h-5.623c-35.979 0-65.146-29.167-65.146-65.146v-55.129c0-35.979 29.167-65.146 65.146-65.146h5.623c35.979 0 65.146 29.167 65.146 65.146v55.129c0 35.979-29.167 65.146-65.146 65.146z"/><path d="m144.519 245.48v49.498c0 23.669-19.257 42.926-42.926 42.926-4.35 0-8.554-.647-12.518-1.857-17.577-5.372-30.397-21.75-30.397-41.069v-49.498c0-19.319 12.82-35.697 30.397-41.059 3.964-1.21 8.168-1.867 12.518-1.867 23.669.001 42.926 19.257 42.926 42.926z"/><path d="m398.149 362.939h-5.623c-35.979 0-65.146-29.167-65.146-65.146v-55.129c0-35.979 29.167-65.146 65.146-65.146h5.623c35.979 0 65.146 29.167 65.146 65.146v55.129c-.001 35.979-29.167 65.146-65.146 65.146z"/><path d="m438.26 245.48v49.498c0 23.669-19.257 42.926-42.926 42.926-4.35 0-8.554-.647-12.518-1.857-17.577-5.372-30.398-21.75-30.398-41.069v-49.498c0-19.319 12.82-35.697 30.398-41.059 3.964-1.21 8.168-1.867 12.518-1.867 23.669.001 42.926 19.257 42.926 42.926z"/></g><path d="m119.483 245.48v49.498c0 19.319-12.831 35.697-30.408 41.069-17.577-5.372-30.397-21.75-30.397-41.069v-49.498c0-19.319 12.82-35.697 30.397-41.059 17.577 5.363 30.408 21.74 30.408 41.059z" fill="#7a8c98"/><path d="m413.224 245.48v49.498c0 19.319-12.82 35.697-30.408 41.069-17.577-5.372-30.398-21.75-30.398-41.069v-49.498c0-19.319 12.82-35.697 30.398-41.059 17.588 5.363 30.408 21.74 30.408 41.059z" fill="#7a8c98"/><path d="m395.337 345.403c-27.802 0-50.421-22.619-50.421-50.422v-49.506c0-27.802 22.619-50.421 50.421-50.421s50.421 22.619 50.421 50.421v49.506c0 27.803-22.619 50.422-50.421 50.422zm0-135.348c-19.531 0-35.421 15.89-35.421 35.421v49.506c0 19.532 15.89 35.422 35.421 35.422s35.421-15.89 35.421-35.422v-49.506c0-19.532-15.889-35.421-35.421-35.421z" fill="#baafb9"/><path d="m304.432 255.779v21.93c0 2.844-2.663 5.15-5.948 5.15h-99.968c-3.285 0-5.948-2.306-5.948-5.15v-21.93c0-2.844 2.663-5.15 5.948-5.15h99.968c3.285 0 5.948 2.306 5.948 5.15z" fill="#baafb9"/><path d="m275.478 255.779v21.93c0 2.844-2.663 5.15-5.948 5.15h-71.015c-3.285 0-5.948-2.306-5.948-5.15v-21.93c0-2.844 2.663-5.15 5.948-5.15h71.015c3.286 0 5.948 2.306 5.948 5.15z" fill="#d7d0d6"/><path d="m318.33 145.879-6.02 19.99-10.746 6.918 6.216 8.082-5.67 18.83c-3.12 10.32-11 17.16-19.79 17.16h-67.64c-8.79 0-16.67-6.84-19.79-17.16l-3.26-10.83 7.436-6.096-11.956-8.904-8.44-27.99z" fill="#0078c8"/><path d="m291.478 145.88-16.231 53.816c-3.109 10.327-10.984 17.16-19.778 17.16h-40.787c-8.794 0-16.67-6.833-19.789-17.16l-3.179-10.547 7.352-6.376-11.956-8.896-8.439-27.997z" fill="#3c87d0"/><path d="m101.597 345.404c-27.802 0-50.421-22.619-50.421-50.422v-49.506c0-27.802 22.619-50.421 50.421-50.421s50.421 22.619 50.421 50.421v49.506c0 27.802-22.62 50.422-50.421 50.422zm0-135.349c-19.531 0-35.421 15.89-35.421 35.421v49.506c0 19.532 15.89 35.422 35.421 35.422s35.421-15.89 35.421-35.422v-49.506c0-19.531-15.89-35.421-35.421-35.421z" fill="#baafb9"/><path d="m304.43 314.989c0 4.14-3.36 7.5-7.5 7.5h-96.86c-4.14 0-7.5-3.36-7.5-7.5s3.36-7.5 7.5-7.5h96.86c4.14 0 7.5 3.36 7.5 7.5z" fill="#baafb9"/><path d="m275.48 314.989c0 4.14-3.36 7.5-7.5 7.5h-67.91c-4.14 0-7.5-3.36-7.5-7.5s3.36-7.5 7.5-7.5h67.91c4.14 0 7.5 3.36 7.5 7.5z" fill="#d7d0d6"/><circle cx="202.167" cy="353.817" fill="#fd4755" r="9.599"/><circle cx="238.228" cy="353.817" fill="#0078c8" r="9.599"/><path d="m312.31 165.869-4.53 15h-41.31l-12.13 15.04c-1.43 1.77-3.58 2.79-5.84 2.79-.22 0-.45-.01-.68-.03-2.49-.23-4.71-1.68-5.91-3.88l-8.13-14.95-8.05 7.14c-1.37 1.22-3.14 1.89-4.98 1.89h-29.12l-4.52-15h30.79l12.98-11.52c1.71-1.51 4.01-2.17 6.27-1.77 2.25.39 4.2 1.79 5.29 3.8l7.28 13.37 7.33-9.09c1.42-1.76 3.57-2.79 5.84-2.79z" fill="#d7d0d6"/></g></svg>