<svg id="Capa_1" enable-background="new 0 0 505.344 505.344" height="512" viewBox="0 0 505.344 505.344" width="512" xmlns="http://www.w3.org/2000/svg"><g><path d="m68.056 469.275c-.09-.079-.166-.155-.244-.245-.61-.695-3.59-4.15-7.608-9.807-.206-.289-.42-.585-.626-.887-17.64-25.246-52.927-90.67.55-152.992 6.992-8.151 15.501-16.251 25.773-24.202 3.856-2.985 8.965-3.86 13.589-2.312 12.716 4.258 40.249 10.242 58.556-9.289 15.302-16.316 12.763-29.481 8.707-37.061-2.87-5.364-1.918-11.964 2.118-16.516 19.688-22.202 77.914-73.406 173.946-39.328 4.168 1.472 8.397 3.115 12.709 4.924 43.539 103.701-11.317 166.216-34.451 186.709-4.535 4.017-11.121 4.929-16.462 2.071-7.579-4.056-20.745-6.595-37.061 8.707-19.529 18.305-13.548 45.834-9.291 58.552 1.556 4.647.649 9.773-2.353 13.647-83.616 107.938-183.767 21.625-187.852 18.029z" fill="#883f2e"/><path d="m60.204 459.222c-.206-.289-.42-.585-.626-.887-4.216-6.031-9.442-14.353-14.215-24.394-14.986-31.436-25.597-79.611 12.874-126.349.612-.75 1.252-1.499 1.891-2.249 6.992-8.151 15.501-16.251 25.773-24.202 3.856-2.985 8.965-3.86 13.589-2.312 12.716 4.258 40.249 10.242 58.556-9.289 15.302-16.316 12.763-29.481 8.707-37.061-2.87-5.364-1.918-11.964 2.118-16.516 19.688-22.202 77.914-73.406 173.946-39.328 34.079 96.032-17.126 154.258-39.328 173.946-4.552 4.036-11.152 4.989-16.516 2.118-7.579-4.056-20.744-6.594-37.061 8.707-19.53 18.306-13.548 45.836-9.29 58.553 1.552 4.635.663 9.751-2.33 13.615-69.474 89.714-150.367 45.311-178.088 25.648z" fill="#a44f3e"/><path d="m317.491 2.197c-2.929-2.929-7.678-2.929-10.607 0l-17.465 17.465-213.978 213.978-17.465 17.465c-2.929 2.929-2.929 7.677 0 10.607 2.929 2.929 7.678 2.929 10.607 0l17.465-17.465 213.978-213.979 17.465-17.465c2.929-2.928 2.929-7.677 0-10.606z" fill="#ffefd2"/><path d="m38.703 243.429c-2.929-2.929-2.929-7.678 0-10.607l220.648-220.647c1.825-1.825 4.46-2.583 6.976-2.008l30.563 6.993c4.038.925 6.562 4.945 5.639 8.984-.924 4.038-4.946 6.562-8.984 5.639l-26.52-6.068-217.715 217.714c-2.929 2.929-7.678 2.93-10.607 0z" fill="#d8aa5e"/><path d="m75.441 233.64-45.361 45.361c-3.912 3.912-9.928 4.237-13.437.728l-13.022-13.021c-3.51-3.51-3.184-9.526.728-13.437l26.996-26.996c2.712-2.712 6.575-3.796 9.948-2.793z" fill="#a44f3e"/><path d="m59.096 422.683c-4.291 4.291-8.899 8.046-13.734 11.258-2.503-5.24-4.876-10.942-6.925-17.035-10.233-30.425-12.255-70.368 19.8-109.314 2.208 1.699 4.312 3.556 6.327 5.571 11.244 11.244 17.716 25.597 19.518 40.81 0 0-.007.007-.007.021 2.812 23.65-5.654 49.364-24.979 68.689z" fill="#465a61"/><path d="m38.437 416.907c-10.233-30.425-12.255-70.368 19.8-109.314 2.208 1.699 4.312 3.556 6.327 5.571 11.244 11.244 17.716 25.597 19.518 40.81 0 0-.007.007-.007.021-.42 1.119-16.52 43.958-45.638 62.912z" fill="#596c76"/><path d="m163.198 334.692c-3.312 0-6.342-2.21-7.239-5.561-1.072-4.001 1.302-8.113 5.303-9.186.648-.173 1.005-.592 1.19-.913.185-.32.369-.838.195-1.485-.174-.649-.592-1.005-.912-1.19s-.837-.37-1.486-.195l-51.322 13.751c-9.033 2.419-18.35-2.958-20.771-11.991-2.42-9.034 2.96-18.351 11.991-20.771 4.002-1.069 8.114 1.302 9.186 5.304 1.072 4.001-1.302 8.113-5.303 9.186-1.044.279-1.665 1.356-1.386 2.399.279 1.042 1.354 1.665 2.399 1.384l51.322-13.751c4.377-1.172 8.946-.57 12.869 1.694 3.923 2.265 6.729 5.922 7.901 10.298 1.172 4.375.57 8.945-1.695 12.868s-5.922 6.729-10.297 7.901c-.649.174-1.302.258-1.945.258z" fill="#d8aa5e"/><path d="m223.209 449.168c-1.449 0-2.921-.188-4.386-.58-9.031-2.42-14.411-11.737-11.991-20.77l13.752-51.323c.279-1.042-.342-2.119-1.386-2.398-1.044-.282-2.12.342-2.399 1.386-1.072 4.001-5.19 6.374-9.186 5.302-4.001-1.072-6.375-5.185-5.303-9.186 2.421-9.032 11.74-14.408 20.771-11.991 9.031 2.42 14.411 11.737 11.991 20.77l-13.752 51.323c-.279 1.042.342 2.119 1.386 2.398 1.044.28 2.12-.342 2.399-1.386 1.071-4.001 5.188-6.375 9.186-5.302 4.001 1.072 6.375 5.185 5.303 9.186-2.029 7.568-8.899 12.571-16.385 12.571z" fill="#d8aa5e"/><path d="m191.838 396.964c-1.92 0-3.839-.732-5.304-2.197l-44.557-44.558c-2.929-2.929-2.929-7.678 0-10.606 2.931-2.93 7.679-2.929 10.607 0l44.557 44.558c2.929 2.929 2.929 7.678 0 10.606-1.464 1.465-3.384 2.197-5.303 2.197z" fill="#e8ad8c"/><path d="m165.197 383.653 70.484-70.485c2.929-2.929 2.929-7.678 0-10.607-2.932-2.93-7.68-2.928-10.607 0l-17.01 17.01s-.001.001-.001.001l-70.485 70.485c-2.929 2.929-2.929 7.678 0 10.606 1.465 1.464 3.385 2.197 5.304 2.197s3.839-.732 5.304-2.197l17.01-17.01c0 .001 0 0 .001 0z" fill="#ffefd2"/><path d="m245.021 329.453c-1.534 1.633-4.122 1.662-5.713.071l-30.696-30.696c-1.584-1.584-1.549-4.165.078-5.706l197.764-187.072 25.64 25.64z" fill="#e19974"/><path d="m234.782 319.214c-1.534 1.633-4.122 1.662-5.713.071l-20.457-20.457c-1.584-1.584-1.549-4.165.078-5.706l197.764-187.072 15.401 15.401z" fill="#e8ad8c"/><path d="m413.419 86.575h40.05v36.29h-40.05z" fill="#883f2e" transform="matrix(.707 -.707 .707 .707 52.905 337.163)"/><path d="m408.289 88.7h40.05v21.78h-40.05z" fill="#a44f3e" transform="matrix(.707 -.707 .707 .707 55.03 332.033)"/><path d="m483.56 80.265-23.126 23.126-25.661-25.661 23.126-23.126c1.361-1.361 3.568-1.361 4.929 0l20.732 20.732c1.361 1.361 1.361 3.568 0 4.929z" fill="#883f2e"/><path d="m483.56 80.265-23.126 23.126-25.661-25.661 23.126-23.126c1.361-1.361 3.568-1.361 4.929 0l20.732 20.732c1.361 1.361 1.361 3.568 0 4.929z" fill="#6d3326"/><path d="m473.3 70.005-23.126 23.126-15.401-15.401 23.126-23.126c1.361-1.361 3.568-1.361 4.929 0l10.472 10.472c1.361 1.361 1.361 3.568 0 4.929z" fill="#883f2e"/><g fill="#6d3326"><path d="m416.478 103.525c-1.919 0-3.839-.732-5.304-2.197l-20.6-20.6c-2.929-2.929-2.929-7.678 0-10.606 2.93-2.929 7.678-2.929 10.607 0l20.6 20.6c2.929 2.929 2.929 7.678 0 10.606-1.465 1.465-3.385 2.197-5.303 2.197z"/><path d="m442.064 77.939c-1.92 0-3.839-.732-5.304-2.197l-20.6-20.6c-2.929-2.929-2.929-7.678 0-10.606 2.931-2.93 7.679-2.929 10.607 0l20.6 20.6c2.929 2.929 2.929 7.678 0 10.606-1.464 1.464-3.384 2.197-5.303 2.197z"/><path d="m471.069 141.612c-1.919 0-3.839-.732-5.304-2.197l-20.678-20.678c-2.929-2.929-2.929-7.678 0-10.606 2.93-2.929 7.678-2.929 10.607 0l20.678 20.678c2.929 2.929 2.929 7.678 0 10.606-1.464 1.464-3.384 2.197-5.303 2.197z"/><path d="m496.656 116.025c-1.919 0-3.839-.732-5.304-2.197l-20.677-20.678c-2.929-2.929-2.929-7.678 0-10.606 2.93-2.929 7.678-2.929 10.607 0l20.678 20.678c2.929 2.929 2.929 7.678 0 10.606-1.465 1.464-3.385 2.197-5.304 2.197z"/></g><path d="m167.978 405.517-11.979 11.979c-1.923 1.923-4.237 3.409-6.785 4.358l-15.455 5.757c-5.64 2.101-10.761 5.39-15.017 9.646l-39.362 39.362c-1.103 1.103-2.891 1.103-3.994 0l-14.912-14.912c-1.103-1.103-1.103-2.891 0-3.994l39.363-39.363c4.255-4.255 7.545-9.377 9.646-15.017l5.757-15.455c.949-2.548 2.435-4.862 4.358-6.785l11.979-11.979c1.808-1.808 4.743-1.8 6.541.018l10.452 10.567 4.381 4.436 9.436 9.326 5.574 5.514c1.817 1.799 1.825 4.734.017 6.542z" fill="#465a61"/><path d="m159.154 396.694-11.979 11.979c-1.923 1.923-4.237 3.409-6.785 4.358l-15.455 5.757c-5.64 2.101-10.761 5.39-15.017 9.646l-39.363 39.363c-1.103 1.103-2.891 1.103-3.994 0l-6.088-6.089c-1.103-1.103-1.103-2.891 0-3.994l39.363-39.363c4.255-4.255 7.545-9.377 9.646-15.017l5.757-15.455c.949-2.548 2.435-4.862 4.358-6.785l11.93-11.93c1.809-1.809 4.744-1.8 6.543.019l6.064 6.135 4.436 4.381 10.567 10.452c1.818 1.8 1.826 4.734.017 6.543z" fill="#596c76"/></g></svg>