<svg id="Capa_1" enable-background="new 0 0 512 512" height="512" viewBox="0 0 512 512" width="512" xmlns="http://www.w3.org/2000/svg"><g><g><path d="m181.238 232.083h-31.01c-82.969 0-150.228 67.259-150.228 150.227v21.197c0 2.761 2.239 5 5 5h321.466c2.761 0 5-2.239 5-5v-21.197c0-82.968-67.259-150.227-150.228-150.227z" fill="#f6e266"/></g><path d="m181.238 232.083h-31.01c-.771 0-1.539.018-2.307.029 81.903 1.235 147.92 68.002 147.92 150.199v21.197c0 2.761-2.239 5-5 5h35.625c2.761 0 5-2.239 5-5v-21.198c0-82.968-67.259-150.227-150.228-150.227z" fill="#ecc32e"/><path d="m282.593 168.518c-6.652-3.993-14.559-4.139-21.835-.094-3.692-48.371-44.825-77.608-95.025-77.608s-91.333 29.237-95.025 77.608c-7.276-4.045-15.183-3.899-21.835.094-10.872 6.526-14.271 20.836-4.934 36.39s25.719 22.872 36.591 16.346c.53-.318 1.03-.671 1.514-1.041 17.327 32.82 51.388 57.232 83.689 57.232s66.362-24.412 83.689-57.232c.484.37.984.723 1.514 1.041 10.872 6.526 27.254-.792 36.591-16.346s5.938-29.864-4.934-36.39z" fill="#ffcbbe"/><g><path d="m379.72 387.806v-62.9c0-6.757-5.477-12.234-12.234-12.234h-167.196c-6.757 0-12.234 5.477-12.234 12.234v62.9z" fill="#61a2f9"/></g><g><path d="m367.486 312.672h-28.674c6.757 0 12.234 5.477 12.234 12.234v62.9h28.674v-62.9c0-6.757-5.478-12.234-12.234-12.234z" fill="#4a81f6"/></g><g><path d="m379.719 395.452h-191.663c-4.223 0-7.646-3.423-7.646-7.646v-62.9c0-10.962 8.919-19.88 19.88-19.88h167.196c10.962 0 19.88 8.918 19.88 19.88v62.9c0 4.223-3.423 7.646-7.647 7.646zm-184.017-15.292h176.371v-55.254c0-2.53-2.058-4.588-4.588-4.588h-167.195c-2.53 0-4.588 2.058-4.588 4.588z" fill="#407093"/></g><g><path d="m430.678 452.939h-293.58c-6.627 0-12-5.373-12-12v-55.684c0-6.627 5.373-12 12-12h293.58c6.627 0 12 5.373 12 12v55.684c0 6.627-5.373 12-12 12z" fill="#407093"/></g><g><path d="m430.678 373.254h-13.188v42.262c0 6.757-5.477 12.234-12.234 12.234h-280.158v13.188c0 6.627 5.373 12 12 12h293.58c6.627 0 12-5.373 12-12v-55.684c0-6.627-5.373-12-12-12z" fill="#2b4d66"/></g><g><circle cx="202.115" cy="461.311" fill="#dae7ef" r="39.243"/></g><g><circle cx="365.661" cy="461.311" fill="#dae7ef" r="39.243"/></g><g><path d="m218.864 425.818c2.402 5.08 3.75 10.756 3.75 16.749 0 21.673-17.57 39.243-39.243 39.243-5.992 0-11.668-1.348-16.749-3.75 6.285 13.294 19.812 22.494 35.492 22.494 21.673 0 39.243-17.57 39.243-39.243 0-15.681-9.199-29.208-22.493-35.493z" fill="#c1d5e4"/></g><g><path d="m382.41 425.818c2.402 5.08 3.75 10.756 3.75 16.749 0 21.673-17.57 39.243-39.242 39.243-5.993 0-11.669-1.348-16.749-3.75 6.285 13.294 19.812 22.494 35.492 22.494 21.673 0 39.243-17.57 39.243-39.243 0-15.681-9.2-29.208-22.494-35.493z" fill="#c1d5e4"/></g><g><path d="m283.888 390.99c-4.223 0-7.646-3.423-7.646-7.646v-68.633c0-4.223 3.423-7.646 7.646-7.646s7.646 3.423 7.646 7.646v68.633c0 4.223-3.423 7.646-7.646 7.646z" fill="#407093"/></g><g><circle cx="202.115" cy="461.311" fill="#da387d" r="11.773"/></g><g><circle cx="365.661" cy="461.311" fill="#da387d" r="11.773"/></g><g><g><circle cx="128.155" cy="190.149" fill="#61a2f9" r="10.194"/></g><g><circle cx="203.311" cy="190.149" fill="#61a2f9" r="10.194"/></g></g><g><path d="m501.791 171.079c-2.236-1.655-3.471-4.341-3.471-7.123v-50.076c0-3.941-3.195-7.137-7.137-7.137h-100.936c-3.941 0-7.137 3.195-7.137 7.137v29.03c0 3.978-2.764 7.421-6.647 8.281l-5.225 1.157c-14.614 3.237-24.412 16.345-24.58 31.312-.039 3.472-1.218 6.836-3.359 9.573l-39.003 49.874c-2.743 3.508-1.553 8.21 2.174 11.237 12.298 9.617 30.064 7.444 39.681-4.853l18.303-26.01c.293-.416.77-.664 1.279-.664.863 0 1.563.699 1.564 1.563l.135 144.604c0 7.726 6.263 13.989 13.99 13.989h7.662c8.003 0 14.49-6.488 14.49-14.49v-78.163c0 7.94 6.437 14.377 14.377 14.377h7.388c6.385 0 11.797-4.161 13.673-9.92.224-.686 1.185-.686 1.408 0 1.875 5.758 7.288 9.92 13.672 9.92h7.388c7.94 0 14.376-6.436 14.376-14.376v-5.068c0-.761 1.03-1.001 1.362-.316 1.947 4.014 4.251 8.991 13.014 9.298h7.388c7.94 0 14.376-6.437 14.376-14.377l.001-88.55c.003-8.295-4.014-15.647-10.206-20.229z" fill="#eaac9d"/></g><g><g><g><path d="m389.084 382.974h-7.275c-.872 0-1.722-.091-2.552-.239 6.72-1.206 11.825-7.07 11.825-14.137v-77.388c0-5.418 4.392-9.81 9.81-9.81h2.682v87.083c0 8.003-6.487 14.491-14.49 14.491z" fill="#df9380"/></g></g></g><g><g><g><g><path d="m497.622 294.235h-7.388c-1.016-.035-1.937-.14-2.788-.292 6.551-1.34 11.479-7.137 11.479-14.085l.002-88.55c0-8.268-3.991-15.6-10.15-20.185-2.205-1.641-3.53-4.204-3.53-6.953v-50.238c0-3.97-3.218-7.188-7.188-7.188h13.074c3.97 0 7.188 3.218 7.188 7.188v50.238c0 2.748 1.325 5.312 3.53 6.953 6.159 4.585 10.15 11.917 10.15 20.185l-.002 88.55c-.001 7.94-6.437 14.377-14.377 14.377z" fill="#df9380"/></g></g></g></g><g><g><path d="m365.967 222.841c.311.047.59.184.812.386l.214-.386z" fill="#df9380"/></g><g><path d="m346.151 249.491 18.303-26.01c.255-.362.651-.585 1.085-.64h-7.948c-3.905 0-7.593 1.798-9.998 4.874l-17.154 21.935c-3.743 4.787-8.72 8.029-14.125 9.666 10.684 2.966 22.58-.545 29.837-9.825z" fill="#df9380"/></g></g><g><path d="m499.706 124.486h-118.752c-3.314 0-6-2.686-6-6v-101.04c0-3.314 2.686-6 6-6h118.751c3.314 0 6 2.686 6 6v101.04c.001 3.314-2.686 6-5.999 6z" fill="#dd5790"/></g><g><path d="m499.589 11.446h-25.307v75.499c0 3.378-2.739 6.117-6.117 6.117h-93.21v25.307c0 3.378 2.739 6.117 6.117 6.117h118.517c3.378 0 6.117-2.739 6.117-6.117v-100.806c0-3.378-2.739-6.117-6.117-6.117z" fill="#da387d"/></g><path d="m282.593 168.518c-6.655-3.995-14.565-4.139-21.843-.089-2.353-30.824-19.902-53.881-45.32-66.551 12.821 14.053 20.475 32.665 20.475 54.954 0 52.631-49.424 101.863-95.296 101.863-12.604 0-25.474-3.723-37.515-10.206 17.795 17.612 40.625 28.956 62.64 28.956 32.301 0 66.362-24.412 83.689-57.232.484.37.984.723 1.514 1.041 10.872 6.526 27.254-.792 36.591-16.346 9.336-15.554 5.937-29.864-4.935-36.39z" fill="#eaac9d"/><g><g><path d="m202.007 69.73c-2.964-.111-5.821.272-8.501 1.069-1.872.557-3.86-.218-4.816-1.921-4.509-8.025-13.097-13.449-22.957-13.449s-18.449 5.424-22.957 13.449c-.957 1.703-2.944 2.478-4.816 1.921-2.679-.797-5.537-1.181-8.501-1.069-13.419.504-24.494 11.329-25.273 24.735-.885 15.251 11.22 27.895 26.278 27.895 2.991 0 5.865-.501 8.543-1.421 1.78-.612 3.72.074 4.758 1.644 4.711 7.122 12.789 11.82 21.967 11.82s17.257-4.699 21.967-11.82c1.038-1.57 2.978-2.255 4.758-1.644 2.679.92 5.552 1.421 8.543 1.421 15.059 0 27.164-12.644 26.278-27.895-.776-13.406-11.852-24.231-25.271-24.735z" fill="#ecc32e"/></g><g><g><path d="m227.28 94.464c-.704-12.116-9.819-22.122-21.473-24.308 2.65 3.834 4.316 8.388 4.601 13.29.885 15.251-11.22 27.895-26.278 27.895-2.991 0-5.865-.501-8.543-1.421-1.78-.611-3.719.074-4.758 1.644-4.711 7.122-12.789 11.82-21.967 11.82-1.656 0-3.275-.158-4.846-.451 4.742 6.921 12.695 11.468 21.718 11.468 9.178 0 17.257-4.699 21.967-11.82 1.038-1.57 2.978-2.255 4.758-1.644 2.679.92 5.552 1.421 8.543 1.421 15.058.001 27.163-12.643 26.278-27.894z" fill="#e49824"/></g></g></g><g><path d="m165.733 242.875c-9.195 0-18.041-3.893-24.27-10.679-2.8-3.052-2.597-7.796.455-10.597 3.053-2.801 7.796-2.596 10.598.455 3.444 3.753 8.138 5.821 13.217 5.821s9.773-2.067 13.219-5.821c2.8-3.052 7.545-3.256 10.597-.454 3.052 2.801 3.255 7.545.454 10.597-6.229 6.786-15.075 10.678-24.27 10.678z" fill="#dd5790"/></g></g></svg>