<svg id="Capa_1" enable-background="new 0 0 512 512" height="512" viewBox="0 0 512 512" width="512" xmlns="http://www.w3.org/2000/svg"><g><g><g><circle cx="256" cy="46.863" fill="#be694f" r="46.863"/></g><g><path d="m256 0c-4.684 0-9.204.696-13.471 1.975 19.314 5.789 33.392 23.69 33.392 44.888s-14.078 39.099-33.392 44.888c4.268 1.279 8.787 1.975 13.471 1.975 25.882 0 46.863-20.981 46.863-46.863s-20.981-46.863-46.863-46.863z" fill="#aa593d"/></g></g><g><g><path d="m298.044 46.492h-84.089c-43.031 0-77.915 34.884-77.915 77.915v15.466c0 50.722 41.118 91.84 91.84 91.84h56.238c50.722 0 91.84-41.118 91.84-91.84v-15.466c.001-43.032-34.883-77.915-77.914-77.915z" fill="#be694f"/></g></g><path d="m298.044 46.492h-60.188c43.031 0 77.915 34.884 77.915 77.915v15.466c0 50.062-40.056 90.764-89.865 91.815.657.014 1.315.025 1.975.025h56.238c50.722 0 91.84-41.118 91.84-91.84v-15.466c0-43.032-34.884-77.915-77.915-77.915z" fill="#aa593d"/><g><g><path d="m325.065 312.056v-29.12h-138.13v29.12c0 27.23-19.578 50.518-46.403 55.197l-55.455 9.672c-31.085 5.422-53.771 32.407-53.771 63.961v60.839c0 5.675 4.601 10.276 10.276 10.276h428.835c5.675 0 10.276-4.601 10.276-10.276v-60.839c0-31.554-22.686-58.539-53.771-63.961l-55.455-9.672c-26.824-4.679-46.402-27.967-46.402-55.197z" fill="#ffcbbe"/></g><g><g><path d="m426.923 376.924-55.455-9.672c-26.825-4.679-46.403-27.966-46.403-55.197v-29.12h-38.345v39.378c0 27.23 19.578 50.518 46.403 55.197l55.455 9.672c31.085 5.422 53.771 32.407 53.771 63.961v60.839c0 .006-.001.012-.001.018h28.07c5.675 0 10.276-4.601 10.276-10.276v-60.839c0-31.554-22.686-58.539-53.771-63.961z" fill="#eaac9d"/></g></g><g><path d="m352.713 450.745h-192.957c-29.53 0-53.469 23.939-53.469 53.469v7.786h299.426v-8.255c0-29.271-23.729-53-53-53z" fill="#dae7ef"/></g><g><path d="m352.713 450.745h-56.69c30.346 0 54.946 24.6 54.946 54.946v6.309h54.744v-8.255c0-29.271-23.729-53-53-53z" fill="#c1d5e4"/></g></g><path d="m382.152 184.46c-7.004-4.205-15.121-4.997-22.944-2.13v-44.699c0-8.812-7.143-15.955-15.955-15.955h-174.507c-8.812 0-15.955 7.143-15.955 15.955v44.699c-7.822-2.867-15.939-2.074-22.943 2.13-13.604 8.166-17.858 26.073-6.174 45.536 8.241 13.729 20.868 22.32 32.369 23.33 4.83 19.019 14.91 36.496 29.34 50.299l23.995 22.952c5.355 5.122 11.344 9.193 17.705 12.211 0 0 19.722 3.686 30.292 3.368 10.571-.318 31.257-5.275 31.257-5.275 4.982-2.757 9.69-6.192 13.99-10.305l23.995-22.952c14.43-13.803 24.51-31.28 29.34-50.299 11.5-1.01 24.127-9.6 32.369-23.33 11.684-19.462 7.431-37.369-6.174-45.535z" fill="#ffcbbe"/><g><g><circle cx="301.968" cy="206.72" fill="#4a81f6" r="14.145"/></g><g><circle cx="208.466" cy="206.72" fill="#4a81f6" r="14.145"/></g></g><g><path d="m262.708 261.572-4.046 3.439c-1.535 1.305-3.789 1.305-5.324 0l-4.046-3.439c-3.013-2.561-7.145-3.361-10.896-2.111l-19.168 6.389c-2.055.685-2.782 3.221-1.4 4.89l5.957 7.198c3.335 4.03 7.396 7.398 11.973 9.93 12.595 6.967 27.888 6.967 40.483 0 4.577-2.532 8.638-5.9 11.973-9.93l5.957-7.198c1.381-1.669.655-4.205-1.4-4.89l-19.168-6.389c-3.751-1.251-7.883-.45-10.895 2.111z" fill="#dd5790"/></g><g><path d="m292.772 265.85-9.993-3.331-8.007 9.675c-4.599 5.557-10.2 10.202-16.511 13.693-4.47 2.473-9.187 4.297-14.023 5.497 10.594 3.106 22.126 1.948 32.004-3.517 4.577-2.532 8.638-5.9 11.973-9.93l5.957-7.198c1.381-1.668.655-4.204-1.4-4.889z" fill="#da387d"/></g><path d="m382.152 184.46c-7.004-4.205-15.121-4.997-22.944-2.13v-44.699c0-8.812-7.143-15.955-15.955-15.955h-19.433v99.475c0 28.807-11.774 56.363-32.591 76.275l-23.995 22.952c-11.359 10.866-25.568 16.994-40.143 18.393 24.615 11.679 54.81 7.626 75.532-12.194l23.995-22.952c14.43-13.803 24.51-31.28 29.34-50.299 11.5-1.01 24.127-9.6 32.369-23.33 11.683-19.463 7.43-37.37-6.175-45.536z" fill="#eaac9d"/><g><path d="m323.45 160.655c-20.349 0-37.423-18.835-42.085-24.482-.76-.921-.76-2.242 0-3.163 4.662-5.647 21.736-24.482 42.085-24.482s37.423 18.835 42.085 24.482c.76.921.76 2.242 0 3.163-4.662 5.647-21.736 24.482-42.085 24.482z" fill="#f6e266"/></g><g><path d="m365.535 133.009c-1.975-2.392-6.183-7.15-11.917-11.841-.095.288-.239.564-.442.81-4.662 5.647-21.736 24.482-42.085 24.482-11.73 0-22.365-6.258-30.169-12.642-.259.79-.114 1.679.443 2.353 4.662 5.647 21.736 24.482 42.085 24.482s37.423-18.835 42.085-24.482c.761-.92.761-2.241 0-3.162z" fill="#ecc32e"/></g><g><path d="m386.57 171.647c0 20.349-18.835 37.423-24.482 42.085-.921.76-2.242.76-3.163 0-5.647-4.662-24.482-21.736-24.482-42.085s18.835-37.423 24.482-42.085c.921-.76 2.242-.76 3.163 0 5.647 4.662 24.482 21.736 24.482 42.085z" fill="#f6e266"/></g><g><path d="m362.088 129.562c-.921-.76-2.242-.76-3.163 0-1.55 1.279-4.094 3.498-6.968 6.457 7.6 7.826 17.515 20.862 17.515 35.628s-9.915 27.802-17.515 35.628c2.874 2.959 5.418 5.178 6.968 6.457.921.76 2.242.76 3.163 0 5.647-4.662 24.482-21.736 24.482-42.085s-18.835-37.423-24.482-42.085z" fill="#ecc32e"/></g><g><path d="m397.563 160.655c-20.349 0-37.423-18.835-42.085-24.482-.76-.921-.76-2.242 0-3.163 4.662-5.647 21.736-24.482 42.085-24.482s37.423 18.835 42.085 24.482c.76.921.76 2.242 0 3.163-4.662 5.647-21.736 24.482-42.085 24.482z" fill="#f6e266"/></g><g><path d="m439.648 133.009c-1.975-2.392-6.183-7.15-11.917-11.841-.094.288-.239.564-.442.81-4.662 5.647-21.736 24.482-42.086 24.482-11.73 0-22.365-6.258-30.168-12.642-.259.79-.114 1.679.442 2.353 4.662 5.647 21.736 24.482 42.085 24.482s37.424-18.835 42.086-24.482c.76-.92.76-2.241 0-3.162z" fill="#ecc32e"/></g><g><path d="m386.57 97.534c0 20.349-18.835 37.423-24.482 42.085-.921.76-2.242.76-3.163 0-5.647-4.662-24.482-21.736-24.482-42.085s18.835-37.423 24.482-42.085c.921-.76 2.242-.76 3.163 0 5.647 4.662 24.482 21.736 24.482 42.085z" fill="#f6e266"/></g><g><path d="m362.088 55.449c-.921-.76-2.242-.76-3.163 0-1.55 1.279-4.094 3.498-6.968 6.457 7.6 7.826 17.515 20.862 17.515 35.628s-9.915 27.802-17.515 35.628c2.874 2.959 5.418 5.178 6.968 6.457.921.76 2.242.76 3.163 0 5.647-4.662 24.482-21.736 24.482-42.085s-18.835-37.423-24.482-42.085z" fill="#ecc32e"/></g><g><circle cx="360.506" cy="134.591" fill="#e490d0" r="15.514"/></g><g><path d="m366.714 120.377c.832 1.902 1.3 3.999 1.3 6.208 0 8.568-6.946 15.514-15.514 15.514-2.209 0-4.306-.469-6.207-1.3 2.395 5.476 7.854 9.306 14.213 9.306 8.568 0 15.514-6.946 15.514-15.514 0-6.36-3.83-11.818-9.306-14.214z" fill="#df73c1"/></g></g></svg>