<svg id="Capa_1" enable-background="new 0 0 512 512" height="512" viewBox="0 0 512 512" width="512" xmlns="http://www.w3.org/2000/svg"><g><path d="m61.954 55.347v436.847c0 10.939 8.868 19.806 19.806 19.806h348.478c10.939 0 19.807-8.868 19.807-19.806v-436.847z" fill="#dfebfa"/><circle cx="256" cy="160.954" fill="#5cb3f8" r="67.477"/><path d="m95.95 492.194v-436.847h-33.996v436.847c0 10.939 8.868 19.806 19.806 19.806h33.996c-10.938 0-19.806-8.868-19.806-19.806z" fill="#b1dbfc"/><path d="m430.239 0h-313.648v57.407h333.455v-37.601c0-10.939-8.869-19.806-19.807-19.806z" fill="#5cb3f8"/><path d="m118.651 0h-36.89c-10.939 0-19.807 8.867-19.807 19.806v37.601h56.696v-57.407z" fill="#ff656f"/><path d="m115.757 0h-33.996c-10.939 0-19.807 8.867-19.807 19.806v37.601h33.996v-37.601c0-10.939 8.868-19.806 19.807-19.806z" fill="#ff4756"/><g><g><path d="m411.669 36.43h-255.327c-4.267 0-7.726-3.459-7.726-7.726s3.459-7.726 7.726-7.726h255.327c4.267 0 7.726 3.459 7.726 7.726s-3.459 7.726-7.726 7.726z" fill="#8bcaff"/></g></g><path d="m173.937 267.766h-66.406c-4 0-7.273 3.273-7.273 7.273v66.406c0 4 3.273 7.273 7.273 7.273h66.406c4 0 7.273-3.273 7.273-7.273v-66.406c0-4-3.273-7.273-7.273-7.273z" fill="#ff656f"/><path d="m289.203 267.766h-66.406c-4 0-7.273 3.273-7.273 7.273v66.406c0 4 3.273 7.273 7.273 7.273h66.406c4 0 7.273-3.273 7.273-7.273v-66.406c0-4-3.273-7.273-7.273-7.273z" fill="#ffe181"/><path d="m331.203 160.954c0-41.767-34.285-75.832-76.38-75.173-41.164.632-74.025 34.32-74.025 75.173 0 41.467 33.752 75.203 75.203 75.203 41.37 0 75.202-33.664 75.202-75.203zm-15.969-7.727h-16.624c-.679-14.971-3.323-28.921-7.587-40.639 12.995 9.437 22.047 23.968 24.211 40.639zm-51.508 66.956v-51.503h19.402c-1.056 20.931-6.348 39.635-14.439 50.655-2.84.613-3.932.715-4.963.848zm-20.415-.848c-8.091-11.02-13.383-29.724-14.439-50.655h19.401v51.503c-1.693-.218-2.735-.364-4.962-.848zm4.962-117.611v51.503h-19.401c1.056-20.931 6.348-39.635 14.439-50.655 2.698-.587 3.721-.688 4.962-.848zm15.453 51.503v-51.503c1.03.133 2.343.282 4.963.849 8.091 11.02 13.383 29.724 14.439 50.655h-19.402zm-42.749-40.639c-4.264 11.718-6.908 25.669-7.587 40.639h-16.624c2.163-16.672 11.216-31.203 24.211-40.639zm-24.211 56.092h16.624c.679 14.971 3.323 28.921 7.587 40.639-12.995-9.436-22.048-23.967-24.211-40.639zm94.257 40.639c4.263-11.718 6.908-25.668 7.587-40.639h16.624c-2.164 16.672-11.216 31.203-24.211 40.639z" fill="#8bcaff"/><path d="m404.469 267.766h-66.406c-4 0-7.273 3.273-7.273 7.273v66.406c0 4 3.273 7.273 7.273 7.273h66.406c4 0 7.273-3.273 7.273-7.273v-66.406c0-4-3.273-7.273-7.273-7.273z" fill="#5cb3f8"/><path d="m135.319 341.445v-66.406c0-4 3.273-7.273 7.273-7.273h-35.06c-4 0-7.273 3.273-7.273 7.273v66.406c0 4 3.273 7.273 7.273 7.273h35.06c-4.001 0-7.273-3.273-7.273-7.273z" fill="#ff4756"/><path d="m250.585 341.445v-66.406c0-4 3.273-7.273 7.273-7.273h-35.06c-4 0-7.273 3.273-7.273 7.273v66.406c0 4 3.273 7.273 7.273 7.273h35.06c-4.001 0-7.273-3.273-7.273-7.273z" fill="#fec458"/><path d="m365.851 341.445v-66.406c0-4 3.273-7.273 7.273-7.273h-35.06c-4 0-7.273 3.273-7.273 7.273v66.406c0 4 3.273 7.273 7.273 7.273h35.06c-4 0-7.273-3.273-7.273-7.273z" fill="#0290f4"/><path d="m372.554 388.607 15.231-55.034c1.421-5.134-3.301-9.855-8.435-8.435l-55.034 15.231c-5.061 1.401-6.732 7.74-3.019 11.453l8.612 8.612c1.456 1.456 1.456 3.816 0 5.272l-20.91 20.91c-1.526 1.526-1.526 4 0 5.527l11.781 11.781c1.526 1.526 4.001 1.526 5.527 0l20.91-20.91c1.456-1.456 3.816-1.456 5.272 0l8.612 8.612c3.714 3.713 10.053 2.042 11.453-3.019z" fill="#8479c2"/></g></svg>