<svg id="Capa_1" enable-background="new 0 0 500.825 500.825" height="512" viewBox="0 0 500.825 500.825" width="512" xmlns="http://www.w3.org/2000/svg"><g><path d="m263.519 418.615c2.66 2.66 2.181 7.09-.987 9.117-37.821 24.209-87.365 66.004-132.751 49.483-23.354-7.873-44.621-21.572-62.103-39.085-3.792-3.792-7.412-7.756-10.821-11.884-12.353-14.902-22.103-31.923-28.264-50.219-16.521-45.385 25.274-94.929 49.483-132.751 2.028-3.168 6.458-3.647 9.117-.987 15.676 15.692 40.235 16.529 54.871 1.908l14.574-14.574c13.004-13.004 13.775-33.868 2.767-49.359-2.128-2.995-1.014-7.175 2.314-8.731 35.355-16.528 73.939-38.714 113.535-33.552 30.281 3.933 55.246-7.819 81.493-20.586l31.665 31.665c-12.768 26.247-24.519 51.212-20.586 81.493 5.162 39.595-17.024 78.18-33.552 113.535-1.556 3.329-5.735 4.443-8.731 2.314-15.491-11.008-36.355-10.237-49.359 2.767l-14.574 14.574c-14.62 14.638-13.783 39.196 1.909 54.872z" fill="#883f2e"/><path d="m240.806 395.902c2.66 2.66 2.181 7.09-.987 9.117-37.821 24.209-87.365 66.004-132.751 49.483-18.288-6.169-35.301-15.911-50.211-28.256-12.353-14.902-22.103-31.923-28.264-50.219-16.521-45.385 25.274-94.929 49.483-132.751 2.028-3.168 6.458-3.647 9.117-.987 15.676 15.692 40.235 16.529 54.871 1.908l14.574-14.574c13.004-13.004 13.775-33.868 2.767-49.359-2.128-2.995-1.014-7.175 2.314-8.731 35.355-16.528 73.939-38.714 113.535-33.552 30.281 3.933 55.246-7.819 81.493-20.586l8.952 8.952c-12.768 26.247-24.519 51.212-20.586 81.493 5.162 39.595-17.024 78.18-33.552 113.535-1.556 3.329-5.735 4.443-8.731 2.314-15.491-11.008-36.355-10.237-49.359 2.767l-14.574 14.574c-14.62 14.637-13.783 39.196 1.909 54.872z" fill="#a44f3e"/><path d="m29.532 224.924-14.812-6.041c-8.737-3.563-11.019-14.878-4.347-21.55l168.206-168.207c3.756-3.756 9.397-4.894 14.315-2.888l25.09 10.234z" fill="#d8aa5e"/><g><path d="m111.016 315.321c-4.674 0-9.348-1.779-12.907-5.338-3.448-3.448-5.347-8.032-5.347-12.907s1.899-9.459 5.347-12.907c2.929-2.929 7.678-2.929 10.606 0 2.929 2.929 2.929 7.678 0 10.606-.829.829-.953 1.797-.953 2.301 0 .503.124 1.471.953 2.3.829.83 1.797.954 2.301.954.503 0 1.471-.124 2.3-.953l42.713-42.713c3.447-3.448 8.031-5.347 12.907-5.347 4.875 0 9.459 1.899 12.907 5.347 3.447 3.447 5.346 8.031 5.346 12.907 0 4.875-1.899 9.459-5.347 12.907-2.929 2.928-7.678 2.928-10.607 0-2.929-2.929-2.928-7.678 0-10.607.829-.829.953-1.797.953-2.3s-.124-1.472-.953-2.3c-.829-.83-1.797-.954-2.3-.954s-1.472.124-2.3.953l-42.713 42.713c-3.558 3.559-8.232 5.338-12.906 5.338z" fill="#e9b665"/></g><g><path d="m208.726 413.04c-4.875 0-9.459-1.899-12.907-5.347-7.117-7.117-7.117-18.697 0-25.814l42.713-42.713c.829-.829.953-1.797.953-2.301 0-.503-.124-1.471-.953-2.3-.83-.83-1.797-.954-2.301-.954-.503 0-1.471.124-2.3.953-2.929 2.929-7.677 2.929-10.607 0-2.929-2.929-2.929-7.678 0-10.607 3.448-3.448 8.031-5.347 12.907-5.347 4.875 0 9.459 1.899 12.907 5.347 3.448 3.447 5.347 8.031 5.347 12.907s-1.899 9.459-5.347 12.907l-42.713 42.713c-1.269 1.269-1.269 3.333 0 4.601s3.333 1.269 4.602 0c2.929-2.929 7.678-2.929 10.606 0 2.929 2.929 2.929 7.678 0 10.606-3.448 3.45-8.032 5.349-12.907 5.349z" fill="#e9b665"/></g><g><path d="m195.722 356.021c-1.919 0-3.839-.732-5.303-2.197l-38.441-38.441c-2.929-2.929-2.929-7.678 0-10.606 2.929-2.929 7.678-2.929 10.606 0l38.441 38.441c2.929 2.929 2.929 7.678 0 10.606-1.464 1.465-3.384 2.197-5.303 2.197z" fill="#e19974"/></g><g><path d="m7.5 254.456c-1.919 0-3.839-.732-5.303-2.197-2.929-2.929-2.929-7.678 0-10.606l228.256-228.256c2.929-2.929 7.678-2.929 10.606 0 2.929 2.929 2.929 7.678 0 10.606l-228.256 228.256c-1.464 1.465-3.383 2.197-5.303 2.197z" fill="#ffefd2"/></g><g><g><path d="m113.077 373.513c-2.929-2.929-2.929-7.678 0-10.607l127.933-127.933c2.929-2.929 7.678-2.929 10.607 0s2.929 7.678 0 10.607l-127.934 127.933c-2.929 2.929-7.678 2.929-10.606 0z" fill="#ffefd2"/></g><g><path d="m132.296 392.732c-2.929-2.929-2.929-7.678 0-10.607l127.933-127.933c2.929-2.929 7.678-2.929 10.607 0s2.929 7.678 0 10.607l-127.934 127.933c-2.929 2.929-7.678 2.929-10.606 0z" fill="#ffefd2"/></g></g><g><path d="m17.451 495.85c-1.919 0-3.839-.732-5.303-2.197-2.929-2.929-2.929-7.678 0-10.606l20.356-20.356c2.929-2.929 7.678-2.929 10.606 0 2.929 2.929 2.929 7.678 0 10.606l-20.356 20.356c-1.464 1.464-3.383 2.197-5.303 2.197z" fill="#d7d0d6"/></g><path d="m147.334 396.848-15.012 12.119c-11.337 9.132-26.865 8.804-37.404 19.343l-46 46c-1.324 1.324-3.47 1.324-4.794 0l-12.634-12.633c-1.324-1.324-1.324-3.47 0-4.794l46-46c10.469-10.469 10.25-26.122 19.351-37.396l12.111-15.02c2.447-3.041 7.005-3.284 9.765-.524l29.14 29.14c2.769 2.767 2.519 7.318-.523 9.765z" fill="#e19974"/><path d="m137.725 387.239-15.02 12.111c-11.329 9.14-26.857 8.812-37.396 19.351l-46 46c-1.324 1.324-3.47 1.324-4.794 0l-3.025-3.025c-1.324-1.324-1.324-3.47 0-4.794l46-46c10.469-10.469 10.25-26.122 19.351-37.396l12.111-15.02c2.447-3.041 7.005-3.284 9.765-.524l19.531 19.531c2.761 2.761 2.519 7.319-.523 9.766z" fill="#e8ad8c"/><g><path d="m493.325 86.507c-1.919 0-3.839-.732-5.303-2.197l-17.234-17.234c-2.929-2.929-2.929-7.678 0-10.606 2.929-2.929 7.678-2.929 10.606 0l17.234 17.234c2.929 2.929 2.929 7.678 0 10.606-1.464 1.465-3.383 2.197-5.303 2.197z" fill="#6d3326"/></g><g><path d="m444.027 37.209c-1.919 0-3.839-.732-5.303-2.197l-17.234-17.233c-2.929-2.929-2.929-7.678 0-10.606 2.929-2.929 7.678-2.929 10.606 0l17.234 17.234c2.929 2.929 2.929 7.678 0 10.606-1.464 1.464-3.383 2.196-5.303 2.196z" fill="#6d3326"/></g><path d="m278.843 264.886c-4.933 5.215-13.198 5.332-18.272.258l-19.914-19.914c-5.074-5.074-4.957-13.339.258-18.272l218.257-206.467 13.237 13.237 12.908 12.893z" fill="#e19974"/><path d="m265.943 251.985c-4.934 5.215-13.198 5.332-18.272.258l-7.013-7.013c-5.074-5.074-4.957-13.339.258-18.272l218.256-206.467 13.245 13.229-.008.008z" fill="#e8ad8c"/><path d="m482.956 54.909-13.722 13.721c-5.066 5.066-13.276 5.066-18.342 0l-11.134-11.149-1.446-1.446c-.031-.016-.047-.031-.078-.063l-1.11-1.11c-5.02-5.066-5.004-13.245.047-18.296l13.714-13.714c5.043-5.043 13.19-5.074 18.264-.078l13.8 13.8c5.066 5.067 5.066 13.276.007 18.335z" fill="#883f2e"/><path d="m471.603 43.556-13.722 13.722c-4.996 4.996-13.042 5.066-18.124.203-.078-.063-.149-.133-.219-.203l-2.416-2.416c-5.02-5.066-5.004-13.245.047-18.296l13.714-13.714c5.043-5.043 13.19-5.074 18.264-.078l2.447 2.447c5.068 5.067 5.06 13.269.009 18.335z" fill="#a44f3e"/></g></svg>