<svg id="Capa_1" enable-background="new 0 0 512 512" height="512" viewBox="0 0 512 512" width="512" xmlns="http://www.w3.org/2000/svg"><g><g><path d="m490.366 410.548-12.1-5.839c-42.156-20.343-88.361-30.908-135.168-30.908h-174.196c-46.808 0-93.012 10.565-135.168 30.908l-12.1 5.839c-13.024 6.285-21.301 19.469-21.301 33.93 0 20.807 16.867 37.674 37.674 37.674h435.986c20.807 0 37.674-16.867 37.674-37.674 0-14.46-8.277-27.645-21.301-33.93z" fill="#c1d5e4"/></g><g><path d="m490.366 410.548-12.1-5.839c-42.156-20.343-88.361-30.908-135.168-30.908h-55.985c46.808 0 93.012 10.565 135.169 30.908l12.1 5.839c13.024 6.285 21.301 19.469 21.301 33.93 0 20.807-16.867 37.674-37.674 37.674h55.985c20.807 0 37.674-16.867 37.674-37.674-.001-14.46-8.278-27.645-21.302-33.93z" fill="#98b9d3"/></g><g><path d="m.333 444.479c0-14.461 8.277-27.646 21.301-33.93l10.657-5.142 51.187-2.763c21.934-1.184 43.926.68 65.348 5.539l117.13 26.569v47.402h-227.949c-20.807-.002-37.674-16.869-37.674-37.675z" fill="#dae7ef"/></g><g><path d="m1.919 433.688c-1.032 3.45-1.586 7.077-1.586 10.791 0 20.807 16.867 37.674 37.674 37.674h227.949v-21.616h-227.949c-17.043-.001-31.436-11.32-36.088-26.849z" fill="#c1d5e4"/></g><g><path d="m100.413 488.991 21.555-20.657c4.346-4.164 9.52-7.367 15.186-9.398l32.775-11.75c3.103-1.112 5.893-2.955 8.135-5.372l13.563-14.626c6.703-7.229 17.596-8.68 25.958-3.458l12.807 7.998c3.05 1.905 6.329 3.413 9.76 4.488l25.528 8.004 3.932 33.312-109.761 9.253c-8.067.675-15.952 2.772-23.289 6.193l-29.385 13.702c-4.31 2.01-9.38-.441-10.482-5.067-1.088-4.568.326-9.372 3.718-12.622z" fill="#ffcbbe"/></g><g><path d="m267.472 459.4-109.233 9.209c-8.067.675-15.952 2.772-23.289 6.193l-29.385 13.702c-1.681.784-3.476.882-5.108.444l-.045.043c-3.391 3.25-4.806 8.054-3.717 12.623 1.102 4.626 6.172 7.077 10.482 5.067l29.385-13.702c7.337-3.421 15.221-5.518 23.289-6.193l109.761-9.254z" fill="#eaac9d"/></g><g><path d="m511.667 444.479c0-14.461-8.277-27.646-21.301-33.93l-10.657-5.142-51.187-2.763c-21.934-1.184-43.926.68-65.348 5.539l-112.353 25.485c-2.794.634-4.777 3.117-4.777 5.982v36.369c0 3.388 2.746 6.134 6.134 6.134h221.815c20.807-.001 37.674-16.868 37.674-37.674z" fill="#dae7ef"/></g><g><path d="m490.366 410.548-2.192-1.058c1.597 4.202 2.464 8.718 2.464 13.372 0 20.807-16.867 37.674-37.674 37.674h-206.92v15.482c0 3.388 2.746 6.134 6.134 6.134h221.815c20.807 0 37.674-16.867 37.674-37.674 0-14.46-8.277-27.645-21.301-33.93z" fill="#c1d5e4"/></g><g><path d="m511.827 418.636-9.507-36.353c-1.272-4.863-5.382-8.458-10.371-9.072l-33.899-4.171c-2.645-.326-5.089-1.58-6.896-3.54l-51.567-55.949c-1.789-1.941-2.96-4.372-3.362-6.981l-16.058-104.12c-2.083-13.506-9.478-25.62-20.539-33.645l-4.219-3.061c-8.744-6.345-19.271-9.761-30.075-9.761l-8.831 39.607 42.309 144.235c1.198 4.085 3.776 7.628 7.294 10.026l73.463 50.071c3.616 2.465 7.473 4.556 11.511 6.243l53.831 22.482c3.904 1.629 7.986-1.918 6.916-6.011z" fill="#ffcbbe"/></g><g><path d="m.173 418.636 9.507-36.353c1.272-4.863 5.381-8.458 10.371-9.072l33.899-4.171c2.645-.326 5.089-1.58 6.896-3.54l51.567-55.949c1.789-1.941 2.96-4.372 3.362-6.981l16.058-104.12c2.083-13.506 9.478-25.62 20.539-33.645l4.219-3.061c8.744-6.345 19.271-9.761 30.075-9.761l8.831 39.607-42.309 144.235c-1.198 4.085-3.776 7.628-7.294 10.026l-73.464 50.07c-3.616 2.465-7.473 4.556-11.511 6.243l-53.83 22.482c-3.904 1.63-7.986-1.917-6.916-6.01z" fill="#ffcbbe"/></g><g><path d="m139.705 323.423c-1.198 4.085-3.776 7.628-7.294 10.026l-73.463 50.071c-3.616 2.465-7.473 4.557-11.511 6.243l-44.583 18.62-2.681 10.253c-1.07 4.093 3.011 7.64 6.915 6.01l53.831-22.482c4.038-1.686 7.895-3.778 11.511-6.243l73.463-50.071c3.518-2.398 6.096-5.941 7.294-10.026l42.309-144.235-7.651-34.313z" fill="#eaac9d"/></g><g><path d="m511.827 418.636-9.507-36.353c-1.272-4.863-5.381-8.458-10.37-9.072l-33.899-4.171c-2.646-.326-5.089-1.58-6.896-3.54l-51.567-55.949c-1.789-1.941-2.96-4.372-3.362-6.981l-16.058-104.12c-2.083-13.506-9.478-25.62-20.539-33.646l-4.219-3.061c-8.744-6.345-19.271-9.761-30.075-9.761l-2.466 11.057c6.714 1.526 13.092 4.391 18.728 8.48l4.219 3.061c11.061 8.026 18.456 20.139 20.539 33.646l16.058 104.12c.403 2.609 1.573 5.04 3.362 6.981l51.567 55.949c1.806 1.96 4.25 3.214 6.896 3.54l33.899 4.171c4.989.614 9.099 4.209 10.37 9.072l7.555 28.891 8.849 3.695c3.905 1.631 7.986-1.916 6.916-6.009z" fill="#eaac9d"/></g><g><path d="m320.697 383.127 14.321-2.052c3.418-.49 5.226-4.31 3.439-7.264l-5.072-8.382c-11.094-18.334-16.959-39.354-16.959-60.783v-16.536c0-13.727 3.686-27.202 10.673-39.018 5.3-8.962 8.096-19.183 8.096-29.596v-54.739c0-10.907-8.842-19.748-19.748-19.748h-118.893c-10.907 0-19.748 8.842-19.748 19.748v54.739c0 10.412 2.796 20.633 8.096 29.596 6.987 11.816 10.673 25.291 10.673 39.018v16.535c0 21.429-5.865 42.45-16.959 60.783l-5.072 8.382c-1.787 2.954.021 6.774 3.439 7.264l14.321 2.052c42.911 6.15 86.481 6.15 129.393.001z" fill="#86f1a7"/></g><g><path d="m338.457 373.812-5.072-8.382c-11.094-18.334-16.959-39.354-16.959-60.783v-16.536c0-13.727 3.686-27.202 10.673-39.018 5.3-8.962 8.096-19.183 8.096-29.595v-54.739c0-10.907-8.842-19.748-19.748-19.748h-8.364v77.188c0 10.79-2.897 21.381-8.389 30.669-7.24 12.244-11.06 26.208-11.06 40.433v17.135c0 22.206 6.078 43.989 17.574 62.988l6.586 10.883c2.971-.366 5.939-.755 8.904-1.18l14.321-2.052c3.417-.489 5.225-4.309 3.438-7.263z" fill="#78d090"/></g><g><path d="m268.984 167.791h-25.968c-9.941 0-18-8.059-18-18v-47.625h61.968v47.625c0 9.941-8.059 18-18 18z" fill="#eaac9d"/></g><g><path d="m269.482 102.166v46.801c0 10.397-8.428 18.825-18.825 18.825h18.327c9.941 0 18-8.059 18-18v-47.625h-17.502z" fill="#df9380"/></g><g><path d="m272.73 4.611h-33.055c-15.464 0-28 12.536-28 28v19.845l2 2.875h85.055l2-2.875v-19.845c0-15.464-12.536-28-28-28z" fill="#be694f"/></g><g><path d="m272.73 4.611h-30.121c15.934 0 28.85 12.917 28.85 28.85v21.87h27.271l2-2.875v-19.845c0-15.464-12.536-28-28-28z" fill="#be694f"/></g><path d="m311.209 64.155c-3.125-1.633-6.859-1.418-10.484.228l.005-.019v-15.908c0-3.802-3.082-6.884-6.883-6.884h-75.288c-3.802 0-6.883 3.082-6.883 6.884v16.116c-3.749-1.817-7.644-2.11-10.885-.417-6.803 3.555-8.14 14.432-2.986 24.296 3.974 7.606 10.644 12.367 16.609 12.528 2.367 6.519 6.21 12.479 11.322 17.369l10.352 9.902c1.872 1.791 3.924 3.284 6.096 4.479l12.91 2.249 14.389-1.856c2.445-1.255 4.751-2.878 6.834-4.871l10.352-9.902c5.112-4.89 8.961-10.849 11.327-17.368v-.004c5.859-.364 12.317-5.095 16.2-12.526 5.153-9.864 3.816-20.741-2.987-24.296z" fill="#ffcbbe"/><path d="m311.209 64.155c-3.124-1.632-6.856-1.418-10.48.226v-15.925c0-3.802-3.082-6.884-6.883-6.884h-12.668v40.802c0 12.428-5.08 24.317-14.061 32.907l-10.352 9.902c-4.185 4.003-9.267 6.514-14.577 7.539 10.876 5.984 24.751 4.498 34.129-4.472l10.352-9.902c5.113-4.891 8.956-10.852 11.323-17.372 5.86-.362 12.32-5.093 16.204-12.526 5.153-9.863 3.816-20.74-2.987-24.295z" fill="#eaac9d"/></g></svg>