<svg id="Capa_1" enable-background="new 0 0 497 497" height="512" viewBox="0 0 497 497" width="512" xmlns="http://www.w3.org/2000/svg"><g><path d="m148.687 59.3h199.637v27.207h-199.637z" fill="#a44f3e"/><path d="m148.687 59.3h161.438v27.207h-161.438z" fill="#bb5d4c"/><path d="m369.762 311.693v160.194c0 13.87-11.244 25.114-25.114 25.114h-192.286c-13.87 0-25.114-11.244-25.114-25.114v-160.194z" fill="#a44f3e"/><path d="m339.165 311.693v166.833c0 10.203-8.271 18.474-18.474 18.474h-168.329c-13.87 0-25.114-11.244-25.114-25.114v-160.193z" fill="#bb5d4c"/><path d="m450.62 43.84v.01c0 11.04-4.09 21.13-10.82 28.83h-49.32c-9.23 0-16.74-7.51-16.74-16.74s7.51-16.73 16.74-16.73h12.5c4.15 0 7.5-3.36 7.5-7.5 0-4.15-3.35-7.5-7.5-7.5h-12.5c-17.5 0-31.74 14.23-31.74 31.73s14.24 31.74 31.74 31.74l22.99 139.51c6.69 39.97 5.68 91.58-13.46 127.31-29.12 54.3-84 90.75-151.51 90.75-4.08 0-8.11-.13-12.09-.4-61.96-4.07-112.07-39.33-139.42-90.35-19.14-35.73-20.15-87.34-13.46-127.31l22.99-139.51c17.5 0 31.74-14.24 31.74-31.74s-14.24-31.74-31.74-31.74h-12.5c-4.15 0-7.5 3.36-7.5 7.5 0 4.15 3.35 7.5 7.5 7.5h12.5c9.23 0 16.74 7.51 16.74 16.74s-7.51 16.74-16.74 16.74h-49.32c-6.74-7.7-10.82-17.79-10.82-28.83v-.01c0-24.21 19.62-43.84 43.83-43.84h34.16c21.68 0 38.47 18.99 35.8 40.51l-27.21 219.07c-6.68 63.56 41.22 110.63 103.45 116.06 3.97.35 8.01.52 12.09.52 67.97 0 122.64-48.96 115.54-116.58l-27.21-219.07c-2.67-21.52 14.12-40.51 35.8-40.51h34.16c24.2 0 43.83 19.63 43.83 43.84z" fill="#d8aa5e"/><path d="m426.421 43.838v.01c0 24.199-11.734 43.834-35.943 43.834l-26.312-14.778 25.096 154.284c6.696 39.971 5.687 91.582-13.454 127.309-27.351 51.014-77.459 86.287-139.403 90.356-61.955-4.069-112.062-39.332-139.413-90.356-19.141-35.726-20.15-87.338-13.464-127.309l22.993-139.506 1.645-10.515s-42.822 4.76-50.854-4.358c-6.805-7.724-10.932-17.863-10.932-28.96v-.01c0-24.209 19.625-43.834 43.834-43.834h9.951c21.685 0 38.467 18.986 35.798 40.506l-27.207 219.066c-7.098 67.621 47.563 116.585 115.544 116.585 4.09 0 8.128-.175 12.105-.525 3.976.35 8.015.525 12.094.525 67.971 0 122.642-48.964 115.544-116.585l-27.216-219.067c-2.668-21.52 14.124-40.506 35.798-40.506h9.962c24.209 0 43.834 19.625 43.834 43.834z" fill="#e9b665"/><g><path d="m191.859 319.189c-4.142 0-7.5-3.358-7.5-7.5v-225.177c0-4.142 3.358-7.5 7.5-7.5s7.5 3.358 7.5 7.5v225.177c0 4.142-3.358 7.5-7.5 7.5z" fill="#ffefd2"/></g><g><path d="m229.622 319.189c-4.142 0-7.5-3.358-7.5-7.5v-225.177c0-4.142 3.358-7.5 7.5-7.5s7.5 3.358 7.5 7.5v225.177c0 4.142-3.358 7.5-7.5 7.5z" fill="#ffefd2"/></g><g><path d="m267.385 319.189c-4.142 0-7.5-3.358-7.5-7.5v-225.177c0-4.142 3.358-7.5 7.5-7.5s7.5 3.358 7.5 7.5v225.177c0 4.142-3.358 7.5-7.5 7.5z" fill="#ffefd2"/></g><g><path d="m305.148 319.189c-4.142 0-7.5-3.358-7.5-7.5v-225.177c0-4.142 3.358-7.5 7.5-7.5s7.5 3.358 7.5 7.5v225.177c0 4.142-3.358 7.5-7.5 7.5z" fill="#ffefd2"/></g><g><path d="m138.26 55.94c0 17.5-14.24 31.74-31.74 31.74h-16.31c-13.17 0-24.98-5.81-33.01-15h49.32c9.23 0 16.74-7.51 16.74-16.74s-7.51-16.74-16.74-16.74h-12.5c-4.15 0-7.5-3.35-7.5-7.5 0-4.14 3.35-7.5 7.5-7.5h12.5c17.5 0 31.74 14.24 31.74 31.74z" fill="#bb5d4c"/></g><g><path d="m439.8 72.68c-8.04 9.19-19.85 15-33.01 15h-16.31c-17.5 0-31.74-14.24-31.74-31.74s14.24-31.73 31.74-31.73h12.5c4.15 0 7.5 3.35 7.5 7.5 0 4.14-3.35 7.5-7.5 7.5h-12.5c-9.23 0-16.74 7.5-16.74 16.73s7.51 16.74 16.74 16.74z" fill="#bb5d4c"/></g></g></svg>