<svg id="Capa_1" enable-background="new 0 0 512 512" height="512" viewBox="0 0 512 512" width="512" xmlns="http://www.w3.org/2000/svg"><g><path d="m197.033 287.53-46.873 46.873c.096.09.2.168.293.262l26.882 26.882c.094.094.172.197.262.293l46.873-46.873c-5.054-3.959-9.918-8.246-14.555-12.882-4.636-4.637-8.922-9.502-12.882-14.555z" fill="#b1dbfc"/><path d="m184.636 328.429 25.82-25.82c-.179-.177-.363-.346-.541-.524-4.636-4.636-8.923-9.501-12.882-14.555l-46.873 46.873c.096.09.2.168.294.262l26.882 26.882c.094.094.172.197.262.293l14.267-14.267c-3.086-3.086-5.439-5.44-7.233-7.234-3.291-3.291-3.286-8.62.004-11.91z" fill="#8bcaff"/><circle cx="333.998" cy="178.001" fill="#dfebfa" r="178.001"/><path d="m250.742 303.867c-69.514-69.514-69.514-182.218 0-251.732 29.328-29.328 66.344-46.282 104.561-50.863-52.365-6.277-106.985 10.678-147.171 50.863-69.514 69.514-69.514 182.218 0 251.732 40.186 40.186 94.806 57.14 147.171 50.863-38.217-4.58-75.233-21.534-104.561-50.863z" fill="#b1dbfc"/><circle cx="333.998" cy="178.001" fill="#5cb3f8" r="137.547"/><path d="m312.457 275.262c-53.715-53.715-53.715-140.805 0-194.52 17.128-17.128 37.651-28.784 59.401-34.989-46.462-13.255-98.532-1.598-135.12 34.989-53.715 53.715-53.715 140.805 0 194.52 36.588 36.588 88.657 48.245 135.12 34.99-21.751-6.206-42.274-17.863-59.401-34.99z" fill="#2fa2f6"/><path d="m191.894 369.837-49.731-49.731c-5.323-5.323-14.032-5.323-19.355 0l-6.72 6.72c-5.323 5.323-5.323 14.032 0 19.355.965.965.965 2.53 0 3.495l-112.096 112.095c-5.323 5.323-5.323 14.032 0 19.355l26.882 26.882c5.323 5.323 14.032 5.323 19.355 0l112.096-112.096c.965-.965 2.53-.965 3.495 0 5.323 5.323 14.032 5.323 19.355 0l6.72-6.72c5.321-5.323 5.321-14.033-.001-19.355z" fill="#ff7f87"/><path d="m23.09 483.716 115.646-115.646c.995-.996 1.02-2.585.055-3.55-5.322-5.323-5.185-14.17.306-19.661l6.933-6.933c2.709-2.709 6.235-4.109 9.752-4.199l-13.62-13.62c-5.323-5.323-14.032-5.323-19.355 0l-6.72 6.72c-5.322 5.323-5.322 14.032 0 19.355.965.965.965 2.53 0 3.495l-112.095 112.094c-5.323 5.323-5.323 14.032 0 19.355l15.096 15.096c-.76-4.362.581-9.085 4.002-12.506z" fill="#ff656f"/><path d="m448.581 178.001c0-63.285-51.519-114.582-114.583-114.582-62.923 0-114.582 51.176-114.582 114.582 0 63.266 51.498 114.582 114.582 114.582 63.092 0 114.583-51.326 114.583-114.582zm-15.753-7.726h-35.702c-.916-30.373-7.194-58.857-17.363-80.186 29.527 15.434 50.363 45.305 53.065 80.186zm-91.104 106.539v-91.086h39.946c-1.151 36.764-10.466 69.998-24.99 88.781-5.254 1.237-10.117 1.933-14.956 2.305zm-30.408-2.305c-14.524-18.783-23.838-52.017-24.99-88.781h39.946v91.086c-4.953-.381-9.789-1.093-14.956-2.305zm14.956-195.32v91.086h-39.946c1.151-36.764 10.466-69.999 24.99-88.781 4.844-1.136 9.664-1.898 14.956-2.305zm15.452 91.086v-91.086c4.882.376 9.741 1.078 14.957 2.305 14.524 18.783 23.838 52.017 24.99 88.781zm-53.49-80.186c-10.17 21.329-16.448 49.813-17.364 80.186h-35.702c2.702-34.881 23.539-64.753 53.066-80.186zm-53.066 95.639h35.702c.916 30.373 7.194 58.857 17.364 80.186-29.527-15.433-50.364-45.305-53.066-80.186zm144.595 80.186c10.17-21.329 16.448-49.813 17.363-80.186h35.702c-2.702 34.88-23.538 64.752-53.065 80.186z" fill="#8bcaff"/><path d="m42.614 388.455h96.472v65.388h-96.472z" fill="#ff656f" transform="matrix(.707 -.707 .707 .707 -271.188 187.593)"/><path d="m54.146 452.66 68.216-68.216-20.522-20.522c-7.039 7.039-60.431 60.431-68.216 68.216z" fill="#ff4756"/></g></svg>