<svg id="Capa_1" enable-background="new 0 0 504.5 504.5" height="512" viewBox="0 0 504.5 504.5" width="512" xmlns="http://www.w3.org/2000/svg"><g><g><path d="m150.908 272.08c-1.919 0-3.838-.732-5.303-2.196l-19.713-19.711c-1.406-1.407-2.197-3.314-2.197-5.304s.79-3.897 2.197-5.303l115.816-115.816c1.406-1.407 3.314-2.197 5.303-2.197h.001c1.989 0 3.897.791 5.303 2.198l19.708 19.716c2.928 2.93 2.927 7.678-.002 10.606-2.931 2.929-7.679 2.928-10.607-.002l-14.404-14.411-105.208 105.209 14.409 14.408c2.929 2.929 2.929 7.678 0 10.607-1.464 1.464-3.384 2.196-5.303 2.196z" fill="#596c76"/></g><g><path d="m446.78 25.645c-1.92 0-3.839-.732-5.304-2.197l-10.645-10.645c-2.929-2.929-2.929-7.678.001-10.606 2.929-2.929 7.678-2.929 10.606 0l10.645 10.645c2.929 2.929 2.929 7.678-.001 10.606-1.464 1.465-3.383 2.197-5.302 2.197z" fill="#7a8c98"/></g><g><path d="m423.273 39.051c-1.919 0-3.839-.732-5.304-2.197l-10.734-10.734c-2.929-2.929-2.929-7.678 0-10.606 2.93-2.929 7.678-2.929 10.607 0l10.734 10.734c2.929 2.929 2.929 7.678 0 10.606-1.464 1.465-3.384 2.197-5.303 2.197z" fill="#7a8c98"/></g><path d="m156.009 467.579-70.552-44.134-42.33-68.749c27.803-3.055 52.496-14.128 76.056-28.185h9.66l2.234-9.32 276.938-276.938 37.378 25.139 25.06 37.298-277.186 277.186-10.052 2.033c-1.365 2.185 2.288 7.414.973 9.62-14.093 23.611-25.138 48.134-28.179 76.05z" fill="#596c76"/><g fill="#7a8c98"><path d="m440.181 72.42-79.698 79.698-32.166-32.167 79.698-79.698 20.62 13.244z"/><path d="m317.711 130.558 32.166 32.166-186.634 186.634-22.699-10.519-9.467-21.647z"/><path d="m125.738 437.308-56.703-36.488-25.908-46.123c27.803-3.055 52.496-14.128 76.056-28.185l22.03 12.714 12.703 22.033c-14.092 23.61-25.137 48.132-28.178 76.049z"/></g><path d="m158.927 498.724c-7.691 7.71-20.525 7.693-28.218 0l-118.729-118.73c-7.792-7.792-7.792-20.427 0-28.218 7.792-7.801 20.427-7.801 28.228 0l118.719 118.719c7.802 7.802 7.802 20.437 0 28.229z" fill="#baafb9"/><path d="m130.143 469.94c-3.891 3.901-9.002 5.846-14.114 5.846-5.102 0-10.203-1.945-14.104-5.846l-89.945-89.946c-7.792-7.792-7.792-20.427 0-28.218 7.792-7.801 20.427-7.801 28.228 0l89.935 89.935c7.802 7.802 7.802 20.437 0 28.229z" fill="#d7d0d6"/><path d="m470.453 102.692-62.445-62.445 47.948-27.343c1.692-.965 3.82-.679 5.197.698l7.999 7.999 27.945 27.932c1.378 1.377 1.664 3.505.699 5.198z" fill="#baafb9"/><path d="m440.182 72.421-32.173-32.173 47.948-27.343c1.692-.965 3.82-.679 5.197.698l5.667 5.667c1.377 1.377 1.663 3.505.699 5.197z" fill="#d7d0d6"/><path d="m183.672 297.352c-9.044 9.044-23.723 9.044-32.767 0-2.44-2.44-4.221-5.296-5.339-8.337-3.048-8.224-1.266-17.826 5.339-24.431 6.611-6.611 16.214-8.393 24.438-5.346 3.041 1.117 5.89 2.906 8.33 5.346 9.043 9.044 9.05 23.717-.001 32.768z" fill="#fac600"/><path d="m169.996 283.676c-6.604 6.604-16.207 8.386-24.431 5.339-3.048-8.224-1.266-17.826 5.339-24.431 6.611-6.611 16.214-8.393 24.438-5.346 3.048 8.224 1.266 17.827-5.346 24.438z" fill="#fed402"/><path d="m241.584 239.44c-9.051 9.051-23.723 9.044-32.767 0-2.44-2.44-4.229-5.289-5.346-8.33-3.048-8.224-1.266-17.826 5.346-24.438 6.604-6.604 16.207-8.386 24.431-5.339 3.041 1.117 5.897 2.899 8.337 5.339 9.043 9.044 9.043 23.724-.001 32.768z" fill="#fac600"/><path d="m227.908 225.764c-6.611 6.611-16.214 8.393-24.438 5.346-3.048-8.224-1.266-17.826 5.346-24.438 6.604-6.604 16.207-8.386 24.431-5.339 3.048 8.224 1.266 17.827-5.339 24.431z" fill="#fed402"/><path d="m299.489 181.535c-9.044 9.044-23.723 9.044-32.767 0-2.44-2.44-4.229-5.289-5.346-8.33-3.041-8.231-1.259-17.833 5.346-24.438 6.611-6.611 16.214-8.393 24.438-5.346 3.041 1.117 5.89 2.906 8.33 5.346 9.043 9.044 9.05 23.717-.001 32.768z" fill="#fac600"/><ellipse cx="276.267" cy="158.313" fill="#fed402" rx="21.06" ry="13.5" transform="matrix(.707 -.707 .707 .707 -31.028 241.72)"/><path d="m381.895 99.127c-9.051 9.051-23.716 9.051-32.767 0-2.439-2.439-4.228-5.289-5.346-8.33-3.048-8.224-1.266-17.826 5.346-24.438 6.604-6.604 16.207-8.386 24.431-5.339 3.041 1.117 5.89 2.906 8.33 5.346 9.05 9.052 9.05 23.717.006 32.761z" fill="#fac600"/><path d="m368.219 85.452c-6.611 6.611-16.214 8.393-24.438 5.346-3.048-8.224-1.266-17.826 5.346-24.438 6.604-6.604 16.207-8.386 24.431-5.339 3.048 8.224 1.266 17.826-5.339 24.431z" fill="#fed402"/><path d="m362.802 240.65-123.904 123.904c-2.606 2.606-6.83 2.606-9.436 0l-20.878-20.878c-2.606-2.606-2.606-6.83 0-9.436l123.904-123.904c2.606-2.606 6.83-2.606 9.436 0l20.878 20.878c2.605 2.606 2.605 6.831 0 9.436z" fill="#baafb9"/><path d="m347.641 225.49-123.903 123.903c-2.606 2.606-6.83 2.606-9.436 0l-5.718-5.718c-2.606-2.606-2.606-6.83 0-9.436l123.904-123.904c2.606-2.606 6.83-2.606 9.436 0l5.718 5.718c2.605 2.607 2.605 6.831-.001 9.437z" fill="#d7d0d6"/><g><path d="m331.597 118.593h15v45.49h-15z" fill="#d7d0d6" transform="matrix(.707 -.707 .707 .707 -.622 281.175)"/><path d="m366.183 168.423c-1.464 1.464-3.38 2.192-5.303 2.192-1.916.007-3.84-.728-5.303-2.192l-5.699-5.699 10.607-10.607 5.699 5.699c2.926 2.928 2.933 7.673-.001 10.607z" fill="#baafb9"/></g><path d="m157.396 364.738-38.213-38.227c2.206-1.315 11.894-9.32 11.894-9.32l34.528 34.528c0 .001-6.894 10.813-8.209 13.019z" fill="#d7d0d6"/><path d="m184.188 391.53-17.635-17.649c-.014-.014-.028-.014-.042-.028l-12.594-12.594c1.315-2.206 9.327-11.901 9.327-11.901l30.264 30.278c-.001 0-8.005 9.688-9.32 11.894z" fill="#baafb9"/></g></svg>