<svg id="Capa_1" enable-background="new 0 0 512 512" height="512" viewBox="0 0 512 512" width="512" xmlns="http://www.w3.org/2000/svg"><g><path d="m363.779 0h-215.558c-19.397 0-35.121 15.724-35.121 35.12v441.758c0 19.397 15.724 35.121 35.121 35.121h215.558c19.397 0 35.121-15.724 35.121-35.121v-441.758c0-19.396-15.724-35.12-35.121-35.12z" fill="#695d67"/><path d="m146.323 476.879v-441.759c0-19.396 15.724-35.12 35.121-35.12h-33.223c-19.397 0-35.121 15.724-35.121 35.12v441.758c0 19.397 15.724 35.121 35.121 35.121h33.223c-19.397.001-35.121-15.723-35.121-35.12z" fill="#544e55"/><path d="m145.101 91.293v338.513c0 1.72 1.4 3.12 3.12 3.12h215.558c1.72 0 3.12-1.4 3.12-3.12v-338.513z" fill="#dfebfa"/><path d="m185.282 429.806v-338.513h-40.181v338.513c0 1.72 1.4 3.12 3.12 3.12h40.181c-1.72 0-3.12-1.4-3.12-3.12z" fill="#b1dbfc"/><circle cx="256" cy="471.263" fill="#544e55" r="16.035"/><path d="m363.779 53.255h-180.557v40.098h183.676v-36.979c0-1.72-1.4-3.119-3.119-3.119z" fill="#5cb3f8"/><path d="m185.283 53.255h-37.062c-1.72 0-3.12 1.399-3.12 3.119v36.979h40.182z" fill="#ff4756"/><g><path d="m281.867 34.232h-51.736c-4.267 0-7.726-3.459-7.726-7.726s3.459-7.726 7.726-7.726h51.736c4.267 0 7.726 3.459 7.726 7.726s-3.459 7.726-7.726 7.726z" fill="#544e55"/></g><g><g><path d="m253.966 309.102c-9.869 0-17.869-8-17.869-17.869v-10.253c0-19.478 11.341-36.95 28.892-44.513 10.68-4.602 17.294-15.099 16.852-26.743-.549-14.462-12.308-26.221-26.77-26.771-7.683-.291-14.938 2.47-20.448 7.775-5.515 5.31-8.552 12.448-8.552 20.1 0 9.869-8 17.869-17.869 17.869s-17.869-8-17.869-17.869c0-17.456 6.927-33.737 19.504-45.846 12.572-12.104 29.102-18.401 46.591-17.742 33.023 1.255 59.873 28.105 61.126 61.127 1.007 26.517-14.075 50.43-38.423 60.92-4.364 1.88-7.295 6.579-7.295 11.692v10.253c-.001 9.87-8.001 17.87-17.87 17.87z" fill="#5cb3f8"/></g></g><circle cx="253.966" cy="351.155" fill="#5cb3f8" r="17.869"/></g></svg>