<svg id="Capa_1" enable-background="new 0 0 512 512" height="512" viewBox="0 0 512 512" width="512" xmlns="http://www.w3.org/2000/svg"><g><g><path d="m482 451.962h-452c-16.569 0-30-13.431-30-30v-331.924c0-16.569 13.431-30 30-30h452c16.569 0 30 13.431 30 30v331.924c0 16.568-13.431 30-30 30z" fill="#f6e266"/></g><path d="m482 60.038h-3.75v328.173c0 16.568-13.431 30-30 30h-448.25v3.75c0 16.568 13.431 30 30 30h452c16.569 0 30-13.432 30-30v-331.923c0-16.568-13.431-30-30-30z" fill="#ecc32e"/><g><path d="m433.36 414.992h-1.848c-16.622 0-30.097-13.475-30.097-30.097v-154.945c0-16.622 13.475-30.097 30.097-30.097h1.848c16.622 0 30.097 13.475 30.097 30.097v154.945c0 16.622-13.474 30.097-30.097 30.097z" fill="#dae7ef"/></g><path d="m445.687 202.494c1.692 3.763 2.641 7.932 2.641 12.326v154.945c0 16.622-13.475 30.097-30.097 30.097h-1.848c-4.394 0-8.563-.949-12.326-2.641 4.71 10.474 15.227 17.771 27.456 17.771h1.848c16.622 0 30.097-13.475 30.097-30.097v-154.945c-.001-12.229-7.298-22.746-17.771-27.456z" fill="#c1d5e4"/><g><circle cx="195.234" cy="256" fill="#407093" r="153.059"/></g><path d="m283.118 130.68c17.475 24.872 27.739 55.177 27.739 87.884 0 84.532-68.527 153.059-153.059 153.059-32.706 0-63.011-10.265-87.884-27.739 27.69 39.412 73.494 65.175 125.32 65.175 84.532 0 153.059-68.527 153.059-153.059 0-51.826-25.763-97.629-65.175-125.32z" fill="#2b4d66"/><g><circle cx="195.234" cy="256" fill="#dae7ef" r="50.375"/></g><g><path d="m222.697 213.778c5.15 7.901 8.153 17.329 8.153 27.463 0 27.822-22.554 50.375-50.375 50.375-10.134 0-19.562-3.003-27.463-8.153 8.988 13.789 24.535 22.912 42.222 22.912 27.822 0 50.375-22.554 50.375-50.375 0-17.687-9.123-33.235-22.912-42.222z" fill="#c1d5e4"/></g><g><circle cx="195.234" cy="256" fill="#407093" r="10.629"/></g><g><circle cx="357.215" cy="390.868" fill="#dae7ef" r="18.432"/></g><path d="m363.949 373.724c.821 2.088 1.287 4.355 1.287 6.735 0 10.179-8.252 18.432-18.432 18.432-2.38 0-4.646-.466-6.735-1.287 2.691 6.844 9.344 11.697 17.144 11.697 10.18 0 18.432-8.252 18.432-18.432.001-7.8-4.851-14.453-11.696-17.145z" fill="#c1d5e4"/><g><path d="m432.436 375.398c-4.269 0-7.73-3.461-7.73-7.73v-120.49c0-4.27 3.461-7.73 7.73-7.73s7.73 3.46 7.73 7.73v120.49c.001 4.269-3.46 7.73-7.73 7.73z" fill="#407093"/></g><g><circle cx="432.436" cy="121.977" fill="#dae7ef" r="29.568"/></g><path d="m461.393 115.992c-1.968-9.52-8.309-17.017-16.492-20.828.943 2.031 1.676 4.197 2.148 6.485 3.305 15.992-6.98 31.635-22.972 34.941-6.472 1.338-12.886.448-18.449-2.143 5.647 12.167 19.088 19.319 32.792 16.487 15.993-3.306 26.278-18.95 22.973-34.942z" fill="#c1d5e4"/><g><path d="m269.629 291.788c-1.978 0-3.957-.755-5.466-2.264-3.019-3.02-3.019-7.913 0-10.933l157.918-157.917c3.019-3.018 7.913-3.018 10.932 0 3.019 3.02 3.019 7.913 0 10.933l-157.918 157.918c-1.51 1.508-3.488 2.263-5.466 2.263z" fill="#c1d5e4"/></g><g><path d="m435.025 140.451-32.893 32.893c-5.685 5.685-14.903 5.685-20.588 0l-.632-.632c-5.685-5.685-5.685-14.903 0-20.588l32.893-32.893c3.832-3.832 9.268-5.081 14.146-3.748 2.359.645 10.845 9.774 11.228 12.883.529 4.298-.855 8.786-4.154 12.085z" fill="#f6f9f9"/></g><g><path d="m315.751 259.725-13.769 13.769c-3.926 3.926-9.537 5.141-14.505 3.644-2.226-.67-9.817-8.359-10.462-10.718-1.333-4.878-.084-10.314 3.748-14.146l13.769-13.769c5.685-5.685 14.903-5.685 20.588 0l.632.632c5.684 5.686 5.684 14.903-.001 20.588z" fill="#f6f9f9"/></g><g fill="#dae7ef"><path d="m435.025 119.863-.632-.632c-1.854-1.854-4.085-3.092-6.445-3.736 1.333 4.878.095 10.312-3.736 14.143l-32.893 32.893c-3.832 3.832-9.265 5.069-14.143 3.736.645 2.36 1.883 4.591 3.736 6.445l.632.632c5.685 5.685 14.903 5.685 20.588 0l32.893-32.893c5.685-5.685 5.685-14.903 0-20.588z"/><path d="m315.751 239.137-.632-.632c-1.854-1.854-4.085-3.092-6.445-3.736 1.333 4.878.095 10.312-3.736 14.143l-13.769 13.769c-3.832 3.832-9.265 5.069-14.143 3.736.645 2.36 1.883 4.591 3.736 6.445l.632.632c5.685 5.685 14.903 5.685 20.588 0l13.769-13.769c5.685-5.685 5.685-14.902 0-20.588z"/></g></g></svg>