<svg id="Capa_1" enable-background="new 0 0 494.52 494.52" height="512" viewBox="0 0 494.52 494.52" width="512" xmlns="http://www.w3.org/2000/svg"><g><path d="m492.068 37.168-34.715-34.716c-2.856-2.856-7.345-3.266-10.671-.973l-63.35 43.667-284.507 284.507-.603 10.607h-10.004l-51.336 51.336 18.313 45.108 47.731 20.936 51.336-51.336 2.353-11.542 8.254.935 284.506-284.507-.001-.001 43.667-63.35c2.293-3.326 1.884-7.815-.973-10.671z" fill="#fedba6"/><path d="m463.006 8.106-5.653-5.654c-2.856-2.856-7.345-3.266-10.671-.973l-63.35 43.667.001.001-284.508 284.506-.603 10.607h-10.004l-51.336 51.336 5.953 25.325 31.029 11.656 346.45-346.45-.001-.001 43.667-63.351c2.292-3.324 1.883-7.813-.974-10.669z" fill="#ffefd2"/><path d="m449.375 111.189-86.812 86.812-66.036-66.037 86.804-86.804 36.975 36.974z" fill="#d8aa5e"/><path d="m420.313 82.127-86.812 86.812-36.974-36.975 86.804-86.804 6.64 6.639z" fill="#e9b665"/><path d="m110.39 473.72c0 5.33-2.03 10.65-6.09 14.71-8.12 8.12-21.29 8.12-29.41 0l-24.72-24.72-44.08-44.08c-8.12-8.12-8.12-21.29 0-29.41s21.29-8.12 29.41 0l44.27 44.27 24.53 24.53c4.06 4.06 6.09 9.38 6.09 14.7z" fill="#d8aa5e"/><path d="m85.67 449c0 5.33-2.03 10.65-6.09 14.71-8.12 8.12-21.29 8.12-29.41 0l-44.08-44.08c-8.12-8.12-8.12-21.29 0-29.41s21.29-8.12 29.41 0l44.08 44.07c.07.07.13.13.19.2 3.93 4.04 5.9 9.28 5.9 14.51z" fill="#e9b665"/><g fill="#596c76"><path d="m388.296 124.422-18.197-18.197c-1.595-1.595-1.595-4.181 0-5.776l11.901-11.902c1.595-1.595 4.181-1.595 5.776 0l18.197 18.197c1.595 1.595 1.595 4.181 0 5.776l-11.901 11.901c-1.595 1.596-4.181 1.596-5.776.001z"/><circle cx="98.222" cy="396.299" r="9.202"/><circle cx="156.615" cy="337.906" r="9.202"/><circle cx="191.316" cy="303.204" r="9.202"/><circle cx="226.017" cy="268.503" r="9.202"/><circle cx="260.719" cy="233.802" r="9.202"/><circle cx="295.42" cy="199.1" r="9.202"/></g><path d="m104.512 327.297h15v52.3h-15z" fill="#e9b665" transform="matrix(.707 -.707 .707 .707 -217.118 182.727)"/><path d="m137.534 365.919h15v41.1h-15z" fill="#d8aa5e" transform="matrix(.707 -.707 .707 .707 -230.796 215.749)"/></g></svg>