<svg id="Capa_1" enable-background="new 0 0 512 512" height="512" viewBox="0 0 512 512" width="512" xmlns="http://www.w3.org/2000/svg"><g><g><path d="m136.916 282.724v-177.39c0-16.755 4.052-33.261 11.811-48.111l28.313-54.191c2.063-3.948 7.672-4.065 9.897-.205l24.05 41.726c14.319 24.842 17.734 54.498 9.437 81.945l-47.225 156.226z" fill="#86f1a7"/></g><g><path d="m210.986 44.553-24.05-41.726c-2.225-3.86-7.834-3.743-9.897.205l-11.958 22.888 10.739 18.633c14.319 24.842 17.734 54.498 9.437 81.945l-47.225 156.226h35.165l47.225-156.226c8.298-27.448 4.883-57.103-9.436-81.945z" fill="#78d090"/></g><g><path d="m309.778 110.326-10.941 58.34c-2.683 14.304-10.133 27.277-21.137 36.803l-65.401 56.617-57.078 4.817 55.248-99.527c12.163-21.911 31.472-38.99 54.704-48.386l36.938-14.939c4.138-1.673 8.489 1.889 7.667 6.275z" fill="#86f1a7"/></g><g><path d="m302.111 104.051-25.27 10.22-7.296 38.907c-2.683 14.304-10.133 27.277-21.136 36.803l-60.857 52.683c-2.953 2.557-6.641 4.111-10.534 4.439l-11.337.957-10.46 18.844 57.078-4.817 65.401-56.617c11.003-9.525 18.454-22.498 21.137-36.802l10.941-58.34c.822-4.388-3.529-7.95-7.667-6.277z" fill="#78d090"/></g><g><path d="m81.779 58.326 72.455 46.036c13.218 8.399 22.753 21.465 26.741 36.556.181.684-1.727 30.867-1.727 30.867l14.614 25.506 7.598 33.332-.867 16.097 5.565 4.514 12.192 53.488-65.804 9.365-57.965-124.169c-7.068-15.14-11.56-31.353-13.291-47.971l-8.154-78.27c-.49-4.696 4.658-7.883 8.643-5.351z" fill="#86f1a7"/></g><g><path d="m75.932 90.525 50.64 32.175c13.818 8.779 23.611 22.659 27.249 38.621l33.688 147.789 30.842-4.389-36.867-161.738c-3.638-15.962-13.431-29.841-27.249-38.621l-72.456-46.036c-3.985-2.532-9.133.655-8.644 5.351z" fill="#78d090"/></g><g><path d="m266.546 270.602-23.143-24.089c-2.828-2.944-6.734-4.608-10.816-4.608h-109.31c-4.082 0-7.988 1.664-10.816 4.608l-23.143 24.089c-11.183 11.64-17.428 27.155-17.428 43.296v126.109c0 16.141 6.245 31.657 17.428 43.296l23.143 24.089c2.828 2.944 6.734 4.608 10.816 4.608h109.31c4.082 0 7.988-1.664 10.816-4.608l23.143-24.089c11.183-11.64 17.428-27.155 17.428-43.296v-126.109c0-16.141-6.245-31.656-17.428-43.296z" fill="#407093"/></g><g><path d="m266.546 270.602-23.143-24.089c-2.828-2.944-6.734-4.608-10.816-4.608h-.307c5.276 9.317 8.124 19.908 8.124 30.789v126.109c0 16.141-6.245 31.656-17.428 43.296l-23.143 24.089c-2.828 2.944-6.734 4.608-10.816 4.608h-109.003c2.55 4.504 5.66 8.714 9.304 12.508l23.143 24.089c2.828 2.944 6.734 4.608 10.816 4.608h109.31c4.082 0 7.988-1.664 10.816-4.608l23.143-24.089c11.183-11.64 17.428-27.155 17.428-43.296v-126.11c0-16.141-6.245-31.656-17.428-43.296z" fill="#2b4d66"/></g><g><g><path d="m204.38 395.67-173.387-63.21c-2.939-1.072-6.214.233-7.613 3.031-1.333 2.668-.561 5.909 1.833 7.689l179.167 133.227z" fill="#dae7ef"/></g><g><path d="m30.993 332.46c-2.939-1.071-6.214.233-7.613 3.031-1.333 2.668-.561 5.909 1.833 7.689l179.167 133.227v-30.197l-133.338-99.15z" fill="#c1d5e4"/></g><g><g><path d="m423.726 493.51h-110.361c-9.443 0-17.098-7.655-17.098-17.098s7.655-17.098 17.098-17.098h110.361c17.284 0 31.347-14.062 31.347-31.347 0-17.284-14.062-31.347-31.347-31.347-11.208 0-22.418 2.679-32.414 7.747l-36.533 18.521c-8.423 4.268-18.712.904-22.983-7.52-4.27-8.423-.903-18.713 7.52-22.983l36.533-18.52c14.765-7.485 31.322-11.442 47.877-11.442 36.14 0 65.543 29.403 65.543 65.543s-29.402 65.544-65.543 65.544z" fill="#dae7ef"/></g></g><g><g><path d="m472.502 384.244c2.878 7.371 4.475 15.378 4.475 23.756 0 36.14-29.403 65.543-65.543 65.543h-110.361c-1.543 0-3.03-.223-4.451-.606-.232 1.122-.355 2.284-.355 3.475 0 9.443 7.655 17.098 17.098 17.098h110.361c36.14 0 65.543-29.403 65.543-65.543.001-16.787-6.35-32.115-16.767-43.723z" fill="#c1d5e4"/></g></g><g><path d="m304.609 512h-58.532c-34.725 0-62.875-28.15-62.875-62.875v-70.013c0-5.523 4.477-10 10-10h164.282c5.523 0 10 4.477 10 10v70.013c0 8.612-1.731 16.819-4.865 24.292 0 0-6.31 5.314-8.746 8.848-2.161 3.137-4.734 11.247-4.734 11.247-11.382 11.421-27.131 18.488-44.53 18.488z" fill="#dae7ef"/></g><path d="m357.49 369.112h-32.732v43.738c0 34.706-28.135 62.841-62.841 62.841h-58.599c-5.195 0-10.239-.643-15.067-1.831 9.597 22.425 31.858 38.14 57.794 38.14h58.599c34.706 0 62.841-28.135 62.841-62.841v-70.053c-.001-5.52-4.475-9.994-9.995-9.994z" fill="#c1d5e4"/><g><path d="m294.557 423.46c-.008 0-.016 0-.023 0-1.171.002-2.096-.923-2.094-2.094 0-.008 0-.016 0-.023 0-9.442-7.654-17.096-17.096-17.096s-17.096 7.654-17.096 17.096v.023c.002 1.171-.923 2.096-2.094 2.094-.008 0-.016 0-.023 0-9.442 0-17.096 7.654-17.096 17.096s7.654 17.096 17.096 17.096h.023c1.171-.002 2.096.923 2.094 2.094v.024c0 9.442 7.654 17.096 17.096 17.096s17.096-7.654 17.096-17.096c0-.008 0-.016 0-.024-.002-1.171.923-2.096 2.094-2.094h.023c9.442 0 17.096-7.654 17.096-17.096s-7.654-17.096-17.096-17.096z" fill="#dd5790"/></g><g><circle cx="275.344" cy="440.556" fill="#f6f9f9" r="8.14"/></g></g></g></svg>