<svg id="Capa_1" enable-background="new 0 0 497 497" height="512" viewBox="0 0 497 497" width="512" xmlns="http://www.w3.org/2000/svg"><g><path d="m0 281.457h497v55.087h-497z" fill="#baafb9"/><path d="m0 281.457h465.4v58.93h-465.4z" fill="#d7d0d6"/><path d="m497 169.86v125.98h-497v-125.98c0-11.55 9.36-20.91 20.91-20.91h455.18c11.55 0 20.91 9.36 20.91 20.91z" fill="#a44f3e"/><path d="m465.4 169.86v125.98h-465.4v-125.98c0-11.548 9.362-20.91 20.91-20.91h423.58c11.548 0 20.91 9.362 20.91 20.91z" fill="#bb5d4c"/><path d="m435.97 150.18v90.72c0 11.32-9.17 20.49-20.49 20.49h-333.96c-11.32 0-20.49-9.17-20.49-20.49v-90.72c0-11.32 9.17-20.49 20.49-20.49h333.96c11.32 0 20.49 9.17 20.49 20.49z" fill="#baafb9"/><path d="m398.97 150.18v90.72c0 11.32-9.17 20.49-20.49 20.49h-296.96c-11.32 0-20.49-9.17-20.49-20.49v-90.72c0-11.32 9.17-20.49 20.49-20.49h296.96c11.32 0 20.49 9.17 20.49 20.49z" fill="#d7d0d6"/><g fill="#596c76"><path d="m0 327.23h44.01v40.08h-21.06c-12.67 0-22.95-10.28-22.95-22.95z"/><path d="m59.01 327.23h41.28v40.08h-41.28z"/><path d="m115.29 327.23h41.29v40.08h-41.29z"/><path d="m171.58 327.23h41.28v40.08h-41.28z"/><path d="m227.86 327.23h41.28v40.08h-41.28z"/><path d="m284.14 327.23h41.28v40.08h-41.28z"/><path d="m340.42 327.23h41.29v40.08h-41.29z"/><path d="m396.71 327.23h41.28v40.08h-41.28z"/><path d="m497 327.23v17.13c0 12.67-10.28 22.95-22.95 22.95h-21.06v-40.08z"/></g><path d="m465.4 327.23v17.13c0 12.67-10.28 22.95-22.95 22.95h-419.5c-12.67 0-22.95-10.28-22.95-22.95v-17.13z" fill="#7a8c98"/><path d="m362.219 216.236h-227.438c-11.15 0-20.189-9.039-20.189-20.189v-1.012c0-11.15 9.039-20.189 20.189-20.189h227.439c11.15 0 20.189 9.039 20.189 20.189v1.012c0 11.15-9.039 20.189-20.19 20.189z" fill="#fed402"/><g fill="#baafb9"><path d="m44.01 327.23h15v40.08h-15z"/><path d="m100.29 327.23h15v40.08h-15z"/><path d="m156.58 327.23h15v40.08h-15z"/><path d="m212.86 327.23h15v40.08h-15z"/><path d="m269.14 327.23h15v40.08h-15z"/><path d="m325.42 327.23h15v40.08h-15z"/><path d="m381.71 327.23h15v40.08h-15z"/><path d="m437.99 327.23h15v40.08h-15z"/></g><g><path d="m362.22 223.736h-227.44c-15.268 0-27.689-12.421-27.689-27.689v-1.012c0-15.268 12.422-27.689 27.689-27.689h227.44c15.268 0 27.689 12.421 27.689 27.689v1.012c0 15.267-12.422 27.689-27.689 27.689zm-227.44-41.391c-6.997 0-12.689 5.692-12.689 12.689v1.012c0 6.997 5.692 12.689 12.689 12.689h227.44c6.997 0 12.689-5.692 12.689-12.689v-1.012c0-6.997-5.692-12.689-12.689-12.689z" fill="#baafb9"/></g><g><path d="m465.398 243.374c-4.143 0-7.5-3.358-7.5-7.5v-27.707c0-4.142 3.357-7.5 7.5-7.5s7.5 3.358 7.5 7.5v27.707c0 4.142-3.357 7.5-7.5 7.5z" fill="#d7d0d6"/></g><g><path d="m31.602 243.374c-4.143 0-7.5-3.358-7.5-7.5v-27.707c0-4.142 3.357-7.5 7.5-7.5s7.5 3.358 7.5 7.5v27.707c0 4.142-3.358 7.5-7.5 7.5z" fill="#d7d0d6"/></g></g></svg>