<svg id="Capa_1" enable-background="new 0 0 511.999 511.999" height="512" viewBox="0 0 511.999 511.999" width="512" xmlns="http://www.w3.org/2000/svg"><g><g><path d="m0 115.866v296.57c0 18.894 15.458 34.353 34.353 34.353h443.293c18.894 0 34.353-15.458 34.353-34.353 0-10.596 0-285.938 0-296.57 0-18.894-15.459-34.353-34.353-34.353h-443.293c-18.895 0-34.353 15.459-34.353 34.353z" fill="#695d67"/><path d="m35.555 412.436v-296.57c0-18.894 15.458-34.353 34.353-34.353h-35.555c-18.894 0-34.353 15.459-34.353 34.353v296.57c0 18.894 15.458 34.353 34.353 34.353h35.555c-18.895-.001-34.353-15.459-34.353-34.353z" fill="#544e55"/><path d="m33.494 115.866v296.569c0 .393.465.859.858.859h413.148c.393 0 .859-.466.859-.859v-296.569c0-.394-.465-.859-.859-.859-5.879 0-405.904 0-413.148 0-.392 0-.858.465-.858.859z" fill="#dfebfa"/><path d="m69.049 412.435v-296.569c0-.394.465-.859.858-.859-21.034 0-34.29 0-35.555 0-.393 0-.858.466-.858.859v296.569c0 .393.465.859.858.859h35.555c-.392 0-.858-.466-.858-.859z" fill="#b1dbfc"/><g><path d="m476.782 278.53c-4.267 0-7.726-3.459-7.726-7.726v-13.306c0-4.267 3.459-7.726 7.726-7.726s7.726 3.459 7.726 7.726v13.306c0 4.267-3.459 7.726-7.726 7.726z" fill="#544e55"/></g></g><path d="m222.661 234.964c-15.351 0-27.91-12.56-27.91-27.91v-59.522h-93.712c-15.351 0-27.91 12.56-27.91 27.91v115.993c0 15.351 12.56 27.91 27.91 27.91 3.572 0 6.829 2.038 8.39 5.251 7.355 15.14 19.857 27.721 36.03 35.006l17.43 7.852c4.369 1.968 8.625-2.946 6.054-6.989l-14.458-22.73c-2.361-3.712-4.305-7.636-5.82-11.703-1.205-3.235 1.135-6.688 4.588-6.688h108.001c15.351 0 27.91-12.56 27.91-27.91v-56.471h-66.503z" fill="#ffe181"/><path d="m154.484 337.735c-1.936-3.043-3.574-6.234-4.943-9.523-.661-1.19-1.302-2.391-1.897-3.615-1.561-3.213-4.818-5.251-8.39-5.251-15.351 0-27.91-12.56-27.91-27.91v-115.994c0-15.351 12.56-27.91 27.91-27.91h-38.215c-15.351 0-27.91 12.56-27.91 27.91v115.993c0 15.351 12.56 27.91 27.91 27.91 3.572 0 6.829 2.038 8.391 5.251 7.355 15.14 19.857 27.721 36.03 35.006l17.43 7.852c4.369 1.968 8.625-2.946 6.054-6.989z" fill="#fec458"/><g><g><path d="m191.66 204.266h-74.65c-4.267 0-7.726-3.459-7.726-7.726s3.459-7.726 7.726-7.726h74.65c4.267 0 7.726 3.459 7.726 7.726s-3.459 7.726-7.726 7.726z" fill="#fec458"/></g></g><g><g><path d="m207.653 243.091h-90.643c-4.267 0-7.726-3.459-7.726-7.726 0-4.268 3.459-7.726 7.726-7.726h90.643c4.267 0 7.726 3.459 7.726 7.726s-3.459 7.726-7.726 7.726z" fill="#fec458"/></g></g><g><g><path d="m250.848 281.916h-133.838c-4.267 0-7.726-3.459-7.726-7.726 0-4.268 3.459-7.726 7.726-7.726h133.839c4.267 0 7.726 3.459 7.726 7.726s-3.459 7.726-7.727 7.726z" fill="#fec458"/></g></g><path d="m380.815 65.211h-160.214c-15.351 0-27.91 12.56-27.91 27.91v115.993c0 15.351 12.56 27.91 27.91 27.91h108.001c3.452 0 5.793 3.453 4.588 6.688-1.515 4.067-3.459 7.991-5.82 11.703l-14.458 22.73c-2.571 4.043 1.685 8.957 6.054 6.989l17.43-7.852c16.173-7.285 28.675-19.867 36.03-35.006 1.561-3.213 4.818-5.251 8.39-5.251 15.351 0 27.91-12.56 27.91-27.91v-115.994c0-15.351-12.56-27.91-27.911-27.91z" fill="#5cb3f8"/><g><path d="m230.906 209.114v-115.993c0-15.351 12.56-27.91 27.91-27.91h-38.215c-15.351 0-27.91 12.56-27.91 27.91v115.993c0 15.351 12.56 27.91 27.91 27.91h38.215c-15.351 0-27.91-12.559-27.91-27.91z" fill="#0290f4"/></g><g><path d="m300.708 179.761c-4.267 0-7.726-3.459-7.726-7.726v-5.218c0-9.811 5.98-18.791 14.88-22.347 7.753-3.099 12.614-10.801 12.095-19.164-.59-9.505-8.498-17.412-18.004-18.003-5.391-.34-10.531 1.508-14.45 5.19-3.922 3.686-6.082 8.679-6.082 14.058 0 4.268-3.459 7.726-7.726 7.726s-7.726-3.459-7.726-7.726c0-9.548 3.992-18.777 10.952-25.318 7.059-6.635 16.294-9.961 25.99-9.353 17.428 1.081 31.387 15.04 32.468 32.468.934 15.037-7.82 28.89-21.783 34.471-3.088 1.234-5.161 4.448-5.161 7.998v5.218c-.001 4.268-3.46 7.726-7.727 7.726z" fill="#dfebfa"/></g><g><path d="m300.708 205.339c-4.267 0-7.726-3.459-7.726-7.726v-2.031c0-4.268 3.459-7.726 7.726-7.726s7.726 3.459 7.726 7.726v2.031c0 4.267-3.459 7.726-7.726 7.726z" fill="#dfebfa"/></g></g></svg>