<svg id="Capa_1" enable-background="new 0 0 497 497" height="512" viewBox="0 0 497 497" width="512" xmlns="http://www.w3.org/2000/svg"><g><path d="m177.477 462.75-19.349 10.525-27.201-10.525-65.966-450.086h46.54z" fill="#d8aa5e"/><path d="m155.477 462.75-10.803 8.473-13.747-8.473-10.853-73.624 6.754-14.556-11.121-15.071-45.72-310.159 10.66-7.6 13.88 7.6z" fill="#e9b665"/><path d="m135.544 153h-55.997c-3.075 0-5.686-2.251-6.14-5.292l-8.377-56.134c-.56-3.752 2.346-7.124 6.14-7.124h55.997c3.075 0 5.686 2.251 6.14 5.292l8.377 56.134c.56 3.752-2.346 7.124-6.14 7.124z" fill="#fedba6"/><path d="m111.544 153h-31.997c-3.075 0-5.686-2.251-6.14-5.292l-8.377-56.134c-.56-3.752 2.346-7.124 6.14-7.124h31.997c3.075 0 5.686 2.251 6.14 5.292l8.377 56.134c.56 3.752-2.346 7.124-6.14 7.124z" fill="#ffefd2"/><path d="m166.697 389.66-21.13-.18-25.47-.22-4.39-29.78h46.55z" fill="#fedba6"/><path d="m144.674 389.472-24.577-.212-4.39-29.78h24.545z" fill="#ffefd2"/><path d="m470.377 99.93-185.31 362.82-57.73 17.125-49.86-17.125 204.455-338.334c3.288-5.441-.63-12.386-6.987-12.386h-43.708c-71.27 0-121.67-62.69-192.38-62.69h-96.91c-10.03 0-18.16-8.13-18.16-18.15v-13.04c0-10.02 8.13-18.15 18.16-18.15h96.91c70.72 0 121.1 62.69 192.38 62.69h116.34c19.13 0 31.5 20.21 22.8 37.24z" fill="#a44f3e"/><path d="m423.887 99.93-194.622 379.945-51.788-17.125 204.455-338.334c3.288-5.441-.63-12.386-6.987-12.386h-43.708c-71.27 0-121.67-62.69-192.38-62.69h-96.91c-10.03 0-18.16-8.13-18.16-18.15v-13.04c0-10.02 8.13-18.15 18.16-18.15h50.42c70.72 0 121.1 62.69 192.38 62.69h116.34c19.13 0 31.5 20.21 22.8 37.24z" fill="#bb5d4c"/><path d="m324.077 479.87c0 9.46-7.67 17.13-17.12 17.13h-186.47c-10.44-.98-16.15-6.69-17.13-17.13 0-9.45 7.67-17.12 17.13-17.12h186.47c10.43.99 16.13 6.69 17.12 17.12z" fill="#fedba6"/><path d="m287.837 479.87c0 9.46-7.67 17.13-17.12 17.13h-150.23c-10.44-.98-16.15-6.69-17.13-17.13 0-9.45 7.67-17.12 17.13-17.12h150.23c10.42.99 16.13 6.69 17.12 17.12z" fill="#ffefd2"/><g><path d="m226.546 434.402c-3.706 0-6.929-2.746-7.426-6.52l-49.081-372.037c-.542-4.106 2.348-7.875 6.455-8.417 4.11-.543 7.874 2.348 8.417 6.455l49.081 372.037c.542 4.106-2.348 7.875-6.455 8.417-.334.044-.664.065-.991.065z" fill="#ffefd2"/></g><g><path d="m262.278 382.073c-3.706 0-6.928-2.746-7.426-6.52l-39.486-299.313c-.542-4.106 2.348-7.875 6.455-8.417 4.107-.545 7.875 2.348 8.417 6.455l39.486 299.313c.542 4.106-2.348 7.875-6.455 8.417-.333.043-.664.065-.991.065z" fill="#ffefd2"/></g><g><path d="m296.818 320.707c-3.707 0-6.928-2.746-7.426-6.52l-28.331-214.75c-.542-4.106 2.348-7.875 6.455-8.417 4.106-.539 7.875 2.348 8.417 6.455l28.331 214.75c.542 4.106-2.348 7.875-6.455 8.417-.333.043-.664.065-.991.065z" fill="#ffefd2"/></g><g><path d="m330.918 256.001c-3.706 0-6.928-2.747-7.426-6.52l-18.153-137.601c-.542-4.106 2.348-7.875 6.455-8.417 4.108-.542 7.875 2.348 8.417 6.455l18.153 137.601c.542 4.106-2.348 7.875-6.455 8.417-.334.043-.664.065-.991.065z" fill="#ffefd2"/></g></g></svg>