<svg id="Capa_1" enable-background="new 0 0 512 512" height="512" viewBox="0 0 512 512" width="512" xmlns="http://www.w3.org/2000/svg"><g><path d="m461.411 61.398c0-3.589-1.601-6.941-4.393-9.197-2.791-2.255-6.406-3.118-9.911-2.363l-63.649 13.657c-5.414 1.161-9.343 6.023-9.343 11.561v71.055c0 4.259 3.452 7.711 7.711 7.711s7.711-3.452 7.711-7.711v-37.666l56.452-12.113v34.357c0 4.259 3.452 7.711 7.711 7.711s7.711-3.452 7.711-7.711zm-71.874 31.275v-14.709l56.452-12.113v14.709z" fill="#407093"/><g><path d="m274.4 512h-54.365c-5.523 0-10-4.477-10-10v-36.055l2.527-8.132-2.527-7.29v-325.693h74.365v325.693l-3.119 7.711 3.119 7.711v36.055c0 5.523-4.477 10-10 10z" fill="#407093"/></g><g><path d="m255.122 124.83v347.611c0 5.678-4.603 10.281-10.281 10.281h-34.805v19.278c0 5.523 4.477 10 10 10h54.364c5.523 0 10-4.477 10-10v-36.055l-3.119-7.711 3.119-7.711v-325.693z" fill="#2b4d66"/></g><g><path d="m323.432 368.029h-152.429c-5.523 0-10-4.477-10-10v-152.428c0-5.523 4.477-10 10-10h152.428c5.523 0 10 4.477 10 10v152.428c.001 5.523-4.476 10-9.999 10z" fill="#dd5790"/></g><g><path d="m323.432 195.601h-19.16v132.986c0 5.678-4.603 10.281-10.281 10.281h-132.988v19.16c0 5.523 4.477 10 10 10h152.428c5.523 0 10-4.477 10-10v-152.427c.001-5.523-4.476-10-9.999-10z" fill="#da387d"/></g><g><path d="m278.101 156.25h-61.767c-19.882 0-36-16.118-36-36v-84.25c0-19.882 16.118-36 36-36h61.767c19.882 0 36 16.118 36 36v84.25c0 19.883-16.118 36-36 36z" fill="#dae7ef"/></g><path d="m285.723.816c.53 2.458.816 5.006.816 7.622v84.25c0 19.882-16.118 36-36 36h-61.767c-2.616 0-5.164-.286-7.622-.816 3.498 16.22 17.918 28.378 35.184 28.378h61.767c19.882 0 36-16.118 36-36v-84.25c0-17.266-12.158-31.687-28.378-35.184z" fill="#c1d5e4"/><g><path d="m210.035 450.523h74.365v15.422h-74.365z" fill="#c1d5e4"/></g><g><path d="m224.341 195.601h-53.338c-5.523 0-10 4.477-10 10v152.428c0 5.523 4.477 10 10 10h53.338z" fill="#df75a5"/></g><g><path d="m161.003 338.868v19.16c0 5.523 4.477 10 10 10h53.338v-29.16z" fill="#dd5790"/></g><g><g><circle cx="213.619" cy="46.213" fill="#407093" r="9.986"/></g><g><circle cx="247.218" cy="46.213" fill="#407093" r="9.986"/></g><g><circle cx="280.816" cy="46.213" fill="#407093" r="9.986"/></g><g><circle cx="213.619" cy="104.127" fill="#407093" r="9.986"/></g><g><circle cx="247.218" cy="104.127" fill="#407093" r="9.986"/></g><g><circle cx="280.816" cy="104.127" fill="#407093" r="9.986"/></g><g><circle cx="230.419" cy="73.439" fill="#407093" r="9.986"/></g><g><circle cx="264.017" cy="73.439" fill="#407093" r="9.986"/></g></g><g><ellipse cx="373.332" cy="154.042" fill="#407093" rx="25.435" ry="17.348" transform="matrix(.866 -.5 .5 .866 -27.004 207.304)"/></g><g><ellipse cx="445.098" cy="138.62" fill="#407093" rx="25.435" ry="17.348" transform="matrix(.866 -.5 .5 .866 -9.678 241.121)"/></g><g><path d="m395.359 141.324c-1.072-1.857-2.613-3.33-4.464-4.45-.551 7.149-6.118 15.098-14.956 20.2-9.442 5.451-19.817 6.028-26.237 2.144-.208 2.692.292 5.271 1.602 7.541 4.791 8.297 18.536 9.33 30.701 2.306 12.166-7.023 18.144-19.443 13.354-27.741z" fill="#2b4d66"/></g><g><path d="m467.125 125.902c-1.072-1.857-2.613-3.33-4.464-4.45-.551 7.149-6.118 15.098-14.956 20.2-9.442 5.451-19.817 6.028-26.237 2.144-.208 2.692.292 5.271 1.602 7.541 4.791 8.297 18.536 9.33 30.701 2.306 12.166-7.023 18.145-19.443 13.354-27.741z" fill="#2b4d66"/></g><g><path d="m75.504 327.477c-4.259 0-7.711-3.452-7.711-7.711v-74.38c0-3.228 2.01-6.114 5.038-7.233 3.027-1.117 6.431-.234 8.531 2.218l13.572 15.853c1.763 2.059 4.074 3.532 6.684 4.26l3.023.844c12.503 3.489 21.235 14.992 21.235 27.973 0 4.259-3.452 7.711-7.711 7.711s-7.711-3.452-7.711-7.711c0-6.088-4.096-11.482-9.959-13.119l-3.022-.843c-5.564-1.552-10.494-4.694-14.253-9.085l-.004-.004v53.516c-.001 4.259-3.453 7.711-7.712 7.711z" fill="#407093"/></g><g><ellipse cx="66.902" cy="327.695" fill="#407093" rx="25.435" ry="17.348" transform="matrix(.866 -.5 .5 .866 -154.885 77.354)"/></g><g><path d="m88.929 314.978c-1.072-1.857-2.613-3.33-4.464-4.45-.551 7.149-6.118 15.098-14.956 20.2-9.442 5.451-19.817 6.028-26.237 2.144-.208 2.692.292 5.272 1.602 7.541 4.791 8.297 18.536 9.33 30.701 2.306 12.166-7.023 18.145-19.444 13.354-27.741z" fill="#2b4d66"/></g></g></svg>