<svg id="Capa_1" enable-background="new 0 0 511.999 511.999" height="512" viewBox="0 0 511.999 511.999" width="512" xmlns="http://www.w3.org/2000/svg"><g><path d="m446.058 62.413c-7.171 0-378.037 0-380.116 0-19.799 0-35.907 16.108-35.907 35.908v269.336c0 17.512 12.977 33.718 30.246 36.485h391.438c17.269-2.767 30.246-18.973 30.246-36.485 0-8.961 0-261.23 0-269.336 0-19.799-16.108-35.908-35.907-35.908z" fill="#695d67"/><path d="m72.014 367.657v-269.336c0-19.799 16.108-35.908 35.907-35.908-25.405 0-41.551 0-41.98 0-19.799 0-35.907 16.108-35.907 35.908v269.336c0 17.512 12.977 33.718 30.246 36.485h41.98c-17.268-2.768-30.246-18.974-30.246-36.485z" fill="#544e55"/><path d="m62.292 130.576v234.126c0 3.558 2.884 6.443 6.442 6.443h374.531c3.557 0 6.442-2.885 6.442-6.443 0-6.084 0-227.085 0-234.126z" fill="#dfebfa"/><path d="m104.272 364.702v-234.126h-41.98v234.126c0 3.558 2.884 6.443 6.442 6.443h41.98c-3.558 0-6.442-2.884-6.442-6.443z" fill="#b1dbfc"/><path d="m506.004 403.111h-500.009c-3.311 0-5.995 2.711-5.995 6.054v20.823c0 15.45 12.519 28.092 27.82 28.092h456.359c15.301 0 27.82-12.642 27.82-28.092v-20.823c0-3.343-2.684-6.054-5.995-6.054z" fill="#dfebfa"/><path d="m506.004 403.111h-500.009c-3.311 0-5.995 2.711-5.995 6.054v20.823c0 15.45 12.519 28.092 27.82 28.092h456.359c15.301 0 27.82-12.642 27.82-28.092v-20.823c0-3.343-2.684-6.054-5.995-6.054z" fill="#dfebfa"/><path d="m86.503 429.988v-20.823c0-3.343 2.684-6.054 5.995-6.054h-86.503c-3.311 0-5.995 2.711-5.995 6.054v20.823c0 15.45 12.519 28.092 27.82 28.092h86.503c-15.301 0-27.82-12.641-27.82-28.092z" fill="#b1dbfc"/><path d="m181.319 403.111v13.97c0 6.866 5.563 12.484 12.363 12.484h124.635c6.8 0 12.363-5.618 12.363-12.484v-13.97" fill="#b1dbfc"/><path d="m248.796 417.082v-13.97h-67.477v13.97c0 6.866 5.563 12.484 12.363 12.484h67.477c-6.8 0-12.363-5.618-12.363-12.484z" fill="#8bcaff"/><path d="m443.265 94.429c-16.637 0-327.971 0-341.156 0v38.207h347.598v-31.764c0-3.558-2.884-6.443-6.442-6.443z" fill="#5cb3f8"/><path d="m68.734 94.429c-3.558 0-6.442 2.884-6.442 6.443v31.765h41.878v-38.208z" fill="#ff4756"/><path d="m296.897 186.176-38.097-11.751c-1.012-.039-2.025-.077-3.046-.077-42.816 0-77.526 34.709-77.526 77.525 0 24.718 11.582 46.717 29.6 60.913v-20.75c0-13.851 10.793-25.183 23.984-25.183h47.884c13.191 0 23.984 11.332 23.984 25.183v20.75c18.018-14.196 29.6-36.195 29.6-60.913-.001-27.697-14.536-51.986-36.383-65.697z" fill="#5cb3f8"/><g><g><g><path d="m212.482 251.873c0-35.337 23.651-65.13 55.98-74.468l-9.661-2.98c-1.012-.039-2.025-.077-3.046-.077-42.816 0-77.526 34.709-77.526 77.525 0 24.718 11.582 46.717 29.6 60.913v-20.75c0-7.284 2.988-13.869 7.737-18.479-2.004-6.88-3.084-14.154-3.084-21.684z" fill="#0290f4"/></g></g></g><circle cx="255.754" cy="236.368" fill="#ffcebe" r="28.345"/><path d="m255.754 236.368c0-10.49 5.702-19.642 14.172-24.544-4.17-2.413-9.008-3.801-14.172-3.801-15.655 0-28.345 12.691-28.345 28.345 0 15.655 12.691 28.345 28.345 28.345 5.165 0 10.002-1.388 14.172-3.801-8.469-4.902-14.172-14.055-14.172-24.544z" fill="#ffb1a0"/><path d="m280.515 264.713h-25.658s-47.989 13.715-48.669 24.805c0 0 19.367 34.765 30.901 37.618 5.978 1.479 12.23 2.263 18.665 2.263 18.852 0 36.128-6.734 49.566-17.922v-21.96c0-13.642-11.162-24.804-24.805-24.804z" fill="#ff656f"/><path d="m237.093 288.487c0-11.199 7.524-20.72 17.764-23.774h-23.865c-13.643 0-24.804 11.162-24.804 24.804v21.96c8.85 7.368 19.372 12.787 30.905 15.64z" fill="#ff4756"/><path d="m401.245 53.919h-123.328c-11.817 0-21.485 9.668-21.485 21.485v89.287c0 11.817 9.668 21.485 21.485 21.485h83.136c2.658 0 4.459 2.658 3.531 5.148-1.167 3.13-2.662 6.151-4.48 9.008l-11.13 17.497c-1.979 3.112 1.297 6.895 4.66 5.38l13.417-6.044c12.449-5.608 22.073-15.293 27.735-26.947 1.202-2.474 3.709-4.042 6.459-4.042 11.817 0 21.485-9.668 21.485-21.485v-89.287c-.001-11.817-9.668-21.485-21.485-21.485z" fill="#ffe181"/><g><path d="m290.428 164.691v-89.287c0-11.817 9.668-21.485 21.485-21.485h-33.996c-11.817 0-21.485 9.668-21.485 21.485v89.287c0 11.817 9.668 21.485 21.485 21.485h33.996c-11.817 0-21.485-9.668-21.485-21.485z" fill="#fec458"/></g><g><path d="m387.994 97.42h-97.366c-4.267 0-7.726-3.459-7.726-7.726s3.459-7.726 7.726-7.726h97.366c4.267 0 7.726 3.459 7.726 7.726s-3.459 7.726-7.726 7.726z" fill="#fec458"/></g><g><path d="m387.994 127.913h-97.366c-4.267 0-7.726-3.459-7.726-7.726s3.459-7.726 7.726-7.726h97.366c4.267 0 7.726 3.459 7.726 7.726s-3.459 7.726-7.726 7.726z" fill="#fec458"/></g><g><path d="m387.994 158.407h-97.366c-4.267 0-7.726-3.459-7.726-7.726s3.459-7.726 7.726-7.726h97.366c4.267 0 7.726 3.459 7.726 7.726 0 4.266-3.459 7.726-7.726 7.726z" fill="#fec458"/></g></g></svg>