<svg id="Capa_1" enable-background="new 0 0 496.999 496.999" height="512" viewBox="0 0 496.999 496.999" width="512" xmlns="http://www.w3.org/2000/svg"><g><path d="m400.574 82.845-37.915 141.499-.002-.032-16.572 8.267-9.244-15.195 37.901-141.45 15.629-6.671z" fill="#e19974"/><path d="m387.659 79.385-37.916 141.467-7.062 6.131-5.84-9.599 37.901-141.45 7.3-3.116z" fill="#e8ad8c"/><path d="m412.629 69.245-2.283 8.519c-1.064 3.97-5.142 6.325-9.122 5.258l-27.142-7.273c-3.98-1.066-6.334-5.145-5.271-9.115l2.283-8.519c1.064-3.97 5.142-6.325 9.122-5.258l27.142 7.273c3.98 1.067 6.335 5.145 5.271 9.115z" fill="#883f2e"/><path d="m401.038 66.14-2.283 8.519c-1.064 3.97-5.142 6.325-9.122 5.258l-15.551-4.167c-3.98-1.066-6.334-5.145-5.271-9.115l2.283-8.519c1.064-3.97 5.142-6.325 9.122-5.258l15.551 4.167c3.98 1.066 6.335 5.145 5.271 9.115z" fill="#a44f3e"/><path d="m361.405 290.69-37.099 2.556-19.582-17.744 32.105-58.111.012-.007 12.903 3.463 12.913 3.465.002.032z" fill="#baafb9"/><path d="m345.989 286.559-21.683 6.687-19.582-17.744 32.105-58.111 12.914 3.461z" fill="#d7d0d6"/><path d="m310.191 496.987c-.294.014-.592.007-.883.012l-103.216-.004z" fill="#fd4755"/><path d="m232.454 234.313v38.85h-38.85v-38.85l20.975-8.852z" fill="#baafb9"/><path d="m218.454 226.883v46.28h-24.85v-38.85z" fill="#d7d0d6"/><path d="m232.454 234.313h-38.85l4.36-163.05 16.21-9.056 13.92 9.056z" fill="#e19974"/><path d="m218.454 234.313h-24.85l4.36-163.05 15.984-5.449z" fill="#e8ad8c"/><path d="m228.805 71.258h-31.557c-1.965 0-3.511-1.676-3.354-3.635l4.521-56.101c.235-2.917 2.671-5.164 5.597-5.164h18.028c2.926 0 5.362 2.247 5.597 5.164l4.521 56.101c.158 1.959-1.389 3.635-3.353 3.635z" fill="#883f2e"/><path d="m216.805 71.258h-19.557c-1.965 0-3.511-1.676-3.354-3.635l4.521-56.101c.235-2.917 2.671-5.164 5.597-5.164h6.028c2.926 0 5.362 2.247 5.597 5.164l4.521 56.101c.158 1.959-1.389 3.635-3.353 3.635z" fill="#a44f3e"/><path d="m314.419 196.721-19.053 3.391-16.31-12.866 47.326-162.519 16.299.612 12.022 6.976z" fill="#e19974"/><path d="m301.533 193.268-12.327 4.949-10.15-10.971 47.326-162.519 16.299.612z" fill="#e8ad8c"/><path d="m304.727 275.507h-37.909l-18.769-15.197 31.007-73.064 35.363 9.475z" fill="#baafb9"/><path d="m291.841 272.055-24.545 7.143-19.247-18.888 31.007-73.064 22.477 6.022z" fill="#d7d0d6"/><path d="m100.81 100.248-14.661 18.159c-2.469 3.058-3.816 6.87-3.816 10.8v151.408h-26.74v-151.41c0-3.929-1.346-7.74-3.813-10.797l-14.656-18.16c-2.174-2.694-.257-6.705 3.205-6.705h57.276c3.462 0 5.38 4.012 3.205 6.705z" fill="#883f2e"/><path d="m447.683 133.752-28.345 105.747h-20.127l-5.699-6.93 28.342-105.737 7.043-2.248z" fill="#e19974"/><path d="m86.81 100.248-14.661 18.159c-2.469 3.058-3.816 6.87-3.816 10.8v149.103h-12.74v-149.105c0-3.929-1.346-7.74-3.813-10.797l-14.656-18.16c-2.174-2.694-.257-6.705 3.205-6.705h43.276c3.462 0 5.38 4.012 3.205 6.705z" fill="#a44f3e"/><path d="m459.974 119.274-2.459 9.176c-1.095 4.086-5.308 6.518-9.394 5.423l-26.718-7.159c-4.096-1.097-6.518-5.308-5.423-9.394l2.459-9.176c1.095-4.086 5.298-6.521 9.394-5.424l26.718 7.159c4.085 1.096 6.518 5.309 5.423 9.395z" fill="#883f2e"/><path d="m434.759 130.289-28.335 105.75-7.213 3.46-5.699-6.93 28.342-105.737 7.043-2.248z" fill="#e8ad8c"/><path d="m448.383 116.168-2.459 9.176c-1.095 4.086-5.308 6.518-9.394 5.423l-15.126-4.053c-4.096-1.097-6.518-5.308-5.423-9.394l2.459-9.176c1.095-4.086 5.298-6.521 9.394-5.424l15.126 4.053c4.085 1.096 6.518 5.309 5.423 9.395z" fill="#a44f3e"/><path d="m418.085 305.877-32.963 4.806-23.717-19.993 32.104-58.111.003-.01 25.826 6.93z" fill="#baafb9"/><path d="m400.699 301.218-22.724 1.392-16.57-11.92 32.104-58.111 12.915 3.46z" fill="#d7d0d6"/><path d="m139.403 410.076c-41.163-10.429-55.741-28.41-64.39-44.041-8.898-16.091-8.25-28.364-8.195-30.886l-1.925-40.174c.001-.082-21.235 8.018-21.235 8.018v31.566c-.008 89.705 72.726 162.438 162.433 162.436l108.336-.004 41.413-1.806c8.695-2.037 27.074-20.223 27.074-20.223z" fill="#fd4755"/><path d="m191.928 294.002-15.32-4.105c-5.141 8.675-8.194 18.717-8.299 29.58.003 6.596-1.753 12.802-4.839 18.136l4.289 1.149c.01.003.01.003.019.005l101.065 35.327 143.448 30.198s17.533-19.857 17.526-27.831l-17.033-23.29-124.306-41.867z" fill="#fd4755"/><path d="m403.886 485.889c-14.036 7.099-29.902 11.099-46.704 11.1l-46.991-.002c22.577-.183 43.434-7.587 60.371-20.027z" fill="#e41f2d"/><path d="m458.191 416.593-26.885 1.031-18.958-13.315c.371-3.586.57-7.229.564-10.916l-.001-35.117c-.001-1.657-.05-3.368-.152-5.114l25.019-1.65 23.017 14.521-.002 27.362c.007 7.975-.895 15.746-2.602 23.198z" fill="#e41f2d"/><path d="m370.933 293.246-.007-.012-122.885-32.927c-22.419-6.007-45.763 1.445-61.349 16.763l101.787 34.235 121.886 25.687-5.274-33.023z" fill="#0ab69f"/><path d="m151.697 349.987c-5.656 3.682-12.43 5.821-19.71 5.827-20.075.004-36.337-16.269-36.342-36.344l.003-16.47-21.357-8.025-1.62 40.76c.009.199 2.769 53.189 70.244 70.244l241.197 59.084c14.53-11.377 44.79-22.551 51.585-40.028l-127.123-42.763z" fill="#0ab69f"/><g fill="#ffefd2"><path d="m167.779 338.767c-.01-.003-4.308-1.154-4.308-1.154-1.352 2.34-2.948 4.511-4.769 6.477-.326.368-.672.731-1.025 1.082-1.811 1.813-3.805 3.422-5.98 4.816l257.996 69.139s19.366.9 20.103-1.501c.731-2.382-17.447-13.317-17.447-13.317z"/><path d="m426.717 348.149c.001-2.671-16.352-11.154-16.352-11.154l-223.673-59.925c-2.005 1.958-3.869 4.047-5.599 6.254-1.626 2.09-3.136 4.284-4.484 6.573l235.74 63.158z"/><path d="m144.708 400.914c-67.475-17.055-66.603-62.808-66.53-64.704.013-.204.014-.4.005-.599l-1.033-32.619-8.182-5.381-6.811 5.391c-.011.08 0 .155-.002.238l1.023 32.616c-.055 2.522.094 16.61 8.993 32.702 8.649 15.631 27.588 36.442 68.752 46.871l229.458 61.483s19.437 1.564 23.657-1.436c1.306-.934-10.11-10.463-10.11-10.463z"/></g><path d="m453.778 430.94c-6.795 17.477-18.189 32.645-32.719 44.022l-36.947-9.9c12.15-12.657 21.099-28.397 25.58-45.935l26.879.164c.011.003 17.207 11.649 17.207 11.649z" fill="#01998d"/><path d="m460.38 350.394-22.601 1.12-27.415-14.521c-4.58-18.723-16.008-37.47-39.431-43.746l47.149 12.623c28.891 7.741 40.111 24.558 42.298 44.524z" fill="#01998d"/><path d="m456.25 423.838c-.737 2.401-1.56 4.779-2.472 7.102l-19.193-5.143s0 0-.01-.003l-24.882-6.667c.616-2.413 1.147-4.859 1.593-7.338.442-2.459.801-4.962 1.062-7.48l45.843 12.284c-.562 2.448-1.209 4.863-1.941 7.245z" fill="#fedba6"/><path d="m460.796 366.035-48.036-12.871c-.146-2.586-.401-5.263-.795-7.967l-.01-.003c-.381-2.711-.91-5.451-1.592-8.201l50.016 13.402c.284 2.571.417 5.205.416 7.876z" fill="#fedba6"/><path d="m421.059 474.962c-1.261.998-2.553 1.956-3.859 2.89-4.22 3-8.668 5.69-13.314 8.038l-33.324-8.929c3.62-2.653 7.052-5.533 10.294-8.63 1.112-1.058 2.202-2.153 3.257-3.268z" fill="#fedba6"/><path d="m95.654 279.007v23.996h-51.99v-23.996c0-2.769 2.245-5.014 5.014-5.014h41.962c2.769 0 5.014 2.245 5.014 5.014z" fill="#baafb9"/><path d="m79.984 279.007v23.996h-36.32v-23.996c0-2.769 2.245-5.014 5.014-5.014h26.292c2.769 0 5.014 2.245 5.014 5.014z" fill="#d7d0d6"/><path d="m370.092 23.414c-.898 3.352-3.073 6.02-5.855 7.635-2.79 1.603-6.188 2.152-9.54 1.254l-28.321-7.589c-6.704-1.796-10.684-8.692-8.888-15.395.898-3.352 3.073-6.02 5.856-7.635 2.79-1.603 6.188-2.152 9.539-1.254l28.321 7.589c6.703 1.796 10.684 8.692 8.888 15.395z" fill="#883f2e"/><path d="m358.501 20.308c-.898 3.352-3.073 6.02-5.855 7.635-2.79 1.603-6.188 2.152-9.54 1.254l-16.73-4.483c-6.704-1.796-10.684-8.692-8.888-15.395.898-3.352 3.073-6.02 5.856-7.635 2.79-1.603 6.188-2.152 9.539-1.254l16.73 4.483c6.703 1.796 10.684 8.692 8.888 15.395z" fill="#a44f3e"/></g></svg>