<svg id="Capa_1" enable-background="new 0 0 512 512" height="512" viewBox="0 0 512 512" width="512" xmlns="http://www.w3.org/2000/svg"><g><g><path d="m61.954 55.347v436.847c0 10.939 8.868 19.806 19.806 19.806h348.478c10.939 0 19.807-8.868 19.807-19.806v-436.847z" fill="#dfebfa"/><path d="m95.95 492.194v-436.847h-33.996v436.847c0 10.939 8.868 19.806 19.806 19.806h33.996c-10.938 0-19.806-8.868-19.806-19.806z" fill="#b1dbfc"/><path d="m430.239 0h-313.648v57.407h333.455v-37.601c0-10.939-8.869-19.806-19.807-19.806z" fill="#5cb3f8"/><path d="m118.651 0h-36.89c-10.939 0-19.807 8.867-19.807 19.806v37.601h56.696v-57.407z" fill="#ff656f"/><path d="m115.757 0h-33.996c-10.939 0-19.807 8.867-19.807 19.806v37.601h33.996v-37.601c0-10.939 8.868-19.806 19.807-19.806z" fill="#ff4756"/><g><g><path d="m411.669 36.43h-255.327c-4.267 0-7.726-3.459-7.726-7.726s3.459-7.726 7.726-7.726h255.327c4.267 0 7.726 3.459 7.726 7.726s-3.459 7.726-7.726 7.726z" fill="#8bcaff"/></g></g></g><path d="m166.528 127.737c-4.917 0-8.903 3.986-8.903 8.903v289.814c0 4.917 3.986 8.903 8.903 8.903h61.926v-307.62z" fill="#5cb3f8"/><path d="m183.947 426.454v-289.813c0-4.917 3.986-8.903 8.903-8.903h-26.322c-4.917 0-8.903 3.986-8.903 8.903v289.814c0 4.917 3.986 8.903 8.903 8.903h26.322c-4.917-.001-8.903-3.987-8.903-8.904z" fill="#2fa2f6"/><g><path d="m176.221 169h-14.11c-4.267 0-7.726-3.459-7.726-7.726s3.459-7.726 7.726-7.726h14.11c4.267 0 7.726 3.459 7.726 7.726s-3.459 7.726-7.726 7.726z" fill="#8bcaff"/></g><g><path d="m176.221 229.137h-14.11c-4.267 0-7.726-3.459-7.726-7.726s3.459-7.726 7.726-7.726h14.11c4.267 0 7.726 3.459 7.726 7.726s-3.459 7.726-7.726 7.726z" fill="#8bcaff"/></g><g><path d="m176.221 199.069h-14.11c-4.267 0-7.726-3.459-7.726-7.726s3.459-7.726 7.726-7.726h14.11c4.267 0 7.726 3.459 7.726 7.726 0 4.266-3.459 7.726-7.726 7.726z" fill="#8bcaff"/></g><g><path d="m176.221 259.205h-14.11c-4.267 0-7.726-3.459-7.726-7.726s3.459-7.726 7.726-7.726h14.11c4.267 0 7.726 3.459 7.726 7.726s-3.459 7.726-7.726 7.726z" fill="#8bcaff"/></g><g><path d="m176.221 289.273h-14.11c-4.267 0-7.726-3.459-7.726-7.726s3.459-7.726 7.726-7.726h14.11c4.267 0 7.726 3.459 7.726 7.726s-3.459 7.726-7.726 7.726z" fill="#8bcaff"/></g><g><path d="m176.221 319.342h-14.11c-4.267 0-7.726-3.459-7.726-7.726s3.459-7.726 7.726-7.726h14.11c4.267 0 7.726 3.459 7.726 7.726s-3.459 7.726-7.726 7.726z" fill="#8bcaff"/></g><g><path d="m176.221 379.478h-14.11c-4.267 0-7.726-3.459-7.726-7.726s3.459-7.726 7.726-7.726h14.11c4.267 0 7.726 3.459 7.726 7.726s-3.459 7.726-7.726 7.726z" fill="#8bcaff"/></g><g><path d="m176.221 349.41h-14.11c-4.267 0-7.726-3.459-7.726-7.726s3.459-7.726 7.726-7.726h14.11c4.267 0 7.726 3.459 7.726 7.726s-3.459 7.726-7.726 7.726z" fill="#8bcaff"/></g><g><path d="m176.221 409.547h-14.11c-4.267 0-7.726-3.459-7.726-7.726s3.459-7.726 7.726-7.726h14.11c4.267 0 7.726 3.459 7.726 7.726s-3.459 7.726-7.726 7.726z" fill="#8bcaff"/></g><path d="m300.939 366.082h53.436v27.815h-53.436z" fill="#b1dbfc"/><path d="m300.939 366.082h26.718v27.815h-26.718z" fill="#8bcaff"/><path d="m344.184 163.286h-33.055l-10.19 28.057 1.623 2.313h48.805l3.008-2.313z" fill="#b1dbfc"/><path d="m332.441 163.286h-21.312l-10.19 28.057 1.623 2.313h24.83z" fill="#8bcaff"/><path d="m320.29 138.065-9.534 26.251h33.803l-9.534-26.251c-2.743-6.528-11.993-6.528-14.735 0z" fill="#695d67"/><path d="m336.128 141.105-1.104-3.04c-2.742-6.528-11.992-6.528-14.735 0l-9.534 26.251h21.514z" fill="#535353"/><path d="m246.35 127.737h-19.955v307.62h19.955c4.917 0 8.903-3.986 8.903-8.903v-289.814c0-4.916-3.986-8.903-8.903-8.903z" fill="#8bcaff"/><path d="m326.385 191.343h27.99v176.023h-27.99z" fill="#fec458"/><path d="m300.939 392.777v15.863c0 14.756 11.962 26.718 26.718 26.718 14.756 0 26.718-11.962 26.718-26.718v-15.863z" fill="#ff656f"/><path d="m327.657 408.64v-15.863h-26.718v15.863c0 14.756 11.962 26.718 26.718 26.718 4.868 0 9.428-1.309 13.359-3.583-7.984-4.621-13.359-13.248-13.359-23.135z" fill="#ff4756"/><path d="m300.939 191.343h26.718v176.023h-26.718z" fill="#f9ab49"/></g></svg>