<svg id="Capa_1" enable-background="new 0 0 512 512" height="512" viewBox="0 0 512 512" width="512" xmlns="http://www.w3.org/2000/svg"><g><g><g><path d="m417.447 220.772h59.195v49.039h-59.195z" fill="#86f1a7"/></g><g><path d="m311.9 220.772h59.195v49.039h-59.195z" fill="#86f1a7"/></g><g><path d="m453.043 220.772h23.599v49.039h-23.599z" fill="#78d090"/></g><g><path d="m347.496 220.772h23.599v49.039h-23.599z" fill="#78d090"/></g><g><path d="m476.642 137.672h-59.195v-39.039c0-5.523 4.477-10 10-10h39.195c5.523 0 10 4.477 10 10z" fill="#dd5790"/></g><g><path d="m371.095 137.672h-59.195v-39.039c0-5.523 4.477-10 10-10h39.195c5.523 0 10 4.477 10 10z" fill="#dd5790"/></g><g><path d="m265.549 137.672h-59.195v-39.039c0-5.523 4.477-10 10-10h39.195c5.523 0 10 4.477 10 10z" fill="#dd5790"/></g><g><path d="m466.642 88.633h-23.895c5.686 0 10.296 4.61 10.296 10.296v38.743h23.599v-39.039c0-5.522-4.477-10-10-10z" fill="#da387d"/></g><g><path d="m361.095 88.633h-23.895c5.686 0 10.296 4.61 10.296 10.296v38.743h23.599v-39.039c0-5.522-4.477-10-10-10z" fill="#da387d"/></g><g><path d="m255.549 88.633h-23.895c5.686 0 10.296 4.61 10.296 10.296v38.743h23.599v-39.039c0-5.522-4.477-10-10-10z" fill="#da387d"/></g><g><path d="m502 230.19h-321.004c-5.523 0-10-4.477-10-10v-84.673c0-5.523 4.477-10 10-10h321.004c5.523 0 10 4.477 10 10v84.673c0 5.523-4.477 10-10 10z" fill="#dd5790"/></g><g><path d="m502 364.853h-321.004c-5.523 0-10-4.477-10-10v-84.673c0-5.523 4.477-10 10-10h321.004c5.523 0 10 4.477 10 10v84.673c0 5.523-4.477 10-10 10z" fill="#86f1a7"/></g><g><path d="m502 125.518h-19.567v64.81c0 5.686-4.61 10.296-10.296 10.296h-301.141v19.567c0 5.523 4.477 10 10 10h321.004c5.523 0 10-4.477 10-10v-84.673c0-5.523-4.477-10-10-10z" fill="#da387d"/></g><g><path d="m502 260.18h-19.567v64.81c0 5.686-4.61 10.296-10.296 10.296h-301.141v19.567c0 5.523 4.477 10 10 10h321.004c5.523 0 10-4.477 10-10v-84.673c0-5.523-4.477-10-10-10z" fill="#78d090"/></g></g><g><path d="m331.004 423.367h-321.004c-5.523 0-10-4.477-10-10v-189.346c0-5.523 4.477-10 10-10h321.004c5.523 0 10 4.477 10 10v189.345c0 5.523-4.477 10.001-10 10.001z" fill="#f6e266"/></g><g><path d="m330.708 214.021h-18.705v170.049c0 5.686-4.609 10.296-10.296 10.296h-301.707v18.705c0 5.686 4.609 10.296 10.296 10.296h320.413c5.686 0 10.296-4.61 10.296-10.296v-188.754c-.001-5.686-4.61-10.296-10.297-10.296z" fill="#ecc32e"/></g><g><circle cx="69.664" cy="274.405" fill="#ecc32e" r="30.071"/></g><g><circle cx="69.664" cy="364.004" fill="#ecc32e" r="30.071"/></g><g><circle cx="170.502" cy="274.405" fill="#ecc32e" r="30.071"/></g><g><circle cx="170.502" cy="364.004" fill="#ecc32e" r="30.071"/></g><g><circle cx="271.341" cy="274.405" fill="#ecc32e" r="30.071"/></g><g><circle cx="271.341" cy="364.004" fill="#ecc32e" r="30.071"/></g><g><path d="m81.178 246.622c1.472 3.547 2.288 7.435 2.288 11.514 0 16.608-13.463 30.071-30.071 30.071-4.079 0-7.967-.816-11.514-2.288 4.52 10.893 15.255 18.557 27.783 18.557 16.608 0 30.071-13.463 30.071-30.071-.001-12.528-7.664-23.263-18.557-27.783z" fill="#e49824"/></g><g><path d="m81.178 336.221c1.472 3.547 2.288 7.435 2.288 11.514 0 16.608-13.463 30.071-30.071 30.071-4.079 0-7.967-.816-11.514-2.288 4.52 10.893 15.255 18.557 27.783 18.557 16.608 0 30.071-13.463 30.071-30.071-.001-12.528-7.664-23.263-18.557-27.783z" fill="#e49824"/></g><g><path d="m182.016 246.622c1.472 3.547 2.288 7.435 2.288 11.514 0 16.608-13.463 30.071-30.071 30.071-4.079 0-7.967-.816-11.514-2.288 4.52 10.893 15.255 18.557 27.783 18.557 16.608 0 30.071-13.463 30.071-30.071 0-12.528-7.663-23.263-18.557-27.783z" fill="#e49824"/></g><g><path d="m182.016 336.221c1.472 3.547 2.288 7.435 2.288 11.514 0 16.608-13.463 30.071-30.071 30.071-4.079 0-7.967-.816-11.514-2.288 4.52 10.893 15.255 18.557 27.783 18.557 16.608 0 30.071-13.463 30.071-30.071 0-12.528-7.663-23.263-18.557-27.783z" fill="#e49824"/></g><g><path d="m282.855 246.622c1.472 3.547 2.288 7.435 2.288 11.514 0 16.608-13.463 30.071-30.071 30.071-4.079 0-7.967-.816-11.514-2.288 4.52 10.893 15.255 18.557 27.783 18.557 16.608 0 30.071-13.463 30.071-30.071-.001-12.528-7.664-23.263-18.557-27.783z" fill="#e49824"/></g><g><path d="m282.855 336.221c1.472 3.547 2.288 7.435 2.288 11.514 0 16.608-13.463 30.071-30.071 30.071-4.079 0-7.967-.816-11.514-2.288 4.52 10.893 15.255 18.557 27.783 18.557 16.608 0 30.071-13.463 30.071-30.071-.001-12.528-7.664-23.263-18.557-27.783z" fill="#e49824"/></g></g></svg>