<svg id="Capa_1" enable-background="new 0 0 496.08 496.08" height="512" viewBox="0 0 496.08 496.08" width="512" xmlns="http://www.w3.org/2000/svg"><g><path d="m462.94 15.51h-38.145l-7.43 13.94 7.43 12.644h38.145c5.796 0 10.494-4.698 10.494-10.494v-5.595c0-5.797-4.698-10.495-10.494-10.495z" fill="#3c87d0"/><path d="m424.799 15.51v26.58h-62.48c-14.27 0-25.26 12.59-23.33 26.73l27.01 198.2c4.6 33.67 6.89 67.66 6.89 101.64 0 70.53-58.3 127.41-128.33 127.42-4.79 0-9.53-.27-14.19-.79-63.56-7.06-114.16-60.92-114.16-126.63 0-44.71-22.83-76.45-52.88-106.48l29.612-58.29 61.348-32.66c36.76 36.76 72.6 71.74 72.6 128.11v57.1c0 27.47 42.59 27.46 42.59 0v-315.82c0-22.43 18.19-40.62 40.63-40.62l86.3 11.67z" fill="#fac600"/><path d="m310.599 68.82 27.01 198.2c4.6 33.67 6.89 67.66 6.89 101.64 0 65.7-50.59 119.56-114.13 126.63-63.56-7.06-114.16-60.92-114.16-126.63 0-44.71-22.83-76.45-52.88-106.48l10.881-31.656 19.696 1.085c12.24-12.238 31.798-13.217 45.128-2.177 20.58 17.045 46.005 47.017 46.005 91.068 0 58.33 39 56.54 63 56.54 10.7.06 21.44-6.81 21.44-20.6v-315.82c0-22.43 18.19-40.62 40.63-40.62l86.3 11.67v30.42h-62.48c-14.27 0-25.26 12.59-23.33 26.73z" fill="#fed402"/><g><path d="m306.169 91.305h-13.32c-4.143 0-7.5-3.358-7.5-7.5s3.357-7.5 7.5-7.5h13.32c4.143 0 7.5 3.358 7.5 7.5s-3.358 7.5-7.5 7.5z" fill="#d7d0d6"/></g><g><path d="m306.169 243.096h-13.32c-4.143 0-7.5-3.358-7.5-7.5s3.357-7.5 7.5-7.5h13.32c4.143 0 7.5 3.358 7.5 7.5s-3.358 7.5-7.5 7.5z" fill="#d7d0d6"/></g><g><path d="m306.169 167.201h-13.32c-4.143 0-7.5-3.358-7.5-7.5s3.357-7.5 7.5-7.5h13.32c4.143 0 7.5 3.358 7.5 7.5s-3.358 7.5-7.5 7.5z" fill="#d7d0d6"/></g><path d="m159.799 157.93c0 4.81-1.84 9.63-5.51 13.3l-90.96 90.95c-7.34 7.34-19.24 7.34-26.58 0l-8.6-8.6c-1.14-1.14-2.11-2.39-2.88-3.72-.01 0-.01 0-.02-.02-4.26-7.21-3.29-16.65 2.9-22.84l90.96-90.96c6.19-6.19 15.63-7.16 22.84-2.9.02.01.02.01.02.02 1.33.78 2.58 1.74 3.72 2.88l8.6 8.6c3.67 3.67 5.51 8.48 5.51 13.29z" fill="#fedba6"/><path d="m144.579 142.71c0 4.81-1.84 9.63-5.51 13.3l-90.96 90.95c-6.19 6.19-15.63 7.16-22.84 2.9-.01 0-.01 0-.02-.02-4.26-7.21-3.29-16.65 2.9-22.84l90.96-90.96c6.19-6.19 15.63-7.16 22.84-2.9.02.01.02.01.02.02 1.74 2.94 2.61 6.24 2.61 9.55z" fill="#ffefd2"/><path d="m292.849 235.6c0 12.9-10.46 23.36-23.37 23.36-3.86 0-7.51-.94-10.72-2.61-7.51-3.88-12.64-11.71-12.64-20.75s5.13-16.88 12.64-20.76c3.21-1.67 6.86-2.61 10.72-2.61 12.91 0 23.37 10.46 23.37 23.37z" fill="#596c76"/><path d="m271.399 235.6c0 9.03-5.13 16.87-12.64 20.75-7.51-3.88-12.64-11.71-12.64-20.75s5.13-16.88 12.64-20.76c7.51 3.88 12.64 11.72 12.64 20.76z" fill="#7a8c98"/><path d="m292.849 159.7c0 12.91-10.46 23.37-23.37 23.37-3.86 0-7.51-.94-10.72-2.61-7.51-3.88-12.64-11.72-12.64-20.76s5.13-16.88 12.64-20.76c3.21-1.67 6.86-2.61 10.72-2.61 12.91 0 23.37 10.47 23.37 23.37z" fill="#596c76"/><ellipse cx="258.759" cy="159.7" fill="#7a8c98" rx="12.64" ry="20.76"/><path d="m292.849 83.81c0 12.9-10.46 23.36-23.37 23.36-3.86 0-7.51-.94-10.72-2.61-7.51-3.88-12.64-11.71-12.64-20.75s5.13-16.88 12.64-20.76c3.21-1.67 6.86-2.61 10.72-2.61 12.91 0 23.37 10.46 23.37 23.37z" fill="#596c76"/><path d="m271.399 83.81c0 9.03-5.13 16.87-12.64 20.75-7.51-3.88-12.64-11.71-12.64-20.75s5.13-16.88 12.64-20.76c7.51 3.88 12.64 11.72 12.64 20.76z" fill="#7a8c98"/><circle cx="299.509" cy="296.432" fill="#596c76" r="8.308"/><circle cx="299.509" cy="342.21" fill="#596c76" r="8.308"/><g><path d="m370.168 312.24c-4.143 0-7.5-3.358-7.5-7.5s3.357-7.5 7.5-7.5c5.399 0 10.521-2.342 14.054-6.426 3.531-4.084 5.11-9.49 4.331-14.833l-21.196-145.41c-1.321-9.064-9.225-15.899-18.385-15.899h-4.757c-4.143 0-7.5-3.358-7.5-7.5s3.357-7.5 7.5-7.5h4.757c16.555 0 30.84 12.354 33.229 28.735l21.196 145.41c1.407 9.656-1.446 19.428-7.829 26.809-6.384 7.381-15.641 11.614-25.4 11.614z" fill="#596c76"/></g></g></svg>