<svg id="Capa_1" enable-background="new 0 0 512 512" height="512" viewBox="0 0 512 512" width="512" xmlns="http://www.w3.org/2000/svg"><g><g><g><path d="m264.683 376.086c-27.277 0-49.468-22.191-49.468-49.468v-82.492c0-4.268 3.459-7.726 7.726-7.726s7.726 3.459 7.726 7.726v82.492c0 18.756 15.259 34.015 34.015 34.015s34.015-15.26 34.015-34.015v-20.729c0-27.277 22.191-49.468 49.468-49.468 27.276 0 49.467 22.191 49.467 49.468v47.027c0 4.268-3.459 7.726-7.726 7.726s-7.726-3.459-7.726-7.726v-47.027c0-18.756-15.259-34.015-34.015-34.015s-34.015 15.26-34.015 34.015v20.729c.001 27.276-22.19 49.468-49.467 49.468z" fill="#5cb3f8"/></g></g><path d="m377.272 35.09h-28.94v137.896c0 7.639-6.644 13.615-14.23 12.719-8.222-.971-10.426-4.693-28.981-14.782-30.208-16.424-57.614-1.067-71.249 9.526-2.599 2.019-5.793 3.104-9.085 3.104s-6.485-1.084-9.085-3.104c-13.635-10.593-41.041-25.95-71.249-9.526-18.555 10.089-23.849 13.81-32.072 14.782-7.586.896-14.23-5.08-14.23-12.719v-137.896h-25.847c-6.978 0-12.635 5.657-12.635 12.634v165.679c0 6.978 5.657 12.635 12.635 12.635h112.08c5.696 0 11.031 3.168 13.423 8.337 4.391 9.489 13.992 16.072 25.135 16.072s20.744-6.583 25.135-16.072c2.392-5.169 7.727-8.337 13.423-8.337h115.772c6.978 0 12.635-5.657 12.635-12.634v-165.679c0-6.978-5.657-12.635-12.635-12.635z" fill="#ff656f"/><g><path d="m112.632 213.404v-27.731c-.083.01-.165.022-.248.032-7.586.896-14.23-5.08-14.23-12.719v-137.896h-25.85c-6.978 0-12.635 5.657-12.635 12.634v165.679c0 6.978 5.657 12.635 12.635 12.635h52.962c-6.978 0-12.634-5.657-12.634-12.634z" fill="#ff4756"/></g><path d="m327.483 415.762v47.059c0 27.049 22.131 49.18 49.179 49.18h26.489c27.049 0 49.18-22.131 49.18-49.18v-47.059z" fill="#dfebfa"/><path d="m355.641 462.82v-47.059h-28.158v47.059c0 27.049 22.131 49.18 49.179 49.18h26.489c.28 0 .556-.017.835-.021-26.667-.452-48.345-22.39-48.345-49.159z" fill="#b1dbfc"/><path d="m403.151 346.837h-26.489c-27.049 0-49.179 22.131-49.179 49.179v21.806h124.848v-21.806c0-27.048-22.131-49.179-49.18-49.179z" fill="#b1dbfc"/><path d="m403.986 346.858c-.279-.005-.555-.021-.835-.021h-26.489c-27.049 0-49.179 22.131-49.179 49.179v21.806h28.158v-21.806c0-26.768 21.678-48.706 48.345-49.158z" fill="#8bcaff"/><g><g><path d="m389.703 405.228c-4.248-.109-7.522-3.832-7.522-8.082v-50.13l15.453-.358v50.846c-.001 4.335-3.571 7.836-7.931 7.724z" fill="#8bcaff"/></g></g><path d="m389.907 392.524c-8.628 0-15.622 6.994-15.622 15.622v10.951c0 8.628 6.994 15.622 15.622 15.622s15.622-6.994 15.622-15.622v-10.951c-.001-8.628-6.995-15.622-15.622-15.622z" fill="#695d67"/><path d="m389.907 419.097v-10.951c0-5.779 3.146-10.813 7.811-13.515-2.3-1.332-4.962-2.107-7.811-2.107-8.628 0-15.622 6.994-15.622 15.622v10.951c0 8.628 6.994 15.622 15.622 15.622 2.849 0 5.511-.775 7.811-2.107-4.665-2.702-7.811-7.736-7.811-13.515z" fill="#544e55"/><path d="m352.001 20.493c-2.218 1.231-4.823 1.816-7.56 1.495-8.222-.964-20.737-4.682-39.32-14.786-43.001-23.38-80.333 17.646-80.333 17.646l-4.169 2.549v157.89l4.169 7.537c3.292 0 6.485-1.084 9.085-3.104 13.635-10.593 41.041-25.95 71.249-9.526 18.555 10.089 31.061 13.81 39.283 14.782 7.586.896 14.23-5.08 14.23-12.719v-157.804c-.001-3.451-3.72-5.578-6.634-3.96z" fill="#dfebfa"/><g><g><path d="m326.658 60.591c-7.584-2.661-16.072-6.534-25.227-11.512-13.983-7.601-28.893-8.276-44.314-2.004-3.951 1.608-8.46-.293-10.068-4.246s.293-8.46 4.246-10.067c19.639-7.987 39.528-7.038 57.517 2.742 8.431 4.583 16.156 8.119 22.962 10.506 4.027 1.412 6.145 5.822 4.733 9.848-1.413 4.028-5.824 6.144-9.849 4.733z" fill="#b1dbfc"/></g></g><g><g><path d="m326.657 94.104c-7.585-2.662-16.071-6.535-25.226-11.512-13.982-7.602-28.892-8.276-44.315-2.005-3.953 1.61-8.461-.293-10.068-4.246s.294-8.461 4.247-10.067c19.639-7.986 39.528-7.036 57.517 2.743 8.43 4.582 16.155 8.118 22.963 10.506 4.026 1.413 6.145 5.823 4.731 9.849-1.412 4.024-5.819 6.144-9.849 4.732z" fill="#b1dbfc"/></g></g><g><g><path d="m326.657 127.616c-7.59-2.664-16.077-6.537-25.226-11.512-13.982-7.602-28.891-8.276-44.314-2.005-3.953 1.61-8.461-.294-10.068-4.246-1.607-3.953.294-8.461 4.247-10.067 19.639-7.987 39.528-7.037 57.517 2.743 8.426 4.58 16.151 8.116 22.963 10.506 4.026 1.413 6.145 5.823 4.731 9.849-1.413 4.024-5.82 6.144-9.85 4.732z" fill="#b1dbfc"/></g></g><g><g><path d="m326.658 161.128c-7.584-2.661-16.072-6.534-25.227-11.512-13.983-7.601-28.893-8.276-44.314-2.004-3.951 1.607-8.46-.293-10.068-4.246s.293-8.46 4.246-10.067c19.639-7.986 39.528-7.038 57.517 2.742 8.431 4.583 16.156 8.119 22.962 10.506 4.027 1.412 6.145 5.822 4.733 9.848-1.413 4.028-5.824 6.145-9.849 4.733z" fill="#b1dbfc"/></g></g><path d="m248.778 7.284c-14.678 7.332-23.99 17.564-23.99 17.564l-4.169 2.549v157.89l4.169 7.537c3.292 0 6.485-1.084 9.085-3.104 3.917-3.043 8.975-6.476 14.905-9.439z" fill="#b1dbfc"/><path d="m97.576 20.493c2.218 1.231 4.823 1.816 7.56 1.495 8.222-.964 20.737-4.682 39.32-14.786 43.001-23.38 80.333 17.646 80.333 17.646v167.976c-3.292 0-6.485-1.084-9.085-3.104-13.635-10.593-41.041-25.95-71.249-9.526-18.555 10.089-31.061 13.81-39.283 14.782-7.586.896-14.23-5.08-14.23-12.719v-157.804c0-3.451 3.719-5.578 6.634-3.96z" fill="#dfebfa"/><g><path d="m119.1 181.865v-162.645c0-.201.016-.397.04-.589-5.657 1.907-10.278 2.92-14.005 3.357-2.736.321-5.342-.264-7.56-1.495-2.915-1.618-6.633.509-6.633 3.96v157.805c0 7.639 6.644 13.615 14.23 12.719 4.396-.519 10.031-1.838 17.146-4.483-1.992-2.307-3.218-5.312-3.218-8.629z" fill="#b1dbfc"/></g><g><g><path d="m113.069 55.857c-1.412-4.026.706-8.436 4.733-9.848 6.805-2.387 14.531-5.923 22.962-10.506 17.989-9.782 37.878-10.73 57.517-2.742 3.953 1.608 5.854 6.115 4.246 10.067-1.607 3.955-6.114 5.857-10.068 4.246-15.422-6.272-30.331-5.598-44.313 2.004-9.156 4.979-17.644 8.851-25.228 11.512-4.024 1.412-8.435-.703-9.849-4.733z" fill="#b1dbfc"/></g></g><g><g><path d="m113.07 89.371c-1.413-4.026.705-8.436 4.731-9.849 6.807-2.388 14.533-5.924 22.964-10.507 17.989-9.78 37.877-10.726 57.516-2.742 3.953 1.607 5.854 6.115 4.247 10.067-1.608 3.954-6.116 5.856-10.068 4.246-15.422-6.271-30.332-5.597-44.314 2.005-9.155 4.977-17.643 8.85-25.227 11.512-4.03 1.413-8.437-.707-9.849-4.732z" fill="#b1dbfc"/></g></g><g><g><path d="m113.07 122.883c-1.413-4.026.705-8.436 4.731-9.849 6.811-2.39 14.537-5.926 22.963-10.506 17.988-9.781 37.877-10.73 57.516-2.743 3.953 1.607 5.854 6.115 4.247 10.067-1.608 3.954-6.116 5.857-10.068 4.246-15.422-6.27-30.332-5.597-44.314 2.005-9.15 4.975-17.638 8.848-25.227 11.512-4.029 1.413-8.436-.707-9.848-4.732z" fill="#b1dbfc"/></g></g><g><g><path d="m113.069 156.394c-1.412-4.026.706-8.436 4.733-9.848 6.805-2.387 14.531-5.923 22.962-10.506 17.989-9.782 37.878-10.73 57.517-2.742 3.953 1.608 5.854 6.115 4.246 10.067-1.607 3.954-6.114 5.856-10.068 4.246-15.422-6.272-30.331-5.599-44.313 2.004-9.156 4.979-17.644 8.851-25.228 11.512-4.024 1.412-8.435-.703-9.849-4.733z" fill="#b1dbfc"/></g></g></g></svg>