<svg id="Capa_1" enable-background="new 0 0 512 512" height="512" viewBox="0 0 512 512" width="512" xmlns="http://www.w3.org/2000/svg"><g><g><path d="m388.833 504.506h-265.666c-23.748 0-43-19.252-43-43v-411.013c0-23.748 19.252-43 43-43h265.666c23.748 0 43 19.252 43 43v411.013c0 23.749-19.252 43-43 43z" fill="#dae7ef"/></g><g><path d="m388.871 7.493h-13.731v397.357c0 23.728-19.235 42.963-42.963 42.963h-252.01v13.731c0 23.728 19.235 42.963 42.963 42.963h265.741c23.728 0 42.963-19.235 42.963-42.963v-411.088c-.001-23.728-19.236-42.963-42.963-42.963z" fill="#c1d5e4"/></g><g><path d="m287.125 65.752-45.774-1.728c-16.878-.637-31.077 12.529-31.714 29.408l-.663 17.574c-.038 1.001-.474 1.946-1.212 2.623l-19.656 18.045c-2.697 2.476-1.879 6.919 1.522 8.273l15.522 6.179c1.476.588 2.422 2.041 2.362 3.629l-.789 20.91c-.302 8.01 5.946 14.748 13.955 15.05l12.092.456c2.405.091 4.405 1.88 4.76 4.261l5.93 39.662 66.578-9.955-7.047-47.129c-.229-1.528.241-3.096 1.329-4.194 10.524-10.626 17.252-25.071 17.861-41.194l.873-23.123c.777-20.621-15.308-37.969-35.929-38.747z" fill="#b46e59"/></g><g><path d="m372.29 256.166v-7.16c0-22.367-18.132-40.499-40.499-40.499h-92.39c-31.772 0-58.911 19.764-69.845 47.659z" fill="#61a2f9"/></g><g><path d="m234.852 69.644 6.748 7.701c4.54 5.181 7.042 11.834 7.042 18.722v19.002c0 11.568 7.015 21.981 17.735 26.327l42.84 17.367c8.381 3.398 17.537-2.77 17.537-11.814v-54.793c0-18.56-15.046-33.605-33.605-33.605h-53.268c-5.747 0-8.816 6.771-5.029 11.093z" fill="#2b4d66"/></g><g><g><g><g><g><path d="m136.967 133.351 1.908 7.761c3.093 12.58 11.846 21.441 23.698 26.671 1.122.747 1.124 2.395.003 3.143-11.842 5.253-20.577 14.132-23.645 26.718l-1.893 7.764c-.389 1.598-2.661 1.6-3.053.003l-1.908-7.761c-3.093-12.58-11.846-21.441-23.698-26.671-1.122-.747-1.124-2.395-.003-3.143 11.842-5.253 20.577-14.132 23.645-26.718l1.893-7.764c.389-1.598 2.661-1.6 3.053-.003z" fill="#dd5790"/></g></g></g></g></g><g><g><path d="m124.957 106.491c-6.224 0-11.544-3.409-14.292-6.174l-.161-.261c-4.312-7.006 3.992-14.935 10.791-10.303l-.074-.073c.113.108 2.815 2.627 4.924 1.458 1.133-.629 1.837-1.887 1.837-3.282v-43.918c0-4.103 3.162-7.681 7.263-7.804 4.244-.127 7.724 3.275 7.724 7.49v44.232c0 6.838-3.659 13.116-9.551 16.385-2.897 1.61-5.764 2.25-8.461 2.25z" fill="#dd5790"/></g></g><g><path d="m387.808 131.877c9.567-8.525 10.077-23.427.834-32.587-8.132-8.059-21.339-8.573-30.093-1.195-4.712 3.971-7.355 9.442-7.862 15.092-.182 2.035-1.796 3.672-3.839 3.717-17.112.378-34.276-6.463-46.556-20.243-2.044-2.293-3.877-4.701-5.51-7.197.983 12.75 5.987 25.293 15.152 35.577 19.454 21.83 54.866 26.284 76.927 7.631.321-.255.637-.519.947-.795z" fill="#f6f9f9"/></g><path d="m388.642 99.29c-3.737-3.703-8.547-5.793-13.502-6.276v46.949c4.176-1.837 8.128-4.252 11.722-7.29.32-.256.637-.52.946-.796 9.566-8.526 10.077-23.427.834-32.587z" fill="#dae7ef"/><g><path d="m347.782 70.94c2.325-3.58 1.132-8.391-2.612-10.443-18.924-10.368-46.161-16.874-76.437-16.874s-57.513 6.505-76.437 16.874c-3.744 2.051-4.937 6.863-2.612 10.443l15.565 23.962c1.355 2.086 3.674 3.345 6.161 3.345h114.644c2.488 0 4.806-1.259 6.161-3.345z" fill="#dd5790"/></g><g><path d="m224.691 446.579 45.774 1.728c16.878.637 31.077-12.529 31.714-29.408l.663-17.574c.038-1.001.474-1.946 1.212-2.623l19.656-18.045c2.697-2.476 1.879-6.919-1.522-8.273l-15.522-6.179c-1.476-.588-2.422-2.041-2.362-3.629l.789-20.91c.302-8.01-5.946-14.748-13.955-15.05l-12.092-.456c-2.405-.091-4.405-1.88-4.76-4.261l-5.931-39.662-66.578 9.955 7.047 47.129c.229 1.528-.241 3.096-1.329 4.194-10.524 10.626-17.252 25.071-17.861 41.194l-.873 23.123c-.776 20.622 15.309 37.969 35.93 38.747z" fill="#b46e59"/></g><g><path d="m139.526 256.166v7.16c0 22.367 18.132 40.499 40.499 40.499h92.39c31.772 0 58.911-19.764 69.845-47.659z" fill="#61a2f9"/></g><g><path d="m276.964 442.687-6.748-7.701c-4.54-5.181-7.042-11.834-7.042-18.722v-19.002c0-11.568-7.014-21.981-17.735-26.327l-42.84-17.367c-8.381-3.398-17.537 2.77-17.537 11.814v54.793c0 18.56 15.046 33.605 33.605 33.605h53.268c5.747.001 8.817-6.77 5.029-11.093z" fill="#2b4d66"/></g><g><g><g><g><g><path d="m374.849 378.981-1.908-7.761c-3.093-12.58-11.846-21.441-23.698-26.671-1.122-.747-1.124-2.395-.003-3.143 11.842-5.253 20.577-14.132 23.645-26.718l1.892-7.764c.389-1.598 2.661-1.6 3.053-.003l1.908 7.761c3.093 12.58 11.846 21.441 23.698 26.671 1.122.747 1.124 2.395.003 3.143-11.842 5.253-20.577 14.132-23.645 26.718l-1.892 7.764c-.389 1.597-2.66 1.6-3.053.003z" fill="#dd5790"/></g></g></g></g></g><g><g><path d="m376.109 476.198c-4.101-.123-7.263-3.701-7.263-7.804v-43.918c0-6.836 3.659-13.115 9.549-16.385 9.594-5.325 18.817-.04 22.755 3.924 5.235 6.587-2.664 15.482-9.823 11.062l-.807-.498.074.073c-.113-.108-2.812-2.628-4.924-1.458-1.133.629-1.836 1.887-1.836 3.282v44.232c-.001 4.215-3.481 7.617-7.725 7.49z" fill="#dd5790"/></g></g><g><path d="m124.009 380.455c-9.567 8.525-10.077 23.427-.834 32.587 8.132 8.059 21.339 8.573 30.093 1.195 4.712-3.971 7.355-9.442 7.862-15.092.182-2.035 1.796-3.672 3.839-3.717 17.112-.378 34.276 6.463 46.556 20.243 2.044 2.293 3.877 4.701 5.51 7.197-.983-12.75-5.987-25.293-15.152-35.577-19.454-21.83-54.866-26.284-76.927-7.631-.321.255-.638.519-.947.795z" fill="#f6f9f9"/></g><g><path d="m164.035 441.392c-2.325 3.58-1.132 8.391 2.612 10.443 18.924 10.368 46.161 16.874 76.437 16.874s57.513-6.505 76.437-16.874c3.744-2.051 4.937-6.863 2.612-10.443l-15.565-23.962c-1.355-2.086-3.674-3.345-6.161-3.345h-114.646c-2.488 0-4.806 1.259-6.161 3.345z" fill="#dd5790"/></g><path d="m388.871 0h-265.742c-27.821 0-50.456 22.635-50.456 50.456v411.088c0 27.821 22.635 50.456 50.456 50.456h265.741c27.821 0 50.456-22.635 50.456-50.456v-411.088c.001-27.821-22.634-50.456-50.455-50.456zm-265.742 14.987h265.741c19.558 0 35.469 15.911 35.469 35.469v198.216h-336.679v-198.216c0-19.558 15.912-35.469 35.469-35.469zm265.742 482.026h-265.742c-19.558 0-35.469-15.911-35.469-35.469v-197.885h336.68v197.885c0 19.558-15.912 35.469-35.469 35.469z" fill="#dd5790"/><g fill="#da387d"><path d="m403.437 341.352c-11.852-5.229-20.606-14.091-23.698-26.671l-1.908-7.761c-.325-1.322-1.924-1.53-2.691-.663v73.312c.736.962 2.43.771 2.763-.592l1.893-7.764c3.068-12.586 11.803-21.465 23.645-26.718 1.12-.748 1.118-2.396-.004-3.143z"/><path d="m401.15 412.014c-3.938-3.963-13.161-9.249-22.755-3.924-1.35.749-2.576 1.663-3.674 2.699-.825 5.962-2.865 11.534-5.875 16.453v41.151c0 4.103 3.162 7.681 7.263 7.804 4.244.127 7.724-3.275 7.724-7.49v-44.232c0-1.395.703-2.653 1.836-3.282 2.111-1.169 4.811 1.35 4.924 1.458l-.074-.073.807.498c7.161 4.42 15.06-4.475 9.824-11.062z"/><path d="m319.52 451.834c1.664-.912 2.82-2.37 3.392-4.021h-159.657c.571 1.652 1.728 3.11 3.392 4.021 18.924 10.368 46.161 16.874 76.437 16.874 30.275 0 57.512-6.506 76.436-16.874z"/></g></g></svg>