<svg id="Capa_1" enable-background="new 0 0 497 497" height="512" viewBox="0 0 497 497" width="512" xmlns="http://www.w3.org/2000/svg"><g><g><path d="m305.32 215.915c-4.016 0-7.342-3.179-7.49-7.226-.023-.646-.453-15.958 10.544-27.366 7.562-7.843 18.338-11.82 32.03-11.82h54.926c4.143 0 7.5 3.358 7.5 7.5s-3.357 7.5-7.5 7.5h-54.926c-9.462 0-16.605 2.433-21.231 7.231-6.517 6.76-6.356 16.312-6.353 16.406.151 4.139-3.081 7.618-7.221 7.77-.092.004-.186.005-.279.005z" fill="#596c76"/></g><g><path d="m368.728 347.689c-4.143 0-7.5-3.358-7.5-7.5 0-6.14 0-24.826-39.359-24.826-6.305 0-11.804-2.299-15.903-6.649-8.913-9.457-8.237-25.455-8.132-27.248.245-4.135 3.798-7.287 7.932-7.043 4.129.245 7.279 3.787 7.044 7.914-.153 2.907.27 12.079 4.088 16.105.848.895 2.18 1.921 4.972 1.921 47.297 0 54.359 24.952 54.359 39.826-.001 4.142-3.359 7.5-7.501 7.5z" fill="#596c76"/></g><path d="m347.941 269.661c0 6.773-5.486 12.249-12.249 12.249h-63.648c.091-.673.131-1.367.131-2.06 0-9.576-7.768-17.344-17.344-17.344 4.793 0 9.134-1.949 12.269-5.095h68.592c3.386 0 6.441 1.377 8.662 3.587 2.22 2.222 3.587 5.287 3.587 8.663z" fill="#fedba6"/><path d="m347.941 245.162c0 6.763-5.486 12.249-12.249 12.249h-68.592c3.135-3.135 5.075-7.466 5.075-12.249s-1.939-9.114-5.075-12.249h68.592c3.386 0 6.441 1.377 8.662 3.587 2.22 2.221 3.587 5.286 3.587 8.662z" fill="#ffefd2"/><path d="m347.941 220.664c0 6.763-5.486 12.249-12.249 12.249h-68.592c-3.135-3.145-7.476-5.095-12.269-5.095 9.576 0 17.344-7.768 17.344-17.344 0-.693-.04-1.387-.131-2.06h63.648c3.386 0 6.441 1.377 8.662 3.587 2.22 2.222 3.587 5.287 3.587 8.663z" fill="#fedba6"/><path d="m272.174 279.85c0 .693-.04 1.387-.131 2.06-1.015 8.612-8.33 15.284-17.213 15.284-2.703 0-5.255-.613-7.536-1.718-5.808-2.804-9.807-8.752-9.807-15.626 0-6.873 3.999-12.822 9.807-15.626 2.281-1.105 4.833-1.718 7.536-1.718 9.577 0 17.344 7.768 17.344 17.344z" fill="#596c76"/><path d="m257.102 279.85c0 .693-.04 1.387-.131 2.06-.703 5.989-4.462 11.043-9.677 13.566-5.808-2.804-9.807-8.752-9.807-15.626 0-6.873 3.999-12.822 9.807-15.626 5.808 2.804 9.808 8.753 9.808 15.626z" fill="#7a8c98"/><path d="m272.174 245.162c0 4.783-1.939 9.114-5.075 12.249-3.135 3.145-7.476 5.095-12.269 5.095-2.703 0-5.255-.613-7.536-1.718-.01 0-.01 0-.01 0-5.798-2.814-9.797-8.752-9.797-15.626 0-6.873 3.999-12.812 9.797-15.626h.01c2.281-1.105 4.833-1.718 7.536-1.718 4.793 0 9.134 1.949 12.269 5.095 3.136 3.135 5.075 7.466 5.075 12.249z" fill="#596c76"/><path d="m257.102 245.162c0 4.783-1.939 9.114-5.075 12.249-1.367 1.377-2.964 2.522-4.733 3.376-.01 0-.01 0-.01 0-5.798-2.814-9.797-8.752-9.797-15.626 0-6.873 3.999-12.812 9.797-15.626h.01c1.769.854 3.366 2 4.733 3.376 3.135 3.137 5.075 7.468 5.075 12.251z" fill="#7a8c98"/><path d="m272.174 210.475c0 9.576-7.768 17.344-17.344 17.344-2.703 0-5.255-.613-7.536-1.718-5.808-2.804-9.807-8.752-9.807-15.626 0-6.873 3.999-12.822 9.807-15.626 2.281-1.105 4.833-1.718 7.536-1.718 8.883 0 16.198 6.672 17.213 15.284.091.673.131 1.366.131 2.06z" fill="#596c76"/><path d="m257.102 210.475c0 6.873-3.999 12.822-9.807 15.626-5.808-2.804-9.807-8.752-9.807-15.626 0-6.873 3.999-12.822 9.807-15.626 5.215 2.522 8.973 7.577 9.677 13.566.089.673.13 1.366.13 2.06z" fill="#7a8c98"/><g><path d="m415.183 277.161h-67.243c-4.143 0-7.5-3.358-7.5-7.5s3.357-7.5 7.5-7.5h67.242c4.143 0 7.5 3.358 7.5 7.5s-3.357 7.5-7.499 7.5z" fill="#d7d0d6"/></g><g><path d="m417.849 252.663h-69.909c-4.143 0-7.5-3.358-7.5-7.5s3.357-7.5 7.5-7.5h69.908c4.143 0 7.5 3.358 7.5 7.5s-3.357 7.5-7.499 7.5z" fill="#d7d0d6"/></g><g><path d="m415.175 228.164h-67.235c-4.143 0-7.5-3.358-7.5-7.5s3.357-7.5 7.5-7.5h67.234c4.143 0 7.5 3.358 7.5 7.5s-3.357 7.5-7.499 7.5z" fill="#d7d0d6"/></g><path d="m428.068 148.676-32.738 28.327-78.128-137.002 27.252-16.5z" fill="#d7d0d6"/><path d="m395.33 177.003c-21.343-29.121-55.739-48.304-93.944-48.304-4.562 0-9.064.261-13.485.784-57.97 6.672-102.978 55.92-102.978 115.679 0 51.971 34.035 95.984 81.032 110.966l-32.809-2.11c-.08-.01-.161-.01-.241-.02-19.062-1.236-37.753-4.431-55.75-9.456-21.815-27.222-34.858-61.779-34.858-99.38 0-83.323 64.05-151.683 145.604-158.526 4.441-.372 8.943-.563 13.485-.563 15.997 0 31.372 2.341 45.932 6.733l9.134 16.028z" fill="#fac600"/><path d="m356.452 108.833c-20.328-12.269-43.621-20.107-68.551-22.197-81.554 6.843-145.604 75.204-145.604 158.526 0 37.602 13.043 72.159 34.858 99.38 17.997 5.024 36.687 8.22 55.75 9.456-43.822-16.711-74.952-59.136-74.952-108.836 0-64.321 52.142-116.463 116.463-116.463 4.562 0 9.064.261 13.485.784 4.421-.523 8.923-.784 13.485-.784 38.205 0 72.601 19.183 93.944 48.304z" fill="#fed402"/><path d="m460.475 245.162c0 87.764-71.064 158.928-158.788 159.089.794-.804 1.477-1.708 2.02-2.693 1.035-1.829 1.618-3.929 1.618-6.16v-24.92c0-3.447-1.387-6.582-3.648-8.853 64.19-.161 116.172-52.243 116.172-116.463 0-25.282-8.401-48.896-22.519-68.16l15.625-13.525 17.113-14.802-.09.131c20.388 26.74 32.497 60.131 32.497 96.356z" fill="#fac600"/><path d="m410.955 163.478-15.625 13.525c14.118 19.263 22.519 42.877 22.519 68.16 0 64.22-51.981 116.302-116.172 116.463 2.261 2.271 3.648 5.406 3.648 8.853v24.92c0 2.231-.583 4.331-1.618 6.16 73.877-13.746 129.798-78.54 129.798-156.396-.001-29.865-8.23-57.81-22.55-81.685z" fill="#fed402"/><path d="m305.325 370.478v24.92c0 3.437-1.387 6.572-3.638 8.853-2.1 2.13-4.954 3.517-8.149 3.718l-45.038 2.904-15.364.995c-28.91 1.869-57.016 8.22-83.112 18.61-26.106 10.38-50.213 24.8-71.144 42.767v-180.623c28.016 24.056 61.708 41.742 98.275 51.921 18.077 5.044 36.848 8.25 55.991 9.476l15.354.985 17.454 1.125 27.583 1.779c3.195.211 6.039 1.588 8.139 3.718 2.262 2.27 3.649 5.406 3.649 8.852z" fill="#fac600"/><path d="m248.5 370.389v25.108c0 8.648-6.714 15.811-15.344 16.37l-.02.001c-28.91 1.869-57.016 8.22-83.112 18.61-26.106 10.38-50.213 24.8-71.144 42.767l-14.353-90.307 14.353-90.317c28.016 24.056 61.708 41.742 98.275 51.921 18.077 5.044 36.848 8.25 55.991 9.476 8.634.555 15.354 7.719 15.354 16.371z" fill="#fed402"/><path d="m78.88 290.049v185.778c0 11.686-9.476 21.172-21.172 21.172-3.859 0-7.476-1.035-10.591-2.834-6.331-3.668-10.591-10.511-10.591-18.339v-185.777c0-5.848 2.371-11.144 6.2-14.972 1.306-1.306 2.783-2.432 4.391-3.366 3.115-1.799 6.732-2.834 10.591-2.834 11.696 0 21.172 9.476 21.172 21.172z" fill="#fedba6"/><path d="m57.708 290.049v185.778c0 7.828-4.261 14.671-10.591 18.339-6.331-3.668-10.591-10.511-10.591-18.339v-185.778c0-5.848 2.371-11.144 6.2-14.972 1.306-1.306 2.783-2.432 4.391-3.366 6.33 3.657 10.591 10.501 10.591 18.338z" fill="#ffefd2"/><path d="m344.625 23.441-27.282 16.44-12.193-21.114c-1.99-3.445-.809-7.852 2.637-9.841l13.79-7.96c3.292-1.9 7.494-.915 9.599 2.25z" fill="#3c87d0"/></g></svg>