<svg id="Capa_1" enable-background="new 0 0 512 512" height="512" viewBox="0 0 512 512" width="512" xmlns="http://www.w3.org/2000/svg"><g><path d="m61.954 55.347v436.847c0 10.939 8.868 19.806 19.806 19.806h348.478c10.939 0 19.807-8.868 19.807-19.806v-436.847z" fill="#dfebfa"/><path d="m95.95 492.194v-436.847h-33.996v436.847c0 10.939 8.868 19.806 19.806 19.806h33.996c-10.938 0-19.806-8.868-19.806-19.806z" fill="#b1dbfc"/><path d="m430.239 0h-313.648v57.407h333.455v-37.601c0-10.939-8.869-19.806-19.807-19.806z" fill="#5cb3f8"/><path d="m118.651 0h-36.89c-10.939 0-19.807 8.867-19.807 19.806v37.601h56.696v-57.407z" fill="#ff656f"/><path d="m115.757 0h-33.996c-10.939 0-19.807 8.867-19.807 19.806v37.601h33.996v-37.601c0-10.939 8.868-19.806 19.807-19.806z" fill="#ff4756"/><g><g><path d="m411.669 36.43h-255.327c-4.267 0-7.726-3.459-7.726-7.726s3.459-7.726 7.726-7.726h255.327c4.267 0 7.726 3.459 7.726 7.726s-3.459 7.726-7.726 7.726z" fill="#8bcaff"/></g></g><path d="m410.878 88.313h-309.756c-4.563 0-8.262 3.699-8.262 8.262v218.503c0 4.563 3.699 8.262 8.262 8.262h309.756c4.563 0 8.262-3.699 8.262-8.262v-218.503c0-4.563-3.699-8.262-8.262-8.262z" fill="#ff656f"/><path d="m136.016 315.078v-218.503c0-4.563 3.699-8.262 8.262-8.262h-43.156c-4.563 0-8.262 3.699-8.262 8.262v218.503c0 4.563 3.699 8.262 8.262 8.262h43.156c-4.563 0-8.262-3.699-8.262-8.262z" fill="#ff4756"/><path d="m256 116.44c-31.398 0-57.088 25.69-57.088 57.088 0 31.398 25.689 57.088 57.088 57.088 31.398 0 57.088-25.689 57.088-57.088 0-31.399-25.69-57.088-57.088-57.088z" fill="#dfebfa"/><path d="m239.465 173.527c0-24.265 15.349-45.108 36.811-53.332-6.31-2.418-13.143-3.756-20.276-3.756-31.398 0-57.088 25.69-57.088 57.088s25.69 57.088 57.088 57.088c7.134 0 13.966-1.338 20.276-3.756-21.463-8.224-36.811-29.067-36.811-53.332z" fill="#b1dbfc"/><path d="m306.882 262.903h-157.394c-7.965 0-14.422 6.457-14.422 14.422s6.457 14.422 14.422 14.422h157.394z" fill="#dfebfa"/><path d="m362.512 262.903h-55.63v28.845h55.63c7.965 0 14.422-6.457 14.422-14.422s-6.457-14.423-14.422-14.423z" fill="#ff4756"/><g><path d="m306.883 307.372c-4.267 0-7.726-3.459-7.726-7.726v-44.469c0-4.268 3.459-7.726 7.726-7.726s7.726 3.459 7.726 7.726v44.469c0 4.267-3.459 7.726-7.726 7.726z" fill="#ff7f87"/></g><g><g><path d="m179.565 370.055h-54.331c-4.267 0-7.726-3.459-7.726-7.726 0-4.268 3.459-7.726 7.726-7.726h54.331c4.267 0 7.726 3.459 7.726 7.726.001 4.267-3.459 7.726-7.726 7.726z" fill="#ff656f"/></g></g><g><g><path d="m239.45 401.814h-114.216c-4.267 0-7.726-3.459-7.726-7.726 0-4.268 3.459-7.726 7.726-7.726h114.216c4.267 0 7.726 3.459 7.726 7.726 0 4.268-3.459 7.726-7.726 7.726z" fill="#b1dbfc"/></g></g><g><g><path d="m239.45 433.574h-114.216c-4.267 0-7.726-3.459-7.726-7.726 0-4.268 3.459-7.726 7.726-7.726h114.216c4.267 0 7.726 3.459 7.726 7.726s-3.459 7.726-7.726 7.726z" fill="#b1dbfc"/></g></g><g><g><path d="m239.45 465.333h-114.216c-4.267 0-7.726-3.459-7.726-7.726 0-4.268 3.459-7.726 7.726-7.726h114.216c4.267 0 7.726 3.459 7.726 7.726s-3.459 7.726-7.726 7.726z" fill="#b1dbfc"/></g></g><g><g><path d="m386.765 401.814h-114.215c-4.267 0-7.726-3.459-7.726-7.726 0-4.268 3.459-7.726 7.726-7.726h114.215c4.267 0 7.726 3.459 7.726 7.726 0 4.268-3.459 7.726-7.726 7.726z" fill="#b1dbfc"/></g></g><g><g><path d="m386.765 433.574h-114.215c-4.267 0-7.726-3.459-7.726-7.726 0-4.268 3.459-7.726 7.726-7.726h114.215c4.267 0 7.726 3.459 7.726 7.726s-3.459 7.726-7.726 7.726z" fill="#b1dbfc"/></g></g><g><g><path d="m386.765 465.333h-114.215c-4.267 0-7.726-3.459-7.726-7.726 0-4.268 3.459-7.726 7.726-7.726h114.215c4.267 0 7.726 3.459 7.726 7.726s-3.459 7.726-7.726 7.726z" fill="#b1dbfc"/></g></g><path d="m279.921 168.421-32.45-19.546c-3.973-2.393-9.036.468-9.036 5.106v39.091c0 4.638 5.063 7.499 9.036 5.106l32.45-19.546c3.847-2.316 3.847-7.893 0-10.211z" fill="#ff656f"/></g></svg>