<svg id="Capa_1" enable-background="new 0 0 512 512" height="512" viewBox="0 0 512 512" width="512" xmlns="http://www.w3.org/2000/svg"><g><g><g><path d="m337.951 71.935c-2.441-.176-4.527-1.802-5.287-4.129-9.846-30.144-38.179-51.926-71.612-51.926-20.653 0-39.352 8.322-52.958 21.784-2.327 2.302-6.08 2.302-8.407 0-13.605-13.462-32.304-21.784-52.957-21.784-33.432 0-61.766 21.782-71.611 51.926-.76 2.327-2.846 3.952-5.287 4.129-40.803 2.946-72.606 38.37-69.64 80.559 2.523 35.881 30.663 65.301 66.4 69.385.256.029.512.057.768.084 15.627 1.629 27.569 14.646 27.569 30.357v55.109c0 12.474 10.113 22.587 22.587 22.587h172.751c12.474 0 22.587-10.113 22.587-22.587v-55.109c0-15.713 11.945-28.727 27.573-30.358.251-.026.503-.054.754-.082 35.736-4.08 63.88-33.493 66.409-69.372 2.974-42.196-28.831-77.627-69.639-80.573z" fill="#dae7ef"/></g></g><g><path d="m337.951 71.935c-2.441-.176-4.527-1.802-5.287-4.129-9.846-30.144-38.179-51.926-71.612-51.926-9.443 0-18.47 1.757-26.796 4.933 21.132 8.07 37.696 25.381 44.755 46.993.76 2.327 2.846 3.953 5.287 4.129 40.808 2.946 72.613 38.377 69.639 80.573-2.529 35.879-30.673 65.293-66.409 69.372-.252.029-.503.056-.754.082-15.628 1.63-27.573 14.645-27.573 30.358v55.109c0 12.474-10.113 22.587-22.587 22.587h53.653c12.475 0 22.587-10.113 22.587-22.587v-55.109c0-15.713 11.945-28.727 27.573-30.358.251-.026.503-.054.754-.082 35.736-4.08 63.88-33.493 66.409-69.372 2.974-42.196-28.831-77.627-69.639-80.573z" fill="#c1d5e4"/></g><g><path d="m434.461 254.016c-.068 0-.132 0-.201 0-40.172 0-209.224 66.578-217.074 69.678-6.326 2.214-6.376 11.879-.075 14.159 7.887 3.218 176.682 71.894 216.472 72.118.15.001.296.001.446.001 42.793 0 77.729-34.692 77.971-77.539.24-42.998-34.542-78.175-77.539-78.417zm51.476 85.875c-12.446 9.129-31.688 20.123-52.073 20.034-20.809-.117-82.931-11.163-134.652-21.086zm-186.638-16.263c51.541-9.288 113.376-19.569 134.526-19.569.117 0 .24 0 .355.001 20.377.115 39.501 11.342 51.846 20.619zm135.077-54.401c27.126.153 50.185 17.582 58.797 41.775-14.754-10.777-35.682-22.022-58.908-22.153-.132-.001-.258-.001-.392-.001-21.353 0-79.454 9.463-129.974 18.48 52.94-19.037 111.101-38.101 130.317-38.101zm-.349 125.533c-.118 0-.241 0-.359-.001-19.052-.107-77.176-19.882-130.046-39.569 50.732 9.645 109.137 19.829 130.157 19.948.138.001.272.001.41.001 23.064 0 43.959-10.943 58.746-21.491-8.844 23.989-31.933 41.112-58.908 41.112z" fill="#2b4d66"/><g><path d="m118.716 353.748c6.549.037 12.811 1.264 18.587 3.47 8.268 3.158 16.972 5.024 25.822 5.074l89.241.503c3.36.019 6.1-2.69 6.119-6.05l.29-51.478c.019-3.36-2.69-6.1-6.05-6.119l-89.241-.503c-8.85-.05-17.575 1.718-25.878 4.783-5.801 2.141-12.076 3.297-18.625 3.261-6.549-.037-12.811-1.264-18.587-3.47-8.268-3.158-16.972-5.024-25.822-5.074l-9.135-.051c-3.36-.019-6.1 2.69-6.119 6.05l-.29 51.478c-.019 3.36 2.69 6.1 6.05 6.119l9.135.051c8.85.05 17.575-1.718 25.878-4.783 5.801-2.142 12.076-3.298 18.625-3.261z" fill="#c67d66"/></g><g><path d="m163.125 362.292 89.241.503c3.36.019 6.1-2.69 6.119-6.05l.135-23.958c-.019 3.36-2.758 6.069-6.119 6.05l-89.241-.503c-8.85-.05-17.554-1.916-25.822-5.074-5.777-2.206-12.038-3.433-18.587-3.47s-12.824 1.119-18.625 3.261c-8.303 3.065-17.028 4.833-25.878 4.783l-9.135-.051c-3.36-.019-6.069-2.758-6.05-6.119l-.135 23.958c-.019 3.36 2.69 6.1 6.05 6.119l9.135.051c8.85.05 17.575-1.718 25.878-4.783 5.801-2.141 12.076-3.297 18.625-3.261 6.549.037 12.811 1.264 18.587 3.47 8.268 3.158 16.972 5.024 25.822 5.074z" fill="#be694f"/></g></g><g><g><path d="m213.17 431.128h-27.316c-4.812 0-9.557-1.127-13.855-3.291-7.281-3.666-15.32-5.575-23.472-5.575-9.182 0-18.202 2.422-26.149 7.022l-2.428 1.406c-10.762 6.229-10.762 21.767 0 27.996l2.428 1.406c7.947 4.6 16.967 7.022 26.149 7.022 8.152 0 16.191-1.909 23.472-5.575 4.298-2.164 9.043-3.291 13.855-3.291h27.316z" fill="#c67d66"/></g><g><path d="m395.34 458.249h27.316c4.812 0 9.557 1.127 13.855 3.291 7.281 3.666 15.32 5.575 23.472 5.575 9.182 0 18.202-2.422 26.149-7.022l2.428-1.406c10.762-6.229 10.762-21.767 0-27.996l-2.428-1.406c-7.947-4.6-16.967-7.022-26.149-7.022-8.152 0-16.191 1.909-23.472 5.575-4.298 2.164-9.043 3.291-13.855 3.291h-27.316z" fill="#c67d66"/></g><g><path d="m171.999 444.783c-7.281 3.666-15.32 5.575-23.472 5.575-9.182 0-18.202-2.422-26.149-7.022l-2.428-1.406c-2.501-1.447-4.413-3.401-5.751-5.62-4.422 7.331-2.51 17.594 5.751 22.376l2.428 1.406c7.947 4.6 16.967 7.022 26.149 7.022 8.152 0 16.191-1.909 23.472-5.575 4.298-2.164 9.043-3.291 13.855-3.291h27.316v-16.756h-27.316c-4.812 0-9.557 1.127-13.855 3.291z" fill="#be694f"/></g><g><path d="m488.56 441.93-2.428 1.406c-7.947 4.6-16.967 7.022-26.149 7.022-8.152 0-16.191-1.909-23.472-5.575-4.298-2.164-9.043-3.291-13.855-3.291h-27.316v16.756h27.316c4.812 0 9.557 1.127 13.855 3.291 7.281 3.666 15.32 5.575 23.472 5.575 9.182 0 18.202-2.422 26.149-7.022l2.428-1.406c8.261-4.782 10.173-15.045 5.751-22.376-1.338 2.219-3.25 4.173-5.751 5.62z" fill="#be694f"/></g></g><g><g><path d="m401.103 496.12h-193.697c-8.284 0-15-6.716-15-15v-72.863c0-8.284 6.716-15 15-15h193.697c8.284 0 15 6.716 15 15v72.863c0 8.284-6.715 15-15 15z" fill="#c67d66"/></g><g><path d="m400.892 393.257h-12.664v59.776c0 8.401-6.81 15.211-15.211 15.211h-180.61v12.664c0 8.401 6.81 15.211 15.211 15.211h193.274c8.401 0 15.211-6.81 15.211-15.211v-72.44c0-8.4-6.81-15.211-15.211-15.211z" fill="#be694f"/></g></g><g><path d="m401.103 496.12h-193.697c-8.284 0-15-6.716-15-15v-72.863c0-8.284 6.716-15 15-15h193.697c8.284 0 15 6.716 15 15v33.321l-5.322 8.016 5.322 8.719v22.807c0 8.284-6.715 15-15 15z" fill="#c67d66"/></g><path d="m401.104 393.257h-12v60.863c0 8.284-6.716 15-15 15h-181.698v12c0 8.284 6.716 15 15 15h193.697c8.284 0 15-6.716 15-15v-72.863c.001-8.284-6.715-15-14.999-15z" fill="#be694f"/><g><path d="m144.238 276c-4.143 0-7.5-3.358-7.5-7.5v-23.699c0-4.142 3.357-7.5 7.5-7.5s7.5 3.358 7.5 7.5v23.699c0 4.142-3.357 7.5-7.5 7.5z" fill="#c1d5e4"/></g><g><path d="m187.015 276c-4.143 0-7.5-3.358-7.5-7.5v-23.699c0-4.142 3.357-7.5 7.5-7.5s7.5 3.358 7.5 7.5v23.699c0 4.142-3.358 7.5-7.5 7.5z" fill="#c1d5e4"/></g><g><path d="m229.791 276c-4.143 0-7.5-3.358-7.5-7.5v-23.699c0-4.142 3.357-7.5 7.5-7.5s7.5 3.358 7.5 7.5v23.699c0 4.142-3.357 7.5-7.5 7.5z" fill="#c1d5e4"/></g><g><path d="m272.567 276c-4.143 0-7.5-3.358-7.5-7.5v-23.699c0-4.142 3.357-7.5 7.5-7.5s7.5 3.358 7.5 7.5v23.699c0 4.142-3.357 7.5-7.5 7.5z" fill="#98b9d3"/></g><path d="m227.936 397.936c1.309 2.225 1.965 3.341 1.965 6.401s-.656 4.177-1.965 6.402c-1.703 2.896-4.035 6.862-4.035 14.005 0 7.144 2.332 11.11 4.035 14.006 1.308 2.226 1.965 3.343 1.965 6.403s-.657 4.178-1.965 6.403c-1.703 2.896-4.035 6.862-4.035 14.006s2.332 11.11 4.035 14.006c1.308 2.226 1.965 3.343 1.965 6.403 0 3.061-.657 4.178-1.966 6.404-.625 1.063-1.33 2.287-1.977 3.745h16.948c1.092-2.492 1.994-5.705 1.994-10.149 0-7.144-2.332-11.11-4.035-14.006-1.308-2.226-1.965-3.343-1.965-6.403s.657-4.178 1.965-6.403c1.703-2.896 4.035-6.862 4.035-14.006s-2.332-11.11-4.035-14.006c-1.308-2.226-1.965-3.343-1.965-6.403s.656-4.176 1.965-6.401c1.703-2.896 4.035-6.862 4.035-14.005 0-5.02-1.152-8.467-2.428-11.08h-16.907c.743 1.888 1.616 3.395 2.371 4.678z" fill="#be694f"/><path d="m225.958 496.12h16.948c1.092-2.492 1.994-5.705 1.994-10.149 0-7.144-2.332-11.11-4.035-14.006-.644-1.095-1.128-1.923-1.456-2.845h-15.298c.61 4.976 2.427 8.073 3.823 10.448 1.308 2.226 1.965 3.343 1.965 6.403 0 3.061-.657 4.178-1.966 6.404-.623 1.063-1.328 2.287-1.975 3.745z" fill="#aa593d"/><path d="m383.301 393.257h-16.899c-1.292 2.623-2.469 6.089-2.469 11.162 0 7.144 2.332 11.11 4.035 14.006 1.308 2.226 1.965 3.343 1.965 6.403s-.657 4.178-1.965 6.403c-1.703 2.896-4.035 6.862-4.035 14.006s2.332 11.11 4.035 14.006c1.308 2.226 1.965 3.343 1.965 6.403 0 3.061-.657 4.178-1.966 6.404-1.702 2.896-4.034 6.862-4.034 14.006 0 4.394.883 7.583 1.958 10.063h16.946c-.636-1.419-1.325-2.615-1.938-3.657-1.309-2.226-1.966-3.344-1.966-6.406 0-3.061.657-4.178 1.966-6.404 1.702-2.896 4.034-6.862 4.034-14.006s-2.332-11.11-4.035-14.006c-1.308-2.226-1.965-3.343-1.965-6.403s.657-4.178 1.965-6.403c1.703-2.896 4.035-6.862 4.035-14.006s-2.332-11.11-4.035-14.006c-1.308-2.226-1.965-3.343-1.965-6.403s.656-4.176 1.965-6.401c.765-1.302 1.653-2.833 2.403-4.761z" fill="#be694f"/><path d="m382.836 496.12c-.636-1.419-1.325-2.615-1.938-3.657-1.309-2.226-1.966-3.344-1.966-6.406 0-3.061.657-4.178 1.966-6.404 1.702-2.896 4.034-6.862 4.034-14.006 0-.39-.01-.767-.023-1.139-2.729 2.838-6.557 4.612-10.805 4.612h-4.651c-.328.957-.822 1.802-1.486 2.931-1.702 2.896-4.034 6.862-4.034 14.006 0 4.394.883 7.583 1.958 10.063z" fill="#aa593d"/></g></svg>