<svg id="Capa_1" enable-background="new 0 0 497 497" height="512" viewBox="0 0 497 497" width="512" xmlns="http://www.w3.org/2000/svg"><g><path d="m362.474 234.958 11.236 15.401-11.236 15.4h-178.716c-17.889 0-32.39 14.501-32.39 32.39h-30.8c0-17.458 7.072-33.252 18.505-44.685s27.228-18.505 44.685-18.505h178.716z" fill="#baafb9"/><path d="m340.334 234.958v30.8h-156.576c-17.889 0-32.39 14.501-32.39 32.39l-15.781 12.902-15.02-12.902c0-17.458 7.072-33.252 18.505-44.685s27.228-18.505 44.685-18.505z" fill="#d7d0d6"/><path d="m378.537 214.857c8.874 0 16.068 7.194 16.068 16.068v38.868c0 8.874-7.194 16.068-16.068 16.068-8.874 0-16.068-7.194-16.068-16.068v-38.868c.001-8.875 7.194-16.068 16.068-16.068z" fill="#3c87d0"/><path d="m411.496 40.25c-53.075 68.685-93.301 138.7-93.301 228.662v93.103c0 66.467-50.513 124.803-116.438 133.834-12.148 1.663-24.135 1.491-35.679-.308-59.211-9.203-107.111-60.8-107.111-123.879v-122.561c0-99.153 154.002-101.74 154.002-1.158v104.919c0 59.383-92.401 60.936-92.401.751v-55.465h30.8v55.01c0 20.291 30.8 20.464 30.8.456v-104.919c0-59.383-92.401-58.472-92.401 1.712v109.033c0 100.311 155.48 96.738 155.48-3.289v-87.239c0-89.863-40.25-160.002-93.301-228.662l139.329-12.931z" fill="#fac600"/><path d="m373.71 40.25c-53.075 68.685-93.301 138.7-93.301 228.662v93.103c0 65.765-49.428 123.559-114.331 133.526-59.211-9.203-107.111-60.8-107.111-123.879v-122.561c0-99.153 154.002-101.74 154.002-1.158v104.919c0 59.383-92.401 60.936-92.401.751v-55.465h30.8v55.01c0 20.291 30.8 20.464 30.8.456v-104.919c0-59.383-92.401-58.472-92.401 1.712v109.033c0 100.311 155.48 96.738 155.48-3.289v-87.239c0-89.863-40.25-160.002-93.301-228.662l114.986-16.749z" fill="#fed402"/><path d="m438.033 20.131c0 5.556-2.255 10.583-5.889 14.23-3.647 3.634-8.673 5.889-14.23 5.889h-272.386c-11.113 0-20.119-9.006-20.119-20.119 0-5.556 2.255-10.583 5.889-14.23 3.647-3.646 8.674-5.901 14.23-5.901h272.386c11.113 0 20.119 9.018 20.119 20.131z" fill="#fedba6"/><path d="m391.537 20.131c0 5.556-2.255 10.583-5.889 14.23-3.647 3.634-8.673 5.889-14.23 5.889h-225.89c-11.113 0-20.119-9.006-20.119-20.119 0-5.556 2.255-10.583 5.889-14.23 3.647-3.646 8.674-5.901 14.23-5.901h225.89c11.113 0 20.119 9.018 20.119 20.131z" fill="#ffefd2"/></g></svg>