<svg id="Capa_1" enable-background="new 0 0 496.996 496.996" height="512" viewBox="0 0 496.996 496.996" width="512" xmlns="http://www.w3.org/2000/svg"><g><path d="m445.307 178.955c-16.942.636-32.93 4.207-48.175 9.779-35.115 12.827-66.284 36.246-96.251 58.775-48.79 36.685-98.359 72.351-147.644 108.371l-29.09-29.09c36.02-49.285 71.679-98.861 108.364-147.651 22.543-29.981 45.969-61.115 58.782-96.23 5.565-15.238 9.136-31.226 9.758-48.196l82.079 60z" fill="#fac600"/><path d="m372.848 164.453c11.255 11.253 8.622 30.229-5.354 37.843-23.464 12.782-45.341 29.222-66.613 45.213-48.79 36.685-98.359 72.351-147.644 108.371l-29.09-29.09c36.02-49.285 71.679-98.861 108.364-147.651 16.001-21.281 32.447-43.142 45.226-66.596 7.614-13.973 26.586-16.605 37.839-5.354z" fill="#fed402"/><path d="m262.245 188.692-144.61 144.61c-20.789 20.789-20.782 54.511.007 75.3l72.797 72.797c20.796 20.796 54.511 20.796 75.3.007l144.61-144.61c20.789-20.789 20.789-54.504-.007-75.3l-72.797-72.797c-20.79-20.789-54.512-20.796-75.3-.007zm-15.578 253.603c-10.31 10.31-27.026 10.31-37.335 0l-52.58-52.581c-10.317-10.317-10.324-27.04-.014-37.349l124.571-124.571c10.31-10.31 27.033-10.303 37.349.014l52.58 52.581c10.31 10.31 10.31 27.026 0 37.335z" fill="#fac600"/><path d="m31.058 320.356h216.08v41.13h-216.08z" fill="#baafb9" transform="matrix(.707 -.707 .707 .707 -200.327 198.211)"/><path d="m175.497 275.439 29.083 29.084-127.336 127.336-23.302-6.118-5.781-22.966z" fill="#d7d0d6"/><path d="m82.134 459.201c-6.199 6.199-16.25 6.199-22.449 0l-38.065-38.065c-6.199-6.199-6.199-16.25 0-22.449 6.199-6.199 16.25-6.199 22.449 0l38.065 38.065c6.2 6.199 6.2 16.25 0 22.449z" fill="#3c87d0"/><path d="m475.188 183.698-.9.89c-2.08 2.08-4.56 3.48-7.2 4.22-5.56 1.56-11.78.16-16.16-4.22l-155.49-155.5c-4.37-4.37-5.78-10.59-4.22-16.15.74-2.64 2.15-5.13 4.22-7.2l.89-.9c6.45-6.45 16.91-6.45 23.36 0l155.5 155.5c6.45 6.449 6.45 16.909 0 23.36z" fill="#fedba6"/><path d="m467.088 188.807c-5.56 1.56-11.78.16-16.16-4.22l-155.49-155.5c-4.37-4.37-5.78-10.59-4.22-16.15 5.56-1.55 11.77-.14 16.14 4.23l155.5 155.5c4.37 4.37 5.78 10.591 4.23 16.14z" fill="#ffefd2"/></g></svg>