<svg id="Capa_1" enable-background="new 0 0 512 512" height="512" viewBox="0 0 512 512" width="512" xmlns="http://www.w3.org/2000/svg"><g><g><path d="m452.555 445.084 4.986-15.705v-401.958c0-11.014-8.929-19.943-19.943-19.943h-283.513c-11.014 0-19.943 8.929-19.943 19.943v401.957l4.986 15.705h313.427z" fill="#61a2f9"/></g><g><path d="m437.597 7.478h-15.907v437.605h30.865l4.986-15.705v-401.957c-.001-11.014-8.929-19.943-19.944-19.943z" fill="#4a81f6"/></g><g><path d="m134.142 429.379v55.2c0 11.014 8.929 19.943 19.943 19.943h283.513c11.014 0 19.943-8.929 19.943-19.943v-55.2z" fill="#dae7ef"/></g><g><path d="m421.69 429.379v19.35c0 11.014-8.929 19.943-19.943 19.943h-267.605v15.907c0 11.014 8.929 19.943 19.943 19.943h283.513c11.014 0 19.943-8.929 19.943-19.943v-55.2z" fill="#c1d5e4"/></g><g><path d="m437.597 512h-283.512c-15.12 0-27.421-12.301-27.421-27.422v-457.157c-.001-15.12 12.3-27.421 27.421-27.421h283.513c15.12 0 27.422 12.301 27.422 27.421v457.157c-.001 15.121-12.303 27.422-27.423 27.422zm-283.512-497.043c-6.873 0-12.464 5.591-12.464 12.464v457.157c0 6.873 5.591 12.464 12.464 12.464h283.513c6.873 0 12.464-5.591 12.464-12.464v-457.157c0-6.873-5.591-12.464-12.464-12.464z" fill="#98b9d3"/></g><g><path d="m319.96 476.423h-48.238c-4.13 0-7.479-3.348-7.479-7.479 0-4.13 3.348-7.479 7.479-7.479h48.238c4.131 0 7.479 3.348 7.479 7.479s-3.348 7.479-7.479 7.479z" fill="#407093"/></g><g><path d="m279.964 306.702-55.491 38.093-152.723-222.479c-7.628-11.112-13.471-23.349-17.318-36.267l-6.497-21.822c-5.942-19.955 17.171-35.821 33.657-23.104l18.028 13.906c10.673 8.232 19.992 18.083 27.62 29.195l.648.943 6.102 16.259 12.412 10.711 16.745 24.393 6.902 17.424 12.557 10.922 15.8 23.017 7.375 18.114 12.083 10.232z" fill="#ecc32e"/></g><g><path d="m56.153 41.123 18.028 13.906c10.673 8.232 19.992 18.083 27.62 29.195l161.702 233.778 16.461-11.3-62.1-90.464-12.083-10.232-7.375-18.114-15.8-23.017-12.557-10.922-6.902-17.424-16.745-24.393-12.412-10.711-6.102-16.259-.648-.943c-7.628-11.112-16.947-20.963-27.62-29.195l-18.028-13.905c-8.474-6.536-18.689-5.51-25.819-.27.126.094.255.173.38.27z" fill="#e49824"/></g><g><path d="m323.155 181.507c-9.925 0-18.935 3.916-25.57 10.288-.981.942-2.507.942-3.488 0-6.635-6.371-15.645-10.288-25.57-10.288-20.391 0-36.922 16.531-36.922 36.922s16.53 84.151 36.922 84.151c7.626 0 13.84-1.245 18.889-3.44 5.921-2.575 12.643-2.291 18.569.272 4.683 2.026 10.342 3.168 17.169 3.168 20.391 0 36.922-63.76 36.922-84.151 0-20.392-16.53-36.922-36.921-36.922z" fill="#dd5790"/></g><g><g><path d="m323.155 181.507c-3.373 0-6.635.462-9.739 1.309 15.661 4.276 27.178 18.595 27.178 35.613 0 18.348-13.384 71.798-30.921 82.329 3.89 1.178 8.357 1.823 13.483 1.823 20.391 0 36.922-63.76 36.922-84.151-.002-20.393-16.532-36.923-36.923-36.923z" fill="#da387d"/></g></g><g><g><path d="m109.343 265.348h196.791l5.889 7.946v156.084h-169.377c-2.823 0-5.26-1.977-5.843-4.739l-32.339-153.277c-.653-3.098 1.711-6.014 4.879-6.014z" fill="#c67d66"/></g><g><path d="m307.341 265.606 30.436 13.422c1.794.791 3.839.791 5.633 0l30.436-13.422c1.977-.872 4.198.576 4.198 2.737v161.036h-74.901v-161.036c-.001-2.161 2.22-3.609 4.198-2.737z" fill="#be694f"/></g><g><path d="m133.534 409.142 3.27 15.498c.583 2.762 3.02 4.739 5.843 4.739h169.377v-20.237z" fill="#be694f"/></g><g><path d="m373.845 265.606-16.038 7.073v112.488c0 13.241-10.734 23.976-23.976 23.976h-30.689v20.237h74.901v-161.037c0-2.161-2.221-3.609-4.198-2.737z" fill="#aa593d"/></g></g><g><path d="m285.285 133.558c13.992 18.033 10.615 45.041 8.983 54.032-.321 1.766-1.922 3.009-3.713 2.881-9.115-.652-36.115-4.088-50.108-22.12-13.992-18.033-10.615-45.041-8.983-54.032.321-1.766 1.922-3.009 3.713-2.881 9.115.651 36.116 4.088 50.108 22.12z" fill="#86f1a7"/></g><g><path d="m285.285 133.558c-13.992-18.033-40.993-21.469-50.108-22.121-1.791-.128-3.392 1.115-3.713 2.881-.346 1.906-.769 4.627-1.09 7.894 12.49 2.869 28.086 8.87 37.838 21.438 10.64 13.712 11.981 32.219 11.23 45.371 4.646.869 8.574 1.268 11.113 1.449 1.791.128 3.392-1.115 3.713-2.881 1.632-8.99 5.01-35.998-8.983-54.031z" fill="#78d090"/></g><g><path d="m295.841 199.817c-4.13 0-7.479-3.348-7.479-7.479v-14.37c0-11.952 6.457-23.041 16.85-28.94l11.019-6.255c3.591-2.038 8.156-.78 10.195 2.812s.78 8.157-2.812 10.196l-11.019 6.255c-5.722 3.248-9.276 9.353-9.276 15.932v14.37c.001 4.131-3.347 7.479-7.478 7.479z" fill="#407093"/></g><path d="m403.799 72.633h-18.717v-18.717c0-4.13-3.348-7.479-7.479-7.479s-7.479 3.348-7.479 7.479v18.716h-18.717c-4.131 0-7.479 3.348-7.479 7.479 0 4.13 3.348 7.479 7.479 7.479h18.717v18.717c0 4.13 3.348 7.479 7.479 7.479s7.479-3.348 7.479-7.479v-18.717h18.717c4.131 0 7.479-3.348 7.479-7.479 0-4.13-3.348-7.478-7.479-7.478z" fill="#f6f9f9"/><g><path d="m198.406 187.893-33.07 22.701c-3.035 2.083-2.845 6.63.354 8.451 15.571 8.864 35.481 8.681 51.245-2.141.316-.217.62-.444.929-.667z" fill="#f6e266"/></g><g><path d="m163.147 136.53-33.07 22.701c-3.035 2.083-2.845 6.63.354 8.451 15.571 8.864 35.481 8.681 51.245-2.141.316-.217.62-.444.929-.667z" fill="#f6e266"/></g><g><path d="m127.888 85.167-21.664 14.871c-3.035 2.084-2.845 6.63.354 8.451 11.993 6.828 26.559 8.281 39.823 3.647z" fill="#f6e266"/></g><g fill="#ecc32e"><path d="m198.406 187.893-16.881 11.589 17.303 25.016c6.307-1.222 12.472-3.724 18.107-7.592.316-.217.62-.444.929-.667z"/><path d="m163.147 136.53-17.063 11.714 17.248 24.936c6.389-1.205 12.639-3.721 18.344-7.638.316-.217.62-.444.929-.667z"/><path d="m127.888 85.167-17.245 11.838 11.848 17.129c7.898 1.329 16.127.722 23.911-1.998z"/></g></g></svg>