<svg id="Capa_1" enable-background="new 0 0 512 512" height="512" viewBox="0 0 512 512" width="512" xmlns="http://www.w3.org/2000/svg"><g><g><path d="m384.339 401.347 5.257-16.976v-363.313c0-5.211-4.224-9.436-9.435-9.436h-248.302c-5.211 0-9.435 4.224-9.435 9.436v363.313l5.257 16.976z" fill="#407093"/></g><g><path d="m122.424 384.371v65.395c0 5.211 4.224 9.436 9.435 9.436h248.301c5.211 0 9.435-4.224 9.435-9.436v-65.395z" fill="#dae7ef"/></g><g><path d="m380.161 11.623h-25.364v389.725h29.543l5.257-16.976v-363.314c-.001-5.211-4.225-9.435-9.436-9.435z" fill="#2b4d66"/></g><g><path d="m354.797 384.371v30.596c0 5.211-4.224 9.436-9.435 9.436h-222.938v25.364c0 5.211 4.224 9.436 9.435 9.436h248.301c5.211 0 9.435-4.224 9.435-9.436v-65.395h-34.798z" fill="#c1d5e4"/></g><g><g><path d="m380.16 467.087h-248.301c-9.551 0-17.321-7.77-17.321-17.321v-428.708c0-9.551 7.77-17.321 17.321-17.321h248.301c9.551 0 17.321 7.77 17.321 17.321v428.708c0 9.551-7.77 17.321-17.321 17.321zm-248.301-447.579c-.855 0-1.55.695-1.55 1.55v428.708c0 .855.695 1.55 1.55 1.55h248.301c.855 0 1.55-.695 1.55-1.55v-428.708c0-.855-.695-1.55-1.55-1.55z" fill="#98b9d3"/></g></g><g><path d="m509.242 405.167c-.335-2.106-.799-4.19-1.343-6.251l-31.147-117.963c-2.34-8.863-6.653-17.082-12.617-24.043-3.803-4.439-6.946-9.402-9.332-14.738l-49.757-111.249c-1.663-3.718-4.35-6.641-7.565-8.635v108.108l5.594 17.876c.959 3.065 1.445 6.259 1.439 9.471l-.084 52.396c-.021 12.76-10.37 23.093-23.13 23.093h-.116c-7.337-.067-14.244-3.468-18.771-9.243-8.056-10.278-20.001-25.552-20.001-25.552-6.737-8.678-17.531-14.082-28.527-14.105-8.069-.1-16.225 2.436-23.077 7.794-4.886 3.821-5.749 10.878-1.928 15.764l49.963 63.888c2.812 3.596 4.217 8.047 4.229 12.612.052 19.47 13.598 36.308 32.617 40.521l21.712 4.81c2.16.478 3.697 2.394 3.697 4.606v64.588c0 5.163 4.185 9.348 9.348 9.348l92.204-.186c5.163 0 9.348-4.185 9.348-9.348v-58.692c.002-11.68-.92-23.339-2.756-34.87z" fill="#eaac9d"/></g><g><circle cx="179.189" cy="92.421" fill="#dd5790" r="20.629"/></g><g><circle cx="332.013" cy="92.421" fill="#dd5790" r="20.629"/></g><g><circle cx="179.189" cy="162.516" fill="#dd5790" r="20.629"/></g><g><circle cx="254.959" cy="231.559" fill="#dd5790" r="20.629"/></g><g><path d="m247.784 76.432-13.434 23.269c-3.189 5.523.797 12.426 7.174 12.426h26.869c6.377 0 10.363-6.903 7.174-12.426l-13.434-23.269c-3.189-5.523-11.16-5.523-14.349 0z" fill="#f6e266"/></g><g><path d="m324.839 146.527-13.434 23.269c-3.189 5.523.797 12.426 7.174 12.426h26.869c6.377 0 10.363-6.903 7.174-12.426l-13.434-23.269c-3.189-5.523-11.16-5.523-14.349 0z" fill="#f6e266"/></g><g><path d="m172.015 216.621-13.434 23.269c-3.189 5.523.797 12.426 7.174 12.426h26.869c6.377 0 10.363-6.903 7.174-12.426l-13.434-23.269c-3.189-5.522-11.161-5.522-14.349 0z" fill="#f6e266"/></g><g><path d="m281.441 432.964h-50.862c-4.355 0-7.885-3.53-7.885-7.885s3.53-7.885 7.885-7.885h50.862c4.355 0 7.885 3.53 7.885 7.885s-3.53 7.885-7.885 7.885z" fill="#407093"/></g><g><path d="m352.029 252.317h-40.032c-2.761 0-5-2.239-5-5v-24.072c0-2.761 2.239-5 5-5h40.032c2.761 0 5 2.239 5 5v24.072c0 2.761-2.238 5-5 5z" fill="#61a2f9"/></g><g><path d="m274.985 179.552h-40.032c-2.761 0-5-2.239-5-5v-24.072c0-2.761 2.239-5 5-5h40.032c2.761 0 5 2.239 5 5v24.072c0 2.762-2.239 5-5 5z" fill="#61a2f9"/></g><g><path d="m509.242 405.167c-.335-2.106-.799-4.19-1.343-6.251l-31.147-117.963c-2.34-8.863-6.653-17.082-12.617-24.043-3.803-4.439-6.946-9.402-9.332-14.738l-49.757-111.249c-1.663-3.718-4.35-6.641-7.565-8.635v42.158l34.764 77.725c2.386 5.335 5.529 10.299 9.332 14.738 5.964 6.961 10.277 15.18 12.617 24.043l31.147 117.963c.544 2.062 1.008 4.145 1.343 6.251 1.836 11.531 2.758 23.19 2.758 34.87v58.692c0 5.163-4.185 9.348-9.348 9.348l-70.513.142c.286.026.574.044.867.044l92.204-.186c5.163 0 9.348-4.185 9.348-9.348v-58.692c0-11.679-.922-23.338-2.758-34.869z" fill="#df9380"/></g><g><path d="m221.19 292.125c-6.851-5.358-15.007-7.893-23.076-7.794-10.995.023-21.79 5.428-28.527 14.105 0 0-11.945 15.275-20.001 25.552-4.527 5.775-11.433 9.175-18.771 9.243h-.116c-12.76 0-23.11-10.333-23.13-23.093l-.084-52.396c-.005-3.212.48-6.406 1.44-9.471l5.614-17.938v-108.056c-3.223 1.995-5.918 4.921-7.584 8.647l-49.758 111.248c-2.386 5.335-5.529 10.299-9.332 14.738-5.964 6.961-10.277 15.18-12.617 24.043l-31.147 117.963c-.544 2.062-1.008 4.145-1.343 6.251-1.835 11.531-2.758 23.19-2.758 34.87v58.692c0 5.163 4.185 9.348 9.348 9.348l92.204.186c5.163 0 9.348-4.185 9.348-9.348v-64.588c0-2.212 1.537-4.128 3.697-4.606l21.712-4.81c19.018-4.213 32.565-21.052 32.617-40.521.012-4.565 1.417-9.017 4.229-12.612l49.963-63.888c3.821-4.887 2.958-11.944-1.928-15.765z" fill="#eaac9d"/></g><g><g><path d="m221.19 292.125c-3.481-2.722-7.299-4.712-11.271-6.001-.395 1.102-.962 2.163-1.722 3.136l-49.963 63.888c-2.812 3.596-4.217 8.048-4.229 12.613-.052 19.47-13.599 36.309-32.617 40.522l-28.134 7.279c-2.16.478-3.697 2.394-3.697 4.606v90.071l11.995.024c5.163 0 9.348-4.185 9.348-9.348v-64.588c0-2.212 1.537-4.128 3.697-4.606l21.712-4.81c19.018-4.213 32.566-21.052 32.617-40.522.012-4.565 1.417-9.017 4.229-12.613l49.963-63.888c3.821-4.885 2.958-11.942-1.928-15.763z" fill="#df9380"/></g></g></g></svg>