<svg id="Capa_1" enable-background="new 0 0 496.967 496.967" height="512" viewBox="0 0 496.967 496.967" width="512" xmlns="http://www.w3.org/2000/svg"><g><path d="m40.969 287.127c-2.929 2.929-2.929 7.678 0 10.606l11.29 11.29 48.654 48.654 11.291 11.291c1.464 1.464 3.384 2.197 5.303 2.197s3.839-.732 5.303-2.197c2.929-2.929 2.929-7.678 0-10.606l-11.291-11.291-48.654-48.654-11.29-11.29c-2.928-2.929-7.677-2.929-10.606 0z" fill="#ffefd2"/><path d="m75.218 252.879c-2.929 2.929-2.929 7.678 0 10.606l11.29 11.29 48.654 48.654 11.291 11.291c1.464 1.464 3.384 2.197 5.303 2.197s3.839-.732 5.303-2.197c2.929-2.929 2.929-7.678 0-10.606l-11.291-11.291-48.654-48.654-11.29-11.29c-2.929-2.929-7.678-2.929-10.606 0z" fill="#fedba6"/><path d="m173.11 285.481-59.279-59.279c-2.929-2.929-7.678-2.929-10.606 0-2.929 2.929-2.929 7.678 0 10.606l10.957 10.957s.001.001.001.001l59.279 59.279c1.464 1.464 3.384 2.197 5.303 2.197s3.839-.732 5.303-2.197c2.929-2.929 2.929-7.678 0-10.606l-10.958-10.958c0 .001 0 .001 0 0z" fill="#fedba6"/><path d="m475.345 98.86.014.014c28.808 28.808 28.815 75.512 0 104.327l-205.082 205.082-26.248-26.248 205.082-205.082c14.313-14.313 14.313-37.518 0-51.831l-.014-.014c-14.309-14.309-37.508-14.309-51.817 0l-261.679 261.679c-31.028 31.028-81.331 31.028-112.359 0-18.236-18.236-26.538-44.71-22.041-70.095 5.233-29.543 27.436-47.56 47.581-67.705 51.378-51.378 100.558-104.235 119.183-174.903 1.258-4.757 2.377-9.597 3.347-14.522 1.195-6.068 8.635-8.384 13.008-4.011l83.973 83.973c4.372 4.372 2.058 11.81-4.008 13.008-4.925.972-9.763 2.092-14.522 3.351-75.222 19.841-130.334 74.317-184.894 129.188l-.297.297c-4.646 4.632-9.553 9.1-13.923 13.909-6.053 6.689-11.031 14.057-12.735 23.469-2.454 13.583 1.768 27.931 11.533 37.752 16.27 16.369 43.657 16.278 59.941-.007l261.63-261.63c28.815-28.815 75.519-28.808 104.327-.001z" fill="#fac600"/><path d="m457.9 116.305.014.014c28.808 28.808 28.815 75.512 0 104.327l-205.082 205.081-26.248-26.248 222.527-222.527c14.313-14.313 14.313-37.518 0-51.831l-.014-.014c-14.309-14.309-37.508-14.309-51.817 0l-261.679 261.68c-31.028 31.028-81.331 31.028-112.359 0-18.236-18.236-26.538-44.71-22.041-70.095 5.233-29.543 27.436-47.56 47.581-67.705 46.64-46.64 91.467-94.497 113.272-155.791 3.049-8.571 14.029-10.994 20.462-4.561l52.699 52.699c6.475 6.475 3.935 17.433-4.69 20.508-65.594 23.387-115.855 73.143-165.656 123.228-15.331 15.22-40.342 32.676-44.399 55.119-2.454 13.583 1.768 27.931 11.533 37.752 16.27 16.37 43.657 16.278 59.941-.007l261.63-261.63c28.814-28.814 75.519-28.807 104.326.001z" fill="#fed402"/><path d="m221.065 380.462-8.011 8.011c-5.907 5.907-5.907 15.483 0 21.389l29.385 29.385c5.907 5.907 15.483 5.907 21.389 0l8.011-8.011c5.907-5.907 5.907-15.483 0-21.389l-29.385-29.385c-5.906-5.906-15.483-5.906-21.389 0z" fill="#3c87d0"/><circle cx="81.89" cy="328.048" fill="#baafb9" r="15.967"/><path d="m226.372 296.021 55.826 55.826c2.927 2.927 2.927 7.679 0 10.607-1.464 1.464-3.387 2.199-5.296 2.199-1.923 0-3.847-.735-5.31-2.199l-55.826-55.826z" fill="#ffefd2"/><path d="m278.21 244.183 55.826 55.826c2.927 2.927 2.927 7.679 0 10.607-1.464 1.464-3.387 2.199-5.296 2.199-1.923 0-3.847-.735-5.31-2.199l-55.826-55.826z" fill="#fedba6"/></g></svg>