<svg id="Capa_1" enable-background="new 0 0 512 512" height="512" viewBox="0 0 512 512" width="512" xmlns="http://www.w3.org/2000/svg"><g><path d="m363.779 0h-215.558c-19.397 0-35.121 15.724-35.121 35.12v441.758c0 19.397 15.724 35.121 35.121 35.121h215.558c19.397 0 35.121-15.724 35.121-35.121v-441.758c0-19.396-15.724-35.12-35.121-35.12z" fill="#695d67"/><path d="m146.323 476.879v-441.759c0-19.396 15.724-35.12 35.121-35.12h-33.223c-19.397 0-35.121 15.724-35.121 35.12v441.758c0 19.397 15.724 35.121 35.121 35.121h33.223c-19.397.001-35.121-15.723-35.121-35.12z" fill="#544e55"/><path d="m145.101 91.293v338.513c0 1.72 1.4 3.12 3.12 3.12h215.558c1.72 0 3.12-1.4 3.12-3.12v-338.513z" fill="#dfebfa"/><path d="m185.282 429.806v-338.513h-40.181v338.513c0 1.72 1.4 3.12 3.12 3.12h40.181c-1.72 0-3.12-1.4-3.12-3.12z" fill="#b1dbfc"/><circle cx="256" cy="471.263" fill="#544e55" r="16.035"/><path d="m363.779 53.255h-180.557v40.098h183.676v-36.979c0-1.72-1.4-3.119-3.119-3.119z" fill="#5cb3f8"/><path d="m185.283 53.255h-37.062c-1.72 0-3.12 1.399-3.12 3.119v36.979h40.182z" fill="#ff4756"/><g><path d="m281.867 34.232h-51.736c-4.267 0-7.726-3.459-7.726-7.726s3.459-7.726 7.726-7.726h51.736c4.267 0 7.726 3.459 7.726 7.726s-3.459 7.726-7.726 7.726z" fill="#544e55"/></g><g><path d="m286.418 143.612h-60.837c-4.267 0-7.726-3.459-7.726-7.726s3.459-7.726 7.726-7.726h60.837c4.267 0 7.726 3.459 7.726 7.726s-3.459 7.726-7.726 7.726z" fill="#8479c2"/></g><g><path d="m316.837 174.104h-121.674c-4.267 0-7.726-3.459-7.726-7.726s3.459-7.726 7.726-7.726h121.674c4.267 0 7.726 3.459 7.726 7.726s-3.459 7.726-7.726 7.726z" fill="#b1dbfc"/></g><g><path d="m316.837 204.598h-121.674c-4.267 0-7.726-3.459-7.726-7.726s3.459-7.726 7.726-7.726h121.674c4.267 0 7.726 3.459 7.726 7.726 0 4.266-3.459 7.726-7.726 7.726z" fill="#b1dbfc"/></g><path d="m311.836 309.266c-1.739 0-3.245 1.222-3.583 2.928-1.361 6.87-7.421 12.049-14.691 12.049s-13.33-5.179-14.691-12.049c-.338-1.705-1.844-2.928-3.583-2.928h-22.38v22.38c0 1.739-1.222 3.245-2.928 3.583-6.87 1.361-12.049 7.421-12.049 14.691s5.179 13.329 12.049 14.691c1.706.338 2.928 1.844 2.928 3.583v19.289h67.346c5.979 0 10.87-4.892 10.87-10.87v-67.346h-19.288z" fill="#43cb8e"/><path d="m260.988 260.103c-1.706-.338-2.928-1.844-2.928-3.583v-19.29h-66.316c-5.979 0-10.87 4.892-10.87 10.87v66.316h19.289c1.739 0 3.245-1.222 3.583-2.928 1.361-6.87 7.421-12.049 14.691-12.049s13.33 5.179 14.691 12.049c.338 1.706 1.844 2.928 3.583 2.928l19.289-2.06 2.06-19.289c0-1.739 1.222-3.245 2.928-3.583 6.87-1.361 12.049-7.421 12.049-14.691s-5.179-13.329-12.049-14.69z" fill="#ff656f"/><path d="m218.437 244.186c0-2.99 1.679-5.606 4.139-6.955h-30.832c-5.979 0-10.87 4.892-10.87 10.87v66.316h19.289c1.739 0 3.245-1.222 3.583-2.928 1.361-6.87 7.421-12.049 14.691-12.049z" fill="#ff4756"/><path d="m320.255 237.23h-64.255v19.289c0 1.739 1.222 3.245 2.928 3.583 6.87 1.361 12.049 7.421 12.049 14.691s-5.179 13.329-12.049 14.691c-1.706.338-2.928 1.844-2.928 3.583v19.289h19.289c1.739 0 3.245 1.222 3.583 2.928 1.361 6.87 7.421 12.049 14.691 12.049s13.33-5.179 14.691-12.049c.338-1.705 1.844-2.928 3.583-2.928h19.289v-64.256c0-5.978-4.892-10.87-10.871-10.87z" fill="#80c3fa"/><path d="m253.072 335.228c1.706-.338 2.928-1.844 2.928-3.583v-19.289h-19.29c-1.739 0-3.245-1.222-3.583-2.928-1.361-6.87-7.421-12.049-14.691-12.049s-13.33 5.179-14.691 12.049c-.338 1.706-1.844 2.928-3.583 2.928h-19.289v64.256c0 5.979 4.892 10.87 10.87 10.87h64.257v-19.289c0-1.739-1.222-3.245-2.928-3.583-6.87-1.361-12.049-7.421-12.049-14.691s5.179-13.329 12.049-14.691z" fill="#ffe181"/><path d="m218.437 380.527v-83.147c-7.27 0-13.33 5.179-14.691 12.049-.338 1.705-1.844 2.928-3.583 2.928h-19.289v64.256c0 5.979 4.892 10.87 10.87 10.87h30.832c-2.461-1.35-4.139-3.966-4.139-6.956z" fill="#fec458"/></g></svg>