<svg id="Capa_1" enable-background="new 0 0 512 512" height="512" viewBox="0 0 512 512" width="512" xmlns="http://www.w3.org/2000/svg"><g><path d="m208.053 384.796v31.521c0 12.054-5.776 23.247-15.263 29.575l-22.915 15.285h172.249l-22.915-15.285c-9.487-6.328-15.263-17.521-15.263-29.575v-31.521c-31.531 0-64.361 0-95.893 0z" fill="#b1dbfc"/><path d="m208.053 384.796v31.521c0 12.054-5.776 23.247-15.263 29.575l-22.915 15.285h55.596l.483-.322c9.487-6.328 15.263-17.521 15.263-29.575v-21.822c0-5.357 4.342-9.699 9.699-9.699h53.03v-14.963z" fill="#8bcaff"/><path d="m358.16 460.072h-204.32c-5.689 0-10.301 4.612-10.301 10.301v11.535c0 5.689 4.612 10.301 10.301 10.301h204.32c5.689 0 10.301-4.612 10.301-10.301v-11.535c0-5.689-4.612-10.301-10.301-10.301z" fill="#dfebfa"/><path d="m200.63 481.908v-11.535c0-5.689 4.612-10.301 10.301-10.301h-57.091c-5.689 0-10.301 4.612-10.301 10.301v11.535c0 5.689 4.612 10.301 10.301 10.301h57.091c-5.689 0-10.301-4.612-10.301-10.301z" fill="#b1dbfc"/><g><g><path d="m482.311 19.791h-452.622c-16.371 0-29.689 13.318-29.689 29.689v306.986c0 16.371 13.318 29.689 29.689 29.689h452.622c16.371 0 29.689-13.318 29.689-29.689v-306.986c0-16.371-13.318-29.689-29.689-29.689z" fill="#695d67"/></g></g><path d="m34.342 356.467v-306.987c0-16.371 13.318-29.689 29.689-29.689h-34.342c-16.371 0-29.689 13.318-29.689 29.689v306.986c0 16.371 13.318 29.689 29.689 29.689h34.341c-16.37.001-29.688-13.317-29.688-29.688z" fill="#554e56"/><g><path d="m32.137 88.075v2.06 259.611c0 2.36 1.912 4.272 4.272 4.272h439.182c2.359 0 4.272-1.912 4.272-4.272 0-6.921 0-186.243 0-261.671z" fill="#dfebfa"/></g><path d="m63.045 349.747v-259.611-2.06h-30.908v2.06 259.611c0 2.36 1.912 4.272 4.272 4.272h30.907c-2.359 0-4.271-1.912-4.271-4.272z" fill="#b1dbfc"/><path d="m475.591 51.928h-398.09v38.208h402.362c0-17.883 0-30.339 0-33.936 0-2.36-1.913-4.272-4.272-4.272z" fill="#5cb3f8"/><path d="m78.531 51.928h-42.122c-2.359 0-4.272 1.912-4.272 4.272v33.936h46.394z" fill="#ff656f"/><path d="m67.315 51.928h-30.906c-2.359 0-4.272 1.912-4.272 4.272v33.936h30.906v-33.936c0-2.359 1.913-4.272 4.272-4.272z" fill="#ff4756"/><path d="m316.778 124.505h-52.255c-5.448 0-9.864 4.266-9.864 9.529v176.16c0 5.263 4.416 9.529 9.864 9.529h52.255c5.448 0 9.864-4.266 9.864-9.529v-176.16c0-5.262-4.416-9.529-9.864-9.529z" fill="#fec458"/><path d="m290.65 310.194v-176.16c0-5.263 4.416-9.529 9.864-9.529h-35.991c-5.448 0-9.864 4.266-9.864 9.529v176.16c0 5.263 4.416 9.529 9.864 9.529h35.991c-5.447 0-9.864-4.266-9.864-9.529z" fill="#f9ab49"/><path d="m254.659 173.778h71.983v93.604h-71.983z" fill="#ffe181"/><path d="m254.659 173.778h35.991v93.604h-35.991z" fill="#fec458"/><path d="m246.417 124.505h-50.767c-5.293 0-9.583 4.266-9.583 9.529v176.16c0 5.263 4.291 9.529 9.583 9.529h50.767c5.293 0 9.583-4.266 9.583-9.529v-176.16c0-5.262-4.291-9.529-9.583-9.529z" fill="#5cb3f8"/><path d="m221.033 310.194v-176.16c0-5.263 4.291-9.529 9.584-9.529h-34.967c-5.293 0-9.583 4.266-9.583 9.529v176.16c0 5.263 4.291 9.529 9.583 9.529h34.967c-5.293 0-9.584-4.266-9.584-9.529z" fill="#2fa2f6"/><path d="m385.544 124.505h-50.479c-5.263 0-9.529 4.266-9.529 9.529v176.16c0 5.263 4.266 9.529 9.529 9.529h50.479c5.263 0 9.529-4.266 9.529-9.529v-176.16c0-5.262-4.266-9.529-9.529-9.529z" fill="#00ba66"/><path d="m360.305 310.194v-176.16c0-5.263 4.266-9.529 9.529-9.529h-34.768c-5.263 0-9.529 4.266-9.529 9.529v176.16c0 5.263 4.266 9.529 9.529 9.529h34.768c-5.262 0-9.529-4.266-9.529-9.529z" fill="#04a85a"/><path d="m186.066 252.187h69.934v30.39h-69.934z" fill="#8bcaff"/><path d="m186.066 252.187h34.967v30.39h-34.967z" fill="#5cb3f8"/><path d="m186.066 158.583h69.934v30.39h-69.934z" fill="#8bcaff"/><path d="m186.066 158.583h34.967v30.39h-34.967z" fill="#5cb3f8"/><path d="m325.537 252.187h69.537v30.39h-69.537z" fill="#43cb8e"/><path d="m325.537 252.187h34.768v30.39h-34.768z" fill="#00ba66"/><path d="m325.537 158.583h69.537v30.39h-69.537z" fill="#43cb8e"/><path d="m325.537 158.583h34.768v30.39h-34.768z" fill="#00ba66"/><path d="m176.934 124.505h-50.479c-5.263 0-9.529 4.266-9.529 9.529v176.16c0 5.263 4.266 9.529 9.529 9.529h50.479c5.263 0 9.529-4.266 9.529-9.529v-176.16c0-5.262-4.266-9.529-9.529-9.529z" fill="#ff656f"/><path d="m151.695 310.194v-176.16c0-5.263 4.266-9.529 9.529-9.529h-34.768c-5.263 0-9.529 4.266-9.529 9.529v176.16c0 5.263 4.266 9.529 9.529 9.529h34.768c-5.263 0-9.529-4.266-9.529-9.529z" fill="#ff4756"/><path d="m116.927 173.778h69.537v93.604h-69.537z" fill="#ff7f87"/><path d="m116.927 173.778h34.768v93.604h-34.768z" fill="#ff656f"/></g></svg>