<svg id="Capa_1" enable-background="new 0 0 497 497" height="512" viewBox="0 0 497 497" width="512" xmlns="http://www.w3.org/2000/svg"><g><path d="m215.581 231.981h24.002l-1.629 22.373c-7.029 10.168-15.259 20.945-23.971 32.202-35.709 46.103-79.479 100.169-81.551 153.322l-102.375-102.375c53.295-2.086 107.233-45.814 153.336-81.537 11.229-8.711 22.005-16.942 32.188-23.985z" fill="#fac600"/><path d="m192.755 265.328 11.868 11.868c5.347 5.347 5.887 13.833 1.253 19.809-33.901 43.717-71.526 93.685-73.443 142.873l-62.539-39.85-39.836-62.525c49.317-1.93 99.185-39.518 142.886-73.425 5.975-4.637 14.463-4.098 19.811 1.25z" fill="#fed402"/><path d="m356.09 91.472-45.064 45.064 22.373 22.373 28.68-28.68c14.071-14.071 37.229-13.753 51.704.721l29.543 29.543c14.474 14.475 14.793 37.632.721 51.704l-147.397 147.396c-14.071 14.071-37.229 13.753-51.704-.721l-20.839 5.36-4.334 19.813c13.421 13.421 31 20.124 48.585 20.131 17.579-.014 35.164-6.71 48.585-20.131l165.859-165.859c18.929-18.929 18.929-49.646 0-68.575l-58.138-58.138c-18.928-18.93-49.645-18.93-68.574-.001z" fill="#fac600"/><path d="m341.007 106.554-45.071 45.071 22.373 22.373 43.77-43.77c14.071-14.071 37.229-13.753 51.704.721l29.543 29.543c14.474 14.475 14.793 37.632.721 51.704l-162.479 162.479c-14.071 14.071-37.229 13.753-51.704-.721h-7.285l-2.805 10.09c13.421 13.421 31 20.124 48.585 20.131 17.579-.014 35.164-6.71 48.585-20.131l150.776-150.776c18.929-18.929 18.922-49.639-.007-68.568l-58.138-58.138c-18.929-18.93-49.639-18.937-68.568-.008z" fill="#fed402"/><path d="m311.025 136.542 129.295 129.294c8.786 8.786 8.786 23.03 0 31.816-2.675 2.675-5.851 4.527-9.233 5.565-7.721 2.407-16.472.546-22.583-5.565l-129.295-129.294z" fill="#fedba6"/><path d="m296.218 151.349 129.295 129.295c6.111 6.111 7.972 14.861 5.574 22.574-7.721 2.407-16.472.546-22.583-5.565l-129.295-129.295z" fill="#ffefd2"/><path d="m279.209 168.358 129.295 129.295c8.786 8.786 8.786 23.03 0 31.816-2.631 2.631-5.762 4.474-9.081 5.521-7.748 2.469-16.57.626-22.726-5.529l-129.295-129.297z" fill="#fedba6"/><path d="m264.598 182.968 129.295 129.295c6.147 6.147 7.999 14.977 5.529 22.726-7.748 2.469-16.57.626-22.726-5.529l-129.294-129.296z" fill="#ffefd2"/><path d="m247.402 200.164 129.295 129.295c8.786 8.786 8.786 23.03 0 31.816-2.899 2.899-6.397 4.84-10.083 5.825-7.498 2.004-15.845.063-21.733-5.825l-129.295-129.295z" fill="#fedba6"/><path d="m231.494 216.072 129.295 129.295c5.887 5.887 7.829 14.235 5.825 21.733-7.498 2.004-15.845.063-21.733-5.825l-129.295-129.295z" fill="#ffefd2"/><path d="m463.719 73.32-22.366-22.366-32.208 32.207-.001.001-189.37 189.37c-15.394 15.394-23.094 35.582-23.101 55.755.007 20.174 7.7 40.355 23.101 55.755l10.09-10.09c-18.441-18.441-18.434-48.345.007-66.786l201.639-201.637z" fill="#d7d0d6"/><path d="m244.954 292.085c-18.441 18.441-18.448 48.345-.007 66.786l-15.083 15.083c-18.441-18.441-18.434-48.345.007-66.786z" fill="#baafb9"/><g fill="#596c76"><circle cx="208.118" cy="192.005" r="9.49"/><circle cx="239.582" cy="160.541" r="9.49"/><circle cx="271.046" cy="129.077" r="9.49"/></g><path d="m432.496 54.622h23.48v31.63h-23.48z" fill="#baafb9" transform="matrix(.707 -.707 .707 .707 80.307 334.753)"/><path d="m482.94 73.268c-6.218 6.218-16.299 6.218-22.517 0l-19.022-19.022c-6.218-6.218-6.218-16.299 0-22.517 6.218-6.218 16.299-6.218 22.517 0l19.022 19.022c6.218 6.218 6.218 16.299 0 22.517z" fill="#3c87d0"/><path d="m27.374 334.819 107.741 107.741c6.263 6.263 6.254 16.418-.009 22.681-2.067 2.067-4.554 3.445-7.184 4.142-5.341 1.441-11.291.054-15.488-4.142l-107.741-107.741c-4.196-4.196-5.583-10.146-4.142-15.488.698-2.63 2.076-5.118 4.142-7.184 3.131-3.132 7.238-4.697 11.345-4.706 4.098 0 8.205 1.565 11.336 4.697z" fill="#fedba6"/><path d="m16.029 346.164 107.741 107.741c4.196 4.196 5.583 10.128 4.152 15.478-5.341 1.441-11.291.054-15.488-4.142l-107.741-107.741c-4.196-4.196-5.583-10.146-4.142-15.488 1.351-.367 2.747-.546 4.142-.546 4.098 0 8.205 1.566 11.336 4.698z" fill="#ffefd2"/></g></svg>