<svg id="Capa_1" enable-background="new 0 0 512 512" height="512" viewBox="0 0 512 512" width="512" xmlns="http://www.w3.org/2000/svg"><g><g><path d="m351.203 200.814.025-190.455c.001-5.698-4.618-10.317-10.315-10.318l-312.467-.041c-5.698-.001-10.317 4.618-10.318 10.315l-.025 190.455c0 2.885.806 5.712 2.327 8.164l44.19 71.188c2.069 3.333 2.069 7.552-.001 10.884l-44.209 71.175c-1.522 2.451-2.329 5.278-2.329 8.164l-.014 131.295c-.001 5.698 4.618 10.317 10.315 10.318l312.467.042c5.698.001 10.317-4.617 10.318-10.315l.014-131.296c0-2.885.807-5.713 2.329-8.164l44.209-71.175c2.07-3.333 2.071-7.551.001-10.884l-44.19-71.188c-1.521-2.451-2.327-5.279-2.327-8.164z" fill="#c1d5e4"/></g><g><path d="m397.72 280.166-44.19-71.188c-1.522-2.451-2.328-5.279-2.327-8.164l.025-190.455c.001-5.698-4.618-10.317-10.315-10.318l-29.93-.004-.021 200.777c0 2.885.806 5.713 2.327 8.164l44.19 71.188c2.069 3.333 2.069 7.552-.001 10.884l-44.209 71.175c-1.522 2.451-2.329 5.278-2.329 8.164l-.012 141.607 29.921.004c5.698.001 10.317-4.617 10.318-10.315l.014-131.296c0-2.885.807-5.713 2.33-8.164l44.209-71.175c2.069-3.333 2.069-7.551 0-10.884z" fill="#98b9d3"/></g><g><path d="m194.298 415.895h-127.089c-4.273 0-7.738-3.464-7.738-7.738s3.464-7.738 7.738-7.738h127.089c4.273 0 7.738 3.464 7.738 7.738s-3.465 7.738-7.738 7.738z" fill="#407093"/></g><g><path d="m288.309 415.895h-54.807c-4.273 0-7.738-3.464-7.738-7.738s3.464-7.738 7.738-7.738h54.807c4.273 0 7.737 3.464 7.737 7.738s-3.464 7.738-7.737 7.738z" fill="#407093"/></g><g><path d="m196.619 449.941h-129.41c-4.273 0-7.738-3.464-7.738-7.738s3.464-7.738 7.738-7.738h129.41c4.273 0 7.738 3.464 7.738 7.738s-3.464 7.738-7.738 7.738z" fill="#407093"/></g><g><g><path d="m288.309 253.182h-189.645c-4.273 0-7.738-3.464-7.738-7.738s3.464-7.738 7.738-7.738h189.645c4.273 0 7.737 3.464 7.737 7.738s-3.464 7.738-7.737 7.738z" fill="#407093"/></g></g><g><path d="m399.272 285.607-333.1-.042c-.001 1.887-.518 3.774-1.553 5.44l-44.209 71.176c-.73 1.175-1.29 2.439-1.681 3.752l333.101.042c.391-1.312.951-2.575 1.681-3.749l44.209-71.175c1.034-1.667 1.551-3.556 1.552-5.444z" fill="#dae7ef"/></g><g><path d="m351.203 200.814.025-190.455c.001-5.698-4.618-10.317-10.315-10.318l-312.467-.041c-5.698-.001-10.317 4.618-10.318 10.315l-.025 190.455c0 1.502.223 2.988.648 4.414l333.1.045c-.425-1.427-.648-2.912-.648-4.415z" fill="#dae7ef"/></g><g><path d="m310.962 200.814c0 1.501.223 2.984.646 4.408l40.242.005c-.424-1.426-.648-2.912-.648-4.414l.025-190.455c.001-5.698-4.618-10.317-10.315-10.318l-29.93-.004z" fill="#c1d5e4"/></g><g><path d="m359.03 285.602c.001 1.89-.516 3.78-1.553 5.448l-44.209 71.175c-.728 1.173-1.288 2.434-1.679 3.744l40.239.005c.391-1.312.951-2.575 1.681-3.749l44.209-71.175c1.035-1.667 1.553-3.555 1.553-5.443z" fill="#c1d5e4"/></g><g><g><path d="m252.973 89.509c-8.603 7.686-11.672 19.047-9.214 29.358.179.749-.498 1.425-1.247 1.246-10.31-2.468-21.674.592-29.368 9.188-9.947 11.113-10.113 28.199-.366 39.488 8.151 9.44 20.644 12.475 31.586 9.101 8.313-2.563 16.891-4.167 25.575-4.686l2.026-.121c7.506-.448 15.038-.107 22.472 1.018l2.435.368c.698.106 1.299-.495 1.194-1.193l-.366-2.436c-1.118-7.435-1.452-14.968-.997-22.473l.123-2.027c.527-8.683 2.138-17.259 4.709-25.569 3.384-10.94.361-23.435-9.073-31.596-11.281-9.754-28.367-9.603-39.489.334z" fill="#dd5790"/></g></g><g><path d="m130.119 51.428h-62.91c-4.273 0-7.738-3.464-7.738-7.738s3.464-7.738 7.738-7.738h62.91c4.273 0 7.738 3.464 7.738 7.738s-3.465 7.738-7.738 7.738z" fill="#407093"/></g><g><path d="m194.298 104.282h-127.089c-4.273 0-7.738-3.464-7.738-7.738s3.464-7.738 7.738-7.738h127.089c4.273 0 7.738 3.464 7.738 7.738s-3.465 7.738-7.738 7.738z" fill="#407093"/></g><g><path d="m168.429 138.327h-101.22c-4.273 0-7.738-3.464-7.738-7.738s3.464-7.738 7.738-7.738h101.219c4.273 0 7.738 3.464 7.738 7.738 0 4.275-3.464 7.738-7.737 7.738z" fill="#407093"/></g><g><g><path d="m288.309 332.234h-54.807c-4.273 0-7.738-3.464-7.738-7.738s3.464-7.737 7.738-7.737h54.807c4.273 0 7.737 3.464 7.737 7.737 0 4.274-3.464 7.738-7.737 7.738z" fill="#407093"/></g><g><path d="m196.619 332.234h-97.955c-4.273 0-7.738-3.464-7.738-7.738s3.464-7.737 7.738-7.737h97.955c4.273 0 7.738 3.464 7.738 7.737 0 4.274-3.464 7.738-7.738 7.738z" fill="#407093"/></g></g><g><g><path d="m465.208 442.751c-4.273 0-7.738-3.464-7.738-7.737v-41.783c0-4.274 3.464-7.738 7.738-7.738s7.738 3.464 7.738 7.738v41.783c-.001 4.273-3.465 7.737-7.738 7.737z" fill="#407093"/></g><g><path d="m403.727 221.071c-4.273 0-7.738-3.464-7.738-7.738v-71.285c0-12.848 5.573-25.037 15.29-33.442l23.962-20.727c3.233-2.796 8.119-2.441 10.914.79 2.796 3.232 2.442 8.118-.79 10.913l-23.963 20.728c-6.316 5.464-9.938 13.386-9.938 21.738v71.285c0 4.275-3.464 7.738-7.737 7.738z" fill="#98b9d3"/></g><g><path d="m441.64 158.897-5.158 16.474v181.615c0 14.904 3.442 29.606 10.059 42.961 7.652 15.445 29.681 15.445 37.333 0 6.616-13.355 10.059-28.057 10.059-42.961v-181.614l-5.158-16.474h-47.135z" fill="#407093"/></g><g><path d="m488.775 158.897h-23.003l5.158 16.474v181.615c0 14.904-3.442 29.606-10.059 42.961-1.75 3.531-4.256 6.246-7.165 8.162 9.814 6.466 24.266 3.751 30.168-8.162 6.616-13.355 10.059-28.057 10.059-42.961v-181.614z" fill="#2b4d66"/></g><g><circle cx="403.727" cy="213.334" fill="#c1d5e4" r="13.766"/></g><g><path d="m436.482 175.372h57.451v-104.468c0-5.698-4.619-10.317-10.317-10.317h-36.818c-5.698 0-10.317 4.619-10.317 10.317v104.468z" fill="#dae7ef"/></g><g><path d="m483.616 60.587h-23.003c5.698 0 10.317 4.619 10.317 10.317v104.468h23.003v-104.469c0-5.697-4.619-10.316-10.317-10.316z" fill="#c1d5e4"/></g></g></g></svg>