<svg id="Capa_1" enable-background="new 0 0 496.995 496.995" height="512" viewBox="0 0 496.995 496.995" width="512" xmlns="http://www.w3.org/2000/svg"><g><path d="m214.875 108.478-35.58 20.54-110.8 63.97-28.393-45.502 107.223-78.508 35.57-20.53.01-.01z" fill="#3c87d0"/><path d="m186.674 142.419 39.752 89.619-15.569 34.929-41.128-2.196-57.735-79.235z" fill="#a44f3e"/><path d="m163.969 155.528 41.491 88.609-8.53 22.83-27.201-2.196-57.735-79.235z" fill="#bb5d4c"/><path d="m349.157 449.673c9.289 13.597 5.791 32.741-7.809 42.067-4.233 2.9-8.953 4.549-13.734 5.04-12.33 1.294-25.049-5.036-30.744-16.966l-26.388-55.39c-27.152-56.996-65.093-107.821-100.753-159.658l56.697-32.734c26.636 56.123 51.341 113.561 86.598 164.965z" fill="#d8aa5e"/><path d="m328.19 461.778c7.329 10.729 6.701 24.917-.577 35.002-12.33 1.294-25.049-5.036-30.744-16.966l-26.388-55.39c-27.152-56.996-65.093-107.821-100.753-159.658l20.093-11.601 15.637-9.028c26.636 56.123 51.341 113.561 86.599 164.964z" fill="#e9b665"/><path d="m147.325 68.978-114.84 66.3-4.5-7.21c-13.69-21.93-16.2-50.43-4.5-73.75 5.14-10.24 12.74-19.25 21.76-26.85 15.66-13.2 35.63-22.17 54.54-26.06 31.81-6.57 64.25 11.34 79.11 39.53l4 7.51z" fill="#e41f2d"/><path d="m204.875 182.368c-13.66 12.71-32.22 26.41-52.08 34.34-17.78 7.1-36.59 9.56-53.8 2.51-12.18-4.98-23.04-14.01-30.5-26.22v-.01l110.8-63.97 35.58-20.54v.01c13.7 25.13 9.56 55.66-10 73.88z" fill="#e41f2d"/><path d="m158.895 53.638-54.89 31.7c-.01.01-.03.01-.04.01z" fill="#e41f2d"/><path d="m147.325 68.978-114.84 66.3-4.5-7.21c-13.69-21.93-16.2-50.43-4.5-73.75 5.14-10.24 12.74-19.25 21.76-26.85 6.31-2.38 12.69-4.22 18.96-5.52 31.8-6.56 64.25 11.35 79.12 39.53z" fill="#fd4755"/><path d="m169.295 202.908c-4.91 4.58-10.47 9.28-16.5 13.8-17.78 7.1-36.59 9.56-53.8 2.51-12.18-4.98-23.04-14.01-30.5-26.22v-.01l110.8-63.97c13.7 25.14 9.56 55.67-10 73.89z" fill="#fd4755"/><path d="m190.319 62.357 24.559 46.118-35.585 20.545-31.972-60.038z" fill="#0078c8"/><path d="m32.486 135.277 71.598 37.168 3.61-80.589z" fill="#fed402"/><path d="m182.906 48.437-3.613 80.583-31.972-60.038z" fill="#fac600"/><path d="m147.321 68.982 31.972 60.038-71.593-37.163z" fill="#fed402"/><path d="m189.825 61.438-2.43 54.24-11.63 6.72-3.02-5.68 2.06-54.94 11.63-6.72z" fill="#fac600"/><path d="m175.765 122.398-12.08 6.97-42.857-22.251c-2.875-1.493-6.329.501-6.474 3.737l-2.168 48.243v.01l-23.7 13.68h-.01l-48.19-25.01-3.83-6.13 11.64-6.72 49.02 25.45 2.47-55.18 23.72-13.69 49.44 25.21z" fill="#fac600"/><g fill="#fed402"><circle cx="47.603" cy="96.105" r="7.5"/><circle cx="78.889" cy="78.042" r="7.5"/><circle cx="110.174" cy="59.98" r="7.5"/><circle cx="123.616" cy="190.422" r="7.5"/><circle cx="154.901" cy="172.36" r="7.5"/><circle cx="186.187" cy="154.297" r="7.5"/><circle cx="141.46" cy="41.917" r="7.5"/></g><path d="m182.815 135.638-.21.12-74.57 43.06-.26.15-35.01 20.21c-1.52-1.96-2.95-4.02-4.27-6.18v-.01l-3.97-6.37 23.95-13.83h.01l23.7-13.68v-.01l51.5-29.73 12.08-6.97 11.563 1.983z" fill="#0ab69f"/><path d="m218.095 115.278-34.83 20.1-.45.26-7.05-13.24 11.63-6.72 23.95-13.83 3.53 6.63v.01c1.21 2.22 2.29 4.49 3.22 6.79z" fill="#01998d"/><path d="m150.855 75.608-27.55 15.9-23.72 13.69-51.49 29.73-11.64 6.72-3.97-6.37-3.97-6.36.02-.02 75.41-43.54.02-.01c.01 0 .03 0 .04-.01l39.79-22.98 11.106 2.248z" fill="#0ab69f"/><path d="m186.435 55.058-11.63 6.72-23.95 13.83-7.06-13.25 15.1-8.72 20.47-11.82 3.53 6.63.01-.01z" fill="#01998d"/><path d="" fill="#e41f2d"/><path d="m428.566 192.952-35.578-20.543-110.8-63.971 25.048-47.035 121.763 53.299 35.564 20.54.014.003z" fill="#3c87d0"/><path d="m385.072 185.5-57.736 79.236h-35.057l-21.64-32.734 39.752-89.618z" fill="#a44f3e"/><path d="m362.366 172.392-55.992 80.236-25.083-4.13-10.652-16.496 39.752-89.618z" fill="#bb5d4c"/><path d="m200.223 479.842c-7.131 14.843-25.459 21.386-40.335 14.271-4.628-2.216-8.416-5.479-11.232-9.374-7.285-10.031-8.163-24.211-.679-35.108l34.775-50.548c35.784-52.012 60.829-110.282 87.892-167.083l56.697 32.734c-35.286 51.13-72.676 101.243-99.564 157.479z" fill="#d8aa5e"/><path d="m179.257 467.737c-5.627 11.711-18.228 18.262-30.601 17.002-7.285-10.031-8.163-24.211-.679-35.108l34.775-50.548c35.784-52.012 60.829-110.282 87.892-167.083l35.731 20.629c-35.286 51.13-72.676 101.243-99.564 157.479z" fill="#e9b665"/><path d="m428.999 114.702-114.837-66.304 3.994-7.502c12.147-22.821 35.574-39.245 61.619-40.772 11.438-.669 23.041 1.408 34.133 5.42 19.262 6.962 37.015 19.771 49.839 34.203 21.595 24.263 22.304 61.312 5.321 88.276l-4.504 7.219z" fill="#e41f2d"/><path d="m359.575 221.237c-17.837-5.475-38.982-14.698-55.779-27.933-15.039-11.848-26.574-26.908-29.074-45.337-1.777-13.038.613-26.958 7.457-39.524l.009-.005 110.8 63.971 35.578 20.543-.009.005c-14.913 24.43-43.423 36.109-68.982 28.28z" fill="#e41f2d"/><path d="m448.069 117.052-54.898-31.686c-.014-.004-.024-.021-.029-.03z" fill="#e41f2d"/><path d="m428.999 114.702-114.837-66.304 3.994-7.502c12.147-22.821 35.574-39.245 61.619-40.772 11.438-.669 23.041 1.408 34.133 5.42 5.216 4.275 10 8.88 14.26 13.66 21.581 24.26 22.296 61.317 5.326 88.285z" fill="#fd4755"/><path d="m323.997 200.694c-6.421-1.962-13.272-4.427-20.201-7.389-15.039-11.848-26.574-26.908-29.074-45.337-1.777-13.038.613-26.958 7.457-39.524l.009-.005 110.8 63.971c-14.922 24.434-43.432 36.113-68.991 28.284z" fill="#fd4755"/><path d="m456.401 148.351-27.83 44.602-35.585-20.545 36.007-57.707z" fill="#0078c8"/><path d="m314.163 48.399 3.61 80.59 71.598-37.169z" fill="#fed402"/><path d="m464.579 135.246-71.593 37.162 36.007-57.707z" fill="#fac600"/><path d="m428.993 114.701-36.007 57.707-3.613-80.582z" fill="#fed402"/><path d="m456.779 147.738-48.188 25.016-11.635-6.712 3.409-5.455 48.609-25.686 11.635 6.711z" fill="#fac600"/><path d="m396.956 166.042-12.076-6.977-2.159-48.241c-.145-3.236-3.598-5.231-6.474-3.738l-42.864 22.244-.009.005-23.697-13.685-.005-.009-2.436-54.239 3.394-6.382 11.64 6.72 2.47 55.178 49.022-25.451 23.716 13.697 2.888 55.421z" fill="#fac600"/><circle cx="355.646" cy="41.904" fill="#fed402" r="7.5"/><circle cx="386.931" cy="59.967" fill="#fed402" r="7.5"/><circle cx="418.217" cy="78.03" fill="#fed402" r="7.5"/><circle cx="311.97" cy="154.892" fill="#fed402" r="7.5"/><circle cx="343.256" cy="172.955" fill="#fed402" r="7.5"/><circle cx="374.541" cy="191.017" fill="#fed402" r="7.5"/><circle cx="449.502" cy="96.092" fill="#fed402" r="7.5"/><path d="m389.015 178.767-.209-.122-74.576-43.049-.26-.15-35.007-20.214c.937-2.296 2.006-4.565 3.217-6.788l.009-.005 3.532-6.623 23.952 13.826.005.009 23.697 13.685.009-.005 51.497 29.735 12.076 6.977 4.723 9.017z" fill="#0ab69f"/><path d="m424.287 199.141-34.822-20.113-.45-.26 7.941-12.725 11.635 6.712 23.952 13.826-3.977 6.372-.009.005c-1.317 2.157-2.743 4.227-4.27 6.183z" fill="#01998d"/><path d="m425.022 121.074-27.545-15.909-23.716-13.697-51.491-29.727-11.64-6.72 3.532-6.623 3.523-6.618.027.007 75.412 43.537.019.012c.005.009.015.026.029.03l39.796 22.969 3.792 12.34z" fill="#0ab69f"/><path d="m460.609 141.612-11.635-6.711-23.952-13.827 7.945-12.739 15.102 8.717 20.471 11.818-3.977 6.372.014.003z" fill="#01998d"/><path d="" fill="#e41f2d"/></g></svg>