<svg id="Capa_1" enable-background="new 0 0 512 512" height="512" viewBox="0 0 512 512" width="512" xmlns="http://www.w3.org/2000/svg"><g><g><g><path d="m255.944 433.207c-65.072 0-118.012-52.94-118.012-118.012s52.94-118.012 118.012-118.012 118.012 52.94 118.012 118.012c-.001 65.072-52.941 118.012-118.012 118.012zm0-205.256c-48.107 0-87.244 39.137-87.244 87.244 0 48.106 39.137 87.244 87.244 87.244 48.106 0 87.244-39.137 87.244-87.244-.001-48.106-39.138-87.244-87.244-87.244z" fill="#dd5790"/></g></g><g><path d="m331.606 224.705c17.169 20.5 27.523 46.893 27.523 75.663 0 65.072-52.94 118.012-118.012 118.012-28.769 0-55.163-10.353-75.663-27.523 21.665 25.868 54.187 42.35 90.49 42.35 65.072 0 118.012-52.94 118.012-118.012-.001-36.303-16.482-68.824-42.35-90.49z" fill="#da387d"/></g><g><path d="m295.28 210.996h-78.585l11.114 41.795c3.397 12.774 14.961 21.665 28.179 21.665 13.218 0 24.782-8.891 28.179-21.665z" fill="#dd5790"/></g><g><path d="m267.692 210.996-8.659 32.564c-3.081 11.587-12.889 19.954-24.548 21.414 5.392 5.888 13.109 9.482 21.502 9.482 13.218 0 24.782-8.891 28.179-21.665l11.114-41.795z" fill="#da387d"/></g><g><path d="m255.987 282.148c-16.682 0-31.326-11.259-35.612-27.381l-11.114-41.795c-.614-2.309-.12-4.771 1.336-6.665s3.709-3.004 6.098-3.004h78.585c2.389 0 4.642 1.11 6.098 3.004s1.95 4.356 1.336 6.665l-11.114 41.796c-4.287 16.121-18.931 27.38-35.613 27.38zm-29.288-63.459 8.543 32.126c2.497 9.391 11.028 15.95 20.745 15.95s18.248-6.559 20.745-15.95l8.543-32.126z" fill="#c1d5e4"/></g><g><g><path d="m193.732 492.1-61.725-84.085c-3.995-5.443-9.526-9.567-15.882-11.844l-4.557-1.632c-5.331-1.909-8.887-6.961-8.887-12.624 0-7.406 6.003-13.409 13.409-13.409h1.172c17.956 0 35.317 6.435 48.935 18.138l45.362 38.984z" fill="#ffcbbe"/></g></g><g><path d="m205.589 447.887-45.2-42.385c-14.112-13.233-32.5-20.97-51.828-21.808l-1.262-.055c-1.535-.067-3.023.114-4.43.498-.122-.726-.189-1.467-.189-2.221 0-7.406 6.003-13.409 13.409-13.409h1.172c17.956 0 35.317 6.435 48.935 18.138l45.362 38.984z" fill="#eaac9d"/></g><g><path d="m33.143 58.873 36.436-41.299c20.711-23.475 57.329-23.425 77.976.106l34.139 38.909-6.841 9.442c-14.059 19.404-36.567 30.892-60.529 30.892h-12.984c-21.803 0-43.345-4.747-63.128-13.912-9.336-4.326-11.877-16.421-5.069-24.138z" fill="#407093"/></g><path d="m147.554 17.68c-16.289-18.565-42.515-22.501-63.032-11.813 5.527 2.88 10.643 6.81 15.032 11.813l26.45 30.145c4.498 5.126 4.85 12.683.849 18.205-11.184 15.437-27.719 25.856-46.077 29.474 6.797.94 13.667 1.418 20.564 1.418h12.984c23.961 0 46.47-11.488 60.529-30.892l6.841-9.442z" fill="#2b4d66"/><g><path d="m478.857 58.873-36.436-41.299c-20.711-23.475-57.329-23.425-77.976.106l-34.139 38.909 6.841 9.442c14.059 19.404 36.567 30.892 60.529 30.892h12.984c21.803 0 43.345-4.747 63.128-13.912 9.336-4.326 11.877-16.421 5.069-24.138z" fill="#407093"/></g><path d="m478.857 58.873-36.436-41.299c-16.359-18.542-42.636-22.393-63.135-11.603 5.418 2.85 10.438 6.709 14.76 11.608l36.436 41.299c6.808 7.716 4.267 19.811-5.07 24.137-13.456 6.234-27.726 10.418-42.338 12.461 4.764.949 9.651 1.447 14.601 1.447h12.984c21.803 0 43.345-4.747 63.128-13.912 9.337-4.326 11.878-16.421 5.07-24.138z" fill="#2b4d66"/><g><path d="m309.93 216.124h-107.886c-41.137 0-74.486-33.349-74.486-74.486v-53.165c0-41.137 33.349-74.486 74.486-74.486h107.886c41.137 0 74.486 33.349 74.486 74.486v53.165c0 41.138-33.348 74.486-74.486 74.486z" fill="#407093"/></g><path d="m309.93 13.987h-44.438c41.137 0 74.486 33.349 74.486 74.486v53.165c0 41.137-33.349 74.486-74.486 74.486h44.438c41.137 0 74.486-33.349 74.486-74.486v-53.165c0-41.137-33.348-74.486-74.486-74.486z" fill="#2b4d66"/><g><path d="m286.575 244.53-23.044-17.876c-4.439-3.444-10.648-3.444-15.087 0l-23.044 17.876c-20.449 15.863-50.198 1.289-50.198-24.591v-37.196c0-29.6 23.996-53.596 53.596-53.596h54.381c29.6 0 53.596 23.996 53.596 53.596v37.196c-.002 25.881-29.752 40.454-50.2 24.591z" fill="#dae7ef"/></g><g><path d="m283.177 129.148h-45.851c29.6 0 53.596 23.996 53.596 53.596v37.196c0 8.624-3.315 15.982-8.477 21.387l4.13 3.204c20.449 15.863 50.198 1.289 50.198-24.591v-37.196c0-29.6-23.995-53.596-53.596-53.596z" fill="#c1d5e4"/></g><g><g><path d="m299.766 319.207c3.183-7.617 10.7-12.971 19.472-12.971 11.652 0 21.098 9.446 21.098 21.098v101.417c0 11.749-5.047 22.317-13.089 29.66-3.019 2.757-4.796 6.615-4.796 10.703v36.732c0 3.399-2.755 6.154-6.154 6.154h-123.6c-3.399 0-6.154-2.755-6.154-6.154v-45.807c-9.14-7.362-14.993-18.638-14.993-31.288v-101.417c0-11.652 9.446-21.098 21.098-21.098 8.771 0 16.289 5.354 19.472 12.971.271.649.923 1.057 1.626 1.057s1.355-.408 1.626-1.057c3.183-7.617 10.7-12.971 19.472-12.971 8.771 0 16.289 5.354 19.472 12.971.271.649.923 1.057 1.626 1.057s1.355-.408 1.626-1.057c3.183-7.617 10.7-12.971 19.472-12.971 8.771 0 16.289 5.354 19.472 12.971.271.649.923 1.057 1.626 1.057s1.357-.407 1.628-1.057z" fill="#ffcbbe"/></g></g><g><path d="m319.238 306.236c-3.926 0-7.596 1.079-10.743 2.947 6.207 3.673 10.383 10.416 10.383 18.152v101.417c0 11.749-5.047 22.317-13.089 29.66-3.019 2.757-4.796 6.615-4.796 10.703v42.885h15.305c3.399 0 6.154-2.755 6.154-6.154v-36.732c0-4.089 1.776-7.946 4.796-10.703 8.042-7.343 13.089-17.911 13.089-29.66v-101.417c-.001-11.652-9.447-21.098-21.099-21.098z" fill="#eaac9d"/></g><g><circle cx="317.303" cy="110.984" fill="#61a2f9" r="12.593"/></g><g><circle cx="194.671" cy="110.984" fill="#61a2f9" r="12.593"/></g><g><path d="m262.048 212.501 27.176-31.539c7.154-8.302 1.255-21.17-9.704-21.17h-47.066c-10.959 0-16.857 12.868-9.704 21.17l27.176 31.539c3.192 3.703 8.93 3.703 12.122 0z" fill="#407093"/></g><path d="m279.52 159.791h-9.709c1.774 4.191 1.388 9.304-2.09 13.341l-25.858 30.01 8.064 9.358c3.192 3.704 8.93 3.704 12.121 0l27.176-31.539c7.153-8.302 1.255-21.17-9.704-21.17z" fill="#2b4d66"/></g></svg>