<svg id="Capa_1" enable-background="new 0 0 493.32 493.32" height="512" viewBox="0 0 493.32 493.32" width="512" xmlns="http://www.w3.org/2000/svg"><g><path d="m459.37 413.448-11.15 6.51-12.2 7.13-3.07 1.79-140.6-240.75c-.7-1.2-1.04-2.52-1.03-3.82.01-2.58 1.34-5.09 3.73-6.48l2.27-1.33 11.15-6.51c3.59-2.09 8.2-.88 10.3 2.71z" fill="#d7d0d6"/><path d="m448.22 419.958-12.2 7.13-3.07 1.79-140.6-240.75c-.7-1.2-1.04-2.52-1.03-3.82.01-2.58 1.34-5.09 3.73-6.48l2.27-1.33c3.59-2.09 8.2-.88 10.3 2.71z" fill="#e5e1e5"/><path d="m489.59 464.048-12.16 7.1c-.02.01-.03.02-.05.03l-15.2 8.87c-3.93 2.3-8.98.61-10.74-3.58l-23.76-56.62 14.22-8.3 12.2-7.13 37.64 48.51c2.79 3.6 1.77 8.82-2.15 11.12z" fill="#fac600"/><path d="m477.43 471.148c-.02.01-.03.02-.05.03l-15.2 8.87c-3.93 2.3-8.98.61-10.74-3.58l-23.76-56.62 15.27-8.913 36.58 49.123c2.78 3.58 1.79 8.77-2.1 11.09z" fill="#fed402"/><path d="m341.95 356.068-131.72-225.39c-8.22-14.05-24.23-19.04-37.98-14.96-7.57 2.24-14.46 7.23-18.98 14.96l-148.71 254.46c-12.86 21.99 3.01 49.63 28.48 49.63h243.06c10.74 0 19.45-8.71 19.45-19.45 0-5.37-2.18-10.23-5.7-13.75s-8.38-5.7-13.75-5.7h-208.98c-8.37 0-13.66-8.98-9.62-16.3l114.64-207.3c4.18-7.56 15.04-7.56 19.22 0l113.34 204.98c2.16 3.9 5.43 6.95 9.29 8.85 2.89 1.43 6.13 2.21 9.46 2.21 16.55 0 26.85-17.96 18.5-32.24z" fill="#d7d0d6"/><path d="m322.95 356.068-131.72-225.39c-4.52-7.73-11.41-12.72-18.98-14.96-7.57 2.24-14.46 7.23-18.98 14.96l-148.71 254.46c-12.86 21.99 3.01 49.63 28.48 49.63h224.06c10.74 0 19.45-8.71 19.45-19.45 0-5.37-2.18-10.23-5.7-13.75s-8.38-5.7-13.75-5.7h-208.98c-8.37 0-13.66-8.98-9.62-16.3l114.64-207.3c13.31-24.22 32.98-10.6 38.22 0l113.34 204.98c2.16 3.9 5.43 6.95 9.29 8.85 10.53-5.22 15.55-18.77 8.96-30.03z" fill="#e5e1e5"/><path d="m197.05 27.018v190.65c0 8.45-6.85 15.3-15.3 15.3-2.79 0-5.4-.74-7.65-2.05-4.57-2.64-7.65-7.59-7.65-13.25v-190.65c0-6.42 3.27-10.76 7.67-13 9.06-4.6 22.93-.29 22.93 13z" fill="#0078c8"/><path d="m181.75 27.018v190.65c0 5.66-3.08 10.61-7.65 13.25-4.57-2.64-7.65-7.59-7.65-13.25v-190.65c0-6.42 3.27-10.76 7.67-13 4.38 2.24 7.63 6.57 7.63 13z" fill="#3c87d0"/></g></svg>