<svg id="Capa_1" enable-background="new 0 0 512 512" height="512" viewBox="0 0 512 512" width="512" xmlns="http://www.w3.org/2000/svg"><g><path d="m356.342 167.837c-48.907 0-84.433-30.375-84.433-79.283 0-19.626 6.395-37.752 17.2-52.432h-154.858l-67.147 67.148v393.59c0 8.362 6.778 15.14 15.14 15.14h284.555c8.362 0 15.14-6.779 15.14-15.14v-332.795c-8.106 2.443-16.695 3.772-25.597 3.772z" fill="#dfebfa"/><path d="m100.677 69.696-33.573 33.574v393.59c0 8.362 6.778 15.14 15.14 15.14h18.434v-442.304z" fill="#b1dbfc"/><path d="m67.104 103.27h52.008c8.362 0 15.14-6.778 15.14-15.14v-52.008z" fill="#dfebfa"/><path d="m67.104 103.27h52.008c8.362 0 15.14-6.778 15.14-15.14v-52.008z" fill="#b1dbfc"/><path d="m67.104 103.27h33.573l33.574-33.574v-33.574z" fill="#8bcaff"/><circle cx="356.342" cy="88.554" fill="#ff656f" r="88.554"/><path d="m309.485 88.554c0-41.723 28.863-76.685 67.706-86.062-6.689-1.615-13.665-2.492-20.849-2.492-48.907 0-88.554 39.647-88.554 88.554s39.647 88.554 88.554 88.554c7.184 0 14.16-.877 20.848-2.492-38.842-9.377-67.705-44.339-67.705-86.062z" fill="#ff4756"/><g><path d="m126.132 222.712-15.764-15.764c-5.66-5.66-5.66-14.837 0-20.498s14.838-5.661 20.498 0l5.516 5.515 13.457-13.457c5.66-5.661 14.838-5.661 20.498 0 5.66 5.66 5.66 14.837 0 20.498l-23.706 23.706c-5.66 5.66-14.839 5.66-20.499 0z" fill="#43cb8e"/></g><g><path d="m126.132 299.31-15.764-15.764c-5.66-5.66-5.66-14.837 0-20.498s14.838-5.661 20.498 0l5.516 5.515 13.457-13.457c5.66-5.661 14.838-5.661 20.498 0 5.66 5.66 5.66 14.837 0 20.498l-23.707 23.706c-5.659 5.66-14.838 5.661-20.498 0z" fill="#43cb8e"/></g><g><path d="m126.132 375.908-15.764-15.764c-5.66-5.66-5.66-14.837 0-20.498s14.838-5.661 20.498 0l5.516 5.515 13.457-13.457c5.66-5.661 14.838-5.661 20.498 0 5.66 5.66 5.66 14.837 0 20.498l-23.706 23.706c-5.66 5.66-14.839 5.661-20.499 0z" fill="#43cb8e"/></g><path d="m333.291 185.363h-116.628c-5.318 0-9.629 4.311-9.629 9.629v11.236c0 5.318 4.311 9.629 9.629 9.629h116.628c5.318 0 9.629-4.311 9.629-9.629v-11.236c0-5.318-4.311-9.629-9.629-9.629z" fill="#8479c2"/><path d="m333.291 261.961h-116.628c-5.318 0-9.629 4.311-9.629 9.629v11.236c0 5.318 4.311 9.629 9.629 9.629h116.628c5.318 0 9.629-4.311 9.629-9.629v-11.236c0-5.318-4.311-9.629-9.629-9.629z" fill="#8479c2"/><path d="m333.291 338.559h-116.628c-5.318 0-9.629 4.311-9.629 9.629v11.236c0 5.318 4.311 9.629 9.629 9.629h116.628c5.318 0 9.629-4.311 9.629-9.629v-11.236c0-5.318-4.311-9.629-9.629-9.629z" fill="#8479c2"/><g><path d="m126.132 452.506-15.764-15.764c-5.66-5.66-5.66-14.837 0-20.498s14.838-5.661 20.498 0l5.516 5.515 13.457-13.457c5.66-5.661 14.838-5.661 20.498 0 5.66 5.66 5.66 14.837 0 20.498l-23.706 23.706c-5.66 5.661-14.839 5.661-20.499 0z" fill="#43cb8e"/></g><path d="m333.291 415.157h-116.628c-5.318 0-9.629 4.311-9.629 9.629v11.236c0 5.318 4.311 9.629 9.629 9.629h116.628c5.318 0 9.629-4.311 9.629-9.629v-11.236c0-5.318-4.311-9.629-9.629-9.629z" fill="#8479c2"/><g fill="#6e60b8"><path d="m260.453 206.227v-11.236c0-5.318 4.311-9.629 9.629-9.629h-53.419c-5.318 0-9.629 4.311-9.629 9.629v11.236c0 5.318 4.311 9.629 9.629 9.629h53.419c-5.318 0-9.629-4.311-9.629-9.629z"/><path d="m260.453 282.825v-11.235c0-5.318 4.311-9.629 9.629-9.629h-53.419c-5.318 0-9.629 4.311-9.629 9.629v11.236c0 5.318 4.311 9.629 9.629 9.629h53.419c-5.318-.001-9.629-4.312-9.629-9.63z"/><path d="m260.453 359.424v-11.236c0-5.318 4.311-9.629 9.629-9.629h-53.419c-5.318 0-9.629 4.311-9.629 9.629v11.236c0 5.318 4.311 9.629 9.629 9.629h53.419c-5.318-.001-9.629-4.311-9.629-9.629z"/><path d="m260.453 436.022v-11.236c0-5.318 4.311-9.629 9.629-9.629h-53.419c-5.318 0-9.629 4.311-9.629 9.629v11.236c0 5.318 4.311 9.629 9.629 9.629h53.419c-5.318 0-9.629-4.311-9.629-9.629z"/></g><g fill="#dfebfa"><path d="m356.697 55.113c-1.3-2.542-3.938-4.205-6.877-4.21-2.97 0-5.614 1.712-6.888 4.21l-37.551 73.609c-1.939 3.801-.43 8.455 3.371 10.394 3.802 1.938 8.454.43 10.393-3.372l11.593-22.725h38.15l11.593 22.725c1.941 3.805 6.597 5.308 10.394 3.372 3.801-1.939 5.31-6.592 3.372-10.394zm-18.075 42.454 11.192-21.939 11.192 21.939z"/><path d="m400.42 39.583h-7.07v-7.07c0-4.267-3.459-7.726-7.726-7.726s-7.726 3.459-7.726 7.726v7.07h-7.07c-4.267 0-7.726 3.459-7.726 7.726s3.459 7.726 7.726 7.726h7.07v7.07c0 4.267 3.459 7.726 7.726 7.726s7.726-3.459 7.726-7.726v-7.07h7.07c4.267 0 7.726-3.459 7.726-7.726s-3.458-7.726-7.726-7.726z"/></g></g></svg>