<svg id="Capa_1" enable-background="new 0 0 512 512" height="512" viewBox="0 0 512 512" width="512" xmlns="http://www.w3.org/2000/svg"><g><g><path d="m371.723 142.348c-2.178 0-4.341-.919-5.863-2.707-2.756-3.236-2.367-8.093.87-10.849l94.913-80.829c3.235-2.757 8.093-2.366 10.849.87s2.367 8.093-.87 10.849l-94.913 80.829c-1.448 1.234-3.222 1.837-4.986 1.837z" fill="#c1d5e4"/></g><g><circle cx="474.309" cy="47.286" fill="#dae7ef" r="19.25"/></g><g><path d="m381.273 167.653c-1.764 0-3.537-.603-4.985-1.837l-94.914-80.829c-3.237-2.756-3.626-7.613-.87-10.849s7.614-3.627 10.849-.87l94.914 80.829c3.237 2.756 3.626 7.613.87 10.849-1.523 1.788-3.686 2.707-5.864 2.707z" fill="#c1d5e4"/></g><g><circle cx="278.687" cy="72.591" fill="#dae7ef" r="19.25"/></g><g><path d="m488.964 34.805c-2.214-2.6-4.974-4.455-7.964-5.561 2.741 7.368.789 15.973-5.543 21.365-5.494 4.679-12.853 5.723-19.172 3.386.763 2.05 1.868 4.01 3.368 5.772 6.893 8.094 19.042 9.068 27.137 2.175 8.094-6.893 9.067-19.043 2.174-27.137z" fill="#c1d5e4"/></g><g><path d="m291.168 57.935c-1.762-1.5-3.721-2.605-5.771-3.368 2.337 6.319 1.293 13.678-3.386 19.172-5.393 6.332-13.997 8.284-21.365 5.543 1.106 2.99 2.961 5.75 5.561 7.964 8.094 6.893 20.244 5.919 27.137-2.175s5.918-20.243-2.176-27.136z" fill="#c1d5e4"/></g><g><path d="m445.291 462.257h-378.583c-24.853 0-45-20.147-45-45v-229.845c0-24.853 20.147-45 45-45h378.583c24.853 0 45 20.147 45 45v229.845c0 24.852-20.147 45-45 45z" fill="#61a2f9"/></g><g><path d="m445.291 142.412h-92.755c.226 1.311.35 2.658.35 4.034v229.225c0 13.035-10.567 23.601-23.601 23.601h-303.543c-1.376 0-2.723-.125-4.034-.35v18.335c0 24.853 20.147 45 45 45h378.583c24.853 0 45-20.147 45-45v-229.845c0-24.853-20.147-45-45-45z" fill="#4a81f6"/></g><g><path d="m446.058 120.703h-380.116c-36.36 0-65.942 29.582-65.942 65.942v231.378c0 36.36 29.582 65.941 65.942 65.941h380.116c36.361 0 65.942-29.582 65.942-65.941v-231.378c0-36.36-29.582-65.942-65.942-65.942zm-402.641 297.654v-232.046c0-12.256 9.935-22.191 22.191-22.191h306.364c12.256 0 22.191 9.935 22.191 22.191v232.046c0 12.256-9.935 22.191-22.191 22.191h-306.364c-12.256 0-22.191-9.936-22.191-22.191z" fill="#dae7ef"/></g><g><path d="m469.332 124.958c2.741 7.242 4.254 15.083 4.254 23.273v231.378c0 36.36-29.582 65.941-65.942 65.941h-380.116c-8.191 0-16.032-1.513-23.274-4.254 9.429 24.907 33.518 42.668 61.688 42.668h380.116c36.361 0 65.942-29.582 65.942-65.941v-231.378c0-28.169-17.761-52.258-42.668-61.687z" fill="#c1d5e4"/></g><g><circle cx="453.786" cy="223.989" fill="#407093" r="26.407"/></g><path d="m462.088 198.921c.865 2.611 1.339 5.4 1.339 8.302 0 14.584-11.823 26.407-26.407 26.407-2.901 0-5.69-.475-8.302-1.339 3.481 10.515 13.385 18.105 25.068 18.105 14.584 0 26.407-11.823 26.407-26.407 0-11.683-7.59-21.587-18.105-25.068z" fill="#2b4d66"/><g><path d="m464.03 338.356h-20.488c-8.927 0-16.163-7.236-16.163-16.163 0-8.927 7.236-16.163 16.163-16.163h20.488c8.927 0 16.163 7.236 16.163 16.163 0 8.926-7.237 16.163-16.163 16.163z" fill="#dd5790"/></g><g><path d="m464.03 398.798h-20.488c-8.927 0-16.163-7.236-16.163-16.163 0-8.927 7.236-16.163 16.163-16.163h20.488c8.927 0 16.163 7.237 16.163 16.163 0 8.926-7.237 16.163-16.163 16.163z" fill="#86f1a7"/></g><path d="m466.59 306.251c.133.836.222 1.687.222 2.561 0 8.927-7.237 16.163-16.163 16.163h-20.488c-.874 0-1.724-.089-2.56-.222 1.23 7.707 7.888 13.603 15.941 13.603h20.488c8.927 0 16.163-7.236 16.163-16.163 0-8.053-5.896-14.712-13.603-15.942z" fill="#da387d"/><path d="m466.59 366.694c.133.836.222 1.687.222 2.561 0 8.927-7.237 16.163-16.163 16.163h-20.488c-.874 0-1.724-.089-2.56-.222 1.23 7.707 7.888 13.603 15.941 13.603h20.488c8.927 0 16.163-7.236 16.163-16.163 0-8.054-5.896-14.713-13.603-15.942z" fill="#78d090"/><g fill="#f6f9f9"><path d="m125.788 263.957c-.025 0-.051 0-.076 0-4.25.041-7.662 3.52-7.621 7.77l.272 28.146-22.441-32.495c-1.913-2.772-5.408-3.975-8.623-2.974-3.216 1.002-5.406 3.979-5.406 7.347v52.255c0 4.251 3.446 7.696 7.696 7.696s7.696-3.445 7.696-7.696v-27.568l21.304 30.848c2.216 3.204 5.928 4.562 9.463 3.458 3.596-1.122 5.919-4.46 5.919-8.577l-.489-50.59c-.04-4.223-3.478-7.62-7.694-7.62z"/><path d="m190.33 279.827c4.25 0 7.696-3.445 7.696-7.696s-3.446-7.696-7.696-7.696h-21.858c-4.25 0-7.696 3.445-7.696 7.696v51.875c0 4.251 3.446 7.696 7.696 7.696h21.858c4.25 0 7.696-3.445 7.696-7.696s-3.446-7.696-7.696-7.696h-14.162v-10.545h12.55c4.25 0 7.696-3.445 7.696-7.696s-3.446-7.696-7.696-7.696h-12.55v-10.546z"/><path d="m340.96 291.26c-6.231-2.299-12.046-4.798-14.036-5.667-.825-.742-.837-1.708-.759-2.255.101-.705.631-2.435 3.356-3.256 6.747-2.035 13.121 2.941 13.348 3.12 3.254 2.692 8.074 2.26 10.797-.978 2.735-3.254 2.314-8.109-.939-10.844-.514-.432-12.748-10.522-27.645-6.037-7.662 2.308-13.084 8.364-14.153 15.807-1.006 7.01 2.034 13.754 7.934 17.6.34.221.696.416 1.067.581.305.135 7.549 3.36 15.703 6.367 1.578.583 6.686 2.725 6.129 5.845-.429 2.406-3.615 5.003-8.011 5.003-4.883 0-9.572-1.956-12.541-5.233-2.855-3.15-7.721-3.389-10.871-.535s-3.389 7.721-.535 10.871c5.925 6.539 14.654 10.289 23.947 10.289 11.591 0 21.334-7.44 23.163-17.69 1.386-7.756-2.078-17.87-15.954-22.988z"/><path d="m283.543 264.441c-4.172-.834-8.221 1.877-9.05 6.046l-5.178 26.014-8.278-26.874c-1.252-4.063-5.559-6.341-9.621-5.09-2.726.84-4.643 3.059-5.234 5.654l-8.145 26.316-5.164-26.107c-.824-4.17-4.871-6.883-9.043-6.057-4.169.825-6.881 4.873-6.056 9.043l10.2 51.567c1.579 8.716 14.767 9.289 17.134.768l8.572-27.695 8.533 27.7c2.376 8.527 15.56 7.933 17.136-.779l10.24-51.455c.83-4.17-1.877-8.222-6.046-9.051z"/></g></g></svg>