<svg id="Capa_1" enable-background="new 0 0 512 512" height="512" viewBox="0 0 512 512" width="512" xmlns="http://www.w3.org/2000/svg"><g><g><path d="m0 107.715v296.571c0 18.894 15.459 34.353 34.353 34.353h443.294c18.894 0 34.353-15.458 34.353-34.353 0-10.596 0-285.938 0-296.571 0-18.894-15.459-34.353-34.353-34.353h-443.294c-18.894 0-34.353 15.459-34.353 34.353z" fill="#695d67"/><path d="m35.555 404.286v-296.571c0-18.894 15.458-34.353 34.353-34.353h-35.555c-18.894 0-34.353 15.459-34.353 34.353v296.571c0 18.894 15.459 34.353 34.353 34.353h35.555c-18.895-.001-34.353-15.459-34.353-34.353z" fill="#544e55"/><path d="m33.494 107.715v296.57c0 .393.465.859.858.859h413.149c.393 0 .859-.466.859-.859v-296.57c0-.394-.465-.859-.859-.859-5.879 0-405.905 0-413.149 0-.392 0-.858.466-.858.859z" fill="#dfebfa"/><path d="m69.049 404.285v-296.57c0-.394.465-.859.858-.859-21.034 0-34.29 0-35.555 0-.393 0-.858.466-.858.859v296.57c0 .393.465.859.858.859h35.555c-.392 0-.858-.466-.858-.859z" fill="#b1dbfc"/><g><path d="m476.783 270.379c-4.267 0-7.726-3.459-7.726-7.726v-13.306c0-4.267 3.459-7.726 7.726-7.726s7.726 3.459 7.726 7.726v13.306c0 4.267-3.459 7.726-7.726 7.726z" fill="#544e55"/></g></g><g><g><path d="m183.698 313.864c-1.572 0-3.159-.479-4.53-1.473l-63.013-45.703c-3.454-2.505-4.223-7.337-1.718-10.791 2.506-3.454 7.337-4.224 10.791-1.718l63.013 45.703c3.454 2.505 4.224 7.337 1.718 10.791-1.511 2.084-3.87 3.191-6.261 3.191z" fill="#b1dbfc"/></g></g><g><g><path d="m118.292 241.751c-2.212 0-4.407-.945-5.936-2.776-2.734-3.276-2.295-8.148.981-10.882l65.416-54.6c3.275-2.733 8.148-2.296 10.882.981 2.734 3.276 2.295 8.148-.981 10.882l-65.416 54.6c-1.444 1.206-3.2 1.795-4.946 1.795z" fill="#b1dbfc"/></g></g><g><g><path d="m399.931 233.233h-121.675c-4.267 0-7.726-3.459-7.726-7.726 0-4.268 3.459-7.726 7.726-7.726h121.675c4.267 0 7.726 3.459 7.726 7.726 0 4.268-3.459 7.726-7.726 7.726z" fill="#b1dbfc"/></g></g><g><g><path d="m399.931 263.726h-121.675c-4.267 0-7.726-3.459-7.726-7.726 0-4.268 3.459-7.726 7.726-7.726h121.675c4.267 0 7.726 3.459 7.726 7.726 0 4.268-3.459 7.726-7.726 7.726z" fill="#b1dbfc"/></g></g><g><path d="m369.512 172.247h-60.837c-4.267 0-7.726-3.459-7.726-7.726 0-4.268 3.459-7.726 7.726-7.726h60.837c4.267 0 7.726 3.459 7.726 7.726.001 4.267-3.458 7.726-7.726 7.726z" fill="#8479c2"/></g><g><g><path d="m399.931 202.739h-121.675c-4.267 0-7.726-3.459-7.726-7.726s3.459-7.726 7.726-7.726h121.675c4.267 0 7.726 3.459 7.726 7.726s-3.459 7.726-7.726 7.726z" fill="#b1dbfc"/></g></g><g><g><path d="m399.931 294.219h-121.675c-4.267 0-7.726-3.459-7.726-7.726s3.459-7.726 7.726-7.726h121.675c4.267 0 7.726 3.459 7.726 7.726s-3.459 7.726-7.726 7.726z" fill="#b1dbfc"/></g></g><g><g><path d="m399.931 324.713h-121.675c-4.267 0-7.726-3.459-7.726-7.726s3.459-7.726 7.726-7.726h121.675c4.267 0 7.726 3.459 7.726 7.726s-3.459 7.726-7.726 7.726z" fill="#b1dbfc"/></g></g><g><g><path d="m399.931 355.206h-121.675c-4.267 0-7.726-3.459-7.726-7.726s3.459-7.726 7.726-7.726h121.675c4.267 0 7.726 3.459 7.726 7.726s-3.459 7.726-7.726 7.726z" fill="#b1dbfc"/></g></g><ellipse cx="102.157" cy="247.879" fill="#5cb3f8" rx="30.857" ry="30.857" transform="matrix(.707 -.707 .707 .707 -145.356 144.838)"/><path d="m94.994 247.879c0-12.844 7.849-23.851 19.01-28.497-3.648-1.518-7.649-2.36-11.847-2.36-17.042 0-30.857 13.815-30.857 30.857s13.815 30.857 30.857 30.857c4.198 0 8.199-.842 11.847-2.36-11.161-4.646-19.01-15.653-19.01-28.497z" fill="#0290f4"/><ellipse cx="201.714" cy="316.695" fill="#ff656f" rx="36.647" ry="36.647" transform="matrix(.707 -.707 .707 .707 -164.857 235.392)"/><path d="m191.431 316.695c0-15.591 9.741-28.899 23.465-34.194-4.092-1.579-8.533-2.453-13.182-2.453-20.239 0-36.647 16.407-36.647 36.647 0 20.239 16.407 36.647 36.647 36.647 4.648 0 9.09-.875 13.182-2.453-13.724-5.295-23.465-18.603-23.465-34.194z" fill="#ff4756"/><ellipse cx="190.297" cy="175.711" fill="#ffe181" rx="19.138" ry="19.138" transform="matrix(.707 -.707 .707 .707 -68.51 186.025)"/><path d="m190.298 175.711c0-7.08 3.854-13.246 9.569-16.557-2.817-1.632-6.079-2.581-9.569-2.581-10.57 0-19.138 8.568-19.138 19.138s8.568 19.138 19.138 19.138c3.49 0 6.752-.949 9.569-2.581-5.715-3.31-9.569-9.477-9.569-16.557z" fill="#fec458"/></g></svg>