<svg id="Capa_1" enable-background="new 0 0 497 497" height="512" viewBox="0 0 497 497" width="512" xmlns="http://www.w3.org/2000/svg"><g><path d="m497 235.618v86.937h-29.69v-80.937c0-22.11-17.92-40.03-40.04-40.03h-322.87c-35.41 0-67.2-26.56-72.22-61.85-6.05-42.58 28.21-81.85 71.15-81.85h272.24l6.85 14.849-6.85 14.841h-271.49c-20.86 0-39.74 15.91-42.55 36.71-3.35 24.85 16.8 47.61 41.8 47.61h329.94c35.2 0 63.73 28.53 63.73 63.72z" fill="#fedba6"/><path d="m481.26 221.678v100.877h-13.95v-80.937c0-22.11-17.92-40.03-40.04-40.03h-322.87c-35.41 0-67.2-26.56-72.22-61.85-6.05-42.58 28.21-81.85 71.15-81.85h255.605c.494 0 .895.401.895.895v27.9c0 .494-.401.895-.895.895h-270.595c-20.86 0-39.74 15.91-42.55 36.71-3.35 24.85 16.79 47.61 41.8 47.61h343.89c27.493 0 49.78 22.287 49.78 49.78z" fill="#ffefd2"/><path d="m497 315.588v22.392c0 4.031-3.268 7.298-7.298 7.298h-53.662v-29.69z" fill="#465a61"/><path d="m481.26 315.588v22.392c0 4.031-3.268 7.298-7.298 7.298h-46.775v-29.69z" fill="#596c76"/><path d="m436.04 294.358v130.51c0 12.16-9.86 22.03-22.03 22.03h-11.18s-39.6-75.125-39.6-87.285l19.733-87.285h31.047c12.17 0 22.03 9.87 22.03 22.03z" fill="#01998d"/><path d="m402.83 294.358v130.51c0 12.16-9.86 22.03-22.02 22.03l-155.018-24.353-192.582 24.353h-11.18c-12.17 0-22.03-9.87-22.03-22.03v-130.51c0-12.16 9.86-22.03 22.03-22.03h358.78c12.16 0 22.02 9.87 22.02 22.03z" fill="#0ab69f"/><path d="m402.83 315.588v131.31h-343.22l-5.817-64.252 5.817-67.058h13.9l12.5 8 12.5-8h27.804l12.5 8 12.5-8h80.608l12.5 8 12.5-8h27.804l11.314 8 13.685-8h27.804l12.501 8 12.802-8z" fill="#fedba6"/><g fill="#ffefd2"><path d="m33.21 315.588h26.4v131.31h-26.4z"/><path d="m112.41 315.588v131.31h-26.4v-70.873l12.5-60.437z"/><path d="m165.21 315.588v131.31h-26.4v-70.873l12.504-60.437z"/><path d="m191.62 315.588h26.4v131.31h-26.4z"/><path d="m270.82 315.588v131.31h-26.4v-70.873l11.952-60.437z"/><path d="m323.63 315.588v131.31h-26.4v-70.873l12.496-60.437z"/><path d="m376.43 315.588v131.31h-26.4v-70.873l12.499-60.437z"/></g><path d="m91.74 376.025h-11.46c-3.739 0-6.77-3.031-6.77-6.77v-53.667h25v53.667c0 3.739-3.031 6.77-6.77 6.77z" fill="#465a61"/><path d="m144.544 376.025h-11.46c-3.739 0-6.77-3.031-6.77-6.77v-53.667h25v53.667c0 3.739-3.031 6.77-6.77 6.77z" fill="#465a61"/><path d="m250.152 376.025h-11.46c-3.739 0-6.77-3.031-6.77-6.77v-53.667h25v53.667c0 3.739-3.031 6.77-6.77 6.77z" fill="#465a61"/><path d="m302.955 376.025h-11.46c-3.739 0-6.77-3.031-6.77-6.77v-53.667h25v53.667c.001 3.739-3.031 6.77-6.77 6.77z" fill="#465a61"/><path d="m355.759 376.025h-11.46c-3.739 0-6.77-3.031-6.77-6.77v-53.667h25v53.667c0 3.739-3.031 6.77-6.77 6.77z" fill="#465a61"/><path d="m431.935 56.712-46.495-6.525c-5.215-.732-9.872 3.318-9.872 8.584v27.931c0 5.266 4.657 9.315 9.872 8.584l46.495-6.525c4.28-.601 7.463-4.262 7.463-8.584v-14.881c0-4.322-3.183-7.983-7.463-8.584z" fill="#596c76"/></g></svg>