<svg id="Capa_1" enable-background="new 0 0 497 497" height="512" viewBox="0 0 497 497" width="512" xmlns="http://www.w3.org/2000/svg"><g><path d="m497 140.702v148.33l-248.5 29.629-248.5-29.629v-148.33z" fill="#465a61"/><path d="m0 140.702h468.04v148.33h-468.04z" fill="#596c76"/><path d="m468.038 191.878v97.15h-317.75l-14.445-47.957 14.445-61.231h14.336l14.554 9 14.445-9h28.773l14.552 9 14.445-9h86.547l14.55 9 14.55-9h28.672l14.545 9 14.445-9h31.299c6.648.001 12.037 5.391 12.037 12.038z" fill="#fedba6"/><path d="m150.288 179.841v109.187h-28.89v-97.15c0-6.648 5.389-12.037 12.037-12.037z" fill="#ffefd2"/><path d="m208.069 179.841v109.188h-28.891v-54.594l14.546-54.594z" fill="#ffefd2"/><path d="m265.839 179.841v109.188h-28.891v-54.596l14.548-54.592z" fill="#ffefd2"/><path d="m294.718 179.841h28.89v109.187h-28.89z" fill="#ffefd2"/><path d="m381.378 179.841v109.188h-28.89v-54.594l14.445-54.594z" fill="#ffefd2"/><path d="m439.148 179.841v109.188h-28.89v-54.596l14.555-54.592z" fill="#ffefd2"/><path d="m187.982 234.433h-17.616c-3.171 0-5.742-2.571-5.742-5.742v-48.849h29.1v48.849c0 3.172-2.571 5.742-5.742 5.742z" fill="#465a61"/><path d="m245.754 234.433h-17.616c-3.171 0-5.742-2.571-5.742-5.742v-48.849h29.1v48.849c0 3.172-2.57 5.742-5.742 5.742z" fill="#465a61"/><path d="m361.299 234.433h-17.616c-3.171 0-5.742-2.571-5.742-5.742v-48.849h29.1v48.849c-.001 3.172-2.571 5.742-5.742 5.742z" fill="#465a61"/><path d="m419.071 234.433h-17.616c-3.171 0-5.742-2.571-5.742-5.742v-48.849h29.1v48.849c0 3.172-2.571 5.742-5.742 5.742z" fill="#465a61"/><path d="m497 289.032v136.711c0 5.986-4.853 10.839-10.839 10.839h-18.121l-443.699-16.179c-5.986 0-10.839-4.853-10.839-10.839l-13.502-120.532z" fill="#596c76"/><path d="m468.04 289.032v147.55l-218.534-39.286-218.544 39.286h-20.123c-5.986 0-10.839-4.852-10.839-10.839v-136.711z" fill="#7a8c98"/><path d="m468.038 339.43v97.15h-405.852l-11.222-61.418 11.222-47.769h15.119l13.171 6 18.655-6h30.988l15.727 6 16.012-6h93.349l15.514 6 15.609-6h30.633l16.191 6 15.731-6h30.988l13.773 6 17.568-6h34.787c6.648 0 12.037 5.39 12.037 12.037z" fill="#fedba6"/><g fill="#ffefd2"><path d="m62.186 327.393v109.187h-31.224v-97.15c0-6.648 5.389-12.037 12.037-12.037z"/><path d="m124.634 327.393v109.188h-31.224v-54.596l15.881-54.592z"/><path d="m187.07 327.393v109.188h-31.224v-54.594l16.013-54.594z"/><path d="m218.282 327.393h31.224v109.187h-31.224z"/><path d="m311.942 327.393v109.188h-31.224v-54.594l15.949-54.594z"/><path d="m374.378 327.393v109.188h-31.224v-54.594l15.612-54.594z"/><path d="m436.826 327.393v109.188h-31.224v-54.594l15.721-54.594z"/></g><path d="m103.024 381.985h-19.238c-3.373 0-6.107-2.734-6.107-6.107v-48.484h31.451v48.484c0 3.373-2.734 6.107-6.106 6.107z" fill="#465a61"/><path d="m165.462 381.985h-19.237c-3.373 0-6.107-2.734-6.107-6.107v-48.484h31.451v48.484c0 3.373-2.734 6.107-6.107 6.107z" fill="#465a61"/><path d="m290.34 381.985h-19.237c-3.373 0-6.107-2.734-6.107-6.107v-48.484h31.451v48.484c-.001 3.373-2.735 6.107-6.107 6.107z" fill="#465a61"/><path d="m352.778 381.985h-19.237c-3.373 0-6.107-2.734-6.107-6.107v-48.484h31.451v48.484c0 3.373-2.734 6.107-6.107 6.107z" fill="#465a61"/><path d="m415.217 381.985h-19.237c-3.373 0-6.107-2.734-6.107-6.107v-48.484h31.451v48.484c-.001 3.373-2.735 6.107-6.107 6.107z" fill="#465a61"/><path d="m497 71.257v69.441h-497v-69.441c0-5.986 4.853-10.839 10.839-10.839h475.322c5.986 0 10.839 4.852 10.839 10.839z" fill="#a44f3e"/><path d="m468.04 71.257v69.441h-468.04v-69.441c0-5.986 4.853-10.839 10.839-10.839h446.362c5.986 0 10.839 4.852 10.839 10.839z" fill="#bb5d4c"/><path d="m91.96 187.627v50.738h-61v-50.738c0-4.298 3.484-7.782 7.782-7.782h45.437c4.297.001 7.781 3.485 7.781 7.782z" fill="#fac600"/><path d="m65.19 187.627v50.738h-34.23v-50.738c0-4.298 3.484-7.782 7.782-7.782h18.667c4.297.001 7.781 3.485 7.781 7.782z" fill="#fed402"/><path d="m91.96 238.366v17.218c0 4.298-3.484 7.782-7.782 7.782h-45.436c-4.298 0-7.782-3.484-7.782-7.782v-17.218z" fill="#baafb9"/><path d="m65.19 238.366v17.218c0 4.298-3.484 7.782-7.782 7.782h-18.666c-4.298 0-7.782-3.484-7.782-7.782v-17.218z" fill="#d7d0d6"/><path d="m341.11 91.965v17.185c0 2.158-1.749 3.907-3.907 3.907h-177.406c-2.158 0-3.907-1.749-3.907-3.907v-17.185c0-2.158 1.749-3.907 3.907-3.907h177.405c2.159 0 3.908 1.749 3.908 3.907z" fill="#d7d0d6"/><path d="m310.89 91.965v17.185c0 2.158-1.749 3.907-3.907 3.907h-147.186c-2.158 0-3.907-1.749-3.907-3.907v-17.185c0-2.158 1.749-3.907 3.907-3.907h147.185c2.159 0 3.908 1.749 3.908 3.907z" fill="#e5e1e5"/><g><path d="" style="fill:none;stroke:#000;stroke-width:15;stroke-linecap:round;stroke-linejoin:round;stroke-miterlimit:10"/></g><circle cx="46.574" cy="100.748" fill="#ffefd2" r="7.5"/><circle cx="77.68" cy="100.748" fill="#e41f2d" r="7.5"/><circle cx="108.786" cy="100.748" fill="#ffefd2" r="7.5"/><g><path d="m455.834 108.248h-72.514c-4.143 0-7.5-3.357-7.5-7.5s3.357-7.5 7.5-7.5h72.514c4.143 0 7.5 3.357 7.5 7.5s-3.357 7.5-7.5 7.5z" fill="#ffefd2"/></g></g></svg>