<svg id="Capa_1" enable-background="new 0 0 512 512" height="512" viewBox="0 0 512 512" width="512" xmlns="http://www.w3.org/2000/svg"><g><g><path d="m168.662 70.135h30.557c0-19.985 16.201-36.185 36.185-36.185 2.419 0 4.039-2.485 3.072-4.703-8.593-19.72-31.177-29.247-54.536-29.247s-45.942 9.527-54.536 29.247c-.966 2.217.654 4.703 3.072 4.703 19.985 0 36.186 16.201 36.186 36.185z" fill="#d09080"/></g><g><g><path d="m238.477 29.247c-8.594-19.72-31.178-29.247-54.536-29.247-7.712 0-15.335 1.045-22.403 3.146 23.154 5.692 43.821 17.925 55.414 35.863 5.404-3.21 11.711-5.06 18.452-5.06 2.419.001 4.039-2.484 3.073-4.702z" fill="#c67d66"/></g></g><g><path d="m202.238 87.978h-37.259c-5.523 0-10-4.477-10-10v-13.526c0-5.523 4.477-10 10-10h37.259c5.523 0 10 4.477 10 10v13.526c0 5.523-4.477 10-10 10z" fill="#dd5790"/></g><path d="m202.238 54.452h-19.599c5.523 0 10 4.477 10 10v13.526c0 5.523-4.477 10-10 10h19.599c5.523 0 10-4.477 10-10v-13.526c0-5.523-4.478-10-10-10z" fill="#da387d"/><g><path d="m164.009 178.314h-144.712c-10.591 0-19.177-8.586-19.177-19.177v-49.456c0-38.203 30.969-69.172 69.172-69.172 22.404 0 44.148 7.583 61.694 21.514l33.022 26.219v90.072z" fill="#be694f"/></g><g><path d="m130.987 62.023c-17.546-13.931-39.29-21.514-61.694-21.514-5.451 0-10.747.65-15.834 1.842 15.54 3.02 30.232 9.713 42.774 19.671l33.022 26.219v90.072h34.754v-90.071z" fill="#aa593d"/></g><g><path d="m205.898 178.314h144.712c10.591 0 19.177-8.586 19.177-19.177v-49.456c0-38.203-30.969-69.172-69.172-69.172-22.404 0-44.148 7.583-61.694 21.514l-33.022 26.219v90.072z" fill="#be694f"/></g><g><path d="m300.614 40.509c-4.968 0-9.899.394-14.763 1.126 32.293 5.837 56.795 34.071 56.795 68.046v49.456c0 10.591-8.586 19.177-19.177 19.177h27.141c10.591 0 19.177-8.586 19.177-19.177v-49.456c-.001-38.202-30.97-69.172-69.173-69.172z" fill="#aa593d"/></g><g><path d="m263.273 294.874h-158.665c-35.096 0-63.547-28.451-63.547-63.547v-84.867c0-35.096 28.451-63.547 63.547-63.547h158.664c35.096 0 63.547 28.451 63.547 63.547v84.867c0 35.096-28.45 63.547-63.546 63.547z" fill="#d09080"/></g><path d="m263.273 82.913h-40.941c35.096 0 63.547 28.451 63.547 63.547v84.867c0 35.096-28.451 63.547-63.547 63.547h40.941c35.096 0 63.547-28.451 63.547-63.547v-84.867c-.001-35.096-28.451-63.547-63.547-63.547z" fill="#c67d66"/><g><circle cx="260.701" cy="165.831" fill="#2b4d66" r="15.545"/></g><g><circle cx="107.18" cy="165.831" fill="#2b4d66" r="15.545"/></g><path d="m469.425 414.129c23.945-3.286 42.455-23.866 42.455-48.7 0-27.112-22.058-49.17-49.17-49.17-26.725 0-48.523 21.435-49.142 48.013-1.962-.236-3.942-.363-5.932-.363-25.43 0-46.412 19.406-48.919 44.186-1.91.736-3.521 2.23-4.335 4.282-1.547 3.899.361 8.315 4.261 9.862l58.137 23.058c-2.087 5.45-3.243 11.357-3.243 17.532 0 27.112 22.058 49.17 49.171 49.17 27.112 0 49.17-22.058 49.17-49.17.002-24.834-18.508-45.414-42.453-48.7zm-6.715-82.677c18.735 0 33.977 15.242 33.977 33.977s-15.242 33.977-33.977 33.977-33.978-15.242-33.978-33.977 15.242-33.977 33.978-33.977zm-89.02 80.411c.644-18.173 15.619-32.76 33.946-32.76 2.762 0 5.489.35 8.14 1.001 5.609 17.899 21.199 31.415 40.218 34.025-12.695 1.742-23.857 8.341-31.547 17.865zm89.02 84.944c-18.735 0-33.978-15.242-33.978-33.977s15.243-33.978 33.978-33.978 33.977 15.243 33.977 33.978-15.242 33.977-33.977 33.977z" fill="#dd5790"/><g><path d="m378.194 389.79-183.746-65.673c-5.984-2.139-12.308 2.198-12.47 8.55-.074 2.907 1.212 5.683 3.478 7.507l83.388 67.119h109.351v-17.503z" fill="#c1d5e4"/></g><g><path d="m343.142 377.262h-82.459l-65.86-53.011-.376-.134c-5.983-2.139-12.308 2.198-12.47 8.55-.074 2.907 1.212 5.683 3.478 7.507l83.388 67.119h109.351v-17.503z" fill="#98b9d3"/></g><g><path d="m183.941 171.402c-90.943 0-164.667 73.724-164.667 164.666v79.236c0 8.391 6.802 15.193 15.193 15.193h61.242c22.594 0 40.911-18.316 40.911-40.911v-81.956c0-26.134 21.186-47.32 47.32-47.32 26.134 0 47.32 21.186 47.32 47.32v33.095c0 22.594 18.316 40.911 40.911 40.911h76.435v-45.567c.001-90.943-73.723-164.667-164.665-164.667z" fill="#be694f"/></g><g><g><path d="m183.941 171.402c-7.059 0-14.013.446-20.838 1.308 81.105 10.242 143.829 79.475 143.829 163.359v45.567h41.675v-45.567c0-90.943-73.724-164.667-164.666-164.667z" fill="#aa593d"/></g></g><g><path d="m190.001 257.076 26.537-30.798c7.154-8.302 1.255-21.17-9.704-21.17h-45.788c-10.959 0-16.857 12.868-9.704 21.17l26.537 30.798c3.192 3.703 8.93 3.703 12.122 0z" fill="#407093"/></g><path d="m206.834 205.108h-7.702c1.244 3.946.634 8.503-2.526 12.17l-26.509 30.765 7.782 9.032c3.192 3.704 8.93 3.704 12.121 0l26.537-30.798c7.154-8.301 1.256-21.169-9.703-21.169z" fill="#2b4d66"/><g><path d="m184.732 412.738 88.671-27.081c8.578-2.62 17.498-3.952 26.467-3.952h70.938c6.466 0 11.707 5.242 11.707 11.707v27.181c0 6.466-5.242 11.707-11.707 11.707h-183.155c-2.152 0-4.246-.694-5.972-1.979-6.575-4.896-4.789-15.189 3.051-17.583z" fill="#dae7ef"/></g><path d="m370.809 381.705h-5.168v20.717c0 6.466-5.242 11.707-11.707 11.707h-172.048c-5.314 3.713-5.886 11.961-.205 16.192 1.726 1.285 3.82 1.979 5.973 1.979h183.156c6.466 0 11.707-5.242 11.707-11.707v-27.181c0-6.465-5.242-11.707-11.708-11.707z" fill="#c1d5e4"/><g><g><circle cx="351.008" cy="406.176" fill="#407093" r="9.582"/></g></g></g></svg>