<svg id="Capa_1" enable-background="new 0 0 512 512" height="512" viewBox="0 0 512 512" width="512" xmlns="http://www.w3.org/2000/svg"><g><path d="m0 124.65v296.57c0 18.894 15.459 34.353 34.353 34.353h443.294c18.894 0 34.353-15.458 34.353-34.353 0-10.596 0-285.938 0-296.571 0-18.894-15.459-34.353-34.353-34.353h-443.294c-18.894.001-34.353 15.46-34.353 34.354z" fill="#695d67"/><path d="m35.555 421.22v-296.57c0-18.894 15.458-34.353 34.353-34.353h-35.555c-18.894 0-34.353 15.459-34.353 34.353v296.57c0 18.894 15.459 34.353 34.353 34.353h35.555c-18.895 0-34.353-15.458-34.353-34.353z" fill="#544e55"/><path d="m448.36 359.024v-234.374c0-.394-.465-.859-.859-.859-5.879 0-405.905 0-413.149 0-.393 0-.858.466-.858.859v234.374z" fill="#dfebfa"/><path d="m69.049 359.024v-234.374c0-.394.465-.859.858-.859-21.034 0-34.29 0-35.555 0-.393 0-.858.466-.858.859v234.374z" fill="#b1dbfc"/><g><path d="m476.783 287.314c-4.267 0-7.726-3.459-7.726-7.726v-13.306c0-4.267 3.459-7.726 7.726-7.726s7.726 3.459 7.726 7.726v13.306c0 4.267-3.459 7.726-7.726 7.726z" fill="#544e55"/></g><circle cx="132.354" cy="264.249" fill="#ffcebe" r="31.045"/><path d="m132.354 264.249c0-11.489 6.246-21.513 15.522-26.881-4.567-2.643-9.866-4.164-15.522-4.164-17.146 0-31.045 13.899-31.045 31.045s13.899 31.045 31.045 31.045c5.657 0 10.955-1.52 15.522-4.164-9.276-5.369-15.522-15.392-15.522-26.881z" fill="#ffb1a0"/><path d="m159.473 295.293h-54.239c-14.942 0-27.167 12.225-27.167 27.167v35.533h108.573v-35.533c.001-14.941-12.225-27.167-27.167-27.167z" fill="#5cb3f8"/><path d="m151.795 295.293h-46.56c-14.942 0-27.167 12.225-27.167 27.167v35.533h46.56v-35.533c0-14.942 12.225-27.167 27.167-27.167z" fill="#0290f4"/><path d="m203.531 56.427h-114.596c-10.98 0-19.963 8.983-19.963 19.963v82.966c0 10.98 8.983 19.963 19.963 19.963h77.249c2.469 0 4.143 2.47 3.281 4.783-1.084 2.909-2.474 5.715-4.163 8.37l-10.342 16.258c-1.839 2.892 1.205 6.407 4.33 4.999l12.467-5.616c11.568-5.211 20.51-14.21 25.771-25.039 1.117-2.298 3.446-3.756 6.001-3.756 10.98 0 19.963-8.983 19.963-19.963v-82.965c.002-10.98-8.981-19.963-19.961-19.963z" fill="#5cb3f8"/><path d="m278.324 56.427h114.596c10.98 0 19.963 8.983 19.963 19.963v82.966c0 10.98-8.983 19.963-19.963 19.963h-77.249c-2.469 0-4.143 2.47-3.281 4.783 1.084 2.909 2.474 5.715 4.163 8.37l10.342 16.258c1.839 2.892-1.205 6.407-4.33 4.999l-12.467-5.616c-11.568-5.211-20.51-14.21-25.771-25.039-1.117-2.298-3.446-3.756-6.001-3.756-10.98 0-19.963-8.983-19.963-19.963v-82.965c-.002-10.98 8.981-19.963 19.961-19.963z" fill="#ffe181"/><g><path d="m101.309 159.356v-82.966c0-10.98 8.983-19.963 19.963-19.963h-32.337c-10.98 0-19.964 8.983-19.964 19.963v82.966c0 10.98 8.984 19.963 19.964 19.963h32.338c-10.98 0-19.964-8.983-19.964-19.963z" fill="#0290f4"/></g><path d="m316.552 192.473c-1.689-2.655-3.079-5.462-4.163-8.37-.583-1.566-.003-3.201 1.198-4.096-.896-.438-1.889-.688-2.925-.688-10.98 0-19.963-8.983-19.963-19.963v-82.966c0-10.98 8.983-19.963 19.963-19.963h-32.338c-10.98 0-19.964 8.983-19.964 19.963v82.966c0 10.98 8.984 19.963 19.964 19.963 2.555 0 4.885 1.458 6.001 3.756 5.261 10.829 14.203 19.828 25.771 25.039l12.467 5.616c3.125 1.408 6.169-2.107 4.33-4.999z" fill="#fec458"/><circle cx="349.501" cy="264.249" fill="#ffcebe" r="31.045"/><path d="m349.501 264.249c0-11.489 6.246-21.513 15.522-26.881-4.567-2.643-9.866-4.164-15.522-4.164-17.146 0-31.045 13.899-31.045 31.045s13.899 31.045 31.045 31.045c5.657 0 10.955-1.52 15.522-4.164-9.277-5.369-15.522-15.392-15.522-26.881z" fill="#ffb1a0"/><path d="m376.62 295.293h-54.239c-14.942 0-27.167 12.225-27.167 27.167v35.533h108.573v-35.533c0-14.941-12.225-27.167-27.167-27.167z" fill="#ffe181"/><path d="m368.941 295.293h-46.56c-14.942 0-27.167 12.225-27.167 27.167v35.533h46.56v-35.533c0-14.942 12.226-27.167 27.167-27.167z" fill="#fec458"/><path d="m33.494 355.933v65.286c0 .393.465.859.858.859h413.149c.393 0 .859-.466.859-.859v-65.286c-100.273 0-314.565 0-414.866 0z" fill="#ff656f"/><path d="m69.071 421.22v-65.286c-12.96 0-24.917 0-35.576 0v65.286c0 .393.465.859.858.859h35.576c-.393 0-.858-.466-.858-.859z" fill="#ff4756"/><g><path d="m403.788 396.732h-217.147c-4.267 0-7.726-3.459-7.726-7.726 0-4.268 3.459-7.726 7.726-7.726h217.147c4.267 0 7.726 3.459 7.726 7.726 0 4.268-3.459 7.726-7.726 7.726z" fill="#ff4756"/></g><g><path d="m186.641 396.732h-108.574c-4.267 0-7.726-3.459-7.726-7.726 0-4.268 3.459-7.726 7.726-7.726h108.573c4.267 0 7.726 3.459 7.726 7.726.001 4.268-3.458 7.726-7.725 7.726z" fill="#dfebfa"/></g><g><path d="m186.641 403.385c-4.267 0-7.726-3.459-7.726-7.726v-13.306c0-4.268 3.459-7.726 7.726-7.726s7.726 3.459 7.726 7.726v13.306c0 4.268-3.459 7.726-7.726 7.726z" fill="#ff7f87"/></g><g><g><path d="m380.68 98.023h-90.117c-4.267 0-7.726-3.459-7.726-7.726 0-4.268 3.459-7.726 7.726-7.726h90.117c4.267 0 7.726 3.459 7.726 7.726.001 4.267-3.458 7.726-7.726 7.726z" fill="#fec458"/></g></g><g><g><path d="m380.68 126.245h-90.117c-4.267 0-7.726-3.459-7.726-7.726 0-4.268 3.459-7.726 7.726-7.726h90.117c4.267 0 7.726 3.459 7.726 7.726.001 4.268-3.458 7.726-7.726 7.726z" fill="#fec458"/></g></g><g><g><path d="m380.68 154.468h-90.117c-4.267 0-7.726-3.459-7.726-7.726s3.459-7.726 7.726-7.726h90.117c4.267 0 7.726 3.459 7.726 7.726s-3.458 7.726-7.726 7.726z" fill="#fec458"/></g></g><g><g><path d="m191.291 98.023h-90.117c-4.267 0-7.726-3.459-7.726-7.726 0-4.268 3.459-7.726 7.726-7.726h90.117c4.267 0 7.726 3.459 7.726 7.726s-3.459 7.726-7.726 7.726z" fill="#0290f4"/></g></g><g><g><path d="m191.291 126.245h-90.117c-4.267 0-7.726-3.459-7.726-7.726 0-4.268 3.459-7.726 7.726-7.726h90.117c4.267 0 7.726 3.459 7.726 7.726 0 4.268-3.459 7.726-7.726 7.726z" fill="#0290f4"/></g></g><g><g><path d="m191.291 154.468h-90.117c-4.267 0-7.726-3.459-7.726-7.726s3.459-7.726 7.726-7.726h90.117c4.267 0 7.726 3.459 7.726 7.726s-3.459 7.726-7.726 7.726z" fill="#0290f4"/></g></g></g></svg>