<svg id="Capa_1" enable-background="new 0 0 512 512" height="512" viewBox="0 0 512 512" width="512" xmlns="http://www.w3.org/2000/svg"><g><path d="m208.053 384.796v31.521c0 12.054-5.776 23.247-15.263 29.575l-22.915 15.285h172.249l-22.915-15.285c-9.487-6.328-15.263-17.521-15.263-29.575v-31.521c-31.531 0-64.361 0-95.893 0z" fill="#b1dbfc"/><path d="m208.053 384.796v31.521c0 12.054-5.776 23.247-15.263 29.575l-22.915 15.285h55.596l.483-.322c9.487-6.328 15.263-17.521 15.263-29.575v-21.822c0-5.357 4.342-9.699 9.699-9.699h53.03v-14.963z" fill="#8bcaff"/><path d="m358.16 460.072h-204.32c-5.689 0-10.301 4.612-10.301 10.301v11.535c0 5.689 4.612 10.301 10.301 10.301h204.32c5.689 0 10.301-4.612 10.301-10.301v-11.535c0-5.689-4.612-10.301-10.301-10.301z" fill="#dfebfa"/><path d="m200.63 481.908v-11.535c0-5.689 4.612-10.301 10.301-10.301h-57.091c-5.689 0-10.301 4.612-10.301 10.301v11.535c0 5.689 4.612 10.301 10.301 10.301h57.091c-5.689 0-10.301-4.612-10.301-10.301z" fill="#b1dbfc"/><g><g><path d="m482.311 19.791h-452.622c-16.371 0-29.689 13.318-29.689 29.689v306.986c0 16.371 13.318 29.689 29.689 29.689h452.622c16.371 0 29.689-13.318 29.689-29.689v-306.986c0-16.371-13.318-29.689-29.689-29.689z" fill="#695d67"/></g></g><path d="m34.342 356.467v-306.987c0-16.371 13.318-29.689 29.689-29.689h-34.342c-16.371 0-29.689 13.318-29.689 29.689v306.986c0 16.371 13.318 29.689 29.689 29.689h34.341c-16.37.001-29.688-13.317-29.688-29.688z" fill="#554e56"/><g><path d="m32.137 88.075v2.06 259.611c0 2.36 1.912 4.272 4.272 4.272h439.182c2.359 0 4.272-1.912 4.272-4.272 0-6.921 0-186.243 0-261.671z" fill="#dfebfa"/></g><path d="m63.045 349.747v-259.611-2.06h-30.908v2.06 259.611c0 2.36 1.912 4.272 4.272 4.272h30.907c-2.359 0-4.271-1.912-4.271-4.272z" fill="#b1dbfc"/><path d="m475.591 51.928h-398.09v38.208h402.362c0-17.883 0-30.339 0-33.936 0-2.36-1.913-4.272-4.272-4.272z" fill="#5cb3f8"/><path d="m78.531 51.928h-42.122c-2.359 0-4.272 1.912-4.272 4.272v33.936h46.394z" fill="#ff656f"/><path d="m67.315 51.928h-30.906c-2.359 0-4.272 1.912-4.272 4.272v33.936h30.906v-33.936c0-2.359 1.913-4.272 4.272-4.272z" fill="#ff4756"/><g><g><path d="m423.688 152.189h-136.883c-4.267 0-7.726-3.459-7.726-7.726s3.459-7.726 7.726-7.726h136.883c4.267 0 7.726 3.459 7.726 7.726s-3.459 7.726-7.726 7.726z" fill="#b1dbfc"/></g></g><g><g><path d="m423.688 182.682h-136.883c-4.267 0-7.726-3.459-7.726-7.726s3.459-7.726 7.726-7.726h136.883c4.267 0 7.726 3.459 7.726 7.726s-3.459 7.726-7.726 7.726z" fill="#b1dbfc"/></g></g><g><g><path d="m423.688 213.175h-136.883c-4.267 0-7.726-3.459-7.726-7.726 0-4.268 3.459-7.726 7.726-7.726h136.883c4.267 0 7.726 3.459 7.726 7.726.001 4.268-3.459 7.726-7.726 7.726z" fill="#b1dbfc"/></g></g><g><g><path d="m290.457 250.879h-3.652c-4.267 0-7.726-3.459-7.726-7.726s3.459-7.726 7.726-7.726h3.652c4.267 0 7.726 3.459 7.726 7.726s-3.459 7.726-7.726 7.726z" fill="#b1dbfc"/></g></g><g><g><path d="m290.457 281.373h-3.652c-4.267 0-7.726-3.459-7.726-7.726s3.459-7.726 7.726-7.726h3.652c4.267 0 7.726 3.459 7.726 7.726s-3.459 7.726-7.726 7.726z" fill="#b1dbfc"/></g></g><g><g><path d="m290.457 311.866h-3.652c-4.267 0-7.726-3.459-7.726-7.726 0-4.268 3.459-7.726 7.726-7.726h3.652c4.267 0 7.726 3.459 7.726 7.726.001 4.267-3.459 7.726-7.726 7.726z" fill="#b1dbfc"/></g></g><g><g><path d="m419.269 250.879h-102.045c-4.267 0-7.726-3.459-7.726-7.726s3.459-7.726 7.726-7.726h102.045c4.267 0 7.726 3.459 7.726 7.726s-3.459 7.726-7.726 7.726z" fill="#b1dbfc"/></g></g><g><g><path d="m419.269 281.373h-102.045c-4.267 0-7.726-3.459-7.726-7.726s3.459-7.726 7.726-7.726h102.045c4.267 0 7.726 3.459 7.726 7.726s-3.459 7.726-7.726 7.726z" fill="#b1dbfc"/></g></g><g><g><path d="m419.269 311.866h-102.045c-4.267 0-7.726-3.459-7.726-7.726 0-4.268 3.459-7.726 7.726-7.726h102.045c4.267 0 7.726 3.459 7.726 7.726s-3.459 7.726-7.726 7.726z" fill="#b1dbfc"/></g></g><path d="m203.063 220.695c0 .463-.02.922-.035 1.382h42.541c.007-.462.035-.919.035-1.382 0-46.989-38.092-85.082-85.082-85.082v42.541c23.495.001 42.541 19.047 42.541 42.541z" fill="#ff656f"/><path d="m189.829 251.513c-7.628 7.261-17.942 11.723-29.307 11.723-23.495 0-42.541-19.046-42.541-42.541s19.046-42.541 42.541-42.541v-42.541c-46.989 0-85.082 38.093-85.082 85.082 0 46.99 38.092 85.082 85.082 85.082 23.079 0 43.998-9.198 59.32-24.118z" fill="#ffe181"/><path d="m189.829 251.513 30.013 30.146c15.566-15.158 25.354-36.223 25.727-59.582h-42.541c-.37 11.578-5.368 21.982-13.199 29.436z" fill="#5cb3f8"/></g></svg>