<svg id="Capa_1" enable-background="new 0 0 497 497" height="512" viewBox="0 0 497 497" width="512" xmlns="http://www.w3.org/2000/svg"><g><path d="m129.764 477.5h-118.763c-6.075 0-11.001-6.96-11.001-15.546v-19.336l36.354-193.117-36.354-195.111v-19.344c0-8.586 4.926-15.546 11.002-15.546h118.763v458z" fill="#e41f2d"/><path d="m0 54.39h129.76v55.45h-129.76z" fill="#fedba6"/><path d="m0 54.39h102.26v55.45h-102.26z" fill="#ffefd2"/><path d="m0 109.837h129.76v55.461h-129.76z" fill="#fedba6"/><path d="m0 109.837h102.26v55.461h-102.26z" fill="#ffefd2"/><path d="m0 165.298h129.76v55.471h-129.76z" fill="#fedba6"/><path d="m0 165.298h102.26v55.471h-102.26z" fill="#ffefd2"/><path d="m0 220.77h129.76v55.461h-129.76z" fill="#fedba6"/><path d="m0 220.77h102.26v55.461h-102.26z" fill="#ffefd2"/><path d="m0 276.23h129.76v55.471h-129.76z" fill="#fedba6"/><path d="m0 276.23h102.26v55.471h-102.26z" fill="#ffefd2"/><path d="m0 331.702h129.76v55.461h-129.76z" fill="#fedba6"/><path d="m0 331.702h102.26v55.461h-102.26z" fill="#ffefd2"/><path d="m0 387.163h129.76v55.45h-129.76z" fill="#fedba6"/><path d="m0 387.157h102.26v55.461h-102.26z" fill="#ffefd2"/><g fill="#fedba6"><path d="m109.76 387.16c0 4.15-3.36 7.5-7.5 7.5h-102.26v-15h102.26c4.14 0 7.5 3.36 7.5 7.5z"/><path d="m109.76 331.7c0 4.14-3.36 7.5-7.5 7.5h-102.26v-15h102.26c4.14 0 7.5 3.36 7.5 7.5z"/><path d="m109.76 276.23c0 4.14-3.36 7.5-7.5 7.5h-102.26v-15h102.26c4.14 0 7.5 3.36 7.5 7.5z"/><path d="m109.76 220.77c0 4.14-3.36 7.5-7.5 7.5h-102.26v-15h102.26c4.14 0 7.5 3.36 7.5 7.5z"/><path d="m109.76 165.3c0 4.15-3.36 7.5-7.5 7.5h-102.26v-15h102.26c4.14 0 7.5 3.36 7.5 7.5z"/><path d="m102.26 117.34h-102.26v-15h102.26c4.14 0 7.5 3.35 7.5 7.5 0 4.14-3.36 7.5-7.5 7.5z"/></g><path d="m70.038 117.513v-15.343c0-3.014 2.444-5.458 5.458-5.458h54.268v26.259h-54.268c-3.014 0-5.458-2.443-5.458-5.458z" fill="#465a61"/><path d="m70.038 172.976v-15.343c0-3.014 2.444-5.458 5.458-5.458h54.268v26.259h-54.268c-3.014 0-5.458-2.443-5.458-5.458z" fill="#465a61"/><path d="m70.038 283.903v-15.343c0-3.014 2.444-5.458 5.458-5.458h54.268v26.259h-54.268c-3.014 0-5.458-2.444-5.458-5.458z" fill="#465a61"/><path d="m70.038 339.366v-15.343c0-3.014 2.444-5.458 5.458-5.458h54.268v26.259h-54.268c-3.014 0-5.458-2.444-5.458-5.458z" fill="#465a61"/><path d="m70.038 394.829v-15.343c0-3.014 2.444-5.458 5.458-5.458h54.268v26.259h-54.268c-3.014 0-5.458-2.443-5.458-5.458z" fill="#465a61"/><path d="m215.7 30.607v435.787c0 6.132-4.971 11.103-11.103 11.103h-74.837v-457.994h74.837c6.132 0 11.103 4.972 11.103 11.104z" fill="#e41f2d"/><path d="m186.572 36.395v424.207c0 9.331-7.209 16.895-16.102 16.895h-40.71v-457.997h40.709c8.893 0 16.103 7.564 16.103 16.895z" fill="#fd4755"/><path d="m497 30.607v29.715l-30.68 180.068 30.68 195.93v30.073c0 6.132-4.971 11.103-11.103 11.103h-93.003c-6.132 0-11.103-4.971-11.103-11.103v-435.786c0-6.132 4.971-11.103 11.103-11.103h93.003c6.132-.001 11.103 4.971 11.103 11.103z" fill="#e41f2d"/><path d="m466.32 35.59v425.82c0 8.884-6.776 16.087-15.135 16.087h-58.292c-6.132 0-11.103-4.971-11.103-11.103v-435.787c0-6.132 4.971-11.103 11.103-11.103h58.292c8.359-.001 15.135 7.202 15.135 16.086z" fill="#fd4755"/><path d="m497 60.68v375.64h-69.675c-4.968 0-8.995-4.027-8.995-8.995v-357.65c0-4.968 4.027-8.995 8.995-8.995z" fill="#fedba6"/><path d="m466.32 60.68v375.64h-38.995c-4.968 0-8.995-4.027-8.995-8.995v-357.65c0-4.968 4.027-8.995 8.995-8.995z" fill="#ffefd2"/><path d="m180.372 118.76h-15.282c-3.424 0-6.2-2.776-6.2-6.2v-56.188c0-3.424 2.776-6.2 6.2-6.2h15.282c3.424 0 6.2 2.776 6.2 6.2v56.189c0 3.424-2.776 6.199-6.2 6.199z" fill="#0ab69f"/><path d="m229.539 465.626c-7.644 0-13.841-6.197-13.841-13.841v-406.57c0-7.644 6.197-13.841 13.841-13.841 7.644 0 13.841 6.197 13.841 13.841v406.571c-.001 7.643-6.197 13.84-13.841 13.84z" fill="#d7d0d6"/><path d="m257.22 465.626c-7.644 0-13.841-6.197-13.841-13.841v-406.57c0-7.644 6.197-13.841 13.841-13.841 7.644 0 13.841 6.197 13.841 13.841v406.571c0 7.643-6.197 13.84-13.841 13.84z" fill="#e5e1e5"/><path d="m284.902 465.626c-7.644 0-13.841-6.197-13.841-13.841v-406.57c0-7.644 6.197-13.841 13.841-13.841 7.644 0 13.841 6.197 13.841 13.841v406.571c-.001 7.643-6.197 13.84-13.841 13.84z" fill="#d7d0d6"/><path d="m312.583 465.626c-7.644 0-13.841-6.197-13.841-13.841v-406.57c0-7.644 6.197-13.841 13.841-13.841 7.644 0 13.841 6.197 13.841 13.841v406.571c0 7.643-6.197 13.84-13.841 13.84z" fill="#e5e1e5"/><path d="m340.265 465.626c-7.644 0-13.841-6.197-13.841-13.841v-406.57c0-7.644 6.197-13.841 13.841-13.841 7.644 0 13.841 6.197 13.841 13.841v406.571c-.001 7.643-6.197 13.84-13.841 13.84z" fill="#d7d0d6"/><path d="m367.946 465.626c-7.644 0-13.841-6.197-13.841-13.841v-406.57c0-7.644 6.197-13.841 13.841-13.841 7.644 0 13.841 6.197 13.841 13.841v406.571c0 7.643-6.197 13.84-13.841 13.84z" fill="#e5e1e5"/><g fill="#465a61"><circle cx="449.359" cy="169.225" r="8.304"/><circle cx="449.359" cy="241.197" r="8.304"/><circle cx="449.359" cy="313.168" r="8.304"/><circle cx="465.968" cy="277.182" r="8.304"/><circle cx="465.968" cy="349.154" r="8.304"/><circle cx="465.968" cy="205.211" r="8.304"/><circle cx="465.968" cy="133.239" r="8.304"/></g></g></svg>