<svg id="Capa_1" enable-background="new 0 0 512 512" height="512" viewBox="0 0 512 512" width="512" xmlns="http://www.w3.org/2000/svg"><g><g><path d="m207.085 29.999-180.542 80.695h385.568l-180.542-80.695c-7.79-3.482-16.694-3.482-24.484 0z" fill="#c1d5e4"/></g><path d="m231.569 29.999c-7.79-3.482-16.694-3.482-24.483 0l-16.997 7.597 163.545 73.098h58.478z" fill="#98b9d3"/><g><path d="m81.702 98.077h264.908v232.561h-264.908z" fill="#407093"/></g><g><path d="m261.387 98.077h85.223v232.561h-85.223z" fill="#2b4d66"/></g><g><path d="m299.692 147.657h106.057v220.749h-106.057z" fill="#dae7ef"/></g><g><path d="m32.904 147.657h106.057v220.749h-106.057z" fill="#dae7ef"/></g><g><path d="m368.059 147.657h37.691v220.749h-37.691z" fill="#c1d5e4"/></g><g><path d="m101.271 147.657h37.691v220.749h-37.691z" fill="#c1d5e4"/></g><path d="m400.872 125.311h-95.556c-21.202 0-38.957 17.351-38.551 38.549.393 20.542 17.168 37.074 37.805 37.074 17.304 0 31.883-11.627 36.374-27.492.622-2.198 2.615-3.723 4.9-3.723h13.756c2.265 0 4.271 1.492 4.885 3.672 4.731 16.805 20.777 28.869 39.401 27.427 18.493-1.432 33.387-16.431 34.701-34.932 1.571-22.132-15.918-40.575-37.715-40.575z" fill="#c1d5e4"/><g><path d="m400.872 125.311h-28.284c21.796 0 39.285 18.442 37.713 40.574-1.037 14.599-10.532 27.01-23.575 32.303 5.24 2.117 11.059 3.102 17.159 2.629 18.493-1.432 33.387-16.431 34.701-34.932 1.572-22.131-15.917-40.574-37.714-40.574z" fill="#98b9d3"/></g><path d="m134.115 125.311h-95.557c-21.202 0-38.957 17.351-38.551 38.549.393 20.542 17.168 37.074 37.805 37.074 17.304 0 31.883-11.627 36.374-27.492.622-2.198 2.615-3.723 4.9-3.723h13.756c2.265 0 4.271 1.492 4.885 3.672 4.731 16.805 20.777 28.869 39.401 27.427 18.493-1.432 33.387-16.431 34.701-34.932 1.571-22.132-15.918-40.575-37.714-40.575z" fill="#c1d5e4"/><g><path d="m134.115 125.311h-28.284c21.796 0 39.285 18.442 37.713 40.574-1.037 14.599-10.532 27.01-23.575 32.303 5.24 2.117 11.059 3.102 17.159 2.629 18.493-1.432 33.387-16.431 34.701-34.932 1.571-22.131-15.918-40.574-37.714-40.574z" fill="#98b9d3"/></g><g><path d="m431.207 407.29h-423.76c-1.657 0-3-1.343-3-3v-36.912c0-8.284 6.716-15 15-15h399.76c8.284 0 15 6.716 15 15v36.912c0 1.657-1.343 3-3 3z" fill="#c1d5e4"/></g><g><path d="m219.917 226.636h-1.179c-17.065 0-30.899 13.834-30.899 30.899v60.293h62.978v-60.293c-.001-17.065-13.835-30.899-30.9-30.899z" fill="#98b9d3"/></g><path d="m219.917 226.636h-1.179c-3.633 0-7.118.632-10.355 1.784 11.971 4.258 20.544 15.683 20.544 29.115v60.292h21.89v-60.292c-.001-17.065-13.835-30.899-30.9-30.899z" fill="#81a7c6"/><g><path d="m381.351 352.377h-324.048v-39.912c0-8.284 6.716-15 15-15h294.048c8.284 0 15 6.716 15 15z" fill="#c1d5e4"/></g><g><path d="m419.207 352.377h-5.775v30.989c0 1.739-1.409 3.148-3.148 3.148h-405.837v17.627c0 1.739 1.409 3.148 3.148 3.148h423.464c1.739 0 3.148-1.409 3.148-3.148v-36.765c0-8.283-6.716-14.999-15-14.999z" fill="#98b9d3"/></g><g><path d="m366.351 297.465h-5.775v34.137h-303.273v20.775h324.048v-39.912c0-8.284-6.716-15-15-15z" fill="#98b9d3"/></g><g><circle cx="422.167" cy="394.78" fill="#dd5790" r="89.833"/></g><g><path d="m471.829 319.927c9.458 14.227 14.98 31.297 14.98 49.662 0 49.613-40.22 89.833-89.833 89.833-18.365 0-35.435-5.522-49.662-14.98 16.094 24.208 43.604 40.171 74.853 40.171 49.613 0 89.833-40.22 89.833-89.833 0-31.249-15.963-58.76-40.171-74.853z" fill="#da387d"/></g><g><path d="m463.158 389.584-62.473-36.069c-4-2.309-9 .577-9 5.196v72.138c0 4.619 5 7.506 9 5.196l62.473-36.069c4-2.309 4-8.083 0-10.392z" fill="#f6f9f9"/></g><g><path d="m428.092 128.18s-4.424-.001-12.364-.002c-12.958-.002-35.278-8.404-63.008-8.41-18.693-.003-39.845 8.391-62.244 8.386-45.243-.01-95.574-.023-141.016-.038-23.331-.008-45.373-6.618-64.775-6.628-26.121-.013-47.458 6.575-60.714 6.559-9.443-.011-14.786-.023-14.837-.035-2.689-.643-4.687-3.062-4.687-5.947v-22.743c0-3.377 2.738-6.114 6.114-6.114h417.531c3.377 0 6.115 2.738 6.115 6.114v22.743c0 3.377-2.738 6.115-6.115 6.115z" fill="#dae7ef"/></g><path d="m428.092 93.208h-9.793v12.95c0 3.377-2.738 6.114-6.115 6.114h-407.737v9.793c0 3.377 2.738 6.115 6.114 6.115h417.531c3.377 0 6.115-2.738 6.115-6.115v-22.743c0-3.377-2.738-6.114-6.115-6.114z" fill="#c1d5e4"/></g></svg>