<svg id="Capa_1" enable-background="new 0 0 512 512" height="512" viewBox="0 0 512 512" width="512" xmlns="http://www.w3.org/2000/svg"><g><path d="m446.059 58.166c-7.171 0-378.038 0-380.117 0-19.799 0-35.907 16.108-35.907 35.908v269.336c0 17.512 12.977 33.718 30.246 36.485h391.439c17.269-2.767 30.246-18.973 30.246-36.485 0-8.961 0-261.23 0-269.336 0-19.799-16.108-35.908-35.907-35.908z" fill="#695d67"/><path d="m72.014 363.411v-269.337c0-19.799 16.108-35.908 35.907-35.908-25.405 0-41.551 0-41.98 0-19.799 0-35.907 16.108-35.907 35.908v269.336c0 17.512 12.977 33.718 30.246 36.485h41.98c-17.268-2.767-30.246-18.973-30.246-36.484z" fill="#544e55"/><path d="m62.292 126.33v234.126c0 3.558 2.884 6.443 6.442 6.443h374.532c3.557 0 6.442-2.885 6.442-6.443 0-6.084 0-227.085 0-234.126z" fill="#dfebfa"/><path d="m104.272 360.456v-234.126h-41.98v234.126c0 3.558 2.884 6.443 6.442 6.443h41.98c-3.558 0-6.442-2.885-6.442-6.443z" fill="#b1dbfc"/><path d="m506.005 398.865h-500.01c-3.311 0-5.995 2.711-5.995 6.054v20.823c0 15.45 12.519 28.092 27.82 28.092h456.36c15.301 0 27.82-12.642 27.82-28.092v-20.823c0-3.343-2.684-6.054-5.995-6.054z" fill="#dfebfa"/><path d="m506.005 398.865h-500.01c-3.311 0-5.995 2.711-5.995 6.054v20.823c0 15.45 12.519 28.092 27.82 28.092h456.36c15.301 0 27.82-12.642 27.82-28.092v-20.823c0-3.343-2.684-6.054-5.995-6.054z" fill="#dfebfa"/><path d="m86.503 425.742v-20.823c0-3.343 2.684-6.054 5.995-6.054h-86.503c-3.311 0-5.995 2.711-5.995 6.054v20.823c0 15.45 12.519 28.092 27.82 28.092h86.503c-15.301 0-27.82-12.641-27.82-28.092z" fill="#b1dbfc"/><path d="m181.319 398.865v13.97c0 6.866 5.563 12.484 12.363 12.484h124.635c6.8 0 12.363-5.618 12.363-12.484v-13.97" fill="#b1dbfc"/><path d="m248.796 412.835v-13.97h-67.477v13.97c0 6.866 5.563 12.484 12.363 12.484h67.477c-6.8.001-12.363-5.617-12.363-12.484z" fill="#8bcaff"/><path d="m443.266 90.183c-16.637 0-327.972 0-341.157 0v38.207h347.599v-31.765c0-3.558-2.884-6.442-6.442-6.442z" fill="#5cb3f8"/><path d="m68.734 90.183c-3.558 0-6.442 2.884-6.442 6.443v31.765h41.878v-38.208z" fill="#ff4756"/><path d="m129.678 160.046h-18.297c-6.799 0-12.362 5.563-12.362 12.362v150.406c0 6.799 5.563 12.362 12.362 12.362h18.297z" fill="#ff4756"/><g><path d="m376.458 179.138h-60.837c-4.267 0-7.726-3.459-7.726-7.726s3.459-7.726 7.726-7.726h60.837c4.267 0 7.726 3.459 7.726 7.726s-3.459 7.726-7.726 7.726z" fill="#8479c2"/></g><g><g><path d="m406.877 209.631h-121.674c-4.267 0-7.726-3.459-7.726-7.726s3.459-7.726 7.726-7.726h121.674c4.267 0 7.726 3.459 7.726 7.726s-3.459 7.726-7.726 7.726z" fill="#b1dbfc"/></g></g><g><g><path d="m406.877 240.124h-121.674c-4.267 0-7.726-3.459-7.726-7.726s3.459-7.726 7.726-7.726h121.674c4.267 0 7.726 3.459 7.726 7.726s-3.459 7.726-7.726 7.726z" fill="#b1dbfc"/></g></g><g><g><path d="m406.877 270.617h-121.674c-4.267 0-7.726-3.459-7.726-7.726s3.459-7.726 7.726-7.726h121.674c4.267 0 7.726 3.459 7.726 7.726s-3.459 7.726-7.726 7.726z" fill="#b1dbfc"/></g></g><g><g><path d="m406.877 301.111h-121.674c-4.267 0-7.726-3.459-7.726-7.726s3.459-7.726 7.726-7.726h121.674c4.267 0 7.726 3.459 7.726 7.726s-3.459 7.726-7.726 7.726z" fill="#b1dbfc"/></g></g><g><g><path d="m406.877 331.604h-121.674c-4.267 0-7.726-3.459-7.726-7.726s3.459-7.726 7.726-7.726h121.674c4.267 0 7.726 3.459 7.726 7.726s-3.459 7.726-7.726 7.726z" fill="#b1dbfc"/></g></g><path d="m227.545 160.046h-99.927v175.13h99.927c6.799 0 12.362-5.563 12.362-12.362v-150.406c0-6.799-5.563-12.362-12.362-12.362z" fill="#ff7f87"/><path d="m207.8 191.982h-47.732c-2.94 0-5.323 2.383-5.323 5.323v17.953c0 2.94 2.383 5.323 5.323 5.323h47.732c2.94 0 5.323-2.383 5.323-5.323v-17.953c-.001-2.94-2.384-5.323-5.323-5.323z" fill="#dfebfa"/><g><path d="m196.295 317.449h-24.722c-4.267 0-7.726-3.459-7.726-7.726s3.459-7.726 7.726-7.726h24.722c4.267 0 7.726 3.459 7.726 7.726s-3.459 7.726-7.726 7.726z" fill="#ff4756"/></g></g></svg>