<svg id="Capa_1" enable-background="new 0 0 498 498" height="512" viewBox="0 0 498 498" width="512" xmlns="http://www.w3.org/2000/svg"><g><path d="m114.76 172.375v130.882h-114.76v-113.802c0-9.434 6.8-17.08 15.19-17.08z" fill="#465a61"/><path d="m91.47 133.985h72.82v63.485h-79.61v-56.695c0-3.75 3.04-6.79 6.79-6.79z" fill="#465a61"/><path d="m413.32 140.775v56.695h-79.61v-63.485h72.82c3.75 0 6.79 3.04 6.79 6.79z" fill="#465a61"/><path d="m333.71 114.245v74.92h-169.42v-74.92c0-7.85 6.36-14.21 14.21-14.21h141c7.85 0 14.21 6.36 14.21 14.21z" fill="#d7d0d6"/><path d="m299.05 114.245v74.92h-134.76v-74.92c0-7.85 6.36-14.21 14.21-14.21h106.33c7.85 0 14.22 6.36 14.22 14.21z" fill="#e5e1e5"/><path d="m498 191.127v97.648l-24.612 27.297h-90.138v-143.697h100.022c8.13 0 14.728 8.395 14.728 18.752z" fill="#465a61"/><path d="m79.26 186.138v129.934h-64.799l-14.461-27.297v-97.648c0-10.357 6.801-18.752 15.19-18.752h52.922c6.157 0 11.148 6.162 11.148 13.763z" fill="#596c76"/><path d="m99.72 343.37v54.595h-59.72v-109.19h44.68z" fill="#fedba6"/><path d="m69.86 288.775v109.19h-29.86l-23.832-60.255 23.832-48.935z" fill="#ffefd2"/><path d="m99.72 288.775h59.71v109.19h-59.71z" fill="#fedba6"/><path d="m99.72 288.775h29.86v109.19h-29.86z" fill="#ffefd2"/><path d="m159.43 288.775h59.71v109.19h-59.71z" fill="#fedba6"/><path d="m159.43 288.775h29.86v109.19h-29.86z" fill="#ffefd2"/><path d="m219.14 288.775h59.72v109.19h-59.72z" fill="#fedba6"/><path d="m219.14 288.775h29.86v109.19h-29.86z" fill="#ffefd2"/><path d="m278.86 288.775h59.71v109.19h-59.71z" fill="#fedba6"/><path d="m302.52 172.375h80.73v116.4h-80.73z" fill="#baafb9"/><path d="m278.86 288.775h29.85v109.19h-29.85z" fill="#ffefd2"/><path d="m464.527 187.565v112.726h-81.277v-127.916h66.549c8.13 0 14.728 6.8 14.728 15.19z" fill="#596c76"/><path d="m398.29 343.37v54.595h-59.72v-109.19h44.68z" fill="#fedba6"/><path d="m338.57 288.775h29.86v109.19h-29.86z" fill="#ffefd2"/><path d="m458 288.775 20 50.786-20 58.404h-44.676v-109.19h21.752z" fill="#fedba6"/><path d="m428.15 288.775v109.19h-29.86v-54.595l14.93-54.595z" fill="#ffefd2"/><path d="m108.451 343.367h-17.466c-3.483 0-6.306-2.823-6.306-6.306v-48.284l11.354-10.112 18.724 10.112v48.284c0 3.482-2.823 6.306-6.306 6.306z" fill="#465a61"/><path d="m114.76 172.375h230.49v116.4h-230.49z" fill="#d7d0d6"/><g fill="#465a61"><path d="m168.164 343.367h-17.465c-3.483 0-6.306-2.823-6.306-6.306v-48.284h30.078v48.284c-.001 3.482-2.824 6.306-6.307 6.306z"/><path d="m287.591 343.367h-17.465c-3.483 0-6.306-2.823-6.306-6.306v-48.284h30.078v48.284c-.001 3.482-2.824 6.306-6.307 6.306z"/><path d="m347.304 343.367h-17.465c-3.483 0-6.306-2.823-6.306-6.306v-48.284h30.078v48.284c0 3.482-2.824 6.306-6.307 6.306z"/><path d="m407.018 343.367h-17.461c-3.483 0-6.306-2.823-6.306-6.306v-48.284h30.074v48.284c-.001 3.482-2.824 6.306-6.307 6.306z"/></g><path d="m498 288.776h-40v109.186h26.393c7.515 0 13.607-6.092 13.607-13.607z" fill="#d7d0d6"/><path d="m40.003 288.776h-40v95.579c0 7.515 6.092 13.607 13.607 13.607h26.393z" fill="#d7d0d6"/><path d="m291.17 194.685v37.41c0 2.6-2.11 4.71-4.71 4.71h-74.9c-2.61 0-4.72-2.11-4.72-4.71v-37.41c0-2.61 2.11-4.72 4.72-4.72h74.9c2.6 0 4.71 2.11 4.71 4.72z" fill="#0078c8"/><path d="m273.84 194.685v37.41c0 2.6-2.11 4.71-4.72 4.71h-57.56c-2.61 0-4.72-2.11-4.72-4.71v-37.41c0-2.61 2.11-4.72 4.72-4.72h57.56c2.61 0 4.72 2.11 4.72 4.72z" fill="#3c87d0"/><path d="m333.71 193.965v70.68c0 2.2-1.79 3.99-3.99 3.99h-17.02c-2.2 0-3.99-1.79-3.99-3.99v-70.68c0-2.21 1.79-4 3.99-4h17.02c2.2 0 3.99 1.79 3.99 4z" fill="#e41f2d"/><path d="m322.46 193.965v70.68c0 2.2-1.79 3.99-3.99 3.99h-5.77c-2.2 0-3.99-1.79-3.99-3.99v-70.68c0-2.21 1.79-4 3.99-4h5.77c2.2 0 3.99 1.79 3.99 4z" fill="#fd4755"/><g><path d="m291.17 261.135c0 4.15-3.36 7.5-7.5 7.5h-69.33c-4.15 0-7.5-3.35-7.5-7.5 0-4.14 3.35-7.5 7.5-7.5h69.33c4.14 0 7.5 3.36 7.5 7.5z" fill="#fedba6"/></g><g><path d="m273.84 261.135c0 4.15-3.36 7.5-7.5 7.5h-52c-4.15 0-7.5-3.35-7.5-7.5 0-4.14 3.35-7.5 7.5-7.5h52c4.14 0 7.5 3.36 7.5 7.5z" fill="#ffefd2"/></g><circle cx="177.14" cy="197.47" fill="#e41f2d" r="7.5"/><circle cx="177.14" cy="261.137" fill="#baafb9" r="7.5"/><circle cx="177.14" cy="229.304" fill="#baafb9" r="7.5"/></g></svg>