<svg id="Capa_1" enable-background="new 0 0 512 512" height="512" viewBox="0 0 512 512" width="512" xmlns="http://www.w3.org/2000/svg"><g><path d="m278.998 102.792h-108.668l18.595 47.888c3.864 9.951 13.442 16.506 24.117 16.506h65.957v-64.394z" fill="#fec458"/><path d="m247.989 150.68-18.595-47.888h-59.065l18.595 47.888c3.864 9.951 13.442 16.507 24.117 16.507h59.065c-10.675-.001-20.253-6.556-24.117-16.507z" fill="#f9ab49"/><path d="m301.329 265.305c-12.282 0-22.331-10.049-22.331-22.331v-79.378h-67.308c-10.079 0-19.124-6.191-22.772-15.586l-18.425-47.449c-3.648-9.396-12.693-15.586-22.772-15.586h-123.292c-13.492 0-24.429 10.937-24.429 24.429v336.721c0 13.492 10.937 24.429 24.429 24.429h435.307c13.492 0 24.429-10.937 24.429-24.429v-180.82z" fill="#ffe181"/><path d="m81.809 446.125c0-7.149 0-325.937 0-336.721 0-13.491 10.936-24.428 24.426-24.429h-81.806c-13.492 0-24.429 10.937-24.429 24.429v336.721c0 13.491 10.937 24.429 24.429 24.429h81.806c-13.491-.002-24.426-10.939-24.426-24.429z" fill="#fec458"/><path d="m489.077 270.456h-192.185c-12.608 0-22.923-10.315-22.923-22.923v-183.163c0-12.608 10.315-22.923 22.923-22.923h192.184c12.609 0 22.924 10.315 22.924 22.923v183.163c0 12.608-10.315 22.923-22.923 22.923z" fill="#ff656f"/><path d="m324.921 246.841v-181.779c0-12.988 10.627-23.615 23.615-23.615h-50.952c-12.988 0-23.615 10.627-23.615 23.615v181.779c0 12.988 10.627 23.615 23.615 23.615h50.952c-12.988 0-23.615-10.627-23.615-23.615z" fill="#ff4756"/><path d="m392.985 86.858c-38.001 0-69.093 31.092-69.093 69.093 0 38.001 31.092 69.093 69.093 69.093 38.001 0 69.093-31.092 69.093-69.093 0-38.001-31.092-69.093-69.093-69.093z" fill="#dfebfa"/><path d="m374.844 155.951c0-29.013 18.132-53.98 43.617-64.177-7.895-3.159-16.488-4.916-25.476-4.916-38.001 0-69.093 31.092-69.093 69.093s31.092 69.093 69.093 69.093c8.988 0 17.581-1.758 25.476-4.917-25.485-10.195-43.617-35.163-43.617-64.176z" fill="#b1dbfc"/><path d="m421.936 149.772-39.274-23.656c-4.808-2.896-10.936.567-10.936 6.18v47.312c0 5.613 6.128 9.076 10.936 6.18l39.274-23.656c4.656-2.805 4.656-9.556 0-12.36z" fill="#ff656f"/></g></svg>