<svg id="Capa_1" enable-background="new 0 0 512 512" height="512" viewBox="0 0 512 512" width="512" xmlns="http://www.w3.org/2000/svg"><g><g><path d="m412.623 445.1 4.99-15.701.131-401.884c.004-11.012-8.921-19.942-19.933-19.946l-283.46-.091c-11.012-.004-19.942 8.921-19.946 19.933l-.131 401.884 4.98 15.704z" fill="#61a2f9"/></g><g><path d="m397.812 7.57-15.904-.005-.143 437.525 30.859.01 4.99-15.701.131-401.884c.003-11.011-8.921-19.941-19.933-19.945z" fill="#4a81f6"/></g><g><path d="m358.019 291.966-204.061-.066c-5.523-.002-9.999-4.48-9.997-10.003l.067-204.061c.002-5.523 4.48-9.999 10.003-9.997l204.061.067c5.523.002 9.999 4.48 9.997 10.003l-.067 204.061c-.002 5.523-4.481 9.998-10.003 9.996z" fill="#f6f9f9"/></g><g><g><path d="m202.578 219.656c-4.917-.278-9.273 2.224-11.644 6.078-.172.28-.58.28-.752 0-2.366-3.857-6.719-6.365-11.636-6.093-6.357.351-11.565 5.457-12.032 11.806-.39 5.31 2.464 9.997 6.784 12.282 3.282 1.736 6.355 3.842 9.133 6.307l.648.575c2.4 2.131 4.57 4.507 6.474 7.091l.624.846c.179.243.541.243.72 0l.625-.846c1.907-2.581 4.08-4.955 6.484-7.083l.649-.574c2.78-2.461 5.856-4.563 9.14-6.295 4.324-2.28 7.184-6.963 6.801-12.274-.459-6.349-5.661-11.461-12.018-11.82z" fill="#dd5790"/></g></g><g><path d="m339.177 232.699-95.895-.031c-4.13-.001-7.476-3.35-7.475-7.48s3.35-7.476 7.48-7.475l95.895.031c4.13.001 7.476 3.35 7.475 7.48s-3.35 7.476-7.48 7.475z" fill="#c1d5e4"/></g><g><path d="m301.593 265.68-58.322-.019c-4.13-.001-7.476-3.35-7.475-7.48s3.35-7.476 7.48-7.475l58.322.019c4.13.001 7.476 3.35 7.475 7.48s-3.35 7.476-7.48 7.475z" fill="#c1d5e4"/></g><g><path d="m301.641 119.722-58.322-.019c-4.13-.001-7.476-3.35-7.475-7.48s3.35-7.476 7.48-7.475l58.322.019c4.13.001 7.476 3.35 7.475 7.48-.002 4.13-3.35 7.476-7.48 7.475z" fill="#c1d5e4"/></g><g><circle cx="190.593" cy="112.209" fill="#c1d5e4" r="19.347"/></g><g><path d="m367.969 445.086-224.061-.073.032-97.408c.002-5.523 4.48-9.999 10.003-9.997l204.061.067c5.523.002 9.999 4.48 9.997 10.003z" fill="#f6f9f9"/></g><g><path d="m301.553 389.49-58.322-.019c-4.13-.001-7.476-3.35-7.475-7.48s3.35-7.476 7.48-7.475l58.322.019c4.13.001 7.476 3.35 7.475 7.48s-3.351 7.476-7.48 7.475z" fill="#c1d5e4"/></g><g><circle cx="190.505" cy="381.977" fill="#c1d5e4" r="19.347"/></g><g><path d="m94.274 429.294-.018 55.19c-.004 11.012 8.921 19.942 19.933 19.946l283.461.093c11.012.004 19.942-8.921 19.946-19.933l.018-55.19z" fill="#dae7ef"/></g><g><path d="m381.769 429.388-.006 19.346c-.004 11.012-8.934 19.936-19.946 19.933l-267.556-.087-.005 15.905c-.004 11.012 8.921 19.942 19.933 19.946l283.461.093c11.012.004 19.942-8.921 19.946-19.933l.018-55.19z" fill="#c1d5e4"/></g><g><path d="m397.647 512-283.461-.093c-15.118-.005-27.412-12.308-27.408-27.425l.149-457.074c.006-15.118 12.309-27.413 27.426-27.408l283.461.093c15.118.005 27.412 12.308 27.408 27.425l-.149 457.074c-.006 15.118-12.309 27.413-27.426 27.408zm-283.299-497.046c-6.872-.002-12.464 5.586-12.466 12.458l-.149 457.074c-.002 6.872 5.586 12.464 12.458 12.466l283.461.093c6.872.002 12.464-5.586 12.466-12.458l.149-457.074c.002-6.872-5.586-12.464-12.458-12.466z" fill="#98b9d3"/></g><g><path d="m280.043 476.39-48.23-.016c-4.13-.001-7.476-3.35-7.475-7.48s3.35-7.476 7.48-7.475l48.23.016c4.129.001 7.476 3.35 7.475 7.48s-3.351 7.477-7.48 7.475z" fill="#407093"/></g></g></svg>