<svg id="Capa_1" enable-background="new 0 0 497 497" height="512" viewBox="0 0 497 497" width="512" xmlns="http://www.w3.org/2000/svg"><g><g><path d="m382 41.182h-19.643c-4.142 0-7.5-3.357-7.5-7.5s3.358-7.5 7.5-7.5h19.643c4.142 0 7.5 3.357 7.5 7.5s-3.358 7.5-7.5 7.5z" fill="#fed402"/></g><g><path d="m386.02 141.774c-4.142 0-7.5-3.357-7.5-7.5 0-23.598-19.198-42.796-42.796-42.796h-214.204c-18.002 0-32.648-14.646-32.648-32.648s14.646-32.647 32.648-32.647h165.98c4.142 0 7.5 3.357 7.5 7.5s-3.358 7.5-7.5 7.5h-165.98c-9.731 0-17.648 7.917-17.648 17.647 0 9.731 7.917 17.648 17.648 17.648h214.204c31.869 0 57.796 25.927 57.796 57.796 0 4.143-3.358 7.5-7.5 7.5z" fill="#d7d0d6"/></g><path d="m481.4 134.278c8.616 0 15.6 6.984 15.6 15.6v281.34c0 16.62-12.69 30.49-29.25 31.97l-5.75.51-99.77 8.92c-75.67 6.76-151.79 6.76-227.46 0l-105.52-9.43c-16.559-1.48-29.25-15.355-29.25-31.98v-281.33c0-8.616 6.984-15.6 15.6-15.6z" fill="#465a61"/><path d="m462 168.378v264.133c0 17.656-13.477 32.392-31.063 33.965l-68.707 6.143c-75.67 6.76-151.79 6.76-227.46 0l-105.52-9.43c-16.559-1.481-29.25-15.356-29.25-31.981v-281.33c0-8.616 6.984-15.6 15.6-15.6h412.3c18.833 0 34.1 15.268 34.1 34.1z" fill="#596c76"/><path d="m72.391 302.427c-4.142 0-7.5 3.357-7.5 7.5v72.662c0 4.143 3.358 7.5 7.5 7.5s7.5-3.357 7.5-7.5v-72.662c0-4.143-3.358-7.5-7.5-7.5z" fill="#465a61"/><path d="m154.35 302.429c-4.142 0-7.5 3.357-7.5 7.5v105c0 4.143 3.358 7.5 7.5 7.5s7.5-3.357 7.5-7.5v-105c0-4.143-3.358-7.5-7.5-7.5z" fill="#465a61"/><path d="m180.33 251.868v26.12c0 3.83-3.11 6.94-6.94 6.94h-120.04c-3.83 0-6.94-3.11-6.94-6.94v-26.12c0-3.83 3.11-6.94 6.94-6.94h120.04c3.83 0 6.94 3.11 6.94 6.94z" fill="#fac600"/><path d="m155.83 251.868v26.12c0 3.83-3.11 6.94-6.94 6.94h-95.54c-3.83 0-6.94-3.11-6.94-6.94v-26.12c0-3.83 3.11-6.94 6.94-6.94h95.54c3.83 0 6.94 3.11 6.94 6.94z" fill="#fed402"/><circle cx="61.41" cy="199.926" fill="#d7d0d6" r="15"/><circle cx="113.372" cy="199.926" fill="#d7d0d6" r="15"/><path d="m98.37 362.738v44.54c0 4.225-3.425 7.65-7.65 7.65h-36.66c-4.225 0-7.65-3.425-7.65-7.65v-44.54c0-4.225 3.425-7.65 7.65-7.65h36.66c4.225 0 7.65 3.425 7.65 7.65z" fill="#fedba6"/><path d="m75.37 362.738v44.54c0 4.225-3.425 7.65-7.65 7.65h-13.66c-4.225 0-7.65-3.425-7.65-7.65v-44.54c0-4.225 3.425-7.65 7.65-7.65h13.66c4.225 0 7.65 3.425 7.65 7.65z" fill="#ffefd2"/><path d="m180.33 340.158v44.53c0 4.225-3.425 7.65-7.65 7.65h-36.66c-4.225 0-7.65-3.425-7.65-7.65v-44.53c0-4.225 3.425-7.65 7.65-7.65h36.66c4.225 0 7.65 3.425 7.65 7.65z" fill="#fedba6"/><path d="m157.67 340.158v44.53c0 4.225-3.425 7.65-7.65 7.65h-14c-4.225 0-7.65-3.425-7.65-7.65v-44.53c0-4.225 3.425-7.65 7.65-7.65h14c4.225 0 7.65 3.425 7.65 7.65z" fill="#ffefd2"/><path d="m356.762 47.46h-63.667c-3.09 0-5.595-2.505-5.595-5.595v-16.958c0-3.09 2.505-5.595 5.595-5.595h63.667c3.09 0 5.595 2.505 5.595 5.595v16.957c.001 3.091-2.505 5.596-5.595 5.596z" fill="#465a61"/><path d="m276.77 238.676h-58.75v-40.964c0-9.823 7.963-17.786 17.786-17.786h40.964z" fill="#fd4755"/><path d="m276.77 179.926h58.75v58.75h-58.75z" fill="#baafb9"/><path d="m335.52 179.926h58.75v58.75h-58.75z" fill="#d7d0d6"/><path d="m453.02 238.676h-58.75v-58.75h40.964c9.823 0 17.786 7.963 17.786 17.786z" fill="#0078c8"/><path d="m218.02 238.676h58.75v58.75h-58.75z" fill="#baafb9"/><path d="m276.77 238.676h58.75v58.75h-58.75z" fill="#d7d0d6"/><path d="m335.52 238.676h58.75v58.75h-58.75z" fill="#fd4755"/><path d="m394.27 238.676h58.75v58.75h-58.75z" fill="#d7d0d6"/><path d="m218.02 297.426h58.75v58.75h-58.75z" fill="#0078c8"/><path d="m276.77 297.426h58.75v58.75h-58.75z" fill="#fd4755"/><path d="m335.52 297.426h58.75v58.75h-58.75z" fill="#d7d0d6"/><path d="m394.27 297.426h58.75v58.75h-58.75z" fill="#baafb9"/><path d="m276.77 414.926h-40.964c-9.823 0-17.786-7.963-17.786-17.786v-40.964h58.75z" fill="#baafb9"/><path d="m276.77 356.176h58.75v58.75h-58.75z" fill="#d7d0d6"/><path d="m335.52 356.176h58.75v58.75h-58.75z" fill="#baafb9"/><path d="m435.234 414.926h-40.964v-58.75h58.75v40.964c0 9.823-7.963 17.786-17.786 17.786z" fill="#fd4755"/></g></svg>