<svg id="Capa_1" enable-background="new 0 0 494.842 494.842" height="512" viewBox="0 0 494.842 494.842" width="512" xmlns="http://www.w3.org/2000/svg"><g><g fill="#d7d0d6"><path d="m109.666 60.333-44.025 44.025-27.094-27.094c-4.294-4.294-4.294-11.255 0-15.549l28.476-28.476c4.294-4.294 11.255-4.294 15.549 0z"/><path d="m429.201 104.358-44.025-44.025 27.094-27.094c4.294-4.294 11.255-4.294 15.549 0l28.476 28.476c4.294 4.294 4.294 11.255 0 15.549z"/><path d="m385.176 423.893 44.025-44.025 27.094 27.094c4.294 4.294 4.294 11.255 0 15.549l-28.476 28.476c-4.294 4.294-11.255 4.294-15.549 0z"/><path d="m65.641 379.868 44.025 44.025-27.094 27.094c-4.294 4.294-11.255 4.294-15.549 0l-28.476-28.476c-4.294-4.294-4.294-11.255 0-15.549z"/></g><path d="m489.534 242.113c0 133.72-108.394 242.113-242.113 242.113-4.459 0-8.887-.12-13.286-.361-127.543-6.889-228.827-112.491-228.827-241.752s101.284-234.863 228.828-241.751c4.398-.241 8.826-.362 13.285-.362 133.72 0 242.113 108.394 242.113 242.113z" fill="#e41f2d"/><ellipse cx="234.136" cy="242.113" fill="#fd4755" rx="228.828" ry="241.752"/><path d="m452.58 242.113c0 113.304-91.854 205.159-205.159 205.159-6.728 0-13.376-.321-19.933-.954-103.955-10.022-185.225-97.629-185.225-204.205s81.27-194.183 185.225-204.205c6.557-.633 13.205-.954 19.933-.954 113.304.001 205.159 91.855 205.159 205.159z" fill="#baafb9"/><ellipse cx="227.488" cy="242.113" fill="#d7d0d6" rx="185.225" ry="204.205"/><circle cx="247.421" cy="242.113" fill="#e5e1e5" r="91.382"/><path d="m213.088 170.65c2.151 5.944 1.326 12.244-1.732 17.261l106.752 293.298c1.448 3.979-.603 8.378-4.582 9.826l-9.183 3.342c-3.979 1.448-8.378-.603-9.826-4.582l-106.752-293.298c-5.579-1.881-10.268-6.191-12.435-12.145-3.916-10.76 1.929-22.683 13.017-26.081 10.113-3.1 21.142 2.432 24.741 12.379z" fill="#fedba6"/><path d="m281.754 170.65c-2.151 5.944-1.326 12.244 1.732 17.261l-106.752 293.298c-1.448 3.979.603 8.378 4.582 9.826l9.183 3.342c3.979 1.448 8.378-.603 9.826-4.582l106.752-293.298c5.579-1.881 10.268-6.191 12.435-12.145 3.916-10.76-1.929-22.683-13.017-26.081-10.113-3.1-21.142 2.432-24.741 12.379z" fill="#ffefd2"/></g></svg>