<svg id="Capa_1" enable-background="new 0 0 511.999 511.999" height="512" viewBox="0 0 511.999 511.999" width="512" xmlns="http://www.w3.org/2000/svg"><g><path d="m283.505 0c-10.182 0-181.359 0-196.371 0-17.637 0-31.985 14.349-31.985 31.986v139.91c0 14.211 9.597 27.723 22.936 31.695h214.471c13.339-3.973 22.936-17.484 22.936-31.695v-139.91c-.001-17.637-14.35-31.986-31.987-31.986z" fill="#695d67"/><path d="m89.378 171.896v-139.91c0-17.637 14.349-31.986 31.986-31.986-17.627 0-30.57 0-34.23 0-17.637 0-31.985 14.349-31.985 31.986v139.91c0 14.211 9.597 27.723 22.936 31.695h34.23c-13.34-3.972-22.937-17.484-22.937-31.695z" fill="#544e55"/><path d="m336.904 202.561h-303.169c-2.949 0-5.34 2.414-5.34 5.393v6.578c0 13.763 11.152 25.024 24.782 25.024h264.287c13.63 0 24.782-11.261 24.782-25.024v-6.578c-.001-2.979-2.392-5.393-5.342-5.393z" fill="#dfebfa"/><path d="m91.005 214.531v-6.578c0-2.978 2.391-5.393 5.34-5.393h-62.61c-2.949 0-5.34 2.414-5.34 5.393v6.578c0 13.763 11.152 25.024 24.781 25.024h62.611c-13.63 0-24.782-11.261-24.782-25.024z" fill="#b1dbfc"/><path d="m83.883 60.493v107.854c0 3.169 2.569 5.739 5.738 5.739h191.397c3.169 0 5.738-2.57 5.738-5.739 0-5.187 0-86.883 0-107.854z" fill="#43cb8e"/><path d="m121.187 168.347v-107.854h-37.304v107.854c0 3.169 2.569 5.739 5.738 5.739h37.304c-3.169 0-5.738-2.57-5.738-5.739z" fill="#00ba66"/><path d="m328.166 267.001h-21.761c-8.25 0-15 6.75-15 15v214.998c0 8.25 6.75 15 15 15h21.761z" fill="#ff4756"/><path d="m458.765 182.956h-9.669v-28.745c0-24.051-19.567-43.618-43.618-43.618h-53.321c-4.267 0-7.726 3.459-7.726 7.726s3.459 7.726 7.726 7.726h53.321c15.531 0 28.165 12.635 28.165 28.165v28.745h-9.669c-6.048 0-9.641 6.756-6.26 11.771l17.395 25.799c2.993 4.439 9.527 4.439 12.52 0l17.395-25.799c3.382-5.014-.211-11.77-6.259-11.77z" fill="#80c3fa"/><path d="m259.918 374.205h-53.321c-15.531 0-28.165-12.635-28.165-28.166v-28.744h9.669c6.048 0 9.641-6.756 6.26-11.771l-17.395-25.799c-2.993-4.439-9.527-4.439-12.52 0l-17.395 25.799c-3.381 5.015.212 11.771 6.26 11.771h9.669v28.744c0 24.051 19.567 43.618 43.618 43.618h53.321c4.267 0 7.726-3.459 7.726-7.726s-3.46-7.726-7.727-7.726z" fill="#80c3fa"/><path d="m281.018 28.519h-161.892v34.034h167.63v-28.295c0-3.169-2.569-5.739-5.738-5.739z" fill="#5cb3f8"/><path d="m121.187 62.554v-34.035h-31.566c-3.169 0-5.738 2.569-5.738 5.739v28.295h37.304z" fill="#ff4756"/><g><path d="m171.1 140.533-15.764-15.764c-5.66-5.66-5.66-14.837 0-20.498s14.838-5.661 20.498 0l5.516 5.515 13.457-13.457c5.66-5.661 14.838-5.661 20.498 0 5.66 5.66 5.66 14.837 0 20.498l-23.706 23.706c-5.661 5.661-14.839 5.661-20.499 0z" fill="#dfebfa"/></g><path d="m468.605 267.001h-142.499v244.998h142.499c8.25 0 15-6.75 15-15v-214.998c0-8.25-6.75-15-15-15z" fill="#ff7f87"/><path d="m444.647 305.751h-79.166c-3.567 0-6.458 2.892-6.458 6.458v21.784c0 3.567 2.891 6.458 6.458 6.458h79.166c3.567 0 6.458-2.892 6.458-6.458v-21.784c0-3.567-2.891-6.458-6.458-6.458z" fill="#dfebfa"/><g><path d="m430.687 488.841h-51.247c-4.267 0-7.726-3.459-7.726-7.726 0-4.268 3.459-7.726 7.726-7.726h51.246c4.267 0 7.726 3.459 7.726 7.726.001 4.267-3.458 7.726-7.725 7.726z" fill="#ff4756"/></g></g></svg>