<svg id="Capa_1" enable-background="new 0 0 512 512" height="512" viewBox="0 0 512 512" width="512" xmlns="http://www.w3.org/2000/svg"><g><g><path d="m415.308 503.309-63.27-393.115c-.658-4.089-4.502-6.879-8.594-6.212-4.089.658-6.87 4.506-6.212 8.594l53.896 334.87h-270.255l53.896-334.87c.658-4.088-2.123-7.936-6.212-8.594-4.089-.663-7.937 2.123-8.595 6.212l-63.27 393.115c-.77 4.508 2.849 8.73 7.413 8.691 3.617 0 6.801-2.623 7.394-6.308l6.96-43.247h275.083l6.96 43.247c.593 3.686 3.777 6.308 7.394 6.308 4.564.039 8.182-4.184 7.412-8.691z" fill="#be694f"/><g><path d="m256 190.965c-4.141 0-7.499-3.357-7.499-7.499v-175.967c0-4.142 3.358-7.499 7.499-7.499 4.142 0 7.499 3.357 7.499 7.499v175.967c0 4.142-3.357 7.499-7.499 7.499z" fill="#be694f"/></g><g><path d="m434.706 373.556h-357.412c-7.732 0-14-6.268-14-14v-208.581c0-7.732 6.268-14 14-14h357.413c7.732 0 14 6.268 14 14v208.581c-.001 7.732-6.269 14-14.001 14z" fill="#dae7ef"/></g><g><path d="m434.709 136.975h-30.884v177.702c0 7.731-6.267 13.997-13.997 13.997h-326.534v30.884c0 7.73 6.267 13.997 13.997 13.997h357.418c7.73 0 13.997-6.267 13.997-13.997v-208.586c0-7.731-6.266-13.997-13.997-13.997z" fill="#c1d5e4"/></g><g><path d="m294.608 111.386h-77.217v-45.989c0-7.732 6.268-14 14-14h49.217c7.732 0 14 6.268 14 14z" fill="#be694f"/></g><g><path d="m280.611 51.397h-17.403c7.731 0 13.997 6.267 13.997 13.997v45.991h17.403v-45.991c0-7.73-6.267-13.997-13.997-13.997z" fill="#aa593d"/></g><g><path d="m303.426 136.975h-94.851c-3.314 0-6-2.686-6-6v-22.025c0-3.314 2.686-6 6-6h94.851c3.314 0 6 2.686 6 6v22.025c0 3.313-2.687 6-6 6z" fill="#c67d66"/></g><g><path d="m424.404 407.581h-336.808c-3.314 0-6-2.686-6-6v-22.025c0-3.314 2.686-6 6-6h336.808c3.314 0 6 2.686 6 6v22.025c0 3.313-2.686 6-6 6z" fill="#c67d66"/></g><g><path d="m303.427 102.95h-8.045v13.982c0 3.313-2.686 5.999-5.999 5.999h-86.808v8.045c0 3.313 2.686 5.999 5.999 5.999h94.853c3.313 0 5.999-2.686 5.999-5.999v-22.027c0-3.314-2.686-5.999-5.999-5.999z" fill="#be694f"/></g><g><path d="m424.405 373.556h-8.045v13.982c0 3.313-2.686 5.999-5.999 5.999h-328.765v8.045c0 3.313 2.686 5.999 5.999 5.999h336.81c3.313 0 5.999-2.686 5.999-5.999v-22.027c0-3.314-2.686-5.999-5.999-5.999z" fill="#be694f"/></g><g><circle cx="256" cy="86.859" fill="#2b4d66" r="11.998"/></g></g><g><path d="m274.897 324.782h-18.897c-4.142 0-7.5-3.357-7.5-7.5s3.358-7.5 7.5-7.5h18.897c4.12 0 7.802-2.613 9.161-6.502l7.736-22.132c1.367-3.91 5.646-5.974 9.555-4.605 3.91 1.367 5.972 5.645 4.605 9.555l-7.736 22.132c-3.46 9.9-12.832 16.552-23.321 16.552z" fill="#c67d66"/></g><path d="m266.684 287.225v-16.645h-22.196v16.645c0 5.381-.281 10.758-.842 16.109l-4.417 42.12c-.186 1.771 1.203 3.313 2.984 3.313h26.747c1.781 0 3.169-1.542 2.984-3.313l-4.417-42.12c-.562-5.351-.843-10.728-.843-16.109z" fill="#c67d66"/><path d="m320.464 215.328c.748-3.726.958-7.647.531-11.684-1.962-18.517-17.284-33.112-35.873-34.196-9.809-.572-18.877 2.542-25.953 8.084-2.097 1.642-5.068 1.644-7.165.001-7.086-5.552-16.172-8.667-25.999-8.083-18.855 1.121-34.287 16.146-35.903 34.965-.357 4.162-.042 8.196.841 12.013.644 2.782-.855 5.626-3.499 6.705-14.722 6.009-24.878 20.891-23.817 38.003 1.217 19.631 17.459 35.329 37.118 35.928 9.227.281 17.746-2.699 24.501-7.869 2.121-1.623 5.055-1.501 7.183.112 6.437 4.878 14.456 7.775 23.156 7.775 9.191 0 17.623-3.235 24.23-8.623 2.066-1.685 5.041-1.734 7.17-.129 6.731 5.072 15.181 7.984 24.324 7.692 19.691-.629 35.924-16.405 37.071-36.072 1.006-17.245-9.38-32.197-24.331-38.052-2.621-1.027-4.14-3.808-3.585-6.57z" fill="#78d090"/><path d="m242.213 348.767h26.747c1.781 0 3.169-1.542 2.984-3.313l-1.76-16.781h-29.195l-1.76 16.781c-.186 1.771 1.203 3.313 2.984 3.313z" fill="#be694f"/></g></svg>