<svg id="Capa_1" enable-background="new 0 0 512 512" height="512" viewBox="0 0 512 512" width="512" xmlns="http://www.w3.org/2000/svg"><g><g><path d="m60.079 356.144v27.833c0 33.109 26.84 59.95 59.95 59.95 14.855 0 29.182-5.516 40.202-15.478l56.021-50.642z" fill="#407093"/></g><g><path d="m166.537 370.912-41.983 37.952c-11.02 9.962-25.346 15.478-40.202 15.478-3.154 0-6.25-.247-9.273-.716 10.985 12.444 27.045 20.303 44.949 20.303 14.855 0 29.182-5.516 40.202-15.478l56.021-50.642z" fill="#2b4d66"/></g><g><path d="m451.92 356.144v27.833c0 33.109-26.84 59.95-59.95 59.95-14.855 0-29.182-5.516-40.202-15.478l-56.021-50.642z" fill="#407093"/></g><g><path d="m412.172 361.658v22.32c0 26.132-16.725 48.345-40.05 56.553 6.327 2.221 13.03 3.396 19.849 3.396 33.109 0 59.949-26.84 59.949-59.95v-27.833z" fill="#2b4d66"/></g><g><path d="m469.717 222.626c-16.211-103.562-105.812-154.553-213.924-154.553s-197.714 50.991-213.925 154.553z" fill="#407093"/></g><g><path d="m255.793 68.073c-13.681 0-27.064.82-40.041 2.456 89.572 11.294 159.723 61.64 173.883 152.097h80.082c-16.211-103.562-105.812-154.553-213.924-154.553z" fill="#2b4d66"/></g><g><path d="m488.703 115.005-5.531-2.09c-6.733-2.544-13.931 2.432-13.931 9.629v34.945c0 9.664-7.835 17.499-17.499 17.499h-391.397c-9.664 0-17.499-7.835-17.499-17.499v-34.945c0-7.198-7.198-12.173-13.931-9.629l-5.62 2.123c-14.018 5.297-23.295 18.718-23.295 33.703v70.259l41.071 123.863 4.601 4.628c27.049 27.204 63.828 42.5 102.191 42.5h215.859c38.362 0 75.142-15.296 102.19-42.5l4.602-4.628 41.48-123.863.005-70.165c.053-15.032-9.233-28.517-23.296-33.83z" fill="#86f1a7"/></g><g><g><path d="m488.703 115.005-5.531-2.09c-6.733-2.543-13.931 2.432-13.931 9.629v34.945c0 9.664-7.835 17.499-17.499 17.499h-15.107l-.321 90.473c0 23.118-9.15 45.297-25.45 61.691l-20.222 20.338c-27.049 27.204-63.828 42.5-102.191 42.5h75.271c38.362 0 75.142-15.296 102.191-42.5l4.602-4.628 41.485-123.861-.001-70.165c.053-15.033-9.233-28.518-23.296-33.831z" fill="#78d090"/></g></g><g><path d="m0 219.001v46.461c0 23.118 9.15 45.297 25.45 61.691l15.621 15.71h429.443l15.621-15.71c16.3-16.394 25.856-38.573 25.856-61.691l.009-46.461z" fill="#dae7ef"/></g><g><g><path d="m512 219h-75.498l-.187 46.462c0 23.118-9.15 45.297-25.45 61.691l-15.621 15.71h75.271l15.621-15.71c16.3-16.394 25.856-38.573 25.856-61.691z" fill="#c1d5e4"/></g></g><g><circle cx="122.289" cy="280.932" fill="#61a2f9" r="33.056"/></g><g><path d="m137.85 251.765c2.479 4.638 3.889 9.934 3.889 15.56 0 18.256-14.8 33.056-33.056 33.056-5.627 0-10.922-1.41-15.56-3.889 5.566 10.41 16.537 17.496 29.167 17.496 18.256 0 33.056-14.8 33.056-33.056-.001-12.63-7.086-23.601-17.496-29.167z" fill="#4a81f6"/></g><g><circle cx="122.289" cy="280.932" fill="#2b4d66" r="9.833"/></g><g><circle cx="389.296" cy="280.932" fill="#61a2f9" r="33.056"/></g><g><path d="m404.856 251.765c2.479 4.638 3.889 9.934 3.889 15.56 0 18.256-14.8 33.056-33.056 33.056-5.627 0-10.922-1.41-15.56-3.889 5.566 10.41 16.537 17.496 29.167 17.496 18.256 0 33.056-14.8 33.056-33.056 0-12.63-7.086-23.601-17.496-29.167z" fill="#4a81f6"/></g><g><circle cx="389.296" cy="280.932" fill="#2b4d66" r="9.833"/></g></g></svg>