<svg id="Capa_1" enable-background="new 0 0 493.475 493.475" height="512" viewBox="0 0 493.475 493.475" width="512" xmlns="http://www.w3.org/2000/svg"><g><g><path d="m27.914 422.513c-.444 0-.893-.039-1.345-.121-4.076-.738-6.782-4.641-6.043-8.717l23.488-129.352c.738-4.075 4.642-6.78 8.716-6.043 4.076.738 6.782 4.641 6.043 8.717l-23.488 129.352c-.656 3.623-3.814 6.164-7.371 6.164z" fill="#465a61"/></g><g><path d="m464.897 420.618c-3.557 0-6.715-2.54-7.371-6.165l-23.032-127.457c-.738-4.075 1.968-7.978 6.044-8.716 4.072-.742 7.978 1.967 8.716 6.044l23.032 127.457c.738 4.075-1.968 7.978-6.044 8.716-.452.082-.902.121-1.345.121z" fill="#465a61"/></g><g fill="#d7d0d6"><path d="m294.615 87.283h-95.965v-24.282c0-11.27 9.136-20.406 20.406-20.406h55.154c11.27 0 20.406 9.136 20.406 20.406v24.282z"/><path d="m449.847 285.66h-38.508v-52.168h38.508c7.544 0 13.66 6.116 13.66 13.659v24.849c-.001 7.544-6.116 13.66-13.66 13.66z"/><path d="m43.724 285.66h38.508v-52.168h-38.508c-7.544 0-13.659 6.116-13.659 13.659v24.849c-.001 7.544 6.115 13.66 13.659 13.66z"/></g><circle cx="246.633" cy="260.243" fill="#e41f2d" r="190.637"/><path d="m409.585 260.243c0 90-72.95 162.96-162.95 162.96-5.07 0-10.08-.23-15.03-.69-82.96-7.58-147.93-77.34-147.93-162.27s64.97-154.69 147.93-162.27c4.95-.46 9.96-.69 15.03-.69 90 0 162.95 72.96 162.95 162.96z" fill="#d7d0d6"/><path d="m379.525 260.243c0 84.93-64.97 154.68-147.92 162.27-82.96-7.58-147.93-77.34-147.93-162.27s64.97-154.69 147.93-162.27c82.95 7.59 147.92 77.34 147.92 162.27z" fill="#e5e1e5"/><path d="m323.915 168.563v17.36c0 3.49-2.83 6.32-6.31 6.32h-141.94c-3.49 0-6.31-2.83-6.31-6.32v-17.36c0-3.49 2.82-6.32 6.31-6.32h141.94c3.48 0 6.31 2.83 6.31 6.32z" fill="#465a61"/><path d="m294.615 168.563v17.36c0 3.49-2.83 6.32-6.31 6.32h-112.64c-3.49 0-6.31-2.83-6.31-6.32v-17.36c0-3.49 2.82-6.32 6.31-6.32h112.64c3.48 0 6.31 2.83 6.31 6.32z" fill="#596c76"/><path d="m43.049 404.28h-29.063c-4.167 0-7.738 2.978-8.486 7.077l-5.357 29.348c-.967 5.297 3.102 10.175 8.486 10.175h29.063c4.167 0 7.738-2.978 8.486-7.077l5.357-29.348c.967-5.297-3.102-10.175-8.486-10.175z" fill="#ffefd2"/><path d="m479.212 404.28h-29.032c-5.416 0-9.493 4.933-8.472 10.252l5.633 29.348c.78 4.063 4.335 7 8.472 7h29.033c5.416 0 9.493-4.933 8.472-10.252l-5.633-29.348c-.781-4.063-4.335-7-8.473-7z" fill="#ffefd2"/><path d="m334.515 349.153c-13.27 13.11-32.16 17.07-48.82 11.9-7.41-2.29-14.38-6.39-20.22-12.3-18.95-19.18-18.77-50.09.4-69.04 5.76-5.69 12.58-9.66 19.81-11.9 16.86-5.24 35.97-1.12 49.23 12.3 18.96 19.18 18.78 50.09-.4 69.04z" fill="#465a61"/><path d="m305.515 349.153c-5.76 5.69-12.58 9.66-19.82 11.9-7.41-2.29-14.38-6.39-20.22-12.3-18.95-19.18-18.77-50.09.4-69.04 5.76-5.69 12.58-9.66 19.81-11.9 7.42 2.29 14.39 6.39 20.23 12.3 18.96 19.18 18.78 50.09-.4 69.04z" fill="#596c76"/></g></svg>