<svg id="Capa_1" enable-background="new 0 0 512 512" height="512" viewBox="0 0 512 512" width="512" xmlns="http://www.w3.org/2000/svg"><g><g><path d="m426.638 415.252h-364.239c-5.523 0-10-4.477-10-10v-115.045c0-5.523 4.477-10 10-10h364.238c5.523 0 10 4.477 10 10v26.682l-2.981 7.502 2.981 7.502v38.39l-4.2 7.502 4.2 7.502v19.963c.001 5.525-4.477 10.002-9.999 10.002z" fill="#dd5790"/></g><g><path d="m426.635 280.207h-14.185v100.854c0 5.524-4.478 10.003-10.003 10.003h-350.048v14.185c0 5.524 4.479 10.003 10.003 10.003h364.232c5.525 0 10.003-4.479 10.003-10.003v-19.96l-4.2-7.502 4.2-7.502v-38.39l-2.981-7.502 2.981-7.502v-26.681c0-5.525-4.478-10.003-10.002-10.003z" fill="#da387d"/></g><g><path d="m159.62 280.207h15.004v135.045h-15.004z" fill="#407093"/></g><g><path d="m265.578 280.207h15.004v135.045h-15.004z" fill="#407093"/></g><g><path d="m372.366 280.207h15.004v135.045h-15.004z" fill="#407093"/></g><path d="m159.62 391.064h15.005v24.188h-15.005z" fill="#2b4d66"/><g><path d="m52.399 316.889h384.239v15.004h-384.239z" fill="#f6e266"/></g><g><path d="m52.399 370.284h384.239v15.004h-384.239z" fill="#f6e266"/></g><path d="m412.45 316.889h24.188v15.005h-24.188z" fill="#ecc32e"/><path d="m412.45 381.061c0 1.513-.346 2.942-.947 4.227h25.135v-15.004h-24.188z" fill="#ecc32e"/><g><path d="m396.236 112.251h-35.164v36.577h35.164c14.771 0 26.788 12.017 26.788 26.788v4.188c0 14.771-12.017 26.788-26.788 26.788h-35.164v36.577h35.164c34.939 0 63.365-28.425 63.365-63.365v-4.188c0-34.939-28.425-63.365-63.365-63.365z" fill="#dae7ef"/></g><g><g><path d="m432.357 123.598c7.143 10.256 11.347 22.703 11.347 36.121v22.72c0 34.94-28.426 44.833-63.365 44.833h-19.267v15.898h35.164c34.939 0 63.365-28.425 63.365-63.365v-4.188c0-21.523-10.794-40.562-27.244-52.019z" fill="#c1d5e4"/></g></g><g><path d="m249.197 63.171c-1.405 0-2.825-.394-4.09-1.218-3.471-2.262-4.451-6.91-2.188-10.381l4.834-7.417c1.657-2.542.936-5.958-1.606-7.615-9.474-6.175-12.157-18.905-5.982-28.379l3.099-4.754c2.261-3.471 6.91-4.451 10.381-2.189 3.472 2.262 4.452 6.91 2.189 10.381l-3.099 4.754c-1.657 2.542-.937 5.958 1.606 7.616 9.472 6.174 12.156 18.904 5.982 28.378l-4.834 7.418c-1.438 2.206-3.841 3.406-6.292 3.406z" fill="#dae7ef"/></g><g><path d="m289.83 63.171c-1.405 0-2.825-.394-4.089-1.218-3.472-2.262-4.452-6.91-2.189-10.381l4.833-7.417c1.657-2.543.937-5.959-1.605-7.616-9.474-6.175-12.157-18.905-5.982-28.379l3.099-4.754c2.261-3.471 6.91-4.451 10.381-2.189 3.472 2.262 4.452 6.91 2.189 10.381l-3.099 4.754c-1.657 2.542-.937 5.958 1.606 7.616 9.473 6.174 12.156 18.905 5.981 28.378l-4.833 7.417c-1.438 2.208-3.841 3.408-6.292 3.408z" fill="#dae7ef"/></g><g><path d="m208.793 63.171c-1.405 0-2.825-.394-4.089-1.218-3.472-2.262-4.452-6.91-2.189-10.381l4.833-7.417c1.657-2.543.937-5.959-1.605-7.616-9.474-6.175-12.157-18.905-5.982-28.379l3.099-4.754c2.261-3.471 6.91-4.451 10.381-2.189 3.472 2.262 4.452 6.91 2.189 10.381l-3.099 4.754c-1.657 2.542-.937 5.958 1.606 7.616 9.473 6.174 12.156 18.905 5.981 28.378l-4.833 7.417c-1.439 2.208-3.842 3.408-6.292 3.408z" fill="#dae7ef"/></g><path d="m265.578 391.064h15.004v24.188h-15.004z" fill="#2b4d66"/><path d="m372.366 391.064h15.004v24.188h-15.004z" fill="#2b4d66"/><g><path d="m106.225 280.207h15.004v135.045h-15.004z" fill="#407093"/></g><g><path d="m212.183 280.207h15.004v135.045h-15.004z" fill="#407093"/></g><g><path d="m318.973 280.207h15.004v135.045h-15.004z" fill="#407093"/></g><g fill="#2b4d66"><path d="m212.183 391.064h15.005v24.188h-15.005z"/><path d="m106.225 391.064h15.004v24.188h-15.004z"/><path d="m318.973 391.064h15.004v24.188h-15.004z"/></g><g><path d="m323.718 341.547h-138.935c-24.853 0-45-20.147-45-45v-198.179c0-5.523 4.477-10 10-10h208.935c5.523 0 10 4.477 10 10v128.904l-5.468 8.416 5.468 7.406v53.453c0 24.853-20.147 45-45 45z" fill="#dae7ef"/></g><g><path d="m358.715 88.368h-39.908v158.255c0 24.86-20.153 45.013-45.013 45.013h-134.01v4.898c0 24.86 20.153 45.013 45.013 45.013h138.908c24.86 0 45.013-20.153 45.013-45.013v-198.163c0-5.525-4.478-10.003-10.003-10.003z" fill="#c1d5e4"/></g><g><path d="m225.867 280.207c0 7.706-8.046 14.046-10.304 20.999-2.34 7.206.362 17.049-4.003 23.047-4.409 6.058-14.634 6.509-20.692 10.918-5.998 4.365-9.563 13.975-16.768 16.315-6.953 2.258-15.454-3.348-23.159-3.348-7.706 0-16.207 5.606-23.159 3.348-7.206-2.34-10.771-11.95-16.769-16.315-6.058-4.409-16.283-4.86-20.692-10.918-4.365-5.998-1.663-15.841-4.003-23.046-2.258-6.953-10.303-13.293-10.303-20.998 0-7.706 8.046-14.046 10.304-20.999 2.34-7.206-.362-17.049 4.003-23.047 4.409-6.058 14.634-6.509 20.692-10.918 5.998-4.365 9.563-13.975 16.768-16.315 6.953-2.258 15.454 3.348 23.159 3.348 7.706 0 16.207-5.606 23.159-3.348 7.206 2.34 10.771 11.95 16.769 16.315 6.058 4.409 16.283 4.86 20.692 10.918 4.365 5.998 1.663 15.841 4.003 23.046 2.258 6.953 10.303 13.293 10.303 20.998z" fill="#be694f"/></g><g><g><path d="m215.564 259.209c-2.34-7.206.362-17.049-4.003-23.047-3.929-5.399-12.472-6.352-18.574-9.615.785 5.405.003 11.678 1.63 16.691 2.286 7.039 10.432 13.458 10.432 21.259s-8.146 14.22-10.432 21.259c-2.369 7.296.366 17.26-4.053 23.333-4.464 6.133-14.816 6.59-20.949 11.053-6.072 4.419-9.681 14.149-16.977 16.518-7.039 2.286-15.646-3.39-23.447-3.39-5.287 0-10.943 2.601-16.231 3.57 4.9 4.782 8.43 12.568 14.821 14.643 6.953 2.258 15.454-3.348 23.159-3.348s16.206 5.606 23.159 3.348c7.206-2.34 10.771-11.95 16.769-16.315 6.058-4.409 16.283-4.86 20.692-10.918 4.365-5.998 1.663-15.841 4.003-23.047 2.257-6.953 10.304-13.293 10.304-20.999.001-7.702-8.045-14.042-10.303-20.995z" fill="#aa593d"/></g></g><g><g><circle cx="173.619" cy="257.529" fill="#c67d66" r="9.88"/></g><g><circle cx="128.263" cy="302.885" fill="#c67d66" r="9.88"/></g><g><circle cx="173.619" cy="302.885" fill="#c67d66" r="9.88"/></g><g><circle cx="150.941" cy="280.207" fill="#c67d66" r="9.88"/></g><g><circle cx="128.263" cy="257.529" fill="#c67d66" r="9.88"/></g></g><g><g><path d="m274.283 510.633c-2.811 0-5.506-1.587-6.787-4.298l-20.903-44.21-20.903 44.21c-1.77 3.747-6.242 5.347-9.989 3.576-3.745-1.771-5.346-6.243-3.575-9.989l27.685-58.556c1.24-2.623 3.881-4.296 6.782-4.296s5.543 1.673 6.782 4.296l27.685 58.556c1.771 3.746.17 8.218-3.575 9.989-1.037.49-2.128.722-3.202.722z" fill="#dd5790"/></g><g><path d="m246.593 512c-4.144 0-7.502-3.359-7.502-7.502v-61.165c0-4.143 3.358-7.502 7.502-7.502s7.502 3.359 7.502 7.502v61.165c0 4.143-3.358 7.502-7.502 7.502z" fill="#dd5790"/></g></g><g><g><path d="m120.612 510.633c-2.811 0-5.506-1.587-6.787-4.298l-20.902-44.21-20.903 44.21c-1.772 3.747-6.241 5.347-9.989 3.576-3.745-1.771-5.346-6.243-3.575-9.989l27.685-58.556c1.24-2.623 3.881-4.296 6.782-4.296 2.901 0 5.543 1.673 6.782 4.296l27.684 58.556c1.771 3.746.17 8.218-3.575 9.989-1.036.49-2.127.722-3.202.722z" fill="#dd5790"/></g><g><path d="m92.923 512c-4.144 0-7.502-3.359-7.502-7.502v-61.165c0-4.143 3.358-7.502 7.502-7.502s7.502 3.359 7.502 7.502v61.165c0 4.143-3.358 7.502-7.502 7.502z" fill="#dd5790"/></g></g><g><g><path d="m142.069 510.633c-1.075 0-2.166-.232-3.202-.722-3.745-1.771-5.346-6.243-3.575-9.989l27.684-58.556c1.24-2.623 3.881-4.296 6.782-4.296s5.543 1.673 6.782 4.296l27.685 58.556c1.771 3.746.17 8.218-3.575 9.989-3.748 1.771-8.218.17-9.989-3.576l-20.903-44.21-20.902 44.21c-1.281 2.71-3.977 4.297-6.787 4.298z" fill="#dd5790"/></g><g><path d="m169.758 512c-4.144 0-7.502-3.359-7.502-7.502v-61.165c0-4.143 3.358-7.502 7.502-7.502s7.502 3.359 7.502 7.502v61.165c0 4.143-3.359 7.502-7.502 7.502z" fill="#dd5790"/></g></g><g><g><path d="m351.425 510.633c-2.811 0-5.506-1.587-6.787-4.298l-20.902-44.21-20.903 44.21c-1.772 3.747-6.242 5.347-9.989 3.576-3.745-1.771-5.346-6.243-3.575-9.989l27.685-58.556c1.24-2.623 3.881-4.296 6.782-4.296 2.901 0 5.543 1.673 6.782 4.296l27.684 58.556c1.771 3.746.17 8.218-3.575 9.989-1.037.49-2.128.722-3.202.722z" fill="#dd5790"/></g><g><path d="m323.736 512c-4.144 0-7.502-3.359-7.502-7.502v-61.165c0-4.143 3.358-7.502 7.502-7.502s7.502 3.359 7.502 7.502v61.165c0 4.143-3.358 7.502-7.502 7.502z" fill="#dd5790"/></g></g><g><g><path d="m372.881 510.633c-1.075 0-2.166-.232-3.202-.722-3.745-1.771-5.346-6.243-3.575-9.989l27.684-58.556c1.24-2.623 3.881-4.296 6.782-4.296s5.543 1.673 6.782 4.296l27.685 58.556c1.771 3.746.17 8.218-3.575 9.989-3.748 1.771-8.217.17-9.989-3.576l-20.903-44.21-20.902 44.21c-1.28 2.71-3.976 4.297-6.787 4.298z" fill="#dd5790"/></g><g><path d="m400.57 512c-4.144 0-7.502-3.359-7.502-7.502v-61.165c0-4.143 3.358-7.502 7.502-7.502s7.502 3.359 7.502 7.502v61.165c0 4.143-3.358 7.502-7.502 7.502z" fill="#dd5790"/></g></g><g><circle cx="246.593" cy="430.177" fill="#dd5790" r="20.637"/></g><g><circle cx="92.923" cy="430.177" fill="#dd5790" r="20.637"/></g><g><circle cx="169.758" cy="430.177" fill="#dd5790" r="20.637"/></g><g><circle cx="323.735" cy="430.177" fill="#dd5790" r="20.637"/></g><g><circle cx="400.57" cy="430.177" fill="#dd5790" r="20.637"/></g><g><path d="m255.461 411.564c1.284 2.69 2.024 5.689 2.024 8.868 0 11.397-9.239 20.637-20.637 20.637-3.179 0-6.178-.74-8.868-2.024 3.319 6.953 10.395 11.769 18.613 11.769 11.397 0 20.637-9.24 20.637-20.637 0-8.218-4.816-15.293-11.769-18.613z" fill="#da387d"/></g><g><path d="m101.791 411.564c1.284 2.69 2.024 5.689 2.024 8.868 0 11.397-9.24 20.637-20.637 20.637-3.179 0-6.179-.74-8.868-2.024 3.319 6.953 10.395 11.769 18.613 11.769 11.398 0 20.637-9.24 20.637-20.637 0-8.218-4.816-15.293-11.769-18.613z" fill="#da387d"/></g><g><path d="m178.626 411.564c1.284 2.69 2.024 5.689 2.024 8.868 0 11.397-9.24 20.637-20.637 20.637-3.179 0-6.179-.74-8.868-2.024 3.32 6.953 10.395 11.769 18.613 11.769 11.398 0 20.637-9.24 20.637-20.637 0-8.218-4.816-15.293-11.769-18.613z" fill="#da387d"/></g><g><path d="m332.604 411.564c1.284 2.69 2.024 5.689 2.024 8.868 0 11.397-9.24 20.637-20.637 20.637-3.179 0-6.179-.74-8.868-2.024 3.319 6.953 10.395 11.769 18.613 11.769 11.398 0 20.637-9.24 20.637-20.637-.001-8.218-4.816-15.293-11.769-18.613z" fill="#da387d"/></g><g><path d="m409.439 411.564c1.284 2.69 2.024 5.689 2.024 8.868 0 11.397-9.239 20.637-20.637 20.637-3.179 0-6.179-.74-8.868-2.024 3.32 6.953 10.395 11.769 18.613 11.769 11.398 0 20.637-9.24 20.637-20.637-.001-8.218-4.816-15.293-11.769-18.613z" fill="#da387d"/></g></g></svg>