<svg id="Capa_1" enable-background="new 0 0 497 497" height="512" viewBox="0 0 497 497" width="512" xmlns="http://www.w3.org/2000/svg"><g><g><path d="m458.878 197.664c-1.919 0-3.839-.732-5.304-2.196-2.929-2.93-2.929-7.678 0-10.607l11.58-11.58c2.93-2.928 7.678-2.928 10.607 0 2.929 2.93 2.929 7.678 0 10.607l-11.58 11.58c-1.464 1.464-3.384 2.196-5.303 2.196z" fill="#baafb9"/></g><g><path d="m263.212 393.331c-1.919 0-3.839-.732-5.304-2.196-2.929-2.93-2.929-7.678 0-10.607l11.58-11.58c2.93-2.928 7.678-2.928 10.607 0 2.929 2.93 2.929 7.678 0 10.607l-11.58 11.58c-1.464 1.464-3.384 2.196-5.303 2.196z" fill="#baafb9"/></g><g><path d="m470.458 393.331c-1.919 0-3.839-.732-5.304-2.196l-11.58-11.58c-2.929-2.93-2.929-7.678 0-10.607 2.93-2.928 7.678-2.928 10.607 0l11.58 11.58c2.929 2.93 2.929 7.678 0 10.607-1.464 1.464-3.384 2.196-5.303 2.196z" fill="#baafb9"/></g><g><path d="m30.408 191.529c-1.919 0-3.839-.732-5.304-2.196l-8.057-8.057c-2.929-2.93-2.929-7.678 0-10.607 2.93-2.928 7.678-2.928 10.607 0l8.057 8.057c2.929 2.93 2.929 7.678 0 10.607-1.464 1.464-3.384 2.196-5.303 2.196z" fill="#baafb9"/></g><g><path d="m185.273 346.395c-1.92 0-3.839-.732-5.304-2.197l-8.057-8.058c-2.929-2.929-2.929-7.678.001-10.606 2.929-2.928 7.678-2.929 10.606.001l8.057 8.058c2.929 2.929 2.929 7.678-.001 10.606-1.463 1.463-3.383 2.196-5.302 2.196z" fill="#baafb9"/></g><g><path d="m22.351 346.395c-1.919 0-3.839-.732-5.303-2.196-2.93-2.929-2.93-7.678-.001-10.606l8.057-8.058c2.93-2.93 7.679-2.929 10.606-.001 2.93 2.929 2.93 7.678.001 10.606l-8.057 8.058c-1.464 1.464-3.384 2.197-5.303 2.197z" fill="#baafb9"/></g><path d="m275.664 148.659-24.517 20.572c-6.235 5.231-7.048 14.526-1.816 20.761l30.045 35.806 47.094-39.517-30.045-35.806c-5.231-6.234-14.526-7.047-20.761-1.816z" fill="#d7d0d6"/><path d="m173.971 217.13-42.65-35.787 25.538-30.435c5.661-6.746 15.718-7.626 22.464-1.965l18.22 15.288c6.746 5.661 7.626 15.718 1.965 22.464z" fill="#d7d0d6"/><path d="m497 282.207c0 71.89-58.27 130.17-130.17 130.17-3.5 0-6.97-.14-10.39-.41-67.03-5.3-119.77-61.37-119.77-129.76s52.74-124.46 119.77-129.76c3.42-.27 6.89-.41 10.39-.41 71.9 0 130.17 58.28 130.17 130.17z" fill="#e41f2d"/><ellipse cx="356.44" cy="282.207" fill="#fd4755" rx="119.77" ry="129.76"/><path d="m465.86 282.207c0 54.69-44.34 99.02-99.03 99.02-7.13 0-14.09-.75-20.79-2.19-44.7-9.55-78.23-49.27-78.23-96.83s33.53-87.28 78.23-96.83c6.7-1.44 13.66-2.19 20.79-2.19 54.69 0 99.03 44.33 99.03 99.02z" fill="#baafb9"/><ellipse cx="346.04" cy="282.207" fill="#d7d0d6" rx="78.23" ry="96.83"/><path d="m207.62 257.437c0 57.33-46.48 103.8-103.81 103.8-3.77 0-7.5-.2-11.17-.6-52.08-5.57-92.64-49.65-92.64-103.2 0-53.56 40.56-97.64 92.64-103.21 3.67-.4 7.4-.6 11.17-.6 57.33 0 103.81 46.47 103.81 103.81z" fill="#e41f2d"/><path d="m185.27 257.437c0 53.55-40.55 97.63-92.63 103.2-52.08-5.57-92.64-49.65-92.64-103.2 0-53.56 40.56-97.64 92.64-103.21 52.08 5.57 92.63 49.65 92.63 103.21z" fill="#fd4755"/><path d="m175.19 257.437c0 39.42-31.96 71.37-71.38 71.37-6.09 0-12.01-.76-17.66-2.21-30.88-7.85-53.71-35.83-53.71-69.16s22.83-61.32 53.71-69.17c5.65-1.45 11.57-2.21 17.66-2.21 39.42 0 71.38 31.96 71.38 71.38z" fill="#baafb9"/><path d="m139.86 257.437c0 33.32-22.84 61.31-53.71 69.16-30.88-7.85-53.71-35.83-53.71-69.16s22.83-61.32 53.71-69.17c30.87 7.86 53.71 35.85 53.71 69.17z" fill="#d7d0d6"/><circle cx="103.812" cy="257.433" fill="#e5e1e5" r="23.018"/><circle cx="366.835" cy="282.208" fill="#e5e1e5" r="44.667"/><g><path d="m188.43 164.086c-1.701 0-3.412-.575-4.817-1.755-3.173-2.662-3.587-7.393-.924-10.566l26.072-31.071c2.662-3.173 7.393-3.588 10.566-.924 3.173 2.662 3.587 7.393.924 10.566l-26.072 31.071c-1.484 1.768-3.609 2.679-5.749 2.679z" fill="#596c76"/></g><g><path d="m263.41 166.445c-2.141 0-4.266-.911-5.749-2.679l-28.052-33.431c-2.663-3.174-2.249-7.904.924-10.566 3.173-2.661 7.904-2.249 10.566.924l28.052 33.431c2.663 3.174 2.249 7.904-.924 10.566-1.405 1.179-3.116 1.755-4.817 1.755z" fill="#596c76"/></g><path d="m278.862 108.073c0 6.47-2.62 12.33-6.87 16.58-4.24 4.24-10.11 6.86-16.58 6.86h-58.38c-12.95 0-23.45-10.49-23.45-23.44 0-6.47 2.62-12.34 6.87-16.58 4.24-4.25 10.11-6.87 16.58-6.87h58.38c12.95 0 23.45 10.5 23.45 23.45z" fill="#d7d0d6"/><path d="m254.102 108.073c0 6.47-2.62 12.33-6.86 16.58-4.24 4.24-10.1 6.86-16.58 6.86h-33.63c-12.95 0-23.45-10.49-23.45-23.44 0-6.47 2.62-12.34 6.87-16.58 4.24-4.25 10.11-6.87 16.58-6.87h33.63c12.95 0 23.44 10.5 23.44 23.45z" fill="#e5e1e5"/></g></svg>