<svg id="Capa_1" enable-background="new 0 0 512 512" height="512" viewBox="0 0 512 512" width="512" xmlns="http://www.w3.org/2000/svg"><g><path d="m208.053 384.796v31.521c0 12.054-5.776 23.247-15.263 29.575l-22.915 15.285h172.249l-22.915-15.285c-9.487-6.328-15.263-17.521-15.263-29.575v-31.521c-31.531 0-64.361 0-95.893 0z" fill="#b1dbfc"/><path d="m208.053 384.796v31.521c0 12.054-5.776 23.247-15.263 29.575l-22.915 15.285h55.596l.483-.322c9.487-6.328 15.263-17.521 15.263-29.575v-21.822c0-5.357 4.342-9.699 9.699-9.699h53.03v-14.963z" fill="#8bcaff"/><path d="m358.16 460.072h-204.32c-5.689 0-10.301 4.612-10.301 10.301v11.535c0 5.689 4.612 10.301 10.301 10.301h204.32c5.689 0 10.301-4.612 10.301-10.301v-11.535c0-5.689-4.612-10.301-10.301-10.301z" fill="#dfebfa"/><path d="m200.63 481.908v-11.535c0-5.689 4.612-10.301 10.301-10.301h-57.091c-5.689 0-10.301 4.612-10.301 10.301v11.535c0 5.689 4.612 10.301 10.301 10.301h57.091c-5.689 0-10.301-4.612-10.301-10.301z" fill="#b1dbfc"/><g><g><path d="m482.311 19.791h-452.622c-16.371 0-29.689 13.318-29.689 29.689v306.986c0 16.371 13.318 29.689 29.689 29.689h452.622c16.371 0 29.689-13.318 29.689-29.689v-306.986c0-16.371-13.318-29.689-29.689-29.689z" fill="#695d67"/></g></g><path d="m34.342 356.467v-306.987c0-16.371 13.318-29.689 29.689-29.689h-34.342c-16.371 0-29.689 13.318-29.689 29.689v306.986c0 16.371 13.318 29.689 29.689 29.689h34.341c-16.37.001-29.688-13.317-29.688-29.688z" fill="#554e56"/><g><path d="m32.137 88.075v2.06 259.611c0 2.36 1.912 4.272 4.272 4.272h439.182c2.359 0 4.272-1.912 4.272-4.272 0-6.921 0-186.243 0-261.671z" fill="#dfebfa"/><g><g><path d="m150.137 271.246c-1.977 0-3.955-.755-5.463-2.263-3.018-3.017-3.018-7.909 0-10.926l59.456-59.457c3.017-3.017 7.909-3.017 10.926 0 3.018 3.017 3.018 7.909 0 10.926l-59.456 59.456c-1.508 1.509-3.485 2.264-5.463 2.264z" fill="#0290f4"/></g></g><g><g><path d="m84.21 205.318c-1.977 0-3.955-.754-5.463-2.263-3.018-3.017-3.018-7.909 0-10.926l59.456-59.456c3.017-3.017 7.909-3.018 10.926 0 3.018 3.017 3.018 7.909 0 10.926l-59.456 59.456c-1.509 1.508-3.486 2.263-5.463 2.263z" fill="#0290f4"/></g></g><g><path d="m126.709 247.817c-1.977 0-3.955-.755-5.463-2.263-3.018-3.017-3.018-7.909 0-10.926l59.456-59.456c3.017-3.017 7.909-3.017 10.926 0 3.018 3.017 3.018 7.909 0 10.926l-59.456 59.456c-1.508 1.509-3.486 2.263-5.463 2.263z" fill="#ff4756"/></g><g><path d="m192.561 313.669c-1.977 0-3.955-.755-5.463-2.263-3.018-3.017-3.018-7.909 0-10.926l59.456-59.456c3.017-3.017 7.909-3.017 10.926 0 3.018 3.017 3.018 7.909 0 10.926l-59.456 59.456c-1.508 1.509-3.486 2.263-5.463 2.263z" fill="#ff4756"/></g></g><path d="m63.045 349.747v-259.611-2.06h-30.908v2.06 259.611c0 2.36 1.912 4.272 4.272 4.272h30.907c-2.359 0-4.271-1.912-4.271-4.272z" fill="#b1dbfc"/><path d="m475.591 51.928h-398.09v38.208h402.362c0-17.883 0-30.339 0-33.936 0-2.36-1.913-4.272-4.272-4.272z" fill="#5cb3f8"/><path d="m78.531 51.928h-42.122c-2.359 0-4.272 1.912-4.272 4.272v33.936h46.394z" fill="#ff656f"/><path d="m67.315 51.928h-30.906c-2.359 0-4.272 1.912-4.272 4.272v33.936h30.906v-33.936c0-2.359 1.913-4.272 4.272-4.272z" fill="#ff4756"/><g><g><path d="m168.151 276.342c-13.903 0-27.805-5.292-38.389-15.876-3.018-3.017-3.018-7.909 0-10.926 3.017-3.017 7.909-3.017 10.926 0 15.143 15.143 39.782 15.143 54.925 0 3.017-3.017 7.909-3.017 10.926 0 3.018 3.017 3.018 7.909 0 10.926-10.583 10.584-24.485 15.876-38.388 15.876z" fill="#5cb3f8"/></g></g><g><g><path d="m266.929 262.729c-1.977 0-3.955-.755-5.463-2.263-15.143-15.143-39.783-15.142-54.926 0-3.017 3.017-7.909 3.017-10.926 0-3.018-3.017-3.018-7.909 0-10.926 21.167-21.168 55.61-21.168 76.779 0 3.018 3.017 3.018 7.909 0 10.926-1.509 1.509-3.486 2.263-5.464 2.263z" fill="#5cb3f8"/></g></g><g><g><path d="m135.225 262.729c-1.977 0-3.955-.755-5.463-2.263-21.168-21.168-21.168-55.61 0-76.778 3.017-3.017 7.909-3.017 10.926 0 3.018 3.017 3.018 7.909 0 10.926-15.143 15.143-15.143 39.782 0 54.925 3.018 3.017 3.018 7.909 0 10.926-1.508 1.51-3.485 2.264-5.463 2.264z" fill="#5cb3f8"/></g></g><g><g><path d="m135.225 196.878c-1.977 0-3.955-.755-5.463-2.263-3.018-3.017-3.018-7.909 0-10.926 15.143-15.143 15.143-39.782 0-54.925-3.018-3.017-3.018-7.909 0-10.926 3.017-3.017 7.909-3.017 10.926 0 21.168 21.168 21.168 55.61 0 76.778-1.508 1.507-3.485 2.262-5.463 2.262z" fill="#5cb3f8"/></g></g><g><path d="m426.207 151.057h-121.673c-4.267 0-7.726-3.459-7.726-7.726s3.459-7.726 7.726-7.726h121.674c4.267 0 7.726 3.459 7.726 7.726s-3.46 7.726-7.727 7.726z" fill="#b1dbfc"/></g><g><path d="m426.207 181.55h-121.673c-4.267 0-7.726-3.459-7.726-7.726s3.459-7.726 7.726-7.726h121.674c4.267 0 7.726 3.459 7.726 7.726s-3.46 7.726-7.727 7.726z" fill="#b1dbfc"/></g><g><path d="m426.207 212.043h-121.673c-4.267 0-7.726-3.459-7.726-7.726s3.459-7.726 7.726-7.726h121.674c4.267 0 7.726 3.459 7.726 7.726s-3.46 7.726-7.727 7.726z" fill="#b1dbfc"/></g><g><path d="m426.207 242.536h-121.673c-4.267 0-7.726-3.459-7.726-7.726s3.459-7.726 7.726-7.726h121.674c4.267 0 7.726 3.459 7.726 7.726s-3.46 7.726-7.727 7.726z" fill="#b1dbfc"/></g><g><path d="m426.207 273.029h-121.673c-4.267 0-7.726-3.459-7.726-7.726s3.459-7.726 7.726-7.726h121.674c4.267 0 7.726 3.459 7.726 7.726s-3.46 7.726-7.727 7.726z" fill="#b1dbfc"/></g><g><path d="m426.207 303.522h-121.673c-4.267 0-7.726-3.459-7.726-7.726s3.459-7.726 7.726-7.726h121.674c4.267 0 7.726 3.459 7.726 7.726s-3.46 7.726-7.727 7.726z" fill="#b1dbfc"/></g><g><g><path d="m201.077 328.581c-1.977 0-3.955-.755-5.463-2.263-21.168-21.168-21.168-55.61 0-76.778 3.017-3.017 7.909-3.017 10.926 0 3.018 3.017 3.018 7.909 0 10.926-15.143 15.143-15.143 39.782 0 54.925 3.018 3.017 3.018 7.909 0 10.927-1.508 1.508-3.485 2.263-5.463 2.263z" fill="#ff656f"/></g></g><g><g><path d="m201.077 262.729c-1.977 0-3.955-.755-5.463-2.263-3.018-3.017-3.018-7.909 0-10.926 15.143-15.143 15.143-39.782 0-54.925-3.018-3.017-3.018-7.909 0-10.926 3.017-3.017 7.909-3.017 10.926 0 21.168 21.168 21.168 55.61 0 76.778-1.508 1.508-3.485 2.262-5.463 2.262z" fill="#ff656f"/></g></g><g><g><path d="m102.3 210.491c-13.903 0-27.805-5.292-38.389-15.876-3.018-3.017-3.018-7.909 0-10.926 3.017-3.017 7.909-3.017 10.926 0 15.143 15.143 39.782 15.143 54.925 0 3.017-3.017 7.909-3.017 10.926 0 3.018 3.017 3.018 7.909 0 10.926-10.583 10.584-24.486 15.876-38.388 15.876z" fill="#ff656f"/></g></g><g><g><path d="m201.077 196.878c-1.977 0-3.955-.755-5.463-2.263-15.143-15.143-39.782-15.143-54.925 0-3.017 3.017-7.909 3.017-10.926 0-3.018-3.017-3.018-7.909 0-10.926 21.168-21.168 55.61-21.168 76.778 0 3.018 3.017 3.018 7.909 0 10.926-1.509 1.508-3.486 2.263-5.464 2.263z" fill="#ff656f"/></g></g></g></svg>