<svg id="Capa_1" enable-background="new 0 0 512 512" height="512" viewBox="0 0 512 512" width="512" xmlns="http://www.w3.org/2000/svg"><g><g><path d="m199.397 370.841h111.375v87.187h-111.375z" fill="#dae7ef"/></g><g><path d="m278.574 370.841h32.198v87.187h-32.198z" fill="#c1d5e4"/></g><g><path d="m17.5 295.934-10 21.592v46.887c0 11.046 8.954 20 20 20h457c11.046 0 20-8.954 20-20v-46.887l-10-21.592z" fill="#dae7ef"/></g><g><path d="m494.5 295.934h-35.146v23.334c0 11.046-8.954 20-20 20h-431.854v25.146c0 11.046 8.954 20 20 20h457c11.046 0 20-8.954 20-20v-46.887z" fill="#c1d5e4"/></g><g><path d="m484.5 53.972h-457c-11.046 0-20 8.954-20 20v243.554h497v-243.554c0-11.046-8.954-20-20-20z" fill="#61a2f9"/></g><g><path d="m484.5 53.972h-25.146v263.554h45.146v-243.554c0-11.046-8.954-20-20-20z" fill="#4a81f6"/></g><g><path d="m109.633 196.881h292.992v45.434h-292.992z" fill="#407093"/></g><g><path d="m366.806 196.881v16.296c0 5.523-4.477 10-10 10h-247.173v19.139h292.992v-45.434h-35.819z" fill="#2b4d66"/></g><g><path d="m340.913 465.528h-171.658c-4.143 0-7.5-3.358-7.5-7.5s3.357-7.5 7.5-7.5h171.658c4.143 0 7.5 3.358 7.5 7.5s-3.357 7.5-7.5 7.5z" fill="#98b9d3"/></g><g><g><path d="m215.959 76.375-60.184 81.985c-3.895 5.307-9.288 9.328-15.485 11.548l-4.443 1.592c-5.197 1.862-8.665 6.787-8.665 12.308 0 7.221 5.853 13.074 13.074 13.074h1.143c17.507 0 34.435-6.274 47.713-17.685l44.229-38.011z" fill="#ffcbbe"/></g></g><g><path d="m227.52 119.484-44.072 41.326c-13.76 12.903-31.688 20.447-50.533 21.264l-1.23.053c-1.497.065-2.947-.111-4.319-.485-.119.708-.184 1.431-.184 2.165 0 7.221 5.854 13.074 13.074 13.074h1.143c17.507 0 34.435-6.275 47.713-17.685l44.229-38.011z" fill="#eaac9d"/></g><g><g><path d="m311.345 250.95c3.103 7.427 10.433 12.647 18.986 12.647 11.361 0 20.571-9.21 20.571-20.571v-48.043-3.672-47.17c0-11.455-4.921-21.759-12.762-28.92-2.944-2.688-4.676-6.449-4.676-10.436v-50.813h-132.514v59.663c-8.911 7.178-14.618 18.173-14.618 30.506v47.17 3.672 48.043c0 11.361 9.21 20.571 20.571 20.571 8.552 0 15.882-5.22 18.986-12.647.264-.633.9-1.031 1.586-1.031s1.321.398 1.586 1.031c3.103 7.427 10.433 12.647 18.986 12.647 8.552 0 15.882-5.22 18.986-12.647.264-.633.9-1.031 1.586-1.031s1.321.398 1.586 1.031c3.103 7.427 10.433 12.647 18.986 12.647s15.882-5.22 18.986-12.647c.264-.633.9-1.031 1.586-1.031.683 0 1.318.398 1.582 1.031z" fill="#ffcbbe"/></g></g><g><g><path d="m338.14 115.222c-2.944-2.688-4.676-6.449-4.676-10.436v-50.814h-23.062v50.814c0 3.986 1.732 7.748 4.676 10.436 7.841 7.16 12.762 17.464 12.762 28.92v47.17 3.672 48.043c0 7.088-3.585 13.336-9.04 17.036 3.289 2.231 7.257 3.535 11.531 3.535 11.361 0 20.571-9.21 20.571-20.571v-48.043-3.672-47.17c0-11.456-4.921-21.76-12.762-28.92z" fill="#eaac9d"/></g></g><g><path d="m484.5 391.914h-457c-15.164 0-27.5-12.336-27.5-27.5v-290.442c0-15.164 12.336-27.5 27.5-27.5h457c15.164 0 27.5 12.336 27.5 27.5v290.442c0 15.163-12.336 27.5-27.5 27.5zm-457-330.442c-6.893 0-12.5 5.607-12.5 12.5v290.442c0 6.893 5.607 12.5 12.5 12.5h457c6.893 0 12.5-5.607 12.5-12.5v-290.442c0-6.893-5.607-12.5-12.5-12.5z" fill="#98b9d3"/></g><g><path d="m110.841 281.128h-33.682c-8.284 0-15-6.716-15-15v-92.343c0-8.284 6.716-15 15-15h33.681c8.284 0 15 6.716 15 15v49.392l-4.84 10.198 4.841 8.906v23.847c0 8.284-6.716 15-15 15z" fill="#407093"/></g><g><path d="m434.841 281.128h-33.681c-8.284 0-15-6.716-15-15v-92.343c0-8.284 6.716-15 15-15h33.681c8.284 0 15 6.716 15 15v92.343c0 8.284-6.716 15-15 15z" fill="#407093"/></g><g><path d="m110.841 158.785h-7.867v84.476c0 8.284-6.716 15-15 15h-25.815v7.867c0 8.284 6.716 15 15 15h33.681c8.284 0 15-6.716 15-15v-92.343c.001-8.284-6.715-15-14.999-15z" fill="#2b4d66"/></g><g><path d="m434.841 158.785h-7.867v84.476c0 8.284-6.716 15-15 15h-25.814v7.867c0 8.284 6.716 15 15 15h33.681c8.284 0 15-6.716 15-15v-92.343c0-8.284-6.716-15-15-15z" fill="#2b4d66"/></g></g></svg>