<svg id="Capa_1" enable-background="new 0 0 512 512" height="512" viewBox="0 0 512 512" width="512" xmlns="http://www.w3.org/2000/svg"><g><g><g><path d="m397.329 476.974c-12.187 0-271.909 0-282.657 0-4.786 0-9.057-1.673-12.389-4.392l3.917 12.721c5.893 16.038 21.165 26.697 38.251 26.697h223.098c17.086 0 32.358-10.659 38.251-26.697l3.917-12.721c-3.331 2.72-7.602 4.392-12.388 4.392z" fill="#b1dbfc"/></g></g><g><g><path d="m170.415 485.303-2.565-8.329c-29.32 0-50.284 0-53.179 0-4.786 0-9.057-1.673-12.389-4.393l3.917 12.721c5.894 16.039 21.166 26.698 38.252 26.698h64.215c-17.086 0-32.358-10.659-38.251-26.697z" fill="#8bcaff"/></g></g><path d="m316.967 331.885-14.573-47.873c-14.583 4.855-30.18 7.491-46.394 7.491s-31.811-2.636-46.394-7.491l-14.573 47.873z" fill="#b1dbfc"/><path d="m258.719 291.475c-.905.016-1.811.028-2.719.028-16.214 0-31.811-2.636-46.394-7.491l-14.573 47.873h57.715z" fill="#8bcaff"/><path d="m415.774 452.606-37.081-100.916c-4.827-13.136-17.335-21.866-31.33-21.866h-182.727c-13.994 0-26.503 8.73-31.329 21.866l-37.081 100.916c-4.713 12.827 4.78 26.429 18.445 26.429h75.114l8.006-21.789c2.29-6.232 8.224-10.374 14.863-10.374h86.69c6.639 0 12.573 4.142 14.863 10.374l8.006 21.789h75.114c13.667 0 23.16-13.602 18.447-26.429z" fill="#dfebfa"/><g><g><path d="m151.629 452.606 37.081-100.916c4.827-13.136 17.335-21.866 31.329-21.866h-55.403c-13.994 0-26.503 8.73-31.329 21.866l-37.081 100.916c-4.713 12.827 4.78 26.429 18.445 26.429h55.403c-13.665 0-23.158-13.602-18.445-26.429z" fill="#b1dbfc"/></g></g><path d="m322.971 479.035-8.763-23.85c-2.29-6.232-8.224-10.374-14.863-10.374h-86.69c-6.639 0-12.573 4.142-14.863 10.374l-8.763 23.85z" fill="#8479c2"/><path d="m260.609 444.812h-47.954c-6.639 0-12.573 4.142-14.863 10.374l-8.763 23.85h47.954l8.763-23.85c2.289-6.233 8.223-10.374 14.863-10.374z" fill="#6353b2"/><circle cx="256" cy="146.781" fill="#dfebfa" r="146.781"/><path d="m152.143 146.781c0-73.774 54.429-134.827 125.319-145.215-7.006-1.026-14.171-1.566-21.462-1.566-81.065 0-146.781 65.716-146.781 146.781s65.716 146.781 146.781 146.781c7.291 0 14.456-.54 21.462-1.567-70.89-10.386-125.319-71.44-125.319-145.214z" fill="#b1dbfc"/><circle cx="256" cy="146.781" fill="#8479c2" r="105.594"/><path d="m195.39 146.781c0-50.598 35.591-92.877 83.102-103.185-7.249-1.573-14.772-2.409-22.492-2.409-58.318 0-105.594 47.276-105.594 105.594s47.276 105.595 105.594 105.595c7.72 0 15.244-.836 22.492-2.409-47.51-10.309-83.102-52.587-83.102-103.186z" fill="#6353b2"/><circle cx="256" cy="146.781" fill="#8bcaff" r="61.866"/><path d="m232.937 146.781c0-27.388 17.804-50.604 42.464-58.745-6.104-2.015-12.622-3.121-19.402-3.121-34.168 0-61.866 27.698-61.866 61.866s27.698 61.866 61.866 61.866c6.78 0 13.297-1.106 19.402-3.121-24.659-8.14-42.464-31.356-42.464-58.745z" fill="#5cb3f8"/><circle cx="256" cy="146.781" fill="#5cb3f8" r="24.303"/><path d="m256 146.781c0-8.994 4.889-16.841 12.152-21.044-3.576-2.069-7.724-3.26-12.152-3.26-13.422 0-24.303 10.881-24.303 24.304s10.881 24.303 24.303 24.303c4.428 0 8.576-1.19 12.152-3.259-7.263-4.202-12.152-12.049-12.152-21.044z" fill="#2fa2f6"/></g></svg>