<svg id="Capa_1" enable-background="new 0 0 504.5 504.5" height="512" viewBox="0 0 504.5 504.5" width="512" xmlns="http://www.w3.org/2000/svg"><g><g><path d="m378.558 381.697c-4.143 0-7.5-3.357-7.5-7.5v-76.306c0-4.143 3.357-7.5 7.5-7.5s7.5 3.357 7.5 7.5v76.306c0 4.143-3.358 7.5-7.5 7.5z" fill="#d7d0d6"/></g><g><path d="m419.807 427.492c-2.051 0-4.094-.836-5.575-2.48l-35.716-39.654-36.295 39.695c-2.796 3.058-7.54 3.269-10.596.475-3.058-2.795-3.27-7.539-.475-10.596l41.872-45.795c1.421-1.555 3.43-2.439 5.535-2.439h.028c2.115.008 4.129.909 5.545 2.48l41.247 45.795c2.771 3.078 2.523 7.82-.554 10.593-1.432 1.29-3.227 1.926-5.016 1.926z" fill="#e5e1e5"/></g><g><path d="m361.768 427.493c-2.55 0-5.036-1.301-6.441-3.648l-28.784-48.075c-2.128-3.554-.972-8.159 2.582-10.287 3.552-2.128 8.159-.974 10.287 2.582l28.784 48.075c2.128 3.554.972 8.159-2.582 10.287-1.207.722-2.535 1.066-3.846 1.066z" fill="#d7d0d6"/></g><g><path d="m76.12 325.26v94.88c0 4.22-3.48 7.63-7.73 7.5-4.1-.12-7.27-3.7-7.27-7.81v-94.22c0-4.13 3.18-7.74 7.3-7.84 4.24-.11 7.7 3.28 7.7 7.49z" fill="#e5e1e5"/></g><path d="m162.75 252.51v84.745c0 3.316-2.689 6.005-6.005 6.005h-89.62c-3.316 0-6.005-2.689-6.005-6.005v-84.745z" fill="#0078c8"/><path d="m61.12 252.51h76.63v90.75h-76.63z" fill="#3c87d0"/><path d="m162.75 233.515v18.995h-101.63v-18.995c0-3.316 2.689-6.005 6.005-6.005h89.62c3.317 0 6.005 2.688 6.005 6.005z" fill="#d7d0d6"/><path d="m137.75 233.515v18.995h-76.63v-18.995c0-3.316 2.689-6.005 6.005-6.005h64.62c3.317 0 6.005 2.688 6.005 6.005z" fill="#e5e1e5"/><path d="m429.38 252.51v40.305c0 2.803-2.272 5.075-5.075 5.075h-91.49c-2.803 0-5.075-2.272-5.075-5.075v-40.305z" fill="#0078c8"/><path d="m406.38 252.51v40.305c0 2.803-2.272 5.075-5.075 5.075h-68.49c-2.803 0-5.075-2.272-5.075-5.075v-40.305z" fill="#3c87d0"/><path d="m429.37 232.44v20.07h-101.63v-20.07c0-2.723 2.207-4.93 4.93-4.93h91.77c2.723 0 4.93 2.207 4.93 4.93z" fill="#d7d0d6"/><path d="m406.38 234.755v15.44c0 1.279-1.036 2.315-2.315 2.315h-76.325v-20.07c0-2.723 2.207-4.93 4.93-4.93h66.465c4.001 0 7.245 3.244 7.245 7.245z" fill="#e5e1e5"/><path d="m349.3 315.94c0 57.47-46.58 104.05-104.05 104.05-3.95 0-7.84-.22-11.67-.66-51.98-5.79-92.39-49.87-92.39-103.39s40.41-97.61 92.39-103.4c3.83-.44 7.72-.66 11.67-.66 57.47 0 104.05 46.59 104.05 104.06z" fill="#d7d0d6"/><path d="m325.96 315.94c0 53.52-40.41 97.6-92.38 103.39-51.98-5.79-92.39-49.87-92.39-103.39s40.41-97.61 92.39-103.4c51.97 5.8 92.38 49.88 92.38 103.4z" fill="#e5e1e5"/><path d="m308.93 343.26c0 17.09-13.85 30.94-30.94 30.94-3.87 0-7.58-.71-10.99-2.01-11.66-4.44-19.94-15.71-19.94-28.93 0-13.21 8.28-24.49 19.94-28.92 3.41-1.3 7.12-2.01 10.99-2.01 17.09 0 30.94 13.85 30.94 30.93z" fill="#465a61"/><path d="m286.94 343.26c0 13.21-8.28 24.49-19.94 28.93-11.66-4.44-19.94-15.71-19.94-28.93 0-13.21 8.28-24.49 19.94-28.92 11.66 4.44 19.94 15.71 19.94 28.92z" fill="#596c76"/><path d="m349.3 136.17v45.46c0 2.557-2.073 4.63-4.63 4.63h-71.49c-2.557 0-4.63-2.073-4.63-4.63v-45.46c0-2.557 2.073-4.63 4.63-4.63h71.49c2.557 0 4.63 2.073 4.63 4.63z" fill="#0078c8"/><path d="m322.8 136.17v45.46c0 2.557-2.073 4.63-4.63 4.63h-44.99c-2.557 0-4.63-2.073-4.63-4.63v-45.46c0-2.557 2.073-4.63 4.63-4.63h44.99c2.557 0 4.63 2.073 4.63 4.63z" fill="#3c87d0"/><path d="m221.9 136.17v45.46c0 2.557-2.073 4.63-4.63 4.63h-71.45c-2.557 0-4.63-2.073-4.63-4.63v-45.46c0-2.557 2.073-4.63 4.63-4.63h71.45c2.557 0 4.63 2.073 4.63 4.63z" fill="#0078c8"/><path d="m195.4 136.22v45.36c0 2.585-2.095 4.68-4.68 4.68h-44.9c-2.557 0-4.63-2.073-4.63-4.63v-45.46c0-2.557 2.073-4.63 4.63-4.63h44.9c2.585 0 4.68 2.095 4.68 4.68z" fill="#3c87d0"/><g><path d="m128.687 427.493c-1.312 0-2.64-.344-3.846-1.066-3.554-2.128-4.71-6.733-2.582-10.287l28.806-48.11c2.128-3.556 6.735-4.709 10.287-2.582 3.554 2.128 4.71 6.733 2.582 10.287l-28.806 48.11c-1.405 2.347-3.891 3.648-6.441 3.648z" fill="#d7d0d6"/></g><g><path d="m245.248 219.383c-4.143 0-7.5-3.357-7.5-7.5v-42.216c0-4.143 3.357-7.5 7.5-7.5s7.5 3.357 7.5 7.5v42.216c0 4.142-3.357 7.5-7.5 7.5z" fill="#d7d0d6"/></g><g><path d="m268.552 177.167h-46.649c-4.143 0-7.5-3.357-7.5-7.5s3.357-7.5 7.5-7.5h46.649c4.143 0 7.5 3.357 7.5 7.5s-3.357 7.5-7.5 7.5z" fill="#e5e1e5"/></g><g><path d="m457.76 427.492c-4.143 0-7.5-3.357-7.5-7.5v-264.742c0-4.143 3.357-7.5 7.5-7.5s7.5 3.357 7.5 7.5v264.742c0 4.143-3.357 7.5-7.5 7.5z" fill="#e5e1e5"/></g><g><path d="m32.716 427.644c-4.143 0-7.5-3.357-7.5-7.5v-251.043c0-4.143 3.357-7.5 7.5-7.5s7.5 3.357 7.5 7.5v251.043c0 4.143-3.357 7.5-7.5 7.5z" fill="#d7d0d6"/></g><g><path d="m7.504 197.52c-2.154 0-4.293-.924-5.776-2.712-2.645-3.188-2.204-7.916.984-10.561l114.547-96.747c3.187-2.643 7.916-2.204 10.561.984s2.204 7.916-.984 10.561l-114.548 96.748c-1.399 1.161-3.096 1.727-4.784 1.727z" fill="#e5e1e5"/></g><g><path d="m245.25 427.49c-4.21 0-8.424-.238-12.524-.709-56.449-6.288-99.036-53.94-99.036-110.842 0-56.906 42.587-104.563 99.061-110.854 4.066-.468 8.28-.706 12.5-.706 61.509 0 111.55 50.046 111.55 111.56-.001 61.51-50.042 111.551-111.551 111.551zm0-208.11c-3.649 0-7.287.206-10.813.611-48.896 5.446-85.747 46.693-85.747 95.948 0 49.249 36.852 90.493 85.721 95.937 3.56.408 7.198.614 10.84.614 53.237 0 96.55-43.313 96.55-96.551-.001-53.243-43.313-96.559-96.551-96.559z" fill="#0268b4"/></g><g fill="#fed402"><path d="m66.014 104.382h91.847c7.601 0 13.763-6.162 13.763-13.763 0-7.601-6.162-13.763-13.763-13.763h-91.847c-7.601 0-13.763 6.162-13.763 13.763 0 7.601 6.162 13.763 13.763 13.763z"/><path d="m497.616 146.136-79.542 45.923c-6.583 3.801-15 1.545-18.801-5.038-3.801-6.583-1.545-15 5.038-18.801l79.542-45.923c6.583-3.801 15-1.545 18.801 5.038 3.801 6.583 1.545 15.001-5.038 18.801z"/></g></g></svg>