<svg id="Capa_1" enable-background="new 0 0 504.5 504.5" height="512" viewBox="0 0 504.5 504.5" width="512" xmlns="http://www.w3.org/2000/svg"><g><g><path d="m469.19 490.141c-4.142 0-7.5-3.357-7.5-7.5v-182.762c0-4.143 3.358-7.5 7.5-7.5s7.5 3.357 7.5 7.5v182.763c0 4.142-3.358 7.499-7.5 7.499z" fill="#e5e1e5"/></g><path d="m54.094 227.566c-4.142 0-7.5 3.357-7.5 7.5v13.162 18.893 13.162c0 4.143 3.358 7.5 7.5 7.5s7.5-3.357 7.5-7.5v-13.162-18.893-13.162c0-4.142-3.358-7.5-7.5-7.5z" fill="#e5e1e5"/><path d="m100.688 87.583c-4.142 0-7.5 3.357-7.5 7.5v7.496 170.21 7.496c0 4.143 3.358 7.5 7.5 7.5s7.5-3.357 7.5-7.5v-7.496-170.21-7.496c0-4.143-3.358-7.5-7.5-7.5z" fill="#d7d0d6"/><g><path d="m79.766 118.65c-2.332.121-4.686-.845-6.255-2.808-2.586-3.236-2.059-7.956 1.176-10.541l94.639-75.642c3.237-2.588 7.955-2.061 10.542 1.176 2.586 3.236 2.059 7.956-1.176 10.541l-94.639 75.642c-1.272 1.018-2.775 1.553-4.287 1.632z" fill="#e5e1e5"/></g><path d="m327.155 132.997c-4.142 0-7.5 3.357-7.5 7.5v23.393 295.359 23.393c0 4.143 3.358 7.5 7.5 7.5s7.5-3.357 7.5-7.5v-23.393-295.36-23.393c0-4.142-3.358-7.499-7.5-7.499z" fill="#d7d0d6"/><path d="m453.211 201.011c-4.142 0-7.5 3.357-7.5 7.5v12.09 44.798 12.09c0 4.143 3.358 7.5 7.5 7.5s7.5-3.357 7.5-7.5v-12.09-44.798-12.09c0-4.142-3.358-7.5-7.5-7.5z" fill="#d7d0d6"/><path d="m401.921 87.583c-4.142 0-7.5 3.357-7.5 7.5v4.873 172.833 4.873c0 4.143 3.358 7.5 7.5 7.5s7.5-3.357 7.5-7.5v-4.873-172.833-4.873c0-4.143-3.358-7.5-7.5-7.5z" fill="#e5e1e5"/><path d="m175.454 136.799c-4.142 0-7.5 3.357-7.5 7.5v338.343c0 4.143 3.358 7.5 7.5 7.5s7.5-3.357 7.5-7.5v-338.343c0-4.143-3.358-7.5-7.5-7.5z" fill="#e5e1e5"/><g><path d="m33.421 490.141c-4.142 0-7.5-3.357-7.5-7.5v-182.763c0-4.143 3.358-7.5 7.5-7.5s7.5 3.357 7.5 7.5v182.763c0 4.143-3.358 7.5-7.5 7.5z" fill="#d7d0d6"/></g><path d="m272.53 361.031v113.942c0 3.357-2.721 6.078-6.078 6.078h-30.293c-3.357 0-6.078-2.721-6.078-6.078v-113.942z" fill="#465a61"/><path d="m251.3 361.031v113.942c0 3.357-2.721 6.078-6.078 6.078h-9.063c-3.357 0-6.078-2.721-6.078-6.078v-113.942z" fill="#596c76"/><path d="m295.82 354.081c0 24.59-19.93 44.52-44.52 44.52-4.26 0-8.38-.6-12.28-1.72-18.61-5.33-32.23-22.47-32.23-42.8 0-20.32 13.62-37.46 32.23-42.79 3.9-1.12 8.02-1.72 12.28-1.72 24.59 0 44.52 19.93 44.52 44.51z" fill="#596c76"/><path d="m271.26 354.081c0 20.33-13.62 37.48-32.24 42.8-18.61-5.33-32.23-22.47-32.23-42.8 0-20.32 13.62-37.46 32.23-42.79 18.62 5.32 32.24 22.47 32.24 42.79z" fill="#7a8c98"/><path d="m278.961 490.141h-55.311c-4.33 0-7.271-4.398-5.617-8.4l12.048-29.15h42.45l12.048 29.15c1.653 4.002-1.288 8.4-5.618 8.4z" fill="#d7d0d6"/><path d="m257.731 490.141h-34.081c-4.33 0-7.271-4.398-5.617-8.4l12.048-29.15h21.22l12.048 29.15c1.653 4.002-1.288 8.4-5.618 8.4z" fill="#e5e1e5"/><path d="m167.954 232.159h166.701v27.09h-166.701z" fill="#465a61"/><path d="m167.954 232.159h132.273v27.09h-132.273z" fill="#596c76"/><path d="m476.69 279.489v20.39h-157.035v-27.09h150.335c3.7 0 6.7 2.999 6.7 6.7z" fill="#465a61"/><path d="m452.033 279.489v20.39h-132.378v-27.09h125.678c3.7 0 6.7 2.999 6.7 6.7z" fill="#596c76"/><path d="m175.454 299.878h-149.533v-18.695c0-4.636 3.758-8.395 8.395-8.395h141.139v27.09z" fill="#465a61"/><path d="m378.44 136.799c0 7.48-3.03 14.25-7.93 19.16-4.9 4.9-11.67 7.93-19.16 7.93h-48.4c-14.96 0-27.08-12.13-27.08-27.09 0-7.48 3.03-14.25 7.93-19.16 4.9-4.9 11.67-7.93 19.15-7.93h48.4c14.97 0 27.09 12.13 27.09 27.09z" fill="#465a61"/><path d="m349.44 136.799c0 7.48-3.03 14.25-7.93 19.16-4.9 4.9-11.67 7.93-19.16 7.93h-19.4c-14.96 0-27.08-12.13-27.08-27.09 0-7.48 3.03-14.25 7.93-19.16 4.9-4.9 11.67-7.93 19.15-7.93h19.4c14.97 0 27.09 12.13 27.09 27.09z" fill="#596c76"/><path d="m504.5 188.809c0 7.48-3.03 14.25-7.94 19.15-4.9 4.91-11.67 7.94-19.15 7.94h-48.4c-14.96 0-27.09-12.13-27.09-27.09 0-7.48 3.03-14.25 7.94-19.15 4.9-4.91 11.67-7.94 19.15-7.94h48.4c14.96 0 27.09 12.13 27.09 27.09z" fill="#465a61"/><path d="m474 188.809c0 7.48-3.03 14.25-7.94 19.15-4.9 4.91-11.67 7.94-19.15 7.94h-17.9c-14.96 0-27.09-12.13-27.09-27.09 0-7.48 3.03-14.25 7.94-19.15 4.9-4.91 11.67-7.94 19.15-7.94h17.9c14.96 0 27.09 12.13 27.09 27.09z" fill="#596c76"/><path d="m203.27 272.789c0 7.48-3.03 14.25-7.93 19.15-4.91 4.91-11.68 7.94-19.16 7.94h-48.4c-14.96 0-27.09-12.13-27.09-27.09 0-7.48 3.03-14.25 7.93-19.15 4.91-4.91 11.68-7.94 19.16-7.94h48.4c14.96 0 27.09 12.13 27.09 27.09z" fill="#d7d0d6"/><path d="m179.07 272.789c0 7.48-3.03 14.25-7.93 19.15-4.91 4.91-11.68 7.94-19.16 7.94h-24.2c-14.96 0-27.09-12.13-27.09-27.09 0-7.48 3.03-14.25 7.93-19.15 4.91-4.91 11.68-7.94 19.16-7.94h24.2c14.96 0 27.09 12.13 27.09 27.09z" fill="#e5e1e5"/><path d="m226.74 136.799c0 7.48-3.03 14.25-7.93 19.16-4.9 4.9-11.67 7.93-19.16 7.93h-48.4c-14.96 0-27.09-12.13-27.09-27.09 0-7.48 3.03-14.25 7.94-19.16 4.9-4.9 11.67-7.93 19.15-7.93h48.4c14.97 0 27.09 12.13 27.09 27.09z" fill="#465a61"/><path d="m197.74 136.799c0 7.48-3.03 14.25-7.93 19.16-4.9 4.9-11.67 7.93-19.16 7.93h-19.4c-14.96 0-27.09-12.13-27.09-27.09 0-7.48 3.03-14.25 7.94-19.16 4.9-4.9 11.67-7.93 19.15-7.93h19.4c14.97 0 27.09 12.13 27.09 27.09z" fill="#596c76"/><path d="m7.5 176.709h93.19v64.02h-93.19z" fill="#d7d0d6"/><path d="m7.5 176.709h70.07v64.02h-70.07z" fill="#e5e1e5"/><g><path d="m442.075 123.796c-.894-.101-1.783-.365-2.629-.806l-112.822-58.882c-3.672-1.916-5.095-6.447-3.179-10.118 1.917-3.672 6.445-5.095 10.119-3.179l112.821 58.882c3.672 1.916 5.095 6.447 3.179 10.118-1.474 2.828-4.499 4.322-7.489 3.985z" fill="#d7d0d6"/></g><circle cx="39.104" cy="208.722" fill="#465a61" r="8.127"/><circle cx="69.083" cy="208.722" fill="#465a61" r="8.127"/><g><path d="m100.69 248.229h-93.19c-4.142 0-7.5-3.357-7.5-7.5v-64.021c0-4.143 3.358-7.5 7.5-7.5h93.19c4.142 0 7.5 3.357 7.5 7.5v64.021c0 4.143-3.358 7.5-7.5 7.5zm-85.69-15h78.19v-49.021h-78.19z" fill="#596c76"/></g><path d="m375.92 52.639c0 3.74-1.52 7.12-3.97 9.58-2.45 2.44-5.84 3.96-9.58 3.96h-70.43c-7.48 0-13.55-6.06-13.55-13.54 0-3.74 1.52-7.13 3.97-9.58 2.45-2.46 5.84-3.97 9.58-3.97h70.43c7.48 0 13.55 6.06 13.55 13.55z" fill="#596c76"/><path d="m349.44 52.639c0 3.74-1.52 7.12-3.96 9.58-2.46 2.44-5.84 3.96-9.58 3.96h-43.96c-7.48 0-13.55-6.06-13.55-13.54 0-3.74 1.52-7.13 3.97-9.58 2.45-2.46 5.84-3.97 9.58-3.97h43.96c7.48 0 13.54 6.06 13.54 13.55z" fill="#7a8c98"/><path d="m224.22 27.899c0 7.48-6.07 13.55-13.55 13.55h-70.43c-3.74 0-7.13-1.52-9.58-3.97s-3.97-5.84-3.97-9.58c0-7.48 6.07-13.54 13.55-13.54h70.43c3.74 0 7.13 1.52 9.58 3.96 2.45 2.46 3.97 5.84 3.97 9.58z" fill="#596c76"/><path d="m198.21 27.899c0 7.48-6.06 13.55-13.55 13.55h-44.42c-3.74 0-7.13-1.52-9.58-3.97s-3.97-5.84-3.97-9.58c0-7.48 6.07-13.54 13.55-13.54h44.42c3.74 0 7.13 1.52 9.58 3.96 2.46 2.46 3.97 5.84 3.97 9.58z" fill="#7a8c98"/></g></svg>