<svg id="Capa_1" enable-background="new 0 0 512 512" height="512" viewBox="0 0 512 512" width="512" xmlns="http://www.w3.org/2000/svg"><g><path d="m446.057 116.334c-7.171 0-378.036 0-380.115 0-19.799 0-35.907 16.108-35.907 35.907v269.335c0 17.511 12.977 33.718 30.246 36.485h391.437c17.269-2.767 30.246-18.973 30.246-36.485 0-8.961 0-261.229 0-269.335.001-19.798-16.107-35.907-35.907-35.907z" fill="#695d67"/><path d="m72.015 421.577v-269.335c0-19.799 16.108-35.907 35.907-35.907-25.405 0-41.55 0-41.98 0-19.799 0-35.907 16.108-35.907 35.907v269.335c0 17.511 12.977 33.718 30.246 36.485h41.98c-17.269-2.768-30.246-18.974-30.246-36.485z" fill="#544e55"/><path d="m506.004 457.031h-500.008c-3.311 0-5.995 2.71-5.995 6.054v20.823c0 15.45 12.519 28.092 27.82 28.092h456.358c15.301 0 27.82-12.642 27.82-28.092v-20.823c0-3.343-2.684-6.054-5.995-6.054z" fill="#dfebfa"/><path d="m506.004 457.031h-500.008c-3.311 0-5.995 2.71-5.995 6.054v20.823c0 15.45 12.519 28.092 27.82 28.092h456.358c15.301 0 27.82-12.642 27.82-28.092v-20.823c0-3.343-2.684-6.054-5.995-6.054z" fill="#dfebfa"/><path d="m86.504 483.908v-20.823c0-3.343 2.684-6.054 5.995-6.054h-86.503c-3.311 0-5.995 2.71-5.995 6.054v20.823c0 15.45 12.519 28.092 27.82 28.092h86.503c-15.301 0-27.82-12.642-27.82-28.092z" fill="#b1dbfc"/><path d="m181.32 457.031v13.97c0 6.866 5.563 12.484 12.363 12.484h124.635c6.8 0 12.363-5.618 12.363-12.484v-13.97" fill="#b1dbfc"/><path d="m248.796 471.002v-13.97h-67.476v13.97c0 6.866 5.563 12.484 12.363 12.484h67.476c-6.8 0-12.363-5.618-12.363-12.484z" fill="#8bcaff"/><path d="m443.265 148.35c-14.269 0-359.411 0-374.53 0-3.558 0-6.442 2.884-6.442 6.443v263.829c0 3.558 2.884 6.443 6.442 6.443h374.53c3.557 0 6.442-2.885 6.442-6.443 0-13.075 0-253.398 0-263.829 0-3.558-2.884-6.443-6.442-6.443z" fill="#8bcaff"/><path d="m104.272 418.622c0-8.301 0-247.082 0-263.829 0-3.558 2.884-6.443 6.442-6.443-23.359 0-39.015 0-41.98 0-3.558 0-6.442 2.884-6.442 6.443v263.829c0 3.558 2.884 6.443 6.442 6.443h41.98c-3.557 0-6.442-2.884-6.442-6.443z" fill="#5cb3f8"/><path d="m383.085 0h-207.716l-59.978 59.978v309.562c0 7.339 5.949 13.288 13.288 13.288h254.641c7.339 0 13.288-5.949 13.288-13.288v-356.017c.001-7.468-6.054-13.523-13.523-13.523z" fill="#8479c2"/><path d="m140.63 368.491v-333.752l-25.239 25.239v309.562c0 7.339 5.949 13.288 13.288 13.288h21.821c-5.768-2.213-9.87-7.789-9.87-14.337z" fill="#6e60b8"/><path d="m115.391 59.978h46.454c7.469 0 13.523-6.055 13.523-13.523v-46.455z" fill="#6e60b8"/><path d="m175.369 0-59.978 59.978h24.99l34.988-34.988z" fill="#6353b2"/><g><g><path d="m172.045 195.551h-12.611c-4.267 0-7.726-3.459-7.726-7.726 0-4.268 3.459-7.726 7.726-7.726h12.611c4.267 0 7.726 3.459 7.726 7.726.001 4.267-3.459 7.726-7.726 7.726z" fill="#6e60b8"/></g><g><path d="m352.566 195.551h-151.775c-4.267 0-7.726-3.459-7.726-7.726 0-4.268 3.459-7.726 7.726-7.726h151.775c4.267 0 7.726 3.459 7.726 7.726s-3.459 7.726-7.726 7.726z" fill="#6e60b8"/></g></g><g><g><path d="m172.045 228.943h-12.611c-4.267 0-7.726-3.459-7.726-7.726 0-4.268 3.459-7.726 7.726-7.726h12.611c4.267 0 7.726 3.459 7.726 7.726.001 4.267-3.459 7.726-7.726 7.726z" fill="#6e60b8"/></g><g><path d="m352.566 228.943h-151.775c-4.267 0-7.726-3.459-7.726-7.726 0-4.268 3.459-7.726 7.726-7.726h151.775c4.267 0 7.726 3.459 7.726 7.726s-3.459 7.726-7.726 7.726z" fill="#6e60b8"/></g></g><g><g><path d="m172.045 262.334h-12.611c-4.267 0-7.726-3.459-7.726-7.726s3.459-7.726 7.726-7.726h12.611c4.267 0 7.726 3.459 7.726 7.726s-3.459 7.726-7.726 7.726z" fill="#6e60b8"/></g><g><path d="m352.566 262.334h-151.775c-4.267 0-7.726-3.459-7.726-7.726s3.459-7.726 7.726-7.726h151.775c4.267 0 7.726 3.459 7.726 7.726s-3.459 7.726-7.726 7.726z" fill="#6e60b8"/></g></g><g><g><path d="m172.045 295.726h-12.611c-4.267 0-7.726-3.459-7.726-7.726s3.459-7.726 7.726-7.726h12.611c4.267 0 7.726 3.459 7.726 7.726s-3.459 7.726-7.726 7.726z" fill="#6e60b8"/></g><g><path d="m352.566 295.726h-151.775c-4.267 0-7.726-3.459-7.726-7.726s3.459-7.726 7.726-7.726h151.775c4.267 0 7.726 3.459 7.726 7.726s-3.459 7.726-7.726 7.726z" fill="#6e60b8"/></g></g><g><g><path d="m172.045 329.117h-12.611c-4.267 0-7.726-3.459-7.726-7.726s3.459-7.726 7.726-7.726h12.611c4.267 0 7.726 3.459 7.726 7.726s-3.459 7.726-7.726 7.726z" fill="#6e60b8"/></g><g><path d="m352.566 329.117h-151.775c-4.267 0-7.726-3.459-7.726-7.726s3.459-7.726 7.726-7.726h151.775c4.267 0 7.726 3.459 7.726 7.726s-3.459 7.726-7.726 7.726z" fill="#6e60b8"/></g></g><g><path d="m287.343 151.848c-2.677-3.324-2.153-8.187 1.171-10.864l24.931-20.081-24.931-20.081c-3.323-2.677-3.848-7.54-1.171-10.864 2.676-3.322 7.54-3.849 10.864-1.17l32.402 26.098c1.821 1.467 2.88 3.679 2.88 6.017s-1.059 4.55-2.88 6.017l-32.402 26.098c-3.324 2.676-8.186 2.153-10.864-1.17z" fill="#dfebfa"/></g><g><path d="m227.914 153.018-32.402-26.098c-1.821-1.467-2.88-3.679-2.88-6.017s1.059-4.55 2.88-6.017l32.402-26.098c3.323-2.678 8.187-2.152 10.864 1.17 2.677 3.324 2.153 8.187-1.171 10.864l-24.931 20.081 24.931 20.081c3.323 2.677 3.848 7.54 1.171 10.864-2.679 3.324-7.545 3.845-10.864 1.17z" fill="#dfebfa"/></g><g><path d="m252.204 154.35c-4.059-1.318-6.281-5.676-4.964-9.734l16.943-52.197c1.318-4.06 5.676-6.282 9.734-4.964 4.059 1.318 6.281 5.676 4.964 9.734l-16.943 52.197c-1.32 4.067-5.686 6.279-9.734 4.964z" fill="#dfebfa"/></g></g></svg>