<svg id="Capa_1" enable-background="new 0 0 512 512" height="512" viewBox="0 0 512 512" width="512" xmlns="http://www.w3.org/2000/svg"><g><g><path d="m279.427 337.509c17.465 2.484 35.812-14.639 41.707-39.489 6.138-25.874-3.196-41.186-21.145-46.016-2.442-.657-4.783-.736-6.921-.485-5.992.705-11.187 4.46-14.134 9.724-3.387 6.05-8.67 16.678-11.446 28.381-6.138 25.874-8.301 43.187 9.784 47.477.716.17 1.435.306 2.155.408" fill="#ffcbbe"/></g><g><path d="m244.234 394.181-28.109 26.887c-30.548 29.22-78.684 29.22-109.232 0l-28.109-26.887c-24.387-23.326-38.179-55.606-38.179-89.353v-112.496c0-50.619 41.035-91.654 91.654-91.654h58.502c50.619 0 91.654 41.035 91.654 91.654v112.497c-.002 33.746-13.795 66.026-38.181 89.352z" fill="#ffcbbe"/></g><g><path d="m190.76 100.678h-43.929c37.321 11.597 64.421 46.404 64.421 87.54v112.497c0 33.746-13.793 66.026-38.179 89.353l-28.109 26.887c-6.932 6.631-14.776 11.741-23.109 15.362 29.759 17.291 68.345 13.549 94.27-11.248l28.109-26.887c24.386-23.326 38.179-55.606 38.179-89.353v-112.497c0-50.619-41.034-91.654-91.653-91.654z" fill="#eaac9d"/></g><g><path d="m279.427 337.509c17.465 2.484 35.812-14.639 41.707-39.489 6.138-25.874-3.196-41.186-21.145-46.016-2.442-.657-4.783-.736-6.921-.485-5.992.705-11.187 4.46-14.134 9.724-3.387 6.05-8.67 16.678-11.446 28.381-6.138 25.874-8.301 43.187 9.784 47.477.716.17 1.435.306 2.155.408" fill="#eaac9d"/></g><g><path d="m509.141 205.279-10.146-9.702c-7.446-7.12-12.563-16.326-14.679-26.409-2.813-13.405-10.895-25.117-22.43-32.503l-72.785-46.605-68.76 86.318-49.881-2.326c-17.986-.839-35.677 4.796-49.864 15.883l-.926.724c-5.851 4.573-6.888 13.023-2.316 18.874 3.496 4.474 9.426 6.269 14.816 4.487l4.608-1.524c6.428-2.126 13.344-2.282 19.862-.448 0 0 61.722 16.389 67.241 18.917 5.612 2.57 8.119 4.969 14.193 10.187s15.815 12.328 15.815 12.328c9.519 6.309 21.042 8.857 32.334 7.15 13.536-2.046 27.28 2.034 37.507 11.134l17.441 15.519c3.944 3.51 10.021 3.014 13.345-1.088l55.419-68.399c3.034-3.744 2.688-9.188-.794-12.517z" fill="#ffcbbe"/></g><g><path d="m509.141 205.279-10.146-9.702c-7.446-7.12-12.563-16.326-14.679-26.409-2.813-13.405-10.895-25.117-22.43-32.503l-72.785-46.605-22.063 27.697 71.393 45.713c11.94 7.645 20.307 19.769 23.218 33.646 2.19 10.437 7.487 19.967 15.195 27.338l15.606 14.922 17.485-21.58c3.034-3.744 2.688-9.188-.794-12.517z" fill="#eaac9d"/></g><g><path d="m450.76 193.507-74.283-52.358c-15.185-10.703-32.517-17.975-50.793-21.312l-81.62-14.902 15.156 63.917 12.971 9.238 36.867 6.731c13.081 2.388 25.71 6.798 37.433 13.072l76.359 40.863c12.968 6.94 29.106 2.053 36.046-10.915 6.347-11.858 2.857-26.586-8.136-34.334z" fill="#407093"/></g><g><path d="m455.28 197.57c-.458 1.889-1.104 3.757-1.999 5.564-6.53 13.179-22.507 18.569-35.686 12.039l-77.602-38.45c-11.914-5.903-24.676-9.916-37.825-11.893l-45.524-6.845 2.954 12.456 12.594 7.647 36.867 6.731c13.081 2.388 25.71 6.798 37.433 13.072l76.359 40.863c12.968 6.94 29.106 2.053 36.046-10.915 5.368-10.028 3.676-22.093-3.617-30.269z" fill="#2b4d66"/></g><g><path d="m232.314 159.263-14.204-73.917c-.947-4.927 2.94-9.453 7.954-9.261l30.217 1.16c3.917.15 7.113 3.186 7.465 7.09l6.801 75.458-3.94 9.831 5.589 8.467-25.919-4.904c-7.069-1.338-12.605-6.858-13.963-13.924z" fill="#407093"/></g><g><path d="m263.747 84.335c-.352-3.904-3.548-6.94-7.465-7.09l-9.138-.351 6.415 71.175c.583 6.465-5.179 11.693-11.557 10.486l-10.195-1.929.507 2.636c1.358 7.066 6.894 12.587 13.964 13.924l25.919 4.904z" fill="#2b4d66"/></g><g><path d="m315.688 158.831c-10.911-.027-19.734-8.894-19.707-19.805l.107-42.853c.027-10.911 8.894-19.734 19.805-19.707 10.911.027 19.734 8.894 19.707 19.805l-.107 42.853c-.027 10.911-8.894 19.734-19.805 19.707z" fill="#ffcbbe"/></g><g><path d="m355.194 161.182c-10.911-.027-19.734-8.894-19.707-19.805l.131-52.654c.027-10.911 8.894-19.734 19.805-19.707 10.911.027 19.734 8.894 19.707 19.805l-.131 52.654c-.027 10.911-8.894 19.734-19.805 19.707z" fill="#ffcbbe"/></g><g><path d="m394.706 161.281c-10.911-.027-19.734-8.894-19.707-19.805l.131-52.654c.027-10.911 8.894-19.734 19.805-19.707 10.911.027 19.734 8.894 19.707 19.805l-.126 50.548s-1.012 2.886-1.164 3.867.256 4.111.256 4.111c-2.522 8.036-10.037 13.857-18.902 13.835z" fill="#ffcbbe"/></g><g><path d="m445.438 147.344s-13.186 11.705-14.14 11.56c-9.52-1.438-16.806-9.666-16.781-19.583l.107-42.853c.027-10.911 8.894-19.734 19.805-19.707 10.911.027 19.734 8.894 19.707 19.805l-.088 35.167z" fill="#ffcbbe"/></g><g fill="#eaac9d"><path d="m315.893 76.467c-.842-.002-1.667.066-2.482.166 3.375 3.554 5.453 8.351 5.439 13.639l-.107 42.853c-.025 10.068-7.583 18.341-17.323 19.54 3.588 3.779 8.644 6.152 14.267 6.166 10.911.027 19.778-8.796 19.805-19.707l.107-42.853c.028-10.91-8.795-19.777-19.706-19.804z"/><path d="m355.424 69.017c-.842-.002-1.667.066-2.482.166 3.375 3.554 5.453 8.351 5.439 13.639l-.131 52.654c-.025 10.068-7.583 18.341-17.323 19.54 3.588 3.779 8.644 6.152 14.267 6.166 10.911.027 19.778-8.796 19.805-19.707l.131-52.654c.027-10.91-8.796-19.777-19.706-19.804z"/><path d="m394.935 69.115c-.842-.002-1.667.066-2.482.166 3.375 3.554 5.453 8.351 5.439 13.639l-.131 52.654c-.025 10.068-7.583 18.341-17.323 19.54 3.588 3.779 8.644 6.152 14.267 6.166 10.911.027 19.778-8.796 19.805-19.707l.131-52.654c.028-10.909-8.795-19.776-19.706-19.804z"/><path d="m434.428 76.762c-.842-.002-1.667.066-2.482.166 3.375 3.554 5.453 8.351 5.439 13.639l-.107 42.853c-.025 10.068-7.583 18.341-17.323 19.54 3.588 3.779 8.644 6.152 14.267 6.166 10.911.027 19.778-8.796 19.805-19.707l.107-42.853c.028-10.91-8.795-19.777-19.706-19.804z"/></g><g><g><circle cx="212.284" cy="272.859" fill="#4a81f6" r="14.157"/></g><g><circle cx="114.705" cy="272.859" fill="#4a81f6" r="14.157"/></g></g><g><path d="m161.509 364.061c-13.403 0-26.443-4.734-36.717-13.331-3.177-2.658-3.597-7.388-.939-10.564 2.658-3.179 7.388-3.598 10.565-.939 7.58 6.342 17.201 9.835 27.091 9.835s19.511-3.493 27.091-9.835c3.177-2.658 7.907-2.237 10.565.939 2.658 3.177 2.238 7.906-.939 10.564-10.274 8.596-23.314 13.331-36.717 13.331z" fill="#dd5790"/></g><g><g><circle cx="165.551" cy="134.395" fill="#c67d66" r="8.289"/></g><g><circle cx="212.299" cy="134.395" fill="#c67d66" r="8.289"/></g><g><circle cx="212.299" cy="167.177" fill="#c67d66" r="8.289"/></g><g><circle cx="189.031" cy="150.786" fill="#c67d66" r="8.289"/></g></g><g><path d="m107.187 160.357 2.986-1.15c25.622-9.868 42.524-34.491 42.524-61.947 0-3.976-3.223-7.199-7.199-7.199h-48.586c-42.847 0-77.581 34.734-77.581 77.581v88.358h33.308c8.52 0 15.427-6.907 15.427-15.427v-23.226c-.001-25.259 15.549-47.912 39.121-56.99z" fill="#c67d66"/></g><g><path d="m145.498 90.06h-26.431c3.976 0 7.199 3.223 7.199 7.199 0 27.456-16.903 52.079-42.524 61.947l-2.986 1.15c-23.571 9.078-39.121 31.731-39.121 56.99v23.226c0 8.52-6.907 15.427-15.427 15.427h26.431c8.52 0 15.427-6.907 15.427-15.427v-23.226c0-25.259 15.55-47.912 39.121-56.99l2.986-1.15c25.622-9.868 42.524-34.491 42.524-61.947 0-3.975-3.223-7.199-7.199-7.199z" fill="#be694f"/></g><g><path d="m43.591 337.509c-17.465 2.484-35.812-14.639-41.707-39.489-6.138-25.874 3.196-41.186 21.145-46.016 2.442-.657 4.783-.736 6.921-.485 5.992.705 11.187 4.46 14.134 9.724 3.387 6.05 8.67 16.678 11.446 28.381 6.138 25.874 8.301 43.187-9.784 47.477-.717.17-1.435.306-2.155.408" fill="#ffcbbe"/></g></g></svg>