<svg id="Capa_1" enable-background="new 0 0 497 497" height="512" viewBox="0 0 497 497" width="512" xmlns="http://www.w3.org/2000/svg"><g><path d="m497 201.01v237.37c0 11.25-9.12 20.38-20.38 20.38h-456.24c-11.25 0-20.38-9.13-20.38-20.38v-237.37l254.08-21.666z" fill="#baafb9"/><path d="m465.92 161.72v276.66c0 11.256-9.124 20.38-20.38 20.38h-425.16c-11.256 0-20.38-9.124-20.38-20.38v-276.66z" fill="#d7d0d6"/><g fill="#7b7179"><path d="m57.115 253.28c-4.142 0-7.5 3.357-7.5 7.5v163.244c0 4.143 3.358 7.5 7.5 7.5s7.5-3.357 7.5-7.5v-163.244c0-4.142-3.358-7.5-7.5-7.5z"/><path d="m133.668 253.28c-4.142 0-7.5 3.357-7.5 7.5v163.244c0 4.143 3.358 7.5 7.5 7.5s7.5-3.357 7.5-7.5v-163.244c0-4.142-3.358-7.5-7.5-7.5z"/><path d="m210.221 253.28c-4.142 0-7.5 3.357-7.5 7.5v163.244c0 4.143 3.358 7.5 7.5 7.5s7.5-3.357 7.5-7.5v-163.244c0-4.142-3.358-7.5-7.5-7.5z"/><path d="m286.774 253.28c-4.142 0-7.5 3.357-7.5 7.5v163.244c0 4.143 3.358 7.5 7.5 7.5s7.5-3.357 7.5-7.5v-163.244c0-4.142-3.358-7.5-7.5-7.5z"/><path d="m363.327 253.28c-4.142 0-7.5 3.357-7.5 7.5v163.244c0 4.143 3.358 7.5 7.5 7.5s7.5-3.357 7.5-7.5v-163.244c0-4.142-3.358-7.5-7.5-7.5z"/><path d="m439.879 253.28c-4.142 0-7.5 3.357-7.5 7.5v163.244c0 4.143 3.358 7.5 7.5 7.5s7.5-3.357 7.5-7.5v-163.244c0-4.142-3.358-7.5-7.5-7.5z"/></g><path d="m71.23 352.396h-28.229c-3.085 0-5.587-2.501-5.587-5.587v-33.849c0-3.085 2.501-5.587 5.587-5.587h28.229c3.085 0 5.587 2.501 5.587 5.587v33.849c-.001 3.086-2.502 5.587-5.587 5.587z" fill="#fedba6"/><path d="m147.783 329.885h-28.229c-3.085 0-5.587-2.501-5.587-5.587v-33.849c0-3.085 2.501-5.587 5.587-5.587h28.229c3.085 0 5.587 2.501 5.587 5.587v33.849c-.001 3.086-2.502 5.587-5.587 5.587z" fill="#fedba6"/><path d="m224.336 359.535h-28.229c-3.085 0-5.587-2.501-5.587-5.587v-33.848c0-3.085 2.501-5.587 5.587-5.587h28.229c3.085 0 5.587 2.501 5.587 5.587v33.849c-.001 3.085-2.502 5.586-5.587 5.586z" fill="#fedba6"/><path d="m300.888 373.142h-28.229c-3.085 0-5.587-2.501-5.587-5.587v-33.849c0-3.085 2.501-5.587 5.587-5.587h28.229c3.085 0 5.587 2.501 5.587 5.587v33.849c0 3.085-2.501 5.587-5.587 5.587z" fill="#a44f3e"/><path d="m377.441 316.961h-28.229c-3.085 0-5.587-2.501-5.587-5.587v-33.849c0-3.085 2.501-5.587 5.587-5.587h28.229c3.085 0 5.587 2.501 5.587 5.587v33.849c0 3.086-2.501 5.587-5.587 5.587z" fill="#a44f3e"/><path d="m453.994 352.396h-28.229c-3.085 0-5.587-2.501-5.587-5.587v-33.849c0-3.085 2.501-5.587 5.587-5.587h28.229c3.085 0 5.587 2.501 5.587 5.587v33.849c0 3.086-2.501 5.587-5.587 5.587z" fill="#a44f3e"/><path d="m466.009 201.013v14.112c0 8.174-6.627 14.801-14.801 14.801h-405.422c-8.174 0-14.801-6.627-14.801-14.801v-14.112z" fill="#e41f2d"/><path d="m420.177 201.013v14.112c0 8.174-6.627 14.801-14.801 14.801h-359.59c-8.174 0-14.801-6.627-14.801-14.801v-14.112z" fill="#fd4755"/><path d="m497 58.62v142.39h-497v-142.39c0-11.25 9.13-20.38 20.38-20.38h456.24c11.26 0 20.38 9.13 20.38 20.38z" fill="#d7d0d6"/><path d="m465.92 58.62v142.39h-465.92v-142.39c0-11.25 9.13-20.38 20.38-20.38h425.16c11.26 0 20.38 9.13 20.38 20.38z" fill="#e5e1e5"/><circle cx="68.843" cy="124.659" fill="#465a61" r="21.417"/><path d="m452.216 170.54h-221.092c-7.569 0-13.704-6.136-13.704-13.704v-41.706l8.161-6.684-8.161-8.316v-17.706c0-7.569 6.136-13.704 13.704-13.704h221.091c7.569 0 13.704 6.136 13.704 13.704v17.706l-4.942 8.057 4.942 6.74v41.908c.001 7.569-6.135 13.705-13.703 13.705z" fill="#3c87d0"/><path d="m452.216 68.72h-47.396c7.569 0 13.704 6.136 13.704 13.704v74.411c0 7.569-6.136 13.704-13.704 13.704h47.396c7.569 0 13.704-6.135 13.704-13.704v-41.908l-4.942-6.74 4.942-7.777v-17.986c0-7.568-6.136-13.704-13.704-13.704z" fill="#0078c8"/><circle cx="150.764" cy="124.659" fill="#465a61" r="21.417"/><path d="m466.01 100.13v15c-4.44 0-8.04 3.6-8.04 8.03 0 12.71-10.33 23.04-23.04 23.04-5.61 0-10.75-2.01-14.75-5.36-5.06-4.22-8.28-10.58-8.28-17.68 0-4.43-3.61-8.03-8.04-8.03s-8.04 3.6-8.04 8.03c0 12.71-10.33 23.04-23.03 23.04s-23.04-10.33-23.04-23.04c0-4.43-3.6-8.03-8.03-8.03-4.44 0-8.04 3.6-8.04 8.03 0 12.71-10.33 23.04-23.04 23.04-12.7 0-23.03-10.33-23.03-23.04 0-4.43-3.61-8.03-8.04-8.03s-8.04 3.6-8.04 8.03c0 12.71-10.33 23.04-23.03 23.04-12.71 0-23.04-10.33-23.04-23.04 0-4.43-3.6-8.03-8.04-8.03v-15c12.71 0 23.04 10.33 23.04 23.03 0 4.43 3.61 8.04 8.04 8.04s8.03-3.61 8.03-8.04c0-6.35 2.59-12.11 6.76-16.28s9.93-6.75 16.28-6.75c12.7 0 23.04 10.33 23.04 23.03 0 4.43 3.6 8.04 8.03 8.04s8.04-3.61 8.04-8.04c0-12.7 10.33-23.03 23.04-23.03 12.7 0 23.03 10.33 23.03 23.03 0 4.43 3.61 8.04 8.04 8.04s8.03-3.61 8.03-8.04c0-6.35 2.58-12.11 6.76-16.28 4.17-4.17 9.93-6.75 16.28-6.75 6.37 0 12.15 2.6 16.32 6.79 4.16 4.17 6.72 9.91 6.72 16.24 0 4.43 3.6 8.04 8.03 8.04s8.04-3.61 8.04-8.04c0-12.7 10.33-23.03 23.04-23.03z" fill="#fac600"/></g></svg>