<svg id="Capa_1" enable-background="new 0 0 512 512" height="512" viewBox="0 0 512 512" width="512" xmlns="http://www.w3.org/2000/svg"><g><path d="m446.058 58.166c-7.171 0-378.037 0-380.116 0-19.799 0-35.907 16.108-35.907 35.908v269.336c0 17.512 12.977 33.718 30.246 36.485h391.439c17.269-2.767 30.246-18.973 30.246-36.485 0-8.961 0-261.23 0-269.336-.001-19.799-16.109-35.908-35.908-35.908z" fill="#695d67"/><path d="m72.014 363.41v-269.336c0-19.799 16.108-35.908 35.907-35.908-25.405 0-41.551 0-41.98 0-19.799 0-35.907 16.108-35.907 35.908v269.336c0 17.512 12.977 33.718 30.246 36.485h41.98c-17.268-2.767-30.246-18.973-30.246-36.485z" fill="#544e55"/><path d="m62.292 126.33v234.126c0 3.558 2.884 6.443 6.442 6.443h374.532c3.557 0 6.442-2.885 6.442-6.443 0-6.084 0-227.085 0-234.126z" fill="#ffe181"/><path d="m104.272 360.456v-234.126h-41.98v234.126c0 3.558 2.884 6.443 6.442 6.443h41.98c-3.558 0-6.442-2.885-6.442-6.443z" fill="#fec458"/><g><path d="m219.937 305.702c-4.267 0-7.726-3.459-7.726-7.726v-106.253c0-4.267 3.459-7.726 7.726-7.726s7.726 3.459 7.726 7.726v106.254c0 4.266-3.459 7.725-7.726 7.725z" fill="#ff4756"/></g><ellipse cx="294.579" cy="285.315" fill="#ff656f" rx="30.383" ry="24.614" transform="matrix(.948 -.317 .317 .948 -75.243 108.076)"/><path d="m290.519 294.945c-4.204-12.579 4.654-26.935 19.869-32.566-6.796-2.832-15.268-3.197-23.611-.409-15.915 5.318-25.324 20.082-21.015 32.975s20.703 19.034 36.618 13.715c.387-.13.767-.269 1.146-.409-6.168-2.571-10.957-7.172-13.007-13.306z" fill="#ff4756"/><g><g><path d="m316.714 288.565c-4.267 0-7.726-3.459-7.726-7.726v-106.254c0-4.267 3.459-7.726 7.726-7.726s7.726 3.459 7.726 7.726v106.254c0 4.266-3.459 7.726-7.726 7.726z" fill="#ff656f"/></g></g><path d="m316.074 166.641-97.982 15.993c-3.402.519-5.882 3.07-5.882 6.049v29.125l112.23-17.138v-27.98c0-3.821-4.003-6.715-8.366-6.049z" fill="#ff656f"/><path d="m246.507 182.911c0-2.129 1.095-4.066 2.858-5.381l-31.273 5.104c-3.402.52-5.882 3.07-5.882 6.049v29.125l34.296-5.237v-29.66z" fill="#ff4756"/><path d="m506.005 398.865h-500.01c-3.311 0-5.995 2.711-5.995 6.054v20.823c0 15.45 12.519 28.092 27.82 28.092h456.36c15.301 0 27.82-12.642 27.82-28.092v-20.823c0-3.344-2.684-6.054-5.995-6.054z" fill="#dfebfa"/><path d="m506.005 398.865h-500.01c-3.311 0-5.995 2.711-5.995 6.054v20.823c0 15.45 12.519 28.092 27.82 28.092h456.36c15.301 0 27.82-12.642 27.82-28.092v-20.823c0-3.344-2.684-6.054-5.995-6.054z" fill="#dfebfa"/><path d="m86.503 425.742v-20.823c0-3.343 2.684-6.054 5.995-6.054h-86.503c-3.311 0-5.995 2.711-5.995 6.054v20.823c0 15.45 12.519 28.092 27.82 28.092h86.503c-15.301 0-27.82-12.642-27.82-28.092z" fill="#b1dbfc"/><path d="m181.319 398.865v13.97c0 6.866 5.563 12.484 12.363 12.484h124.635c6.8 0 12.363-5.618 12.363-12.484v-13.97" fill="#b1dbfc"/><path d="m248.796 412.835v-13.97h-67.477v13.97c0 6.866 5.563 12.484 12.363 12.484h67.477c-6.8 0-12.363-5.618-12.363-12.484z" fill="#8bcaff"/><path d="m443.266 90.183c-16.637 0-327.971 0-341.157 0v38.207h347.598v-31.765c0-3.558-2.884-6.442-6.441-6.442z" fill="#5cb3f8"/><path d="m68.734 90.183c-3.558 0-6.442 2.884-6.442 6.443v31.765h41.878v-38.208z" fill="#ff4756"/><ellipse cx="197.801" cy="302.453" fill="#ff656f" rx="30.383" ry="24.614" transform="matrix(.948 -.317 .317 .948 -85.664 78.287)"/><path d="m193.742 312.083c-4.204-12.579 4.654-26.935 19.869-32.566-6.796-2.832-15.268-3.197-23.611-.409-15.915 5.318-25.324 20.082-21.015 32.975s20.703 19.034 36.618 13.715c.387-.129.767-.269 1.147-.409-6.169-2.571-10.958-7.172-13.008-13.306z" fill="#ff4756"/></g></svg>