<svg id="Capa_1" enable-background="new 0 0 512 512" height="512" viewBox="0 0 512 512" width="512" xmlns="http://www.w3.org/2000/svg"><g><g><g><path d="m372.37 445.083 4.986-15.705v-401.956c0-11.014-8.929-19.943-19.943-19.943h-283.512c-11.014 0-19.943 8.929-19.943 19.943v401.956l4.986 15.705z" fill="#61a2f9"/></g><g><path d="m357.413 7.479h-15.907v437.604h30.864l4.986-15.705v-401.956c0-11.014-8.929-19.943-19.943-19.943z" fill="#4a81f6"/></g><g><path d="m53.958 429.378v55.2c0 11.014 8.929 19.943 19.943 19.943h283.512c11.014 0 19.943-8.929 19.943-19.943v-55.2z" fill="#dae7ef"/></g><g><path d="m341.505 429.378v19.35c0 11.014-8.929 19.943-19.943 19.943h-267.604v15.907c0 11.014 8.929 19.943 19.943 19.943h283.512c11.014 0 19.943-8.929 19.943-19.943v-55.2z" fill="#c1d5e4"/></g><g><path d="m357.413 512h-283.512c-15.12 0-27.421-12.302-27.421-27.421v-457.158c-.001-15.119 12.301-27.421 27.421-27.421h283.512c15.12 0 27.421 12.302 27.421 27.421v457.157c0 15.12-12.302 27.422-27.421 27.422zm-283.512-497.043c-6.873 0-12.464 5.591-12.464 12.464v457.157c0 6.873 5.591 12.464 12.464 12.464h283.512c6.873 0 12.464-5.591 12.464-12.464v-457.157c0-6.873-5.591-12.464-12.464-12.464z" fill="#98b9d3"/></g><g><path d="m239.776 476.422h-48.239c-4.131 0-7.479-3.348-7.479-7.479s3.348-7.479 7.479-7.479h48.239c4.131 0 7.479 3.348 7.479 7.479s-3.348 7.479-7.479 7.479z" fill="#407093"/></g></g><g><circle cx="380.154" cy="376.815" fill="#dd5790" r="85.367"/></g><g><path d="m427.347 305.683c8.988 13.52 14.235 29.741 14.235 47.193 0 47.147-38.22 85.367-85.367 85.367-17.452 0-33.673-5.247-47.193-14.235 15.293 23.005 41.436 38.174 71.131 38.174 47.147 0 85.367-38.22 85.367-85.367.001-29.695-15.169-55.839-38.173-71.132z" fill="#da387d"/></g><g><path d="m418.66 371.618-58.472-33.759c-4-2.309-9 .577-9 5.196v67.518c0 4.619 5 7.506 9 5.196l58.472-33.759c4-2.309 4-8.082 0-10.392z" fill="#f6f9f9"/></g><g><g><path d="m264.989 310.857h-98.665c-5.523 0-10-4.477-10-10v-71.267h118.665v71.266c0 5.523-4.477 10.001-10 10.001z" fill="#407093"/></g><g><path d="m242.743 229.59v71.295c0 5.507-4.465 9.971-9.971 9.971h32.246c5.507 0 9.971-4.465 9.971-9.971v-71.295z" fill="#2b4d66"/></g><g><g><path d="m91.729 376.45c-1.269 0-2.554-.323-3.732-1.003-3.577-2.065-4.803-6.639-2.737-10.216l27.597-47.8c1.336-2.314 3.805-3.739 6.477-3.739s5.141 1.426 6.477 3.739l27.598 47.8c2.065 3.577.839 8.15-2.737 10.216-3.576 2.064-8.15.839-10.216-2.737l-21.121-36.582-21.12 36.582c-1.387 2.399-3.901 3.74-6.486 3.74z" fill="#f6e266"/></g><g><path d="m119.333 377.618c-4.131 0-7.479-3.348-7.479-7.479v-140.549c0-4.131 3.348-7.479 7.479-7.479s7.479 3.348 7.479 7.479v140.55c0 4.131-3.348 7.478-7.479 7.478z" fill="#f6e266"/></g></g><g><circle cx="119.333" cy="315.582" fill="#407093" r="13.394"/></g><g><path d="m206.995 169.264-114.984 44.315c-6.259 2.412-6.259 11.268 0 13.68l114.984 44.315c5.575 2.149 11.749 2.149 17.324 0l114.984-44.315c6.259-2.412 6.259-11.268 0-13.68l-114.984-44.315c-5.575-2.149-11.749-2.149-17.324 0z" fill="#407093"/></g><g><path d="m339.302 213.579-22.857-8.809-92.126 35.506c-5.575 2.148-11.749 2.148-17.324 0l-92.126-35.506-22.857 8.809c-6.259 2.412-6.259 11.268 0 13.68l114.984 44.315c5.575 2.148 11.749 2.148 17.324 0l114.984-44.315c6.257-2.412 6.257-11.268-.002-13.68z" fill="#2b4d66"/></g></g><g><g><path d="m198.772 83.381c-4.131 0-7.479-3.348-7.479-7.479v-26.642c0-4.131 3.348-7.479 7.479-7.479s7.479 3.348 7.479 7.479v26.642c0 4.131-3.348 7.479-7.479 7.479z" fill="#f6f9f9"/></g><g><path d="m232.541 83.381c-4.131 0-7.479-3.348-7.479-7.479v-26.642c0-4.131 3.348-7.479 7.479-7.479s7.479 3.348 7.479 7.479v26.642c0 4.131-3.348 7.479-7.479 7.479z" fill="#f6f9f9"/></g></g><g><path d="m333.613 118.806h-235.912c-4.131 0-7.479-3.348-7.479-7.479s3.348-7.479 7.479-7.479h235.912c4.131 0 7.479 3.348 7.479 7.479-.001 4.131-3.349 7.479-7.479 7.479z" fill="#f6f9f9"/></g><g><circle cx="132.727" cy="111.327" fill="#dae7ef" r="22.489"/></g><g><path d="m140.623 90.267c.922 2.457 1.429 5.117 1.429 7.896 0 12.42-10.069 22.489-22.489 22.489-2.779 0-5.439-.507-7.896-1.429 3.198 8.525 11.419 14.593 21.06 14.593 12.42 0 22.489-10.069 22.489-22.489 0-9.641-6.068-17.862-14.593-21.06z" fill="#c1d5e4"/></g></g></svg>