<svg id="Capa_1" enable-background="new 0 0 512 512" height="512" viewBox="0 0 512 512" width="512" xmlns="http://www.w3.org/2000/svg"><g><g><path d="m444.953 372.224-15.736 4.995h-401.742c-11.036 0-19.982-8.946-19.982-19.982v-284.065c0-11.036 8.946-19.982 19.982-19.982h401.742l15.736 4.995z" fill="#61a2f9"/></g><g><path d="m429.217 53.19h55.308c11.036 0 19.982 8.946 19.982 19.982v284.065c0 11.036-8.946 19.982-19.982 19.982h-55.308z" fill="#dae7ef"/></g><g><path d="m7.493 332.902v24.335c0 11.036 8.946 19.982 19.982 19.982h401.742l15.736-4.995v-39.321h-437.46z" fill="#4a81f6"/></g><g><path d="m484.525 53.19h-24.335v259.731c0 11.036-8.946 19.982-19.982 19.982h-10.991v44.317h55.308c11.036 0 19.982-8.946 19.982-19.982v-284.066c0-11.036-8.946-19.982-19.982-19.982z" fill="#c1d5e4"/></g><g><path d="m466.862 246.864c-4.138 0-7.493-3.354-7.493-7.493v-48.333c0-4.139 3.355-7.493 7.493-7.493s7.493 3.354 7.493 7.493v48.333c0 4.139-3.355 7.493-7.493 7.493z" fill="#407093"/></g><g><g><path d="m170.209 318.732c-35.235 0-63.798-28.564-63.798-63.798 0-14.052 4.639-27.71 13.197-38.855l19.092-24.865c6.263-8.157 9.658-18.153 9.658-28.436v-9.017c0-11.583-9.39-20.974-20.974-20.974-11.583 0-20.974 9.39-20.974 20.974v2.975c0 7.707-6.248 13.955-13.955 13.955-7.707 0-13.955-6.248-13.955-13.955v-1.298c0-27.478 22.276-49.754 49.754-49.754 25.769 0 47.273 19.675 49.558 45.342 2.462 27.66-5.59 55.232-22.553 77.219l-7.604 9.856c-3.339 4.328-5.151 9.641-5.151 15.108 0 13.66 11.074 24.734 24.734 24.734h106.637c13.66 0 24.734-11.074 24.734-24.734 0-5.467-1.811-10.78-5.151-15.108l-7.604-9.856c-16.963-21.987-25.016-49.559-22.553-77.219 2.285-25.667 23.789-45.342 49.558-45.342 27.478 0 49.754 22.276 49.754 49.754v1.298c0 7.707-6.248 13.955-13.955 13.955-7.707 0-13.955-6.248-13.955-13.955v-2.975c0-11.583-9.39-20.974-20.974-20.974-11.583 0-20.974 9.39-20.974 20.974v9.017c0 10.284 3.395 20.28 9.658 28.436l19.092 24.865c8.558 11.145 13.197 24.803 13.197 38.855 0 35.235-28.564 63.798-63.798 63.798z" fill="#f6e266"/></g><path d="m260.613 154.385h-3.258v-14.112c0-4.139-3.355-7.493-7.493-7.493s-7.493 3.354-7.493 7.493v14.112h-14.319v-35.53c0-4.139-3.355-7.493-7.493-7.493s-7.493 3.354-7.493 7.493v35.53h-14.437v-14.112c0-4.139-3.355-7.493-7.493-7.493s-7.493 3.354-7.493 7.493v14.112h-3.14c-4.138 0-7.493 3.354-7.493 7.493s3.355 7.493 7.493 7.493h3.14v110.909c0 4.139 3.355 7.493 7.493 7.493s7.493-3.354 7.493-7.493v-110.909h14.437v110.91c0 4.139 3.355 7.493 7.493 7.493s7.493-3.354 7.493-7.493v-110.91h14.318v110.909c0 4.139 3.355 7.493 7.493 7.493s7.493-3.354 7.493-7.493v-110.909h3.258c4.138 0 7.493-3.354 7.493-7.493s-3.354-7.493-7.492-7.493z" fill="#f6e266"/></g><g><path d="m484.525 384.712h-457.05c-15.15 0-27.475-12.325-27.475-27.475v-284.065c0-15.149 12.325-27.475 27.475-27.475h457.05c15.15 0 27.475 12.326 27.475 27.475v284.065c0 15.15-12.325 27.475-27.475 27.475zm-457.05-324.029c-6.886 0-12.489 5.602-12.489 12.489v284.065c0 6.886 5.602 12.489 12.489 12.489h457.05c6.886 0 12.489-5.602 12.489-12.489v-284.065c0-6.886-5.602-12.489-12.489-12.489z" fill="#98b9d3"/></g><g><circle cx="404.895" cy="380.77" fill="#dd5790" r="85.533"/></g><g><path d="m452.18 309.5c9.005 13.546 14.263 29.799 14.263 47.285 0 47.239-38.295 85.533-85.533 85.533-17.486 0-33.739-5.258-47.285-14.263 15.323 23.049 41.517 38.249 71.27 38.249 47.239 0 85.533-38.295 85.533-85.533 0-29.754-15.199-55.948-38.248-71.271z" fill="#da387d"/></g><g><path d="m443.493 375.574-58.622-33.845c-4-2.309-9 .577-9 5.196v67.69c0 4.619 5 7.506 9 5.196l58.622-33.845c4-2.309 4-8.083 0-10.392z" fill="#f6f9f9"/></g></g></svg>