<svg id="Capa_1" enable-background="new 0 0 512 512" height="512" viewBox="0 0 512 512" width="512" xmlns="http://www.w3.org/2000/svg"><g><path d="m61.954 55.347v436.847c0 10.939 8.868 19.806 19.806 19.806h348.478c10.939 0 19.807-8.868 19.807-19.806v-436.847z" fill="#dfebfa"/><path d="m95.95 492.194v-436.847h-33.996v436.847c0 10.939 8.868 19.806 19.806 19.806h33.996c-10.938 0-19.806-8.868-19.806-19.806z" fill="#b1dbfc"/><path d="m430.239 0h-313.648v57.407h333.455v-37.601c0-10.939-8.869-19.806-19.807-19.806z" fill="#5cb3f8"/><path d="m118.651 0h-36.89c-10.939 0-19.807 8.867-19.807 19.806v37.601h56.696v-57.407z" fill="#ff656f"/><path d="m115.757 0h-33.996c-10.939 0-19.807 8.867-19.807 19.806v37.601h33.996v-37.601c0-10.939 8.868-19.806 19.807-19.806z" fill="#ff4756"/><g><g><path d="m411.669 36.43h-255.327c-4.267 0-7.726-3.459-7.726-7.726s3.459-7.726 7.726-7.726h255.327c4.267 0 7.726 3.459 7.726 7.726s-3.459 7.726-7.726 7.726z" fill="#8bcaff"/></g></g><g><path d="m192.462 278.189h-45.289c-4.267 0-7.726-3.459-7.726-7.726s3.459-7.726 7.726-7.726h45.289c4.267 0 7.726 3.459 7.726 7.726s-3.459 7.726-7.726 7.726z" fill="#8479c2"/></g><g><path d="m364.827 278.189h-45.289c-4.267 0-7.726-3.459-7.726-7.726s3.459-7.726 7.726-7.726h45.289c4.267 0 7.726 3.459 7.726 7.726s-3.459 7.726-7.726 7.726z" fill="#8479c2"/></g><path d="m397.317 310.06h-110.269c-6.642 0-12.077 5.435-12.077 12.077v110.269c0 6.642 5.435 12.077 12.077 12.077h110.269c6.642 0 12.077-5.435 12.077-12.077v-110.269c0-6.643-5.435-12.077-12.077-12.077z" fill="#ff656f"/><path d="m321.071 432.406v-110.269c0-6.643 5.435-12.077 12.077-12.077h-46.1c-6.643 0-12.077 5.435-12.077 12.077v110.269c0 6.642 5.435 12.077 12.077 12.077h46.1c-6.642 0-12.077-5.435-12.077-12.077z" fill="#ff4756"/><g><path d="m364.827 482.012h-45.289c-4.267 0-7.726-3.459-7.726-7.726s3.459-7.726 7.726-7.726h45.289c4.267 0 7.726 3.459 7.726 7.726s-3.459 7.726-7.726 7.726z" fill="#8479c2"/></g><path d="m361.444 372.176-32.385-19.507c-3.965-2.388-9.018.467-9.018 5.096v39.013c0 4.628 5.053 7.484 9.018 5.096l32.385-19.507c3.84-2.313 3.84-7.879 0-10.191z" fill="#dfebfa"/><path d="m224.952 310.06h-110.269c-6.642 0-12.077 5.435-12.077 12.077v110.269c0 6.642 5.435 12.077 12.077 12.077h110.269c6.642 0 12.077-5.435 12.077-12.077v-110.269c0-6.643-5.435-12.077-12.077-12.077z" fill="#ff656f"/><path d="m148.706 432.406v-110.269c0-6.643 5.435-12.077 12.077-12.077h-46.1c-6.643 0-12.077 5.435-12.077 12.077v110.269c0 6.642 5.435 12.077 12.077 12.077h46.1c-6.642 0-12.077-5.435-12.077-12.077z" fill="#ff4756"/><path d="m189.079 372.176-32.385-19.507c-3.965-2.388-9.018.467-9.018 5.096v39.013c0 4.628 5.053 7.484 9.018 5.096l32.385-19.507c3.84-2.313 3.84-7.879 0-10.191z" fill="#dfebfa"/><g><path d="m192.462 482.012h-45.289c-4.267 0-7.726-3.459-7.726-7.726s3.459-7.726 7.726-7.726h45.289c4.267 0 7.726 3.459 7.726 7.726s-3.459 7.726-7.726 7.726z" fill="#8479c2"/></g><path d="m251.943 314.274c3.505-3.416 1.571-9.369-3.273-10.072l-12.904-1.875c-1.924-.279-3.586-1.488-4.446-3.23l-5.771-11.693c-2.166-4.389-8.424-4.389-10.59 0l-5.771 11.693c-.86 1.743-2.523 2.951-4.446 3.23l-12.904 1.875c-4.843.704-6.777 6.656-3.273 10.072l9.337 9.102c1.392 1.357 2.027 3.311 1.698 5.227l-2.204 12.852c-.827 4.824 4.236 8.502 8.568 6.225l11.542-6.068c1.72-.904 3.775-.904 5.496 0l11.542 6.068c4.332 2.277 9.395-1.401 8.568-6.225l-2.204-12.852c-.329-1.916.307-3.87 1.698-5.227z" fill="#ffe181"/><path d="m397.317 106.697h-110.269c-6.642 0-12.077 5.435-12.077 12.077v110.269c0 6.642 5.435 12.077 12.077 12.077h110.269c6.642 0 12.077-5.435 12.077-12.077v-110.269c0-6.643-5.435-12.077-12.077-12.077z" fill="#ff656f"/><path d="m321.071 229.043v-110.269c0-6.643 5.435-12.077 12.077-12.077h-46.1c-6.643 0-12.077 5.435-12.077 12.077v110.269c0 6.642 5.435 12.077 12.077 12.077h46.1c-6.642 0-12.077-5.435-12.077-12.077z" fill="#ff4756"/><path d="m361.444 168.812-32.385-19.507c-3.965-2.388-9.018.467-9.018 5.096v39.013c0 4.628 5.053 7.484 9.018 5.096l32.385-19.507c3.84-2.312 3.84-7.878 0-10.191z" fill="#dfebfa"/><path d="m424.308 110.911c3.505-3.416 1.571-9.369-3.273-10.072l-12.904-1.875c-1.924-.279-3.586-1.487-4.446-3.23l-5.771-11.693c-2.166-4.389-8.424-4.389-10.59 0l-5.771 11.693c-.86 1.743-2.523 2.951-4.446 3.23l-12.904 1.875c-4.843.704-6.777 6.656-3.273 10.072l9.337 9.102c1.392 1.357 2.027 3.311 1.698 5.227l-2.204 12.852c-.827 4.824 4.236 8.502 8.568 6.225l11.542-6.068c1.72-.904 3.775-.904 5.496 0l11.542 6.068c4.332 2.277 9.395-1.401 8.568-6.225l-2.204-12.852c-.329-1.916.307-3.87 1.698-5.227z" fill="#ffe181"/><path d="m224.952 106.697h-110.269c-6.642 0-12.077 5.435-12.077 12.077v110.269c0 6.642 5.435 12.077 12.077 12.077h110.269c6.642 0 12.077-5.435 12.077-12.077v-110.269c0-6.643-5.435-12.077-12.077-12.077z" fill="#ff656f"/><path d="m148.706 229.043v-110.269c0-6.643 5.435-12.077 12.077-12.077h-46.1c-6.643 0-12.077 5.435-12.077 12.077v110.269c0 6.642 5.435 12.077 12.077 12.077h46.1c-6.642 0-12.077-5.435-12.077-12.077z" fill="#ff4756"/><path d="m189.079 168.812-32.385-19.507c-3.965-2.388-9.018.467-9.018 5.096v39.013c0 4.628 5.053 7.484 9.018 5.096l32.385-19.507c3.84-2.312 3.84-7.878 0-10.191z" fill="#dfebfa"/></g></svg>