<svg id="Capa_1" enable-background="new 0 0 497 497" height="512" viewBox="0 0 497 497" width="512" xmlns="http://www.w3.org/2000/svg"><g><path d="m497 73.63v349.74c0 16.22-13.15 29.37-29.37 29.37h-438.26c-16.22 0-29.37-13.15-29.37-29.37v-349.74c0-16.22 13.15-29.37 29.37-29.37h438.26c16.22 0 29.37 13.15 29.37 29.37z" fill="#d8aa5e"/><path d="m457.17 73.63v349.74c0 16.22-13.15 29.37-29.37 29.37h-398.43c-16.22 0-29.37-13.15-29.37-29.37v-349.74c0-16.22 13.15-29.37 29.37-29.37h398.43c16.22 0 29.37 13.15 29.37 29.37z" fill="#e9b665"/><path d="m370.72 248.5c0 93.64-75.91 169.54-169.55 169.54-6.62 0-13.14-.38-19.56-1.12-84.42-9.69-149.98-81.4-149.98-168.42s65.56-158.73 149.98-168.42c6.42-.74 12.94-1.12 19.56-1.12 93.64 0 169.55 75.9 169.55 169.54z" fill="#465a61"/><path d="m331.59 248.5c0 87.02-65.56 158.72-149.98 168.42-84.42-9.69-149.98-81.4-149.98-168.42s65.56-158.73 149.98-168.42c84.42 9.7 149.98 81.4 149.98 168.42z" fill="#596c76"/><path d="m447.934 163.411h-46.768c-4.636 0-8.532-3.485-9.047-8.093l-7.399-66.25c-.602-5.394 3.619-10.113 9.047-10.113h61.565c5.427 0 9.649 4.719 9.047 10.113l-7.399 66.25c-.513 4.609-4.409 8.093-9.046 8.093z" fill="#ffefd2"/><path d="m262.5 248.5c0 33.87-27.46 61.33-61.33 61.33-5.88 0-11.56-.83-16.95-2.38-25.63-7.35-44.38-30.96-44.38-58.95s18.75-51.6 44.38-58.95c5.39-1.55 11.07-2.38 16.95-2.38 33.87 0 61.33 27.46 61.33 61.33z" fill="#e41f2d"/><path d="m228.58 248.5c0 27.99-18.74 51.6-44.36 58.95-25.63-7.35-44.38-30.96-44.38-58.95s18.75-51.6 44.38-58.95c25.62 7.35 44.36 30.96 44.36 58.95z" fill="#fd4755"/><path d="m457.5 328.132v15.597c0 2.597-2.105 4.702-4.702 4.702h-56.497c-2.597 0-4.702-2.105-4.702-4.702v-15.597c0-2.597 2.105-4.702 4.702-4.702h56.497c2.597 0 4.702 2.105 4.702 4.702z" fill="#01998d"/><path d="m429 328.132v15.597c0 2.597-2.105 4.702-4.702 4.702h-27.997c-2.597 0-4.702-2.105-4.702-4.702v-15.597c0-2.597 2.105-4.702 4.702-4.702h27.997c2.597 0 4.702 2.105 4.702 4.702z" fill="#0ab69f"/><path d="m457.5 382.632v30.707c0 2.597-2.105 4.702-4.702 4.702h-56.497c-2.597 0-4.702-2.105-4.702-4.702v-30.707c0-2.597 2.105-4.702 4.702-4.702h56.497c2.597 0 4.702 2.105 4.702 4.702z" fill="#01998d"/><path d="m429 382.632v30.707c0 2.597-2.105 4.702-4.702 4.702h-27.997c-2.597 0-4.702-2.105-4.702-4.702v-30.707c0-2.597 2.105-4.702 4.702-4.702h27.997c2.597 0 4.702 2.105 4.702 4.702z" fill="#0ab69f"/><g><path d="m170.765 351.225c-.755 0-1.523-.115-2.282-.356-32.446-10.352-58.3-35.809-69.161-68.096-1.321-3.927.791-8.18 4.717-9.5 3.925-1.321 8.179.791 9.5 4.717 9.345 27.78 31.589 49.683 59.504 58.588 3.946 1.26 6.125 5.479 4.865 9.425-1.017 3.187-3.967 5.222-7.143 5.222z" fill="#7a8c98"/></g><g><path d="m178.16 389.093c-.421 0-.849-.035-1.278-.109-58.1-9.978-104.596-55.582-115.701-113.48-.78-4.068 1.885-7.999 5.953-8.779 4.07-.774 7.998 1.885 8.778 5.953 9.935 51.798 51.532 92.597 103.509 101.523 4.082.701 6.823 4.579 6.122 8.661-.627 3.652-3.798 6.231-7.383 6.231z" fill="#7a8c98"/></g><circle cx="201.171" cy="248.5" fill="#465a61" r="7.5"/><g><path d="m336.224 245.005c-2.607 0-5.141-1.36-6.523-3.788-2.051-3.599-.795-8.179 2.804-10.229l84.547-48.175v-61.629c0-4.143 3.357-7.5 7.5-7.5s7.5 3.357 7.5 7.5v65.987c0 2.694-1.445 5.183-3.787 6.517l-88.334 50.333c-1.173.667-2.449.984-3.707.984z" fill="#fedba6"/></g><circle cx="316.919" cy="248.5" fill="#ffefd2" r="22.214"/></g></svg>