<svg id="Capa_1" enable-background="new 0 0 512 512" height="512" viewBox="0 0 512 512" width="512" xmlns="http://www.w3.org/2000/svg"><g><g><g><path d="m260.944 170.561h-128.583v226.659c0 23.792 17.064 43.585 39.62 47.839 3.162.596 5.491 3.288 5.491 6.506v50.129c0 5.692 4.615 10.307 10.307 10.307h134.689c5.692 0 10.307-4.615 10.307-10.307v-165.902z" fill="#b46e59"/></g></g><g><g><path d="m260.944 170.561h-18.548l71.792 165.141v168.4c0 3.156-1.404 5.98-3.615 7.898h11.895c5.692 0 10.307-4.615 10.307-10.307v-165.901z" fill="#a55e4d"/></g></g><g><g><path d="m91.28 228.698h-29.887c-13.47 0-24.389-10.919-24.389-24.389v-1.571c0-13.47 10.919-24.389 24.389-24.389h29.887z" fill="#b46e59"/></g></g><g><g><path d="m90.849 279.047h-42.062c-13.47 0-24.389-10.919-24.389-24.389v-1.571c0-13.47 10.919-24.389 24.389-24.389h42.061v50.349z" fill="#b46e59"/></g></g><g><g><path d="m90.849 329.396h-22.037c-13.47 0-24.389-10.919-24.389-24.389v-1.571c0-13.47 10.919-24.389 24.389-24.389h22.036v50.349z" fill="#b46e59"/></g></g><g fill="#a55e4d"><path d="m69.52 178.349v23.589c0 8.284-6.716 15-15 15h-13.995c4.275 7.049 12.021 11.76 20.868 11.76h29.887v-50.349z"/><path d="m69.52 228.698v23.303c0 8.284-6.716 15-15 15h-26.765c4.238 7.206 12.068 12.046 21.033 12.046h42.061v-50.349z"/><path d="m69.52 279.047v23.016c0 8.284-6.716 15-15 15h-6.905c4.198 7.364 12.115 12.333 21.197 12.333h22.036v-50.349z"/></g><path d="m273.915 312.657 9.668-123.555v-174.756c.001-7.923-6.423-14.346-14.346-14.346h-173.243c-7.924 0-14.347 6.423-14.347 14.346v289.875l5 8.436z" fill="#61a2f9"/><path d="m273.915 312.657 9.668-123.555v-174.756c.001-7.923-6.423-14.346-14.346-14.346h-22.364v312.657z" fill="#4a81f6"/><g><path d="m455.59 170.298c-2.032 0-4.061-.796-5.58-2.378-2.958-3.082-2.858-7.977.223-10.935 14.123-13.559 21.901-31.808 21.901-51.387s-7.778-37.828-21.9-51.386c-3.082-2.958-3.181-7.854-.223-10.935 2.957-3.082 7.853-3.182 10.935-.223 17.19 16.502 26.656 38.714 26.656 62.544s-9.467 46.042-26.656 62.545c-1.5 1.439-3.429 2.155-5.356 2.155z" fill="#86f1a7"/></g><path d="m435.594 68.367c-3.081-2.959-7.977-2.86-10.935.222-2.959 3.081-2.859 7.977.222 10.935 7.165 6.88 11.111 16.14 11.111 26.074 0 9.926-3.946 19.183-11.112 26.063-3.081 2.959-3.18 7.854-.222 10.935 1.519 1.582 3.547 2.377 5.579 2.377 1.926 0 3.856-.716 5.356-2.156 10.231-9.825 15.866-23.043 15.866-37.22.001-14.184-5.633-27.406-15.865-37.23z" fill="#86f1a7"/><g><circle cx="400.878" cy="105.595" fill="#407093" r="13.104"/></g><g><path d="m370.482 144.973c-1.928 0-3.859-.717-5.359-2.159-10.222-9.829-15.852-23.046-15.852-37.217 0-14.184 5.631-27.403 15.856-37.22 3.081-2.959 7.977-2.858 10.935.222 2.959 3.081 2.859 7.977-.222 10.935-7.159 6.874-11.101 16.13-11.101 26.063 0 9.924 3.944 19.181 11.105 26.067 3.079 2.961 3.175 7.856.215 10.935-1.519 1.58-3.547 2.374-5.577 2.374z" fill="#86f1a7"/></g><g><path d="m346.161 170.298c-1.926 0-3.856-.716-5.355-2.155-17.189-16.503-26.656-38.715-26.656-62.545 0-23.824 9.466-46.039 26.654-62.553 3.08-2.96 7.976-2.862 10.935.219 2.959 3.08 2.862 7.976-.219 10.935-14.124 13.57-21.903 31.825-21.903 51.399 0 19.578 7.778 37.827 21.901 51.387 3.081 2.958 3.181 7.854.223 10.935-1.519 1.581-3.548 2.378-5.58 2.378z" fill="#86f1a7"/></g><g><path d="m283.584 189.101c-10.98.103-22.126 1.581-33.224 4.57l-98.145 26.438c-.22.059-.44.119-.659.179-33.268 9.143-52.733 43.659-43.759 76.973l3.591 13.329h172.197v-121.489z" fill="#f6f9f9"/></g><g><path d="m246.873 194.611v115.981h36.711v-121.49c-10.98.103-22.126 1.581-33.224 4.57z" fill="#dae7ef"/></g><g><g><path d="m233.721 189.61-10.177-37.778-69.158 18.63 10.177 37.778c1.788 6.636.912 13.707-2.44 19.706l-.147.263c-1.876 3.357-2.366 7.314-1.366 11.027 3.995 14.83 19.255 23.613 34.085 19.618l38.396-10.343c14.83-3.995 23.613-19.255 19.618-34.085-1-3.713-3.412-6.889-6.72-8.849l-.26-.154c-5.911-3.502-10.221-9.177-12.008-15.813z" fill="#a55e4d"/></g><g><path d="m228.212 173.026-8.477 14c-9.213 15.214-28.769 20.482-44.377 11.954l-14.362-7.847c-12.46-6.808-21.597-18.413-25.29-32.123l-9.934-36.878 3.98-15.46 83.051-22.372 11.207 11.369 9.934 36.878c3.694 13.71 1.623 28.334-5.732 40.479z" fill="#b46e59"/></g><g><g><circle cx="204.997" cy="128.283" fill="#2b4d66" r="6.972"/></g><g><circle cx="158.594" cy="140.783" fill="#2b4d66" r="6.972"/></g></g><g><path d="m171.364 95.809c18.168-4.894 36.354-4.617 52.646-.14l-11.106-41.228c-1.13-4.194-5.445-6.677-9.639-5.548l-83.052 22.373c-4.194 1.13-6.678 5.445-5.548 9.639l11.106 41.228c11.839-12.055 27.425-21.429 45.593-26.324z" fill="#2b4d66"/></g><g><g><path d="m148.739 167.73-13.673 3.683c-6.399 1.724-12.984-2.066-14.708-8.466l-4.879-18.111c-.862-3.2 1.033-6.492 4.233-7.354l19.467-5.244z" fill="#b46e59"/></g><g><path d="m225.386 147.083 13.673-3.683c6.399-1.724 10.19-8.309 8.466-14.708l-4.879-18.111c-.862-3.2-4.154-5.095-7.354-4.233l-19.467 5.244z" fill="#b46e59"/></g></g><g><path d="m171.003 161.733c-1.133.305-1.704 1.564-1.202 2.625 4.161 8.799 14.201 15.32 23.483 12.82s14.688-13.182 13.866-22.881c-.099-1.17-1.224-1.971-2.358-1.666z" fill="#f9f6f6"/></g></g><g><path d="m81.647 304.221v53.873c0 7.923 6.423 14.346 14.346 14.346h173.243c7.923 0 14.346-6.423 14.346-14.346v-53.873z" fill="#dae7ef"/></g><g><path d="m95.994 372.441h173.243c7.923 0 14.346-6.423 14.346-14.346v-53.873h-36.711v17.162c0 7.923-6.423 14.346-14.346 14.346h-150.879v22.365c0 7.923 6.423 14.346 14.347 14.346z" fill="#c1d5e4"/></g><g><path d="m198.557 345.034h-33.063c-4.271 0-7.734-3.463-7.734-7.734s3.463-7.734 7.734-7.734h33.063c4.271 0 7.734 3.463 7.734 7.734s-3.462 7.734-7.734 7.734z" fill="#407093"/></g><g><g><g><path d="m337.517 413.519c9.455-8.98 14.019-21.955 12.268-34.876l-12.615-93.097c-1.113-7.978.185-16.106 3.725-23.342l2.538-5.187c2.969-6.068 1.806-13.347-2.905-18.188-6.162-6.332-16.29-6.47-22.622-.308l-1.252 1.218c-15.335 14.924-25.781 34.149-29.956 55.136l-13.297 66.834c-3.736 18.78.28 38.272 11.135 54.045 10.507 15.267 32.169 17.532 45.607 4.769z" fill="#b46e59"/></g></g></g><g><g><path d="m349.785 378.643-12.615-93.097c-1.113-7.978.184-16.106 3.725-23.342l2.538-5.187c2.969-6.068 1.807-13.347-2.905-18.188-5.562-5.715-14.346-6.366-20.662-1.911.793.56 1.552 1.19 2.253 1.911 4.711 4.841 5.874 12.121 2.905 18.188l-2.538 5.187c-3.54 7.235-4.837 15.364-3.725 23.342l12.615 93.097c1.751 12.921-2.814 25.897-12.268 34.877l-7.374 7.004c-3.423 3.251-7.381 5.522-11.551 6.856 10.059 3.204 21.601 1.084 29.96-6.856l7.374-7.004c9.455-8.981 14.019-21.956 12.268-34.877z" fill="#a55e4d"/></g></g></g></svg>