<svg id="Capa_1" enable-background="new 0 0 512 512" height="512" viewBox="0 0 512 512" width="512" xmlns="http://www.w3.org/2000/svg"><g><path d="m446.057 116.334c-7.171 0-378.036 0-380.115 0-19.799 0-35.907 16.108-35.907 35.907v269.335c0 17.511 12.977 33.718 30.246 36.485h391.437c17.269-2.767 30.246-18.973 30.246-36.485 0-8.961 0-261.229 0-269.335.001-19.798-16.107-35.907-35.907-35.907z" fill="#695d67"/><path d="m72.015 421.577v-269.335c0-19.799 16.108-35.907 35.907-35.907-25.405 0-41.55 0-41.98 0-19.799 0-35.907 16.108-35.907 35.907v269.335c0 17.511 12.977 33.718 30.246 36.485h41.98c-17.269-2.768-30.246-18.974-30.246-36.485z" fill="#544e55"/><path d="m506.004 457.031h-500.008c-3.311 0-5.995 2.71-5.995 6.054v20.823c0 15.45 12.519 28.092 27.82 28.092h456.358c15.301 0 27.82-12.642 27.82-28.092v-20.823c0-3.343-2.684-6.054-5.995-6.054z" fill="#dfebfa"/><path d="m506.004 457.031h-500.008c-3.311 0-5.995 2.71-5.995 6.054v20.823c0 15.45 12.519 28.092 27.82 28.092h456.358c15.301 0 27.82-12.642 27.82-28.092v-20.823c0-3.343-2.684-6.054-5.995-6.054z" fill="#dfebfa"/><path d="m86.504 483.908v-20.823c0-3.343 2.684-6.054 5.995-6.054h-86.503c-3.311 0-5.995 2.71-5.995 6.054v20.823c0 15.45 12.519 28.092 27.82 28.092h86.503c-15.301 0-27.82-12.642-27.82-28.092z" fill="#b1dbfc"/><path d="m181.32 457.031v13.97c0 6.866 5.563 12.484 12.363 12.484h124.635c6.8 0 12.363-5.618 12.363-12.484v-13.97" fill="#b1dbfc"/><path d="m248.796 471.002v-13.97h-67.476v13.97c0 6.866 5.563 12.484 12.363 12.484h67.476c-6.8 0-12.363-5.618-12.363-12.484z" fill="#8bcaff"/><path d="m443.265 148.35c-14.269 0-359.411 0-374.53 0-3.558 0-6.442 2.884-6.442 6.443v263.829c0 3.558 2.884 6.443 6.442 6.443h374.53c3.557 0 6.442-2.885 6.442-6.443 0-13.075 0-253.398 0-263.829 0-3.558-2.884-6.443-6.442-6.443z" fill="#ffe181"/><path d="m104.272 418.622c0-8.301 0-247.082 0-263.829 0-3.558 2.884-6.443 6.442-6.443-23.359 0-39.015 0-41.98 0-3.558 0-6.442 2.884-6.442 6.443v263.829c0 3.558 2.884 6.443 6.442 6.443h41.98c-3.557 0-6.442-2.884-6.442-6.443z" fill="#fec458"/><path d="m383.085 0h-207.716l-59.978 59.978v309.562c0 7.339 5.949 13.288 13.288 13.288h254.641c7.339 0 13.288-5.949 13.288-13.288v-356.017c.001-7.468-6.054-13.523-13.523-13.523z" fill="#dfebfa"/><path d="m140.63 368.491v-333.752l-25.239 25.239v309.562c0 7.339 5.949 13.288 13.288 13.288h21.821c-5.768-2.213-9.87-7.789-9.87-14.337z" fill="#b1dbfc"/><path d="m115.391 59.978h46.454c7.469 0 13.523-6.055 13.523-13.523v-46.455z" fill="#b1dbfc"/><path d="m175.369 0-59.978 59.978h24.99l34.988-34.988z" fill="#8bcaff"/><path d="m239.625 148.76c0 .295-.013.588-.022.881h27.111c.005-.294.022-.585.022-.881 0-29.946-24.276-54.222-54.222-54.222v27.111c14.973 0 27.111 12.138 27.111 27.111z" fill="#ff656f"/><path d="m231.191 168.4c-4.861 4.627-11.435 7.471-18.677 7.471-14.973 0-27.111-12.138-27.111-27.111s12.138-27.111 27.111-27.111v-27.111c-29.946 0-54.222 24.276-54.222 54.222s24.276 54.222 54.222 54.222c14.708 0 28.04-5.862 37.804-15.37z" fill="#ffe181"/><path d="m231.191 168.4 19.127 19.212c9.92-9.66 16.158-23.085 16.396-37.971h-27.111c-.236 7.378-3.422 14.008-8.412 18.759z" fill="#5cb3f8"/><g><g><path d="m347.528 157.367h-49.448c-4.267 0-7.726-3.459-7.726-7.726 0-4.268 3.459-7.726 7.726-7.726h49.448c4.267 0 7.726 3.459 7.726 7.726s-3.459 7.726-7.726 7.726z" fill="#b1dbfc"/></g></g><g><g><path d="m347.528 189.126h-49.448c-4.267 0-7.726-3.459-7.726-7.726 0-4.268 3.459-7.726 7.726-7.726h49.448c4.267 0 7.726 3.459 7.726 7.726 0 4.268-3.459 7.726-7.726 7.726z" fill="#b1dbfc"/></g></g><g><g><path d="m347.528 125.608h-49.448c-4.267 0-7.726-3.459-7.726-7.726s3.459-7.726 7.726-7.726h49.448c4.267 0 7.726 3.459 7.726 7.726s-3.459 7.726-7.726 7.726z" fill="#b1dbfc"/></g></g><g><g><path d="m347.528 287.894h-49.448c-4.267 0-7.726-3.459-7.726-7.726 0-4.268 3.459-7.726 7.726-7.726h49.448c4.267 0 7.726 3.459 7.726 7.726s-3.459 7.726-7.726 7.726z" fill="#b1dbfc"/></g></g><g><g><path d="m347.528 319.653h-49.448c-4.267 0-7.726-3.459-7.726-7.726 0-4.268 3.459-7.726 7.726-7.726h49.448c4.267 0 7.726 3.459 7.726 7.726 0 4.268-3.459 7.726-7.726 7.726z" fill="#b1dbfc"/></g></g><g><g><path d="m347.528 256.135h-49.448c-4.267 0-7.726-3.459-7.726-7.726s3.459-7.726 7.726-7.726h49.448c4.267 0 7.726 3.459 7.726 7.726s-3.459 7.726-7.726 7.726z" fill="#b1dbfc"/></g></g><path d="m225.008 258.178h-21.134c-2.635 0-4.77 2.136-4.77 4.77v59.027h30.675v-59.027c-.001-2.634-2.136-4.77-4.771-4.77z" fill="#ffe181"/><path d="m194.333 277.282h-21.134c-2.635 0-4.77 2.136-4.77 4.77v36.183c0 2.066 1.675 3.74 3.74 3.74h26.935v-39.923c0-2.635-2.136-4.77-4.771-4.77z" fill="#5cb3f8"/><path d="m255.633 238.36h-21.134c-2.635 0-4.77 2.136-4.77 4.77v78.845h26.935c2.066 0 3.74-1.675 3.74-3.74v-75.105c0-2.635-2.136-4.77-4.771-4.77z" fill="#ff656f"/></g></svg>