<svg id="Capa_1" enable-background="new 0 0 497 497" height="512" viewBox="0 0 497 497" width="512" xmlns="http://www.w3.org/2000/svg"><g><path d="m497 119.15v298.72c0 8.207-6.653 14.86-14.86 14.86h-467.28c-8.207 0-14.86-6.653-14.86-14.86v-298.72c0-8.207 6.653-14.86 14.86-14.86h467.28c8.207 0 14.86 6.653 14.86 14.86z" fill="#d7d0d6"/><path d="m463.33 119.15v298.72c0 8.207-6.653 14.86-14.86 14.86h-433.61c-8.207 0-14.86-6.653-14.86-14.86v-298.72c0-8.207 6.653-14.86 14.86-14.86h433.61c8.207 0 14.86 6.653 14.86 14.86z" fill="#e5e1e5"/><path d="m164.96 207.22c0 35.89-29.1 64.99-65 64.99-5.04 0-9.94-.57-14.65-1.67-.01.01-.02 0-.02 0-28.83-6.65-50.32-32.48-50.32-63.32 0-30.85 21.49-56.68 50.32-63.34h.02c4.71-1.09 9.61-1.66 14.65-1.66 35.9 0 65 29.1 65 65z" fill="#465a61"/><path d="m135.62 207.22c0 30.84-21.49 56.67-50.31 63.32-.01.01-.02 0-.02 0-28.83-6.65-50.32-32.48-50.32-63.32 0-30.85 21.49-56.68 50.32-63.34h.02c28.82 6.66 50.31 32.49 50.31 63.34z" fill="#596c76"/><circle cx="99.961" cy="207.218" fill="#7a8c98" r="18.539"/><path d="m462.03 207.22c0 35.89-29.1 64.99-64.99 64.99-5.04 0-9.95-.57-14.66-1.67-28.84-6.64-50.34-32.47-50.34-63.32 0-30.86 21.5-56.69 50.34-63.34 4.71-1.09 9.62-1.66 14.66-1.66 35.89 0 64.99 29.1 64.99 65z" fill="#465a61"/><path d="m432.7 207.22c0 30.85-21.5 56.68-50.32 63.32-28.84-6.64-50.34-32.47-50.34-63.32 0-30.86 21.5-56.69 50.34-63.34 28.82 6.65 50.32 32.48 50.32 63.34z" fill="#596c76"/><path d="m292.17 148.533v65.713c0 3.487-2.827 6.313-6.313 6.313h-74.713c-3.487 0-6.313-2.827-6.313-6.313v-65.713c0-3.487 2.827-6.313 6.313-6.313h74.713c3.486 0 6.313 2.827 6.313 6.313z" fill="#01998d"/><path d="m261.5 148.533v65.713c0 3.487-2.827 6.313-6.313 6.313h-44.043c-3.487 0-6.313-2.827-6.313-6.313v-65.713c0-3.487 2.827-6.313 6.313-6.313h44.043c3.486 0 6.313 2.827 6.313 6.313z" fill="#0ab69f"/><path d="m292.17 254.373v12.703c0 3.487-2.827 6.313-6.313 6.313h-74.713c-3.487 0-6.313-2.827-6.313-6.313v-12.703c0-3.487 2.827-6.313 6.313-6.313h74.713c3.486 0 6.313 2.827 6.313 6.313z" fill="#596c76"/><path d="m261.5 254.373v12.703c0 3.487-2.827 6.313-6.313 6.313h-44.043c-3.487 0-6.313-2.827-6.313-6.313v-12.703c0-3.487 2.827-6.313 6.313-6.313h44.043c3.486 0 6.313 2.827 6.313 6.313z" fill="#7a8c98"/><path d="m59.974 338.059h-20.015c-2.757 0-4.992-2.235-4.992-4.992v-20.015c0-2.757 2.235-4.992 4.992-4.992h20.015c2.757 0 4.992 2.235 4.992 4.992v20.015c0 2.757-2.235 4.992-4.992 4.992z" fill="#e41f2d"/><path d="m119.174 338.059h-20.015c-2.757 0-4.992-2.235-4.992-4.992v-20.015c0-2.757 2.235-4.992 4.992-4.992h20.015c2.757 0 4.992 2.235 4.992 4.992v20.015c.001 2.757-2.234 4.992-4.992 4.992z" fill="#3c87d0"/><path d="m178.375 338.059h-20.015c-2.757 0-4.992-2.235-4.992-4.992v-20.015c0-2.757 2.235-4.992 4.992-4.992h20.015c2.757 0 4.992 2.235 4.992 4.992v20.015c0 2.757-2.235 4.992-4.992 4.992z" fill="#fedba6"/><path d="m59.974 396.214h-20.015c-2.757 0-4.992-2.235-4.992-4.992v-20.015c0-2.757 2.235-4.992 4.992-4.992h20.015c2.757 0 4.992 2.235 4.992 4.992v20.015c0 2.757-2.235 4.992-4.992 4.992z" fill="#3c87d0"/><path d="m119.174 396.214h-20.015c-2.757 0-4.992-2.235-4.992-4.992v-20.015c0-2.757 2.235-4.992 4.992-4.992h20.015c2.757 0 4.992 2.235 4.992 4.992v20.015c.001 2.757-2.234 4.992-4.992 4.992z" fill="#fedba6"/><path d="m178.375 396.214h-20.015c-2.757 0-4.992-2.235-4.992-4.992v-20.015c0-2.757 2.235-4.992 4.992-4.992h20.015c2.757 0 4.992 2.235 4.992 4.992v20.015c0 2.757-2.235 4.992-4.992 4.992z" fill="#e41f2d"/><path d="m462.03 316.01v72.25c0 4.39-3.56 7.95-7.95 7.95h-20.41l-6.289-4-8.711 4h-20.1l-7.5-4-7.5 4h-20.09l-7.5-4-7.5 4h-20.09l-7.5-4-7.5 4h-20.1l-7.5-4-7.5 4h-20.09l-7.5-4-7.5 4h-20.42c-4.39 0-7.95-3.56-7.95-7.95v-72.25c0-4.39 3.56-7.95 7.95-7.95h231.3c4.39 0 7.95 3.56 7.95 7.95z" fill="#0078c8"/><path d="m426.17 316.008v72.253c0 4.39-3.559 7.948-7.948 7.948h-19.652l-7.5-4-7.5 4h-20.09l-7.5-4-7.5 4h-20.09l-7.5-4-7.5 4h-20.1l-7.5-4-7.5 4h-20.09l-7.5-4-7.5 4h-20.422c-4.39 0-7.948-3.559-7.948-7.948v-72.253c0-4.39 3.559-7.948 7.948-7.948h195.443c4.39 0 7.949 3.559 7.949 7.948z" fill="#3c87d0"/><circle cx="397.039" cy="207.218" fill="#7a8c98" r="18.539"/><path d="m408.655 64.27h-23.233c-4.637 0-8.395 3.759-8.395 8.395v31.628h40.024v-31.628c0-4.636-3.759-8.395-8.396-8.395z" fill="#465a61"/><g><path d="m99.961 279.712c-39.974 0-72.495-32.521-72.495-72.494s32.521-72.495 72.495-72.495 72.495 32.521 72.495 72.495-32.521 72.494-72.495 72.494zm0-129.989c-31.703 0-57.495 25.792-57.495 57.495 0 31.702 25.792 57.494 57.495 57.494s57.495-25.792 57.495-57.494c0-31.703-25.792-57.495-57.495-57.495z" fill="#7a8c98"/></g><g><path d="m397.039 279.712c-39.974 0-72.495-32.521-72.495-72.494s32.521-72.495 72.495-72.495 72.495 32.521 72.495 72.495-32.521 72.494-72.495 72.494zm0-129.989c-31.703 0-57.495 25.792-57.495 57.495 0 31.702 25.792 57.494 57.495 57.494s57.495-25.792 57.495-57.494c0-31.703-25.792-57.495-57.495-57.495z" fill="#7a8c98"/></g><g><path d="m258.2 374.18v22.03h-15v-22.03c0-4.15 3.36-7.5 7.5-7.5s7.5 3.35 7.5 7.5z" fill="#fd4755"/></g><g><path d="m293.29 338.06v58.15h-15v-58.15c0-4.14 3.36-7.5 7.5-7.5 4.15 0 7.5 3.36 7.5 7.5z" fill="#fd4755"/></g><g><path d="m328.39 360.84v35.37h-15v-35.37c0-4.14 3.35-7.5 7.5-7.5 4.14 0 7.5 3.36 7.5 7.5z" fill="#fd4755"/></g><g><path d="m363.48 352.14v44.07h-15v-44.07c0-4.15 3.36-7.5 7.5-7.5s7.5 3.35 7.5 7.5z" fill="#fd4755"/></g><g><path d="m398.57 374.18v22.03h-15v-22.03c0-4.15 3.36-7.5 7.5-7.5 4.15 0 7.5 3.35 7.5 7.5z" fill="#fd4755"/></g><g><path d="m433.67 338.06v58.15h-15v-58.15c0-4.14 3.35-7.5 7.5-7.5 4.14 0 7.5 3.36 7.5 7.5z" fill="#fd4755"/></g></g></svg>