<svg id="Capa_1" enable-background="new 0 0 497 497" height="512" viewBox="0 0 497 497" width="512" xmlns="http://www.w3.org/2000/svg"><g><path d="m468.122 353.547-439.244 47.975v-178.807l439.244 47.975z" fill="#01998d"/><path d="m14.439 429.896c-7.689-.298-14.439-6.5-14.439-14.439v-206.678c0-18.451 28.878-18.736 28.878 0v206.678c0 7.975-6.464 14.439-14.439 14.439z" fill="#0ab69f"/><path d="m482.561 392.064c-7.689-.299-14.439-6.501-14.439-14.439v-131.013c0-18.871 28.878-18.871 28.878 0v131.012c0 7.975-6.465 14.44-14.439 14.44z" fill="#0ab69f"/><path d="m116.03 201.152v221.928c0 3.762-3.049 6.811-6.811 6.811h-40.038c-3.762 0-6.811-3.049-6.811-6.811v-221.928c0-3.762 3.049-6.811 6.811-6.811h40.038c3.762 0 6.811 3.05 6.811 6.811z" fill="#d7d0d6"/><path d="m93.03 201.152v221.928c0 3.762-3.049 6.811-6.811 6.811h-17.038c-3.762 0-6.811-3.049-6.811-6.811v-221.928c0-3.762 3.049-6.811 6.811-6.811h17.038c3.762 0 6.811 3.05 6.811 6.811z" fill="#e5e1e5"/><path d="m169.7 210.612v203.018c0 3.762-3.049 6.811-6.811 6.811h-46.859v-216.64h46.859c3.762 0 6.811 3.05 6.811 6.811z" fill="#d7d0d6"/><path d="m146.7 210.612v203.018c0 3.762-3.049 6.811-6.811 6.811h-23.859v-216.64h23.859c3.762 0 6.811 3.05 6.811 6.811z" fill="#e5e1e5"/><path d="m223.37 220.072v184.098c0 3.762-3.049 6.811-6.811 6.811h-46.859v-197.72h46.859c3.762 0 6.811 3.05 6.811 6.811z" fill="#d7d0d6"/><path d="m200.37 220.072v184.098c0 3.762-3.049 6.811-6.811 6.811h-23.859v-197.72h23.859c3.762 0 6.811 3.05 6.811 6.811z" fill="#e5e1e5"/><path d="m277.03 229.522v165.188c0 3.762-3.049 6.811-6.811 6.811h-46.849v-178.81h46.849c3.762 0 6.811 3.05 6.811 6.811z" fill="#d7d0d6"/><path d="m254.03 229.522v165.188c0 3.762-3.049 6.811-6.811 6.811h-23.849v-178.81h23.849c3.762 0 6.811 3.05 6.811 6.811z" fill="#e5e1e5"/><path d="m330.7 238.982v146.268c0 3.762-3.049 6.811-6.811 6.811h-46.859v-159.89h46.859c3.762 0 6.811 3.05 6.811 6.811z" fill="#d7d0d6"/><path d="m307.7 238.982v146.268c0 3.762-3.049 6.811-6.811 6.811h-23.859v-159.89h23.859c3.762 0 6.811 3.05 6.811 6.811z" fill="#e5e1e5"/><path d="m384.36 248.442v127.348c0 3.762-3.049 6.811-6.811 6.811h-46.849v-140.97h46.849c3.761 0 6.811 3.05 6.811 6.811z" fill="#d7d0d6"/><path d="m361.36 248.442v127.348c0 3.762-3.049 6.811-6.811 6.811h-23.849v-140.97h23.849c3.761 0 6.811 3.05 6.811 6.811z" fill="#e5e1e5"/><path d="m438.03 257.902v108.438c0 3.762-3.049 6.811-6.811 6.811h-46.859v-122.06h46.859c3.762 0 6.811 3.05 6.811 6.811z" fill="#d7d0d6"/><path d="m415.03 257.902v108.438c0 3.762-3.049 6.811-6.811 6.811h-23.859v-122.06h23.859c3.762 0 6.811 3.05 6.811 6.811z" fill="#e5e1e5"/><g><path d="m289.725 148.152c-.643 0-1.296-.083-1.946-.258l-192.22-51.504c-4.001-1.071-6.375-5.185-5.303-9.186 1.071-4.001 5.184-6.379 9.186-5.303l192.22 51.505c4.001 1.071 6.375 5.185 5.303 9.186-.899 3.35-3.929 5.56-7.24 5.56z" fill="#fd4755"/></g><circle cx="309.038" cy="145.827" fill="#fedba6" r="20"/><g><path d="m141.495 151.292c-3.312 0-6.342-2.21-7.239-5.561-1.072-4.001 1.302-8.114 5.303-9.186l192.22-51.505c4.002-1.076 8.114 1.302 9.186 5.303s-1.302 8.114-5.303 9.186l-192.22 51.505c-.651.175-1.304.258-1.947.258z" fill="#e41f2d"/></g><circle cx="353.038" cy="87.109" fill="#fedba6" r="20"/></g></svg>