<svg id="Capa_1" enable-background="new 0 0 512 512" height="512" viewBox="0 0 512 512" width="512" xmlns="http://www.w3.org/2000/svg"><g><g><path d="m416.148 387.759c-2.714 0-5.254-.224-7.582-.581-13.536-2.077-22.738-9.101-23.123-9.399-3.38-2.616-4-7.476-1.385-10.857 2.607-3.369 7.446-3.995 10.826-1.409.189.141 6.959 5.129 16.611 6.45 12.596 1.723 24.456-3.459 35.253-15.402 2.866-3.171 7.76-3.418 10.932-.551 3.171 2.867 3.417 7.761.551 10.931-14.896 16.474-30.148 20.818-42.083 20.818z" fill="#dd5790"/></g><g><path d="m473.334 345.294c-2.494 0-4.942-1.203-6.435-3.431-2.38-3.551-1.432-8.358 2.119-10.738 16.924-11.345 21.462-34.343 10.118-51.266l-28.825-43c-16.097-24.013-9.657-56.645 14.356-72.743 16.924-11.344 21.462-34.342 10.118-51.265l-3.089-4.609c-2.38-3.551-1.431-8.358 2.12-10.738 3.551-2.381 8.358-1.431 10.738 2.12l3.089 4.609c16.097 24.013 9.657 56.645-14.356 72.742-16.924 11.345-21.462 34.343-10.118 51.266l28.825 43c16.097 24.013 9.657 56.645-14.356 72.743-1.324.885-2.822 1.31-4.304 1.31z" fill="#dd5790"/></g><g><path d="m23.807 390.946-20.785-20.784c-4.03-4.03-4.03-10.564 0-14.594l244.751-244.751c2.992-2.992 6.282-5.669 9.82-7.99l68.444-44.899c6.552-4.298 14.3 3.45 10.002 10.002l-44.899 68.444c-2.321 3.538-4.998 6.828-7.99 9.82l-244.75 244.752c-4.03 4.03-10.563 4.03-14.593 0z" fill="#be694f"/></g><g><path d="m326.038 57.929-4.309 2.827-30.587 46.628c-2.321 3.538-4.998 6.828-7.99 9.82l-244.752 244.751c-4.03 4.03-10.564 4.03-14.594 0l-13.585-13.585-7.199 7.199c-4.03 4.03-4.03 10.564 0 14.594l20.784 20.784c4.03 4.03 10.564 4.03 14.594 0l244.751-244.751c2.992-2.992 5.669-6.282 7.99-9.82l44.899-68.444c4.298-6.553-3.45-14.301-10.002-10.003z" fill="#aa593d"/></g><g><path d="m488.193 390.946 20.784-20.784c4.03-4.03 4.03-10.564 0-14.594l-244.75-244.75c-2.992-2.992-6.282-5.669-9.82-7.99l-68.444-44.899c-6.552-4.298-14.3 3.45-10.002 10.002l44.899 68.444c2.321 3.538 4.998 6.828 7.99 9.82l244.75 244.751c4.029 4.03 10.563 4.03 14.593 0z" fill="#be694f"/></g><g><path d="m508.978 355.568-244.751-244.751c-2.992-2.992-6.282-5.669-9.82-7.99l-68.444-44.899c-6.552-4.298-14.3 3.45-10.002 10.002l1.009 1.538 49.324 32.356c3.538 2.321 6.828 4.998 9.82 7.99l244.751 244.751c4.03 4.03 4.03 10.564 0 14.594l-14.526 14.526 7.261 7.261c4.03 4.03 10.564 4.03 14.594 0l20.784-20.784c4.03-4.03 4.03-10.564 0-14.594z" fill="#aa593d"/></g><g><circle cx="429.219" cy="101.708" fill="#dd5790" r="59.069"/></g><g><path d="m459.784 51.154c5.403 8.917 8.515 19.377 8.515 30.565 0 32.623-26.446 59.069-59.069 59.069-11.188 0-21.648-3.112-30.565-8.515 10.352 17.085 29.119 28.503 50.554 28.503 32.623 0 59.069-26.446 59.069-59.069-.001-21.434-11.419-40.201-28.504-50.553z" fill="#da387d"/></g><g><g><path d="m159.902 368.485c-1.981 0-3.961-.756-5.473-2.267l-85.267-85.267c-3.023-3.022-3.023-7.923 0-10.945 3.022-3.022 7.923-3.022 10.945 0l85.267 85.267c3.023 3.022 3.023 7.923 0 10.945-1.51 1.512-3.491 2.267-5.472 2.267z" fill="#dd5790"/></g><g><path d="m183.495 344.893c-1.981 0-3.961-.755-5.473-2.267l-85.267-85.267c-3.023-3.022-3.023-7.923 0-10.945 3.023-3.023 7.923-3.023 10.945 0l85.267 85.267c3.023 3.022 3.023 7.923 0 10.945-1.51 1.511-3.491 2.267-5.472 2.267z" fill="#dd5790"/></g><g><path d="m207.088 321.3c-1.981 0-3.961-.755-5.473-2.267l-85.267-85.267c-3.023-3.022-3.023-7.923 0-10.945 3.022-3.022 7.923-3.023 10.945 0l85.267 85.267c3.023 3.022 3.023 7.923 0 10.945-1.51 1.511-3.492 2.267-5.472 2.267z" fill="#dd5790"/></g><g><path d="m230.681 297.707c-1.981 0-3.961-.756-5.473-2.267l-85.267-85.267c-3.023-3.022-3.023-7.923 0-10.945 3.022-3.022 7.923-3.022 10.945 0l85.267 85.267c3.023 3.022 3.023 7.923 0 10.945-1.51 1.511-3.491 2.267-5.472 2.267z" fill="#dd5790"/></g><g><path d="m254.274 274.114c-1.981 0-3.961-.756-5.473-2.267l-85.267-85.267c-3.023-3.022-3.023-7.923 0-10.945 3.022-3.022 7.923-3.022 10.945 0l85.267 85.267c3.023 3.022 3.023 7.923 0 10.945-1.51 1.511-3.491 2.267-5.472 2.267z" fill="#dd5790"/></g></g><g><g><path d="m352.098 368.485c-1.981 0-3.961-.755-5.473-2.267-3.023-3.022-3.023-7.923 0-10.945l85.267-85.267c3.022-3.023 7.923-3.023 10.945 0 3.023 3.022 3.023 7.923 0 10.945l-85.267 85.267c-1.511 1.512-3.492 2.267-5.472 2.267z" fill="#da387d"/></g><g><path d="m328.505 344.893c-1.981 0-3.961-.756-5.473-2.267-3.023-3.022-3.023-7.923 0-10.945l85.267-85.267c3.022-3.022 7.923-3.022 10.945 0 3.023 3.022 3.023 7.923 0 10.945l-85.267 85.267c-1.511 1.511-3.492 2.267-5.472 2.267z" fill="#da387d"/></g><g><path d="m304.912 321.3c-1.981 0-3.961-.756-5.473-2.267-3.023-3.022-3.023-7.923 0-10.945l85.267-85.267c3.022-3.022 7.923-3.022 10.945 0 3.023 3.022 3.023 7.923 0 10.945l-85.267 85.267c-1.511 1.511-3.491 2.267-5.472 2.267z" fill="#da387d"/></g><g><path d="m281.319 297.707c-1.981 0-3.961-.756-5.473-2.267-3.023-3.022-3.023-7.923 0-10.945l85.267-85.267c3.022-3.022 7.923-3.022 10.945 0 3.023 3.022 3.023 7.923 0 10.945l-85.267 85.267c-1.511 1.511-3.492 2.267-5.472 2.267z" fill="#da387d"/></g><g><path d="m257.726 274.114c-1.981 0-3.961-.756-5.473-2.267-3.023-3.022-3.023-7.923 0-10.945l85.267-85.267c3.022-3.022 7.923-3.022 10.945 0 3.023 3.022 3.023 7.923 0 10.945l-85.267 85.267c-1.511 1.511-3.492 2.267-5.472 2.267z" fill="#da387d"/></g></g><g><g><path d="m184.027 469.193c29.439 1.652 55.516-13.335 69.707-36.416 1.031-1.677 3.475-1.676 4.505.001 14.176 23.092 40.246 38.096 69.687 36.461 38.062-2.114 69.238-32.696 72.019-70.715 2.326-31.794-14.771-59.853-40.646-73.528-19.657-10.389-38.062-22.992-54.695-37.746l-3.88-3.442c-14.377-12.753-27.375-26.98-38.781-42.449l-3.736-5.066c-1.071-1.452-3.241-1.453-4.313-.001l-3.739 5.064c-11.415 15.46-24.422 29.679-38.807 42.422l-3.884 3.441c-16.642 14.742-35.054 27.333-54.717 37.708-25.885 13.658-43.002 41.708-40.696 73.505 2.758 38.022 33.916 68.625 71.976 70.761z" fill="#dd5790"/></g></g><g><g><path d="m359.299 324.996c-19.657-10.389-38.062-22.992-54.695-37.746l-3.88-3.442c-14.377-12.753-27.375-26.98-38.781-42.449l-3.736-5.066c-1.071-1.452-3.241-1.453-4.313-.001l-3.739 5.064c-4.918 6.661-10.149 13.075-15.641 19.257 7.254 8.176 14.977 15.933 23.165 23.195l3.88 3.442c16.633 14.754 35.038 27.357 54.695 37.746 25.875 13.675 42.972 41.734 40.646 73.528-2.35 32.125-24.975 58.938-54.896 67.755 8.159 2.389 16.88 3.462 25.921 2.96 38.062-2.113 69.238-32.696 72.019-70.715 2.327-31.794-14.77-59.853-40.645-73.528z" fill="#da387d"/></g></g><g fill="#da387d"><path d="m217.925 358.594c-3.022-3.022-7.923-3.022-10.945 0l-6.085 6.085-6.085-6.085c-3.022-3.022-7.923-3.022-10.945 0-3.023 3.022-3.023 7.923 0 10.945l6.085 6.085-6.085 6.085c-3.023 3.022-3.023 7.923 0 10.945 1.511 1.511 3.492 2.267 5.473 2.267s3.961-.756 5.473-2.267l6.085-6.085 6.085 6.085c1.511 1.511 3.492 2.267 5.473 2.267s3.961-.756 5.473-2.267c3.023-3.022 3.023-7.923 0-10.945l-6.085-6.085 6.085-6.085c3.021-3.022 3.021-7.922-.002-10.945z"/><path d="m273.03 358.594c-3.022-3.023-7.923-3.022-10.945 0l-6.085 6.086-6.085-6.085c-3.022-3.022-7.923-3.022-10.945 0-3.023 3.022-3.023 7.923 0 10.945l6.085 6.085-6.085 6.085c-3.023 3.022-3.023 7.923 0 10.945 1.511 1.512 3.492 2.267 5.473 2.267 1.98 0 3.961-.756 5.473-2.267l6.084-6.085 6.085 6.085c1.511 1.511 3.492 2.267 5.473 2.267s3.961-.756 5.473-2.267c3.023-3.022 3.023-7.923 0-10.945l-6.085-6.085 6.085-6.085c3.022-3.023 3.022-7.923-.001-10.946z"/><path d="m322.05 375.625 6.085-6.085c3.023-3.022 3.023-7.923 0-10.945-3.022-3.022-7.923-3.022-10.945 0l-6.085 6.085-6.085-6.085c-3.022-3.022-7.923-3.022-10.945 0-3.023 3.022-3.023 7.923 0 10.945l6.085 6.085-6.085 6.085c-3.023 3.022-3.023 7.923 0 10.945 1.511 1.511 3.492 2.267 5.473 2.267s3.961-.756 5.473-2.267l6.085-6.085 6.085 6.085c1.511 1.511 3.492 2.267 5.473 2.267s3.961-.756 5.473-2.267c3.023-3.022 3.023-7.923 0-10.945z"/></g><g><path d="m488.054 96.612c-.622-7.278-2.549-14.183-5.571-20.467-3.108 10.299-12.679 17.823-23.978 17.823-13.809 0-25.043-11.234-25.043-25.043 0-10.301 6.253-19.167 15.161-23.008-6.08-2.114-12.604-3.278-19.404-3.278-.52 0-1.034.026-1.551.039-6.032 7.077-9.685 16.241-9.685 26.247 0 22.344 18.178 40.522 40.522 40.522 11.645 0 22.151-4.944 29.549-12.835z" fill="#da387d"/></g><g><path d="m431.051 129.001c1.814-3.595.569-7.983-2.87-10.076-16.881-10.272-28.183-28.836-28.183-50 0-7.214 1.321-14.123 3.719-20.509-7.255 3.478-13.679 8.403-18.924 14.387-.166 2.021-.273 4.058-.273 6.121 0 26.754 14.282 50.224 35.616 63.217 3.847 2.345 8.884.884 10.915-3.14z" fill="#da387d"/></g></g></svg>