<svg id="Capa_1" enable-background="new 0 0 511.999 511.999" height="512" viewBox="0 0 511.999 511.999" width="512" xmlns="http://www.w3.org/2000/svg"><g><path d="m363.778 0h-215.558c-19.396 0-35.12 15.724-35.12 35.12v441.758c0 19.397 15.724 35.121 35.121 35.121h215.558c19.397 0 35.121-15.724 35.121-35.121v-441.758c-.001-19.396-15.725-35.12-35.122-35.12z" fill="#695d67"/><path d="m146.323 476.878v-441.758c0-19.396 15.724-35.12 35.121-35.12h-33.224c-19.396 0-35.12 15.724-35.12 35.12v441.758c0 19.397 15.724 35.121 35.121 35.121h33.223c-19.397 0-35.121-15.724-35.121-35.121z" fill="#544e55"/><path d="m145.101 91.293v338.513c0 1.72 1.4 3.12 3.12 3.12h215.557c1.72 0 3.12-1.4 3.12-3.12v-338.513z" fill="#dfebfa"/><path d="m185.282 429.806v-338.513h-40.181v338.513c0 1.72 1.4 3.12 3.12 3.12h40.181c-1.72-.001-3.12-1.401-3.12-3.12z" fill="#b1dbfc"/><circle cx="255.999" cy="471.262" fill="#544e55" r="16.035"/><path d="m363.778 53.255h-180.556v40.098h183.676v-36.979c0-1.72-1.4-3.119-3.12-3.119z" fill="#5cb3f8"/><path d="m185.282 53.255h-37.062c-1.72 0-3.12 1.399-3.12 3.119v36.979h40.182z" fill="#ff4756"/><g><path d="m281.867 34.232h-51.735c-4.267 0-7.726-3.459-7.726-7.726s3.459-7.726 7.726-7.726h51.735c4.267 0 7.726 3.459 7.726 7.726s-3.459 7.726-7.726 7.726z" fill="#544e55"/></g><g><path d="m194.567 200.261-15.764-15.764c-5.66-5.66-5.66-14.837 0-20.498s14.838-5.661 20.498 0l5.516 5.515 13.457-13.457c5.66-5.661 14.838-5.661 20.498 0 5.66 5.66 5.66 14.837 0 20.498l-23.706 23.706c-5.66 5.661-14.839 5.661-20.499 0z" fill="#43cb8e"/></g><g><path d="m194.567 281.667-15.764-15.764c-5.66-5.66-5.66-14.837 0-20.498s14.838-5.661 20.498 0l5.516 5.515 13.457-13.457c5.66-5.661 14.838-5.661 20.498 0 5.66 5.66 5.66 14.837 0 20.498l-23.706 23.706c-5.66 5.66-14.839 5.661-20.499 0z" fill="#43cb8e"/></g><g><path d="m194.567 363.072-15.764-15.764c-5.66-5.66-5.66-14.837 0-20.498s14.838-5.661 20.498 0l5.516 5.515 13.457-13.457c5.66-5.661 14.838-5.661 20.498 0 5.66 5.66 5.66 14.837 0 20.498l-23.706 23.706c-5.66 5.661-14.839 5.661-20.499 0z" fill="#43cb8e"/></g><g><path d="m336.055 170.639h-62.647c-4.267 0-7.726-3.459-7.726-7.726s3.459-7.726 7.726-7.726h62.647c4.267 0 7.726 3.459 7.726 7.726s-3.459 7.726-7.726 7.726z" fill="#b1dbfc"/></g><g><path d="m336.055 201.132h-62.647c-4.267 0-7.726-3.459-7.726-7.726s3.459-7.726 7.726-7.726h62.647c4.267 0 7.726 3.459 7.726 7.726s-3.459 7.726-7.726 7.726z" fill="#b1dbfc"/></g><g><path d="m336.055 252.044h-62.647c-4.267 0-7.726-3.459-7.726-7.726s3.459-7.726 7.726-7.726h62.647c4.267 0 7.726 3.459 7.726 7.726s-3.459 7.726-7.726 7.726z" fill="#b1dbfc"/></g><g><path d="m336.055 282.538h-62.647c-4.267 0-7.726-3.459-7.726-7.726s3.459-7.726 7.726-7.726h62.647c4.267 0 7.726 3.459 7.726 7.726s-3.459 7.726-7.726 7.726z" fill="#b1dbfc"/></g><g><path d="m336.055 333.45h-62.647c-4.267 0-7.726-3.459-7.726-7.726 0-4.268 3.459-7.726 7.726-7.726h62.647c4.267 0 7.726 3.459 7.726 7.726s-3.459 7.726-7.726 7.726z" fill="#b1dbfc"/></g><g><path d="m336.055 363.943h-62.647c-4.267 0-7.726-3.459-7.726-7.726 0-4.268 3.459-7.726 7.726-7.726h62.647c4.267 0 7.726 3.459 7.726 7.726s-3.459 7.726-7.726 7.726z" fill="#b1dbfc"/></g></g></svg>