<svg id="Capa_1" enable-background="new 0 0 497 497" height="512" viewBox="0 0 497 497" width="512" xmlns="http://www.w3.org/2000/svg"><g><path d="m282.185 327.31h-112.801l18.41-96.31h74.541z" fill="#d8aa5e"/><path d="m248.5 327.31h-72.818l18.41-96.31h34.558z" fill="#e9b665"/><path d="m211.77 194.12-29.281 153.267c-1.038 5.433-5.79 9.363-11.321 9.363h-130.565c-5.532 0-10.283-3.93-11.321-9.363l-29.282-153.267 102.663-15.535z" fill="#a44f3e"/><path d="m181.77 194.12-29.281 153.267c-1.038 5.433-5.79 9.363-11.321 9.363h-100.565c-5.532 0-10.283-3.93-11.321-9.363l-29.282-153.267 84.795-10.637z" fill="#bb5d4c"/><path d="m497 192.97-35.41 171.841c-.949 4.605-5.003 7.909-9.705 7.909h-162.199c-4.702 0-8.756-3.304-9.705-7.909l-35.401-171.841 122.555-15.418z" fill="#a44f3e"/><path d="m467 192.97-35.41 171.841c-.949 4.605-5.003 7.909-9.705 7.909h-132.199c-4.702 0-8.756-3.304-9.705-7.909l-35.401-171.841 111.21-17.17z" fill="#bb5d4c"/><g><path d="m80.58 194.12v162.63h-15v-162.63c0-4.14 3.36-7.5 7.5-7.5 4.15 0 7.5 3.36 7.5 7.5z" fill="#fedba6"/></g><g><path d="m146.19 194.12v162.63h-15v-162.63c0-4.14 3.35-7.5 7.5-7.5 4.14 0 7.5 3.36 7.5 7.5z" fill="#fedba6"/></g><g><path d="m336.44 192.97v179.75h-15v-179.75c0-4.14 3.35-7.5 7.5-7.5 4.14 0 7.5 3.36 7.5 7.5z" fill="#fedba6"/></g><g><path d="m420.14 192.97v179.75h-15v-179.75c0-4.14 3.36-7.5 7.5-7.5s7.5 3.36 7.5 7.5z" fill="#fedba6"/></g><path d="m211.77 163.05v31.07h-211.77v-31.07l113.57-6.18z" fill="#d7d0d6"/><path d="m181.77 163.05v31.07h-181.77v-31.07l100.63-7.353z" fill="#e5e1e5"/><path d="m211.77 163.05h-211.77c0-8.58 3.48-16.35 9.1-21.97 5.62-5.63 13.39-9.11 21.97-9.11h149.63c17.16 0 31.07 13.92 31.07 31.08z" fill="#fedba6"/><path d="m181.77 163.05h-181.77c0-8.58 3.48-16.35 9.1-21.97 5.62-5.63 13.39-9.11 21.97-9.11h119.63c17.16 0 31.07 13.92 31.07 31.08z" fill="#ffefd2"/><path d="m497 158.63v34.34h-252.42v-34.34l126.21-11.12z" fill="#d7d0d6"/><path d="m467 158.63v34.34h-222.42v-34.34l108.834-9.429z" fill="#e5e1e5"/><path d="m497 158.63h-252.42c0-9.49 3.84-18.07 10.06-24.29 6.21-6.22 14.8-10.06 24.28-10.06h183.73c18.97 0 34.35 15.38 34.35 34.35z" fill="#fedba6"/><path d="m467 158.63h-222.42c0-9.49 3.84-18.07 10.06-24.29 6.21-6.22 14.8-10.06 24.28-10.06h153.73c18.97 0 34.35 15.38 34.35 34.35z" fill="#ffefd2"/></g></svg>