<svg id="Capa_1" enable-background="new 0 0 512 512" height="512" viewBox="0 0 512 512" width="512" xmlns="http://www.w3.org/2000/svg"><g><g><path d="m412.923 148.125c-58.125-81-101.868-119.128-118.639-103.759-1.534 1.406-3.008 2.895-4.416 4.465-7.736 4.587-17.555 3.623-24.251-2.382l-45.397-40.706c-3.776-3.385-8.668-5.258-13.739-5.258h-80.731v84.497l278.255 161.774c6.7 3.895 11.927 9.7 15.126 16.524 1.94 4.138 51.917-34.155-6.208-115.155z" fill="#eaac9d"/></g><g><path d="m500.04 217.71-81.789-89.243c-9.243-10.086-15.008-22.871-16.446-36.476l-.761-7.198c-2.666-25.221-19.987-46.481-44.149-54.189-23.983-7.65-50.222-.515-67.028 18.227-7.736 4.587-17.555 3.623-24.251-2.382l-45.396-40.706c-3.776-3.385-8.668-5.258-13.739-5.258h-37.354l77.422 70.477c6.696 6.004 16.514 6.969 24.251 2.382 16.806-18.742 43.045-25.877 67.028-18.227 24.162 7.707 41.483 28.968 44.149 54.189l.761 7.198c1.438 13.605 7.202 26.39 16.446 36.476l81.789 89.243c12.558 13.702 15.226 33.189 7.978 49.363l11.421-12.737c15.63-17.431 15.487-43.878-.332-61.139z" fill="#df9380"/></g><g><path d="m45.404 11.626 84.292 406.717c1.573 7.589.74 15.356-2.205 22.293-1.786 4.206 56.09 23.003 73.715-79.511s28.563-157.362 5.924-159.588c-2.07-.204-4.163-.307-6.273-.307-8.58-2.698-14.417-10.651-14.417-19.645v-61.772l-18.675-66.656 18.675-52.671h-131.968c-5.87-.001-10.259 5.392-9.068 11.14z" fill="#ffcbbe"/></g><g><path d="m259.177 238.965c-10.315-22.963-33.145-37.735-58.318-37.735-8.58-2.698-14.417-10.651-14.417-19.645v-181.1h-32.515v181.099c0 8.994 5.837 16.948 14.417 19.645 25.173 0 48.003 14.772 58.318 37.735 10.392 23.134 6.127 50.224-10.871 69.046l-4.851 5.372c-9.169 10.153-14.84 22.98-16.178 36.595l-11.842 120.473c-2.29 23.301-21.884 41.064-45.298 41.064h32.515c23.413 0 43.007-17.763 45.298-41.064l11.842-120.473c1.338-13.615 7.009-26.442 16.178-36.595l4.851-5.372c16.997-18.821 21.263-45.911 10.871-69.045z" fill="#eaac9d"/></g><g><path d="m356.895 30.604c-21.973-7.009-45.835-1.599-62.605 13.769l18.782 61.047c3.385 11.003 9.702 20.877 18.273 28.562l80.041 71.771c11.463 10.279 16.172 26.13 12.18 41l-4.438 16.529c1.94 4.138 3.136 8.649 3.461 13.336l2.984 43.031c.302 4.351 2.287 8.414 5.534 11.325 6.895 6.183 17.497 5.605 23.681-1.29l45.583-50.836c15.631-17.432 15.487-43.878-.332-61.139l-81.789-89.244c-9.243-10.086-15.008-22.871-16.445-36.476l-.761-7.198c-2.665-25.219-19.987-46.48-44.149-54.187z" fill="#dd5790"/></g><g><path d="m500.04 217.71-81.789-89.244c-9.243-10.086-15.008-22.871-16.445-36.476l-.761-7.198c-2.665-25.221-19.987-46.481-44.149-54.189-21.973-7.009-45.834-1.599-62.605 13.769l3.436 11.169c12.724-4.351 26.76-4.681 40.102-.425 24.162 7.707 41.483 28.968 44.149 54.189l.761 7.198c1.438 13.605 7.202 26.39 16.445 36.476l81.789 89.244c12.557 13.702 15.226 33.189 7.978 49.363l11.421-12.737c15.63-17.431 15.487-43.878-.332-61.139z" fill="#da387d"/></g><g><path d="m259.176 238.965c-9.451-21.038-29.408-35.193-52.047-37.419l-32.912 54.739c-5.932 9.866-9.066 21.161-9.066 32.673v107.506c0 15.396-8.658 29.485-22.394 36.44l-15.269 7.731c-1.786 4.206-4.345 8.109-7.618 11.48l-30.046 30.949c-3.038 3.129-4.737 7.32-4.737 11.681 0 9.261 7.508 16.769 16.77 16.769h68.28c23.413 0 43.007-17.763 45.298-41.064l11.842-120.473c1.338-13.615 7.009-26.442 16.178-36.595l4.851-5.372c16.997-18.821 21.263-45.911 10.87-69.045z" fill="#dd5790"/></g><g><path d="m259.177 238.965c-9.451-21.038-29.408-35.193-52.047-37.419l-5.456 9.074c10.779 6.585 19.595 16.342 24.987 28.345 10.392 23.134 6.127 50.224-10.871 69.046l-4.851 5.372c-9.169 10.153-14.84 22.98-16.178 36.595l-11.842 120.473c-2.29 23.301-21.884 41.064-45.298 41.064h32.515c23.413 0 43.007-17.763 45.298-41.064l11.842-120.473c1.338-13.615 7.009-26.442 16.178-36.595l4.851-5.372c16.998-18.822 21.264-45.912 10.872-69.046z" fill="#da387d"/></g><g><path d="m372.872 45.571 35.814 12.543c7.736 2.709 16.049 3.333 24.103 1.81l58.202-11.011c4.021-.761 7.905 1.861 8.703 5.875.776 3.902-1.647 7.726-5.506 8.692l-57.916 14.487c-7.866 1.967-15.083 5.95-20.941 11.555l-23.868 22.838z" fill="#da387d"/></g><g><g><path d="m360.157 460.708c-.916 0-1.849-.165-2.756-.511-3.98-1.523-5.973-5.985-4.45-9.966l26.604-69.526c1.144-2.989 4.012-4.959 7.207-4.959.03 0 .059 0 .089.001 3.23.036 6.096 2.081 7.181 5.124l7.016 19.673c.91 2.555 2.544 4.759 4.724 6.374l2.524 1.87c10.438 7.732 14.485 21.607 9.843 33.742-1.522 3.98-5.982 5.972-9.966 4.45-3.98-1.523-5.973-5.985-4.45-9.966 2.178-5.691.279-12.197-4.615-15.824l-2.524-1.87c-4.648-3.442-8.132-8.143-10.074-13.591l-.001-.004-19.142 50.024c-1.176 3.071-4.104 4.959-7.21 4.959z" fill="#407093"/></g><g><ellipse cx="349.282" cy="457.324" fill="#407093" rx="25.456" ry="17.362" transform="matrix(.988 -.158 .158 .988 -67.657 60.707)"/></g><g><path d="m374.42 453.315c-.338-2.12-1.251-4.047-2.581-5.757-3.072 6.485-11.119 11.924-21.205 13.532-10.776 1.718-20.68-1.453-25.291-7.381-1.157 2.442-1.613 5.032-1.2 7.622 1.51 9.469 13.989 15.351 27.872 13.137 13.884-2.213 23.915-11.684 22.405-21.153z" fill="#2b4d66"/></g></g><g><g><path d="m31.97 374.994c-4.179 0-7.614-3.338-7.712-7.539l-1.723-74.421c-.075-3.23 1.87-6.164 4.873-7.354 3.005-1.19 6.43-.383 8.587 2.022l13.947 15.548c1.811 2.019 4.159 3.44 6.787 4.108l3.043.774c12.591 3.201 21.594 14.508 21.895 27.497.098 4.262-3.276 7.796-7.537 7.894-4.245.048-7.796-3.276-7.894-7.537-.141-6.092-4.363-11.394-10.267-12.896l-3.043-.774c-5.605-1.425-10.61-4.454-14.473-8.76l-.004-.005 1.24 53.546c.098 4.262-3.276 7.796-7.537 7.894-.061.002-.122.003-.182.003z" fill="#407093"/></g><g><ellipse cx="23.55" cy="375.41" fill="#407093" rx="25.456" ry="17.362" transform="matrix(.854 -.52 .52 .854 -191.746 66.971)"/></g><g><path d="m45.295 362.175c-1.116-1.834-2.691-3.271-4.57-4.349-.386 7.165-5.772 15.248-14.496 20.558-9.321 5.673-19.688 6.491-26.202 2.753-.145 2.698.414 5.268 1.778 7.509 4.985 8.191 18.762 8.906 30.772 1.597 12.01-7.311 17.704-19.877 12.718-28.068z" fill="#2b4d66"/></g></g><g><path d="m258.699 260.852 14.571 35.037c3.147 7.568 8.233 14.174 14.744 19.153l47.054 35.982c3.251 2.486 3.892 7.127 1.436 10.401-2.387 3.183-6.852 3.932-10.147 1.703l-49.451-33.449c-6.716-4.543-14.499-7.257-22.583-7.877l-32.938-2.524z" fill="#da387d"/></g></g></svg>