<svg id="Capa_1" enable-background="new 0 0 512 512" height="512" viewBox="0 0 512 512" width="512" xmlns="http://www.w3.org/2000/svg"><g><path d="m61.954 55.347v436.847c0 10.939 8.868 19.806 19.806 19.806h348.478c10.939 0 19.807-8.868 19.807-19.806v-436.847z" fill="#ffe181"/><path d="m95.95 492.194v-436.847h-33.996v436.847c0 10.939 8.868 19.806 19.806 19.806h33.996c-10.938 0-19.806-8.868-19.806-19.806z" fill="#fec458"/><path d="m430.239 0h-313.648v57.407h333.455v-37.601c0-10.939-8.869-19.806-19.807-19.806z" fill="#5cb3f8"/><path d="m118.651 0h-36.89c-10.939 0-19.807 8.867-19.807 19.806v37.601h56.696v-57.407z" fill="#ff656f"/><path d="m115.757 0h-33.996c-10.939 0-19.807 8.867-19.807 19.806v37.601h33.996v-37.601c0-10.939 8.868-19.806 19.807-19.806z" fill="#ff4756"/><g><g><path d="m411.669 36.43h-255.327c-4.267 0-7.726-3.459-7.726-7.726s3.459-7.726 7.726-7.726h255.327c4.267 0 7.726 3.459 7.726 7.726s-3.459 7.726-7.726 7.726z" fill="#8bcaff"/></g></g><path d="m323.694 199.536h-205.084c-9.388 0-16.998 7.61-16.998 16.998v48.418c0 9.388 7.61 16.998 16.998 16.998h205.084z" fill="#dfebfa"/><path d="m101.612 227.179v37.773c0 9.388 7.61 16.998 16.998 16.998h205.084v-37.773h-205.084c-9.388 0-16.998-7.61-16.998-16.998z" fill="#b1dbfc"/><g><path d="m256.298 330.589h-51.12c-4.267 0-7.726-3.459-7.726-7.726s3.459-7.726 7.726-7.726h51.12c4.267 0 7.726 3.459 7.726 7.726s-3.459 7.726-7.726 7.726z" fill="#fec458"/></g><g><path d="m306.822 330.589h-20.306c-4.267 0-7.726-3.459-7.726-7.726s3.459-7.726 7.726-7.726h20.306c4.267 0 7.726 3.459 7.726 7.726s-3.459 7.726-7.726 7.726z" fill="#fec458"/></g><path d="m393.39 199.536h-71.756v82.414h71.756c9.388 0 16.998-7.61 16.998-16.998v-48.418c0-9.388-7.61-16.998-16.998-16.998z" fill="#ff656f"/><path d="m393.39 244.177h-71.756v37.773h71.756c9.388 0 16.998-7.61 16.998-16.998v-37.773c0 9.388-7.61 16.998-16.998 16.998z" fill="#ff4756"/><path d="m385.989 220.952c-8.522-8.522-22.315-8.523-30.838 0-6.576 6.576-8.042 16.334-4.445 24.356l-8.424 8.424c-3.018 3.017-3.018 7.909 0 10.927s7.909 3.017 10.927 0l8.424-8.424c8.401 3.767 18.027 1.884 24.356-4.445 8.523-8.524 8.521-22.317 0-30.838zm-10.927 19.911c-2.477 2.477-6.508 2.477-8.984 0-2.477-2.477-2.477-6.508-.001-8.984 4.019-4.017 10.845-1.118 10.845 4.492.001 1.697-.66 3.292-1.86 4.492z" fill="#dfebfa"/></g></svg>