<svg id="Capa_1" enable-background="new 0 0 512 512" height="512" viewBox="0 0 512 512" width="512" xmlns="http://www.w3.org/2000/svg"><g><g><path d="m412.713 445.084 4.986-15.705v-401.958c0-11.014-8.929-19.943-19.943-19.943h-283.512c-11.014 0-19.943 8.929-19.943 19.943v401.957l4.986 15.705h313.426z" fill="#61a2f9"/></g><g><path d="m397.756 7.478h-15.907v437.605h30.865l4.986-15.705v-401.957c-.001-11.014-8.93-19.943-19.944-19.943z" fill="#4a81f6"/></g><g><path d="m256 7.478h-141.756c-11.014 0-19.943 8.929-19.943 19.943v198.86h161.699z" fill="#e7ecf1"/></g><g><path d="m417.699 226.281v-198.86c0-11.014-8.929-19.943-19.943-19.943h-283.512c-11.014 0-19.943 8.929-19.943 19.943v198.86z" fill="#dd5790"/></g><g><path d="m417.699 226.281v-198.86c0-11.014-8.929-19.943-19.943-19.943h-15.907v218.803z" fill="#da387d"/></g><g><path d="m256 7.478h-141.756c-11.014 0-19.943 8.929-19.943 19.943v89.235h161.699z" fill="#f6e266"/></g><g><path d="m94.301 429.379v55.2c0 11.014 8.929 19.943 19.943 19.943h283.513c11.014 0 19.943-8.929 19.943-19.943v-55.2z" fill="#dae7ef"/></g><g><path d="m381.849 429.379v19.35c0 11.014-8.929 19.943-19.943 19.943h-267.605v15.907c0 11.014 8.929 19.943 19.943 19.943h283.513c11.014 0 19.943-8.929 19.943-19.943v-55.2z" fill="#c1d5e4"/></g><g><path d="m256 116.645c-9.781-38.438-42.795-72.039-82.025-72.039-36.521 0-67.657 29.121-79.674 64.156v109.614h156.48l5.219-32.925z" fill="#2b4d66"/></g><g><path d="m256 185.452c-13.306-7.21-28.539-11.314-44.737-11.314h-72.226c-16.198 0-31.431 4.105-44.737 11.314v40.829h161.7z" fill="#dd5790"/></g><g><path d="m202.04 164.304v-29.377h-53.779v29.377c0 5.16-2.016 10.116-5.618 13.811l-.158.162c-2.016 2.068-3.144 4.841-3.144 7.728 0 11.532 9.349 20.881 20.881 20.881h29.858c11.532 0 20.881-9.349 20.881-20.881 0-2.887-1.128-5.661-3.144-7.728l-.158-.162c-3.603-3.695-5.619-8.651-5.619-13.811z" fill="#eaac9d"/></g><g><path d="m201.285 151.205-8.88 8.494c-9.651 9.231-24.858 9.231-34.509 0l-8.88-8.494c-7.704-7.369-12.062-17.567-12.062-28.228v-33.204c0-3.261 2.644-5.905 5.905-5.905h64.583c3.261 0 5.905 2.644 5.905 5.905v33.204c0 10.661-4.358 20.859-12.062 28.228z" fill="#ffcbbe"/></g><g><path d="m417.699 172.28c-13.306-7.21-28.539-11.314-44.737-11.314h-72.226c-16.198 0-31.431 4.105-44.737 11.314v54.001h161.699v-54.001z" fill="#f6f9f9"/></g><g><path d="m381.849 226.281h35.85v-54.001c-10.843-5.876-22.967-9.687-35.85-10.897z" fill="#dae7ef"/></g><g><path d="m363.739 154.771v-29.377h-53.779v29.377c0 5.16-2.016 10.116-5.618 13.811l-.158.162c-2.016 2.068-3.144 4.841-3.144 7.728 0 11.532 9.349 20.881 20.881 20.881h29.858c11.532 0 20.881-9.349 20.881-20.881 0-2.887-1.128-5.661-3.144-7.728l-.158-.162c-3.603-3.695-5.619-8.651-5.619-13.811z" fill="#a55e4d"/></g><g><path d="m362.984 141.672-8.88 8.494c-9.651 9.231-24.858 9.231-34.509 0l-8.88-8.494c-7.704-7.369-12.062-17.567-12.062-28.228v-33.205c0-3.261 2.644-5.905 5.905-5.905h64.583c3.261 0 5.905 2.644 5.905 5.905v33.204c0 10.662-4.357 20.86-12.062 28.229z" fill="#b46e59"/></g><g><path d="m336.85 74.586c14.128 0 27.259 3.753 38.196 10.18v-32.06c0-3.261-2.644-5.905-5.905-5.905h-64.583c-3.261 0-5.905 2.644-5.905 5.905v32.06c10.938-6.427 24.068-10.18 38.197-10.18z" fill="#2b4d66"/></g><g><g><path d="m306.4 122.311h-7.643c-6.627 0-12-5.373-12-12v-9.599c0-3.314 2.686-6 6-6h13.643z" fill="#b46e59"/></g><g><path d="m366.002 122.311h7.643c6.627 0 12-5.373 12-12v-9.599c0-3.314-2.686-6-6-6h-13.643z" fill="#b46e59"/></g></g><g><path d="m397.756 512h-283.512c-15.12 0-27.421-12.301-27.421-27.422v-457.157c-.001-15.12 12.3-27.421 27.421-27.421h283.513c15.12 0 27.422 12.301 27.422 27.421v457.157c-.001 15.121-12.303 27.422-27.423 27.422zm-283.512-497.043c-6.873 0-12.464 5.591-12.464 12.464v457.157c0 6.873 5.591 12.464 12.464 12.464h283.513c6.873 0 12.464-5.591 12.464-12.464v-457.157c0-6.873-5.591-12.464-12.464-12.464z" fill="#98b9d3"/></g><g><path d="m280.119 476.423h-48.239c-4.13 0-7.479-3.348-7.479-7.479 0-4.13 3.348-7.479 7.479-7.479h48.239c4.131 0 7.479 3.348 7.479 7.479s-3.348 7.479-7.479 7.479z" fill="#407093"/></g><g><g><path d="m196.158 395.425c17.655-6.914 36.991-19.749 54.588-37.364s30.414-36.963 37.311-54.624c8.209-21.021 1.789-33.403-8.693-43.876-3.468-3.455-9.137-3.448-12.597.015l-27.683 27.71c-3.479 3.483-3.477 9.126.006 12.606l11.086 11.075c1.516 1.514 1.734 3.901.503 5.654-5.405 7.701-11.788 15.298-18.937 22.454s-14.74 13.547-22.436 18.959c-1.752 1.232-4.139 1.016-5.655-.498l-11.086-11.075c-3.483-3.479-9.126-3.477-12.606.006l-27.683 27.71c-3.46 3.463-3.461 9.132-.003 12.597 10.484 10.473 22.872 16.88 43.885 8.651z" fill="#86f1a7"/></g></g><g><g><circle cx="315.848" cy="377.819" fill="#dae7ef" r="8.752"/></g><g><circle cx="281.435" cy="377.819" fill="#dae7ef" r="8.752"/></g><g><circle cx="350.261" cy="377.819" fill="#dae7ef" r="8.752"/></g></g></g></svg>