<svg id="Capa_1" enable-background="new 0 0 497 497" height="512" viewBox="0 0 497 497" width="512" xmlns="http://www.w3.org/2000/svg"><g><path d="m302.873 457.47h-15.667-77.77-15.667c-4.142 0-7.5 3.357-7.5 7.5s3.358 7.5 7.5 7.5h15.667 77.77 15.667c4.142 0 7.5-3.357 7.5-7.5s-3.358-7.5-7.5-7.5z" fill="#d7d0d6"/><path d="m238.126 400.6h-21.451c-1.665 0-3.229.797-4.206 2.145l-62.421 86.005c-2.494 3.436-.039 8.251 4.206 8.251h21.451c1.665 0 3.229-.797 4.207-2.145l62.421-86.005c2.494-3.436.039-8.251-4.207-8.251z" fill="#596c76"/><path d="m258.516 400.6h21.451c1.665 0 3.229.797 4.207 2.145l62.421 86.005c2.494 3.436.039 8.251-4.206 8.251h-21.451c-1.665 0-3.229-.797-4.207-2.145l-62.421-86.005c-2.495-3.436-.04-8.251 4.206-8.251z" fill="#596c76"/><g><path d="m248.321 472.47c-4.142 0-7.5-3.357-7.5-7.5v-206.822c0-4.143 3.358-7.5 7.5-7.5s7.5 3.357 7.5 7.5v206.822c0 4.142-3.358 7.5-7.5 7.5z" fill="#e5e1e5"/></g><path d="m303.006 258.15h-107.442l7.54-36h92.362z" fill="#596c76"/><path d="m259.761 258.15h-64.197l7.54-36h49.117z" fill="#7a8c98"/><g><path d="m216.191 74.04-6.34-23.61-68.499-10.657-68.501 10.657-6.33 23.61c-11.42 42.51-12.67 87.11-3.64 130.19l18.29 87.32 3.11 14.84 12.41 59.26c1.93 8.56 9.54 14.64 18.32 14.64h52.69c8.77 0 16.38-6.08 18.32-14.64l12.41-59.26 3.11-14.84 18.29-87.32c9.02-43.08 7.77-87.68-3.64-130.19z" fill="#d8aa5e"/><path d="m161.408 365.65 12.41-59.26 3.11-14.84 18.29-87.32c9.02-43.08 7.77-87.68-3.64-130.19l-6.34-23.61-53.314-7.496-59.073 7.496-6.33 23.61c-11.42 42.51-12.67 87.11-3.64 130.19l18.29 87.32 3.11 14.84 12.41 59.26c1.93 8.56 9.54 14.64 18.32 14.64h28.077c8.77 0 16.38-6.08 18.32-14.64z" fill="#e9b665"/><path d="m223.571 37.83c0 6.96-5.9 12.61-13.19 12.61h-138.06c-7.29 0-13.19-5.65-13.19-12.61v-.01c0-6.96 5.9-12.6 13.18-12.6h138.07c7.29 0 13.19 5.65 13.19 12.61z" fill="#d7d0d6"/><path d="m197.571 37.83c0 6.96-5.9 12.61-13.19 12.61h-112.06c-7.29 0-13.19-5.65-13.19-12.61v-.01c0-6.96 5.9-12.6 13.18-12.6h112.07c7.29 0 13.19 5.65 13.19 12.61z" fill="#e5e1e5"/><path d="m206.401 25.22h-130.1c0-6.96 2.95-13.27 7.73-17.83 4.77-4.57 11.37-7.39 18.65-7.39h77.34c14.57 0 26.38 11.29 26.38 25.22z" fill="#fedba6"/><path d="m180.401 25.22h-104.1c0-6.96 2.95-13.27 7.73-17.83 4.77-4.57 11.37-7.39 18.65-7.39h51.34c14.57 0 26.38 11.29 26.38 25.22z" fill="#ffefd2"/><path d="m120.267 88.061h-22.056c-2.266 0-4.104 1.837-4.104 4.104v31.167c0 2.266 1.837 4.104 4.104 4.104h22.055c2.266 0 4.104-1.837 4.104-4.104v-31.167c0-2.267-1.837-4.104-4.103-4.104z" fill="#e5e1e5"/><path d="m184.486 88.061h-22.056c-2.266 0-4.104 1.837-4.104 4.104v31.167c0 2.266 1.837 4.104 4.104 4.104h22.055c2.266 0 4.104-1.837 4.104-4.104v-31.167c0-2.267-1.837-4.104-4.103-4.104z" fill="#e5e1e5"/><g><path d="m109.239 95.562c-4.142 0-7.5-3.357-7.5-7.5v-37.628c0-4.143 3.358-7.5 7.5-7.5s7.5 3.357 7.5 7.5v37.628c0 4.142-3.358 7.5-7.5 7.5z" fill="#596c76"/></g><g><path d="m173.458 95.562c-4.142 0-7.5-3.357-7.5-7.5v-37.628c0-4.143 3.358-7.5 7.5-7.5s7.5 3.357 7.5 7.5v37.628c0 4.142-3.358 7.5-7.5 7.5z" fill="#596c76"/></g><g><path d="m201.541 291.55-3.11 14.84h-11.08c-4.34 0-8.56-.52-12.6-1.5-14.16-3.43-26.13-12.5-33.4-24.7-9.34 15.68-26.46 26.2-46 26.2h-11.07l-3.11-14.84c.5-.11 1.01-.16 1.54-.16h12.64c21.23 0 38.5-17.27 38.5-38.5 0-4.14 3.36-7.5 7.5-7.5s7.5 3.36 7.5 7.5c0 17.94 12.33 33.05 28.97 37.31 3.05.78 6.24 1.19 9.53 1.19h12.65c.53 0 1.04.05 1.54.16z" fill="#fd4755"/></g><path d="m200.001 291.39h-12.65c-3.29 0-6.48-.41-9.53-1.19-.194-.05-.384-.108-.577-.161l-.316 1.511-2.763 13.182c.196.05.389.11.586.158 4.04.98 8.26 1.5 12.6 1.5h11.08l3.11-14.84c-.5-.11-1.01-.16-1.54-.16z" fill="#e41f2d"/></g><g><path d="m430.486 74.04-6.34-23.61-68.499-10.657-68.501 10.657-6.33 23.61c-11.42 42.51-12.67 87.11-3.64 130.19l18.29 87.32 3.11 14.84 12.41 59.26c1.93 8.56 9.54 14.64 18.32 14.64h52.69c8.77 0 16.38-6.08 18.32-14.64l12.41-59.26 3.11-14.84 18.29-87.32c9.02-43.08 7.77-87.68-3.64-130.19z" fill="#d8aa5e"/><path d="m375.703 365.65 12.41-59.26 3.11-14.84 18.29-87.32c9.02-43.08 7.77-87.68-3.64-130.19l-6.34-23.61-53.314-7.496-59.073 7.496-6.33 23.61c-11.42 42.51-12.67 87.11-3.64 130.19l18.29 87.32 3.11 14.84 12.41 59.26c1.93 8.56 9.54 14.64 18.32 14.64h28.077c8.77 0 16.38-6.08 18.32-14.64z" fill="#e9b665"/><path d="m437.866 37.83c0 6.96-5.9 12.61-13.19 12.61h-138.06c-7.29 0-13.19-5.65-13.19-12.61v-.01c0-6.96 5.9-12.6 13.18-12.6h138.07c7.29 0 13.19 5.65 13.19 12.61z" fill="#d7d0d6"/><path d="m411.866 37.83c0 6.96-5.9 12.61-13.19 12.61h-112.06c-7.29 0-13.19-5.65-13.19-12.61v-.01c0-6.96 5.9-12.6 13.18-12.6h112.07c7.29 0 13.19 5.65 13.19 12.61z" fill="#e5e1e5"/><path d="m420.696 25.22h-130.1c0-6.96 2.95-13.27 7.73-17.83 4.77-4.57 11.37-7.39 18.65-7.39h77.34c14.57 0 26.38 11.29 26.38 25.22z" fill="#fedba6"/><path d="m394.696 25.22h-104.1c0-6.96 2.95-13.27 7.73-17.83 4.77-4.57 11.37-7.39 18.65-7.39h51.34c14.57 0 26.38 11.29 26.38 25.22z" fill="#ffefd2"/><path d="m334.562 88.061h-22.055c-2.266 0-4.104 1.837-4.104 4.104v31.167c0 2.266 1.837 4.104 4.104 4.104h22.055c2.266 0 4.104-1.837 4.104-4.104v-31.167c0-2.267-1.838-4.104-4.104-4.104z" fill="#e5e1e5"/><path d="m398.781 88.061h-22.055c-2.266 0-4.104 1.837-4.104 4.104v31.167c0 2.266 1.837 4.104 4.104 4.104h22.055c2.266 0 4.104-1.837 4.104-4.104v-31.167c0-2.267-1.838-4.104-4.104-4.104z" fill="#e5e1e5"/><g><path d="m323.534 95.562c-4.142 0-7.5-3.357-7.5-7.5v-37.628c0-4.143 3.358-7.5 7.5-7.5s7.5 3.357 7.5 7.5v37.628c0 4.142-3.358 7.5-7.5 7.5z" fill="#596c76"/></g><g><path d="m387.754 95.562c-4.142 0-7.5-3.357-7.5-7.5v-37.628c0-4.143 3.358-7.5 7.5-7.5s7.5 3.357 7.5 7.5v37.628c0 4.142-3.358 7.5-7.5 7.5z" fill="#596c76"/></g><g><path d="m415.836 291.55-3.11 14.84h-11.08c-4.34 0-8.56-.52-12.6-1.5-14.16-3.43-26.13-12.5-33.4-24.7-9.34 15.68-26.46 26.2-46 26.2h-11.07l-3.11-14.84c.5-.11 1.01-.16 1.54-.16h12.64c21.23 0 38.5-17.27 38.5-38.5 0-4.14 3.36-7.5 7.5-7.5s7.5 3.36 7.5 7.5c0 17.94 12.33 33.05 28.97 37.31 3.05.78 6.24 1.19 9.53 1.19h12.65c.53 0 1.04.05 1.54.16z" fill="#fd4755"/></g><path d="m414.296 291.39h-12.65c-3.29 0-6.48-.41-9.53-1.19-.194-.05-.384-.108-.577-.161l-.316 1.511-2.763 13.182c.196.05.389.11.586.158 4.04.98 8.26 1.5 12.6 1.5h11.08l3.11-14.84c-.5-.11-1.01-.16-1.54-.16z" fill="#e41f2d"/></g></g></svg>