<svg id="Capa_1" enable-background="new 0 0 512 512" height="512" viewBox="0 0 512 512" width="512" xmlns="http://www.w3.org/2000/svg"><g><circle cx="256" cy="256" fill="#dfebfa" r="256"/><path d="m121.365 256c0-120.475 83.227-221.494 195.317-248.745-19.454-4.73-39.772-7.255-60.682-7.255-141.385 0-256 114.615-256 256s114.615 256 256 256c20.91 0 41.228-2.525 60.683-7.255-112.09-27.251-195.318-128.27-195.318-248.745z" fill="#b1dbfc"/><circle cx="256" cy="256" fill="#5cb3f8" r="223.551"/><path d="m121.365 256c0-96.034 52.89-179.702 131.12-223.506-121.841 1.88-220.036 101.217-220.036 223.506 0 122.288 98.195 221.626 220.036 223.506-78.23-43.804-131.12-127.472-131.12-223.506z" fill="#2fa2f6"/><path d="m256 24.723c-127.826 0-231.277 103.439-231.277 231.277 0 127.827 103.439 231.277 231.277 231.277 127.826 0 231.277-103.439 231.277-231.277 0-127.827-103.439-231.277-231.277-231.277zm170.363 363.622c-16.352-11.937-30.266-17.716-40.373-22.135 4.316-11.301 8.412-21.167 11.679-36.254 4.621-21.335 7.189-43.579 7.666-66.23h66.336c-1.658 46.85-18.311 89.945-45.308 124.619zm-282.506-14.507c31.261-12.529 67.092-19.697 104.416-20.569v118.184c-49.611-4.585-85.346-50.946-104.416-97.615zm119.869-20.572c30.504.703 67.992 6.082 95.775 18.228l6.795 2.971-2.885 7.555c-16.312 42.711-53.726 85.149-99.685 89.429zm0-15.456v-65.558c0-4.268-3.459-7.726-7.726-7.726s-7.726 3.459-7.726 7.726v65.56c-39.133.878-76.808 8.404-109.83 21.582-9.965-29.148-15.579-61.712-16.32-95.667h120.043c4.267 0 7.726-3.459 7.726-7.726 0-4.268-3.459-7.726-7.726-7.726h-120.043c.741-33.955 6.355-66.52 16.32-95.668 33.024 13.179 70.702 20.705 109.83 21.583v63.809c0 4.268 3.459 7.726 7.726 7.726s7.726-3.459 7.726-7.726v-63.809c26.007-.573 51.38-4.034 75.531-10.329 14.183-3.698 24.136-8.283 32.585-11.977 4.091 10.776 7.687 19.487 10.648 33.079 4.437 20.374 6.913 41.636 7.389 63.31h-115.003c-4.267 0-7.726 3.459-7.726 7.726 0 4.268 3.459 7.726 7.726 7.726h114.995c-.474 21.548-2.915 42.693-7.304 62.959-2.932 13.535-6.519 22.247-10.751 33.328-34.28-14.986-69.72-21.357-108.09-22.202zm-223.397-74.084h66.339c.757 36.089 6.807 70.767 17.57 101.826-13.964 6.549-26.925 14.17-38.608 22.784-26.993-34.672-43.644-77.763-45.301-124.61zm45.301-140.062c11.682 8.613 24.644 16.234 38.608 22.782-10.763 31.06-16.814 65.738-17.57 101.827h-66.339c1.657-46.845 18.308-89.937 45.301-124.609zm278.163 7.019 2.558 6.737c-8.741 3.821-17.861 8.065-30.993 11.488-22.882 5.964-46.945 9.255-71.632 9.825v-118.184c45.971 4.271 83.653 46.895 100.067 90.134zm-115.52-90.136v118.184c-37.32-.873-73.153-8.041-104.416-20.57 19.043-46.601 54.767-93.025 104.416-97.614zm157.062 207.727c-.611-29.03-5.049-65.001-15.358-92.16l-3.958-10.426c8.72-3.812 23.379-9.735 40.336-22.043 27.002 34.676 43.658 77.775 45.316 124.629zm11.067-136.512c-14.602 10.44-26.806 15.498-35.874 19.462-11.859-31.236-27.992-57.752-53.567-79.049 34.679 12.108 65.351 32.825 89.441 59.587zm-231.462-59.553c-24.656 20.578-42.994 49.903-55.235 79.76-12.316-5.857-23.761-12.608-34.133-20.178 24.071-26.751 54.717-47.464 89.368-59.582zm-89.367 348.001c10.372-7.57 21.817-14.322 34.132-20.178 12.235 29.842 30.571 59.175 55.235 79.76-34.651-12.119-65.297-32.832-89.367-59.582zm231.355 59.627c20.064-16.695 39.363-42.051 50.918-72.303l2.624-6.872c7.791 3.406 20.907 8.726 35.954 19.549-24.1 26.784-54.792 47.515-89.496 59.626z" fill="#8bcaff"/><circle cx="377.365" cy="142.068" fill="#43cb8e" r="25.24"/><circle cx="377.365" cy="369.932" fill="#ffe181" r="25.24"/><circle cx="256" cy="256" fill="#ff656f" r="25.24"/><path d="m377.365 142.068c0-9.341 5.078-17.49 12.62-21.855-3.713-2.149-8.021-3.385-12.62-3.385-13.939 0-25.24 11.3-25.24 25.24s11.3 25.24 25.24 25.24c4.599 0 8.906-1.236 12.62-3.385-7.542-4.364-12.62-12.514-12.62-21.855z" fill="#00ba66"/><path d="m377.365 369.932c0-9.341 5.078-17.49 12.62-21.855-3.713-2.149-8.021-3.385-12.62-3.385-13.939 0-25.24 11.3-25.24 25.24 0 13.939 11.3 25.24 25.24 25.24 4.599 0 8.906-1.236 12.62-3.385-7.542-4.365-12.62-12.515-12.62-21.855z" fill="#fec458"/><path d="m256 256c0-9.341 5.078-17.49 12.62-21.855-3.713-2.149-8.021-3.385-12.62-3.385-13.939 0-25.24 11.3-25.24 25.24 0 13.939 11.3 25.24 25.24 25.24 4.599 0 8.906-1.236 12.62-3.385-7.542-4.365-12.62-12.514-12.62-21.855z" fill="#ff4756"/><path d="m235.934 469.399c-43.221-10.417-74.627-52.857-92.077-95.56 1.706-.684 3.432-1.345 5.165-1.996-2.33-4.584-4.517-9.252-6.574-13.99-1.338.51-2.681 1.014-4.004 1.542-7.131-20.857-12.019-43.469-14.503-67.083-1.685-11.863-2.575-23.982-2.575-36.311 0-12.328.89-24.447 2.575-36.31 2.484-23.614 7.373-46.227 14.503-67.084 1.323.528 2.666 1.032 4.004 1.542 2.057-4.738 4.244-9.405 6.574-13.989-1.733-.652-3.459-1.313-5.166-1.996 17.427-42.646 48.824-85.136 92.077-95.56 9.875-6.558 20.224-12.456 30.997-17.615-3.623-.168-7.266-.264-10.931-.264-127.825-.002-231.276 103.437-231.276 231.275 0 127.827 103.439 231.277 231.277 231.277 3.665 0 7.308-.095 10.931-.264-10.773-5.159-21.123-11.057-30.997-17.614zm-50.994-417.19c-24.656 20.578-42.994 49.903-55.235 79.76-12.316-5.857-23.761-12.608-34.133-20.178 24.071-26.751 54.717-47.464 89.368-59.582zm-99.31 71.455c11.682 8.613 24.644 16.234 38.608 22.782-10.763 31.06-16.814 65.738-17.57 101.827h-66.339c1.657-46.845 18.308-89.937 45.301-124.609zm0 264.673c-26.993-34.672-43.644-77.764-45.301-124.61h66.339c.757 36.089 6.807 70.767 17.57 101.826-13.964 6.548-26.925 14.17-38.608 22.784zm9.943 11.873c10.372-7.57 21.817-14.322 34.132-20.178 12.235 29.842 30.571 59.175 55.235 79.76-34.651-12.119-65.297-32.832-89.367-59.582z" fill="#5cb3f8"/></g></svg>