<svg id="Capa_1" enable-background="new 0 0 504.495 504.495" height="512" viewBox="0 0 504.495 504.495" width="512" xmlns="http://www.w3.org/2000/svg"><g><g><path d="m345.194 504.495c-1.919 0-3.839-.732-5.304-2.196-2.929-2.93-2.929-7.678 0-10.607l22.979-22.979c2.93-2.928 7.678-2.928 10.607 0 2.929 2.93 2.929 7.678 0 10.607l-22.979 22.979c-1.464 1.464-3.384 2.196-5.303 2.196z" fill="#fed402"/></g><g><path d="m96.862 485.963c-23.986 0-46.536-9.341-63.497-26.301-16.961-16.961-26.301-39.511-26.302-63.497 0-23.985 9.341-46.536 26.301-63.497l14.481-14.481c2.929-2.928 7.678-2.928 10.606 0 2.929 2.93 2.929 7.678 0 10.606l-14.481 14.482c-14.127 14.127-21.908 32.911-21.908 52.89s7.78 38.763 21.908 52.89c29.164 29.164 76.617 29.164 105.781 0l194.384-194.384c16.961-16.96 39.511-26.301 63.497-26.301 23.985 0 46.536 9.341 63.497 26.301 16.96 16.961 26.301 39.512 26.301 63.498 0 23.985-9.341 46.536-26.301 63.497l-36.378 36.378c-2.93 2.928-7.678 2.928-10.607 0-2.929-2.93-2.929-7.678 0-10.607l36.378-36.378c29.164-29.163 29.164-76.617 0-105.78-14.127-14.128-32.911-21.908-52.89-21.908s-38.763 7.78-52.89 21.907l-194.383 194.384c-16.96 16.96-39.511 26.301-63.497 26.301z" fill="#465a61"/></g><path d="m353.365 135.686-19.134 19.134c-31.035 31.035-81.36 31.042-112.409-.007-3.635-3.635-6.838-7.531-9.617-11.625-.368-.551-.735-1.103-1.096-1.662-19.778-30.766-16.207-72.196 10.713-99.115l19.134-19.134c26.92-26.92 68.349-30.491 99.115-10.713.672.431 1.344.877 2.001 1.336 3.981 2.722 7.75 5.841 11.285 9.376 15.521 15.521 23.292 35.864 23.285 56.208.008 20.345-7.756 40.681-23.277 56.202z" fill="#d7d0d6"/><path d="m332.435 114.657-19.127 19.127c-27.506 27.506-70.145 30.646-101.102 9.404-.368-.551-.735-1.103-1.096-1.662-19.778-30.766-16.207-72.196 10.713-99.115l19.134-19.134c26.92-26.92 68.349-30.491 99.115-10.713.672.431 1.344.877 2.001 1.336 9.108 13.407 13.654 28.984 13.654 44.555-.007 20.344-7.764 40.674-23.292 56.202z" fill="#e5e1e5"/><path d="m435.395 436.887-43.073 43.073c-5.027 5.027-13.175 5.027-18.209-.007l-11.877-11.877c-.54-.54-1.028-1.118-1.441-1.726-3.534-5.019-3.053-11.997 1.433-16.484l43.073-43.073c4.487-4.487 11.464-4.967 16.484-1.433.608.413 1.186.9 1.726 1.44l11.877 11.877c5.034 5.035 5.034 13.183.007 18.21z" fill="#e41f2d"/><path d="m420.352 421.844-43.073 43.073c-4.487 4.487-11.464 4.967-16.484 1.433-3.534-5.019-3.053-11.997 1.433-16.484l43.073-43.073c4.487-4.487 11.464-4.967 16.484-1.433 3.534 5.02 3.054 11.998-1.433 16.484z" fill="#fd4755"/><path d="m199.11 259.168-52.192 44.116-11.498 9.716-30.328 25.633c-11.278 9.539-27.98 8.832-38.417-1.605l-27.061-27.061c-10.444-10.444-11.144-27.139-1.605-38.417l25.633-30.328 9.716-11.498 44.109-52.199z" fill="#596c76"/><path d="m63.642 241.222 50.77 50.77-30.328 25.633c-11.278 9.539-27.98 8.832-38.417-1.605l-6.053-6.053c-10.444-10.444-11.144-27.139-1.605-38.417z" fill="#7a8c98"/><path d="m178.101 238.16-52.191 44.117-52.552-52.553 44.109-52.198z" fill="#7a8c98"/><path d="m298.072 175.543-98.962 83.626-81.645-81.645 83.633-98.954z" fill="#465a61"/><path d="m277.064 154.535-98.962 83.626-60.637-60.637 83.633-98.954z" fill="#596c76"/><path d="m186.025 190.615c-7.122-7.122-7.122-18.67 0-25.792l15.024-15.024c7.122-7.122 18.67-7.122 25.792 0 7.122 7.122 7.122 18.67 0 25.792l-15.024 15.024c-7.122 7.123-18.67 7.123-25.792 0z" fill="#e5e1e5"/><g><path d="m352.644 154.693c-1.464 1.464-3.387 2.199-5.31 2.199-1.909 0-3.833-.735-5.296-2.199l-24.819-24.819 10.607-10.607 24.819 24.819c2.926 2.928 2.926 7.68-.001 10.607z" fill="#465a61"/><path d="m327.824 119.267-10.607 10.607-95.268-95.268c-2.927-2.927-2.934-7.672 0-10.607 2.927-2.927 7.679-2.927 10.607 0z" fill="#596c76"/></g><g><path d="m125.91 282.277-11.498 9.715-50.77-50.77 9.716-11.498z" fill="#596c76"/><path d="m146.918 303.285-11.498 9.715-21.008-21.008 11.498-9.715z" fill="#465a61"/></g></g></svg>