<svg id="Capa_1" enable-background="new 0 0 512 512" height="512" viewBox="0 0 512 512" width="512" xmlns="http://www.w3.org/2000/svg"><g><g><path d="m494.321 386.961h-476.642l-3.413 73.157v29.108c0 9.425 7.641 17.066 17.066 17.066h187.557v-20.247c0-20.496 16.615-37.111 37.111-37.111 20.496 0 37.111 16.615 37.111 37.111v20.247h187.557c9.425 0 17.066-7.641 17.066-17.066v-27.97z" fill="#dd5790"/></g><g><path d="m270.027 206.072h-28.054c-103.758 0-187.871 84.113-187.871 187.871v22.052c0 2.761 2.239 5 5 5h393.796c2.761 0 5-2.239 5-5v-22.052c0-103.759-84.113-187.871-187.871-187.871z" fill="#86f1a7"/></g><path d="m270.027 206.072h-28.054c-6.303 0-12.532.316-18.676.923 94.99 9.375 169.195 89.493 169.195 186.948v22.052c0 2.761-2.239 5-5 5h65.407c2.761 0 5-2.239 5-5v-22.052c-.001-103.759-84.114-187.871-187.872-187.871z" fill="#78d090"/><g><g><g><path d="m446.416 386.961v102.264c0 9.425-7.641 17.066-17.066 17.066h51.318c9.425 0 17.066-7.641 17.066-17.066v-27.235l-3.413-75.029z" fill="#da387d"/></g></g></g><g><path d="m249.482 273.49-64.808 32.615c-5.385 2.71-11.737-1.204-11.737-7.233v-74.507z" fill="#dae7ef"/></g><g><path d="m232.788 262.776-59.85 30.12v5.977c0 6.028 6.352 9.942 11.737 7.233l64.808-32.615z" fill="#c1d5e4"/></g><g><path d="m262.518 273.49 64.808 32.615c5.385 2.71 11.737-1.204 11.737-7.233v-74.507z" fill="#dae7ef"/></g><g><path d="m321.471 235.656v63.217c0 1.405-.356 2.688-.953 3.806l6.809 3.426c5.385 2.71 11.737-1.204 11.737-7.233v-74.507z" fill="#c1d5e4"/></g><g><path d="m151.088 156.779c11.884 19.798 10.3 42.581-3.538 50.888s-34.69-1.008-46.575-20.806-7.558-38.012 6.28-46.319c13.839-8.307 31.949-3.561 43.833 16.237z" fill="#ffcbbe"/></g><g><path d="m360.912 156.779c-11.884 19.798-10.3 42.581 3.538 50.888s34.69-1.008 46.575-20.806c11.884-19.798 7.558-38.012-6.28-46.319-13.839-8.307-31.949-3.561-43.833 16.237z" fill="#ffcbbe"/></g><g><path d="m377.297 149.533c0 66.991-62.909 129.656-121.297 129.656s-121.297-62.666-121.297-129.656 54.306-107.894 121.297-107.894 121.297 40.904 121.297 107.894z" fill="#ffcbbe"/></g><g><path d="m317.716 54.97c16.787 17.984 26.844 41.969 26.844 70.788 0 66.991-62.909 129.656-121.297 129.656-15.398 0-31.11-4.362-45.901-12.009 22.488 21.805 51.065 35.784 78.638 35.784 58.388 0 121.297-62.666 121.297-129.656 0-44.453-23.917-77.413-59.581-94.563z" fill="#eaac9d"/></g><g><circle cx="256" cy="308.4" fill="#407093" r="12.975"/></g><g><path d="m360.912 156.779c-11.884 19.798-10.3 42.581 3.538 50.888s34.69-1.008 46.575-20.806c11.884-19.798 7.558-38.012-6.28-46.319-13.839-8.307-31.949-3.561-43.833 16.237z" fill="#eaac9d"/></g><g><path d="m194.001 75.193c-12.941-18.407-11.271-43.351 4.008-59.869 13.765-14.881 35.427-19.446 54.027-11.385l38.37 16.63c14.936 6.474 32.076 5.361 46.05-2.988l15.887-9.493c5.065-3.026 11.099 2.053 8.981 7.56l-8.8 22.883c-9.748 25.347-34.099 42.072-61.256 42.072h-86.851c-4.146-.001-8.032-2.019-10.416-5.41z" fill="#c67d66"/></g><g><path d="m352.342 8.087-15.887 9.493c-1.39.831-2.819 1.569-4.267 2.256-10.657 23.141-33.863 38.165-59.596 38.165h-86.158c1.326 6.035 3.835 11.885 7.566 17.192 2.384 3.392 6.27 5.41 10.416 5.41h86.851c27.157 0 51.508-16.725 61.256-42.072l8.8-22.883c2.118-5.507-3.916-10.587-8.981-7.561z" fill="#be694f"/></g><g><g><circle cx="304.014" cy="160.414" fill="#be694f" r="13.932"/></g><g><circle cx="207.986" cy="160.414" fill="#be694f" r="13.932"/></g></g><g><path d="m486.357 369.259h-3.24c-31 0-61.942-3.854-91.764-12.319-15.291-4.34-31.271-6.644-47.718-6.644-31.435 0-61.171 8.41-87.635 23.377v75.26c15.22 0 28.293 9.166 34.018 22.275 17.065-5.495 35.039-8.457 53.617-8.457 16.447 0 32.427 2.304 47.718 6.644 29.822 8.464 60.764 12.319 91.764 12.319h3.24c6.283 0 11.377-5.094 11.377-11.377v-89.701c0-6.283-5.094-11.377-11.377-11.377z" fill="#dae7ef"/></g><g><path d="m256 448.933v-75.26c-26.464-14.967-56.2-23.377-87.635-23.377-16.447 0-32.427 2.304-47.718 6.644-29.822 8.465-60.764 12.319-91.764 12.319h-3.24c-6.283 0-11.377 5.094-11.377 11.377v89.701c0 6.283 5.094 11.377 11.377 11.377h3.24c31 0 61.942-3.854 91.764-12.319 15.291-4.34 31.271-6.644 47.718-6.644 18.577 0 36.552 2.962 53.617 8.457 5.725-13.109 18.798-22.275 34.018-22.275z" fill="#dae7ef"/></g><g><path d="m486.357 369.259h-3.24c-12.265 0-24.52-.614-36.701-1.868v57.853c0 2.007-1.745 3.583-3.74 3.356-17.337-1.976-34.509-5.273-51.324-10.046-15.291-4.34-31.271-6.643-47.718-6.643-31.435 0-61.171 8.409-87.635 23.376v13.646c15.22 0 28.293 9.166 34.018 22.275 17.065-5.495 35.039-8.457 53.617-8.457 16.447 0 32.427 2.304 47.718 6.644 29.822 8.464 60.763 12.319 91.763 12.319h3.24c6.283 0 11.377-5.094 11.377-11.377v-89.701c.002-6.283-5.092-11.377-11.375-11.377z" fill="#c1d5e4"/></g><g><path d="m256 448.933v-75.26c-15.967-9.03-33.13-15.653-51.133-19.502v57.499c0 2.103-1.907 3.706-3.973 3.313-10.587-2.012-21.45-3.072-32.529-3.072-16.447 0-32.427 2.304-47.718 6.644-29.822 8.464-60.764 12.319-91.764 12.319h-14.617v39.464c0 6.283 5.094 11.377 11.377 11.377h3.24c31 0 61.942-3.854 91.764-12.319 15.291-4.34 31.271-6.644 47.718-6.644 18.577 0 36.552 2.962 53.617 8.457 5.725-13.11 18.798-22.276 34.018-22.276z" fill="#c1d5e4"/></g><g><path d="m293.111 512c-4.096 0-7.416-3.32-7.416-7.416v-18.539c0-16.374-13.321-29.695-29.695-29.695s-29.695 13.321-29.695 29.695v18.539c0 4.096-3.32 7.416-7.416 7.416s-7.416-3.32-7.416-7.416v-18.539c0-24.553 19.975-44.528 44.528-44.528s44.528 19.975 44.528 44.528v18.539c-.001 4.096-3.322 7.416-7.418 7.416z" fill="#da387d"/></g><g><path d="m256 227.358c-11.681 0-23.126-4.046-32.227-11.392-3.223-2.602-3.727-7.323-1.125-10.547s7.324-3.727 10.547-1.125c6.535 5.275 14.421 8.063 22.805 8.063s16.27-2.788 22.805-8.063c3.223-2.603 7.945-2.098 10.547 1.125 2.602 3.224 2.098 7.945-1.125 10.547-9.101 7.346-20.546 11.392-32.227 11.392z" fill="#dd5790"/></g></g></svg>