<svg id="Capa_1" enable-background="new 0 0 512 512" height="512" viewBox="0 0 512 512" width="512" xmlns="http://www.w3.org/2000/svg"><g><g><path d="m501.538 24.425-39.076 10.47c-4.412 1.182-9.107.721-13.191-1.324-15.266-7.645-32.496-11.95-50.732-11.95h-285.079c-18.236 0-35.466 4.304-50.732 11.95-4.084 2.045-8.779 2.506-13.191 1.324l-39.076-10.47c-4.65-1.246-8.904 3.009-7.659 7.659l10.47 39.076c1.182 4.412.721 9.107-1.324 13.191-7.644 15.265-11.948 32.495-11.948 50.731v122.393c0 62.662 50.798 113.46 113.46 113.46h285.08c62.662 0 113.46-50.798 113.46-113.46v-122.393c0-18.236-4.304-35.466-11.95-50.732-2.045-4.084-2.506-8.779-1.324-13.191l10.47-39.076c1.247-4.65-3.008-8.904-7.658-7.658z" fill="#dae7ef"/><path d="m500.05 84.35c-2.045-4.084-2.506-8.779-1.324-13.191l10.47-39.076c1.246-4.65-3.009-8.904-7.659-7.659l-39.076 10.47c-4.412 1.182-9.107.721-13.191-1.324-7.17-3.591-14.778-6.434-22.715-8.451.268 2.031.854 4.022 1.786 5.883 7.645 15.266 11.95 32.496 11.95 50.732v122.393c0 62.662-50.798 113.46-113.46 113.46h-285.078c-9.09 0-17.927-1.076-26.399-3.095 19.659 33.752 56.231 56.441 98.106 56.441h285.08c62.662 0 113.46-50.798 113.46-113.46v-122.391c0-18.236-4.304-35.466-11.95-50.732z" fill="#c1d5e4"/><path d="m506.766 494.683c2.869 0 5.195-2.326 5.195-5.195v-16.818c0-74.577-60.457-135.033-135.033-135.033h-11.034c-15.477 0-29.016-10.418-32.981-25.379l-20.928-78.966-115.278.879v69.346c0 18.844-15.276 34.119-34.119 34.119h-27.553c-74.579 0-135.035 60.457-135.035 135.033v16.819c0 2.869 2.326 5.195 5.195 5.195z" fill="#eaac9d"/><g fill="#407093"><ellipse cx="254.746" cy="350.859" rx="40.475" ry="23.041"/><ellipse cx="254.746" cy="426.047" rx="32.124" ry="18.287" transform="matrix(.929 -.37 .37 .929 -139.457 124.358)"/><ellipse cx="255.379" cy="489.71" rx="25.534" ry="14.535"/></g><path d="m282.208 333.938c.574 1.545.881 3.147.881 4.789 0 12.725-18.121 23.041-40.475 23.041-10.601 0-20.246-2.323-27.462-6.12 3.873 10.426 20.126 18.252 39.594 18.252 22.354 0 40.475-10.316 40.475-23.041 0-6.69-5.013-12.712-13.013-16.921z" fill="#2b4d66"/><path d="m284.594 414.172c-1.922-4.83-7.202-7.775-14.117-8.607-1.332 8.293-10.551 17.548-23.675 22.77-7.999 3.183-15.972 4.276-22.491 3.492-.341 2.123-.174 4.184.587 6.097 3.734 9.384 20.124 11.674 36.609 5.116s26.821-19.484 23.087-28.868z" fill="#2b4d66"/><path d="m269.201 477.491c.011.176.024.353.024.531 0 8.028-11.432 14.535-25.534 14.535-5.095 0-9.837-.853-13.822-2.317.491 7.781 11.721 14.005 25.51 14.005 14.102 0 25.534-6.508 25.534-14.535 0-5.127-4.668-9.631-11.712-12.219z" fill="#2b4d66"/><path d="m336.021 358.5h42.712c57.082 0 103.355 46.274 103.355 103.355v32.827h24.677c2.869 0 5.195-2.326 5.195-5.195v-16.817c0-74.577-60.457-135.033-135.033-135.033h-11.034c-15.477 0-29.016-10.418-32.981-25.379l-20.928-78.966-35.311.269 26.367 99.56c3.966 14.961 17.504 25.379 32.981 25.379z" fill="#df9380"/><path d="m247.063 19.418c-66.905-.932-121.434 53.023-121.434 119.715v1.566c.001 3.166-1.41 6.17-3.848 8.189l-37.087 30.718c-5.3 4.39-4.582 12.722 1.39 16.14l36.555 20.923c1.914 1.095 3.095 3.129 3.098 5.334.032 24.326.066 48.96.088 66.065.017 12.448 10.164 22.492 22.611 22.379 12.563-.113 29.041-.262 45.923-.414 25.285-.228 47.583-16.247 56.29-39.987 2.49-6.789 8.407-11.746 15.535-12.996 5.372-.942 10.621-2.243 15.722-3.876 0 0 8.805-8.842 14.405-11.681 4.779-2.423 16.869-3.688 16.869-3.688 32.824-22.604 53.811-61.162 51.764-104.48-2.968-62.846-54.969-113.03-117.881-113.907z" fill="#eaac9d"/><g><g><path d="m364.946 133.326c-1.773-37.523-21.027-70.527-49.643-91.223 13.157 18.196 21.344 40.21 22.47 64.05 2.909 61.584-40.733 113.546-98.76 123.726-7.128 1.251-13.045 6.207-15.535 12.996-8.708 23.74-31.005 39.759-56.29 39.987-14.913.134-29.506.266-41.367.373.002 1.663.004 3.289.006 4.835.017 12.448 10.164 22.492 22.611 22.379 12.563-.113 29.041-.262 45.923-.414 25.285-.228 47.583-16.247 56.29-39.987 2.49-6.789 8.407-11.745 15.535-12.996 58.027-10.18 101.669-62.142 98.76-123.726z" fill="#df9380"/></g></g><g><path d="m182.341 42.212 70.137 35.748c15.324 7.811 23.175 25.21 18.892 41.868l-15.639 60.817c-4.582 17.818 5.346 36.156 22.77 42.06l42.371 14.357c9.069 3.073 18.982-1.292 22.839-10.056l16.822-38.223c16.427-37.325 13.394-80.349-8.105-115.001-18.736-30.199-49.56-50.876-84.609-56.758l-51.909-8.711c-14.061-2.36-28.329 2.83-37.589 13.671-5.516 6.458-3.545 16.372 4.02 20.228z" fill="#be694f"/></g><g><path d="m352.427 73.784c-16.101-25.951-41.132-44.861-70.096-53.402 8.907 8.466 16.795 18.095 23.398 28.739 25.297 40.773 28.865 91.398 9.537 135.316l-19.428 44.144 25.033 8.482c9.068 3.073 18.982-1.292 22.839-10.056l16.822-38.223c16.427-37.324 13.395-80.348-8.105-115z" fill="#aa593d"/></g><g><path d="m166.261 183.947c-8.126 0-15.68-4.036-20.205-10.796-2.304-3.442-1.382-8.1 2.061-10.404 3.442-2.306 8.1-1.382 10.404 2.061 1.735 2.592 4.629 4.14 7.74 4.14s6.004-1.548 7.74-4.141c2.305-3.442 6.963-4.364 10.405-2.06 3.442 2.305 4.364 6.963 2.06 10.405-4.526 6.76-12.079 10.795-20.205 10.795z" fill="#aa593d"/></g><g><path d="m150.759 249.653c4.506 0 8.159-3.653 8.159-8.159s-3.653-8.159-8.159-8.159h-24.987c-.004 0-.007.001-.011.001.007 5.559.015 11.025.022 16.317z" fill="#dd5790"/></g></g><path d="m244.725 226.414-2.22-.747c-5.234-1.762-8.049-7.434-6.286-12.668l13.393-39.779c3.692-10.966 15.575-16.862 26.54-13.17l1.094.368c15.163 5.105 23.316 21.535 18.211 36.698l-1.667 4.95c-2.956 8.778-8.75 15.799-16.017 20.385-4.11 2.593-10.219-2.879-15.023-1.966-4.885.928-8.472 8.211-13.558 7.145-1.494-.313-2.985-.717-4.467-1.216z" fill="#eaac9d"/><path d="m279.812 161.423c2.866 6.412 3.426 13.875 1.008 21.056l-1.667 4.95c-6.15 18.267-24.595 28.918-43.016 25.855-1.568 5.153 1.227 10.652 6.367 12.382l2.22.747c20.273 6.825 42.24-4.076 49.065-24.348l1.667-4.95c4.809-14.282-2.148-29.685-15.644-35.692z" fill="#df9380"/></g></svg>