<svg id="Capa_1" enable-background="new 0 0 512 512" height="512" viewBox="0 0 512 512" width="512" xmlns="http://www.w3.org/2000/svg"><g><path d="m137.074 183.034v-53.623h-10.195c-2.483 0-4.859-.435-7.083-1.199-10.301 4.631-18.214 16.373-18.214 28.156 0 16.852 16.649 30.676 35.539 28.602-.017-.646-.047-1.289-.047-1.936z" fill="#ffb1a0"/><path d="m298.781 126.563c-2.35 1.778-5.261 2.847-8.418 2.847-1.893 0-4.771-.203-6.556-.582v54.205c0 .653-.032 1.298-.049 1.946 18.873 2.007 35.541-11.815 35.541-28.711 0-12.809-8.342-25.852-20.518-29.705z" fill="#ffb1a0"/><path d="m137.074 180.09c-8.368-5.229-13.957-13.964-13.957-23.723 0-10.094 5.815-20.144 13.957-25.733v-1.224h-10.195c-2.483 0-4.859-.435-7.083-1.199-10.301 4.631-18.214 16.373-18.214 28.156 0 16.852 16.649 30.676 35.54 28.602-.017-.645-.047-1.288-.047-1.935v-2.944z" fill="#ffa68e"/><path d="m305.343 129.743c-2.025-1.353-4.221-2.439-6.562-3.18-2.35 1.777-5.261 2.847-8.418 2.847-1.893 0-4.771-.203-6.556-.581v54.205c0 .653-.032 1.298-.05 1.946 7.948.845 15.499-1.125 21.585-4.941v-50.296z" fill="#ffa68e"/><path d="m188.303 495.248v-11.387c0-1.993 1.6-3.61 3.575-3.61l29.689-1.03c-8.929-2.66-15.354-11.014-15.354-20.528v-148.08l-38.177-37.635c-.543.766-1.211 1.379-1.927 1.865l-105.448 41.184c-17.194 7.076-40.218 29.341-40.218 62.38v39.333h61.273v94.26h123.177c-9.125 0-16.59-7.539-16.59-16.752z" fill="#ff656f"/><path d="m56.82 366.103c0-27.866 17.105-49.129 27.048-59.14l-23.207 9.064c-17.194 7.076-40.218 29.341-40.218 62.38v39.333h36.377c0-20.693 0-39.709 0-51.637z" fill="#ff4756"/><path d="m257.342 276.815c-2.85-1.102-5.774-4.874-5.783-7.946l-.02-27.532c-26.14 17.105-59.216 14.794-82.262-.11v27.597c0 1.769-.499 3.108-1.241 4.154l38.177 37.635v-13.144c0-11.807 9.605-20.382 21.412-20.382h30.419c-.31-.12-.553-.214-.702-.272z" fill="#ffb1a0"/><path d="m169.277 241.227v27.597c0 1.769-.499 3.108-1.241 4.154l38.177 37.635v-13.144-44.312c-13.343-.8-26.223-5.002-36.936-11.93z" fill="#ffa68e"/><path d="m194.181 339.15 11.002-9.971v-21.163l-36.734-35.704c-.589 1.093-1.428 1.911-2.34 2.53l-36.569 14.283 50.025 50.025c4.019 4.02 10.597 4.02 14.616 0z" fill="#ff7f87"/><path d="m20.443 415.936h65.021v37.174h-65.021z" fill="#ff7f87"/><path d="m56.82 415.936h-36.377v37.174h36.377c0-12.295 0-25.051 0-37.174z" fill="#ff656f"/><path d="m85.464 450.619h-65.021v47.979c0 7.402 6.001 13.402 13.402 13.402h51.619z" fill="#ffb1a0"/><path d="m56.82 450.619h-36.377v47.979c0 7.402 6.001 13.402 13.402 13.402h22.975c0-12.568 0-36.157 0-61.381z" fill="#ffa68e"/><path d="m263.618 100.606c0-1.434-1.919-1.927-2.595-.663-8.719 16.308-25.902 27.407-45.688 27.407h-37.692v56.636c0 31.061 19.411 59.947 50.665 70.416 32.361-7.621 56.529-36.716 56.529-71.369v-56.265c-12.081-2.563-21.219-13.346-21.219-26.162z" fill="#ffcebe"/><g><path d="m178.559 183.034v-55.684h-42.515v55.684c0 38.328 30.031 73.335 75.458 73.335 7.14 0 14.038-1.045 20.568-2.957-32.893-9.183-53.511-38.63-53.511-70.378z" fill="#ffb1a0"/></g><path d="m280.073 33.906c-7.007.539-13.436-3.867-14.785-10.764-2.272-11.615-8.022-23.142-30.486-23.142h-77.938c-28.604 0-51.792 23.188-51.792 51.792v56.841c0 12.044 9.764 21.807 21.807 21.807h88.457c19.785 0 36.969-11.1 45.688-27.408.676-1.264 2.595-.77 2.595.663 0 14.71 12.035 26.745 26.745 26.745 7.71 0 14.019-6.308 14.019-14.019 0-21.549 0-37.288 0-59.316-.001-13.973-12.193-24.13-24.31-23.199z" fill="#ffe181"/><g><path d="m153.3 110.102v-58.764c0-24.285 16.173-44.782 38.331-51.338h-34.768c-28.604 0-51.792 23.188-51.792 51.792v56.841c0 12.044 9.763 21.807 21.807 21.807h39.231c-7.576-3.633-12.809-11.374-12.809-20.338z" fill="#fec458"/></g><path d="m93.19 512v-122.762c0-4.267-3.459-7.726-7.726-7.726s-7.726 3.459-7.726 7.726v122.762z" fill="#ff4756"/><path d="m452.235 276.057h-226.67c-11.807 0-21.412 9.605-21.412 21.412v161.224c0 9.514 6.424 18.899 15.354 21.558h238.786c8.93-2.659 15.354-12.045 15.354-21.558 0-7.081 0-154.158 0-161.224 0-11.807-9.605-21.412-21.412-21.412z" fill="#dfebfa"/><path d="m255.477 458.693v-161.224c0-11.807 9.606-21.412 21.412-21.412h-51.324c-11.807 0-21.412 9.605-21.412 21.412v161.224c0 9.514 6.425 18.899 15.354 21.558h51.324c-8.93-2.659-15.354-12.044-15.354-21.558z" fill="#b1dbfc"/><path d="m339.916 390.227c-3.598 1.803-7.835 1.803-11.433 0l-50.308-25.206v50.213c0 4.243 2.264 8.212 5.999 10.226 14.892 8.03 31.921 12.6 50.026 12.6s35.134-4.57 50.026-12.6c3.735-2.014 5.999-5.983 5.999-10.226v-50.213z" fill="#6e60b8"/><g><path d="m303.393 427.337v-49.68l-25.219-12.636v50.213c0 4.243 2.264 8.212 5.999 10.226 6.72 3.624 13.879 6.535 21.373 8.647-1.37-1.95-2.153-4.307-2.153-6.77z" fill="#6353b2"/></g><path d="m487.982 479.221h-298.165c-1.974 0-3.575 1.616-3.575 3.61v12.417c0 9.213 7.465 16.752 16.59 16.752h272.135c9.124 0 16.59-7.538 16.59-16.752v-12.417c0-1.994-1.601-3.61-3.575-3.61z" fill="#b1dbfc"/><path d="m237.567 495.248v-12.417c0-1.993 1.601-3.61 3.575-3.61h-51.324c-1.974 0-3.575 1.616-3.575 3.61v12.417c0 9.213 7.465 16.752 16.59 16.752h51.324c-9.125 0-16.59-7.539-16.59-16.752z" fill="#8bcaff"/><path d="m412.327 346.945-72.411-36.281c-3.598-1.803-7.835-1.803-11.433 0l-54.015 27.063c.481 1.453 1.486 2.758 3.064 3.548l79.142 39.653c1.63.817 3.38 1.279 5.151 1.412l50.502-25.303c4.154-2.081 4.154-8.011 0-10.092z" fill="#9790cc"/><path d="m356.008 380.335-78.06-39.111c-1.626-.815-2.653-2.178-3.098-3.688l-18.779 9.409c-4.154 2.082-4.154 8.011 0 10.092l72.411 36.281c3.598 1.803 7.835 1.803 11.433 0l23.1-11.574c-2.389.147-4.808-.307-7.007-1.409z" fill="#8479c2"/><g><path d="m415.442 424.673c-4.267 0-7.726-3.459-7.726-7.726v-57.229h-73.517c-4.267 0-7.726-3.459-7.726-7.726s3.459-7.726 7.726-7.726h81.243c4.267 0 7.726 3.459 7.726 7.726v64.955c.001 4.266-3.458 7.726-7.726 7.726z" fill="#6353b2"/></g><path d="m430.78 431.984-3.302-12.596c-1.411-5.381-6.368-8.889-11.931-8.837-.035 0-.07 0-.105 0s-.07 0-.105 0c-5.563-.053-10.52 3.456-11.931 8.837l-3.302 12.596c-1.359 5.183 2.552 10.25 7.91 10.25h14.855c5.359.001 9.27-5.067 7.911-10.25z" fill="#ffe181"/><path d="m415.714 431.985 3.302-12.596c.685-2.613 2.211-4.778 4.231-6.315-2.141-1.628-4.838-2.549-7.7-2.521-.035 0-.07 0-.105 0s-.07 0-.105 0c-5.563-.053-10.52 3.456-11.931 8.837l-3.302 12.596c-1.359 5.183 2.552 10.25 7.91 10.25h14.855c.128 0 .25-.016.377-.022-5.159-.235-8.858-5.17-7.532-10.229z" fill="#fec458"/></g></svg>