<svg id="Capa_1" enable-background="new 0 0 497 497" height="512" viewBox="0 0 497 497" width="512" xmlns="http://www.w3.org/2000/svg"><g><g><path d="m192.13 178.092c-1.919 0-3.839-.732-5.304-2.196l-84.601-84.789c-2.929-2.93-2.929-7.678 0-10.607 2.93-2.928 7.678-2.928 10.607 0l84.601 84.789c2.929 2.93 2.929 7.678 0 10.607-1.464 1.464-3.384 2.196-5.303 2.196z" fill="#ffefd2"/></g><g><path d="m304.87 178.092c-1.919 0-3.839-.732-5.304-2.196-2.929-2.93-2.929-7.678 0-10.607l84.66-84.789c2.93-2.928 7.678-2.928 10.607 0 2.929 2.93 2.929 7.678 0 10.607l-84.66 84.789c-1.465 1.464-3.385 2.196-5.303 2.196z" fill="#ffefd2"/></g><path d="m374.54 273.51c0 69.61-56.43 126.04-126.04 126.04-6.11 0-12.12-.43-18-1.27-61.08-8.74-108.04-61.27-108.04-124.77s46.96-116.03 108.04-124.77c5.88-.84 11.89-1.27 18-1.27 69.61 0 126.04 56.43 126.04 126.04z" fill="#fed402"/><path d="m35.68 72.253h41.6v379.895h-41.6z" fill="#d8aa5e"/><path d="m35.68 72.253h20.8v379.895h-20.8z" fill="#e9b665"/><path d="m419.72 77.734h41.6v368.932h-41.6z" fill="#d8aa5e"/><path d="m419.72 77.734h20.8v368.932h-20.8z" fill="#e9b665"/><path d="m497 72.52c-.45 12.79-10.5 23.61-23.6 23.61h-449.8c-12.86 0-23.6-10.74-23.6-23.61 0-12.86 10.74-23.6 23.6-23.6h33.77c0-23.63 19.32-41.73 41.63-41.73 3.54 0 7.16.46 10.78 1.42 45.54 12.08 91.14 27.21 138.72 27.21 39.3 0 77.22-10.32 114.89-20.71.01 0 .03-.01.04-.01 7.94-2.19 15.86-4.39 23.79-6.49 26.47-7.02 52.41 12.93 52.41 40.31h33.77c13.03 0 23.6 10.57 23.6 23.6z" fill="#e41f2d"/><path d="m469.5 72.52c-.45 12.79-10.5 23.61-23.6 23.61h-422.3c-12.86 0-23.6-10.74-23.6-23.61 0-12.86 10.74-23.6 23.6-23.6h33.77c0-23.63 19.32-41.73 41.63-41.73 3.54 0 7.16.46 10.78 1.42 45.54 12.08 91.14 27.21 138.72 27.21 39.3 0 77.22-10.32 114.89-20.71.01 0 .03-.01.04-.01 26.45-7 48.7 6.45 48.7 33.82h33.77c13.03 0 23.6 10.57 23.6 23.6z" fill="#fd4755"/><path d="m488.65 449.09v33.49c0 3.993-3.237 7.23-7.23 7.23h-81.8c-3.993 0-7.23-3.237-7.23-7.23v-33.49c0-11.498 9.321-20.82 20.82-20.82h54.62c11.499 0 20.82 9.321 20.82 20.82z" fill="#e41f2d"/><path d="m461.32 449.09v33.49c0 3.993-3.237 7.23-7.23 7.23h-54.47c-3.993 0-7.23-3.237-7.23-7.23v-33.49c0-11.498 9.321-20.82 20.82-20.82h27.29c11.499 0 20.82 9.321 20.82 20.82z" fill="#fd4755"/><path d="m104.61 449.09v33.49c0 3.993-3.237 7.23-7.23 7.23h-81.8c-3.993 0-7.23-3.237-7.23-7.23v-33.49c0-11.498 9.321-20.82 20.82-20.82h54.62c11.499 0 20.82 9.321 20.82 20.82z" fill="#e41f2d"/><path d="m77.28 449.1v33.48c0 3.993-3.237 7.23-7.23 7.23h-54.47c-3.993 0-7.23-3.237-7.23-7.23v-33.49c0-11.498 9.321-20.82 20.82-20.82h27.28c11.504 0 20.83 9.326 20.83 20.83z" fill="#fd4755"/><path d="m345.3 273.51c0 53.46-43.34 96.81-96.8 96.81-5.8 0-11.49-.51-17.01-1.49-45.35-8.04-79.79-47.66-79.79-95.32s34.44-87.27 79.79-95.31c5.52-.98 11.21-1.49 17.01-1.49 53.46 0 96.8 43.34 96.8 96.8z" fill="#fac600"/><path d="m311.27 273.51c0 47.65-34.44 87.27-79.78 95.32-45.35-8.04-79.79-47.66-79.79-95.32s34.44-87.27 79.79-95.31c45.34 8.04 79.78 47.66 79.78 95.31z" fill="#fed402"/><path d="m273.51 273.51c0 13.81-11.2 25.01-25.01 25.01-3.55 0-6.94-.74-10-2.09-8.84-3.85-15.01-12.67-15.01-22.92s6.17-19.07 15.01-22.92c3.06-1.35 6.45-2.09 10-2.09 13.81 0 25.01 11.2 25.01 25.01z" fill="#fac600"/><ellipse cx="238.5" cy="273.51" fill="#fed402" rx="15.01" ry="22.92"/><g><path d="m248.5 306.022c-17.927 0-32.512-14.584-32.512-32.511s14.585-32.511 32.512-32.511 32.512 14.585 32.512 32.512-14.585 32.51-32.512 32.51zm0-50.022c-9.656 0-17.512 7.855-17.512 17.512 0 9.655 7.855 17.511 17.512 17.511s17.512-7.855 17.512-17.511c0-9.657-7.856-17.512-17.512-17.512z" fill="#fac600"/></g><g><path d="m84.78 324.34c0 4.14-3.36 7.5-7.5 7.5h-41.6c-4.14 0-7.5-3.36-7.5-7.5s3.36-7.5 7.5-7.5h41.6c4.14 0 7.5 3.36 7.5 7.5z" fill="#e41f2d"/></g><g><path d="m63.98 324.34c0 4.14-3.36 7.5-7.5 7.5h-20.8c-4.14 0-7.5-3.36-7.5-7.5s3.36-7.5 7.5-7.5h20.8c4.14 0 7.5 3.36 7.5 7.5z" fill="#fd4755"/></g><g><path d="m468.82 324.34c0 4.14-3.36 7.5-7.5 7.5h-41.6c-4.14 0-7.5-3.36-7.5-7.5s3.36-7.5 7.5-7.5h41.6c4.14 0 7.5 3.36 7.5 7.5z" fill="#e41f2d"/></g><g><path d="m448.02 324.34c0 4.14-3.36 7.5-7.5 7.5h-20.8c-4.14 0-7.5-3.36-7.5-7.5s3.36-7.5 7.5-7.5h20.8c4.14 0 7.5 3.36 7.5 7.5z" fill="#fd4755"/></g><g><path d="m248.5 377.82c-6.159 0-12.323-.54-18.321-1.605-49.819-8.832-85.979-52.027-85.979-102.705 0-50.673 36.16-93.862 85.98-102.694 5.996-1.065 12.16-1.605 18.319-1.605 57.511 0 104.3 46.789 104.3 104.3.001 57.515-46.788 104.309-104.299 104.309zm0-193.61c-5.281 0-10.563.463-15.698 1.375-42.648 7.561-73.602 44.538-73.602 87.925 0 43.393 30.953 80.375 73.6 87.936 5.137.912 10.419 1.375 15.7 1.375 49.24 0 89.3-40.064 89.3-89.311 0-49.24-40.06-89.3-89.3-89.3z" fill="#fac600"/></g></g></svg>