<svg id="Capa_1" enable-background="new 0 0 512 512" height="512" viewBox="0 0 512 512" width="512" xmlns="http://www.w3.org/2000/svg"><g><g><path d="m367.221 455.136c-4.267 0-7.726-3.459-7.726-7.726v-45.468c0-4.267 3.459-7.726 7.726-7.726s7.726 3.459 7.726 7.726v45.468c0 4.267-3.459 7.726-7.726 7.726z" fill="#8479c2"/></g><path d="m98.288 190.491v-45.278h-8.741c-2.089 0-4.088-.366-5.959-1.009-8.667 3.896-15.324 13.939-15.324 23.852 0 14.178 14.17 25.808 30.064 24.064-.015-.543-.04-1.084-.04-1.629z" fill="#ffb1a0"/><path d="m98.288 188.422c-7.456-4.344-12.511-11.899-12.511-20.366 0-8.808 5.26-17.706 12.511-22.317v-.526h-8.741c-2.089 0-4.088-.366-5.959-1.009-8.667 3.896-15.324 13.939-15.324 23.852 0 14.178 14.17 25.809 30.064 24.064-.014-.543-.04-1.084-.04-1.629z" fill="#ffa68e"/><g><path d="m232.316 171.657h19.055c.038-.537.064-3.138.064-3.684 0-10.777-7.018-21.915-17.263-25.156-1.977 1.496-4.426 2.396-7.082 2.396-1.593 0-4.178-.171-5.679-.489v40.929c0-5.454 5.451-13.996 10.905-13.996z" fill="#ffb1a0"/></g><path d="m240.047 145.767c-1.803-1.265-3.765-2.282-5.875-2.949-1.977 1.495-4.427 2.395-7.082 2.395-1.593 0-4.178-.171-5.679-.489v40.929c0-5.454 5.451-13.996 10.905-13.996h7.731z" fill="#ffa68e"/><g><path d="m254.208 402.646c-6.683 0-12.101-5.418-12.101-12.101v-105.908c-3.917-1.517-9.87-3.024-13.617-4.476-34.29 34.29-32.531 32.744-36.284 35.639-21.023 16.217-51.019 14.342-69.885-4.525l-31.249-31.249-57.237 22.354c-14.465 5.955-33.835 24.686-33.835 52.483v109.361c0 6.227 5.048 11.275 11.275 11.275h297.148c6.228 0 11.275-5.048 11.275-11.275 0-2.232 0-34.606 0-61.578z" fill="#695d67"/></g><g><path d="m27.674 343.422c0-24.327 14.837-41.711 28.238-49.662l-22.076 8.622c-14.466 5.953-33.836 24.684-33.836 52.481v109.361c0 6.227 5.048 11.275 11.275 11.275h16.399c0-47.489 0-124.759 0-132.077z" fill="#544e55"/></g><path d="m257.268 475.499h15.453v-72.853h-15.453z" fill="#544e55"/><path d="m62.43 475.499v-111.524c0-4.267-3.459-7.726-7.726-7.726s-7.726 3.459-7.726 7.726v111.524z" fill="#544e55"/><path d="m170.284 293.473 24.916-27.829c-.476-.886-.753-1.886-.756-2.938l-.017-23.654c-21.992 14.391-49.82 12.446-69.209-.092v23.708c0 1.253-.296 2.252-.761 3.063l24.829 27.742c.553.547.915 1.206 1.126 1.9h18.746c.211-.694.573-1.353 1.126-1.9z" fill="#ffb1a0"/><g><path d="m158.86 294.293-.001-45.188c-12.134-.252-23.944-3.873-33.642-10.145v23.708c0 1.253-.297 2.252-.762 3.063l24.829 27.742c.553.547.914 1.206 1.126 1.9h8.417c.02-.353.033-.71.033-1.08z" fill="#ffa68e"/></g><path d="m240.047 201.149v191.457c0 6.683 5.418 12.101 12.101 12.101h230.145c6.683 0 12.101-5.418 12.101-12.101v-191.457z" fill="#dfebfa"/><path d="m297.737 392.605v-191.456h-57.69v191.457c0 6.683 5.418 12.101 12.101 12.101h57.69c-6.683 0-12.101-5.418-12.101-12.102z" fill="#b1dbfc"/><path d="m367.22 442.58c-9.09 0-16.46 7.369-16.46 16.46 0 9.09 7.369 16.46 16.46 16.46s16.46-7.369 16.46-16.46-7.369-16.46-16.46-16.46z" fill="#dfebfa"/><path d="m366.042 459.04c0-6.331 3.579-11.819 8.819-14.572-2.284-1.2-4.881-1.888-7.641-1.888-9.09 0-16.46 7.369-16.46 16.46 0 9.09 7.369 16.46 16.46 16.46 2.76 0 5.356-.687 7.641-1.888-5.241-2.754-8.819-8.242-8.819-14.572z" fill="#b1dbfc"/><path d="m502.125 169.597h-269.809c-5.454 0-9.875 4.421-9.875 9.875v14.892c0 5.454 4.421 9.875 9.875 9.875h269.809c5.454 0 9.875-4.421 9.875-9.875v-14.892c0-5.454-4.421-9.875-9.875-9.875z" fill="#8479c2"/><path d="m295.069 194.364v-14.892c0-5.454 4.421-9.875 9.875-9.875h-72.628c-5.454 0-9.875 4.421-9.875 9.875v14.892c0 5.454 4.421 9.875 9.875 9.875h72.628c-5.454 0-9.875-4.421-9.875-9.875z" fill="#6e60b8"/><g><g><path d="m454.591 314.052h-49.449c-4.267 0-7.726-3.459-7.726-7.726s3.459-7.726 7.726-7.726h49.449c4.267 0 7.726 3.459 7.726 7.726s-3.459 7.726-7.726 7.726z" fill="#b1dbfc"/></g></g><g><g><path d="m454.591 345.811h-49.449c-4.267 0-7.726-3.459-7.726-7.726s3.459-7.726 7.726-7.726h49.449c4.267 0 7.726 3.459 7.726 7.726s-3.459 7.726-7.726 7.726z" fill="#b1dbfc"/></g></g><g><g><path d="m454.591 282.292h-49.449c-4.267 0-7.726-3.459-7.726-7.726s3.459-7.726 7.726-7.726h49.449c4.267 0 7.726 3.459 7.726 7.726s-3.459 7.726-7.726 7.726z" fill="#b1dbfc"/></g></g><path d="m302.426 303.439h-22.164c-2.635 0-4.77 2.136-4.77 4.77v36.183c0 2.066 1.675 3.74 3.74 3.74h27.965v-39.922c-.001-2.635-2.136-4.771-4.771-4.771z" fill="#43cb8e"/><path d="m291.883 308.21c0-2.635 2.136-4.77 4.77-4.77h-16.392c-2.635 0-4.77 2.136-4.77 4.77v36.183c0 2.066 1.675 3.74 3.74 3.74h12.652z" fill="#00ba66"/><path d="m333.101 284.336h-22.164c-2.635 0-4.77 2.136-4.77 4.77v59.027h31.705v-59.027c-.001-2.634-2.137-4.77-4.771-4.77z" fill="#ffe181"/><path d="m327.329 284.336h-16.392c-2.635 0-4.77 2.136-4.77 4.77v59.027h16.392v-59.027c-.001-2.634 2.135-4.77 4.77-4.77z" fill="#fec458"/><path d="m362.696 264.517h-21.134c-2.635 0-4.77 2.136-4.77 4.77v78.846h26.935c2.066 0 3.74-1.675 3.74-3.74v-75.106c-.001-2.634-2.136-4.77-4.771-4.77z" fill="#ff7f87"/><path d="m357.954 264.517h-16.392c-2.635 0-4.77 2.136-4.77 4.77v78.846h16.392v-78.846c0-2.634 2.136-4.77 4.77-4.77z" fill="#ff656f"/><path d="m169.158 292.283h-18.746c.47 1.543-1.941 3.283-3.158 4.508l-19.835 22.044c19.025 14.728 45.744 14.747 64.789.057l-19.892-22.1c-1.217-1.225-3.628-2.966-3.158-4.509z" fill="#fec458"/><path d="m198.442 268.525c-1.421-.55-2.549-1.591-3.242-2.88l-24.916 24.738c-1.78 1.761-1.793 4.632-.029 6.409l21.952 22.1c1.793-1.383 3.526-2.882 5.17-4.525l33.342-33.342c-16.452-6.372-30.599-11.85-32.277-12.5z" fill="#ffe181"/><path d="m124.456 265.731c-.491.857-1.171 1.503-1.904 2.001l-33.702 13.163 33.471 33.471c1.621 1.621 3.33 3.101 5.096 4.469l21.896-22.044c1.765-1.776 1.752-4.648-.029-6.409z" fill="#ffe181"/><path d="m204.589 120.652c0-1.206-1.614-1.621-2.183-.558-7.336 13.72-21.792 23.059-38.438 23.059h-27.664v47.182c0 26.008 16.1 50.217 42.084 59.27 25.448-7.61 44.053-31.225 44.053-59.114v-47.828c-10.164-2.157-17.852-11.228-17.852-22.011z" fill="#ffcebe"/><g><path d="m137.237 190.491v-47.338h-39.98v47.338c0 32.246 25.266 61.698 63.485 61.698 6.758 0 13.259-1.108 19.349-3.125-26.411-8.386-42.854-32.565-42.854-58.573z" fill="#ffb1a0"/></g><path d="m218.433 65.027c-5.895.453-11.304-3.254-12.439-9.056-1.911-9.772-6.749-19.47-25.649-19.47h-65.571c-24.065 0-43.574 19.509-43.574 43.574v47.822c0 10.133 8.214 18.347 18.347 18.347h74.421c16.646 0 31.102-9.338 38.438-23.059.569-1.064 2.183-.648 2.183.558 0 12.376 10.125 22.501 22.501 22.501 6.487 0 11.794-5.307 11.794-11.795 0-18.129 0-31.371 0-49.904.001-11.757-10.257-20.302-20.451-19.518z" fill="#695d67"/><g><path d="m107.257 128.892v-49.125c0-20.748 14.12-38.193 33.272-43.266h-25.756c-24.065 0-43.574 19.509-43.574 43.574v47.822c0 10.133 8.214 18.347 18.347 18.347h29.193c-6.748-2.869-11.482-9.557-11.482-17.352z" fill="#544e55"/></g></g></svg>