<svg id="Capa_1" enable-background="new 0 0 497 497" height="512" viewBox="0 0 497 497" width="512" xmlns="http://www.w3.org/2000/svg"><g><path d="m119.73 91.772v243.64c0 10.76-6.54 17.42-14.61 17.42-2.8-.02-5.23-.79-7.26-2.11-4.78-3.08-7.34-9.14-7.34-15.31v-243.64z" fill="#d8aa5e"/><path d="m105.12 91.772v243.64c0 7.19-2.92 12.55-7.26 15.31-4.78-3.08-7.34-9.14-7.34-15.31v-243.64z" fill="#e9b665"/><path d="m179.36 91.772v221.07c0 10.76-6.54 17.45-14.61 17.42-2.8-.01-5.23-.78-7.26-2.1-4.78-3.07-7.34-9.15-7.34-15.32v-221.07z" fill="#d8aa5e"/><path d="m164.75 91.772v221.07c0 7.19-2.92 12.56-7.26 15.32-4.78-3.07-7.34-9.15-7.34-15.32v-221.07z" fill="#e9b665"/><path d="m238.99 91.772v198.49c0 10.76-6.54 17.45-14.6 17.42-2.81-.01-5.24-.78-7.27-2.1-4.78-3.07-7.34-9.15-7.34-15.32v-198.49z" fill="#d8aa5e"/><path d="m224.39 91.772v198.49c0 7.19-2.92 12.57-7.27 15.32-4.78-3.07-7.34-9.15-7.34-15.32v-198.49z" fill="#e9b665"/><path d="m298.62 91.772v175.92c0 10.76-6.54 17.45-14.6 17.42-2.8-.01-5.24-.78-7.27-2.1-4.78-3.08-7.34-9.15-7.34-15.32v-175.92z" fill="#d8aa5e"/><path d="m284.02 91.772v175.92c0 7.19-2.92 12.57-7.27 15.32-4.78-3.08-7.34-9.15-7.34-15.32v-175.92z" fill="#e9b665"/><path d="m358.25 91.772v153.35c0 10.75-6.54 17.44-14.6 17.42-2.81-.01-5.24-.79-7.27-2.1-4.78-3.08-7.34-9.15-7.34-15.32v-153.35z" fill="#d8aa5e"/><path d="m343.65 91.772v153.35c0 7.18-2.92 12.56-7.27 15.32-4.78-3.08-7.34-9.15-7.34-15.32v-153.35z" fill="#e9b665"/><path d="m31.99 92.247h28.29v317.509h-28.29z" fill="#d7d0d6"/><path d="m31.99 92.247h14.14v317.509h-14.14z" fill="#e5e1e5"/><path d="m417.89 91.772v130.77c0 10.76-6.54 17.42-14.61 17.42-2.8-.02-5.24-.8-7.27-2.11-4.78-3.09-7.34-9.14-7.34-15.31v-130.77z" fill="#d8aa5e"/><path d="m403.28 91.772v130.77c0 7.19-2.92 12.55-7.27 15.31-4.78-3.09-7.34-9.14-7.34-15.31v-130.77z" fill="#e9b665"/><path d="m448.12 92.247h28.29v317.509h-28.29z" fill="#d7d0d6"/><path d="m462.27 92.258v317.488c0 .006-.004.011-.01.011h-14.14v-317.51h14.14c.006 0 .01.005.01.011z" fill="#e5e1e5"/><path d="m496.998 83.895c.079 5.793-2.235 11.054-6.028 14.847-3.73 3.72-8.87 6.03-14.56 6.03h-455.291c-11.349 0-20.963-8.957-21.117-20.304-.079-5.793 2.236-11.053 6.028-14.846 3.73-3.72 8.87-6.03 14.56-6.03h455.291c11.349-.001 20.963 8.955 21.117 20.303z" fill="#465a61"/><path d="m472.888 83.901c.077 5.791-2.247 11.049-6.028 14.841-3.73 3.72-8.88 6.03-14.56 6.03h-431.181c-11.349 0-20.963-8.957-21.117-20.304-.079-5.793 2.236-11.053 6.028-14.846 3.73-3.72 8.87-6.03 14.56-6.03h431.171c11.353-.001 20.975 8.957 21.127 20.309z" fill="#596c76"/><path d="m73.29 406.512v31.76c0 5.13-4.16 9.28-9.28 9.28h-35.75c-5.13 0-9.28-4.15-9.28-9.28v-31.76c0-5.13 4.15-9.28 9.28-9.28h35.75c5.12 0 9.28 4.149 9.28 9.28z" fill="#465a61"/><path d="m54.31 406.512v31.76c0 5.13-4.15 9.28-9.28 9.28h-16.77c-5.13 0-9.28-4.15-9.28-9.28v-31.76c0-5.13 4.15-9.28 9.28-9.28h16.77c5.13 0 9.28 4.149 9.28 9.28z" fill="#596c76"/><path d="m489.42 406.512v31.76c0 5.13-4.15 9.28-9.28 9.28h-35.75c-5.12 0-9.28-4.15-9.28-9.28v-31.76c0-5.13 4.16-9.28 9.28-9.28h35.75c5.13 0 9.28 4.149 9.28 9.28z" fill="#465a61"/><path d="m469.42 406.512v31.76c0 5.13-4.15 9.28-9.28 9.28h-15.75c-5.12 0-9.28-4.15-9.28-9.28v-31.76c0-5.13 4.16-9.28 9.28-9.28h15.75c5.13 0 9.28 4.149 9.28 9.28z" fill="#596c76"/><path d="m115.684 77.736h-47.735c-4.237 0-7.672-3.435-7.672-7.672v-12.943c0-4.237 3.435-7.672 7.672-7.672h47.734v28.287z" fill="#a44f3e"/><path d="m115.684 49.448h55.407v28.287h-55.407z" fill="#bb5d4c"/><path d="m171.091 49.448h55.407v28.287h-55.407z" fill="#a44f3e"/><path d="m226.497 49.448h55.407v28.287h-55.407z" fill="#bb5d4c"/><path d="m281.904 49.448h55.407v28.287h-55.407z" fill="#a44f3e"/><path d="m337.311 49.448h55.407v28.287h-55.407z" fill="#bb5d4c"/><path d="m440.453 77.736h-47.734v-28.288h47.734c4.237 0 7.672 3.435 7.672 7.672v12.943c0 4.238-3.435 7.673-7.672 7.673z" fill="#a44f3e"/></g></svg>