<svg id="Capa_1" enable-background="new 0 0 512 512" height="512" viewBox="0 0 512 512" width="512" xmlns="http://www.w3.org/2000/svg"><g><g><path d="m409.306 444.953 4.995-15.736v-401.742c0-11.036-8.946-19.982-19.982-19.982h-284.065c-11.036 0-19.982 8.946-19.982 19.982v401.743l4.995 15.736h314.039z" fill="#61a2f9"/></g><g><path d="m394.319 7.493h-15.938v437.46h30.925l4.995-15.736v-401.742c0-11.036-8.946-19.982-19.982-19.982z" fill="#4a81f6"/></g><g><path d="m90.272 429.217v55.308c0 11.036 8.946 19.982 19.982 19.982h284.066c11.036 0 19.982-8.946 19.982-19.982v-55.308z" fill="#dae7ef"/></g><g><path d="m378.381 429.217v19.387c0 11.036-8.946 19.982-19.982 19.982h-268.127v15.938c0 11.036 8.946 19.982 19.982 19.982h284.066c11.036 0 19.982-8.946 19.982-19.982v-55.308h-35.921z" fill="#c1d5e4"/></g><g><path d="m394.32 512h-284.066c-15.149 0-27.475-12.325-27.475-27.475v-457.05c0-15.15 12.326-27.475 27.475-27.475h284.066c15.149 0 27.475 12.325 27.475 27.475v457.05c0 15.15-12.326 27.475-27.475 27.475zm-284.066-497.014c-6.886 0-12.489 5.602-12.489 12.489v457.05c0 6.886 5.602 12.489 12.489 12.489h284.066c6.886 0 12.489-5.602 12.489-12.489v-457.05c0-6.886-5.602-12.489-12.489-12.489z" fill="#98b9d3"/></g><g><path d="m276.452 476.354h-48.332c-4.139 0-7.493-3.355-7.493-7.493s3.354-7.493 7.493-7.493h48.332c4.139 0 7.493 3.355 7.493 7.493s-3.354 7.493-7.493 7.493z" fill="#407093"/></g><g><path d="m215.547 275.851h-147.496c-11.046 0-20-8.954-20-20v-187.46c0-11.046 8.954-20 20-20h147.496c11.046 0 20 8.954 20 20v187.459c0 11.047-8.954 20.001-20 20.001z" fill="#dd5790"/></g><g><path d="m443.949 363.114h-147.496c-11.046 0-20-8.954-20-20v-187.46c0-11.046 8.954-20 20-20h147.496c11.046 0 20 8.954 20 20v187.459c0 11.046-8.955 20.001-20 20.001z" fill="#f6e266"/></g><g><path d="m215.565 48.391h-6.14v181.356c0 11.036-8.946 19.982-19.982 19.982h-141.392v6.14c0 11.036 8.946 19.982 19.982 19.982h95.786c2.65 0 5.191 1.053 7.065 2.926l32.042 32.043c1.859 1.859 5.037.542 5.037-2.086v-28.886c0-2.207 1.789-3.996 3.996-3.996h3.606c11.036 0 19.982-8.946 19.982-19.982v-187.497c0-11.036-8.946-19.982-19.982-19.982z" fill="#da387d"/></g><g><path d="m443.967 135.654h-6.14v181.356c0 11.036-8.946 19.982-19.982 19.982h-141.392v6.14c0 11.036 8.946 19.982 19.982 19.982h3.606c2.207 0 3.996 1.789 3.996 3.996v29.542c0 2.628 3.178 3.945 5.037 2.086l32.699-32.699c1.874-1.874 4.415-2.926 7.065-2.926h95.13c11.036 0 19.982-8.946 19.982-19.982v-187.495c-.001-11.036-8.947-19.982-19.983-19.982z" fill="#ecc32e"/></g><path d="m201.519 154.716h-5.65v-24.453l-2-9.104c0-6.186-3.015-11.201-9.201-11.201h-86.882c-6.186 0-9.201 5.015-9.201 11.201l-2 9.104v24.453h-5.65c-4.971 0-9 4.029-9 9v5.706c0 9.515 6.956 17.384 16.055 18.856 2.408 10.601 7.864 20.369 15.85 28.008l12.704 12.151c13.806 13.206 35.56 13.206 49.366 0l12.704-12.151c7.986-7.639 13.442-17.407 15.85-28.008 9.099-1.472 16.055-9.341 16.055-18.856v-5.706c0-4.971-4.029-9-9-9z" fill="#ffcbbe"/><g><path d="m369.275 210.809c20.211 0 36.995 5.369 52.642 14.564l2-3.524v-9.34c0-22.89-18.556-41.445-41.445-41.445h-26.393c-22.89 0-41.445 18.556-41.445 41.445v9.34l2 3.524c15.646-9.195 32.43-14.564 52.641-14.564z" fill="#2b4d66"/></g><g><path d="m141.227 115.699c20.211 0 38.995 5.369 54.642 14.564v-33.109c0-6.186-5.015-11.201-11.201-11.201h-86.882c-6.186 0-11.201 5.015-11.201 11.201v33.108c15.647-9.195 34.431-14.563 54.642-14.563z" fill="#aa593d"/></g><g><path d="m122.68 193.311c-.986 0-1.679.979-1.354 1.91 2.878 8.229 10.69 14.137 19.901 14.137s17.023-5.909 19.901-14.137c.325-.931-.368-1.91-1.354-1.91z" fill="#f9f6f6"/></g><g><circle cx="165.038" cy="163.393" fill="#4a81f6" r="8.238"/></g><g><circle cx="117.416" cy="163.393" fill="#4a81f6" r="8.238"/></g><path d="m429.567 241.826h-5.65v-19.978c0-11.046-8.954-20-20-20h-69.284c-11.046 0-20 8.954-20 20v19.978h-5.65c-4.971 0-9 4.029-9 9v5.706c0 9.515 6.956 17.384 16.055 18.856 2.408 10.601 7.864 20.369 15.85 28.008l12.704 12.151c13.806 13.206 35.56 13.206 49.366 0l12.704-12.152c7.986-7.639 13.442-17.407 15.85-28.008 9.099-1.472 16.055-9.341 16.055-18.856v-5.706c0-4.969-4.029-8.999-9-8.999z" fill="#eaac9d"/><g><path d="m350.728 280.421c-.986 0-1.68.979-1.354 1.91 2.878 8.229 10.69 14.137 19.901 14.137s17.023-5.909 19.901-14.137c.326-.931-.368-1.91-1.354-1.91z" fill="#f9f6f6"/></g><g><circle cx="393.086" cy="250.504" fill="#4a81f6" r="8.238"/></g><g><circle cx="345.464" cy="250.504" fill="#4a81f6" r="8.238"/></g></g></svg>