<svg id="Capa_1" enable-background="new 0 0 512.071 512.071" height="512" viewBox="0 0 512.071 512.071" width="512" xmlns="http://www.w3.org/2000/svg"><g><g><path d="m463.261 463.208h-354.144c-11.046 0-20-8.954-20-20v-416.364c0-11.046 8.954-20 20-20h354.144c11.046 0 20 8.954 20 20v416.364c0 11.045-8.954 20-20 20z" fill="#dae7ef"/></g><path d="m463.261 6.844h-18.951v397.413c0 11.046-8.954 20-20 20h-335.192v18.951c0 11.046 8.954 20 20 20h354.144c11.046 0 20-8.954 20-20v-416.364c-.001-11.046-8.955-20-20.001-20z" fill="#c1d5e4"/><g><path d="m422.268 347.994h-272.157c-4.418 0-8-3.582-8-8v-272.156c0-4.418 3.582-8 8-8h272.157c4.418 0 8 3.582 8 8v272.157c0 4.418-3.582 7.999-8 7.999z" fill="#f6e266"/></g><g><path d="m321.184 386.282 6.948 12.704c.283.518.709.944 1.227 1.227l12.704 6.948c2.14 1.171 2.14 4.244 0 5.415l-12.704 6.948c-.518.283-.944.709-1.227 1.227l-6.948 12.704c-1.171 2.14-4.244 2.14-5.415 0l-6.948-12.704c-.283-.518-.709-.944-1.227-1.227l-12.704-6.948c-2.14-1.171-2.14-4.244 0-5.415l12.704-6.948c.518-.283.944-.709 1.227-1.227l6.948-12.704c1.17-2.14 4.244-2.14 5.415 0z" fill="#f6e266"/></g><g><g><path d="m342.062 407.161-10.882-5.951c-.095.067-.172.148-.278.206l-12.704 6.948c-.518.283-.944.709-1.227 1.227l-6.948 12.704c-.058.106-.14.183-.206.278l5.951 10.882c1.171 2.14 4.244 2.14 5.415 0l6.948-12.704c.283-.518.709-.944 1.227-1.227l12.704-6.948c2.141-1.171 2.141-4.245 0-5.415z" fill="#ecc32e"/></g></g><g><circle cx="261.659" cy="388.676" fill="#f6e266" r="11.257"/></g><g><circle cx="209.729" cy="421.125" fill="#f6e266" r="11.257"/></g><g><path d="m420.179 347.994c-13.752-46.306-56.626-80.083-107.396-80.083h-53.188c-50.77 0-93.644 33.777-107.396 80.083z" fill="#f6f9f9"/></g><g><path d="m322.02 254.228v-39.146h-71.661v39.146c0 6.876-2.686 13.48-7.486 18.403l-.211.216c-2.686 2.755-4.189 6.45-4.189 10.298 0 15.367 12.457 27.824 27.824 27.824h39.786c15.367 0 27.824-12.457 27.824-27.824 0-3.848-1.503-7.543-4.189-10.298l-.211-.216c-4.801-4.923-7.487-11.527-7.487-18.403z" fill="#eaac9d"/></g><g><path d="m510.314 487.407-16.063 16.063c-2.343 2.343-6.142 2.343-8.485 0l-141.716-141.716c-2.343-2.343-2.343-6.142 0-8.485l16.063-16.063c2.343-2.343 6.142-2.343 8.485 0l141.716 141.716c2.343 2.342 2.343 6.141 0 8.485z" fill="#407093"/></g><path d="m510.314 478.921-141.716-141.715c-2.343-2.343-6.142-2.343-8.485 0l-6.445 6.445 135.271 135.271c2.343 2.343 2.343 6.142 0 8.485l-9.618 9.618 6.445 6.445c2.343 2.343 6.142 2.343 8.485 0l16.063-16.063c2.343-2.344 2.343-6.143 0-8.486z" fill="#2b4d66"/><g><g><path d="m141.107 283.341c-9.492 0-17.188-7.695-17.188-17.188v-108.79h-106.731c-9.493.001-17.188-7.695-17.188-17.187s7.695-17.188 17.188-17.188h123.92c9.492 0 17.188 7.695 17.188 17.188v125.977c-.001 9.493-7.696 17.188-17.189 17.188z" fill="#407093"/></g></g><path d="m141.107 122.988h-13.5c9.492 0 17.188 7.695 17.188 17.188v125.977c0 7.096-4.302 13.185-10.438 15.808 2.073.886 4.353 1.38 6.75 1.38 9.492 0 17.188-7.695 17.188-17.188v-125.977c0-9.492-7.695-17.188-17.188-17.188z" fill="#2b4d66"/><g><path d="m57.937 231.061c-1.974 0-3.949-.753-5.456-2.259-3.013-3.014-3.013-7.898 0-10.911l125.978-125.978c3.014-3.012 7.898-3.012 10.911 0 3.013 3.014 3.013 7.898 0 10.911l-125.977 125.978c-1.507 1.506-3.482 2.259-5.456 2.259z" fill="#2b4d66"/></g><g><g><path d="m183.914 240.534h-125.977c-9.492 0-17.188-7.695-17.188-17.188v-125.977c0-9.492 7.695-17.188 17.188-17.188s17.188 7.695 17.188 17.188v108.79h108.79c9.492 0 17.188 7.695 17.188 17.188-.001 9.492-7.697 17.187-17.189 17.187z" fill="#407093"/></g></g><g><path d="m186.093 206.312c.065.607.103 1.223.103 1.847 0 9.492-7.695 17.188-17.188 17.188h-125.978c-.74 0-1.464-.062-2.179-.153.922 8.623 8.217 15.341 17.085 15.341h125.977c9.492 0 17.188-7.695 17.188-17.188.001-8.753-6.547-15.962-15.008-17.035z" fill="#2b4d66"/></g><g><path d="m304.616 111.415h-36.853c-17.933 0-32.471 14.538-32.471 32.471v24.812h101.794v-24.812c.001-17.933-14.537-32.471-32.47-32.471z" fill="#be694f"/></g><g><path d="m345.633 173.002h-8.546v-15.003c0-4.345-3.522-7.868-7.868-7.868h-86.059c-4.345 0-7.868 3.523-7.868 7.868v15.003h-8.546c-3.409 0-6.172 2.763-6.172 6.172v17.265c0 6.817 5.526 12.344 12.344 12.344h3.287c1.996 10.606 7.246 20.42 15.16 27.991l11.833 11.319c12.86 12.301 33.123 12.301 45.983 0l11.833-11.319c7.914-7.57 13.164-17.384 15.16-27.991h3.287c6.817 0 12.344-5.527 12.344-12.344v-17.265c0-3.408-2.764-6.172-6.172-6.172z" fill="#eaac9d"/></g></g></svg>