<svg id="Capa_1" enable-background="new 0 0 497 497" height="512" viewBox="0 0 497 497" width="512" xmlns="http://www.w3.org/2000/svg"><g><path d="m423.84 12.17v456.91c0 15.42-12.5 27.92-27.92 27.92h-294.84c-15.42 0-27.92-12.5-27.92-27.92v-456.91c0-6.721 5.449-12.17 12.17-12.17h326.34c6.721 0 12.17 5.449 12.17 12.17z" fill="#a44f3e"/><path d="m392.17 16.622v452.458c0 15.42-12.51 27.92-27.943 27.92h-263.124c-15.432 0-27.943-12.5-27.943-27.92v-456.91c0-6.721 5.453-12.17 12.18-12.17h290.195c9.187 0 16.635 7.442 16.635 16.622z" fill="#bb5d4c"/><path d="m328.31 323.02c0 44.08-35.73 79.82-79.81 79.82-5.95 0-11.75-.65-17.33-1.89-35.75-7.91-62.48-39.8-62.48-77.93s26.73-70.01 62.48-77.92c5.58-1.24 11.38-1.89 17.33-1.89 44.08 0 79.81 35.73 79.81 79.81z" fill="#465a61"/><path d="m293.65 323.02c0 38.13-26.74 70.01-62.48 77.93-35.75-7.91-62.48-39.8-62.48-77.93s26.73-70.01 62.48-77.92c35.74 7.92 62.48 39.79 62.48 77.92z" fill="#596c76"/><path d="m136.76 30.98v172.22c0 8.82-7.15 15.97-15.96 15.97-2.82-.06-5.52-.86-7.86-2.21-4.79-2.76-8.11-7.86-8.11-13.76v-160.05c0-6.721 5.449-12.17 12.17-12.17z" fill="#d7d0d6"/><path d="m120.79 30.98v172.22c0 5.86-3.15 10.98-7.85 13.76-4.79-2.76-8.11-7.86-8.11-13.76v-160.05c0-6.721 5.449-12.17 12.17-12.17z" fill="#e5e1e5"/><path d="m168.69 30.98v192.22c0 8.82-7.15 15.97-15.97 15.97-2.82-.06-5.52-.86-7.86-2.21-4.78-2.76-8.1-7.86-8.1-13.76v-192.22z" fill="#d7d0d6"/><path d="m152.72 30.98v192.22c0 5.86-3.15 10.99-7.86 13.76-4.78-2.76-8.1-7.86-8.1-13.76v-192.22z" fill="#e5e1e5"/><path d="m200.61 30.98v212.22c0 8.82-7.15 15.97-15.96 15.97-2.83-.06-5.51-.85-7.85-2.21-4.79-2.76-8.11-7.85-8.11-13.76v-212.22z" fill="#d7d0d6"/><path d="m184.65 30.98v212.22c0 5.86-3.15 10.98-7.85 13.76-4.79-2.76-8.11-7.85-8.11-13.76v-212.22z" fill="#e5e1e5"/><path d="m232.54 30.98v232.22c0 8.82-7.15 15.97-15.97 15.97-2.83-.06-5.51-.85-7.85-2.21-4.79-2.76-8.11-7.85-8.11-13.76v-232.22z" fill="#d7d0d6"/><path d="m216.57 30.98v232.22c0 5.86-3.15 10.98-7.85 13.76-4.79-2.76-8.11-7.85-8.11-13.76v-232.22z" fill="#e5e1e5"/><path d="m380 30.98c6.721 0 12.17 5.449 12.17 12.17v160.05c0 8.79-7.36 15.78-15.97 15.97-2.95 0-5.73-.81-8.1-2.21-4.7-2.78-7.86-7.9-7.86-13.76v-172.22z" fill="#d7d0d6"/><path d="m376.2 30.98v172.22c0 5.9-3.32 11-8.1 13.76-4.7-2.78-7.86-7.9-7.86-13.76v-172.22z" fill="#e5e1e5"/><path d="m360.24 30.98v192.22c0 8.79-7.35 15.78-15.96 15.97-2.96 0-5.73-.81-8.11-2.21-4.71-2.78-7.86-7.9-7.86-13.76v-192.22z" fill="#d7d0d6"/><path d="m344.28 30.98v192.22c0 5.9-3.32 11-8.11 13.76-4.71-2.78-7.86-7.9-7.86-13.76v-192.22z" fill="#e5e1e5"/><path d="m328.31 30.98v212.22c0 8.79-7.35 15.78-15.96 15.97-2.96 0-5.73-.81-8.1-2.21-4.71-2.78-7.86-7.9-7.86-13.76v-212.22z" fill="#d7d0d6"/><path d="m312.35 30.98v212.22c0 5.9-3.31 10.99-8.1 13.76-4.71-2.78-7.86-7.9-7.86-13.76v-212.22z" fill="#e5e1e5"/><path d="m296.39 30.98v232.22c0 8.79-7.35 15.78-15.96 15.97-2.96 0-5.73-.81-8.11-2.21-4.71-2.78-7.86-7.9-7.86-13.76v-232.22z" fill="#d7d0d6"/><path d="m280.43 30.98v232.22c0 5.899-3.319 10.998-8.107 13.758-.002 0-.004 0-.005 0-4.709-2.78-7.857-7.899-7.857-13.758v-232.215s.002-.005.005-.005z" fill="#e5e1e5"/><path d="m264.46 30.98v252.22c0 8.82-7.14 15.97-15.96 15.97-2.82-.06-5.52-.86-7.86-2.21-4.78-2.76-8.1-7.86-8.1-13.76v-252.22z" fill="#d7d0d6"/><path d="m248.5 30.98v252.22c0 5.86-3.15 10.99-7.86 13.76-4.78-2.76-8.1-7.86-8.1-13.76v-252.22z" fill="#e5e1e5"/><path d="m73.16 86.59h350.68v48.48h-350.68z" fill="#596c76"/><path d="m73.16 86.59h319.01v48.48h-319.01z" fill="#7a8c98"/><g fill="#e5e1e5"><circle cx="248.5" cy="110.833" r="7.5"/><circle cx="168.685" cy="110.833" r="7.5"/><circle cx="328.315" cy="110.833" r="7.5"/></g><g><path d="m293.278 458.001h-89.557c-4.142 0-7.5-3.357-7.5-7.5s3.358-7.5 7.5-7.5h89.557c4.142 0 7.5 3.357 7.5 7.5s-3.358 7.5-7.5 7.5z" fill="#fedba6"/></g></g></svg>