<svg id="Capa_1" enable-background="new 0 0 511.999 511.999" height="512" viewBox="0 0 511.999 511.999" width="512" xmlns="http://www.w3.org/2000/svg"><g><path d="m248.348 197.142v-66.322h-46.269c4.218 10.442 6.51 21.587 6.51 33.161s-2.291 22.719-6.51 33.161z" fill="#b1dbfc"/><path d="m208.489 168.039c-.47 10.123-2.686 19.887-6.409 29.103h46.269v-29.103z" fill="#8bcaff"/><path d="m479.245 72.986h-215.952c-9.918 0-17.959 8.04-17.959 17.959v146.072c0 9.918 8.04 17.959 17.959 17.959h215.952c18.09 0 32.754-14.665 32.754-32.754v-116.482c0-18.089-14.665-32.754-32.754-32.754z" fill="#dfebfa"/><path d="m282.078 237.017v-146.072c0-9.918 8.041-17.959 17.959-17.959h-36.743c-9.918 0-17.959 8.041-17.959 17.959v146.072c0 9.918 8.04 17.959 17.959 17.959h36.743c-9.919 0-17.959-8.041-17.959-17.959z" fill="#b1dbfc"/><path d="m65.226 259.059c-23.656-9.987-42.982-28.277-54.295-51.206v209.707c0 20.414 16.549 36.964 36.964 36.964h17.331z" fill="#6e60b8"/><path d="m147.785 259.059v195.464h17.331c20.415 0 36.964-16.549 36.964-36.964v-209.706c-11.313 22.929-30.64 41.219-54.295 51.206z" fill="#8479c2"/><g><g><path d="m482.36 182.841c-4.267 0-7.726-3.459-7.726-7.726v-22.268c0-4.268 3.459-7.726 7.726-7.726s7.726 3.459 7.726 7.726v22.268c0 4.267-3.459 7.726-7.726 7.726z" fill="#b1dbfc"/></g></g><path d="m444.841 105.179h-159.306c-4.423 0-8.008 3.585-8.008 8.008v101.587c0 4.423 3.585 8.008 8.008 8.008h159.306c4.423 0 8.008-3.585 8.008-8.008v-101.587c0-4.422-3.585-8.008-8.008-8.008z" fill="#ff656f"/><path d="m314.27 214.775v-101.588c0-4.423 3.585-8.008 8.008-8.008h-36.743c-4.423 0-8.008 3.585-8.008 8.008v101.587c0 4.423 3.585 8.008 8.008 8.008h36.743c-4.423.001-8.008-3.585-8.008-8.007z" fill="#ff4756"/><path d="m389.099 159.562-35.09-21.135c-4.296-2.587-9.771.506-9.771 5.521v42.271c0 5.015 5.475 8.109 9.771 5.521l35.09-21.135c4.16-2.506 4.16-8.537 0-11.043z" fill="#dfebfa"/><path d="m106.505 267.396c-18.382 0-35.689-4.684-50.795-12.918v200.045h33.871v-58.023c0-7.174 5.816-12.989 12.989-12.989h7.868c7.174 0 12.989 5.815 12.989 12.989v58.023h33.872v-200.045c-15.104 8.234-32.411 12.918-50.794 12.918z" fill="#6e60b8"/><path d="m89.058 265.959c-11.89-1.969-23.124-5.909-33.347-11.481v200.045h33.347z" fill="#6353b2"/><g><path d="m125.267 350.29h-37.523c-4.267 0-7.726-3.459-7.726-7.726 0-4.268 3.459-7.726 7.726-7.726h37.522c4.267 0 7.726 3.459 7.726 7.726.001 4.267-3.458 7.726-7.725 7.726z" fill="#8479c2"/></g><g><path d="m106.505 270.486c-58.727 0-106.505-47.778-106.505-106.505s47.778-106.505 106.505-106.505 106.505 47.779 106.505 106.505-47.777 106.505-106.505 106.505z" fill="#dfebfa"/></g><path d="m33.348 163.981c0-53.055 38.997-97.17 89.831-105.197-5.434-.858-11.002-1.308-16.674-1.308-58.727 0-106.505 47.778-106.505 106.505s47.778 106.505 106.505 106.505c5.672 0 11.239-.45 16.674-1.309-50.835-8.026-89.831-52.141-89.831-105.196z" fill="#b1dbfc"/><circle cx="106.505" cy="163.981" fill="#8bcaff" r="75.484"/><path d="m73.158 163.981c0-34.31 23.018-63.327 54.416-72.47-6.692-1.949-13.756-3.014-21.068-3.014-41.622 0-75.484 33.863-75.484 75.484 0 41.622 33.862 75.484 75.484 75.484 7.312 0 14.377-1.065 21.068-3.014-31.399-9.144-54.416-38.161-54.416-72.47z" fill="#5cb3f8"/><circle cx="106.505" cy="163.981" fill="#5cb3f8" r="33.348"/><path d="m106.505 163.981c0-12.316 6.716-23.086 16.674-28.861-4.909-2.847-10.602-4.486-16.674-4.486-18.388 0-33.348 14.96-33.348 33.348s14.96 33.347 33.348 33.347c6.072 0 11.765-1.639 16.674-4.486-9.957-5.776-16.674-16.546-16.674-28.862z" fill="#2fa2f6"/><path d="m110.61 377.745h-8.21c-7.485 0-13.553 6.068-13.553 13.553v63.226h35.315v-63.226c.001-7.486-6.067-13.553-13.552-13.553z" fill="#dfebfa"/><path d="m115.334 378.608c-1.473-.549-3.06-.863-4.724-.863h-8.21c-7.485 0-13.553 6.068-13.553 13.553v63.226h17.658v-63.226c0-5.822 3.677-10.771 8.829-12.69z" fill="#b1dbfc"/></g></svg>