<svg id="Capa_1" enable-background="new 0 0 512 512" height="512" viewBox="0 0 512 512" width="512" xmlns="http://www.w3.org/2000/svg"><g><g><path d="m491.123 176.643-267.14 77.489-39.922-137.628c-6.841-23.585 6.732-48.25 30.317-55.091l34.868-10.114 174.725-50.683c8.197-2.378 16.77 2.34 19.147 10.537z" fill="#dd5790"/></g><g><path d="m397.259 16.143 50.228 173.157 43.636-12.657-48.004-165.49c-2.378-8.197-10.95-12.915-19.147-10.537l-30.153 8.746c1.512 1.977 2.705 4.247 3.44 6.781z" fill="#da387d"/></g><g><path d="m254.293 51.482h15.322v187.766h-15.322z" fill="#da387d" transform="matrix(.96 -.279 .279 .96 -30.126 78.731)"/></g><g><g><g><path d="m4.014 404.331-3.093 66.305v18.234c0 8.542 6.925 15.467 15.467 15.467h207.53c-.851-2.947-1.317-6.059-1.317-9.28 0-18.446 14.953-33.399 33.399-33.399s33.399 14.953 33.399 33.399c0 3.222-.465 6.333-1.317 9.28h207.53c8.542 0 15.467-6.925 15.467-15.467v-17.203l-3.093-67.336z" fill="#dd5790"/></g></g><g><g><g><path d="m464.568 404.331v84.539c0 8.542-6.925 15.467-15.467 15.467h46.511c8.542 0 15.467-6.925 15.467-15.467v-16.537l-3.093-68.002z" fill="#da387d"/></g></g></g><g><g><path d="m500.768 162.201h-38.923c-28.097 0-56.14-3.493-83.169-11.165-13.858-3.933-28.342-6.021-43.248-6.021-28.491 0-55.441 7.622-79.427 21.187v295.456c10.741 0 20.291 5.076 26.401 12.954 16.774-5.938 34.574-9.154 53.026-9.154 14.906 0 29.39 2.088 43.248 6.021 27.029 7.672 55.073 11.165 83.169 11.165h38.923c5.695 0 10.311-4.617 10.311-10.311v-299.82c0-5.695-4.617-10.312-10.311-10.312z" fill="#dae7ef"/></g></g><g><g><path d="m256 461.658v-295.456c-23.986-13.565-50.936-21.187-79.427-21.187-14.906 0-29.39 2.088-43.248 6.021-27.029 7.672-55.072 11.165-83.169 11.165h-38.924c-5.695 0-10.311 4.617-10.311 10.311v299.82c0 5.695 4.617 10.311 10.311 10.311h38.923c28.097 0 56.14-3.493 83.169-11.165 13.858-3.933 28.342-6.021 43.248-6.021 18.453 0 36.253 3.215 53.026 9.154 6.111-7.877 15.661-12.953 26.402-12.953z" fill="#dae7ef"/></g></g><g><g><path d="m256 461.658v-295.456c-14.471-8.184-30.027-14.187-46.344-17.676v270.831c0 1.803-1.636 3.181-3.407 2.842-9.657-1.847-19.567-2.821-29.676-2.821-14.906 0-29.39 2.088-43.248 6.021-27.029 7.672-55.072 11.165-83.169 11.165h-49.235v35.768c0 5.695 4.617 10.311 10.311 10.311h38.923c28.097 0 56.14-3.493 83.169-11.165 13.859-3.933 28.342-6.021 43.248-6.021 18.453 0 36.253 3.215 53.026 9.154 6.111-7.877 15.661-12.953 26.402-12.953z" fill="#c1d5e4"/></g></g><g><g><path d="m500.768 162.201h-36.032v271.473c0 1.596-1.294 2.891-2.891 2.891-28.097 0-56.14-3.493-83.169-11.165-13.858-3.933-28.342-6.021-43.248-6.021-28.491 0-55.441 7.622-79.427 21.187v21.092c10.741 0 20.291 5.076 26.401 12.954 16.774-5.938 34.574-9.154 53.026-9.154 14.906 0 29.39 2.088 43.248 6.021 27.029 7.672 55.072 11.165 83.169 11.165h38.923c5.695 0 10.311-4.617 10.311-10.311v-299.82c0-5.695-4.617-10.312-10.311-10.312z" fill="#c1d5e4"/></g></g></g><g><g><path d="m288.086 512c-.705 0-1.42-.098-2.132-.303-4.064-1.175-6.407-5.422-5.232-9.487.673-2.331 1.015-4.738 1.015-7.153 0-14.192-11.546-25.738-25.738-25.738s-25.738 11.546-25.738 25.738c0 2.412.342 4.82 1.016 7.155 1.173 4.065-1.171 8.312-5.236 9.485-4.063 1.173-8.31-1.171-9.485-5.235-1.073-3.717-1.617-7.555-1.617-11.406 0-22.641 18.419-41.06 41.06-41.06s41.06 18.419 41.06 41.06c0 3.855-.545 7.693-1.618 11.408-.969 3.354-4.031 5.536-7.355 5.536z" fill="#da387d"/></g></g><g><g><path d="m438.35 243.192h-112.995c-4.231 0-7.661-3.43-7.661-7.661s3.429-7.661 7.661-7.661h112.995c4.231 0 7.661 3.43 7.661 7.661s-3.429 7.661-7.661 7.661z" fill="#407093"/></g><g><path d="m438.35 287.739h-112.995c-4.231 0-7.661-3.43-7.661-7.661s3.429-7.661 7.661-7.661h112.995c4.231 0 7.661 3.43 7.661 7.661s-3.429 7.661-7.661 7.661z" fill="#407093"/></g><g><path d="m438.35 332.284h-112.995c-4.231 0-7.661-3.43-7.661-7.661s3.429-7.661 7.661-7.661h112.995c4.231 0 7.661 3.43 7.661 7.661s-3.429 7.661-7.661 7.661z" fill="#407093"/></g><g><path d="m369.438 376.83h-44.082c-4.231 0-7.661-3.43-7.661-7.661s3.429-7.661 7.661-7.661h44.082c4.231 0 7.661 3.43 7.661 7.661s-3.43 7.661-7.661 7.661z" fill="#407093"/></g></g><g><path d="m132.432 368.396-31.897-19.65c-3.313-2.041-7.494-2.041-10.808 0l-31.897 19.65c-3.432 2.114-7.853-.355-7.853-4.386v-205.873c0-3.702 2.803-6.803 6.486-7.175l75.885-7.673c4.248-.43 7.937 2.905 7.937 7.175v213.546c0 4.031-4.421 6.5-7.853 4.386z" fill="#407093"/></g><g><g><path d="m132.348 143.289-23.587 2.385c1.13 1.269 1.824 2.941 1.824 4.79v204.473l21.847 13.459c3.432 2.114 7.853-.355 7.853-4.386v-213.546c0-4.27-3.689-7.605-7.937-7.175z" fill="#2b4d66"/></g></g></g></svg>