<svg id="Capa_1" enable-background="new 0 0 504.5 504.5" height="512" viewBox="0 0 504.5 504.5" width="512" xmlns="http://www.w3.org/2000/svg"><g><g><path d="m417.691 424.469c-4.142 0-7.5-3.357-7.5-7.5v-390.811c0-4.143 3.358-7.5 7.5-7.5s7.5 3.357 7.5 7.5v390.811c0 4.142-3.358 7.5-7.5 7.5z" fill="#e9b665"/></g><g><path d="m444.365 246.831h-73.465c-4.142 0-7.5-3.357-7.5-7.5s3.358-7.5 7.5-7.5h73.465c4.142 0 7.5 3.357 7.5 7.5s-3.358 7.5-7.5 7.5z" fill="#d8aa5e"/></g><g><path d="m307.397 424.469c-4.142 0-7.5-3.357-7.5-7.5v-390.811c0-4.143 3.358-7.5 7.5-7.5s7.5 3.357 7.5 7.5v390.811c0 4.142-3.357 7.5-7.5 7.5z" fill="#e9b665"/></g><g><path d="m307.396 181.913h-49.046c-4.142 0-7.5-3.357-7.5-7.5s3.358-7.5 7.5-7.5h49.046c4.142 0 7.5 3.357 7.5 7.5s-3.358 7.5-7.5 7.5z" fill="#d8aa5e"/></g><path d="m278.405 283.302v145.545h-52.31v-335.544c0-2.174 1.762-3.936 3.936-3.936h24.383c2.174 0 3.936 1.762 3.936 3.936v161.888c0 8.74 5.587 16.172 13.385 18.92 3.947 1.391 6.67 5.007 6.67 9.191z" fill="#a44f3e"/><path d="m261.666 283.302v145.545h-35.571v-335.544c0-2.174 1.762-3.936 3.936-3.936h7.644c2.174 0 3.936 1.762 3.936 3.936v161.888c0 8.74 5.587 16.172 13.385 18.92 3.946 1.391 6.67 5.007 6.67 9.191z" fill="#bb5d4c"/><g><path d="m86.81 424.466c-4.142 0-7.5-3.357-7.5-7.5v-390.808c0-4.143 3.358-7.5 7.5-7.5s7.5 3.357 7.5 7.5v390.808c0 4.142-3.358 7.5-7.5 7.5z" fill="#e9b665"/></g><g><path d="m197.104 424.469c-4.142 0-7.5-3.357-7.5-7.5v-390.811c0-4.143 3.358-7.5 7.5-7.5s7.5 3.357 7.5 7.5v390.811c0 4.142-3.358 7.5-7.5 7.5z" fill="#e9b665"/></g><g><path d="m86.81 504.5c-4.142 0-7.5-3.357-7.5-7.5v-29.251c0-4.143 3.358-7.5 7.5-7.5s7.5 3.357 7.5 7.5v29.251c0 4.143-3.358 7.5-7.5 7.5z" fill="#e9b665"/></g><g><path d="m417.691 504.5c-4.142 0-7.5-3.357-7.5-7.5v-29.251c0-4.143 3.358-7.5 7.5-7.5s7.5 3.357 7.5 7.5v29.251c0 4.143-3.358 7.5-7.5 7.5z" fill="#e9b665"/></g><path d="m444.365 4.885v16.385c0 2.698-2.187 4.885-4.885 4.885h-374.46c-2.698 0-4.885-2.187-4.885-4.885v-16.385c0-2.698 2.187-4.885 4.885-4.885h374.46c2.698 0 4.885 2.187 4.885 4.885z" fill="#e19974"/><path d="m397.286 4.885v16.385c0 2.698-2.187 4.885-4.885 4.885h-327.381c-2.698 0-4.885-2.187-4.885-4.885v-16.385c0-2.698 2.187-4.885 4.885-4.885h327.381c2.698 0 4.885 2.187 4.885 4.885z" fill="#e8ad8c"/><g><path d="m226.095 181.913h-78.037c-4.142 0-7.5-3.357-7.5-7.5s3.358-7.5 7.5-7.5h78.037c4.142 0 7.5 3.357 7.5 7.5s-3.358 7.5-7.5 7.5z" fill="#d8aa5e"/></g><path d="m168.114 283.302v147.738h-52.31v-337.737c0-2.174 1.762-3.936 3.936-3.936h24.383c2.174 0 3.936 1.762 3.936 3.936v161.888c0 8.74 5.587 16.172 13.385 18.92 3.946 1.391 6.67 5.007 6.67 9.191z" fill="#a44f3e"/><path d="m152.076 283.302v147.738h-36.272v-337.737c0-2.174 1.762-3.936 3.936-3.936h8.345c2.174 0 3.936 1.762 3.936 3.936v161.888c0 8.74 5.587 16.172 13.385 18.92 3.946 1.391 6.67 5.007 6.67 9.191z" fill="#bb5d4c"/><path d="m383.434 310.95v113.516h-41.786v-265.252c0-2.174 1.762-3.936 3.936-3.936h21.38c2.174 0 3.936 1.762 3.936 3.936v131.747c0 4.906 2.814 9.15 6.916 11.209 3.372 1.691 5.618 5.008 5.618 8.78z" fill="#a44f3e"/><path d="m370.901 310.95v113.516h-29.252v-265.252c0-2.174 1.762-3.936 3.936-3.936h8.847c2.174 0 3.936 1.762 3.936 3.936v131.747c0 4.906 2.814 9.15 6.916 11.209 3.37 1.691 5.617 5.008 5.617 8.78z" fill="#bb5d4c"/><g><path d="m115.804 181.913h-55.669c-4.142 0-7.5-3.357-7.5-7.5s3.358-7.5 7.5-7.5h55.669c4.142 0 7.5 3.357 7.5 7.5s-3.358 7.5-7.5 7.5z" fill="#d8aa5e"/></g><g><path d="m341.648 246.831h-34.253c-4.142 0-7.5-3.357-7.5-7.5s3.358-7.5 7.5-7.5h34.253c4.142 0 7.5 3.357 7.5 7.5s-3.357 7.5-7.5 7.5z" fill="#d8aa5e"/></g><path d="m444.365 430.79v23.134c0 7.635-6.189 13.824-13.824 13.824h-356.582c-7.635 0-13.824-6.189-13.824-13.824v-23.134c0-7.635 6.189-13.824 13.824-13.824h356.582c7.635 0 13.824 6.19 13.824 13.824z" fill="#e19974"/><path d="m397.286 430.79v23.134c0 7.635-6.189 13.824-13.824 13.824h-309.503c-7.635 0-13.824-6.189-13.824-13.824v-23.134c0-7.635 6.189-13.824 13.824-13.824h309.502c7.636 0 13.825 6.19 13.825 13.824z" fill="#e8ad8c"/></g></svg>