<svg id="Capa_1" enable-background="new 0 0 497 497" height="512" viewBox="0 0 497 497" width="512" xmlns="http://www.w3.org/2000/svg"><g><path d="m93.87 126.82v243.36c0 5.7-4.62 10.32-10.32 10.32h-23.36c-5.7 0-10.32-4.62-10.32-10.32v-243.36c0-5.7 4.62-10.32 10.32-10.32h23.36c5.7 0 10.32 4.62 10.32 10.32z" fill="#e19974"/><path d="m71.87 126.82v243.36c0 5.7-4.62 10.32-10.32 10.32h-1.36c-5.7 0-10.32-4.62-10.32-10.32v-243.36c0-5.7 4.62-10.32 10.32-10.32h1.36c5.7 0 10.32 4.62 10.32 10.32z" fill="#e8ad8c"/><path d="m456.7 132.82v231.36c0 5.7-4.62 10.32-10.32 10.32h-23.36c-5.7 0-10.32-4.62-10.32-10.32v-231.36c0-5.7 4.62-10.32 10.32-10.32h23.36c5.7 0 10.32 4.62 10.32 10.32z" fill="#e19974"/><path d="m434.7 132.82v231.36c0 5.7-4.62 10.32-10.32 10.32h-1.36c-5.7 0-10.32-4.62-10.32-10.32v-231.36c0-5.7 4.62-10.32 10.32-10.32h1.36c5.7 0 10.32 4.62 10.32 10.32z" fill="#e8ad8c"/><path d="m497 174.459v148.073c0 5.521-4.256 10.109-9.761 10.523l-17.069 1.285-251.78 18.96c-56.15 4.22-112.22-10.19-168.52-10.27v-189.07c56.34.12 112.33-14.49 168.52-10.26l251.78 18.95 17.069 1.285c5.506.415 9.761 5.002 9.761 10.524z" fill="#d8aa5e"/><path d="m470.17 172.439v152.113c0 5.521-4.255 10.109-9.761 10.523l-242.019 18.225c-56.15 4.22-112.22-10.19-168.52-10.27v-189.07c56.34.12 112.33-14.49 168.52-10.26l242.019 18.215c5.505.415 9.761 5.003 9.761 10.524z" fill="#e9b665"/><path d="m49.87 153.96v189.07h-43.885c-3.305 0-5.985-2.68-5.985-5.985v-177.1c0-3.305 2.68-5.985 5.985-5.985z" fill="#e41f2d"/><path d="m24.93 159.945v177.1c0 3.305-2.68 5.985-5.985 5.985h-12.96c-3.305 0-5.985-2.68-5.985-5.985v-177.1c0-3.305 2.68-5.985 5.985-5.985h12.96c3.305 0 5.985 2.68 5.985 5.985z" fill="#fd4755"/><path d="m456.7 207.27h40.3v82.46h-40.3z" fill="#e41f2d"/><path d="m456.7 207.27h20.15v82.46h-20.15z" fill="#fd4755"/><g><path d="m169.71 200.113c-4.142 0-7.5-3.357-7.5-7.5v-21.808c0-4.143 3.358-7.5 7.5-7.5s7.5 3.357 7.5 7.5v21.808c0 4.143-3.357 7.5-7.5 7.5z" fill="#bb5d4c"/></g><g><path d="m207.704 233.422c-4.142 0-7.5-3.357-7.5-7.5v-21.809c0-4.143 3.358-7.5 7.5-7.5s7.5 3.357 7.5 7.5v21.809c0 4.142-3.358 7.5-7.5 7.5z" fill="#bb5d4c"/></g><g><path d="m245.698 266.729c-4.142 0-7.5-3.357-7.5-7.5v-21.808c0-4.143 3.358-7.5 7.5-7.5s7.5 3.357 7.5 7.5v21.808c-.001 4.143-3.358 7.5-7.5 7.5z" fill="#bb5d4c"/></g><g><path d="m326.796 300.038c-4.143 0-7.5-3.357-7.5-7.5v-21.808c0-4.143 3.357-7.5 7.5-7.5s7.5 3.357 7.5 7.5v21.808c0 4.143-3.358 7.5-7.5 7.5z" fill="#bb5d4c"/></g><g><path d="m207.704 333.346c-4.142 0-7.5-3.357-7.5-7.5v-21.808c0-4.143 3.358-7.5 7.5-7.5s7.5 3.357 7.5 7.5v21.808c0 4.142-3.358 7.5-7.5 7.5z" fill="#bb5d4c"/></g><g><path d="m431.14 322.953h-381.271c-4.142 0-7.5-3.357-7.5-7.5s3.358-7.5 7.5-7.5h381.271c4.143 0 7.5 3.357 7.5 7.5s-3.358 7.5-7.5 7.5z" fill="#ffefd2"/></g><g><path d="m431.14 289.475h-381.271c-4.142 0-7.5-3.357-7.5-7.5s3.358-7.5 7.5-7.5h381.271c4.143 0 7.5 3.357 7.5 7.5s-3.358 7.5-7.5 7.5z" fill="#ffefd2"/></g><g><path d="m431.14 255.996h-381.271c-4.142 0-7.5-3.357-7.5-7.5s3.358-7.5 7.5-7.5h381.271c4.143 0 7.5 3.357 7.5 7.5s-3.358 7.5-7.5 7.5z" fill="#ffefd2"/></g><g><path d="m431.14 222.518h-381.271c-4.142 0-7.5-3.357-7.5-7.5s3.358-7.5 7.5-7.5h381.271c4.143 0 7.5 3.357 7.5 7.5s-3.358 7.5-7.5 7.5z" fill="#ffefd2"/></g><g><path d="m431.14 189.039h-381.271c-4.142 0-7.5-3.357-7.5-7.5s3.358-7.5 7.5-7.5h381.271c4.143 0 7.5 3.357 7.5 7.5s-3.358 7.5-7.5 7.5z" fill="#ffefd2"/></g><path d="m456.696 335.355-25.556 1.924v-177.565l25.556 1.924z" fill="#e5e1e5"/></g></svg>