<svg id="Capa_1" enable-background="new 0 0 512 512" height="512" viewBox="0 0 512 512" width="512" xmlns="http://www.w3.org/2000/svg"><g><path d="m423.092 357.342v17.487c0 8.648 6.613 15.658 14.771 15.658h14.255c8.158 0 14.771-7.01 14.771-15.658v-17.487z" fill="#8479c2"/><path d="m58.305 357.342v17.487c0 8.648 6.613 15.658 14.771 15.658h14.255c8.158 0 14.771-7.01 14.771-15.658v-17.487z" fill="#8479c2"/><path d="m444.991 374.829v-17.487h-21.898v17.487c0 8.647 6.613 15.658 14.771 15.658h14.255c1.324 0 2.601-.202 3.822-.548-6.303-1.788-10.95-7.866-10.95-15.11z" fill="#6353b2"/><path d="m80.203 374.829v-17.487h-21.898v17.487c0 8.647 6.613 15.658 14.771 15.658h14.255c1.324 0 2.601-.202 3.822-.548-6.302-1.788-10.95-7.866-10.95-15.11z" fill="#6353b2"/><path d="m468.204 152.507c-16.041-19.009-39.402-30.994-65.427-30.994h-280.36c-26.025 0-49.386 11.985-65.427 30.994z" fill="#b1dbfc"/><path d="m200.9 121.513h-78.483c-26.025 0-49.386 11.985-65.427 30.994h78.483c16.042-19.009 39.403-30.994 65.427-30.994z" fill="#8bcaff"/><path d="m501.673 309.764h-476.99l-11.489 8.394c0 22.678 18.384 41.062 41.062 41.062h416.683c22.678 0 41.062-18.384 41.062-41.062z" fill="#b1dbfc"/><path d="m80.203 318.158 11.489-8.394h-67.01l-11.489 8.394c0 22.678 18.384 41.062 41.062 41.062h67.01c-22.678 0-41.062-18.384-41.062-41.062z" fill="#8bcaff"/><path d="m481.863 150.897c-2.743 0-421.358 0-438.532 0-16.644 0-30.137 13.493-30.137 30.137v137.124h498.806v-137.124c0-16.645-13.493-30.137-30.137-30.137z" fill="#dfebfa"/><path d="m110.34 150.897c-37.227 0-63.01 0-67.009 0-16.644 0-30.137 13.493-30.137 30.137v137.124h67.009v-137.124c0-16.645 13.493-30.137 30.137-30.137z" fill="#b1dbfc"/><circle cx="351.52" cy="255.058" fill="#8479c2" r="104.161"/><path d="m288.63 255.058c0-50.461 35.884-92.538 83.526-102.114-6.671-1.341-13.57-2.048-20.636-2.048-57.527 0-104.161 46.635-104.161 104.161s46.634 104.163 104.161 104.163c7.065 0 13.965-.707 20.636-2.048-47.642-9.576-83.526-51.652-83.526-102.114z" fill="#6e60b8"/><circle cx="351.52" cy="255.058" fill="#8bcaff" r="70.257"/><path d="m322.534 255.058c0-31.561 20.921-58.323 49.622-67.159-6.528-2.01-13.457-3.097-20.636-3.097-38.74 0-70.258 31.517-70.258 70.257s31.517 70.257 70.258 70.257c7.179 0 14.108-1.087 20.636-3.097-28.701-8.838-49.622-35.6-49.622-67.161z" fill="#5cb3f8"/><circle cx="351.52" cy="255.058" fill="#5cb3f8" r="29.76"/><path d="m351.52 255.058c0-10.991 5.994-20.603 14.88-25.757-4.381-2.541-9.462-4.004-14.88-4.004-16.41 0-29.761 13.35-29.761 29.76s13.35 29.76 29.761 29.76c5.419 0 10.499-1.463 14.88-4.004-8.886-5.152-14.88-14.764-14.88-25.755z" fill="#2fa2f6"/><g><g><path d="m102.101 194.108h-94.489c-4.204 0-7.612-3.408-7.612-7.612s3.408-7.612 7.612-7.612h94.49c4.204 0 7.612 3.408 7.612 7.612s-3.409 7.612-7.613 7.612z" fill="#8bcaff"/></g></g><g><g><path d="m102.101 226.129h-94.489c-4.204 0-7.612-3.408-7.612-7.612s3.408-7.612 7.612-7.612h94.49c4.204 0 7.612 3.408 7.612 7.612s-3.409 7.612-7.613 7.612z" fill="#8bcaff"/></g></g><g><g><path d="m102.101 258.149h-94.489c-4.204 0-7.612-3.408-7.612-7.612s3.408-7.612 7.612-7.612h94.49c4.204 0 7.612 3.408 7.612 7.612s-3.409 7.612-7.613 7.612z" fill="#8bcaff"/></g></g><g><g><path d="m102.101 290.17h-94.489c-4.204 0-7.612-3.408-7.612-7.612s3.408-7.612 7.612-7.612h94.49c4.204 0 7.612 3.408 7.612 7.612-.001 4.204-3.409 7.612-7.613 7.612z" fill="#8bcaff"/></g></g></g></svg>