<svg id="Capa_1" enable-background="new 0 0 497 497" height="512" viewBox="0 0 497 497" width="512" xmlns="http://www.w3.org/2000/svg"><g><path d="m165.819 451.654h-13.84c-4.369 0-7.911-3.542-7.911-7.911v-33.588h29.663v33.588c-.001 4.369-3.543 7.911-7.912 7.911z" fill="#e9b665"/><path d="m442.208 451.654h-13.84c-4.369 0-7.911-3.542-7.911-7.911v-29.806h29.663v29.806c-.001 4.369-3.543 7.911-7.912 7.911z" fill="#e9b665"/><path d="m26.17 368.598c0 15.03 12.19 27.22 27.22 27.22h76.598v26.17h-76.598c-29.49 0-53.39-23.9-53.39-53.39 0-14.74 5.98-28.09 15.64-37.75 9.66-9.67 23-15.64 37.75-15.64h76.598v26.17h-76.598c-15.03 0-27.22 12.19-27.22 27.22z" fill="#d7d0d6"/><path d="m10.17 368.598c0 15.03 12.19 27.22 27.22 27.22h69.97v26.17h-53.97c-29.49 0-53.39-23.9-53.39-53.39 0-14.74 5.98-28.09 15.64-37.75 9.66-9.67 23-15.64 37.75-15.64h53.97v26.17h-69.97c-15.03 0-27.22 12.19-27.22 27.22z" fill="#e5e1e5"/><path d="m487.143 376.711h-16.316l-22.79-23.653 22.79-37.851v-278.406c0-18.111 26.173-18.391 26.173 0v330.054c0 5.443-4.413 9.856-9.857 9.856z" fill="#e5e1e5"/><path d="m470.824 315.205v94.378c0 6.853-5.555 12.408-12.408 12.408h-335.057v-106.786z" fill="#d8aa5e"/><path d="m318.5 413.937v51.701c0 4.55-3.69 8.25-8.25 8.25h-26.32c-4.55 0-8.25-3.7-8.25-8.25v-51.701z" fill="#465a61"/><path d="m297.09 410.154v55.483c0 4.55-3.69 8.25-8.25 8.25h-4.91c-4.55 0-8.25-3.7-8.25-8.25v-55.483z" fill="#596c76"/><path d="m123.359 315.205h311.932v106.786h-311.932z" fill="#e9b665"/><path d="m435.291 380.301v41.69h-276.389v-41.69c0-7.909 6.412-14.321 14.321-14.321h247.747c7.909 0 14.321 6.412 14.321 14.321z" fill="#a44f3e"/><path d="m401.528 380.301v41.69h-242.626v-41.69c0-7.909 6.412-14.321 14.321-14.321h213.984c7.909 0 14.321 6.412 14.321 14.321z" fill="#bb5d4c"/><circle cx="219.359" cy="393.986" fill="#e5e1e5" r="7.852"/><circle cx="271.182" cy="393.986" fill="#d7d0d6" r="7.852"/><circle cx="323.005" cy="393.986" fill="#e5e1e5" r="7.852"/><circle cx="374.827" cy="393.986" fill="#d7d0d6" r="7.852"/></g></svg>