<svg id="Capa_1" enable-background="new 0 0 512 512" height="512" viewBox="0 0 512 512" width="512" xmlns="http://www.w3.org/2000/svg"><g><g><path d="m442.733 445.083 4.986-15.705v-401.956c0-11.014-8.929-19.943-19.943-19.943h-283.513c-11.014 0-19.943 8.929-19.943 19.943v401.957l4.986 15.705h313.427z" fill="#61a2f9"/></g><g><path d="m427.776 7.479h-15.907v437.605h30.864l4.986-15.705v-401.957c0-11.015-8.929-19.943-19.943-19.943z" fill="#4a81f6"/></g><g><path d="m124.321 429.378v55.2c0 11.014 8.929 19.943 19.943 19.943h283.512c11.014 0 19.943-8.929 19.943-19.943v-55.2z" fill="#dae7ef"/></g><g><path d="m411.868 429.378v19.35c0 11.014-8.929 19.943-19.943 19.943h-267.604v15.907c0 11.014 8.929 19.943 19.943 19.943h283.512c11.014 0 19.943-8.929 19.943-19.943v-55.2z" fill="#c1d5e4"/></g><g><path d="m427.776 512h-283.513c-15.12 0-27.421-12.301-27.421-27.421v-457.158c0-15.12 12.301-27.421 27.421-27.421h283.512c15.12 0 27.421 12.301 27.421 27.421v457.157c.001 15.121-12.3 27.422-27.42 27.422zm-283.513-497.043c-6.873 0-12.464 5.591-12.464 12.464v457.157c0 6.873 5.591 12.464 12.464 12.464h283.512c6.873 0 12.464-5.591 12.464-12.464v-457.157c0-6.873-5.591-12.464-12.464-12.464z" fill="#98b9d3"/></g><g><path d="m310.139 476.423h-48.238c-4.13 0-7.479-3.348-7.479-7.479 0-4.13 3.348-7.479 7.479-7.479h48.238c4.13 0 7.479 3.348 7.479 7.479-.001 4.13-3.349 7.479-7.479 7.479z" fill="#407093"/></g><g><g><path d="m98.196 185.246v-110.06l13.479-4.986h54.518l12.771 4.986v110.06l-12.771 4.986h-54.518z" fill="#f6f9f9"/></g><g><path d="m98.196 166.262v18.984l13.479 4.986h54.518l12.771-4.986v-18.984z" fill="#dae7ef"/></g><g><path d="m166.193 190.232v-120.032h44.518c5.523 0 10 4.477 10 10v100.031c0 5.523-4.477 10-10 10h-44.518z" fill="#dd5790"/></g><g><path d="m57.157 180.232v-100.032c0-5.523 4.477-10 10-10h44.518v120.031h-44.518c-5.523.001-10-4.477-10-9.999z" fill="#86f1a7"/></g><g><path d="m210.74 70.2h-14.352v86.09c0 5.507-4.464 9.971-9.971 9.971h-20.223v23.97h44.547c5.507 0 9.971-4.464 9.971-9.971v-100.088c-.001-5.507-4.465-9.972-9.972-9.972z" fill="#da387d"/></g><g><path d="m57.157 166.262v13.998c0 5.507 4.464 9.971 9.971 9.971h44.547v-23.97h-54.518z" fill="#78d090"/></g></g><g><g><path d="m215.371 344.403h-153.582l-4.986-8.6v-40.011l4.986-8.974h153.582l4.986 8.974v40.011z" fill="#dd5790"/></g><g><path d="m215.371 286.818h-18.984v55.054c0 .876-.124 1.722-.337 2.531h19.321l4.986-8.6v-40.01z" fill="#da387d"/></g><g><path d="m220.357 295.792h-163.554v-30.01c0-5.523 4.477-10 10-10h143.554c5.523 0 10 4.477 10 10z" fill="#407093"/></g><g><path d="m210.357 375.813h-143.554c-5.523 0-10-4.477-10-10v-30.01h163.554v30.01c0 5.523-4.477 10-10 10z" fill="#f6e266"/></g><g><path d="m196.387 335.803v6.069c0 5.507-4.464 9.971-9.971 9.971h-129.613v13.998c0 5.507 4.464 9.971 9.971 9.971h143.611c5.507 0 9.971-4.464 9.971-9.971v-30.039h-23.969z" fill="#ecc32e"/></g><g><path d="m210.386 255.782h-13.998v40.01h23.97v-30.039c-.001-5.507-4.465-9.971-9.972-9.971z" fill="#2b4d66"/></g></g><g><g><g><path d="m307.532 183.545c-13.363 0-26.4-5.583-34.875-14.935-2.773-3.06-2.541-7.79.52-10.563s7.79-2.541 10.564.52c5.686 6.275 14.581 10.021 23.792 10.021 10.096 0 16.655-6.223 17.701-12.079 1.071-6-3.66-11.413-12.979-14.85-12.961-4.781-24.464-9.901-24.947-10.117-.36-.161-.707-.35-1.038-.565-7.872-5.133-11.928-14.139-10.584-23.503 1.444-10.058 8.848-18.267 19.322-21.422 21.436-6.458 39.142 8.142 39.885 8.767 3.161 2.658 3.57 7.375.912 10.537-2.65 3.152-7.349 3.567-10.511.934-.265-.216-12.465-9.986-25.973-5.917-4.912 1.48-8.213 4.929-8.83 9.226-.491 3.417.82 6.576 3.519 8.552 2.532 1.113 12.584 5.477 23.42 9.474 19.475 7.184 24.406 20.988 22.527 31.512-2.485 13.915-16.424 24.408-32.425 24.408z" fill="#f6f9f9"/></g></g><g><g><path d="m371.71 184.728c-4.13 0-7.479-3.348-7.479-7.479v-88.054c0-4.13 3.348-7.479 7.479-7.479 4.13 0 7.479 3.348 7.479 7.479v88.054c-.001 4.131-3.349 7.479-7.479 7.479z" fill="#f6f9f9"/></g></g><g><g><path d="m368.295 69.397c-2.837 0-5.549-1.622-6.806-4.37l-7.562-16.538c-1.718-3.756-.065-8.194 3.691-9.912 3.756-1.715 8.194-.065 9.912 3.691l7.562 16.538c1.718 3.756.065 8.194-3.691 9.912-1.008.46-2.066.679-3.106.679z" fill="#f6f9f9"/></g></g></g><g><g><circle cx="275.769" cy="233.111" fill="#f6f9f9" r="7.827"/></g><g><g><path d="m275.769 405.458c-4.13 0-7.479-3.348-7.479-7.479v-131.41c0-4.13 3.348-7.479 7.479-7.479 4.13 0 7.479 3.348 7.479 7.479v131.411c0 4.13-3.349 7.478-7.479 7.478z" fill="#f6f9f9"/></g></g><g><g><path d="m348.111 357.056c-25.048 0-45.426-20.378-45.426-45.426s20.378-45.426 45.426-45.426 45.426 20.378 45.426 45.426-20.378 45.426-45.426 45.426zm0-75.894c-16.801 0-30.468 13.668-30.468 30.468 0 16.801 13.668 30.468 30.468 30.468 16.801 0 30.468-13.668 30.468-30.468.001-16.801-13.667-30.468-30.468-30.468z" fill="#f6f9f9"/></g><g><path d="m386.058 362.102c-4.13 0-7.479-3.348-7.479-7.479v-85.986c0-4.13 3.348-7.479 7.479-7.479 4.13 0 7.479 3.348 7.479 7.479v85.986c0 4.13-3.349 7.479-7.479 7.479z" fill="#f6f9f9"/></g></g></g></g></svg>