<svg id="Capa_1" enable-background="new 0 0 497 497" height="512" viewBox="0 0 497 497" width="512" xmlns="http://www.w3.org/2000/svg"><g><path d="m433.93 26.46v444.08c0 14.61-11.85 26.46-26.47 26.46h-317.92c-14.62 0-26.47-11.85-26.47-26.46v-444.08c0-14.61 11.85-26.46 26.47-26.46h317.92c14.62 0 26.47 11.85 26.47 26.46z" fill="#465a61"/><path d="m384.53 26.46v444.08c0 14.61-11.85 26.46-26.46 26.46h-268.53c-14.62 0-26.47-11.85-26.47-26.46v-444.08c0-14.61 11.85-26.46 26.47-26.46h268.53c14.61 0 26.46 11.85 26.46 26.46z" fill="#596c76"/><circle cx="248.5" cy="308.741" fill="#7a8c98" r="154.03"/><g><path d="m248.5 470.271c-89.067 0-161.529-72.462-161.529-161.529s72.462-161.53 161.529-161.53 161.529 72.462 161.529 161.529-72.462 161.53-161.529 161.53zm0-308.059c-80.797 0-146.529 65.732-146.529 146.529s65.732 146.53 146.529 146.53 146.529-65.732 146.529-146.529-65.732-146.53-146.529-146.53z" fill="#baafb9"/></g><path d="m369.53 308.74c0 66.84-54.19 121.03-121.03 121.03-6.82 0-13.51-.56-20.02-1.66-57.31-9.53-101.01-59.35-101.01-119.37s43.7-109.84 101.01-119.37c6.51-1.1 13.2-1.66 20.02-1.66 66.84 0 121.03 54.19 121.03 121.03z" fill="#d7d0d6"/><path d="m329.5 308.74c0 60.02-43.7 109.84-101.02 119.37-57.31-9.53-101.01-59.35-101.01-119.37s43.7-109.84 101.01-119.37c57.32 9.53 101.02 59.35 101.02 119.37z" fill="#e5e1e5"/><path d="m302.96 308.74c0 30.08-24.38 54.46-54.46 54.46-7.07 0-13.82-1.35-20.02-3.8-20.17-7.97-34.44-27.65-34.44-50.66s14.27-42.69 34.44-50.66c6.2-2.45 12.95-3.8 20.02-3.8 30.08 0 54.46 24.38 54.46 54.46z" fill="#596c76"/><path d="m262.93 308.74c0 23.01-14.27 42.69-34.45 50.66-20.17-7.97-34.44-27.65-34.44-50.66s14.27-42.69 34.44-50.66c20.18 7.97 34.45 27.65 34.45 50.66z" fill="#7a8c98"/><circle cx="248.5" cy="79.916" fill="#d7d0d6" r="40.035"/><path d="m369.531 119.951c-8.284 0-14.999-6.715-14.999-14.999v-50.072c0-8.284 6.715-14.999 14.999-14.999 8.284 0 14.999 6.715 14.999 14.999v50.072c0 8.284-6.715 14.999-14.999 14.999z" fill="#7a8c98"/><path d="m127.469 119.951c-8.284 0-14.999-6.715-14.999-14.999v-50.072c0-8.284 6.715-14.999 14.999-14.999 8.284 0 14.999 6.715 14.999 14.999v50.072c0 8.284-6.715 14.999-14.999 14.999z" fill="#7a8c98"/><g><path d="m357.415 207.326c-1.919 0-3.839-.732-5.304-2.196-2.929-2.93-2.929-7.678 0-10.607l14.292-14.292c2.93-2.928 7.678-2.928 10.607 0 2.929 2.93 2.929 7.678 0 10.607l-14.292 14.292c-1.464 1.464-3.384 2.196-5.303 2.196z" fill="#d7d0d6"/></g><g><path d="m125.293 439.448c-1.919 0-3.839-.732-5.304-2.196-2.929-2.93-2.929-7.678 0-10.607l14.292-14.292c2.93-2.928 7.678-2.928 10.607 0 2.929 2.93 2.929 7.678 0 10.607l-14.292 14.292c-1.464 1.464-3.384 2.196-5.303 2.196z" fill="#d7d0d6"/></g><g><path d="m371.707 439.448c-1.919 0-3.839-.732-5.304-2.196l-14.292-14.292c-2.929-2.93-2.929-7.678 0-10.607 2.93-2.928 7.678-2.928 10.607 0l14.292 14.292c2.929 2.93 2.929 7.678 0 10.607-1.464 1.464-3.384 2.196-5.303 2.196z" fill="#d7d0d6"/></g><g><path d="m139.585 207.326c-1.919 0-3.839-.732-5.304-2.196l-14.292-14.292c-2.929-2.93-2.929-7.678 0-10.607 2.93-2.928 7.678-2.928 10.607 0l14.292 14.292c2.929 2.93 2.929 7.678 0 10.607-1.464 1.464-3.384 2.196-5.303 2.196z" fill="#d7d0d6"/></g></g></svg>